%TF.GenerationSoftware,KiCad,Pcbnew,10.0.6*%
%TF.CreationDate,2026-09-28T01:15:11-04:00*%
%TF.ProjectId,ai_robot_interface,61695f72-6f62-46f7-945f-696e74657266,A-DRAFT*%
%TF.SameCoordinates,Original*%
%TF.FileFunction,Paste,Top*%
%TF.FilePolarity,Positive*%
%FSLAX46Y46*%
G04 Gerber Fmt 4.6, Leading zero omitted, Abs format (unit mm)*
G04 Created by KiCad (PCBNEW 10.0.6) date 2026-09-28 01:15:11*
%MOMM*%
%LPD*%
G01*
G04 APERTURE LIST*
G04 Aperture macros list*
%AMRoundRect*
0 Rectangle with rounded corners*
0 $1 Rounding radius*
0 $2 $3 $4 $5 $6 $7 $8 $9 X,Y pos of 4 corners*
0 Add a 4 corners polygon primitive as box body*
4,1,4,$2,$3,$4,$5,$6,$7,$8,$9,$2,$3,0*
0 Add four circle primitives for the rounded corners*
1,1,$1+$1,$2,$3*
1,1,$1+$1,$4,$5*
1,1,$1+$1,$6,$7*
1,1,$1+$1,$8,$9*
0 Add four rect primitives between the rounded corners*
20,1,$1+$1,$2,$3,$4,$5,0*
20,1,$1+$1,$4,$5,$6,$7,0*
20,1,$1+$1,$6,$7,$8,$9,0*
20,1,$1+$1,$8,$9,$2,$3,0*%
G04 Aperture macros list end*
%ADD10R,1.960000X3.150000*%
%ADD11RoundRect,0.250000X1.000000X-1.400000X1.000000X1.400000X-1.000000X1.400000X-1.000000X-1.400000X0*%
%ADD12RoundRect,0.200000X0.275000X-0.200000X0.275000X0.200000X-0.275000X0.200000X-0.275000X-0.200000X0*%
%ADD13RoundRect,0.150000X-0.512500X-0.150000X0.512500X-0.150000X0.512500X0.150000X-0.512500X0.150000X0*%
%ADD14RoundRect,0.050000X-0.375000X-0.100000X0.375000X-0.100000X0.375000X0.100000X-0.375000X0.100000X0*%
%ADD15RoundRect,0.250000X0.475000X-0.250000X0.475000X0.250000X-0.475000X0.250000X-0.475000X-0.250000X0*%
%ADD16RoundRect,0.225000X0.250000X-0.225000X0.250000X0.225000X-0.250000X0.225000X-0.250000X-0.225000X0*%
%ADD17RoundRect,0.150000X-0.587500X-0.150000X0.587500X-0.150000X0.587500X0.150000X-0.587500X0.150000X0*%
%ADD18RoundRect,0.200000X-0.200000X-0.275000X0.200000X-0.275000X0.200000X0.275000X-0.200000X0.275000X0*%
%ADD19RoundRect,0.250000X0.450000X-0.262500X0.450000X0.262500X-0.450000X0.262500X-0.450000X-0.262500X0*%
%ADD20RoundRect,0.225000X-0.225000X-0.250000X0.225000X-0.250000X0.225000X0.250000X-0.225000X0.250000X0*%
%ADD21RoundRect,0.250000X-0.262500X-0.450000X0.262500X-0.450000X0.262500X0.450000X-0.262500X0.450000X0*%
%ADD22RoundRect,0.050600X-0.064400X-0.311900X0.064400X-0.311900X0.064400X0.311900X-0.064400X0.311900X0*%
%ADD23RoundRect,0.050920X-0.619080X-0.724080X0.619080X-0.724080X0.619080X0.724080X-0.619080X0.724080X0*%
%ADD24RoundRect,0.049600X-0.250400X-0.105400X0.250400X-0.105400X0.250400X0.105400X-0.250400X0.105400X0*%
%ADD25RoundRect,0.100000X-0.637500X-0.100000X0.637500X-0.100000X0.637500X0.100000X-0.637500X0.100000X0*%
%ADD26RoundRect,0.112500X0.687500X0.112500X-0.687500X0.112500X-0.687500X-0.112500X0.687500X-0.112500X0*%
%ADD27RoundRect,0.250000X-0.250000X-0.475000X0.250000X-0.475000X0.250000X0.475000X-0.250000X0.475000X0*%
%ADD28RoundRect,0.250000X-1.000000X-0.900000X1.000000X-0.900000X1.000000X0.900000X-1.000000X0.900000X0*%
%ADD29RoundRect,0.250000X-0.375000X-1.000000X0.375000X-1.000000X0.375000X1.000000X-0.375000X1.000000X0*%
G04 APERTURE END LIST*
D10*
%TO.C,F1*%
X24550000Y11500000D03*
X29450000Y11500000D03*
%TD*%
D11*
%TO.C,D1*%
X31600000Y6000000D03*
X38400000Y6000000D03*
%TD*%
D12*
%TO.C,R121*%
X22000000Y45175000D03*
X22000000Y46825000D03*
%TD*%
%TO.C,R134*%
X33000000Y25175000D03*
X33000000Y26825000D03*
%TD*%
D13*
%TO.C,U8*%
X35862500Y22950000D03*
X35862500Y22000000D03*
X35862500Y21050000D03*
X38137500Y21050000D03*
X38137500Y22000000D03*
X38137500Y22950000D03*
%TD*%
%TO.C,U10*%
X60862500Y35950000D03*
X60862500Y35000000D03*
X60862500Y34050000D03*
X63137500Y34050000D03*
X63137500Y35950000D03*
%TD*%
D14*
%TO.C,U5*%
X43450000Y31750000D03*
X43450000Y31250000D03*
X43450000Y30750000D03*
X43450000Y30250000D03*
X46550000Y30250000D03*
X46550000Y30750000D03*
X46550000Y31250000D03*
X46550000Y31750000D03*
%TD*%
D12*
%TO.C,R105*%
X22000000Y61175000D03*
X22000000Y62825000D03*
%TD*%
%TO.C,R100*%
X18000000Y65175000D03*
X18000000Y66825000D03*
%TD*%
D15*
%TO.C,C10*%
X69000000Y20050000D03*
X69000000Y21950000D03*
%TD*%
D16*
%TO.C,C103*%
X49000000Y32225000D03*
X49000000Y33775000D03*
%TD*%
D12*
%TO.C,R139*%
X49000000Y27175000D03*
X49000000Y28825000D03*
%TD*%
%TO.C,R132*%
X33000000Y29175000D03*
X33000000Y30825000D03*
%TD*%
%TO.C,R136*%
X68000000Y50175000D03*
X68000000Y51825000D03*
%TD*%
%TO.C,R120*%
X18000000Y45175000D03*
X18000000Y46825000D03*
%TD*%
D13*
%TO.C,U11*%
X52862500Y16950000D03*
X52862500Y16000000D03*
X52862500Y15050000D03*
X55137500Y15050000D03*
X55137500Y16000000D03*
X55137500Y16950000D03*
%TD*%
D12*
%TO.C,R138*%
X29000000Y15175000D03*
X29000000Y16825000D03*
%TD*%
%TO.C,R122*%
X35000000Y45175000D03*
X35000000Y46825000D03*
%TD*%
%TO.C,R106*%
X35000000Y61175000D03*
X35000000Y62825000D03*
%TD*%
%TO.C,R114*%
X35000000Y53175000D03*
X35000000Y54825000D03*
%TD*%
D17*
%TO.C,U7*%
X25062500Y17950000D03*
X25062500Y16050000D03*
X26937500Y17000000D03*
%TD*%
D18*
%TO.C,R131*%
X31175000Y37000000D03*
X32825000Y37000000D03*
%TD*%
D12*
%TO.C,R107*%
X39000000Y61175000D03*
X39000000Y62825000D03*
%TD*%
D15*
%TO.C,C8*%
X69000000Y25050000D03*
X69000000Y26950000D03*
%TD*%
D13*
%TO.C,U12*%
X34862500Y42950000D03*
X34862500Y42000000D03*
X34862500Y41050000D03*
X37137500Y41050000D03*
X37137500Y42000000D03*
X37137500Y42950000D03*
%TD*%
D19*
%TO.C,R7*%
X58000000Y15087500D03*
X58000000Y16912500D03*
%TD*%
D12*
%TO.C,R117*%
X22000000Y49175000D03*
X22000000Y50825000D03*
%TD*%
D20*
%TO.C,C100*%
X28225000Y25000000D03*
X29775000Y25000000D03*
%TD*%
D19*
%TO.C,R6*%
X58000000Y19087500D03*
X58000000Y20912500D03*
%TD*%
D12*
%TO.C,R113*%
X22000000Y53175000D03*
X22000000Y54825000D03*
%TD*%
D21*
%TO.C,R2*%
X42087500Y13000000D03*
X43912500Y13000000D03*
%TD*%
D12*
%TO.C,R119*%
X39000000Y49175000D03*
X39000000Y50825000D03*
%TD*%
%TO.C,R137*%
X68000000Y16175000D03*
X68000000Y17825000D03*
%TD*%
%TO.C,R123*%
X39000000Y45175000D03*
X39000000Y46825000D03*
%TD*%
%TO.C,R102*%
X35000000Y65175000D03*
X35000000Y66825000D03*
%TD*%
%TO.C,R108*%
X18000000Y57175000D03*
X18000000Y58825000D03*
%TD*%
D20*
%TO.C,C101*%
X27225000Y61000000D03*
X28775000Y61000000D03*
%TD*%
D12*
%TO.C,R115*%
X39000000Y53175000D03*
X39000000Y54825000D03*
%TD*%
D22*
%TO.C,U4*%
X27675000Y34337000D03*
X27675000Y31663000D03*
D23*
X28000000Y33000000D03*
D22*
X28325000Y34337000D03*
X28325000Y31663000D03*
D24*
X26600000Y33975000D03*
X26600000Y33325000D03*
X26600000Y32675000D03*
X26600000Y32025000D03*
X29400000Y32025000D03*
X29400000Y32675000D03*
X29400000Y33325000D03*
X29400000Y33975000D03*
%TD*%
D16*
%TO.C,C106*%
X34000000Y21225000D03*
X34000000Y22775000D03*
%TD*%
D18*
%TO.C,R126*%
X15175000Y34000000D03*
X16825000Y34000000D03*
%TD*%
D12*
%TO.C,R141*%
X58000000Y29675000D03*
X58000000Y31325000D03*
%TD*%
%TO.C,R101*%
X22000000Y65175000D03*
X22000000Y66825000D03*
%TD*%
%TO.C,R112*%
X18000000Y53175000D03*
X18000000Y54825000D03*
%TD*%
D16*
%TO.C,C102*%
X24000000Y33225000D03*
X24000000Y34775000D03*
%TD*%
D15*
%TO.C,C6*%
X69000000Y54050000D03*
X69000000Y55950000D03*
%TD*%
D18*
%TO.C,R130*%
X26175000Y38000000D03*
X27825000Y38000000D03*
%TD*%
D16*
%TO.C,C108*%
X65000000Y35225000D03*
X65000000Y36775000D03*
%TD*%
D25*
%TO.C,U6*%
X50137500Y43950000D03*
X50137500Y43300000D03*
X50137500Y42650000D03*
X50137500Y42000000D03*
X50137500Y41350000D03*
X50137500Y40700000D03*
X50137500Y40050000D03*
X55862500Y40050000D03*
X55862500Y40700000D03*
X55862500Y41350000D03*
X55862500Y42000000D03*
X55862500Y42650000D03*
X55862500Y43300000D03*
X55862500Y43950000D03*
%TD*%
D19*
%TO.C,R1*%
X47000000Y8087500D03*
X47000000Y9912500D03*
%TD*%
D25*
%TO.C,U3*%
X25137500Y57950000D03*
X25137500Y57300000D03*
X25137500Y56650000D03*
X25137500Y56000000D03*
X25137500Y55350000D03*
X25137500Y54700000D03*
X25137500Y54050000D03*
X30862500Y54050000D03*
X30862500Y54700000D03*
X30862500Y55350000D03*
X30862500Y56000000D03*
X30862500Y56650000D03*
X30862500Y57300000D03*
X30862500Y57950000D03*
%TD*%
D12*
%TO.C,R109*%
X22000000Y57175000D03*
X22000000Y58825000D03*
%TD*%
D16*
%TO.C,C105*%
X22000000Y16225000D03*
X22000000Y17775000D03*
%TD*%
D19*
%TO.C,R8*%
X63000000Y15087500D03*
X63000000Y16912500D03*
%TD*%
D16*
%TO.C,C109*%
X32000000Y41225000D03*
X32000000Y42775000D03*
%TD*%
D17*
%TO.C,Q1*%
X42062500Y7950000D03*
X42062500Y6050000D03*
X43937500Y7000000D03*
%TD*%
D19*
%TO.C,R9*%
X63000000Y11087500D03*
X63000000Y12912500D03*
%TD*%
D26*
%TO.C,U1*%
X79500000Y52425000D03*
X79500000Y53075000D03*
X79500000Y53725000D03*
X79500000Y54375000D03*
X79500000Y55025000D03*
X79500000Y55675000D03*
X79500000Y56325000D03*
X79500000Y56975000D03*
X79500000Y57625000D03*
X79500000Y58275000D03*
X79500000Y58925000D03*
X79500000Y59575000D03*
X72500000Y59575000D03*
X72500000Y58925000D03*
X72500000Y58275000D03*
X72500000Y57625000D03*
X72500000Y56975000D03*
X72500000Y56325000D03*
X72500000Y55675000D03*
X72500000Y55025000D03*
X72500000Y54375000D03*
X72500000Y53725000D03*
X72500000Y53075000D03*
X72500000Y52425000D03*
%TD*%
D12*
%TO.C,R125*%
X20000000Y37175000D03*
X20000000Y38825000D03*
%TD*%
D19*
%TO.C,R4*%
X34500000Y17087500D03*
X34500000Y18912500D03*
%TD*%
D12*
%TO.C,R103*%
X39000000Y65175000D03*
X39000000Y66825000D03*
%TD*%
D26*
%TO.C,U2*%
X79500000Y18425000D03*
X79500000Y19075000D03*
X79500000Y19725000D03*
X79500000Y20375000D03*
X79500000Y21025000D03*
X79500000Y21675000D03*
X79500000Y22325000D03*
X79500000Y22975000D03*
X79500000Y23625000D03*
X79500000Y24275000D03*
X79500000Y24925000D03*
X79500000Y25575000D03*
X72500000Y25575000D03*
X72500000Y24925000D03*
X72500000Y24275000D03*
X72500000Y23625000D03*
X72500000Y22975000D03*
X72500000Y22325000D03*
X72500000Y21675000D03*
X72500000Y21025000D03*
X72500000Y20375000D03*
X72500000Y19725000D03*
X72500000Y19075000D03*
X72500000Y18425000D03*
%TD*%
D12*
%TO.C,R104*%
X18000000Y61175000D03*
X18000000Y62825000D03*
%TD*%
%TO.C,R111*%
X39000000Y57175000D03*
X39000000Y58825000D03*
%TD*%
D18*
%TO.C,R128*%
X15175000Y30000000D03*
X16825000Y30000000D03*
%TD*%
D12*
%TO.C,R116*%
X18000000Y49175000D03*
X18000000Y50825000D03*
%TD*%
D18*
%TO.C,R140*%
X51175000Y36000000D03*
X52825000Y36000000D03*
%TD*%
D27*
%TO.C,C11*%
X49050000Y19000000D03*
X50950000Y19000000D03*
%TD*%
D19*
%TO.C,R10*%
X49000000Y14087500D03*
X49000000Y15912500D03*
%TD*%
D28*
%TO.C,D2*%
X78850000Y5000000D03*
X83150000Y5000000D03*
%TD*%
D16*
%TO.C,C107*%
X47000000Y22225000D03*
X47000000Y23775000D03*
%TD*%
D12*
%TO.C,R129*%
X20000000Y29175000D03*
X20000000Y30825000D03*
%TD*%
D18*
%TO.C,R133*%
X15175000Y22000000D03*
X16825000Y22000000D03*
%TD*%
D15*
%TO.C,C4*%
X69000000Y59050000D03*
X69000000Y60950000D03*
%TD*%
D12*
%TO.C,R110*%
X35000000Y57175000D03*
X35000000Y58825000D03*
%TD*%
D17*
%TO.C,Q2*%
X39062500Y15950000D03*
X39062500Y14050000D03*
X40937500Y15000000D03*
%TD*%
D13*
%TO.C,U9*%
X49862500Y23950000D03*
X49862500Y23000000D03*
X49862500Y22050000D03*
X52137500Y22050000D03*
X52137500Y23000000D03*
X52137500Y23950000D03*
%TD*%
D16*
%TO.C,C104*%
X58000000Y43225000D03*
X58000000Y44775000D03*
%TD*%
D12*
%TO.C,R127*%
X20000000Y33175000D03*
X20000000Y34825000D03*
%TD*%
D18*
%TO.C,R124*%
X15175000Y38000000D03*
X16825000Y38000000D03*
%TD*%
D12*
%TO.C,R118*%
X35000000Y49175000D03*
X35000000Y50825000D03*
%TD*%
D29*
%TO.C,SW1*%
X5500000Y24750000D03*
X8000000Y24750000D03*
X10500000Y24750000D03*
%TD*%
D12*
%TO.C,R135*%
X62000000Y39175000D03*
X62000000Y40825000D03*
%TD*%
D21*
%TO.C,R3*%
X33087500Y14000000D03*
X34912500Y14000000D03*
%TD*%
M02*
