%TF.GenerationSoftware,KiCad,Pcbnew,10.0.6*%
%TF.CreationDate,2026-09-28T01:15:11-04:00*%
%TF.ProjectId,ai_robot_interface,61695f72-6f62-46f7-945f-696e74657266,A-DRAFT*%
%TF.SameCoordinates,Original*%
%TF.FileFunction,Soldermask,Bot*%
%TF.FilePolarity,Negative*%
%FSLAX46Y46*%
G04 Gerber Fmt 4.6, Leading zero omitted, Abs format (unit mm)*
G04 Created by KiCad (PCBNEW 10.0.6) date 2026-09-28 01:15:11*
%MOMM*%
%LPD*%
G01*
G04 APERTURE LIST*
G04 APERTURE END LIST*
G36*
X5117449Y6624975D02*
G01*
X5127888Y6624975D01*
X5179304Y6616832D01*
X5317976Y6598575D01*
X5351807Y6589510D01*
X5380516Y6584963D01*
X5435724Y6567025D01*
X5523909Y6543396D01*
X5580171Y6520092D01*
X5623774Y6505924D01*
X5664624Y6485110D01*
X5720884Y6461806D01*
X5799946Y6416160D01*
X5851673Y6389803D01*
X5875188Y6372718D01*
X5905520Y6355206D01*
X6016469Y6270072D01*
X6058600Y6239462D01*
X6065984Y6232078D01*
X6074658Y6225422D01*
X6225421Y6074659D01*
X6232076Y6065986D01*
X6239462Y6058600D01*
X6270075Y6016464D01*
X6355205Y5905521D01*
X6372715Y5875192D01*
X6389803Y5851673D01*
X6416162Y5799940D01*
X6461805Y5720885D01*
X6485106Y5664631D01*
X6505924Y5623774D01*
X6520093Y5580165D01*
X6543395Y5523910D01*
X6567020Y5435738D01*
X6584963Y5380516D01*
X6589510Y5351802D01*
X6598574Y5317977D01*
X6616829Y5179316D01*
X6624975Y5127888D01*
X6624975Y5117449D01*
X6626403Y5106602D01*
X6626403Y4893399D01*
X6624975Y4882553D01*
X6624975Y4872112D01*
X6616828Y4820680D01*
X6598574Y4682024D01*
X6589511Y4648202D01*
X6584963Y4619484D01*
X6567018Y4564258D01*
X6543395Y4476091D01*
X6520094Y4419840D01*
X6505924Y4376226D01*
X6485104Y4335366D01*
X6461805Y4279116D01*
X6416166Y4200069D01*
X6389803Y4148327D01*
X6372712Y4124805D01*
X6355205Y4094480D01*
X6270089Y3983555D01*
X6239462Y3941400D01*
X6232072Y3934011D01*
X6225421Y3925342D01*
X6074658Y3774579D01*
X6065989Y3767928D01*
X6058600Y3760538D01*
X6016445Y3729911D01*
X5905520Y3644795D01*
X5875195Y3627288D01*
X5851673Y3610197D01*
X5799931Y3583834D01*
X5720884Y3538195D01*
X5664634Y3514896D01*
X5623774Y3494076D01*
X5580160Y3479906D01*
X5523909Y3456605D01*
X5435742Y3432982D01*
X5380516Y3415037D01*
X5351798Y3410489D01*
X5317976Y3401426D01*
X5179317Y3383171D01*
X5127888Y3375025D01*
X5117448Y3375025D01*
X5106602Y3373597D01*
X4893398Y3373597D01*
X4882552Y3375025D01*
X4872112Y3375025D01*
X4820684Y3383171D01*
X4682023Y3401426D01*
X4648198Y3410490D01*
X4619484Y3415037D01*
X4564262Y3432980D01*
X4476090Y3456605D01*
X4419835Y3479907D01*
X4376226Y3494076D01*
X4335369Y3514894D01*
X4279115Y3538195D01*
X4200060Y3583838D01*
X4148327Y3610197D01*
X4124808Y3627285D01*
X4094479Y3644795D01*
X3983536Y3729925D01*
X3941400Y3760538D01*
X3934014Y3767924D01*
X3925341Y3774579D01*
X3774578Y3925342D01*
X3767922Y3934016D01*
X3760538Y3941400D01*
X3729928Y3983531D01*
X3644794Y4094480D01*
X3627282Y4124812D01*
X3610197Y4148327D01*
X3583840Y4200054D01*
X3538194Y4279116D01*
X3514890Y4335376D01*
X3494076Y4376226D01*
X3479908Y4419829D01*
X3456604Y4476091D01*
X3432975Y4564276D01*
X3415037Y4619484D01*
X3410490Y4648193D01*
X3401425Y4682024D01*
X3383168Y4820693D01*
X3375025Y4872112D01*
X3375025Y4882553D01*
X3373597Y4893399D01*
X3373597Y5106602D01*
X3375025Y5117449D01*
X3375025Y5127888D01*
X3383168Y5179303D01*
X3401425Y5317977D01*
X3410490Y5351811D01*
X3415037Y5380516D01*
X3432973Y5435721D01*
X3456604Y5523910D01*
X3479910Y5580176D01*
X3494076Y5623774D01*
X3514888Y5664620D01*
X3538194Y5720885D01*
X3583845Y5799955D01*
X3610197Y5851673D01*
X3627279Y5875186D01*
X3644794Y5905521D01*
X3729942Y6016489D01*
X3760538Y6058600D01*
X3767919Y6065982D01*
X3774578Y6074659D01*
X3925341Y6225422D01*
X3934018Y6232081D01*
X3941400Y6239462D01*
X3983511Y6270058D01*
X4094479Y6355206D01*
X4124814Y6372721D01*
X4148327Y6389803D01*
X4200045Y6416155D01*
X4279115Y6461806D01*
X4335380Y6485112D01*
X4376226Y6505924D01*
X4419824Y6520090D01*
X4476090Y6543396D01*
X4564279Y6567027D01*
X4619484Y6584963D01*
X4648189Y6589510D01*
X4682023Y6598575D01*
X4820697Y6616832D01*
X4872112Y6624975D01*
X4882551Y6624975D01*
X4893398Y6626403D01*
X5106602Y6626403D01*
X5117449Y6624975D01*
G37*
G36*
X95117449Y6624975D02*
G01*
X95127888Y6624975D01*
X95179304Y6616832D01*
X95317976Y6598575D01*
X95351807Y6589510D01*
X95380516Y6584963D01*
X95435724Y6567025D01*
X95523909Y6543396D01*
X95580171Y6520092D01*
X95623774Y6505924D01*
X95664624Y6485110D01*
X95720884Y6461806D01*
X95799946Y6416160D01*
X95851673Y6389803D01*
X95875188Y6372718D01*
X95905520Y6355206D01*
X96016469Y6270072D01*
X96058600Y6239462D01*
X96065984Y6232078D01*
X96074658Y6225422D01*
X96225421Y6074659D01*
X96232076Y6065986D01*
X96239462Y6058600D01*
X96270075Y6016464D01*
X96355205Y5905521D01*
X96372715Y5875192D01*
X96389803Y5851673D01*
X96416162Y5799940D01*
X96461805Y5720885D01*
X96485106Y5664631D01*
X96505924Y5623774D01*
X96520093Y5580165D01*
X96543395Y5523910D01*
X96567020Y5435738D01*
X96584963Y5380516D01*
X96589510Y5351802D01*
X96598574Y5317977D01*
X96616829Y5179316D01*
X96624975Y5127888D01*
X96624975Y5117449D01*
X96626403Y5106602D01*
X96626403Y4893399D01*
X96624975Y4882553D01*
X96624975Y4872112D01*
X96616828Y4820680D01*
X96598574Y4682024D01*
X96589511Y4648202D01*
X96584963Y4619484D01*
X96567018Y4564258D01*
X96543395Y4476091D01*
X96520094Y4419840D01*
X96505924Y4376226D01*
X96485104Y4335366D01*
X96461805Y4279116D01*
X96416166Y4200069D01*
X96389803Y4148327D01*
X96372712Y4124805D01*
X96355205Y4094480D01*
X96270089Y3983555D01*
X96239462Y3941400D01*
X96232072Y3934011D01*
X96225421Y3925342D01*
X96074658Y3774579D01*
X96065989Y3767928D01*
X96058600Y3760538D01*
X96016445Y3729911D01*
X95905520Y3644795D01*
X95875195Y3627288D01*
X95851673Y3610197D01*
X95799931Y3583834D01*
X95720884Y3538195D01*
X95664634Y3514896D01*
X95623774Y3494076D01*
X95580160Y3479906D01*
X95523909Y3456605D01*
X95435742Y3432982D01*
X95380516Y3415037D01*
X95351798Y3410489D01*
X95317976Y3401426D01*
X95179317Y3383171D01*
X95127888Y3375025D01*
X95117448Y3375025D01*
X95106602Y3373597D01*
X94893398Y3373597D01*
X94882552Y3375025D01*
X94872112Y3375025D01*
X94820684Y3383171D01*
X94682023Y3401426D01*
X94648198Y3410490D01*
X94619484Y3415037D01*
X94564262Y3432980D01*
X94476090Y3456605D01*
X94419835Y3479907D01*
X94376226Y3494076D01*
X94335369Y3514894D01*
X94279115Y3538195D01*
X94200060Y3583838D01*
X94148327Y3610197D01*
X94124808Y3627285D01*
X94094479Y3644795D01*
X93983536Y3729925D01*
X93941400Y3760538D01*
X93934014Y3767924D01*
X93925341Y3774579D01*
X93774578Y3925342D01*
X93767922Y3934016D01*
X93760538Y3941400D01*
X93729928Y3983531D01*
X93644794Y4094480D01*
X93627282Y4124812D01*
X93610197Y4148327D01*
X93583840Y4200054D01*
X93538194Y4279116D01*
X93514890Y4335376D01*
X93494076Y4376226D01*
X93479908Y4419829D01*
X93456604Y4476091D01*
X93432975Y4564276D01*
X93415037Y4619484D01*
X93410490Y4648193D01*
X93401425Y4682024D01*
X93383168Y4820693D01*
X93375025Y4872112D01*
X93375025Y4882553D01*
X93373597Y4893399D01*
X93373597Y5106602D01*
X93375025Y5117449D01*
X93375025Y5127888D01*
X93383168Y5179303D01*
X93401425Y5317977D01*
X93410490Y5351811D01*
X93415037Y5380516D01*
X93432973Y5435721D01*
X93456604Y5523910D01*
X93479910Y5580176D01*
X93494076Y5623774D01*
X93514888Y5664620D01*
X93538194Y5720885D01*
X93583845Y5799955D01*
X93610197Y5851673D01*
X93627279Y5875186D01*
X93644794Y5905521D01*
X93729942Y6016489D01*
X93760538Y6058600D01*
X93767919Y6065982D01*
X93774578Y6074659D01*
X93925341Y6225422D01*
X93934018Y6232081D01*
X93941400Y6239462D01*
X93983511Y6270058D01*
X94094479Y6355206D01*
X94124814Y6372721D01*
X94148327Y6389803D01*
X94200045Y6416155D01*
X94279115Y6461806D01*
X94335380Y6485112D01*
X94376226Y6505924D01*
X94419824Y6520090D01*
X94476090Y6543396D01*
X94564279Y6567027D01*
X94619484Y6584963D01*
X94648189Y6589510D01*
X94682023Y6598575D01*
X94820697Y6616832D01*
X94872112Y6624975D01*
X94882551Y6624975D01*
X94893398Y6626403D01*
X95106602Y6626403D01*
X95117449Y6624975D01*
G37*
G36*
X53814106Y7022563D02*
G01*
X53818730Y7020522D01*
X53821253Y7020189D01*
X53852824Y7005467D01*
X53908238Y6980999D01*
X53980999Y6908238D01*
X54005476Y6852803D01*
X54020188Y6821254D01*
X54020519Y6818734D01*
X54022563Y6814106D01*
X54030000Y6750000D01*
X54030000Y5250000D01*
X54022563Y5185894D01*
X54020519Y5181267D01*
X54020188Y5178747D01*
X54005484Y5147217D01*
X53980999Y5091762D01*
X53908238Y5019001D01*
X53852783Y4994516D01*
X53821253Y4979812D01*
X53818733Y4979481D01*
X53814106Y4977437D01*
X53750000Y4970000D01*
X52250000Y4970000D01*
X52185894Y4977437D01*
X52181266Y4979481D01*
X52178746Y4979812D01*
X52147197Y4994524D01*
X52091762Y5019001D01*
X52019001Y5091762D01*
X51994533Y5147176D01*
X51979811Y5178747D01*
X51979478Y5181270D01*
X51977437Y5185894D01*
X51970000Y5250000D01*
X51970000Y6750000D01*
X51977437Y6814106D01*
X51979478Y6818731D01*
X51979811Y6821254D01*
X51994541Y6852843D01*
X52019001Y6908238D01*
X52091762Y6980999D01*
X52147157Y7005459D01*
X52178746Y7020189D01*
X52181269Y7020522D01*
X52185894Y7022563D01*
X52250000Y7030000D01*
X53750000Y7030000D01*
X53814106Y7022563D01*
G37*
G36*
X66814106Y7022563D02*
G01*
X66818730Y7020522D01*
X66821253Y7020189D01*
X66852824Y7005467D01*
X66908238Y6980999D01*
X66980999Y6908238D01*
X67005476Y6852803D01*
X67020188Y6821254D01*
X67020519Y6818734D01*
X67022563Y6814106D01*
X67030000Y6750000D01*
X67030000Y5250000D01*
X67022563Y5185894D01*
X67020519Y5181267D01*
X67020188Y5178747D01*
X67005484Y5147217D01*
X66980999Y5091762D01*
X66908238Y5019001D01*
X66852783Y4994516D01*
X66821253Y4979812D01*
X66818733Y4979481D01*
X66814106Y4977437D01*
X66750000Y4970000D01*
X65250000Y4970000D01*
X65185894Y4977437D01*
X65181266Y4979481D01*
X65178746Y4979812D01*
X65147197Y4994524D01*
X65091762Y5019001D01*
X65019001Y5091762D01*
X64994533Y5147176D01*
X64979811Y5178747D01*
X64979478Y5181270D01*
X64977437Y5185894D01*
X64970000Y5250000D01*
X64970000Y6750000D01*
X64977437Y6814106D01*
X64979478Y6818731D01*
X64979811Y6821254D01*
X64994541Y6852843D01*
X65019001Y6908238D01*
X65091762Y6980999D01*
X65147157Y7005459D01*
X65178746Y7020189D01*
X65181269Y7020522D01*
X65185894Y7022563D01*
X65250000Y7030000D01*
X66750000Y7030000D01*
X66814106Y7022563D01*
G37*
G36*
X58091101Y7025040D02*
G01*
X58100958Y7025040D01*
X58139473Y7017379D01*
X58240409Y7001393D01*
X58272873Y6990845D01*
X58298993Y6985649D01*
X58335855Y6970381D01*
X58394109Y6951452D01*
X58448683Y6923646D01*
X58485539Y6908379D01*
X58507678Y6893586D01*
X58538089Y6878091D01*
X58620752Y6818033D01*
X58653425Y6796201D01*
X58660398Y6789228D01*
X58668828Y6783103D01*
X58783102Y6668829D01*
X58789226Y6660400D01*
X58796201Y6653425D01*
X58818035Y6620748D01*
X58878090Y6538090D01*
X58893583Y6507682D01*
X58908379Y6485539D01*
X58923647Y6448679D01*
X58951451Y6394110D01*
X58970376Y6335864D01*
X58985649Y6298993D01*
X58990845Y6272869D01*
X59001392Y6240410D01*
X59017377Y6139479D01*
X59025040Y6100958D01*
X59025040Y6091102D01*
X59026671Y6080804D01*
X59026671Y5919197D01*
X59025040Y5908900D01*
X59025040Y5899042D01*
X59017377Y5860518D01*
X59001392Y5759591D01*
X58990845Y5727134D01*
X58985649Y5701007D01*
X58970375Y5664134D01*
X58951451Y5605891D01*
X58923649Y5551327D01*
X58908379Y5514461D01*
X58893581Y5492316D01*
X58878090Y5461911D01*
X58818043Y5379265D01*
X58796201Y5346575D01*
X58789223Y5339598D01*
X58783102Y5331172D01*
X58668828Y5216898D01*
X58660402Y5210777D01*
X58653425Y5203799D01*
X58620735Y5181957D01*
X58538089Y5121910D01*
X58507684Y5106419D01*
X58485539Y5091621D01*
X58448673Y5076351D01*
X58394109Y5048549D01*
X58335866Y5029625D01*
X58298993Y5014351D01*
X58272866Y5009155D01*
X58240409Y4998608D01*
X58139482Y4982623D01*
X58100958Y4974960D01*
X58091101Y4974960D01*
X58080803Y4973329D01*
X57919197Y4973329D01*
X57908899Y4974960D01*
X57899042Y4974960D01*
X57860518Y4982623D01*
X57759590Y4998608D01*
X57727131Y5009155D01*
X57701007Y5014351D01*
X57664136Y5029624D01*
X57605890Y5048549D01*
X57551321Y5076353D01*
X57514461Y5091621D01*
X57492318Y5106417D01*
X57461910Y5121910D01*
X57379252Y5181965D01*
X57346575Y5203799D01*
X57339600Y5210774D01*
X57331171Y5216898D01*
X57216897Y5331172D01*
X57210772Y5339602D01*
X57203799Y5346575D01*
X57181967Y5379248D01*
X57121909Y5461911D01*
X57106414Y5492322D01*
X57091621Y5514461D01*
X57076354Y5551317D01*
X57048548Y5605891D01*
X57029619Y5664145D01*
X57014351Y5701007D01*
X57009155Y5727127D01*
X56998607Y5759591D01*
X56982621Y5860527D01*
X56974960Y5899042D01*
X56974960Y5908899D01*
X56973329Y5919197D01*
X56973329Y6080804D01*
X56974960Y6091103D01*
X56974960Y6100958D01*
X56982620Y6139470D01*
X56998607Y6240410D01*
X57009156Y6272877D01*
X57014351Y6298993D01*
X57029618Y6335852D01*
X57048548Y6394110D01*
X57076357Y6448689D01*
X57091621Y6485539D01*
X57106412Y6507676D01*
X57121909Y6538090D01*
X57181976Y6620765D01*
X57203799Y6653425D01*
X57210770Y6660397D01*
X57216897Y6668829D01*
X57331171Y6783103D01*
X57339603Y6789230D01*
X57346575Y6796201D01*
X57379235Y6818024D01*
X57461910Y6878091D01*
X57492324Y6893588D01*
X57514461Y6908379D01*
X57551311Y6923643D01*
X57605890Y6951452D01*
X57664148Y6970382D01*
X57701007Y6985649D01*
X57727123Y6990844D01*
X57759590Y7001393D01*
X57860528Y7017380D01*
X57899042Y7025040D01*
X57908899Y7025040D01*
X57919197Y7026671D01*
X58080803Y7026671D01*
X58091101Y7025040D01*
G37*
G36*
X71091101Y7025040D02*
G01*
X71100958Y7025040D01*
X71139473Y7017379D01*
X71240409Y7001393D01*
X71272873Y6990845D01*
X71298993Y6985649D01*
X71335855Y6970381D01*
X71394109Y6951452D01*
X71448683Y6923646D01*
X71485539Y6908379D01*
X71507678Y6893586D01*
X71538089Y6878091D01*
X71620752Y6818033D01*
X71653425Y6796201D01*
X71660398Y6789228D01*
X71668828Y6783103D01*
X71783102Y6668829D01*
X71789226Y6660400D01*
X71796201Y6653425D01*
X71818035Y6620748D01*
X71878090Y6538090D01*
X71893583Y6507682D01*
X71908379Y6485539D01*
X71923647Y6448679D01*
X71951451Y6394110D01*
X71970376Y6335864D01*
X71985649Y6298993D01*
X71990845Y6272869D01*
X72001392Y6240410D01*
X72017377Y6139479D01*
X72025040Y6100958D01*
X72025040Y6091102D01*
X72026671Y6080804D01*
X72026671Y5919197D01*
X72025040Y5908900D01*
X72025040Y5899042D01*
X72017377Y5860518D01*
X72001392Y5759591D01*
X71990845Y5727134D01*
X71985649Y5701007D01*
X71970375Y5664134D01*
X71951451Y5605891D01*
X71923649Y5551327D01*
X71908379Y5514461D01*
X71893581Y5492316D01*
X71878090Y5461911D01*
X71818043Y5379265D01*
X71796201Y5346575D01*
X71789223Y5339598D01*
X71783102Y5331172D01*
X71668828Y5216898D01*
X71660402Y5210777D01*
X71653425Y5203799D01*
X71620735Y5181957D01*
X71538089Y5121910D01*
X71507684Y5106419D01*
X71485539Y5091621D01*
X71448673Y5076351D01*
X71394109Y5048549D01*
X71335866Y5029625D01*
X71298993Y5014351D01*
X71272866Y5009155D01*
X71240409Y4998608D01*
X71139482Y4982623D01*
X71100958Y4974960D01*
X71091101Y4974960D01*
X71080803Y4973329D01*
X70919197Y4973329D01*
X70908899Y4974960D01*
X70899042Y4974960D01*
X70860518Y4982623D01*
X70759590Y4998608D01*
X70727131Y5009155D01*
X70701007Y5014351D01*
X70664136Y5029624D01*
X70605890Y5048549D01*
X70551321Y5076353D01*
X70514461Y5091621D01*
X70492318Y5106417D01*
X70461910Y5121910D01*
X70379252Y5181965D01*
X70346575Y5203799D01*
X70339600Y5210774D01*
X70331171Y5216898D01*
X70216897Y5331172D01*
X70210772Y5339602D01*
X70203799Y5346575D01*
X70181967Y5379248D01*
X70121909Y5461911D01*
X70106414Y5492322D01*
X70091621Y5514461D01*
X70076354Y5551317D01*
X70048548Y5605891D01*
X70029619Y5664145D01*
X70014351Y5701007D01*
X70009155Y5727127D01*
X69998607Y5759591D01*
X69982621Y5860527D01*
X69974960Y5899042D01*
X69974960Y5908899D01*
X69973329Y5919197D01*
X69973329Y6080804D01*
X69974960Y6091103D01*
X69974960Y6100958D01*
X69982620Y6139470D01*
X69998607Y6240410D01*
X70009156Y6272877D01*
X70014351Y6298993D01*
X70029618Y6335852D01*
X70048548Y6394110D01*
X70076357Y6448689D01*
X70091621Y6485539D01*
X70106412Y6507676D01*
X70121909Y6538090D01*
X70181976Y6620765D01*
X70203799Y6653425D01*
X70210770Y6660397D01*
X70216897Y6668829D01*
X70331171Y6783103D01*
X70339603Y6789230D01*
X70346575Y6796201D01*
X70379235Y6818024D01*
X70461910Y6878091D01*
X70492324Y6893588D01*
X70514461Y6908379D01*
X70551311Y6923643D01*
X70605890Y6951452D01*
X70664148Y6970382D01*
X70701007Y6985649D01*
X70727123Y6990844D01*
X70759590Y7001393D01*
X70860528Y7017380D01*
X70899042Y7025040D01*
X70908899Y7025040D01*
X70919197Y7026671D01*
X71080803Y7026671D01*
X71091101Y7025040D01*
G37*
G36*
X13854107Y14822563D02*
G01*
X13858731Y14820522D01*
X13861255Y14820189D01*
X13892844Y14805459D01*
X13948239Y14780999D01*
X14020999Y14708239D01*
X14045467Y14652824D01*
X14060188Y14621256D01*
X14060520Y14618734D01*
X14062563Y14614107D01*
X14069999Y14550000D01*
X14069999Y14546735D01*
X14070000Y14546727D01*
X14070000Y12240971D01*
X14070000Y11449999D01*
X14062563Y11385893D01*
X14060519Y11381266D01*
X14060188Y11378745D01*
X14045476Y11347196D01*
X14020999Y11291761D01*
X13948239Y11219001D01*
X13892804Y11194524D01*
X13861255Y11179812D01*
X13858734Y11179481D01*
X13854107Y11177437D01*
X13790000Y11170001D01*
X13786733Y11170001D01*
X13786726Y11170000D01*
X12213274Y11170000D01*
X12213273Y11170001D01*
X12209999Y11170000D01*
X12145893Y11177437D01*
X12141266Y11179480D01*
X12138744Y11179812D01*
X12107176Y11194533D01*
X12051761Y11219001D01*
X11979001Y11291761D01*
X11954541Y11347156D01*
X11939811Y11378745D01*
X11939478Y11381269D01*
X11937437Y11385893D01*
X11930001Y11450000D01*
X11930000Y11453267D01*
X11930000Y11453274D01*
X11930000Y14546727D01*
X11930000Y14546728D01*
X11930000Y14550001D01*
X11937437Y14614107D01*
X11939478Y14618731D01*
X11939811Y14621256D01*
X11954550Y14652864D01*
X11979001Y14708239D01*
X12051761Y14780999D01*
X12107136Y14805450D01*
X12138744Y14820189D01*
X12141269Y14820522D01*
X12145893Y14822563D01*
X12210000Y14829999D01*
X12213266Y14830000D01*
X12213274Y14830000D01*
X13786726Y14830000D01*
X13790001Y14830000D01*
X13854107Y14822563D01*
G37*
G36*
X18174669Y14824848D02*
G01*
X18184878Y14824848D01*
X18224767Y14816914D01*
X18329747Y14800287D01*
X18363518Y14789314D01*
X18390605Y14783926D01*
X18428830Y14768093D01*
X18489416Y14748407D01*
X18546172Y14719489D01*
X18584395Y14703656D01*
X18607356Y14688314D01*
X18638989Y14672196D01*
X18724983Y14609718D01*
X18758801Y14587121D01*
X18766018Y14579904D01*
X18774806Y14573519D01*
X18893518Y14454807D01*
X18899902Y14446020D01*
X18907121Y14438801D01*
X18929720Y14404979D01*
X18992195Y14318990D01*
X19008311Y14287360D01*
X19023656Y14264395D01*
X19039490Y14226168D01*
X19068406Y14169417D01*
X19088089Y14108839D01*
X19103926Y14070605D01*
X19109314Y14043514D01*
X19120286Y14009748D01*
X19136909Y13904787D01*
X19144848Y13864878D01*
X19145575Y13850072D01*
X19146701Y13842964D01*
X19149809Y13763883D01*
X19150000Y13760000D01*
X19150000Y12240000D01*
X19149809Y12236114D01*
X19146701Y12157037D01*
X19145575Y12149931D01*
X19144848Y12135122D01*
X19136908Y12095210D01*
X19120286Y11990253D01*
X19109315Y11956490D01*
X19103926Y11929395D01*
X19088087Y11891159D01*
X19068406Y11830584D01*
X19039492Y11773838D01*
X19023656Y11735605D01*
X19008309Y11712638D01*
X18992195Y11681011D01*
X18929728Y11595035D01*
X18907121Y11561199D01*
X18899899Y11553978D01*
X18893518Y11545194D01*
X18774806Y11426482D01*
X18766022Y11420101D01*
X18758801Y11412879D01*
X18724965Y11390272D01*
X18638989Y11327805D01*
X18607362Y11311691D01*
X18584395Y11296344D01*
X18546162Y11280508D01*
X18489416Y11251594D01*
X18428841Y11231913D01*
X18390605Y11216074D01*
X18363510Y11210685D01*
X18329747Y11199714D01*
X18224776Y11183089D01*
X18184878Y11175152D01*
X18174668Y11175152D01*
X18163941Y11173453D01*
X17996059Y11173453D01*
X17985332Y11175152D01*
X17975122Y11175152D01*
X17935225Y11183089D01*
X17830252Y11199714D01*
X17796486Y11210686D01*
X17769395Y11216074D01*
X17731161Y11231911D01*
X17670583Y11251594D01*
X17613832Y11280510D01*
X17575605Y11296344D01*
X17552640Y11311689D01*
X17521010Y11327805D01*
X17435021Y11390280D01*
X17401199Y11412879D01*
X17393980Y11420098D01*
X17385193Y11426482D01*
X17266481Y11545194D01*
X17260096Y11553982D01*
X17252879Y11561199D01*
X17230282Y11595017D01*
X17167804Y11681011D01*
X17151686Y11712644D01*
X17136344Y11735605D01*
X17120511Y11773828D01*
X17091593Y11830584D01*
X17071907Y11891170D01*
X17056074Y11929395D01*
X17050686Y11956482D01*
X17039713Y11990253D01*
X17023086Y12095235D01*
X17015152Y12135122D01*
X17014425Y12149922D01*
X17013298Y12157037D01*
X17010190Y12236120D01*
X17010000Y12240000D01*
X17010000Y13760000D01*
X17010190Y13763877D01*
X17013298Y13842964D01*
X17014425Y13850081D01*
X17015152Y13864878D01*
X17023085Y13904762D01*
X17039713Y14009748D01*
X17050686Y14043522D01*
X17056074Y14070605D01*
X17071905Y14108827D01*
X17091593Y14169417D01*
X17120514Y14226179D01*
X17136344Y14264395D01*
X17151684Y14287354D01*
X17167804Y14318990D01*
X17230290Y14404996D01*
X17252879Y14438801D01*
X17260093Y14446016D01*
X17266481Y14454807D01*
X17385193Y14573519D01*
X17393984Y14579907D01*
X17401199Y14587121D01*
X17435004Y14609710D01*
X17521010Y14672196D01*
X17552646Y14688316D01*
X17575605Y14703656D01*
X17613821Y14719486D01*
X17670583Y14748407D01*
X17731173Y14768095D01*
X17769395Y14783926D01*
X17796478Y14789314D01*
X17830252Y14800287D01*
X17935234Y14816914D01*
X17975122Y14824848D01*
X17985331Y14824848D01*
X17996059Y14826547D01*
X18163941Y14826547D01*
X18174669Y14824848D01*
G37*
G36*
X88114107Y16562563D02*
G01*
X88118731Y16560522D01*
X88121255Y16560189D01*
X88152844Y16545459D01*
X88208239Y16520999D01*
X88280999Y16448239D01*
X88305467Y16392824D01*
X88320188Y16361256D01*
X88320520Y16358734D01*
X88322563Y16354107D01*
X88329999Y16290000D01*
X88329999Y16286735D01*
X88330000Y16286727D01*
X88330000Y14830000D01*
X88330000Y14709999D01*
X88322563Y14645893D01*
X88320519Y14641266D01*
X88320188Y14638745D01*
X88305476Y14607196D01*
X88280999Y14551761D01*
X88208239Y14479001D01*
X88152804Y14454524D01*
X88121255Y14439812D01*
X88118734Y14439481D01*
X88114107Y14437437D01*
X88050000Y14430001D01*
X88046733Y14430001D01*
X88046726Y14430000D01*
X84953274Y14430000D01*
X84953273Y14430001D01*
X84949999Y14430000D01*
X84885893Y14437437D01*
X84881266Y14439480D01*
X84878744Y14439812D01*
X84847176Y14454533D01*
X84791761Y14479001D01*
X84719001Y14551761D01*
X84694541Y14607156D01*
X84679811Y14638745D01*
X84679478Y14641269D01*
X84677437Y14645893D01*
X84670001Y14710000D01*
X84670000Y14713267D01*
X84670000Y14713274D01*
X84670000Y16286727D01*
X84670000Y16286728D01*
X84670000Y16290001D01*
X84677437Y16354107D01*
X84679478Y16358731D01*
X84679811Y16361256D01*
X84694550Y16392864D01*
X84719001Y16448239D01*
X84791761Y16520999D01*
X84847136Y16545450D01*
X84878744Y16560189D01*
X84881269Y16560522D01*
X84885893Y16562563D01*
X84950000Y16569999D01*
X84953266Y16570000D01*
X84953274Y16570000D01*
X88046726Y16570000D01*
X88050001Y16570000D01*
X88114107Y16562563D01*
G37*
G36*
X87263880Y21649810D02*
G01*
X87342963Y21646702D01*
X87350078Y21645575D01*
X87364878Y21644848D01*
X87404765Y21636914D01*
X87509747Y21620287D01*
X87543518Y21609314D01*
X87570605Y21603926D01*
X87608830Y21588093D01*
X87669416Y21568407D01*
X87726172Y21539489D01*
X87764395Y21523656D01*
X87787356Y21508314D01*
X87818989Y21492196D01*
X87904983Y21429718D01*
X87938801Y21407121D01*
X87946018Y21399904D01*
X87954806Y21393519D01*
X88073518Y21274807D01*
X88079902Y21266020D01*
X88087121Y21258801D01*
X88109720Y21224979D01*
X88172195Y21138990D01*
X88188311Y21107360D01*
X88203656Y21084395D01*
X88219490Y21046168D01*
X88248406Y20989417D01*
X88268089Y20928839D01*
X88283926Y20890605D01*
X88289314Y20863514D01*
X88300286Y20829748D01*
X88316912Y20724773D01*
X88324848Y20684878D01*
X88324848Y20674670D01*
X88326547Y20663942D01*
X88326547Y20496059D01*
X88324848Y20485332D01*
X88324848Y20475122D01*
X88316911Y20435224D01*
X88300286Y20330253D01*
X88289315Y20296490D01*
X88283926Y20269395D01*
X88268087Y20231159D01*
X88248406Y20170584D01*
X88219492Y20113838D01*
X88203656Y20075605D01*
X88188309Y20052638D01*
X88172195Y20021011D01*
X88109728Y19935035D01*
X88087121Y19901199D01*
X88079899Y19893978D01*
X88073518Y19885194D01*
X87954806Y19766482D01*
X87946022Y19760101D01*
X87938801Y19752879D01*
X87904965Y19730272D01*
X87818989Y19667805D01*
X87787362Y19651691D01*
X87764395Y19636344D01*
X87726162Y19620508D01*
X87669416Y19591594D01*
X87608841Y19571913D01*
X87570605Y19556074D01*
X87543510Y19550685D01*
X87509747Y19539714D01*
X87404790Y19523092D01*
X87364878Y19515152D01*
X87350069Y19514425D01*
X87342963Y19513299D01*
X87263886Y19510191D01*
X87260000Y19510000D01*
X87259029Y19510000D01*
X85740971Y19510000D01*
X85740000Y19510000D01*
X85736113Y19510191D01*
X85657036Y19513299D01*
X85649928Y19514425D01*
X85635122Y19515152D01*
X85595213Y19523091D01*
X85490252Y19539714D01*
X85456486Y19550686D01*
X85429395Y19556074D01*
X85391161Y19571911D01*
X85330583Y19591594D01*
X85273832Y19620510D01*
X85235605Y19636344D01*
X85212640Y19651689D01*
X85181010Y19667805D01*
X85095021Y19730280D01*
X85061199Y19752879D01*
X85053980Y19760098D01*
X85045193Y19766482D01*
X84926481Y19885194D01*
X84920096Y19893982D01*
X84912879Y19901199D01*
X84890282Y19935017D01*
X84827804Y20021011D01*
X84811686Y20052644D01*
X84796344Y20075605D01*
X84780511Y20113828D01*
X84751593Y20170584D01*
X84731907Y20231170D01*
X84716074Y20269395D01*
X84710686Y20296482D01*
X84699713Y20330253D01*
X84683086Y20435233D01*
X84675152Y20475122D01*
X84675152Y20485332D01*
X84673453Y20496059D01*
X84673453Y20663942D01*
X84675152Y20674670D01*
X84675152Y20684878D01*
X84683085Y20724764D01*
X84699713Y20829748D01*
X84710686Y20863522D01*
X84716074Y20890605D01*
X84731905Y20928827D01*
X84751593Y20989417D01*
X84780514Y21046179D01*
X84796344Y21084395D01*
X84811684Y21107354D01*
X84827804Y21138990D01*
X84890290Y21224996D01*
X84912879Y21258801D01*
X84920093Y21266016D01*
X84926481Y21274807D01*
X85045193Y21393519D01*
X85053984Y21399907D01*
X85061199Y21407121D01*
X85095004Y21429710D01*
X85181010Y21492196D01*
X85212646Y21508316D01*
X85235605Y21523656D01*
X85273821Y21539486D01*
X85330583Y21568407D01*
X85391173Y21588095D01*
X85429395Y21603926D01*
X85456478Y21609314D01*
X85490252Y21620287D01*
X85595238Y21636915D01*
X85635122Y21644848D01*
X85649919Y21645575D01*
X85657036Y21646702D01*
X85736119Y21649810D01*
X85740000Y21650000D01*
X87260000Y21650000D01*
X87263880Y21649810D01*
G37*
G36*
X63614106Y21822563D02*
G01*
X63618730Y21820522D01*
X63621253Y21820189D01*
X63652824Y21805467D01*
X63708238Y21780999D01*
X63780999Y21708238D01*
X63805476Y21652803D01*
X63820188Y21621254D01*
X63820519Y21618734D01*
X63822563Y21614106D01*
X63830000Y21550000D01*
X63830000Y20450000D01*
X63822563Y20385894D01*
X63820519Y20381267D01*
X63820188Y20378747D01*
X63805484Y20347217D01*
X63780999Y20291762D01*
X63708238Y20219001D01*
X63652783Y20194516D01*
X63621253Y20179812D01*
X63618733Y20179481D01*
X63614106Y20177437D01*
X63550000Y20170000D01*
X62450000Y20170000D01*
X62385894Y20177437D01*
X62381266Y20179481D01*
X62378746Y20179812D01*
X62347197Y20194524D01*
X62291762Y20219001D01*
X62219001Y20291762D01*
X62194533Y20347176D01*
X62179811Y20378747D01*
X62179478Y20381270D01*
X62177437Y20385894D01*
X62170000Y20450000D01*
X62170000Y21550000D01*
X62177437Y21614106D01*
X62179478Y21618731D01*
X62179811Y21621254D01*
X62194541Y21652843D01*
X62219001Y21708238D01*
X62291762Y21780999D01*
X62347157Y21805459D01*
X62378746Y21820189D01*
X62381269Y21820522D01*
X62385894Y21822563D01*
X62450000Y21830000D01*
X63550000Y21830000D01*
X63614106Y21822563D01*
G37*
G36*
X65240936Y21794260D02*
G01*
X65391259Y21731995D01*
X65526546Y21641599D01*
X65641599Y21526546D01*
X65731995Y21391259D01*
X65794260Y21240936D01*
X65826003Y21081354D01*
X65826003Y20918646D01*
X65794260Y20759064D01*
X65731995Y20608741D01*
X65641599Y20473454D01*
X65526546Y20358401D01*
X65391259Y20268005D01*
X65240936Y20205740D01*
X65081354Y20173997D01*
X64918646Y20173997D01*
X64759064Y20205740D01*
X64608741Y20268005D01*
X64473454Y20358401D01*
X64358401Y20473454D01*
X64268005Y20608741D01*
X64205740Y20759064D01*
X64173997Y20918646D01*
X64173997Y21081354D01*
X64205740Y21240936D01*
X64268005Y21391259D01*
X64358401Y21526546D01*
X64473454Y21641599D01*
X64608741Y21731995D01*
X64759064Y21794260D01*
X64918646Y21826003D01*
X65081354Y21826003D01*
X65240936Y21794260D01*
G37*
G36*
X4783688Y22443462D02*
G01*
X4892205Y22380810D01*
X4980810Y22292205D01*
X5043462Y22183688D01*
X5075894Y22062653D01*
X5075894Y21937347D01*
X5043462Y21816312D01*
X4980810Y21707795D01*
X4892205Y21619190D01*
X4783688Y21556538D01*
X4662653Y21524106D01*
X4537347Y21524106D01*
X4416312Y21556538D01*
X4307795Y21619190D01*
X4219190Y21707795D01*
X4156538Y21816312D01*
X4124106Y21937347D01*
X4124106Y22062653D01*
X4156538Y22183688D01*
X4219190Y22292205D01*
X4307795Y22380810D01*
X4416312Y22443462D01*
X4537347Y22475894D01*
X4662653Y22475894D01*
X4783688Y22443462D01*
G37*
G36*
X11583688Y22443462D02*
G01*
X11692205Y22380810D01*
X11780810Y22292205D01*
X11843462Y22183688D01*
X11875894Y22062653D01*
X11875894Y21937347D01*
X11843462Y21816312D01*
X11780810Y21707795D01*
X11692205Y21619190D01*
X11583688Y21556538D01*
X11462653Y21524106D01*
X11337347Y21524106D01*
X11216312Y21556538D01*
X11107795Y21619190D01*
X11019190Y21707795D01*
X10956538Y21816312D01*
X10924106Y21937347D01*
X10924106Y22062653D01*
X10956538Y22183688D01*
X11019190Y22292205D01*
X11107795Y22380810D01*
X11216312Y22443462D01*
X11337347Y22475894D01*
X11462653Y22475894D01*
X11583688Y22443462D01*
G37*
G36*
X63614106Y29822563D02*
G01*
X63618730Y29820522D01*
X63621253Y29820189D01*
X63652824Y29805467D01*
X63708238Y29780999D01*
X63780999Y29708238D01*
X63805476Y29652803D01*
X63820188Y29621254D01*
X63820519Y29618734D01*
X63822563Y29614106D01*
X63830000Y29550000D01*
X63830000Y28450000D01*
X63822563Y28385894D01*
X63820519Y28381267D01*
X63820188Y28378747D01*
X63805484Y28347217D01*
X63780999Y28291762D01*
X63708238Y28219001D01*
X63652783Y28194516D01*
X63621253Y28179812D01*
X63618733Y28179481D01*
X63614106Y28177437D01*
X63550000Y28170000D01*
X62450000Y28170000D01*
X62385894Y28177437D01*
X62381266Y28179481D01*
X62378746Y28179812D01*
X62347197Y28194524D01*
X62291762Y28219001D01*
X62219001Y28291762D01*
X62194533Y28347176D01*
X62179811Y28378747D01*
X62179478Y28381270D01*
X62177437Y28385894D01*
X62170000Y28450000D01*
X62170000Y29550000D01*
X62177437Y29614106D01*
X62179478Y29618731D01*
X62179811Y29621254D01*
X62194541Y29652843D01*
X62219001Y29708238D01*
X62291762Y29780999D01*
X62347157Y29805459D01*
X62378746Y29820189D01*
X62381269Y29820522D01*
X62385894Y29822563D01*
X62450000Y29830000D01*
X63550000Y29830000D01*
X63614106Y29822563D01*
G37*
G36*
X65240936Y29794260D02*
G01*
X65391259Y29731995D01*
X65526546Y29641599D01*
X65641599Y29526546D01*
X65731995Y29391259D01*
X65794260Y29240936D01*
X65826003Y29081354D01*
X65826003Y28918646D01*
X65794260Y28759064D01*
X65731995Y28608741D01*
X65641599Y28473454D01*
X65526546Y28358401D01*
X65391259Y28268005D01*
X65240936Y28205740D01*
X65081354Y28173997D01*
X64918646Y28173997D01*
X64759064Y28205740D01*
X64608741Y28268005D01*
X64473454Y28358401D01*
X64358401Y28473454D01*
X64268005Y28608741D01*
X64205740Y28759064D01*
X64173997Y28918646D01*
X64173997Y29081354D01*
X64205740Y29240936D01*
X64268005Y29391259D01*
X64358401Y29526546D01*
X64473454Y29641599D01*
X64608741Y29731995D01*
X64759064Y29794260D01*
X64918646Y29826003D01*
X65081354Y29826003D01*
X65240936Y29794260D01*
G37*
G36*
X88114107Y32062563D02*
G01*
X88118731Y32060522D01*
X88121255Y32060189D01*
X88152844Y32045459D01*
X88208239Y32020999D01*
X88280999Y31948239D01*
X88305467Y31892824D01*
X88320188Y31861256D01*
X88320520Y31858734D01*
X88322563Y31854107D01*
X88329999Y31790000D01*
X88329999Y31786735D01*
X88330000Y31786727D01*
X88330000Y30213274D01*
X88330000Y30209999D01*
X88322563Y30145893D01*
X88320519Y30141266D01*
X88320188Y30138745D01*
X88305476Y30107196D01*
X88280999Y30051761D01*
X88208239Y29979001D01*
X88152804Y29954524D01*
X88121255Y29939812D01*
X88118734Y29939481D01*
X88114107Y29937437D01*
X88050000Y29930001D01*
X88046733Y29930001D01*
X88046726Y29930000D01*
X84953274Y29930000D01*
X84953273Y29930001D01*
X84949999Y29930000D01*
X84885893Y29937437D01*
X84881266Y29939480D01*
X84878744Y29939812D01*
X84847176Y29954533D01*
X84791761Y29979001D01*
X84719001Y30051761D01*
X84694541Y30107156D01*
X84679811Y30138745D01*
X84679478Y30141269D01*
X84677437Y30145893D01*
X84670001Y30210000D01*
X84670000Y30213267D01*
X84670000Y30213274D01*
X84670000Y31786727D01*
X84670000Y31786728D01*
X84670000Y31790001D01*
X84677437Y31854107D01*
X84679478Y31858731D01*
X84679811Y31861256D01*
X84694550Y31892864D01*
X84719001Y31948239D01*
X84791761Y32020999D01*
X84847136Y32045450D01*
X84878744Y32060189D01*
X84881269Y32060522D01*
X84885893Y32062563D01*
X84950000Y32069999D01*
X84953266Y32070000D01*
X84953274Y32070000D01*
X88046726Y32070000D01*
X88050001Y32070000D01*
X88114107Y32062563D01*
G37*
G36*
X87263880Y37149810D02*
G01*
X87342963Y37146702D01*
X87350078Y37145575D01*
X87364878Y37144848D01*
X87404765Y37136914D01*
X87509747Y37120287D01*
X87543518Y37109314D01*
X87570605Y37103926D01*
X87608830Y37088093D01*
X87669416Y37068407D01*
X87726172Y37039489D01*
X87764395Y37023656D01*
X87787356Y37008314D01*
X87818989Y36992196D01*
X87904983Y36929718D01*
X87938801Y36907121D01*
X87946018Y36899904D01*
X87954806Y36893519D01*
X88073518Y36774807D01*
X88079902Y36766020D01*
X88087121Y36758801D01*
X88109720Y36724979D01*
X88172195Y36638990D01*
X88188311Y36607360D01*
X88203656Y36584395D01*
X88219490Y36546168D01*
X88248406Y36489417D01*
X88268089Y36428839D01*
X88283926Y36390605D01*
X88289314Y36363514D01*
X88300286Y36329748D01*
X88316912Y36224773D01*
X88324848Y36184878D01*
X88324848Y36174670D01*
X88326547Y36163942D01*
X88326547Y35996059D01*
X88324848Y35985332D01*
X88324848Y35975122D01*
X88316911Y35935224D01*
X88300286Y35830253D01*
X88289315Y35796490D01*
X88283926Y35769395D01*
X88268087Y35731159D01*
X88248406Y35670584D01*
X88219492Y35613838D01*
X88203656Y35575605D01*
X88188309Y35552638D01*
X88172195Y35521011D01*
X88109728Y35435035D01*
X88087121Y35401199D01*
X88079899Y35393978D01*
X88073518Y35385194D01*
X87954806Y35266482D01*
X87946022Y35260101D01*
X87938801Y35252879D01*
X87904965Y35230272D01*
X87818989Y35167805D01*
X87787362Y35151691D01*
X87764395Y35136344D01*
X87726162Y35120508D01*
X87669416Y35091594D01*
X87608841Y35071913D01*
X87570605Y35056074D01*
X87543510Y35050685D01*
X87509747Y35039714D01*
X87404790Y35023092D01*
X87364878Y35015152D01*
X87350069Y35014425D01*
X87342963Y35013299D01*
X87263886Y35010191D01*
X87260000Y35010000D01*
X87259029Y35010000D01*
X85740971Y35010000D01*
X85740000Y35010000D01*
X85736113Y35010191D01*
X85657036Y35013299D01*
X85649928Y35014425D01*
X85635122Y35015152D01*
X85595213Y35023091D01*
X85490252Y35039714D01*
X85456486Y35050686D01*
X85429395Y35056074D01*
X85391161Y35071911D01*
X85330583Y35091594D01*
X85273832Y35120510D01*
X85235605Y35136344D01*
X85212640Y35151689D01*
X85181010Y35167805D01*
X85095021Y35230280D01*
X85061199Y35252879D01*
X85053980Y35260098D01*
X85045193Y35266482D01*
X84926481Y35385194D01*
X84920096Y35393982D01*
X84912879Y35401199D01*
X84890282Y35435017D01*
X84827804Y35521011D01*
X84811686Y35552644D01*
X84796344Y35575605D01*
X84780511Y35613828D01*
X84751593Y35670584D01*
X84731907Y35731170D01*
X84716074Y35769395D01*
X84710686Y35796482D01*
X84699713Y35830253D01*
X84683086Y35935233D01*
X84675152Y35975122D01*
X84675152Y35985332D01*
X84673453Y35996059D01*
X84673453Y36163942D01*
X84675152Y36174670D01*
X84675152Y36184878D01*
X84683085Y36224764D01*
X84699713Y36329748D01*
X84710686Y36363522D01*
X84716074Y36390605D01*
X84731905Y36428827D01*
X84751593Y36489417D01*
X84780514Y36546179D01*
X84796344Y36584395D01*
X84811684Y36607354D01*
X84827804Y36638990D01*
X84890290Y36724996D01*
X84912879Y36758801D01*
X84920093Y36766016D01*
X84926481Y36774807D01*
X85045193Y36893519D01*
X85053984Y36899907D01*
X85061199Y36907121D01*
X85095004Y36929710D01*
X85181010Y36992196D01*
X85212646Y37008316D01*
X85235605Y37023656D01*
X85273821Y37039486D01*
X85330583Y37068407D01*
X85391173Y37088095D01*
X85429395Y37103926D01*
X85456478Y37109314D01*
X85490252Y37120287D01*
X85595238Y37136915D01*
X85635122Y37144848D01*
X85649919Y37145575D01*
X85657036Y37146702D01*
X85736119Y37149810D01*
X85740000Y37150000D01*
X87260000Y37150000D01*
X87263880Y37149810D01*
G37*
G36*
X88114107Y47062563D02*
G01*
X88118731Y47060522D01*
X88121255Y47060189D01*
X88152844Y47045459D01*
X88208239Y47020999D01*
X88280999Y46948239D01*
X88305467Y46892824D01*
X88320188Y46861256D01*
X88320520Y46858734D01*
X88322563Y46854107D01*
X88329999Y46790000D01*
X88329999Y46786735D01*
X88330000Y46786727D01*
X88330000Y45213274D01*
X88330000Y45209999D01*
X88322563Y45145893D01*
X88320519Y45141266D01*
X88320188Y45138745D01*
X88305476Y45107196D01*
X88280999Y45051761D01*
X88208239Y44979001D01*
X88152804Y44954524D01*
X88121255Y44939812D01*
X88118734Y44939481D01*
X88114107Y44937437D01*
X88050000Y44930001D01*
X88046733Y44930001D01*
X88046726Y44930000D01*
X84953274Y44930000D01*
X84953273Y44930001D01*
X84949999Y44930000D01*
X84885893Y44937437D01*
X84881266Y44939480D01*
X84878744Y44939812D01*
X84847176Y44954533D01*
X84791761Y44979001D01*
X84719001Y45051761D01*
X84694541Y45107156D01*
X84679811Y45138745D01*
X84679478Y45141269D01*
X84677437Y45145893D01*
X84670001Y45210000D01*
X84670000Y45213267D01*
X84670000Y45213274D01*
X84670000Y46786727D01*
X84670000Y46786728D01*
X84670000Y46790001D01*
X84677437Y46854107D01*
X84679478Y46858731D01*
X84679811Y46861256D01*
X84694550Y46892864D01*
X84719001Y46948239D01*
X84791761Y47020999D01*
X84847136Y47045450D01*
X84878744Y47060189D01*
X84881269Y47060522D01*
X84885893Y47062563D01*
X84950000Y47069999D01*
X84953266Y47070000D01*
X84953274Y47070000D01*
X88046726Y47070000D01*
X88050001Y47070000D01*
X88114107Y47062563D01*
G37*
G36*
X10269965Y48109955D02*
G01*
X10438399Y48040187D01*
X10589986Y47938900D01*
X10718900Y47809986D01*
X10820187Y47658399D01*
X10889955Y47489965D01*
X10925522Y47311156D01*
X10925522Y47128844D01*
X10889955Y46950035D01*
X10820187Y46781601D01*
X10718900Y46630014D01*
X10589986Y46501100D01*
X10438399Y46399813D01*
X10269965Y46330045D01*
X10091156Y46294478D01*
X9908844Y46294478D01*
X9730035Y46330045D01*
X9561601Y46399813D01*
X9410014Y46501100D01*
X9281100Y46630014D01*
X9179813Y46781601D01*
X9110045Y46950035D01*
X9074478Y47128844D01*
X9074478Y47311156D01*
X9110045Y47489965D01*
X9179813Y47658399D01*
X9281100Y47809986D01*
X9410014Y47938900D01*
X9561601Y48040187D01*
X9730035Y48109955D01*
X9908844Y48145522D01*
X10091156Y48145522D01*
X10269965Y48109955D01*
G37*
G36*
X12809965Y48109955D02*
G01*
X12978399Y48040187D01*
X13129986Y47938900D01*
X13258900Y47809986D01*
X13360187Y47658399D01*
X13429955Y47489965D01*
X13465522Y47311156D01*
X13465522Y47128844D01*
X13429955Y46950035D01*
X13360187Y46781601D01*
X13258900Y46630014D01*
X13129986Y46501100D01*
X12978399Y46399813D01*
X12809965Y46330045D01*
X12631156Y46294478D01*
X12448844Y46294478D01*
X12270035Y46330045D01*
X12101601Y46399813D01*
X11950014Y46501100D01*
X11821100Y46630014D01*
X11719813Y46781601D01*
X11650045Y46950035D01*
X11614478Y47128844D01*
X11614478Y47311156D01*
X11650045Y47489965D01*
X11719813Y47658399D01*
X11821100Y47809986D01*
X11950014Y47938900D01*
X12101601Y48040187D01*
X12270035Y48109955D01*
X12448844Y48145522D01*
X12631156Y48145522D01*
X12809965Y48109955D01*
G37*
G36*
X10269965Y50649955D02*
G01*
X10438399Y50580187D01*
X10589986Y50478900D01*
X10718900Y50349986D01*
X10820187Y50198399D01*
X10889955Y50029965D01*
X10925522Y49851156D01*
X10925522Y49668844D01*
X10889955Y49490035D01*
X10820187Y49321601D01*
X10718900Y49170014D01*
X10589986Y49041100D01*
X10438399Y48939813D01*
X10269965Y48870045D01*
X10091156Y48834478D01*
X9908844Y48834478D01*
X9730035Y48870045D01*
X9561601Y48939813D01*
X9410014Y49041100D01*
X9281100Y49170014D01*
X9179813Y49321601D01*
X9110045Y49490035D01*
X9074478Y49668844D01*
X9074478Y49851156D01*
X9110045Y50029965D01*
X9179813Y50198399D01*
X9281100Y50349986D01*
X9410014Y50478900D01*
X9561601Y50580187D01*
X9730035Y50649955D01*
X9908844Y50685522D01*
X10091156Y50685522D01*
X10269965Y50649955D01*
G37*
G36*
X12809965Y50649955D02*
G01*
X12978399Y50580187D01*
X13129986Y50478900D01*
X13258900Y50349986D01*
X13360187Y50198399D01*
X13429955Y50029965D01*
X13465522Y49851156D01*
X13465522Y49668844D01*
X13429955Y49490035D01*
X13360187Y49321601D01*
X13258900Y49170014D01*
X13129986Y49041100D01*
X12978399Y48939813D01*
X12809965Y48870045D01*
X12631156Y48834478D01*
X12448844Y48834478D01*
X12270035Y48870045D01*
X12101601Y48939813D01*
X11950014Y49041100D01*
X11821100Y49170014D01*
X11719813Y49321601D01*
X11650045Y49490035D01*
X11614478Y49668844D01*
X11614478Y49851156D01*
X11650045Y50029965D01*
X11719813Y50198399D01*
X11821100Y50349986D01*
X11950014Y50478900D01*
X12101601Y50580187D01*
X12270035Y50649955D01*
X12448844Y50685522D01*
X12631156Y50685522D01*
X12809965Y50649955D01*
G37*
G36*
X87263880Y52149810D02*
G01*
X87342963Y52146702D01*
X87350078Y52145575D01*
X87364878Y52144848D01*
X87404765Y52136914D01*
X87509747Y52120287D01*
X87543518Y52109314D01*
X87570605Y52103926D01*
X87608830Y52088093D01*
X87669416Y52068407D01*
X87726172Y52039489D01*
X87764395Y52023656D01*
X87787356Y52008314D01*
X87818989Y51992196D01*
X87904983Y51929718D01*
X87938801Y51907121D01*
X87946018Y51899904D01*
X87954806Y51893519D01*
X88073518Y51774807D01*
X88079902Y51766020D01*
X88087121Y51758801D01*
X88109720Y51724979D01*
X88172195Y51638990D01*
X88188311Y51607360D01*
X88203656Y51584395D01*
X88219490Y51546168D01*
X88248406Y51489417D01*
X88268089Y51428839D01*
X88283926Y51390605D01*
X88289314Y51363514D01*
X88300286Y51329748D01*
X88316912Y51224773D01*
X88324848Y51184878D01*
X88324848Y51174670D01*
X88326547Y51163942D01*
X88326547Y50996059D01*
X88324848Y50985332D01*
X88324848Y50975122D01*
X88316911Y50935224D01*
X88300286Y50830253D01*
X88289315Y50796490D01*
X88283926Y50769395D01*
X88268087Y50731159D01*
X88248406Y50670584D01*
X88219492Y50613838D01*
X88203656Y50575605D01*
X88188309Y50552638D01*
X88172195Y50521011D01*
X88109728Y50435035D01*
X88087121Y50401199D01*
X88079899Y50393978D01*
X88073518Y50385194D01*
X87954806Y50266482D01*
X87946022Y50260101D01*
X87938801Y50252879D01*
X87904965Y50230272D01*
X87818989Y50167805D01*
X87787362Y50151691D01*
X87764395Y50136344D01*
X87726162Y50120508D01*
X87669416Y50091594D01*
X87608841Y50071913D01*
X87570605Y50056074D01*
X87543510Y50050685D01*
X87509747Y50039714D01*
X87404790Y50023092D01*
X87364878Y50015152D01*
X87350069Y50014425D01*
X87342963Y50013299D01*
X87263886Y50010191D01*
X87260000Y50010000D01*
X87259029Y50010000D01*
X85740971Y50010000D01*
X85740000Y50010000D01*
X85736113Y50010191D01*
X85657036Y50013299D01*
X85649928Y50014425D01*
X85635122Y50015152D01*
X85595213Y50023091D01*
X85490252Y50039714D01*
X85456486Y50050686D01*
X85429395Y50056074D01*
X85391161Y50071911D01*
X85330583Y50091594D01*
X85273832Y50120510D01*
X85235605Y50136344D01*
X85212640Y50151689D01*
X85181010Y50167805D01*
X85095021Y50230280D01*
X85061199Y50252879D01*
X85053980Y50260098D01*
X85045193Y50266482D01*
X84926481Y50385194D01*
X84920096Y50393982D01*
X84912879Y50401199D01*
X84890282Y50435017D01*
X84827804Y50521011D01*
X84811686Y50552644D01*
X84796344Y50575605D01*
X84780511Y50613828D01*
X84751593Y50670584D01*
X84731907Y50731170D01*
X84716074Y50769395D01*
X84710686Y50796482D01*
X84699713Y50830253D01*
X84683086Y50935233D01*
X84675152Y50975122D01*
X84675152Y50985332D01*
X84673453Y50996059D01*
X84673453Y51163942D01*
X84675152Y51174670D01*
X84675152Y51184878D01*
X84683085Y51224764D01*
X84699713Y51329748D01*
X84710686Y51363522D01*
X84716074Y51390605D01*
X84731905Y51428827D01*
X84751593Y51489417D01*
X84780514Y51546179D01*
X84796344Y51584395D01*
X84811684Y51607354D01*
X84827804Y51638990D01*
X84890290Y51724996D01*
X84912879Y51758801D01*
X84920093Y51766016D01*
X84926481Y51774807D01*
X85045193Y51893519D01*
X85053984Y51899907D01*
X85061199Y51907121D01*
X85095004Y51929710D01*
X85181010Y51992196D01*
X85212646Y52008316D01*
X85235605Y52023656D01*
X85273821Y52039486D01*
X85330583Y52068407D01*
X85391173Y52088095D01*
X85429395Y52103926D01*
X85456478Y52109314D01*
X85490252Y52120287D01*
X85595238Y52136915D01*
X85635122Y52144848D01*
X85649919Y52145575D01*
X85657036Y52146702D01*
X85736119Y52149810D01*
X85740000Y52150000D01*
X87260000Y52150000D01*
X87263880Y52149810D01*
G37*
G36*
X63614106Y52822563D02*
G01*
X63618730Y52820522D01*
X63621253Y52820189D01*
X63652824Y52805467D01*
X63708238Y52780999D01*
X63780999Y52708238D01*
X63805476Y52652803D01*
X63820188Y52621254D01*
X63820519Y52618734D01*
X63822563Y52614106D01*
X63830000Y52550000D01*
X63830000Y51450000D01*
X63822563Y51385894D01*
X63820519Y51381267D01*
X63820188Y51378747D01*
X63805484Y51347217D01*
X63780999Y51291762D01*
X63708238Y51219001D01*
X63652783Y51194516D01*
X63621253Y51179812D01*
X63618733Y51179481D01*
X63614106Y51177437D01*
X63550000Y51170000D01*
X62450000Y51170000D01*
X62385894Y51177437D01*
X62381266Y51179481D01*
X62378746Y51179812D01*
X62347197Y51194524D01*
X62291762Y51219001D01*
X62219001Y51291762D01*
X62194533Y51347176D01*
X62179811Y51378747D01*
X62179478Y51381270D01*
X62177437Y51385894D01*
X62170000Y51450000D01*
X62170000Y52550000D01*
X62177437Y52614106D01*
X62179478Y52618731D01*
X62179811Y52621254D01*
X62194541Y52652843D01*
X62219001Y52708238D01*
X62291762Y52780999D01*
X62347157Y52805459D01*
X62378746Y52820189D01*
X62381269Y52820522D01*
X62385894Y52822563D01*
X62450000Y52830000D01*
X63550000Y52830000D01*
X63614106Y52822563D01*
G37*
G36*
X65240936Y52794260D02*
G01*
X65391259Y52731995D01*
X65526546Y52641599D01*
X65641599Y52526546D01*
X65731995Y52391259D01*
X65794260Y52240936D01*
X65826003Y52081354D01*
X65826003Y51918646D01*
X65794260Y51759064D01*
X65731995Y51608741D01*
X65641599Y51473454D01*
X65526546Y51358401D01*
X65391259Y51268005D01*
X65240936Y51205740D01*
X65081354Y51173997D01*
X64918646Y51173997D01*
X64759064Y51205740D01*
X64608741Y51268005D01*
X64473454Y51358401D01*
X64358401Y51473454D01*
X64268005Y51608741D01*
X64205740Y51759064D01*
X64173997Y51918646D01*
X64173997Y52081354D01*
X64205740Y52240936D01*
X64268005Y52391259D01*
X64358401Y52526546D01*
X64473454Y52641599D01*
X64608741Y52731995D01*
X64759064Y52794260D01*
X64918646Y52826003D01*
X65081354Y52826003D01*
X65240936Y52794260D01*
G37*
G36*
X10269965Y53189955D02*
G01*
X10438399Y53120187D01*
X10589986Y53018900D01*
X10718900Y52889986D01*
X10820187Y52738399D01*
X10889955Y52569965D01*
X10925522Y52391156D01*
X10925522Y52208844D01*
X10889955Y52030035D01*
X10820187Y51861601D01*
X10718900Y51710014D01*
X10589986Y51581100D01*
X10438399Y51479813D01*
X10269965Y51410045D01*
X10091156Y51374478D01*
X9908844Y51374478D01*
X9730035Y51410045D01*
X9561601Y51479813D01*
X9410014Y51581100D01*
X9281100Y51710014D01*
X9179813Y51861601D01*
X9110045Y52030035D01*
X9074478Y52208844D01*
X9074478Y52391156D01*
X9110045Y52569965D01*
X9179813Y52738399D01*
X9281100Y52889986D01*
X9410014Y53018900D01*
X9561601Y53120187D01*
X9730035Y53189955D01*
X9908844Y53225522D01*
X10091156Y53225522D01*
X10269965Y53189955D01*
G37*
G36*
X12809965Y53189955D02*
G01*
X12978399Y53120187D01*
X13129986Y53018900D01*
X13258900Y52889986D01*
X13360187Y52738399D01*
X13429955Y52569965D01*
X13465522Y52391156D01*
X13465522Y52208844D01*
X13429955Y52030035D01*
X13360187Y51861601D01*
X13258900Y51710014D01*
X13129986Y51581100D01*
X12978399Y51479813D01*
X12809965Y51410045D01*
X12631156Y51374478D01*
X12448844Y51374478D01*
X12270035Y51410045D01*
X12101601Y51479813D01*
X11950014Y51581100D01*
X11821100Y51710014D01*
X11719813Y51861601D01*
X11650045Y52030035D01*
X11614478Y52208844D01*
X11614478Y52391156D01*
X11650045Y52569965D01*
X11719813Y52738399D01*
X11821100Y52889986D01*
X11950014Y53018900D01*
X12101601Y53120187D01*
X12270035Y53189955D01*
X12448844Y53225522D01*
X12631156Y53225522D01*
X12809965Y53189955D01*
G37*
G36*
X10269965Y55729955D02*
G01*
X10438399Y55660187D01*
X10589986Y55558900D01*
X10718900Y55429986D01*
X10820187Y55278399D01*
X10889955Y55109965D01*
X10925522Y54931156D01*
X10925522Y54748844D01*
X10889955Y54570035D01*
X10820187Y54401601D01*
X10718900Y54250014D01*
X10589986Y54121100D01*
X10438399Y54019813D01*
X10269965Y53950045D01*
X10091156Y53914478D01*
X9908844Y53914478D01*
X9730035Y53950045D01*
X9561601Y54019813D01*
X9410014Y54121100D01*
X9281100Y54250014D01*
X9179813Y54401601D01*
X9110045Y54570035D01*
X9074478Y54748844D01*
X9074478Y54931156D01*
X9110045Y55109965D01*
X9179813Y55278399D01*
X9281100Y55429986D01*
X9410014Y55558900D01*
X9561601Y55660187D01*
X9730035Y55729955D01*
X9908844Y55765522D01*
X10091156Y55765522D01*
X10269965Y55729955D01*
G37*
G36*
X12809965Y55729955D02*
G01*
X12978399Y55660187D01*
X13129986Y55558900D01*
X13258900Y55429986D01*
X13360187Y55278399D01*
X13429955Y55109965D01*
X13465522Y54931156D01*
X13465522Y54748844D01*
X13429955Y54570035D01*
X13360187Y54401601D01*
X13258900Y54250014D01*
X13129986Y54121100D01*
X12978399Y54019813D01*
X12809965Y53950045D01*
X12631156Y53914478D01*
X12448844Y53914478D01*
X12270035Y53950045D01*
X12101601Y54019813D01*
X11950014Y54121100D01*
X11821100Y54250014D01*
X11719813Y54401601D01*
X11650045Y54570035D01*
X11614478Y54748844D01*
X11614478Y54931156D01*
X11650045Y55109965D01*
X11719813Y55278399D01*
X11821100Y55429986D01*
X11950014Y55558900D01*
X12101601Y55660187D01*
X12270035Y55729955D01*
X12448844Y55765522D01*
X12631156Y55765522D01*
X12809965Y55729955D01*
G37*
G36*
X10269965Y58269955D02*
G01*
X10438399Y58200187D01*
X10589986Y58098900D01*
X10718900Y57969986D01*
X10820187Y57818399D01*
X10889955Y57649965D01*
X10925522Y57471156D01*
X10925522Y57288844D01*
X10889955Y57110035D01*
X10820187Y56941601D01*
X10718900Y56790014D01*
X10589986Y56661100D01*
X10438399Y56559813D01*
X10269965Y56490045D01*
X10091156Y56454478D01*
X9908844Y56454478D01*
X9730035Y56490045D01*
X9561601Y56559813D01*
X9410014Y56661100D01*
X9281100Y56790014D01*
X9179813Y56941601D01*
X9110045Y57110035D01*
X9074478Y57288844D01*
X9074478Y57471156D01*
X9110045Y57649965D01*
X9179813Y57818399D01*
X9281100Y57969986D01*
X9410014Y58098900D01*
X9561601Y58200187D01*
X9730035Y58269955D01*
X9908844Y58305522D01*
X10091156Y58305522D01*
X10269965Y58269955D01*
G37*
G36*
X12809965Y58269955D02*
G01*
X12978399Y58200187D01*
X13129986Y58098900D01*
X13258900Y57969986D01*
X13360187Y57818399D01*
X13429955Y57649965D01*
X13465522Y57471156D01*
X13465522Y57288844D01*
X13429955Y57110035D01*
X13360187Y56941601D01*
X13258900Y56790014D01*
X13129986Y56661100D01*
X12978399Y56559813D01*
X12809965Y56490045D01*
X12631156Y56454478D01*
X12448844Y56454478D01*
X12270035Y56490045D01*
X12101601Y56559813D01*
X11950014Y56661100D01*
X11821100Y56790014D01*
X11719813Y56941601D01*
X11650045Y57110035D01*
X11614478Y57288844D01*
X11614478Y57471156D01*
X11650045Y57649965D01*
X11719813Y57818399D01*
X11821100Y57969986D01*
X11950014Y58098900D01*
X12101601Y58200187D01*
X12270035Y58269955D01*
X12448844Y58305522D01*
X12631156Y58305522D01*
X12809965Y58269955D01*
G37*
G36*
X10269965Y60809955D02*
G01*
X10438399Y60740187D01*
X10589986Y60638900D01*
X10718900Y60509986D01*
X10820187Y60358399D01*
X10889955Y60189965D01*
X10925522Y60011156D01*
X10925522Y59828844D01*
X10889955Y59650035D01*
X10820187Y59481601D01*
X10718900Y59330014D01*
X10589986Y59201100D01*
X10438399Y59099813D01*
X10269965Y59030045D01*
X10091156Y58994478D01*
X9908844Y58994478D01*
X9730035Y59030045D01*
X9561601Y59099813D01*
X9410014Y59201100D01*
X9281100Y59330014D01*
X9179813Y59481601D01*
X9110045Y59650035D01*
X9074478Y59828844D01*
X9074478Y60011156D01*
X9110045Y60189965D01*
X9179813Y60358399D01*
X9281100Y60509986D01*
X9410014Y60638900D01*
X9561601Y60740187D01*
X9730035Y60809955D01*
X9908844Y60845522D01*
X10091156Y60845522D01*
X10269965Y60809955D01*
G37*
G36*
X12809965Y60809955D02*
G01*
X12978399Y60740187D01*
X13129986Y60638900D01*
X13258900Y60509986D01*
X13360187Y60358399D01*
X13429955Y60189965D01*
X13465522Y60011156D01*
X13465522Y59828844D01*
X13429955Y59650035D01*
X13360187Y59481601D01*
X13258900Y59330014D01*
X13129986Y59201100D01*
X12978399Y59099813D01*
X12809965Y59030045D01*
X12631156Y58994478D01*
X12448844Y58994478D01*
X12270035Y59030045D01*
X12101601Y59099813D01*
X11950014Y59201100D01*
X11821100Y59330014D01*
X11719813Y59481601D01*
X11650045Y59650035D01*
X11614478Y59828844D01*
X11614478Y60011156D01*
X11650045Y60189965D01*
X11719813Y60358399D01*
X11821100Y60509986D01*
X11950014Y60638900D01*
X12101601Y60740187D01*
X12270035Y60809955D01*
X12448844Y60845522D01*
X12631156Y60845522D01*
X12809965Y60809955D01*
G37*
G36*
X88114107Y62562563D02*
G01*
X88118731Y62560522D01*
X88121255Y62560189D01*
X88152844Y62545459D01*
X88208239Y62520999D01*
X88280999Y62448239D01*
X88305467Y62392824D01*
X88320188Y62361256D01*
X88320520Y62358734D01*
X88322563Y62354107D01*
X88329999Y62290000D01*
X88329999Y62286735D01*
X88330000Y62286727D01*
X88330000Y61473612D01*
X88330000Y60709999D01*
X88322563Y60645893D01*
X88320519Y60641266D01*
X88320188Y60638745D01*
X88305476Y60607196D01*
X88280999Y60551761D01*
X88208239Y60479001D01*
X88152804Y60454524D01*
X88121255Y60439812D01*
X88118734Y60439481D01*
X88114107Y60437437D01*
X88050000Y60430001D01*
X88046733Y60430001D01*
X88046726Y60430000D01*
X84953274Y60430000D01*
X84953273Y60430001D01*
X84949999Y60430000D01*
X84885893Y60437437D01*
X84881266Y60439480D01*
X84878744Y60439812D01*
X84847176Y60454533D01*
X84791761Y60479001D01*
X84719001Y60551761D01*
X84694541Y60607156D01*
X84679811Y60638745D01*
X84679478Y60641269D01*
X84677437Y60645893D01*
X84670001Y60710000D01*
X84670000Y60713267D01*
X84670000Y60713274D01*
X84670000Y62286727D01*
X84670000Y62286728D01*
X84670000Y62290001D01*
X84677437Y62354107D01*
X84679478Y62358731D01*
X84679811Y62361256D01*
X84694550Y62392864D01*
X84719001Y62448239D01*
X84791761Y62520999D01*
X84847136Y62545450D01*
X84878744Y62560189D01*
X84881269Y62560522D01*
X84885893Y62562563D01*
X84950000Y62569999D01*
X84953266Y62570000D01*
X84953274Y62570000D01*
X88046726Y62570000D01*
X88050001Y62570000D01*
X88114107Y62562563D01*
G37*
G36*
X63614106Y62822563D02*
G01*
X63618730Y62820522D01*
X63621253Y62820189D01*
X63652824Y62805467D01*
X63708238Y62780999D01*
X63780999Y62708238D01*
X63805476Y62652803D01*
X63820188Y62621254D01*
X63820519Y62618734D01*
X63822563Y62614106D01*
X63830000Y62550000D01*
X63830000Y61450000D01*
X63822563Y61385894D01*
X63820519Y61381267D01*
X63820188Y61378747D01*
X63805484Y61347217D01*
X63780999Y61291762D01*
X63708238Y61219001D01*
X63652783Y61194516D01*
X63621253Y61179812D01*
X63618733Y61179481D01*
X63614106Y61177437D01*
X63550000Y61170000D01*
X62450000Y61170000D01*
X62385894Y61177437D01*
X62381266Y61179481D01*
X62378746Y61179812D01*
X62347197Y61194524D01*
X62291762Y61219001D01*
X62219001Y61291762D01*
X62194533Y61347176D01*
X62179811Y61378747D01*
X62179478Y61381270D01*
X62177437Y61385894D01*
X62170000Y61450000D01*
X62170000Y62550000D01*
X62177437Y62614106D01*
X62179478Y62618731D01*
X62179811Y62621254D01*
X62194541Y62652843D01*
X62219001Y62708238D01*
X62291762Y62780999D01*
X62347157Y62805459D01*
X62378746Y62820189D01*
X62381269Y62820522D01*
X62385894Y62822563D01*
X62450000Y62830000D01*
X63550000Y62830000D01*
X63614106Y62822563D01*
G37*
G36*
X65240936Y62794260D02*
G01*
X65391259Y62731995D01*
X65526546Y62641599D01*
X65641599Y62526546D01*
X65731995Y62391259D01*
X65794260Y62240936D01*
X65826003Y62081354D01*
X65826003Y61918646D01*
X65794260Y61759064D01*
X65731995Y61608741D01*
X65641599Y61473454D01*
X65526546Y61358401D01*
X65391259Y61268005D01*
X65240936Y61205740D01*
X65081354Y61173997D01*
X64918646Y61173997D01*
X64759064Y61205740D01*
X64608741Y61268005D01*
X64473454Y61358401D01*
X64358401Y61473454D01*
X64268005Y61608741D01*
X64205740Y61759064D01*
X64173997Y61918646D01*
X64173997Y62081354D01*
X64205740Y62240936D01*
X64268005Y62391259D01*
X64358401Y62526546D01*
X64473454Y62641599D01*
X64608741Y62731995D01*
X64759064Y62794260D01*
X64918646Y62826003D01*
X65081354Y62826003D01*
X65240936Y62794260D01*
G37*
G36*
X10269965Y63349955D02*
G01*
X10438399Y63280187D01*
X10589986Y63178900D01*
X10718900Y63049986D01*
X10820187Y62898399D01*
X10889955Y62729965D01*
X10925522Y62551156D01*
X10925522Y62368844D01*
X10889955Y62190035D01*
X10820187Y62021601D01*
X10718900Y61870014D01*
X10589986Y61741100D01*
X10438399Y61639813D01*
X10269965Y61570045D01*
X10091156Y61534478D01*
X9908844Y61534478D01*
X9730035Y61570045D01*
X9561601Y61639813D01*
X9410014Y61741100D01*
X9281100Y61870014D01*
X9179813Y62021601D01*
X9110045Y62190035D01*
X9074478Y62368844D01*
X9074478Y62551156D01*
X9110045Y62729965D01*
X9179813Y62898399D01*
X9281100Y63049986D01*
X9410014Y63178900D01*
X9561601Y63280187D01*
X9730035Y63349955D01*
X9908844Y63385522D01*
X10091156Y63385522D01*
X10269965Y63349955D01*
G37*
G36*
X12809965Y63349955D02*
G01*
X12978399Y63280187D01*
X13129986Y63178900D01*
X13258900Y63049986D01*
X13360187Y62898399D01*
X13429955Y62729965D01*
X13465522Y62551156D01*
X13465522Y62368844D01*
X13429955Y62190035D01*
X13360187Y62021601D01*
X13258900Y61870014D01*
X13129986Y61741100D01*
X12978399Y61639813D01*
X12809965Y61570045D01*
X12631156Y61534478D01*
X12448844Y61534478D01*
X12270035Y61570045D01*
X12101601Y61639813D01*
X11950014Y61741100D01*
X11821100Y61870014D01*
X11719813Y62021601D01*
X11650045Y62190035D01*
X11614478Y62368844D01*
X11614478Y62551156D01*
X11650045Y62729965D01*
X11719813Y62898399D01*
X11821100Y63049986D01*
X11950014Y63178900D01*
X12101601Y63280187D01*
X12270035Y63349955D01*
X12448844Y63385522D01*
X12631156Y63385522D01*
X12809965Y63349955D01*
G37*
G36*
X10702767Y65922172D02*
G01*
X10707563Y65920055D01*
X10710352Y65919687D01*
X10745255Y65903412D01*
X10801843Y65878426D01*
X10878426Y65801843D01*
X10903421Y65745234D01*
X10919686Y65710353D01*
X10920052Y65707567D01*
X10922172Y65702767D01*
X10930000Y65635294D01*
X10930000Y64364706D01*
X10922172Y64297233D01*
X10920052Y64292434D01*
X10919686Y64289648D01*
X10903429Y64254785D01*
X10878426Y64198157D01*
X10801843Y64121574D01*
X10745215Y64096571D01*
X10710352Y64080314D01*
X10707566Y64079948D01*
X10702767Y64077828D01*
X10635294Y64070000D01*
X9364706Y64070000D01*
X9297233Y64077828D01*
X9292433Y64079948D01*
X9289647Y64080314D01*
X9254766Y64096579D01*
X9198157Y64121574D01*
X9121574Y64198157D01*
X9096588Y64254745D01*
X9080313Y64289648D01*
X9079945Y64292437D01*
X9077828Y64297233D01*
X9070000Y64364706D01*
X9070000Y65635294D01*
X9077828Y65702767D01*
X9079945Y65707564D01*
X9080313Y65710353D01*
X9096596Y65745275D01*
X9121574Y65801843D01*
X9198157Y65878426D01*
X9254725Y65903404D01*
X9289647Y65919687D01*
X9292436Y65920055D01*
X9297233Y65922172D01*
X9364706Y65930000D01*
X10635294Y65930000D01*
X10702767Y65922172D01*
G37*
G36*
X12809965Y65889955D02*
G01*
X12978399Y65820187D01*
X13129986Y65718900D01*
X13258900Y65589986D01*
X13360187Y65438399D01*
X13429955Y65269965D01*
X13465522Y65091156D01*
X13465522Y64908844D01*
X13429955Y64730035D01*
X13360187Y64561601D01*
X13258900Y64410014D01*
X13129986Y64281100D01*
X12978399Y64179813D01*
X12809965Y64110045D01*
X12631156Y64074478D01*
X12448844Y64074478D01*
X12270035Y64110045D01*
X12101601Y64179813D01*
X11950014Y64281100D01*
X11821100Y64410014D01*
X11719813Y64561601D01*
X11650045Y64730035D01*
X11614478Y64908844D01*
X11614478Y65091156D01*
X11650045Y65269965D01*
X11719813Y65438399D01*
X11821100Y65589986D01*
X11950014Y65718900D01*
X12101601Y65820187D01*
X12270035Y65889955D01*
X12448844Y65925522D01*
X12631156Y65925522D01*
X12809965Y65889955D01*
G37*
G36*
X87263880Y67649810D02*
G01*
X87342963Y67646702D01*
X87350078Y67645575D01*
X87364878Y67644848D01*
X87404765Y67636914D01*
X87509747Y67620287D01*
X87543518Y67609314D01*
X87570605Y67603926D01*
X87608830Y67588093D01*
X87669416Y67568407D01*
X87726172Y67539489D01*
X87764395Y67523656D01*
X87787356Y67508314D01*
X87818989Y67492196D01*
X87904983Y67429718D01*
X87938801Y67407121D01*
X87946018Y67399904D01*
X87954806Y67393519D01*
X88073518Y67274807D01*
X88079902Y67266020D01*
X88087121Y67258801D01*
X88109720Y67224979D01*
X88172195Y67138990D01*
X88188311Y67107360D01*
X88203656Y67084395D01*
X88219490Y67046168D01*
X88248406Y66989417D01*
X88268089Y66928839D01*
X88283926Y66890605D01*
X88289314Y66863514D01*
X88300286Y66829748D01*
X88316912Y66724773D01*
X88324848Y66684878D01*
X88324848Y66674670D01*
X88326547Y66663942D01*
X88326547Y66496059D01*
X88324848Y66485332D01*
X88324848Y66475122D01*
X88316911Y66435224D01*
X88300286Y66330253D01*
X88289315Y66296490D01*
X88283926Y66269395D01*
X88268087Y66231159D01*
X88248406Y66170584D01*
X88219492Y66113838D01*
X88203656Y66075605D01*
X88188309Y66052638D01*
X88172195Y66021011D01*
X88109728Y65935035D01*
X88087121Y65901199D01*
X88079899Y65893978D01*
X88073518Y65885194D01*
X87954806Y65766482D01*
X87946022Y65760101D01*
X87938801Y65752879D01*
X87904965Y65730272D01*
X87818989Y65667805D01*
X87787362Y65651691D01*
X87764395Y65636344D01*
X87726162Y65620508D01*
X87669416Y65591594D01*
X87608841Y65571913D01*
X87570605Y65556074D01*
X87543510Y65550685D01*
X87509747Y65539714D01*
X87404790Y65523092D01*
X87364878Y65515152D01*
X87350069Y65514425D01*
X87342963Y65513299D01*
X87263886Y65510191D01*
X87260000Y65510000D01*
X87259029Y65510000D01*
X85740971Y65510000D01*
X85740000Y65510000D01*
X85736113Y65510191D01*
X85657036Y65513299D01*
X85649928Y65514425D01*
X85635122Y65515152D01*
X85595213Y65523091D01*
X85490252Y65539714D01*
X85456486Y65550686D01*
X85429395Y65556074D01*
X85391161Y65571911D01*
X85330583Y65591594D01*
X85273832Y65620510D01*
X85235605Y65636344D01*
X85212640Y65651689D01*
X85181010Y65667805D01*
X85095021Y65730280D01*
X85061199Y65752879D01*
X85053980Y65760098D01*
X85045193Y65766482D01*
X84926481Y65885194D01*
X84920096Y65893982D01*
X84912879Y65901199D01*
X84890282Y65935017D01*
X84827804Y66021011D01*
X84811686Y66052644D01*
X84796344Y66075605D01*
X84780511Y66113828D01*
X84751593Y66170584D01*
X84731907Y66231170D01*
X84716074Y66269395D01*
X84710686Y66296482D01*
X84699713Y66330253D01*
X84683086Y66435233D01*
X84675152Y66475122D01*
X84675152Y66485332D01*
X84673453Y66496059D01*
X84673453Y66663942D01*
X84675152Y66674670D01*
X84675152Y66684878D01*
X84683085Y66724764D01*
X84699713Y66829748D01*
X84710686Y66863522D01*
X84716074Y66890605D01*
X84731905Y66928827D01*
X84751593Y66989417D01*
X84780514Y67046179D01*
X84796344Y67084395D01*
X84811684Y67107354D01*
X84827804Y67138990D01*
X84890290Y67224996D01*
X84912879Y67258801D01*
X84920093Y67266016D01*
X84926481Y67274807D01*
X85045193Y67393519D01*
X85053984Y67399907D01*
X85061199Y67407121D01*
X85095004Y67429710D01*
X85181010Y67492196D01*
X85212646Y67508316D01*
X85235605Y67523656D01*
X85273821Y67539486D01*
X85330583Y67568407D01*
X85391173Y67588095D01*
X85429395Y67603926D01*
X85456478Y67609314D01*
X85490252Y67620287D01*
X85595238Y67636915D01*
X85635122Y67644848D01*
X85649919Y67645575D01*
X85657036Y67646702D01*
X85736119Y67649810D01*
X85740000Y67650000D01*
X87260000Y67650000D01*
X87263880Y67649810D01*
G37*
G36*
X46287138Y75196015D02*
G01*
X46470701Y75136372D01*
X46642673Y75048747D01*
X46798821Y74935299D01*
X46935299Y74798821D01*
X47048747Y74642673D01*
X47136372Y74470701D01*
X47196015Y74287138D01*
X47226208Y74096505D01*
X47226208Y73903495D01*
X47196015Y73712862D01*
X47136372Y73529299D01*
X47048747Y73357327D01*
X46935299Y73201179D01*
X46798821Y73064701D01*
X46642673Y72951253D01*
X46470701Y72863628D01*
X46287138Y72803985D01*
X46096505Y72773792D01*
X45903495Y72773792D01*
X45712862Y72803985D01*
X45529299Y72863628D01*
X45357327Y72951253D01*
X45201179Y73064701D01*
X45064701Y73201179D01*
X44951253Y73357327D01*
X44863628Y73529299D01*
X44803985Y73712862D01*
X44773792Y73903495D01*
X44773792Y74096505D01*
X44803985Y74287138D01*
X44863628Y74470701D01*
X44951253Y74642673D01*
X45064701Y74798821D01*
X45201179Y74935299D01*
X45357327Y75048747D01*
X45529299Y75136372D01*
X45712862Y75196015D01*
X45903495Y75226208D01*
X46096505Y75226208D01*
X46287138Y75196015D01*
G37*
G36*
X61527138Y75196015D02*
G01*
X61710701Y75136372D01*
X61882673Y75048747D01*
X62038821Y74935299D01*
X62175299Y74798821D01*
X62288747Y74642673D01*
X62376372Y74470701D01*
X62436015Y74287138D01*
X62466208Y74096505D01*
X62466208Y73903495D01*
X62436015Y73712862D01*
X62376372Y73529299D01*
X62288747Y73357327D01*
X62175299Y73201179D01*
X62038821Y73064701D01*
X61882673Y72951253D01*
X61710701Y72863628D01*
X61527138Y72803985D01*
X61336505Y72773792D01*
X61143495Y72773792D01*
X60952862Y72803985D01*
X60769299Y72863628D01*
X60597327Y72951253D01*
X60441179Y73064701D01*
X60304701Y73201179D01*
X60191253Y73357327D01*
X60103628Y73529299D01*
X60043985Y73712862D01*
X60013792Y73903495D01*
X60013792Y74096505D01*
X60043985Y74287138D01*
X60103628Y74470701D01*
X60191253Y74642673D01*
X60304701Y74798821D01*
X60441179Y74935299D01*
X60597327Y75048747D01*
X60769299Y75136372D01*
X60952862Y75196015D01*
X61143495Y75226208D01*
X61336505Y75226208D01*
X61527138Y75196015D01*
G37*
G36*
X5117449Y76624975D02*
G01*
X5127888Y76624975D01*
X5179304Y76616832D01*
X5317976Y76598575D01*
X5351807Y76589510D01*
X5380516Y76584963D01*
X5435724Y76567025D01*
X5523909Y76543396D01*
X5580171Y76520092D01*
X5623774Y76505924D01*
X5664624Y76485110D01*
X5720884Y76461806D01*
X5799946Y76416160D01*
X5851673Y76389803D01*
X5875188Y76372718D01*
X5905520Y76355206D01*
X6016469Y76270072D01*
X6058600Y76239462D01*
X6065984Y76232078D01*
X6074658Y76225422D01*
X6225421Y76074659D01*
X6232076Y76065986D01*
X6239462Y76058600D01*
X6270075Y76016464D01*
X6355205Y75905521D01*
X6372715Y75875192D01*
X6389803Y75851673D01*
X6416162Y75799940D01*
X6461805Y75720885D01*
X6485106Y75664631D01*
X6505924Y75623774D01*
X6520093Y75580165D01*
X6543395Y75523910D01*
X6567020Y75435738D01*
X6584963Y75380516D01*
X6589510Y75351802D01*
X6598574Y75317977D01*
X6616829Y75179316D01*
X6624975Y75127888D01*
X6624975Y75117449D01*
X6626403Y75106602D01*
X6626403Y74893399D01*
X6624975Y74882553D01*
X6624975Y74872112D01*
X6616828Y74820680D01*
X6598574Y74682024D01*
X6589511Y74648202D01*
X6584963Y74619484D01*
X6567018Y74564258D01*
X6543395Y74476091D01*
X6520094Y74419840D01*
X6505924Y74376226D01*
X6485104Y74335366D01*
X6461805Y74279116D01*
X6416166Y74200069D01*
X6389803Y74148327D01*
X6372712Y74124805D01*
X6355205Y74094480D01*
X6270089Y73983555D01*
X6239462Y73941400D01*
X6232072Y73934011D01*
X6225421Y73925342D01*
X6074658Y73774579D01*
X6065989Y73767928D01*
X6058600Y73760538D01*
X6016445Y73729911D01*
X5905520Y73644795D01*
X5875195Y73627288D01*
X5851673Y73610197D01*
X5799931Y73583834D01*
X5720884Y73538195D01*
X5664634Y73514896D01*
X5623774Y73494076D01*
X5580160Y73479906D01*
X5523909Y73456605D01*
X5435742Y73432982D01*
X5380516Y73415037D01*
X5351798Y73410489D01*
X5317976Y73401426D01*
X5179317Y73383171D01*
X5127888Y73375025D01*
X5117448Y73375025D01*
X5106602Y73373597D01*
X4893398Y73373597D01*
X4882552Y73375025D01*
X4872112Y73375025D01*
X4820684Y73383171D01*
X4682023Y73401426D01*
X4648198Y73410490D01*
X4619484Y73415037D01*
X4564262Y73432980D01*
X4476090Y73456605D01*
X4419835Y73479907D01*
X4376226Y73494076D01*
X4335369Y73514894D01*
X4279115Y73538195D01*
X4200060Y73583838D01*
X4148327Y73610197D01*
X4124808Y73627285D01*
X4094479Y73644795D01*
X3983536Y73729925D01*
X3941400Y73760538D01*
X3934014Y73767924D01*
X3925341Y73774579D01*
X3774578Y73925342D01*
X3767922Y73934016D01*
X3760538Y73941400D01*
X3729928Y73983531D01*
X3644794Y74094480D01*
X3627282Y74124812D01*
X3610197Y74148327D01*
X3583840Y74200054D01*
X3538194Y74279116D01*
X3514890Y74335376D01*
X3494076Y74376226D01*
X3479908Y74419829D01*
X3456604Y74476091D01*
X3432975Y74564276D01*
X3415037Y74619484D01*
X3410490Y74648193D01*
X3401425Y74682024D01*
X3383168Y74820693D01*
X3375025Y74872112D01*
X3375025Y74882553D01*
X3373597Y74893399D01*
X3373597Y75106602D01*
X3375025Y75117449D01*
X3375025Y75127888D01*
X3383168Y75179303D01*
X3401425Y75317977D01*
X3410490Y75351811D01*
X3415037Y75380516D01*
X3432973Y75435721D01*
X3456604Y75523910D01*
X3479910Y75580176D01*
X3494076Y75623774D01*
X3514888Y75664620D01*
X3538194Y75720885D01*
X3583845Y75799955D01*
X3610197Y75851673D01*
X3627279Y75875186D01*
X3644794Y75905521D01*
X3729942Y76016489D01*
X3760538Y76058600D01*
X3767919Y76065982D01*
X3774578Y76074659D01*
X3925341Y76225422D01*
X3934018Y76232081D01*
X3941400Y76239462D01*
X3983511Y76270058D01*
X4094479Y76355206D01*
X4124814Y76372721D01*
X4148327Y76389803D01*
X4200045Y76416155D01*
X4279115Y76461806D01*
X4335380Y76485112D01*
X4376226Y76505924D01*
X4419824Y76520090D01*
X4476090Y76543396D01*
X4564279Y76567027D01*
X4619484Y76584963D01*
X4648189Y76589510D01*
X4682023Y76598575D01*
X4820697Y76616832D01*
X4872112Y76624975D01*
X4882551Y76624975D01*
X4893398Y76626403D01*
X5106602Y76626403D01*
X5117449Y76624975D01*
G37*
G36*
X95117449Y76624975D02*
G01*
X95127888Y76624975D01*
X95179304Y76616832D01*
X95317976Y76598575D01*
X95351807Y76589510D01*
X95380516Y76584963D01*
X95435724Y76567025D01*
X95523909Y76543396D01*
X95580171Y76520092D01*
X95623774Y76505924D01*
X95664624Y76485110D01*
X95720884Y76461806D01*
X95799946Y76416160D01*
X95851673Y76389803D01*
X95875188Y76372718D01*
X95905520Y76355206D01*
X96016469Y76270072D01*
X96058600Y76239462D01*
X96065984Y76232078D01*
X96074658Y76225422D01*
X96225421Y76074659D01*
X96232076Y76065986D01*
X96239462Y76058600D01*
X96270075Y76016464D01*
X96355205Y75905521D01*
X96372715Y75875192D01*
X96389803Y75851673D01*
X96416162Y75799940D01*
X96461805Y75720885D01*
X96485106Y75664631D01*
X96505924Y75623774D01*
X96520093Y75580165D01*
X96543395Y75523910D01*
X96567020Y75435738D01*
X96584963Y75380516D01*
X96589510Y75351802D01*
X96598574Y75317977D01*
X96616829Y75179316D01*
X96624975Y75127888D01*
X96624975Y75117449D01*
X96626403Y75106602D01*
X96626403Y74893399D01*
X96624975Y74882553D01*
X96624975Y74872112D01*
X96616828Y74820680D01*
X96598574Y74682024D01*
X96589511Y74648202D01*
X96584963Y74619484D01*
X96567018Y74564258D01*
X96543395Y74476091D01*
X96520094Y74419840D01*
X96505924Y74376226D01*
X96485104Y74335366D01*
X96461805Y74279116D01*
X96416166Y74200069D01*
X96389803Y74148327D01*
X96372712Y74124805D01*
X96355205Y74094480D01*
X96270089Y73983555D01*
X96239462Y73941400D01*
X96232072Y73934011D01*
X96225421Y73925342D01*
X96074658Y73774579D01*
X96065989Y73767928D01*
X96058600Y73760538D01*
X96016445Y73729911D01*
X95905520Y73644795D01*
X95875195Y73627288D01*
X95851673Y73610197D01*
X95799931Y73583834D01*
X95720884Y73538195D01*
X95664634Y73514896D01*
X95623774Y73494076D01*
X95580160Y73479906D01*
X95523909Y73456605D01*
X95435742Y73432982D01*
X95380516Y73415037D01*
X95351798Y73410489D01*
X95317976Y73401426D01*
X95179317Y73383171D01*
X95127888Y73375025D01*
X95117448Y73375025D01*
X95106602Y73373597D01*
X94893398Y73373597D01*
X94882552Y73375025D01*
X94872112Y73375025D01*
X94820684Y73383171D01*
X94682023Y73401426D01*
X94648198Y73410490D01*
X94619484Y73415037D01*
X94564262Y73432980D01*
X94476090Y73456605D01*
X94419835Y73479907D01*
X94376226Y73494076D01*
X94335369Y73514894D01*
X94279115Y73538195D01*
X94200060Y73583838D01*
X94148327Y73610197D01*
X94124808Y73627285D01*
X94094479Y73644795D01*
X93983536Y73729925D01*
X93941400Y73760538D01*
X93934014Y73767924D01*
X93925341Y73774579D01*
X93774578Y73925342D01*
X93767922Y73934016D01*
X93760538Y73941400D01*
X93729928Y73983531D01*
X93644794Y74094480D01*
X93627282Y74124812D01*
X93610197Y74148327D01*
X93583840Y74200054D01*
X93538194Y74279116D01*
X93514890Y74335376D01*
X93494076Y74376226D01*
X93479908Y74419829D01*
X93456604Y74476091D01*
X93432975Y74564276D01*
X93415037Y74619484D01*
X93410490Y74648193D01*
X93401425Y74682024D01*
X93383168Y74820693D01*
X93375025Y74872112D01*
X93375025Y74882553D01*
X93373597Y74893399D01*
X93373597Y75106602D01*
X93375025Y75117449D01*
X93375025Y75127888D01*
X93383168Y75179303D01*
X93401425Y75317977D01*
X93410490Y75351811D01*
X93415037Y75380516D01*
X93432973Y75435721D01*
X93456604Y75523910D01*
X93479910Y75580176D01*
X93494076Y75623774D01*
X93514888Y75664620D01*
X93538194Y75720885D01*
X93583845Y75799955D01*
X93610197Y75851673D01*
X93627279Y75875186D01*
X93644794Y75905521D01*
X93729942Y76016489D01*
X93760538Y76058600D01*
X93767919Y76065982D01*
X93774578Y76074659D01*
X93925341Y76225422D01*
X93934018Y76232081D01*
X93941400Y76239462D01*
X93983511Y76270058D01*
X94094479Y76355206D01*
X94124814Y76372721D01*
X94148327Y76389803D01*
X94200045Y76416155D01*
X94279115Y76461806D01*
X94335380Y76485112D01*
X94376226Y76505924D01*
X94419824Y76520090D01*
X94476090Y76543396D01*
X94564279Y76567027D01*
X94619484Y76584963D01*
X94648189Y76589510D01*
X94682023Y76598575D01*
X94820697Y76616832D01*
X94872112Y76624975D01*
X94882551Y76624975D01*
X94893398Y76626403D01*
X95106602Y76626403D01*
X95117449Y76624975D01*
G37*
M02*
