%TF.GenerationSoftware,KiCad,Pcbnew,10.0.6*%
%TF.CreationDate,2026-09-28T01:15:11-04:00*%
%TF.ProjectId,ai_robot_interface,61695f72-6f62-46f7-945f-696e74657266,A-DRAFT*%
%TF.SameCoordinates,Original*%
%TF.FileFunction,Copper,L2,Bot*%
%TF.FilePolarity,Positive*%
%FSLAX46Y46*%
G04 Gerber Fmt 4.6, Leading zero omitted, Abs format (unit mm)*
G04 Created by KiCad (PCBNEW 10.0.6) date 2026-09-28 01:15:11*
%MOMM*%
%LPD*%
G01*
G04 APERTURE LIST*
G04 Aperture macros list*
%AMRoundRect*
0 Rectangle with rounded corners*
0 $1 Rounding radius*
0 $2 $3 $4 $5 $6 $7 $8 $9 X,Y pos of 4 corners*
0 Add a 4 corners polygon primitive as box body*
4,1,4,$2,$3,$4,$5,$6,$7,$8,$9,$2,$3,0*
0 Add four circle primitives for the rounded corners*
1,1,$1+$1,$2,$3*
1,1,$1+$1,$4,$5*
1,1,$1+$1,$6,$7*
1,1,$1+$1,$8,$9*
0 Add four rect primitives between the rounded corners*
20,1,$1+$1,$2,$3,$4,$5,0*
20,1,$1+$1,$4,$5,$6,$7,0*
20,1,$1+$1,$6,$7,$8,$9,0*
20,1,$1+$1,$8,$9,$2,$3,0*%
G04 Aperture macros list end*
%TA.AperFunction,ComponentPad*%
%ADD10RoundRect,0.249999X1.550001X-0.790001X1.550001X0.790001X-1.550001X0.790001X-1.550001X-0.790001X0*%
%TD*%
%TA.AperFunction,ComponentPad*%
%ADD11O,3.600000X2.080000*%
%TD*%
%TA.AperFunction,ComponentPad*%
%ADD12RoundRect,0.250000X-0.550000X-0.550000X0.550000X-0.550000X0.550000X0.550000X-0.550000X0.550000X0*%
%TD*%
%TA.AperFunction,ComponentPad*%
%ADD13C,1.600000*%
%TD*%
%TA.AperFunction,ComponentPad*%
%ADD14RoundRect,0.264706X-0.635294X-0.635294X0.635294X-0.635294X0.635294X0.635294X-0.635294X0.635294X0*%
%TD*%
%TA.AperFunction,ComponentPad*%
%ADD15C,1.800000*%
%TD*%
%TA.AperFunction,ComponentPad*%
%ADD16C,2.400000*%
%TD*%
%TA.AperFunction,ComponentPad*%
%ADD17RoundRect,0.250000X-0.750000X-0.750000X0.750000X-0.750000X0.750000X0.750000X-0.750000X0.750000X0*%
%TD*%
%TA.AperFunction,ComponentPad*%
%ADD18C,2.000000*%
%TD*%
%TA.AperFunction,ComponentPad*%
%ADD19RoundRect,0.249999X-0.790001X-1.550001X0.790001X-1.550001X0.790001X1.550001X-0.790001X1.550001X0*%
%TD*%
%TA.AperFunction,ComponentPad*%
%ADD20O,2.080000X3.600000*%
%TD*%
%TA.AperFunction,ViaPad*%
%ADD21C,0.800000*%
%TD*%
%TA.AperFunction,Conductor*%
%ADD22C,1.000000*%
%TD*%
%TA.AperFunction,Conductor*%
%ADD23C,0.250000*%
%TD*%
%TA.AperFunction,Conductor*%
%ADD24C,0.400000*%
%TD*%
%TA.AperFunction,Conductor*%
%ADD25C,0.600000*%
%TD*%
G04 APERTURE END LIST*
D10*
%TO.P,J2,1*%
%TO.N,FL_OUT1*%
X86500000Y46000000D03*
D11*
%TO.P,J2,2*%
%TO.N,FL_OUT2*%
X86500000Y51080000D03*
%TD*%
D12*
%TO.P,C7,1*%
%TO.N,VM*%
X63000000Y29000000D03*
D13*
%TO.P,C7,2*%
%TO.N,GND*%
X65000000Y29000000D03*
%TD*%
D12*
%TO.P,C3,1*%
%TO.N,VM*%
X63000000Y62000000D03*
D13*
%TO.P,C3,2*%
%TO.N,GND*%
X65000000Y62000000D03*
%TD*%
D10*
%TO.P,J4,1*%
%TO.N,BL_OUT1*%
X86500000Y15500000D03*
D11*
%TO.P,J4,2*%
%TO.N,BL_OUT2*%
X86500000Y20580000D03*
%TD*%
D14*
%TO.P,J6,1*%
%TO.N,PI_3V3*%
X10000000Y65000000D03*
D15*
%TO.P,J6,2*%
%TO.N,GND*%
X12540000Y65000000D03*
%TO.P,J6,3*%
%TO.N,GPIO18*%
X10000000Y62460000D03*
%TO.P,J6,4*%
%TO.N,GND*%
X12540000Y62460000D03*
%TO.P,J6,5*%
%TO.N,GPIO23*%
X10000000Y59920000D03*
%TO.P,J6,6*%
%TO.N,GPIO24*%
X12540000Y59920000D03*
%TO.P,J6,7*%
%TO.N,GPIO13*%
X10000000Y57380000D03*
%TO.P,J6,8*%
%TO.N,GND*%
X12540000Y57380000D03*
%TO.P,J6,9*%
%TO.N,GPIO5*%
X10000000Y54840000D03*
%TO.P,J6,10*%
%TO.N,GPIO6*%
X12540000Y54840000D03*
%TO.P,J6,11*%
%TO.N,GPIO25*%
X10000000Y52300000D03*
%TO.P,J6,12*%
%TO.N,GPIO17*%
X12540000Y52300000D03*
%TO.P,J6,13*%
%TO.N,GPIO27*%
X10000000Y49760000D03*
%TO.P,J6,14*%
%TO.N,GND*%
X12540000Y49760000D03*
%TO.P,J6,15*%
X10000000Y47220000D03*
%TO.P,J6,16*%
X12540000Y47220000D03*
%TD*%
D12*
%TO.P,C9,1*%
%TO.N,PI_3V3*%
X63000000Y21000000D03*
D13*
%TO.P,C9,2*%
%TO.N,GND*%
X65000000Y21000000D03*
%TD*%
D12*
%TO.P,C5,1*%
%TO.N,PI_3V3*%
X63000000Y52000000D03*
D13*
%TO.P,C5,2*%
%TO.N,GND*%
X65000000Y52000000D03*
%TD*%
D16*
%TO.P,R5,1*%
%TO.N,VM*%
X46000000Y74000000D03*
%TO.P,R5,2*%
%TO.N,GND*%
X61240000Y74000000D03*
%TD*%
D17*
%TO.P,C1,1*%
%TO.N,VM*%
X53000000Y6000000D03*
D18*
%TO.P,C1,2*%
%TO.N,GND*%
X58000000Y6000000D03*
%TD*%
D10*
%TO.P,J5,1*%
%TO.N,BR_OUT1*%
X86500000Y31000000D03*
D11*
%TO.P,J5,2*%
%TO.N,BR_OUT2*%
X86500000Y36080000D03*
%TD*%
D19*
%TO.P,J1,1*%
%TO.N,MOTOR_IN*%
X13000000Y13000000D03*
D20*
%TO.P,J1,2*%
%TO.N,GND*%
X18080000Y13000000D03*
%TD*%
D10*
%TO.P,J3,1*%
%TO.N,FR_OUT1*%
X86500000Y61500000D03*
D11*
%TO.P,J3,2*%
%TO.N,FR_OUT2*%
X86500000Y66580000D03*
%TD*%
D17*
%TO.P,C2,1*%
%TO.N,VM*%
X66000000Y6000000D03*
D18*
%TO.P,C2,2*%
%TO.N,GND*%
X71000000Y6000000D03*
%TD*%
D21*
%TO.N,REV_PROTECTED*%
X36447300Y5629000D03*
X45612400Y8088000D03*
X41106600Y7006000D03*
%TO.N,BIN2_RAW*%
X20296900Y46823400D03*
X29512000Y57175600D03*
%TO.N,GND*%
X81204000Y19644000D03*
X14441200Y25429000D03*
X81204000Y6598000D03*
X23606800Y52136500D03*
X20897300Y32362400D03*
X21192200Y59632800D03*
X60399000Y15794000D03*
X23096100Y66734300D03*
%TO.N,WD_RAW*%
X33739300Y24046000D03*
X35165300Y34834700D03*
X30367300Y34675900D03*
%TO.N,WD_OK*%
X51640000Y41909900D03*
X41707700Y20175000D03*
%TO.N,PI_3V3*%
X35825200Y44349900D03*
X17242600Y20210000D03*
X64645000Y34109500D03*
X40628100Y22676000D03*
X25485900Y33595300D03*
X45000000Y31250000D03*
X60946000Y23765000D03*
X28673400Y37000000D03*
X35825200Y54000200D03*
X67544000Y19587000D03*
X32835800Y40384700D03*
%TO.N,PHYS_OK*%
X48295700Y42996700D03*
X38179300Y23855000D03*
%TO.N,STBY*%
X74632000Y21523000D03*
X63379000Y41205300D03*
X74440000Y41629900D03*
X63379000Y33135600D03*
%TO.N,VM*%
X71927800Y28825800D03*
X71927800Y51589300D03*
X63000000Y24724000D03*
%TO.N,ARM_PULSE*%
X42742300Y40134500D03*
X42742300Y32457700D03*
%TO.N,ARM_Q*%
X45522200Y29903000D03*
X57221000Y40700000D03*
X45019500Y37009000D03*
%TO.N,FL_OUT1*%
X80346000Y51578800D03*
%TO.N,LOGIC_GOOD*%
X27983300Y22000000D03*
X48782000Y43950000D03*
X34400600Y15313000D03*
%TO.N,HB*%
X51234000Y21177000D03*
X25800900Y27801000D03*
X30317200Y33495200D03*
X47922200Y19399000D03*
X35917500Y19399000D03*
%TO.N,GPIO6*%
X17190700Y45984300D03*
%TO.N,VM_OK_RAW*%
X51835000Y17857000D03*
X48982600Y24830000D03*
X48040800Y16872000D03*
%TO.N,VM_UV_SENSE*%
X59325000Y15088000D03*
X56890000Y18274000D03*
%TO.N,VM_OV_SENSE*%
X64317000Y11088000D03*
X56432000Y14980000D03*
X64317000Y16911000D03*
%TO.N,BIN2*%
X60670000Y20802000D03*
X33810700Y56726000D03*
X34854700Y47830800D03*
X69678000Y23625000D03*
X73921000Y57942100D03*
%TO.N,AIN1*%
X32421900Y55999300D03*
X70435000Y53875900D03*
X26478100Y56000000D03*
X70435000Y20192000D03*
X67663000Y56063000D03*
%TO.N,PWM_B*%
X67405000Y55038900D03*
X68937000Y57658100D03*
X72922000Y26923000D03*
%TO.N,RUN_RAW*%
X32613800Y43819700D03*
X18181600Y38000000D03*
%TO.N,PWM_B_RAW*%
X32643400Y54789800D03*
X20296900Y54825000D03*
%TO.N,BIN1*%
X71095000Y57547300D03*
X75677000Y23172000D03*
X37316000Y50825000D03*
%TO.N,PWM_A*%
X37111600Y65175000D03*
X60351000Y44423600D03*
X26485500Y57176700D03*
X73903000Y18451000D03*
%TO.N,WD_SELECT*%
X22594900Y32446700D03*
X22594900Y38830500D03*
%TO.N,GPIO17*%
X13650600Y34823000D03*
%TO.N,VM_OK*%
X54233000Y43044000D03*
X43974800Y22975000D03*
X51266000Y24821000D03*
%TO.N,GPIO5*%
X15192800Y52947200D03*
X16588600Y49876800D03*
%TO.N,GPIO25*%
X14409600Y38901300D03*
%TO.N,GPIO27*%
X11274500Y30956400D03*
%TO.N,AIN2*%
X69905000Y57053200D03*
X27401400Y56509200D03*
X73902000Y53725000D03*
X35702600Y59748500D03*
X40934400Y56737300D03*
X73902000Y19725000D03*
%TO.N,BR_OUT2*%
X81007000Y22899000D03*
%TO.N,FR_OUT2*%
X80931000Y56899400D03*
%TO.N,HB_RAW*%
X21931100Y27378000D03*
X48675200Y21180000D03*
%TD*%
%TO.N,REV_PROTECTED*%
D22*
X41106600Y7006000D02*
X39729400Y5629000D01*
X39729400Y5629000D02*
X36447300Y5629000D01*
X44530800Y7006000D02*
X41106600Y7006000D01*
X45612400Y8088000D02*
X44530800Y7006000D01*
%TO.N,BIN2_RAW*%
D23*
X29512000Y56038500D02*
X29512000Y57175600D01*
X20296900Y46823400D02*
X29512000Y56038500D01*
%TO.N,GND*%
D24*
X65000000Y70240000D02*
X65000000Y62000000D01*
X13892100Y58732100D02*
X13892100Y61107900D01*
X68601000Y8399000D02*
X71000000Y6000000D01*
X18080000Y13000000D02*
X16638300Y13000000D01*
X23606800Y57218200D02*
X21192200Y59632800D01*
X12540000Y47220000D02*
X12540000Y49760000D01*
X12540000Y62460000D02*
X12540000Y65000000D01*
X14441200Y25429000D02*
X20897300Y31885000D01*
X65000000Y62000000D02*
X65000000Y52000000D01*
X61240000Y74000000D02*
X65000000Y70240000D01*
X81204000Y19644000D02*
X81204000Y6598000D01*
X13892100Y61107900D02*
X12540000Y62460000D01*
X12540000Y57380000D02*
X13892100Y58732100D01*
X58000000Y6000000D02*
X60399000Y8399000D01*
X60399000Y8399000D02*
X68601000Y8399000D01*
X14441200Y15197000D02*
X14441200Y25429000D01*
X65000000Y21000000D02*
X65000000Y29000000D01*
X20897300Y31885000D02*
X20897300Y32362400D01*
X23096100Y61536700D02*
X21192200Y59632800D01*
X23096100Y66734300D02*
X23096100Y61536700D01*
X16638300Y13000000D02*
X14441200Y15197000D01*
X60399000Y8399000D02*
X60399000Y15794000D01*
X23606800Y52136500D02*
X23606800Y57218200D01*
%TO.N,WD_RAW*%
D23*
X33739300Y34675900D02*
X33739300Y24046000D01*
X33739300Y34675900D02*
X30367300Y34675900D01*
X33898100Y34834700D02*
X33739300Y34675900D01*
X35165300Y34834700D02*
X33898100Y34834700D01*
%TO.N,WD_OK*%
X50464000Y40733500D02*
X50464000Y28374000D01*
X51640000Y41909900D02*
X50464000Y40733500D01*
X50464000Y28374000D02*
X42264400Y20175000D01*
X42264400Y20175000D02*
X41707700Y20175000D01*
%TO.N,PI_3V3*%
D24*
X30717900Y36233500D02*
X29439900Y36233500D01*
X64645000Y34109500D02*
X64645000Y50354600D01*
X32835800Y38351400D02*
X30717900Y36233500D01*
X25485900Y33595300D02*
X25485900Y37112500D01*
X44106700Y30356700D02*
X45000000Y31250000D01*
X22966100Y39632300D02*
X21355600Y39632300D01*
X66394000Y19587000D02*
X66217000Y19764000D01*
X26143800Y32937400D02*
X25485900Y33595300D01*
X66217000Y19764000D02*
X66217000Y32538000D01*
X10882800Y30131200D02*
X8203800Y32810200D01*
X67544000Y19587000D02*
X66394000Y19587000D01*
X40830500Y30356700D02*
X32835800Y38351400D01*
X60946000Y23054000D02*
X60946000Y23765000D01*
X64236000Y19764000D02*
X63000000Y21000000D01*
X29439900Y36233500D02*
X28673400Y37000000D01*
X21355600Y39632300D02*
X11854500Y30131200D01*
X29439900Y36233500D02*
X26143800Y32937400D01*
X17242600Y20210000D02*
X17242600Y24036000D01*
X11854500Y30131200D02*
X10882800Y30131200D01*
X32835800Y40384700D02*
X32835800Y38351400D01*
X40830500Y30356700D02*
X44106700Y30356700D01*
X40830500Y22878000D02*
X40628100Y22676000D01*
X25485900Y37112500D02*
X22966100Y39632300D01*
X8203800Y63203800D02*
X10000000Y65000000D01*
X66217000Y19764000D02*
X64236000Y19764000D01*
X63000000Y21000000D02*
X60946000Y23054000D01*
X35825200Y44349900D02*
X35825200Y54000200D01*
X8203800Y32810200D02*
X8203800Y63203800D01*
X17242600Y24036000D02*
X26143800Y32937400D01*
X64645000Y50354600D02*
X63000000Y52000000D01*
X40830500Y30356700D02*
X40830500Y22878000D01*
X35825200Y43374100D02*
X35825200Y44349900D01*
X32835800Y40384700D02*
X35825200Y43374100D01*
X66217000Y32538000D02*
X64645000Y34109500D01*
%TO.N,PHYS_OK*%
D23*
X47844000Y28851000D02*
X40906300Y21913000D01*
X48295700Y42996700D02*
X47844000Y42545000D01*
X40906300Y21913000D02*
X40120900Y21913000D01*
X40120900Y21913000D02*
X38179300Y23855000D01*
X47844000Y42545000D02*
X47844000Y28851000D01*
%TO.N,STBY*%
X74632000Y21523000D02*
X74440000Y21716000D01*
X63379000Y33135600D02*
X63379000Y41205300D01*
X74440000Y21716000D02*
X74440000Y41629900D01*
%TO.N,VM*%
D24*
X71927800Y28825800D02*
X71927800Y51589300D01*
D22*
X61474000Y60474000D02*
X63000000Y62000000D01*
X61474000Y30526000D02*
X61474000Y60474000D01*
X63000000Y29000000D02*
X61474000Y30526000D01*
X63000000Y29000000D02*
X63000000Y24724000D01*
%TO.N,ARM_PULSE*%
D23*
X42742300Y32457700D02*
X42742300Y40134500D01*
%TO.N,ARM_Q*%
X45019500Y41231700D02*
X48491500Y44703700D01*
X45019500Y37009000D02*
X45019500Y41231700D01*
X45758400Y30139000D02*
X45758400Y36270100D01*
X45522200Y29903000D02*
X45758400Y30139000D01*
X53618000Y44703700D02*
X57221000Y41101300D01*
X48491500Y44703700D02*
X53618000Y44703700D01*
X45758400Y36270100D02*
X45019500Y37009000D01*
X57221000Y41101300D02*
X57221000Y40700000D01*
%TO.N,FL_OUT1*%
D25*
X80346000Y51578800D02*
X85925000Y46000000D01*
X85925000Y46000000D02*
X86500000Y46000000D01*
%TO.N,LOGIC_GOOD*%
D23*
X34400600Y15313000D02*
X34400600Y15583000D01*
X48295700Y28664000D02*
X35214800Y15583000D01*
X48782000Y43950000D02*
X49052600Y43679400D01*
X34400600Y15583000D02*
X27983300Y22000000D01*
X49052600Y43679400D02*
X49052600Y41093100D01*
X48295700Y40336200D02*
X48295700Y28664000D01*
X49052600Y41093100D02*
X48295700Y40336200D01*
X35214800Y15583000D02*
X34400600Y15583000D01*
%TO.N,HB*%
X49456300Y19399000D02*
X51234000Y21177000D01*
X32310200Y31502200D02*
X32310200Y23007000D01*
X30317200Y33495200D02*
X32310200Y31502200D01*
X32310200Y23007000D02*
X35917500Y19399000D01*
X30317200Y33495200D02*
X25800900Y28979000D01*
X25800900Y28979000D02*
X25800900Y27801000D01*
X47922200Y19399000D02*
X49456300Y19399000D01*
%TO.N,GPIO6*%
X14996800Y52115600D02*
X14996800Y48178200D01*
X14466100Y52913900D02*
X14466100Y52646300D01*
X14996800Y48178200D02*
X17190700Y45984300D01*
X12540000Y54840000D02*
X14466100Y52913900D01*
X14466100Y52646300D02*
X14996800Y52115600D01*
%TO.N,VM_OK_RAW*%
X52019000Y21794000D02*
X52019000Y18041000D01*
X52019000Y18041000D02*
X51835000Y17857000D01*
X48982600Y24830000D02*
X52019000Y21794000D01*
X50849000Y16872000D02*
X51835000Y17857000D01*
X48040800Y16872000D02*
X50849000Y16872000D01*
%TO.N,VM_UV_SENSE*%
X56890000Y18274000D02*
X56890000Y17523000D01*
X56890000Y17523000D02*
X59325000Y15088000D01*
%TO.N,VM_OV_SENSE*%
X56144000Y18575000D02*
X56570000Y19000000D01*
X56144000Y15268000D02*
X56144000Y18575000D01*
X63678000Y16911000D02*
X64317000Y16911000D01*
X56570000Y19000000D02*
X61589000Y19000000D01*
X61589000Y19000000D02*
X63678000Y16911000D01*
X64317000Y11088000D02*
X64317000Y16911000D01*
X56432000Y14980000D02*
X56144000Y15268000D01*
%TO.N,BIN2*%
X73921000Y57942100D02*
X73478000Y58384800D01*
X66927000Y54488900D02*
X66927000Y26375000D01*
X59027000Y40630400D02*
X44876500Y54781000D01*
X66476000Y56623100D02*
X66476000Y54940600D01*
X34854700Y54781000D02*
X34854700Y47830800D01*
X34854700Y54781000D02*
X34854700Y55682000D01*
X66476000Y54940600D02*
X66927000Y54488900D01*
X34854700Y55682000D02*
X33810700Y56726000D01*
X73478000Y58384800D02*
X68237000Y58384800D01*
X59027000Y22445000D02*
X59027000Y40630400D01*
X68237000Y58384800D02*
X66476000Y56623100D01*
X44876500Y54781000D02*
X34854700Y54781000D01*
X60670000Y20802000D02*
X59027000Y22445000D01*
X66927000Y26375000D02*
X69678000Y23625000D01*
%TO.N,AIN1*%
X27739900Y55747000D02*
X28136500Y56143600D01*
X69850000Y53875900D02*
X67663000Y56063000D01*
X29744300Y59061100D02*
X32421900Y56383500D01*
X70435000Y53875900D02*
X69850000Y53875900D01*
X26478100Y56000000D02*
X26731100Y55747000D01*
X28136500Y57068200D02*
X27954500Y57250200D01*
X27954500Y57250200D02*
X27954500Y57353600D01*
X28136500Y56143600D02*
X28136500Y57068200D01*
X29662000Y59061100D02*
X29744300Y59061100D01*
X27954500Y57353600D02*
X29662000Y59061100D01*
X26731100Y55747000D02*
X27739900Y55747000D01*
X32421900Y56383500D02*
X32421900Y55999300D01*
X70435000Y20192000D02*
X70435000Y53875900D01*
%TO.N,PWM_B*%
X68937000Y57658100D02*
X68937000Y56966300D01*
X68937000Y56966300D02*
X67507000Y56966300D01*
X66927000Y56386300D02*
X66927000Y55516500D01*
X67507000Y56966300D02*
X66927000Y56386300D01*
X66927000Y55516500D02*
X67405000Y55038900D01*
X68937000Y56966300D02*
X72922000Y52981100D01*
X72922000Y52981100D02*
X72922000Y26923000D01*
%TO.N,RUN_RAW*%
X24001300Y43819700D02*
X32613800Y43819700D01*
X18181600Y38000000D02*
X24001300Y43819700D01*
%TO.N,PWM_B_RAW*%
X20296900Y54825000D02*
X20296900Y54337600D01*
X24045500Y51344400D02*
X28588200Y55887100D01*
X32603600Y54789900D02*
X32643400Y54789900D01*
X29189500Y57919800D02*
X29878400Y57919800D01*
X29878400Y57919800D02*
X31695100Y56103100D01*
X20296900Y54337600D02*
X23290100Y51344400D01*
X23290100Y51344400D02*
X24045500Y51344400D01*
X31695100Y55698400D02*
X32603600Y54789900D01*
X28588200Y55887100D02*
X28588200Y57318500D01*
X28588200Y57318500D02*
X29189500Y57919800D01*
X31695100Y56103100D02*
X31695100Y55698400D01*
X32643400Y54789900D02*
X32643400Y54789800D01*
%TO.N,BIN1*%
X74245000Y17698000D02*
X63700000Y17698000D01*
X48191400Y50825000D02*
X37316000Y50825000D01*
X75677000Y23172000D02*
X75920000Y23415000D01*
X60428000Y20010000D02*
X58262000Y22176000D01*
X63700000Y17698000D02*
X61389000Y20010000D01*
X75677000Y23172000D02*
X75677000Y19130000D01*
X75677000Y19130000D02*
X74245000Y17698000D01*
X58262000Y40754900D02*
X48191400Y50825000D01*
X71185000Y57547300D02*
X71095000Y57547300D01*
X75920000Y23415000D02*
X75920000Y52812000D01*
X75920000Y52812000D02*
X71185000Y57547300D01*
X61389000Y20010000D02*
X60428000Y20010000D01*
X58262000Y22176000D02*
X58262000Y40754900D01*
%TO.N,PWM_A*%
X60219000Y22531000D02*
X60219000Y44291900D01*
X73903000Y18451000D02*
X63619000Y18451000D01*
X61396000Y21353000D02*
X60219000Y22531000D01*
X60219000Y44291900D02*
X60351000Y44423600D01*
X26485500Y57176700D02*
X34483800Y65175000D01*
X63619000Y18451000D02*
X61396000Y20674000D01*
X61396000Y20674000D02*
X61396000Y21353000D01*
X37111600Y65175000D02*
X57863000Y44423600D01*
X34483800Y65175000D02*
X37111600Y65175000D01*
X57863000Y44423600D02*
X60351000Y44423600D01*
%TO.N,WD_SELECT*%
X22594900Y38830500D02*
X22594900Y32446700D01*
%TO.N,GPIO17*%
X13768200Y39466900D02*
X13650600Y39349300D01*
X13768200Y51071800D02*
X13768200Y39466900D01*
X12540000Y52300000D02*
X13768200Y51071800D01*
X13650600Y39349300D02*
X13650600Y34823000D01*
%TO.N,VM_OK*%
X40945800Y20494000D02*
X43426400Y22975000D01*
X42358600Y19432000D02*
X41393600Y19432000D01*
X48506200Y25580000D02*
X42358600Y19432000D01*
X51266000Y40077300D02*
X54233000Y43044000D01*
X51266000Y24821000D02*
X51266000Y25580000D01*
X51266000Y25580000D02*
X48506200Y25580000D01*
X41393600Y19432000D02*
X40945800Y19880000D01*
X40945800Y19880000D02*
X40945800Y20494000D01*
X51266000Y25580000D02*
X51266000Y40077300D01*
X43426400Y22975000D02*
X43974800Y22975000D01*
%TO.N,GPIO5*%
X15192800Y52947200D02*
X16588600Y51551400D01*
X16588600Y51551400D02*
X16588600Y49876800D01*
%TO.N,GPIO25*%
X14014400Y52459200D02*
X14409600Y52064000D01*
X14014400Y52593500D02*
X14014400Y52459200D01*
X11267900Y53567900D02*
X13040000Y53567900D01*
X13040000Y53567900D02*
X14014400Y52593500D01*
X14409600Y52064000D02*
X14409600Y38901300D01*
X10000000Y52300000D02*
X11267900Y53567900D01*
%TO.N,GPIO27*%
X10000000Y49760000D02*
X11274500Y48485500D01*
X11274500Y48485500D02*
X11274500Y30956400D01*
%TO.N,AIN2*%
X29710600Y59748500D02*
X27401400Y57439300D01*
X73902000Y19725000D02*
X73677000Y19951000D01*
X37923200Y59748500D02*
X35702600Y59748500D01*
X40934400Y56737300D02*
X37923200Y59748500D01*
X73677000Y53499100D02*
X73902000Y53725000D01*
X73234000Y53725000D02*
X69905000Y57053200D01*
X35702600Y59748500D02*
X29710600Y59748500D01*
X73902000Y53725000D02*
X73234000Y53725000D01*
X73677000Y19951000D02*
X73677000Y53499100D01*
X27401400Y57439300D02*
X27401400Y56509200D01*
%TO.N,BR_OUT2*%
D25*
X81007000Y22899000D02*
X81007000Y29046000D01*
X86500000Y36080000D02*
X86500000Y34538300D01*
X81007000Y29046000D02*
X86500000Y34538300D01*
%TO.N,FR_OUT2*%
X86500000Y66580000D02*
X86500000Y65038300D01*
X86500000Y65038300D02*
X80931000Y59469200D01*
X80931000Y59469200D02*
X80931000Y56899400D01*
%TO.N,HB_RAW*%
D23*
X48675200Y21180000D02*
X46302900Y18808000D01*
X34103000Y14570000D02*
X21931100Y26742000D01*
X41406900Y18808000D02*
X37169000Y14570000D01*
X46302900Y18808000D02*
X41406900Y18808000D01*
X21931100Y26742000D02*
X21931100Y27378000D01*
X37169000Y14570000D02*
X34103000Y14570000D01*
%TD*%
%TA.AperFunction,Conductor*%
%TO.N,GND*%
G36*
X62306194Y51023037D02*
G01*
X62365301Y51002354D01*
X62395725Y50999501D01*
X62395727Y50999500D01*
X62395734Y50999500D01*
X63392919Y50999500D01*
X63451110Y50980593D01*
X63462930Y50970496D01*
X64215512Y50217731D01*
X64243283Y50163212D01*
X64244500Y50147737D01*
X64244500Y34599244D01*
X64225593Y34541053D01*
X64215504Y34529241D01*
X64164482Y34478219D01*
X64164480Y34478217D01*
X64164480Y34478216D01*
X64085423Y34341284D01*
X64044500Y34188557D01*
X64044500Y34030443D01*
X64085423Y33877716D01*
X64164480Y33740784D01*
X64276284Y33628980D01*
X64413216Y33549923D01*
X64565943Y33509000D01*
X64638210Y33509000D01*
X64696401Y33490093D01*
X64708202Y33480015D01*
X65131807Y33056545D01*
X65509988Y32678484D01*
X65787492Y32401069D01*
X65815279Y32346557D01*
X65816500Y32331054D01*
X65816500Y20263500D01*
X65797593Y20205309D01*
X65748093Y20169345D01*
X65717500Y20164500D01*
X64442901Y20164500D01*
X64384710Y20183407D01*
X64372897Y20193496D01*
X64029496Y20536897D01*
X64001719Y20591414D01*
X64000500Y20606901D01*
X64000500Y21604273D01*
X64000499Y21604275D01*
X63999966Y21609958D01*
X63997646Y21634699D01*
X63952793Y21762882D01*
X63948856Y21768216D01*
X63872154Y21872145D01*
X63872152Y21872147D01*
X63872150Y21872150D01*
X63872146Y21872153D01*
X63872144Y21872155D01*
X63762883Y21952793D01*
X63634703Y21997645D01*
X63634694Y21997647D01*
X63604274Y22000500D01*
X63604266Y22000500D01*
X62606900Y22000500D01*
X62548709Y22019407D01*
X62536896Y22029496D01*
X61375496Y23190897D01*
X61347719Y23245414D01*
X61346500Y23260901D01*
X61346500Y23275257D01*
X61365407Y23333448D01*
X61375490Y23345255D01*
X61426520Y23396284D01*
X61505577Y23533216D01*
X61546500Y23685943D01*
X61546500Y23844057D01*
X61505577Y23996784D01*
X61426520Y24133716D01*
X61314716Y24245520D01*
X61177784Y24324577D01*
X61025057Y24365500D01*
X60866943Y24365500D01*
X60773571Y24340481D01*
X60714215Y24324577D01*
X60692998Y24312327D01*
X60633150Y24299608D01*
X60577254Y24324495D01*
X60546663Y24377484D01*
X60544500Y24398065D01*
X60544500Y43784763D01*
X60563407Y43842954D01*
X60593997Y43870498D01*
X60625003Y43888399D01*
X60684850Y43901117D01*
X60740745Y43876230D01*
X60771337Y43823241D01*
X60773500Y43802660D01*
X60773500Y30457004D01*
X60800420Y30321673D01*
X60800420Y30321671D01*
X60853223Y30194192D01*
X60906625Y30114269D01*
X60929886Y30079457D01*
X61970505Y29038838D01*
X61998281Y28984323D01*
X61999500Y28968836D01*
X61999500Y28395726D01*
X62002353Y28365306D01*
X62002355Y28365297D01*
X62047207Y28237117D01*
X62127845Y28127856D01*
X62127847Y28127854D01*
X62127850Y28127850D01*
X62127853Y28127848D01*
X62127855Y28127846D01*
X62237116Y28047208D01*
X62243674Y28043742D01*
X62242490Y28041502D01*
X62281871Y28011524D01*
X62299500Y27955135D01*
X62299500Y24655005D01*
X62326420Y24519673D01*
X62326420Y24519671D01*
X62379222Y24392194D01*
X62379228Y24392183D01*
X62455885Y24277459D01*
X62553458Y24179886D01*
X62668182Y24103229D01*
X62668193Y24103223D01*
X62679043Y24098729D01*
X62795672Y24050420D01*
X62931007Y24023500D01*
X62931008Y24023500D01*
X63068992Y24023500D01*
X63068993Y24023500D01*
X63204328Y24050420D01*
X63331811Y24103225D01*
X63446542Y24179886D01*
X63544114Y24277458D01*
X63620775Y24392189D01*
X63673580Y24519672D01*
X63700500Y24655007D01*
X63700500Y27955135D01*
X63719407Y28013326D01*
X63757448Y28041619D01*
X63756326Y28043742D01*
X63762879Y28047207D01*
X63762882Y28047207D01*
X63872150Y28127850D01*
X63952793Y28237118D01*
X63997646Y28365301D01*
X64000499Y28395727D01*
X64000500Y28395727D01*
X64000500Y29604273D01*
X64000499Y29604275D01*
X63997646Y29634695D01*
X63997646Y29634699D01*
X63952793Y29762882D01*
X63920079Y29807208D01*
X63872154Y29872145D01*
X63872152Y29872147D01*
X63872150Y29872150D01*
X63872146Y29872153D01*
X63872144Y29872155D01*
X63762883Y29952793D01*
X63634703Y29997645D01*
X63634694Y29997647D01*
X63604274Y30000500D01*
X63604266Y30000500D01*
X63031165Y30000500D01*
X62972974Y30019407D01*
X62961161Y30029496D01*
X62203496Y30787161D01*
X62175719Y30841678D01*
X62174500Y30857165D01*
X62174500Y41284357D01*
X62778500Y41284357D01*
X62778500Y41126243D01*
X62819423Y40973516D01*
X62898480Y40836584D01*
X63010284Y40724780D01*
X63010286Y40724779D01*
X63010288Y40724777D01*
X63014767Y40721340D01*
X63049423Y40670916D01*
X63053500Y40642798D01*
X63053500Y33698103D01*
X63034593Y33639912D01*
X63014772Y33619564D01*
X63010287Y33616123D01*
X63010284Y33616120D01*
X62898480Y33504316D01*
X62819423Y33367384D01*
X62778500Y33214657D01*
X62778500Y33056543D01*
X62819423Y32903816D01*
X62898480Y32766884D01*
X63010284Y32655080D01*
X63147216Y32576023D01*
X63299943Y32535100D01*
X63299945Y32535100D01*
X63458055Y32535100D01*
X63458057Y32535100D01*
X63610784Y32576023D01*
X63747716Y32655080D01*
X63859520Y32766884D01*
X63938577Y32903816D01*
X63979500Y33056543D01*
X63979500Y33214657D01*
X63938577Y33367384D01*
X63859520Y33504316D01*
X63747716Y33616120D01*
X63747713Y33616122D01*
X63747712Y33616123D01*
X63743228Y33619564D01*
X63708575Y33669991D01*
X63704500Y33698103D01*
X63704500Y40642798D01*
X63723407Y40700989D01*
X63743233Y40721340D01*
X63747711Y40724777D01*
X63747711Y40724778D01*
X63747716Y40724780D01*
X63859520Y40836584D01*
X63938577Y40973516D01*
X63979500Y41126243D01*
X63979500Y41284357D01*
X63938577Y41437084D01*
X63859520Y41574016D01*
X63747716Y41685820D01*
X63610784Y41764877D01*
X63458057Y41805800D01*
X63299943Y41805800D01*
X63147216Y41764877D01*
X63010284Y41685820D01*
X62898480Y41574016D01*
X62819423Y41437084D01*
X62778500Y41284357D01*
X62174500Y41284357D01*
X62174500Y50929591D01*
X62193407Y50987782D01*
X62242907Y51023746D01*
X62304093Y51023746D01*
X62306194Y51023037D01*
G37*
%TD.AperFunction*%
%TA.AperFunction,Conductor*%
G36*
X99458691Y79480593D02*
G01*
X99494655Y79431093D01*
X99499500Y79400500D01*
X99499500Y599500D01*
X99480593Y541309D01*
X99431093Y505345D01*
X99400500Y500500D01*
X599500Y500500D01*
X541309Y519407D01*
X505345Y568907D01*
X500500Y599500D01*
X500500Y5121290D01*
X3149500Y5121290D01*
X3149500Y4878711D01*
X3181161Y4638219D01*
X3181161Y4638214D01*
X3243944Y4403908D01*
X3243948Y4403895D01*
X3336772Y4179796D01*
X3336774Y4179792D01*
X3336776Y4179788D01*
X3458064Y3969711D01*
X3458066Y3969708D01*
X3605729Y3777269D01*
X3605731Y3777267D01*
X3605735Y3777262D01*
X3777262Y3605735D01*
X3777266Y3605732D01*
X3777268Y3605730D01*
X3969707Y3458067D01*
X3969711Y3458064D01*
X4179788Y3336776D01*
X4403900Y3243946D01*
X4638211Y3181162D01*
X4878712Y3149500D01*
X4878713Y3149500D01*
X5121287Y3149500D01*
X5121288Y3149500D01*
X5361789Y3181162D01*
X5596100Y3243946D01*
X5820212Y3336776D01*
X6030289Y3458064D01*
X6222738Y3605735D01*
X6394265Y3777262D01*
X6541936Y3969711D01*
X6663224Y4179788D01*
X6756054Y4403900D01*
X6818838Y4638211D01*
X6850500Y4878712D01*
X6850500Y5121288D01*
X6818838Y5361789D01*
X6756054Y5596100D01*
X6713847Y5697996D01*
X35746800Y5697996D01*
X35746800Y5560005D01*
X35773720Y5424673D01*
X35773720Y5424671D01*
X35826522Y5297194D01*
X35826528Y5297183D01*
X35903185Y5182459D01*
X36000758Y5084886D01*
X36115482Y5008229D01*
X36115493Y5008223D01*
X36162583Y4988718D01*
X36242972Y4955420D01*
X36378307Y4928500D01*
X36378308Y4928500D01*
X39729349Y4928500D01*
X39798343Y4928495D01*
X39798349Y4928497D01*
X39798382Y4928499D01*
X39798387Y4928500D01*
X39798393Y4928500D01*
X39863963Y4941544D01*
X39863970Y4941543D01*
X39863970Y4941545D01*
X39932041Y4955080D01*
X39933703Y4955378D01*
X39933710Y4955380D01*
X39935246Y4956049D01*
X39997039Y4981645D01*
X40059843Y5007654D01*
X40061184Y5008183D01*
X40061187Y5008184D01*
X40062330Y5008973D01*
X40119142Y5046934D01*
X40119144Y5046937D01*
X40175322Y5084467D01*
X40175959Y5084882D01*
X40175961Y5084884D01*
X40176718Y5085663D01*
X40223919Y5132864D01*
X40924488Y5833330D01*
X41367732Y6276509D01*
X41422250Y6304282D01*
X41437730Y6305500D01*
X44456929Y6305500D01*
X44457191Y6305488D01*
X44461931Y6305489D01*
X44461936Y6305488D01*
X44528170Y6305500D01*
X44599793Y6305500D01*
X44599796Y6305501D01*
X44599914Y6305513D01*
X44599923Y6305513D01*
X44666849Y6318839D01*
X44666865Y6318837D01*
X44666865Y6318841D01*
X44688909Y6323227D01*
X44735128Y6332420D01*
X44735133Y6332423D01*
X44735187Y6332433D01*
X44735203Y6332438D01*
X44735249Y6332458D01*
X44735253Y6332458D01*
X44797655Y6358320D01*
X44862611Y6385225D01*
X44862615Y6385229D01*
X44862620Y6385230D01*
X44862718Y6385283D01*
X44862720Y6385285D01*
X44862726Y6385287D01*
X44918812Y6422778D01*
X44977342Y6461886D01*
X44977347Y6461892D01*
X44977360Y6461900D01*
X44977431Y6461958D01*
X44977440Y6461968D01*
X44977443Y6461969D01*
X45026123Y6510668D01*
X45074914Y6559458D01*
X45074914Y6559459D01*
X45078403Y6562947D01*
X45078592Y6563158D01*
X45319620Y6804275D01*
X51799500Y6804275D01*
X51799500Y5195726D01*
X51802353Y5165306D01*
X51802355Y5165297D01*
X51847207Y5037117D01*
X51927845Y4927856D01*
X51927847Y4927854D01*
X51927850Y4927850D01*
X51927853Y4927848D01*
X51927855Y4927846D01*
X52037116Y4847208D01*
X52037117Y4847208D01*
X52037118Y4847207D01*
X52165301Y4802354D01*
X52195725Y4799501D01*
X52195727Y4799500D01*
X52195734Y4799500D01*
X53804273Y4799500D01*
X53804273Y4799501D01*
X53834699Y4802354D01*
X53962882Y4847207D01*
X54072150Y4927850D01*
X54152793Y5037118D01*
X54197646Y5165301D01*
X54200499Y5195727D01*
X54200500Y5195727D01*
X54200500Y6804273D01*
X54200499Y6804275D01*
X64799500Y6804275D01*
X64799500Y5195726D01*
X64802353Y5165306D01*
X64802355Y5165297D01*
X64847207Y5037117D01*
X64927845Y4927856D01*
X64927847Y4927854D01*
X64927850Y4927850D01*
X64927853Y4927848D01*
X64927855Y4927846D01*
X65037116Y4847208D01*
X65037117Y4847208D01*
X65037118Y4847207D01*
X65165301Y4802354D01*
X65195725Y4799501D01*
X65195727Y4799500D01*
X65195734Y4799500D01*
X66804273Y4799500D01*
X66804273Y4799501D01*
X66834699Y4802354D01*
X66962882Y4847207D01*
X67072150Y4927850D01*
X67152793Y5037118D01*
X67182246Y5121290D01*
X93149500Y5121290D01*
X93149500Y4878711D01*
X93181161Y4638219D01*
X93181161Y4638214D01*
X93243944Y4403908D01*
X93243948Y4403895D01*
X93336772Y4179796D01*
X93336774Y4179792D01*
X93336776Y4179788D01*
X93458064Y3969711D01*
X93458066Y3969708D01*
X93605729Y3777269D01*
X93605731Y3777267D01*
X93605735Y3777262D01*
X93777262Y3605735D01*
X93777266Y3605732D01*
X93777268Y3605730D01*
X93969707Y3458067D01*
X93969711Y3458064D01*
X94179788Y3336776D01*
X94403900Y3243946D01*
X94638211Y3181162D01*
X94878712Y3149500D01*
X94878713Y3149500D01*
X95121287Y3149500D01*
X95121288Y3149500D01*
X95361789Y3181162D01*
X95596100Y3243946D01*
X95820212Y3336776D01*
X96030289Y3458064D01*
X96222738Y3605735D01*
X96394265Y3777262D01*
X96541936Y3969711D01*
X96663224Y4179788D01*
X96756054Y4403900D01*
X96818838Y4638211D01*
X96850500Y4878712D01*
X96850500Y5121288D01*
X96818838Y5361789D01*
X96756054Y5596100D01*
X96663224Y5820212D01*
X96541936Y6030289D01*
X96394265Y6222738D01*
X96222738Y6394265D01*
X96222733Y6394269D01*
X96222731Y6394271D01*
X96030292Y6541934D01*
X96030289Y6541936D01*
X95820212Y6663224D01*
X95820208Y6663226D01*
X95820204Y6663228D01*
X95596105Y6756052D01*
X95596104Y6756053D01*
X95596100Y6756054D01*
X95361789Y6818838D01*
X95361786Y6818839D01*
X95361784Y6818839D01*
X95121289Y6850500D01*
X95121288Y6850500D01*
X94878712Y6850500D01*
X94878710Y6850500D01*
X94638218Y6818839D01*
X94638213Y6818839D01*
X94403907Y6756056D01*
X94403894Y6756052D01*
X94179795Y6663228D01*
X93969707Y6541934D01*
X93777268Y6394271D01*
X93605729Y6222732D01*
X93458066Y6030293D01*
X93336772Y5820205D01*
X93243948Y5596106D01*
X93243944Y5596093D01*
X93181161Y5361787D01*
X93181161Y5361782D01*
X93149500Y5121290D01*
X67182246Y5121290D01*
X67197646Y5165301D01*
X67200499Y5195727D01*
X67200500Y5195727D01*
X67200500Y6804273D01*
X67200499Y6804275D01*
X67197646Y6834695D01*
X67197646Y6834699D01*
X67152793Y6962882D01*
X67072150Y7072150D01*
X67072146Y7072153D01*
X67072144Y7072155D01*
X66962883Y7152793D01*
X66834703Y7197645D01*
X66834694Y7197647D01*
X66804274Y7200500D01*
X66804266Y7200500D01*
X65195734Y7200500D01*
X65195725Y7200500D01*
X65165305Y7197647D01*
X65165296Y7197645D01*
X65037116Y7152793D01*
X64927855Y7072155D01*
X64927845Y7072145D01*
X64847207Y6962884D01*
X64802355Y6834704D01*
X64802353Y6834695D01*
X64799500Y6804275D01*
X54200499Y6804275D01*
X54197646Y6834695D01*
X54197646Y6834699D01*
X54152793Y6962882D01*
X54072150Y7072150D01*
X54072146Y7072153D01*
X54072144Y7072155D01*
X53962883Y7152793D01*
X53834703Y7197645D01*
X53834694Y7197647D01*
X53804274Y7200500D01*
X53804266Y7200500D01*
X52195734Y7200500D01*
X52195725Y7200500D01*
X52165305Y7197647D01*
X52165296Y7197645D01*
X52037116Y7152793D01*
X51927855Y7072155D01*
X51927845Y7072145D01*
X51847207Y6962884D01*
X51802355Y6834704D01*
X51802353Y6834695D01*
X51799500Y6804275D01*
X45319620Y6804275D01*
X46156596Y7641558D01*
X46233236Y7756303D01*
X46286018Y7883796D01*
X46312912Y8019136D01*
X46312887Y8157123D01*
X46285942Y8292453D01*
X46233113Y8419926D01*
X46156431Y8534643D01*
X46156395Y8534679D01*
X46058847Y8632192D01*
X46058839Y8632198D01*
X45944280Y8708713D01*
X45944096Y8708836D01*
X45944094Y8708837D01*
X45944092Y8708838D01*
X45900236Y8726995D01*
X45816604Y8761618D01*
X45816600Y8761619D01*
X45816601Y8761619D01*
X45681270Y8788511D01*
X45681257Y8788513D01*
X45543301Y8788488D01*
X45543276Y8788487D01*
X45543270Y8788487D01*
X45407947Y8761542D01*
X45407944Y8761542D01*
X45280477Y8708715D01*
X45280474Y8708714D01*
X45165757Y8632032D01*
X44269565Y7735509D01*
X44215054Y7707722D01*
X44199549Y7706500D01*
X41106651Y7706500D01*
X41037657Y7706505D01*
X41037656Y7706505D01*
X41037655Y7706505D01*
X41037604Y7706500D01*
X40972029Y7693456D01*
X40972023Y7693455D01*
X40902296Y7679591D01*
X40838965Y7653358D01*
X40838960Y7653357D01*
X40774814Y7626792D01*
X40716858Y7588067D01*
X40716853Y7588064D01*
X40660075Y7550132D01*
X40611859Y7501917D01*
X40611856Y7501913D01*
X39468269Y6358491D01*
X39413750Y6330718D01*
X39398270Y6329500D01*
X36378304Y6329500D01*
X36242972Y6302580D01*
X36242970Y6302580D01*
X36115493Y6249778D01*
X36115482Y6249772D01*
X36000758Y6173115D01*
X35903185Y6075542D01*
X35826528Y5960818D01*
X35826522Y5960807D01*
X35773720Y5833330D01*
X35773720Y5833328D01*
X35746800Y5697996D01*
X6713847Y5697996D01*
X6663224Y5820212D01*
X6541936Y6030289D01*
X6394265Y6222738D01*
X6222738Y6394265D01*
X6222733Y6394269D01*
X6222731Y6394271D01*
X6030292Y6541934D01*
X6030289Y6541936D01*
X5820212Y6663224D01*
X5820208Y6663226D01*
X5820204Y6663228D01*
X5596105Y6756052D01*
X5596104Y6756053D01*
X5596100Y6756054D01*
X5361789Y6818838D01*
X5361786Y6818839D01*
X5361784Y6818839D01*
X5121289Y6850500D01*
X5121288Y6850500D01*
X4878712Y6850500D01*
X4878710Y6850500D01*
X4638218Y6818839D01*
X4638213Y6818839D01*
X4403907Y6756056D01*
X4403894Y6756052D01*
X4179795Y6663228D01*
X3969707Y6541934D01*
X3777268Y6394271D01*
X3605729Y6222732D01*
X3458066Y6030293D01*
X3336772Y5820205D01*
X3243948Y5596106D01*
X3243944Y5596093D01*
X3181161Y5361787D01*
X3181161Y5361782D01*
X3149500Y5121290D01*
X500500Y5121290D01*
X500500Y14604276D01*
X11759500Y14604276D01*
X11759500Y11395733D01*
X11762353Y11365304D01*
X11762353Y11365302D01*
X11762354Y11365300D01*
X11778281Y11319784D01*
X11807208Y11237114D01*
X11887845Y11127855D01*
X11887854Y11127846D01*
X11997115Y11047208D01*
X11997116Y11047208D01*
X11997117Y11047207D01*
X12125300Y11002354D01*
X12155733Y10999500D01*
X13844266Y10999501D01*
X13844267Y10999501D01*
X13850352Y11000072D01*
X13874700Y11002354D01*
X14002883Y11047207D01*
X14112150Y11127850D01*
X14141086Y11167056D01*
X14192792Y11237116D01*
X14192791Y11237116D01*
X14192793Y11237117D01*
X14237646Y11365300D01*
X14240500Y11395733D01*
X14240499Y14604266D01*
X14237646Y14634700D01*
X14192793Y14762883D01*
X14192791Y14762885D01*
X14192791Y14762887D01*
X14112154Y14872146D01*
X14112145Y14872155D01*
X14002884Y14952793D01*
X13874704Y14997645D01*
X13874695Y14997647D01*
X13844274Y15000500D01*
X12155732Y15000500D01*
X12125303Y14997647D01*
X11997113Y14952792D01*
X11887854Y14872155D01*
X11887845Y14872146D01*
X11807207Y14762885D01*
X11762355Y14634705D01*
X11762353Y14634696D01*
X11759500Y14604276D01*
X500500Y14604276D01*
X500500Y22068996D01*
X3899500Y22068996D01*
X3899500Y21931005D01*
X3926420Y21795673D01*
X3926420Y21795671D01*
X3979222Y21668194D01*
X3979228Y21668183D01*
X4055885Y21553459D01*
X4153458Y21455886D01*
X4268182Y21379229D01*
X4268193Y21379223D01*
X4310795Y21361577D01*
X4395672Y21326420D01*
X4531007Y21299500D01*
X4531008Y21299500D01*
X4668992Y21299500D01*
X4668993Y21299500D01*
X4804328Y21326420D01*
X4931811Y21379225D01*
X5046542Y21455886D01*
X5144114Y21553458D01*
X5220775Y21668189D01*
X5273580Y21795672D01*
X5300500Y21931007D01*
X5300500Y22068993D01*
X5300499Y22068996D01*
X10699500Y22068996D01*
X10699500Y21931005D01*
X10726420Y21795673D01*
X10726420Y21795671D01*
X10779222Y21668194D01*
X10779228Y21668183D01*
X10855885Y21553459D01*
X10953458Y21455886D01*
X11068182Y21379229D01*
X11068193Y21379223D01*
X11110795Y21361577D01*
X11195672Y21326420D01*
X11331007Y21299500D01*
X11331008Y21299500D01*
X11468992Y21299500D01*
X11468993Y21299500D01*
X11604328Y21326420D01*
X11731811Y21379225D01*
X11846542Y21455886D01*
X11944114Y21553458D01*
X12020775Y21668189D01*
X12073580Y21795672D01*
X12100500Y21931007D01*
X12100500Y22068993D01*
X12073580Y22204328D01*
X12021008Y22331249D01*
X12020777Y22331807D01*
X12020771Y22331818D01*
X11944114Y22446542D01*
X11846541Y22544115D01*
X11731817Y22620772D01*
X11731806Y22620778D01*
X11604328Y22673580D01*
X11468995Y22700500D01*
X11468993Y22700500D01*
X11331007Y22700500D01*
X11331004Y22700500D01*
X11195672Y22673580D01*
X11195670Y22673580D01*
X11068193Y22620778D01*
X11068182Y22620772D01*
X10953458Y22544115D01*
X10855885Y22446542D01*
X10779228Y22331818D01*
X10779222Y22331807D01*
X10726420Y22204330D01*
X10726420Y22204328D01*
X10699500Y22068996D01*
X5300499Y22068996D01*
X5273580Y22204328D01*
X5221008Y22331249D01*
X5220777Y22331807D01*
X5220771Y22331818D01*
X5144114Y22446542D01*
X5046541Y22544115D01*
X4931817Y22620772D01*
X4931806Y22620778D01*
X4804328Y22673580D01*
X4668995Y22700500D01*
X4668993Y22700500D01*
X4531007Y22700500D01*
X4531004Y22700500D01*
X4395672Y22673580D01*
X4395670Y22673580D01*
X4268193Y22620778D01*
X4268182Y22620772D01*
X4153458Y22544115D01*
X4055885Y22446542D01*
X3979228Y22331818D01*
X3979222Y22331807D01*
X3926420Y22204330D01*
X3926420Y22204328D01*
X3899500Y22068996D01*
X500500Y22068996D01*
X500500Y63256527D01*
X7803300Y63256527D01*
X7803300Y32862927D01*
X7803300Y32757473D01*
X7808381Y32738510D01*
X7830594Y32655608D01*
X7883316Y32564292D01*
X7883318Y32564290D01*
X7883320Y32564287D01*
X10636887Y29810720D01*
X10636889Y29810719D01*
X10636891Y29810717D01*
X10728208Y29757995D01*
X10728206Y29757995D01*
X10728210Y29757994D01*
X10728212Y29757993D01*
X10830073Y29730700D01*
X10830075Y29730700D01*
X11907225Y29730700D01*
X11907227Y29730700D01*
X12009088Y29757993D01*
X12009090Y29757995D01*
X12009092Y29757995D01*
X12100408Y29810717D01*
X12100408Y29810718D01*
X12100413Y29810720D01*
X21492497Y39202804D01*
X21547014Y39230581D01*
X21562501Y39231800D01*
X21961720Y39231800D01*
X22019911Y39212893D01*
X22055875Y39163393D01*
X22055875Y39102207D01*
X22047457Y39083301D01*
X22035323Y39062286D01*
X22013371Y38980357D01*
X21994400Y38909557D01*
X21994400Y38751443D01*
X22035323Y38598716D01*
X22114380Y38461784D01*
X22226184Y38349980D01*
X22226186Y38349979D01*
X22226188Y38349977D01*
X22230667Y38346540D01*
X22265323Y38296116D01*
X22269400Y38267998D01*
X22269400Y33009203D01*
X22250493Y32951012D01*
X22230672Y32930664D01*
X22226187Y32927223D01*
X22226184Y32927220D01*
X22114380Y32815416D01*
X22035323Y32678484D01*
X21994400Y32525757D01*
X21994400Y32367643D01*
X22035323Y32214916D01*
X22114380Y32077984D01*
X22226184Y31966180D01*
X22363116Y31887123D01*
X22515843Y31846200D01*
X22515845Y31846200D01*
X22673955Y31846200D01*
X22673957Y31846200D01*
X22826684Y31887123D01*
X22963616Y31966180D01*
X23075420Y32077984D01*
X23154477Y32214916D01*
X23195400Y32367643D01*
X23195400Y32525757D01*
X23154477Y32678484D01*
X23075420Y32815416D01*
X22963616Y32927220D01*
X22963613Y32927222D01*
X22963612Y32927223D01*
X22959128Y32930664D01*
X22924475Y32981091D01*
X22920400Y33009203D01*
X22920400Y38267998D01*
X22939307Y38326189D01*
X22959133Y38346540D01*
X22963611Y38349977D01*
X22963611Y38349978D01*
X22963616Y38349980D01*
X23075420Y38461784D01*
X23154477Y38598716D01*
X23169017Y38652981D01*
X23202340Y38704293D01*
X23259461Y38726220D01*
X23318562Y38710385D01*
X23334647Y38697360D01*
X25056404Y36975603D01*
X25084181Y36921086D01*
X25085400Y36905599D01*
X25085400Y34085044D01*
X25066493Y34026853D01*
X25056404Y34015041D01*
X25005382Y33964019D01*
X25005380Y33964017D01*
X25005380Y33964016D01*
X24926323Y33827084D01*
X24885400Y33674357D01*
X24885400Y33516243D01*
X24926323Y33363516D01*
X25005380Y33226584D01*
X25117184Y33114780D01*
X25254116Y33035723D01*
X25406843Y32994800D01*
X25406846Y32994800D01*
X25409259Y32994482D01*
X25410832Y32993732D01*
X25413111Y32993121D01*
X25412997Y32992699D01*
X25464484Y32968141D01*
X25493679Y32914370D01*
X25485693Y32853708D01*
X25466341Y32826326D01*
X16980687Y24340481D01*
X16980687Y24340480D01*
X16922120Y24281913D01*
X16922118Y24281911D01*
X16922116Y24281909D01*
X16921716Y24281354D01*
X16920639Y24279351D01*
X16915488Y24270428D01*
X16915486Y24270424D01*
X16869394Y24190590D01*
X16869393Y24190588D01*
X16869393Y24190587D01*
X16845986Y24103225D01*
X16844781Y24098729D01*
X16844780Y24098727D01*
X16842099Y24088723D01*
X16842100Y24025499D01*
X16842100Y20699744D01*
X16823193Y20641553D01*
X16813104Y20629741D01*
X16762082Y20578719D01*
X16762080Y20578717D01*
X16762080Y20578716D01*
X16683023Y20441784D01*
X16642100Y20289057D01*
X16642100Y20130943D01*
X16683023Y19978216D01*
X16762080Y19841284D01*
X16873884Y19729480D01*
X17010816Y19650423D01*
X17163543Y19609500D01*
X17163545Y19609500D01*
X17321655Y19609500D01*
X17321657Y19609500D01*
X17474384Y19650423D01*
X17611316Y19729480D01*
X17723120Y19841284D01*
X17802177Y19978216D01*
X17843100Y20130943D01*
X17843100Y20289057D01*
X17802177Y20441784D01*
X17723120Y20578716D01*
X17698612Y20603224D01*
X17672096Y20629741D01*
X17644319Y20684258D01*
X17643100Y20699744D01*
X17643100Y23829105D01*
X17662007Y23887296D01*
X17672096Y23899108D01*
X21161597Y27388688D01*
X21216112Y27416465D01*
X21276544Y27406894D01*
X21319809Y27363630D01*
X21330600Y27318684D01*
X21330600Y27298943D01*
X21371523Y27146216D01*
X21450580Y27009284D01*
X21562384Y26897480D01*
X21562386Y26897479D01*
X21562388Y26897477D01*
X21566867Y26894040D01*
X21601523Y26843616D01*
X21605600Y26815498D01*
X21605600Y26784854D01*
X21605599Y26699149D01*
X21605600Y26699147D01*
X21607378Y26691616D01*
X21608193Y26689467D01*
X21627782Y26616362D01*
X21627784Y26616359D01*
X21635774Y26602520D01*
X21635775Y26602517D01*
X21670629Y26542145D01*
X21670633Y26542140D01*
X33288181Y14924497D01*
X33842534Y14370140D01*
X33842535Y14370138D01*
X33903138Y14309535D01*
X33957472Y14278165D01*
X33977358Y14266684D01*
X33977362Y14266682D01*
X33993515Y14262354D01*
X34029844Y14252620D01*
X34029843Y14252619D01*
X34029848Y14252619D01*
X34045948Y14248305D01*
X34060144Y14244500D01*
X34060146Y14244500D01*
X34145852Y14244499D01*
X34145856Y14244500D01*
X37126147Y14244500D01*
X37126151Y14244499D01*
X37211857Y14244500D01*
X37256221Y14256389D01*
X37294638Y14266682D01*
X37294639Y14266684D01*
X37294642Y14266684D01*
X37334416Y14289648D01*
X37360198Y14304533D01*
X37362282Y14305470D01*
X37367584Y14308746D01*
X37370133Y14310269D01*
X37372711Y14311758D01*
X37378073Y14318746D01*
X40837191Y17777945D01*
X41512733Y18453503D01*
X41567249Y18481281D01*
X41582737Y18482500D01*
X46294308Y18482500D01*
X46294311Y18482500D01*
X46345732Y18482497D01*
X46345743Y18482500D01*
X46345753Y18482500D01*
X46383202Y18492535D01*
X46428520Y18504674D01*
X46428530Y18504680D01*
X46428538Y18504682D01*
X46460356Y18523053D01*
X46502745Y18547522D01*
X46502752Y18547530D01*
X46502762Y18547535D01*
X46503723Y18548497D01*
X46503857Y18548551D01*
X46505019Y18549793D01*
X46534444Y18579218D01*
X47190639Y19235331D01*
X47245157Y19263104D01*
X47305589Y19253529D01*
X47348850Y19210261D01*
X47356264Y19190946D01*
X47362621Y19167220D01*
X47362621Y19167219D01*
X47382089Y19133500D01*
X47441680Y19030284D01*
X47553484Y18918480D01*
X47690416Y18839423D01*
X47843143Y18798500D01*
X47843145Y18798500D01*
X48001255Y18798500D01*
X48001257Y18798500D01*
X48153984Y18839423D01*
X48290916Y18918480D01*
X48402720Y19030284D01*
X48402723Y19030289D01*
X48406160Y19034767D01*
X48456584Y19069423D01*
X48484702Y19073500D01*
X49406984Y19073500D01*
X49407060Y19073496D01*
X49413473Y19073497D01*
X49413475Y19073496D01*
X49462449Y19073500D01*
X49499153Y19073500D01*
X49499164Y19073503D01*
X49499180Y19073503D01*
X49541579Y19084868D01*
X49581938Y19095682D01*
X49581951Y19095690D01*
X49581964Y19095693D01*
X49617790Y19116382D01*
X49656162Y19138535D01*
X49656172Y19138546D01*
X49656184Y19138552D01*
X49657144Y19139513D01*
X49657190Y19139531D01*
X49657765Y19140135D01*
X49685738Y19168112D01*
X49716765Y19199138D01*
X49716766Y19199141D01*
X49721847Y19204221D01*
X49721883Y19204264D01*
X51066468Y20549076D01*
X51120981Y20576857D01*
X51149399Y20577230D01*
X51154942Y20576501D01*
X51154943Y20576500D01*
X51154944Y20576500D01*
X51313055Y20576500D01*
X51313057Y20576500D01*
X51465784Y20617423D01*
X51545002Y20663160D01*
X51604848Y20675880D01*
X51660744Y20650993D01*
X51691337Y20598005D01*
X51693500Y20577422D01*
X51693500Y18516735D01*
X51674593Y18458544D01*
X51625093Y18422580D01*
X51620128Y18421110D01*
X51603220Y18416579D01*
X51603218Y18416579D01*
X51493195Y18353057D01*
X51466284Y18337520D01*
X51354480Y18225716D01*
X51275423Y18088784D01*
X51262946Y18042217D01*
X51234500Y17936056D01*
X51234500Y17777940D01*
X51235190Y17772697D01*
X51224039Y17712536D01*
X51207005Y17689738D01*
X50743260Y17226461D01*
X50688730Y17198711D01*
X50673292Y17197500D01*
X48603302Y17197500D01*
X48545111Y17216407D01*
X48524760Y17236233D01*
X48521323Y17240712D01*
X48521321Y17240714D01*
X48521320Y17240716D01*
X48409516Y17352520D01*
X48272584Y17431577D01*
X48119857Y17472500D01*
X47961743Y17472500D01*
X47809016Y17431577D01*
X47672084Y17352520D01*
X47560280Y17240716D01*
X47481223Y17103784D01*
X47440300Y16951057D01*
X47440300Y16792943D01*
X47481223Y16640216D01*
X47560280Y16503284D01*
X47672084Y16391480D01*
X47809016Y16312423D01*
X47961743Y16271500D01*
X47961745Y16271500D01*
X48119855Y16271500D01*
X48119857Y16271500D01*
X48272584Y16312423D01*
X48409516Y16391480D01*
X48521320Y16503284D01*
X48521323Y16503289D01*
X48524760Y16507767D01*
X48575184Y16542423D01*
X48603302Y16546500D01*
X50847837Y16546500D01*
X50847859Y16546500D01*
X50891688Y16546478D01*
X50891697Y16546481D01*
X50891849Y16546500D01*
X50891853Y16546500D01*
X50933230Y16557588D01*
X50933281Y16557586D01*
X50933278Y16557600D01*
X50943645Y16560373D01*
X50974485Y16568619D01*
X50974489Y16568622D01*
X50974506Y16568626D01*
X50974619Y16568673D01*
X50974631Y16568681D01*
X50974638Y16568682D01*
X51012463Y16590520D01*
X51012465Y16590521D01*
X51012471Y16590510D01*
X51012503Y16590544D01*
X51048729Y16611434D01*
X51048733Y16611439D01*
X51048738Y16611441D01*
X51048853Y16611529D01*
X51048855Y16611532D01*
X51048862Y16611535D01*
X51080266Y16642940D01*
X51667093Y17229173D01*
X51721622Y17256921D01*
X51749982Y17257285D01*
X51755942Y17256501D01*
X51755943Y17256500D01*
X51755944Y17256500D01*
X51914055Y17256500D01*
X51914057Y17256500D01*
X52066784Y17297423D01*
X52203716Y17376480D01*
X52315520Y17488284D01*
X52394577Y17625216D01*
X52435500Y17777943D01*
X52435500Y17936057D01*
X52394577Y18088784D01*
X52394576Y18088786D01*
X52357763Y18152550D01*
X52344500Y18202049D01*
X52344500Y21744552D01*
X52344502Y21744597D01*
X52344501Y21751165D01*
X52344503Y21751169D01*
X52344500Y21800132D01*
X52344500Y21836853D01*
X52344500Y21836862D01*
X52344497Y21836874D01*
X52334452Y21874354D01*
X52328802Y21895438D01*
X52323124Y21916629D01*
X52322457Y21919483D01*
X52322437Y21919532D01*
X52321296Y21921412D01*
X52300666Y21957140D01*
X52279780Y21993317D01*
X52279483Y21993841D01*
X52279462Y21993869D01*
X52279452Y21993879D01*
X52249165Y22024162D01*
X52249164Y22024164D01*
X52249164Y22024163D01*
X52249163Y22024164D01*
X52218862Y22054465D01*
X52218859Y22054467D01*
X52214583Y22058743D01*
X52214553Y22058770D01*
X50541522Y23731579D01*
X49610521Y24662457D01*
X49582741Y24716971D01*
X49582368Y24745390D01*
X49583098Y24750938D01*
X49583100Y24750943D01*
X49583100Y24909057D01*
X49542177Y25061784D01*
X49516648Y25106001D01*
X49503927Y25165848D01*
X49528813Y25221744D01*
X49581801Y25252337D01*
X49602385Y25254500D01*
X50651411Y25254500D01*
X50709602Y25235593D01*
X50745566Y25186093D01*
X50745566Y25124907D01*
X50737151Y25106008D01*
X50706423Y25052784D01*
X50665500Y24900057D01*
X50665500Y24741943D01*
X50706423Y24589216D01*
X50785480Y24452284D01*
X50897284Y24340480D01*
X51034216Y24261423D01*
X51186943Y24220500D01*
X51186945Y24220500D01*
X51345055Y24220500D01*
X51345057Y24220500D01*
X51497784Y24261423D01*
X51634716Y24340480D01*
X51746520Y24452284D01*
X51825577Y24589216D01*
X51866500Y24741943D01*
X51866500Y24900057D01*
X51825577Y25052784D01*
X51746520Y25189716D01*
X51634716Y25301520D01*
X51634713Y25301522D01*
X51634712Y25301523D01*
X51630228Y25304964D01*
X51595575Y25355391D01*
X51591500Y25383503D01*
X51591500Y39901456D01*
X51610407Y39959647D01*
X51620494Y39971457D01*
X54065381Y42416098D01*
X54119898Y42443872D01*
X54148306Y42444243D01*
X54153938Y42443502D01*
X54153943Y42443500D01*
X54153948Y42443500D01*
X54312055Y42443500D01*
X54312057Y42443500D01*
X54464784Y42484423D01*
X54601716Y42563480D01*
X54713520Y42675284D01*
X54792577Y42812216D01*
X54802474Y42849155D01*
X54835796Y42900466D01*
X54892917Y42922394D01*
X54952018Y42906559D01*
X54968098Y42893539D01*
X56233086Y41628762D01*
X56697095Y41164830D01*
X56706059Y41155868D01*
X56733841Y41101354D01*
X56724274Y41040921D01*
X56721798Y41036360D01*
X56661423Y40931786D01*
X56641951Y40859115D01*
X56620500Y40779057D01*
X56620500Y40620943D01*
X56661423Y40468216D01*
X56740480Y40331284D01*
X56852284Y40219480D01*
X56989216Y40140423D01*
X57141943Y40099500D01*
X57141945Y40099500D01*
X57300055Y40099500D01*
X57300057Y40099500D01*
X57452784Y40140423D01*
X57589716Y40219480D01*
X57701520Y40331284D01*
X57751765Y40418312D01*
X57797233Y40459251D01*
X57858083Y40465647D01*
X57911071Y40435054D01*
X57935958Y40379159D01*
X57936500Y40368810D01*
X57936500Y22218853D01*
X57936500Y22133147D01*
X57950050Y22082578D01*
X57958683Y22050357D01*
X58001531Y21976143D01*
X58001533Y21976141D01*
X58001535Y21976138D01*
X60167533Y19810141D01*
X60167535Y19810138D01*
X60228138Y19749535D01*
X60280195Y19719480D01*
X60302362Y19706682D01*
X60302364Y19706682D01*
X60302365Y19706681D01*
X60343755Y19695591D01*
X60385145Y19684500D01*
X60385147Y19684499D01*
X60385148Y19684499D01*
X60476916Y19684499D01*
X60476932Y19684500D01*
X61213113Y19684500D01*
X61271304Y19665593D01*
X61283132Y19655488D01*
X61444062Y19494488D01*
X61471828Y19439966D01*
X61462243Y19379536D01*
X61418969Y19336281D01*
X61374043Y19325500D01*
X56570383Y19325500D01*
X56527529Y19325551D01*
X56527246Y19325513D01*
X56527150Y19325501D01*
X56485829Y19314430D01*
X56485721Y19314401D01*
X56444710Y19303463D01*
X56444684Y19303452D01*
X56444366Y19303321D01*
X56418814Y19288569D01*
X56407195Y19281860D01*
X56370427Y19260690D01*
X56370279Y19260575D01*
X56370149Y19260476D01*
X56370138Y19260465D01*
X56339787Y19230115D01*
X55948918Y18840166D01*
X55948265Y18839592D01*
X55944138Y18835465D01*
X55914000Y18805328D01*
X55883765Y18775165D01*
X55883545Y18774877D01*
X55883536Y18774867D01*
X55862316Y18738111D01*
X55862259Y18738012D01*
X55848399Y18714072D01*
X55840821Y18700980D01*
X55840706Y18700700D01*
X55840685Y18700651D01*
X55829720Y18659730D01*
X55829691Y18659621D01*
X55818547Y18618224D01*
X55818501Y18617875D01*
X55818500Y18617868D01*
X55818500Y18575266D01*
X55818442Y18526578D01*
X55818500Y18525698D01*
X55818500Y15310853D01*
X55818500Y15225147D01*
X55840386Y15143466D01*
X55840386Y15092223D01*
X55831500Y15059060D01*
X55831500Y15059057D01*
X55831500Y14900943D01*
X55872423Y14748216D01*
X55951480Y14611284D01*
X56063284Y14499480D01*
X56200216Y14420423D01*
X56352943Y14379500D01*
X56352945Y14379500D01*
X56511055Y14379500D01*
X56511057Y14379500D01*
X56663784Y14420423D01*
X56800716Y14499480D01*
X56912520Y14611284D01*
X56991577Y14748216D01*
X57032500Y14900943D01*
X57032500Y15059057D01*
X56991577Y15211784D01*
X56912520Y15348716D01*
X56800716Y15460520D01*
X56663784Y15539577D01*
X56542877Y15571974D01*
X56491562Y15605299D01*
X56469636Y15662420D01*
X56469500Y15667601D01*
X56469500Y17244166D01*
X56488407Y17302357D01*
X56537907Y17338321D01*
X56599093Y17338321D01*
X56638501Y17314172D01*
X57681173Y16271500D01*
X58697088Y15255585D01*
X58724865Y15201068D01*
X58725238Y15172662D01*
X58724500Y15167059D01*
X58724500Y15167057D01*
X58724500Y15008943D01*
X58765423Y14856216D01*
X58844480Y14719284D01*
X58956284Y14607480D01*
X59093216Y14528423D01*
X59245943Y14487500D01*
X59245945Y14487500D01*
X59404055Y14487500D01*
X59404057Y14487500D01*
X59556784Y14528423D01*
X59693716Y14607480D01*
X59805520Y14719284D01*
X59884577Y14856216D01*
X59925500Y15008943D01*
X59925500Y15167057D01*
X59884577Y15319784D01*
X59805520Y15456716D01*
X59693716Y15568520D01*
X59556784Y15647577D01*
X59404057Y15688500D01*
X59245943Y15688500D01*
X59245941Y15688500D01*
X59240338Y15687762D01*
X59180177Y15698915D01*
X59157415Y15715912D01*
X57244496Y17628831D01*
X57216719Y17683348D01*
X57215500Y17698835D01*
X57215500Y17711498D01*
X57234407Y17769689D01*
X57254233Y17790040D01*
X57258711Y17793477D01*
X57258711Y17793478D01*
X57258716Y17793480D01*
X57370520Y17905284D01*
X57449577Y18042216D01*
X57490500Y18194943D01*
X57490500Y18353057D01*
X57449577Y18505784D01*
X57449576Y18505786D01*
X57437905Y18526001D01*
X57425184Y18585850D01*
X57450071Y18641745D01*
X57503060Y18672337D01*
X57523642Y18674500D01*
X61413165Y18674500D01*
X61471356Y18655593D01*
X61483169Y18645504D01*
X63478138Y16650535D01*
X63478140Y16650534D01*
X63478141Y16650533D01*
X63478142Y16650532D01*
X63552357Y16607684D01*
X63552355Y16607684D01*
X63552359Y16607683D01*
X63552361Y16607682D01*
X63635147Y16585500D01*
X63720853Y16585500D01*
X63754498Y16585500D01*
X63812689Y16566593D01*
X63833040Y16546767D01*
X63836476Y16542289D01*
X63836478Y16542287D01*
X63836480Y16542284D01*
X63948284Y16430480D01*
X63948286Y16430479D01*
X63948288Y16430477D01*
X63952767Y16427040D01*
X63987423Y16376616D01*
X63991500Y16348498D01*
X63991500Y11650503D01*
X63972593Y11592312D01*
X63952772Y11571964D01*
X63948287Y11568523D01*
X63948284Y11568520D01*
X63836480Y11456716D01*
X63757423Y11319784D01*
X63716500Y11167057D01*
X63716500Y11008943D01*
X63757423Y10856216D01*
X63836480Y10719284D01*
X63948284Y10607480D01*
X64085216Y10528423D01*
X64237943Y10487500D01*
X64237945Y10487500D01*
X64396055Y10487500D01*
X64396057Y10487500D01*
X64548784Y10528423D01*
X64685716Y10607480D01*
X64797520Y10719284D01*
X64876577Y10856216D01*
X64917500Y11008943D01*
X64917500Y11167057D01*
X64876577Y11319784D01*
X64797520Y11456716D01*
X64685716Y11568520D01*
X64685713Y11568522D01*
X64685712Y11568523D01*
X64681228Y11571964D01*
X64646575Y11622391D01*
X64642500Y11650503D01*
X64642500Y16344276D01*
X84499500Y16344276D01*
X84499500Y14655733D01*
X84502353Y14625304D01*
X84502353Y14625302D01*
X84502354Y14625300D01*
X84509714Y14604267D01*
X84547208Y14497114D01*
X84627845Y14387855D01*
X84627854Y14387846D01*
X84737115Y14307208D01*
X84737116Y14307208D01*
X84737117Y14307207D01*
X84865300Y14262354D01*
X84895733Y14259500D01*
X88104266Y14259501D01*
X88104267Y14259501D01*
X88110352Y14260072D01*
X88134700Y14262354D01*
X88262883Y14307207D01*
X88262886Y14307209D01*
X88372145Y14387846D01*
X88372146Y14387848D01*
X88372150Y14387850D01*
X88452793Y14497117D01*
X88497646Y14625300D01*
X88500500Y14655733D01*
X88500499Y16344266D01*
X88497646Y16374700D01*
X88452793Y16502883D01*
X88452791Y16502885D01*
X88452791Y16502887D01*
X88372154Y16612146D01*
X88372145Y16612155D01*
X88262884Y16692793D01*
X88134704Y16737645D01*
X88134695Y16737647D01*
X88104274Y16740500D01*
X84895732Y16740500D01*
X84865303Y16737647D01*
X84737113Y16692792D01*
X84627854Y16612155D01*
X84627845Y16612146D01*
X84547207Y16502885D01*
X84502355Y16374705D01*
X84502353Y16374696D01*
X84499500Y16344276D01*
X64642500Y16344276D01*
X64642500Y16348498D01*
X64661407Y16406689D01*
X64681233Y16427040D01*
X64685711Y16430477D01*
X64685711Y16430478D01*
X64685716Y16430480D01*
X64797520Y16542284D01*
X64876577Y16679216D01*
X64917500Y16831943D01*
X64917500Y16990057D01*
X64876577Y17142784D01*
X64829687Y17224001D01*
X64816966Y17283849D01*
X64841853Y17339744D01*
X64894841Y17370337D01*
X64915424Y17372500D01*
X74287851Y17372500D01*
X74287853Y17372500D01*
X74370639Y17394682D01*
X74370641Y17394684D01*
X74370643Y17394684D01*
X74444857Y17437532D01*
X74444857Y17437533D01*
X74444862Y17437535D01*
X75876859Y18869534D01*
X75876862Y18869535D01*
X75937465Y18930138D01*
X75958891Y18967250D01*
X75980318Y19004361D01*
X76002500Y19087147D01*
X76002500Y19172853D01*
X76002500Y20677633D01*
X84499500Y20677633D01*
X84499500Y20482368D01*
X84530044Y20289519D01*
X84590382Y20103815D01*
X84671075Y19945445D01*
X84679029Y19929836D01*
X84793799Y19771868D01*
X84931868Y19633799D01*
X85089836Y19519029D01*
X85263813Y19430383D01*
X85449516Y19370045D01*
X85526658Y19357827D01*
X85642368Y19339500D01*
X85642371Y19339500D01*
X87357632Y19339500D01*
X87463606Y19356285D01*
X87550484Y19370045D01*
X87736187Y19430383D01*
X87910164Y19519029D01*
X88068132Y19633799D01*
X88206201Y19771868D01*
X88320971Y19929836D01*
X88409617Y20103813D01*
X88469955Y20289516D01*
X88491221Y20423784D01*
X88500500Y20482368D01*
X88500500Y20677633D01*
X88475678Y20834348D01*
X88469955Y20870484D01*
X88409617Y21056187D01*
X88320971Y21230164D01*
X88206201Y21388132D01*
X88068132Y21526201D01*
X87910164Y21640971D01*
X87910163Y21640972D01*
X87910161Y21640973D01*
X87736185Y21729618D01*
X87550481Y21789956D01*
X87357632Y21820500D01*
X87357629Y21820500D01*
X85642371Y21820500D01*
X85642368Y21820500D01*
X85449518Y21789956D01*
X85263814Y21729618D01*
X85089838Y21640973D01*
X85016247Y21587506D01*
X84931868Y21526201D01*
X84793799Y21388132D01*
X84774506Y21361577D01*
X84679027Y21230162D01*
X84590382Y21056186D01*
X84530044Y20870482D01*
X84499500Y20677633D01*
X76002500Y20677633D01*
X76002500Y22609498D01*
X76021407Y22667689D01*
X76041233Y22688040D01*
X76045711Y22691477D01*
X76045711Y22691478D01*
X76045716Y22691480D01*
X76157520Y22803284D01*
X76236577Y22940216D01*
X76246716Y22978057D01*
X80406500Y22978057D01*
X80406500Y22819943D01*
X80447423Y22667216D01*
X80526480Y22530284D01*
X80638284Y22418480D01*
X80775216Y22339423D01*
X80927943Y22298500D01*
X80927945Y22298500D01*
X81086055Y22298500D01*
X81086057Y22298500D01*
X81238784Y22339423D01*
X81375716Y22418480D01*
X81487520Y22530284D01*
X81566577Y22667216D01*
X81607500Y22819943D01*
X81607500Y22978057D01*
X81566577Y23130784D01*
X81551719Y23156520D01*
X81520763Y23210138D01*
X81507500Y23259637D01*
X81507500Y28797658D01*
X81526407Y28855849D01*
X81536496Y28867662D01*
X84330501Y31661311D01*
X84385019Y31689084D01*
X84445451Y31679509D01*
X84488713Y31636241D01*
X84499500Y31591302D01*
X84499500Y30155733D01*
X84502353Y30125304D01*
X84502353Y30125302D01*
X84502354Y30125300D01*
X84506214Y30114269D01*
X84547208Y29997114D01*
X84627845Y29887855D01*
X84627854Y29887846D01*
X84737115Y29807208D01*
X84737116Y29807208D01*
X84737117Y29807207D01*
X84865300Y29762354D01*
X84895733Y29759500D01*
X88104266Y29759501D01*
X88104267Y29759501D01*
X88110352Y29760072D01*
X88134700Y29762354D01*
X88262883Y29807207D01*
X88267639Y29810717D01*
X88372145Y29887846D01*
X88372146Y29887848D01*
X88372150Y29887850D01*
X88452793Y29997117D01*
X88497646Y30125300D01*
X88500500Y30155733D01*
X88500499Y31844266D01*
X88497646Y31874700D01*
X88452793Y32002883D01*
X88452791Y32002885D01*
X88452791Y32002887D01*
X88372154Y32112146D01*
X88372145Y32112155D01*
X88262884Y32192793D01*
X88134704Y32237645D01*
X88134695Y32237647D01*
X88104275Y32240500D01*
X88104267Y32240500D01*
X85148794Y32240500D01*
X85090603Y32259407D01*
X85054639Y32308907D01*
X85054639Y32370093D01*
X85078795Y32409508D01*
X85495756Y32826416D01*
X86802630Y34133124D01*
X86802681Y34133167D01*
X86853398Y34183885D01*
X86853404Y34183891D01*
X86864895Y34195380D01*
X86899071Y34229552D01*
X86900476Y34230897D01*
X86900482Y34230904D01*
X86901206Y34232210D01*
X86932369Y34286187D01*
X86964840Y34342418D01*
X86966371Y34344882D01*
X86966390Y34344927D01*
X86966903Y34347023D01*
X86982211Y34404156D01*
X86982213Y34404160D01*
X86989538Y34431494D01*
X87000387Y34471970D01*
X87000494Y34472356D01*
X87000500Y34472400D01*
X87000500Y34538267D01*
X87000501Y34558236D01*
X87000504Y34604160D01*
X87000502Y34604165D01*
X87000503Y34610584D01*
X87000500Y34610646D01*
X87000500Y34740500D01*
X87019407Y34798691D01*
X87068907Y34834655D01*
X87099500Y34839500D01*
X87357632Y34839500D01*
X87455537Y34855007D01*
X87550484Y34870045D01*
X87736187Y34930383D01*
X87910164Y35019029D01*
X88068132Y35133799D01*
X88206201Y35271868D01*
X88320971Y35429836D01*
X88409617Y35603813D01*
X88469955Y35789516D01*
X88485227Y35885944D01*
X88500500Y35982368D01*
X88500500Y36177633D01*
X88469955Y36370482D01*
X88469955Y36370484D01*
X88409617Y36556187D01*
X88320971Y36730164D01*
X88206201Y36888132D01*
X88068132Y37026201D01*
X87910164Y37140971D01*
X87910163Y37140972D01*
X87910161Y37140973D01*
X87736185Y37229618D01*
X87550481Y37289956D01*
X87357632Y37320500D01*
X87357629Y37320500D01*
X85642371Y37320500D01*
X85642368Y37320500D01*
X85449518Y37289956D01*
X85263814Y37229618D01*
X85089838Y37140973D01*
X85017006Y37088057D01*
X84931868Y37026201D01*
X84793799Y36888132D01*
X84759858Y36841416D01*
X84679027Y36730162D01*
X84590382Y36556186D01*
X84530044Y36370482D01*
X84499500Y36177633D01*
X84499500Y35982368D01*
X84530044Y35789519D01*
X84590382Y35603815D01*
X84676295Y35435200D01*
X84679029Y35429836D01*
X84793799Y35271868D01*
X84931868Y35133799D01*
X85089836Y35019029D01*
X85263813Y34930383D01*
X85449516Y34870045D01*
X85526658Y34857827D01*
X85642368Y34839500D01*
X85642371Y34839500D01*
X85854350Y34839500D01*
X85912541Y34820593D01*
X85948505Y34771093D01*
X85948505Y34709907D01*
X85924349Y34670492D01*
X80702858Y29449669D01*
X80702807Y29449622D01*
X80653593Y29400408D01*
X80606509Y29353330D01*
X80606500Y29353314D01*
X80574632Y29298118D01*
X80574630Y29298115D01*
X80540612Y29239205D01*
X80530753Y29202409D01*
X80524786Y29180139D01*
X80524786Y29180138D01*
X80506500Y29111911D01*
X80506500Y29111892D01*
X80506500Y29050868D01*
X80506497Y28984323D01*
X80506496Y28973273D01*
X80506500Y28973216D01*
X80506500Y23259637D01*
X80493237Y23210138D01*
X80447423Y23130786D01*
X80429081Y23062331D01*
X80406500Y22978057D01*
X76246716Y22978057D01*
X76277500Y23092943D01*
X76277500Y23251057D01*
X76248873Y23357895D01*
X76245500Y23383518D01*
X76245500Y51657857D01*
X79745500Y51657857D01*
X79745500Y51499743D01*
X79786423Y51347016D01*
X79865480Y51210084D01*
X79977284Y51098280D01*
X80114216Y51019223D01*
X80202735Y50995505D01*
X80247111Y50969885D01*
X84470502Y46746645D01*
X84498281Y46692129D01*
X84499500Y46676640D01*
X84499500Y45155733D01*
X84502353Y45125304D01*
X84502353Y45125302D01*
X84502354Y45125300D01*
X84530613Y45044541D01*
X84547208Y44997114D01*
X84627845Y44887855D01*
X84627854Y44887846D01*
X84737115Y44807208D01*
X84737116Y44807208D01*
X84737117Y44807207D01*
X84865300Y44762354D01*
X84895733Y44759500D01*
X88104266Y44759501D01*
X88104267Y44759501D01*
X88110352Y44760072D01*
X88134700Y44762354D01*
X88262883Y44807207D01*
X88285851Y44824158D01*
X88372145Y44887846D01*
X88372146Y44887848D01*
X88372150Y44887850D01*
X88452793Y44997117D01*
X88497646Y45125300D01*
X88500500Y45155733D01*
X88500499Y46844266D01*
X88497646Y46874700D01*
X88452793Y47002883D01*
X88452791Y47002885D01*
X88452791Y47002887D01*
X88372154Y47112146D01*
X88372145Y47112155D01*
X88262884Y47192793D01*
X88134704Y47237645D01*
X88134695Y47237647D01*
X88104275Y47240500D01*
X88104267Y47240500D01*
X85433288Y47240500D01*
X85375097Y47259407D01*
X85363286Y47269495D01*
X81521129Y51111514D01*
X81455008Y51177633D01*
X84499500Y51177633D01*
X84499500Y50982368D01*
X84530044Y50789519D01*
X84590382Y50603815D01*
X84665552Y50456285D01*
X84679029Y50429836D01*
X84793799Y50271868D01*
X84931868Y50133799D01*
X85089836Y50019029D01*
X85263813Y49930383D01*
X85449516Y49870045D01*
X85526658Y49857827D01*
X85642368Y49839500D01*
X85642371Y49839500D01*
X87357632Y49839500D01*
X87454056Y49854773D01*
X87550484Y49870045D01*
X87736187Y49930383D01*
X87910164Y50019029D01*
X88068132Y50133799D01*
X88206201Y50271868D01*
X88320971Y50429836D01*
X88409617Y50603813D01*
X88469955Y50789516D01*
X88495451Y50950493D01*
X88500500Y50982368D01*
X88500500Y51177633D01*
X88480136Y51306199D01*
X88469955Y51370484D01*
X88409617Y51556187D01*
X88320971Y51730164D01*
X88206201Y51888132D01*
X88068132Y52026201D01*
X87910164Y52140971D01*
X87910163Y52140972D01*
X87910161Y52140973D01*
X87736185Y52229618D01*
X87550481Y52289956D01*
X87357632Y52320500D01*
X87357629Y52320500D01*
X85642371Y52320500D01*
X85642368Y52320500D01*
X85449518Y52289956D01*
X85263814Y52229618D01*
X85089838Y52140973D01*
X85058721Y52118365D01*
X84931868Y52026201D01*
X84793799Y51888132D01*
X84745086Y51821084D01*
X84679027Y51730162D01*
X84590382Y51556186D01*
X84530044Y51370482D01*
X84499500Y51177633D01*
X81455008Y51177633D01*
X80954913Y51677710D01*
X80929288Y51722092D01*
X80910988Y51790388D01*
X80905577Y51810584D01*
X80826520Y51947516D01*
X80714716Y52059320D01*
X80577784Y52138377D01*
X80425057Y52179300D01*
X80266943Y52179300D01*
X80114216Y52138377D01*
X79977284Y52059320D01*
X79865480Y51947516D01*
X79786423Y51810584D01*
X79745500Y51657857D01*
X76245500Y51657857D01*
X76245500Y52834133D01*
X76245501Y52854843D01*
X76245500Y52854847D01*
X76245500Y52854853D01*
X76227565Y52921789D01*
X76224855Y52931903D01*
X76224150Y52935347D01*
X76223596Y52937155D01*
X76223318Y52937637D01*
X76223318Y52937638D01*
X76197015Y52983196D01*
X76181934Y53009319D01*
X76180759Y53011504D01*
X76180576Y53011750D01*
X76180465Y53011861D01*
X76180465Y53011862D01*
X76148920Y53043407D01*
X76148919Y53043409D01*
X76148917Y53043410D01*
X72277629Y56914945D01*
X72214121Y56978457D01*
X80330500Y56978457D01*
X80330500Y56820343D01*
X80371423Y56667616D01*
X80450480Y56530684D01*
X80562284Y56418880D01*
X80699216Y56339823D01*
X80851943Y56298900D01*
X80851945Y56298900D01*
X81010055Y56298900D01*
X81010057Y56298900D01*
X81162784Y56339823D01*
X81299716Y56418880D01*
X81411520Y56530684D01*
X81490577Y56667616D01*
X81531500Y56820343D01*
X81531500Y56978457D01*
X81490577Y57131184D01*
X81489958Y57132257D01*
X81444763Y57210538D01*
X81431500Y57260037D01*
X81431500Y59220883D01*
X81450407Y59279074D01*
X81460496Y59290886D01*
X81478123Y59308513D01*
X84330498Y62160940D01*
X84385012Y62188716D01*
X84445444Y62179145D01*
X84488709Y62135881D01*
X84499500Y62090935D01*
X84499500Y60655733D01*
X84502353Y60625304D01*
X84502353Y60625302D01*
X84502354Y60625300D01*
X84531153Y60542996D01*
X84547208Y60497114D01*
X84627845Y60387855D01*
X84627854Y60387846D01*
X84737115Y60307208D01*
X84737116Y60307208D01*
X84737117Y60307207D01*
X84865300Y60262354D01*
X84895733Y60259500D01*
X88104266Y60259501D01*
X88104267Y60259501D01*
X88110352Y60260072D01*
X88134700Y60262354D01*
X88262883Y60307207D01*
X88264062Y60308077D01*
X88372145Y60387846D01*
X88372146Y60387848D01*
X88372150Y60387850D01*
X88452793Y60497117D01*
X88497646Y60625300D01*
X88500500Y60655733D01*
X88500499Y62344266D01*
X88497646Y62374700D01*
X88452793Y62502883D01*
X88452791Y62502885D01*
X88452791Y62502887D01*
X88372154Y62612146D01*
X88372145Y62612155D01*
X88262884Y62692793D01*
X88134704Y62737645D01*
X88134695Y62737647D01*
X88104275Y62740500D01*
X88104267Y62740500D01*
X85149051Y62740500D01*
X85090860Y62759407D01*
X85054896Y62808907D01*
X85054896Y62870093D01*
X85079047Y62909503D01*
X85122336Y62952793D01*
X86863994Y64694480D01*
X86900500Y64730986D01*
X86913838Y64754087D01*
X86931082Y64783956D01*
X86964814Y64842383D01*
X86966303Y64844779D01*
X86967568Y64849500D01*
X87000501Y64972412D01*
X87000500Y65052727D01*
X87000500Y65240500D01*
X87019407Y65298691D01*
X87068907Y65334655D01*
X87099500Y65339500D01*
X87357632Y65339500D01*
X87454056Y65354773D01*
X87550484Y65370045D01*
X87736187Y65430383D01*
X87910164Y65519029D01*
X88068132Y65633799D01*
X88206201Y65771868D01*
X88320971Y65929836D01*
X88409617Y66103813D01*
X88469955Y66289516D01*
X88500500Y66482371D01*
X88500500Y66677629D01*
X88500500Y66677633D01*
X88469955Y66870482D01*
X88469955Y66870484D01*
X88409617Y67056187D01*
X88320971Y67230164D01*
X88206201Y67388132D01*
X88068132Y67526201D01*
X87910164Y67640971D01*
X87910163Y67640972D01*
X87910161Y67640973D01*
X87736185Y67729618D01*
X87550481Y67789956D01*
X87357632Y67820500D01*
X87357629Y67820500D01*
X85642371Y67820500D01*
X85642368Y67820500D01*
X85449518Y67789956D01*
X85263814Y67729618D01*
X85089838Y67640973D01*
X85010852Y67583586D01*
X84931868Y67526201D01*
X84793799Y67388132D01*
X84736414Y67309148D01*
X84679027Y67230162D01*
X84590382Y67056186D01*
X84530044Y66870482D01*
X84499500Y66677633D01*
X84499500Y66482368D01*
X84530044Y66289519D01*
X84590382Y66103815D01*
X84659603Y65967960D01*
X84679029Y65929836D01*
X84793799Y65771868D01*
X84931868Y65633799D01*
X85089836Y65519029D01*
X85263813Y65430383D01*
X85449516Y65370045D01*
X85526658Y65357827D01*
X85642368Y65339500D01*
X85642371Y65339500D01*
X85854382Y65339500D01*
X85912573Y65320593D01*
X85948537Y65271093D01*
X85948537Y65209907D01*
X85924386Y65170497D01*
X80607211Y59853226D01*
X80530499Y59776514D01*
X80468684Y59669446D01*
X80468683Y59669443D01*
X80464606Y59662384D01*
X80464606Y59662383D01*
X80430499Y59535087D01*
X80430500Y59497554D01*
X80430500Y57260037D01*
X80417237Y57210538D01*
X80371423Y57131186D01*
X80349283Y57048557D01*
X80330500Y56978457D01*
X72214121Y56978457D01*
X71724494Y57468115D01*
X71696718Y57522632D01*
X71695500Y57538116D01*
X71695500Y57626356D01*
X71692460Y57637703D01*
X71654577Y57779084D01*
X71578530Y57910802D01*
X71565810Y57970649D01*
X71590697Y58026544D01*
X71643685Y58057137D01*
X71664268Y58059300D01*
X73221500Y58059300D01*
X73279691Y58040393D01*
X73315655Y57990893D01*
X73320500Y57960300D01*
X73320500Y57863043D01*
X73361423Y57710316D01*
X73440480Y57573384D01*
X73552284Y57461580D01*
X73689216Y57382523D01*
X73841943Y57341600D01*
X73841945Y57341600D01*
X74000055Y57341600D01*
X74000057Y57341600D01*
X74152784Y57382523D01*
X74289716Y57461580D01*
X74401520Y57573384D01*
X74480577Y57710316D01*
X74521500Y57863043D01*
X74521500Y58021157D01*
X74480577Y58173884D01*
X74401520Y58310816D01*
X74289716Y58422620D01*
X74152784Y58501677D01*
X74000057Y58542600D01*
X73841943Y58542600D01*
X73836102Y58541831D01*
X73775941Y58552981D01*
X73753200Y58569957D01*
X73708811Y58614316D01*
X73708796Y58614346D01*
X73708789Y58614338D01*
X73708788Y58614339D01*
X73677862Y58645265D01*
X73677859Y58645267D01*
X73677858Y58645268D01*
X73677772Y58645334D01*
X73640986Y58666555D01*
X73640962Y58666581D01*
X73640958Y58666572D01*
X73603638Y58688119D01*
X73603552Y58688154D01*
X73603544Y58688157D01*
X73603538Y58688159D01*
X73603536Y58688160D01*
X73561862Y58699312D01*
X73520883Y58710292D01*
X73520846Y58710302D01*
X73520746Y58710315D01*
X73520743Y58710315D01*
X73476412Y58710300D01*
X68286264Y58710300D01*
X68286109Y58710310D01*
X68279788Y58710309D01*
X68234453Y58710301D01*
X68234413Y58710300D01*
X68194111Y58710300D01*
X68150964Y58698730D01*
X68150947Y58698726D01*
X68111358Y58688118D01*
X68111309Y58688098D01*
X68074796Y58667007D01*
X68074779Y58666997D01*
X68037115Y58645253D01*
X68009382Y58617510D01*
X68009372Y58617501D01*
X67972310Y58580438D01*
X67972206Y58580320D01*
X66245893Y56853321D01*
X66245881Y56853308D01*
X66215508Y56822935D01*
X66193714Y56785170D01*
X66193710Y56785164D01*
X66193707Y56785157D01*
X66185107Y56770262D01*
X66172665Y56748710D01*
X66162039Y56709018D01*
X66162034Y56709000D01*
X66150497Y56665945D01*
X66150491Y56665895D01*
X66150500Y56622576D01*
X66150500Y54940777D01*
X66150467Y54897995D01*
X66150498Y54897752D01*
X66161647Y54856143D01*
X66161666Y54856072D01*
X66172587Y54815188D01*
X66172610Y54815133D01*
X66172676Y54814974D01*
X66172681Y54814966D01*
X66172682Y54814962D01*
X66193781Y54778418D01*
X66193801Y54778342D01*
X66193819Y54778352D01*
X66215385Y54740931D01*
X66215523Y54740751D01*
X66215533Y54740741D01*
X66215535Y54740738D01*
X66245528Y54710745D01*
X66245531Y54710742D01*
X66245518Y54710730D01*
X66245583Y54710690D01*
X66502537Y54453337D01*
X66572558Y54383208D01*
X66600293Y54328670D01*
X66601500Y54313259D01*
X66601500Y32958880D01*
X66582593Y32900689D01*
X66533093Y32864725D01*
X66471907Y32864725D01*
X66432508Y32888865D01*
X65274508Y34046496D01*
X65246721Y34101008D01*
X65245500Y34116511D01*
X65245500Y34188556D01*
X65245500Y34188557D01*
X65204577Y34341284D01*
X65125520Y34478216D01*
X65113443Y34490293D01*
X65074496Y34529241D01*
X65046719Y34583758D01*
X65045500Y34599244D01*
X65045500Y50341799D01*
X65045500Y50350496D01*
X65045507Y50407278D01*
X65045500Y50407305D01*
X65045500Y50407327D01*
X65031654Y50458999D01*
X65018225Y50509142D01*
X65018213Y50509162D01*
X65018207Y50509187D01*
X64991019Y50556277D01*
X64991021Y50556279D01*
X64991011Y50556290D01*
X64965510Y50600474D01*
X64965507Y50600477D01*
X64965505Y50600481D01*
X64965484Y50600509D01*
X64928486Y50637508D01*
X64928486Y50637509D01*
X64928477Y50637516D01*
X64029488Y51536724D01*
X64001717Y51591244D01*
X64000500Y51606719D01*
X64000500Y52604273D01*
X64000499Y52604275D01*
X63997646Y52634695D01*
X63997646Y52634699D01*
X63952793Y52762882D01*
X63921506Y52805274D01*
X63872154Y52872145D01*
X63872152Y52872147D01*
X63872150Y52872150D01*
X63872146Y52872153D01*
X63872144Y52872155D01*
X63762883Y52952793D01*
X63634703Y52997645D01*
X63634694Y52997647D01*
X63604274Y53000500D01*
X63604266Y53000500D01*
X62395734Y53000500D01*
X62395725Y53000500D01*
X62365305Y52997647D01*
X62365301Y52997646D01*
X62306197Y52976965D01*
X62245027Y52975593D01*
X62194733Y53010437D01*
X62174525Y53068190D01*
X62174500Y53070410D01*
X62174500Y60142835D01*
X62193407Y60201026D01*
X62203496Y60212839D01*
X62961161Y60970504D01*
X63015678Y60998281D01*
X63031165Y60999500D01*
X63604273Y60999500D01*
X63604273Y60999501D01*
X63634699Y61002354D01*
X63762882Y61047207D01*
X63872150Y61127850D01*
X63952793Y61237118D01*
X63997646Y61365301D01*
X64000499Y61395727D01*
X64000500Y61395727D01*
X64000500Y62604273D01*
X64000499Y62604275D01*
X63999761Y62612146D01*
X63997646Y62634699D01*
X63952793Y62762882D01*
X63918825Y62808907D01*
X63872154Y62872145D01*
X63872152Y62872147D01*
X63872150Y62872150D01*
X63872146Y62872153D01*
X63872144Y62872155D01*
X63762883Y62952793D01*
X63634703Y62997645D01*
X63634694Y62997647D01*
X63604274Y63000500D01*
X63604266Y63000500D01*
X62395734Y63000500D01*
X62395725Y63000500D01*
X62365305Y62997647D01*
X62365296Y62997645D01*
X62237116Y62952793D01*
X62127855Y62872155D01*
X62127845Y62872145D01*
X62047207Y62762884D01*
X62002355Y62634704D01*
X62002353Y62634695D01*
X61999500Y62604275D01*
X61999500Y62031165D01*
X61980593Y61972974D01*
X61970504Y61961161D01*
X60929883Y60920540D01*
X60890256Y60861232D01*
X60853223Y60805809D01*
X60800420Y60678330D01*
X60800420Y60678328D01*
X60773500Y60542996D01*
X60773500Y45044541D01*
X60754593Y44986350D01*
X60705093Y44950386D01*
X60643907Y44950386D01*
X60625002Y44958804D01*
X60582788Y44983175D01*
X60582786Y44983176D01*
X60582784Y44983177D01*
X60430057Y45024100D01*
X60271943Y45024100D01*
X60171230Y44997114D01*
X60119216Y44983177D01*
X59982284Y44904120D01*
X59870476Y44792312D01*
X59867040Y44787833D01*
X59816616Y44753177D01*
X59788498Y44749100D01*
X58038835Y44749100D01*
X57980644Y44768007D01*
X57968831Y44778096D01*
X37739511Y65007416D01*
X37711734Y65061933D01*
X37711363Y65090348D01*
X37712100Y65095944D01*
X37712100Y65254056D01*
X37700140Y65298691D01*
X37671177Y65406784D01*
X37592120Y65543716D01*
X37480316Y65655520D01*
X37343384Y65734577D01*
X37190657Y65775500D01*
X37032543Y65775500D01*
X36879816Y65734577D01*
X36742884Y65655520D01*
X36631076Y65543712D01*
X36627640Y65539233D01*
X36577216Y65504577D01*
X36549098Y65500500D01*
X34440947Y65500500D01*
X34399554Y65489409D01*
X34358160Y65478318D01*
X34289717Y65438802D01*
X34283941Y65435468D01*
X26653083Y57804612D01*
X26598566Y57776835D01*
X26570158Y57776463D01*
X26564559Y57777200D01*
X26564557Y57777200D01*
X26406443Y57777200D01*
X26253716Y57736277D01*
X26116784Y57657220D01*
X26004980Y57545416D01*
X25925923Y57408484D01*
X25885000Y57255757D01*
X25885000Y57097643D01*
X25925923Y56944916D01*
X26004980Y56807984D01*
X26116784Y56696180D01*
X26151350Y56676223D01*
X26192292Y56630755D01*
X26198688Y56569904D01*
X26168095Y56516916D01*
X26151353Y56504751D01*
X26133108Y56494217D01*
X26109384Y56480520D01*
X25997580Y56368716D01*
X25918523Y56231784D01*
X25877600Y56079057D01*
X25877600Y55920943D01*
X25918523Y55768216D01*
X25997580Y55631284D01*
X26109384Y55519480D01*
X26246316Y55440423D01*
X26399043Y55399500D01*
X26399045Y55399500D01*
X26557158Y55399500D01*
X26557158Y55399501D01*
X26638130Y55421197D01*
X26681661Y55421196D01*
X26681813Y55422347D01*
X26688246Y55421500D01*
X26688247Y55421500D01*
X27423265Y55421500D01*
X27481456Y55402593D01*
X27517420Y55353093D01*
X27517420Y55291907D01*
X27493269Y55252496D01*
X23939669Y51698896D01*
X23885152Y51671119D01*
X23869665Y51669900D01*
X23465935Y51669900D01*
X23407744Y51688807D01*
X23395931Y51698896D01*
X20777985Y54316842D01*
X20750208Y54371359D01*
X20759779Y54431791D01*
X20773700Y54450950D01*
X20773466Y54451130D01*
X20777415Y54456279D01*
X20777415Y54456280D01*
X20777420Y54456284D01*
X20856477Y54593216D01*
X20897400Y54745943D01*
X20897400Y54904057D01*
X20856477Y55056784D01*
X20777420Y55193716D01*
X20665616Y55305520D01*
X20528684Y55384577D01*
X20375957Y55425500D01*
X20217843Y55425500D01*
X20065116Y55384577D01*
X19928184Y55305520D01*
X19816380Y55193716D01*
X19737323Y55056784D01*
X19696400Y54904057D01*
X19696400Y54745943D01*
X19737323Y54593216D01*
X19816380Y54456284D01*
X19928184Y54344480D01*
X19928186Y54344479D01*
X19928189Y54344476D01*
X19933335Y54340527D01*
X19932567Y54339527D01*
X19968968Y54299109D01*
X19974158Y54284455D01*
X19993583Y54211957D01*
X20036431Y54137743D01*
X20036433Y54137741D01*
X20036435Y54137738D01*
X23090238Y51083935D01*
X23090240Y51083934D01*
X23090242Y51083932D01*
X23164457Y51041084D01*
X23164455Y51041084D01*
X23164459Y51041083D01*
X23164461Y51041082D01*
X23247247Y51018900D01*
X23793065Y51018900D01*
X23851256Y50999993D01*
X23887220Y50950493D01*
X23887220Y50889307D01*
X23863069Y50849896D01*
X20464483Y47451312D01*
X20409966Y47423535D01*
X20381558Y47423163D01*
X20375959Y47423900D01*
X20375957Y47423900D01*
X20217843Y47423900D01*
X20065116Y47382977D01*
X19928184Y47303920D01*
X19816380Y47192116D01*
X19737323Y47055184D01*
X19696400Y46902457D01*
X19696400Y46744343D01*
X19737323Y46591616D01*
X19816380Y46454684D01*
X19928184Y46342880D01*
X20065116Y46263823D01*
X20217843Y46222900D01*
X20217845Y46222900D01*
X20375955Y46222900D01*
X20375957Y46222900D01*
X20528684Y46263823D01*
X20665616Y46342880D01*
X20777420Y46454684D01*
X20856477Y46591616D01*
X20897400Y46744343D01*
X20897400Y46902457D01*
X20897398Y46902462D01*
X20896662Y46908056D01*
X20907810Y46968218D01*
X20924808Y46990983D01*
X29772465Y55838638D01*
X29775972Y55844713D01*
X29815318Y55912862D01*
X29837500Y55995647D01*
X29837500Y56613098D01*
X29856407Y56671289D01*
X29876233Y56691640D01*
X29880711Y56695077D01*
X29880711Y56695078D01*
X29880716Y56695080D01*
X29992520Y56806884D01*
X30071577Y56943816D01*
X30095344Y57032520D01*
X30128668Y57083832D01*
X30185790Y57105759D01*
X30244890Y57089923D01*
X30260975Y57076899D01*
X31340604Y55997270D01*
X31368381Y55942753D01*
X31369600Y55927266D01*
X31369600Y55741253D01*
X31369600Y55655547D01*
X31389162Y55582537D01*
X31391783Y55572757D01*
X31434631Y55498543D01*
X31434633Y55498541D01*
X31434635Y55498538D01*
X32013905Y54919268D01*
X32041681Y54864753D01*
X32042900Y54849266D01*
X32042900Y54710743D01*
X32083823Y54558016D01*
X32162880Y54421084D01*
X32274684Y54309280D01*
X32411616Y54230223D01*
X32564343Y54189300D01*
X32564345Y54189300D01*
X32722455Y54189300D01*
X32722457Y54189300D01*
X32875184Y54230223D01*
X33012116Y54309280D01*
X33123920Y54421084D01*
X33202977Y54558016D01*
X33243900Y54710743D01*
X33243900Y54868857D01*
X33202977Y55021584D01*
X33123920Y55158516D01*
X33012116Y55270320D01*
X32875184Y55349377D01*
X32875183Y55349378D01*
X32875180Y55349379D01*
X32840512Y55358668D01*
X32789198Y55391992D01*
X32767272Y55449114D01*
X32783108Y55508214D01*
X32796128Y55524293D01*
X32902420Y55630584D01*
X32981477Y55767516D01*
X33022400Y55920243D01*
X33022400Y56078357D01*
X32981477Y56231084D01*
X32902420Y56368016D01*
X32790616Y56479820D01*
X32740881Y56508535D01*
X32704646Y56544770D01*
X32682365Y56583362D01*
X30011728Y59253999D01*
X29983953Y59308513D01*
X29993524Y59368945D01*
X30036789Y59412210D01*
X30081734Y59423000D01*
X35140098Y59423000D01*
X35198289Y59404093D01*
X35218640Y59384267D01*
X35222076Y59379789D01*
X35222078Y59379787D01*
X35222080Y59379784D01*
X35333884Y59267980D01*
X35470816Y59188923D01*
X35623543Y59148000D01*
X35623545Y59148000D01*
X35781655Y59148000D01*
X35781657Y59148000D01*
X35934384Y59188923D01*
X36071316Y59267980D01*
X36183120Y59379784D01*
X36183123Y59379789D01*
X36186560Y59384267D01*
X36236984Y59418923D01*
X36265102Y59423000D01*
X37747365Y59423000D01*
X37805556Y59404093D01*
X37817369Y59394004D01*
X40306488Y56904885D01*
X40334265Y56850368D01*
X40334638Y56821962D01*
X40333900Y56816359D01*
X40333900Y56816357D01*
X40333900Y56658243D01*
X40374823Y56505516D01*
X40453880Y56368584D01*
X40565684Y56256780D01*
X40702616Y56177723D01*
X40855343Y56136800D01*
X40855345Y56136800D01*
X41013455Y56136800D01*
X41013457Y56136800D01*
X41166184Y56177723D01*
X41303116Y56256780D01*
X41414920Y56368584D01*
X41493977Y56505516D01*
X41534900Y56658243D01*
X41534900Y56816357D01*
X41493977Y56969084D01*
X41414920Y57106016D01*
X41303116Y57217820D01*
X41166184Y57296877D01*
X41013457Y57337800D01*
X40855343Y57337800D01*
X40855341Y57337800D01*
X40849738Y57337062D01*
X40789577Y57348215D01*
X40766815Y57365212D01*
X39465020Y58667007D01*
X38123062Y60008965D01*
X38123059Y60008967D01*
X38123058Y60008968D01*
X38123057Y60008969D01*
X38048842Y60051817D01*
X38048844Y60051817D01*
X38016721Y60060424D01*
X37966053Y60074000D01*
X37966051Y60074000D01*
X36265102Y60074000D01*
X36206911Y60092907D01*
X36186560Y60112733D01*
X36183123Y60117212D01*
X36183121Y60117214D01*
X36183120Y60117216D01*
X36071316Y60229020D01*
X35934384Y60308077D01*
X35781657Y60349000D01*
X35623543Y60349000D01*
X35470816Y60308077D01*
X35333884Y60229020D01*
X35222076Y60117212D01*
X35218640Y60112733D01*
X35168216Y60078077D01*
X35140098Y60074000D01*
X30082135Y60074000D01*
X30023944Y60092907D01*
X29987980Y60142407D01*
X29987980Y60203593D01*
X30012131Y60243004D01*
X34589631Y64820504D01*
X34644148Y64848281D01*
X34659635Y64849500D01*
X36549098Y64849500D01*
X36607289Y64830593D01*
X36627640Y64810767D01*
X36631076Y64806289D01*
X36631078Y64806287D01*
X36631080Y64806284D01*
X36742884Y64694480D01*
X36879816Y64615423D01*
X37032543Y64574500D01*
X37032545Y64574500D01*
X37190656Y64574500D01*
X37190657Y64574500D01*
X37190657Y64574501D01*
X37196252Y64575237D01*
X37256414Y64564091D01*
X37279184Y64547089D01*
X57602535Y44223738D01*
X57602534Y44223738D01*
X57637857Y44188416D01*
X57663138Y44163135D01*
X57737362Y44120282D01*
X57820147Y44098100D01*
X59788498Y44098100D01*
X59846689Y44079193D01*
X59867040Y44059367D01*
X59873042Y44051545D01*
X59893466Y43993869D01*
X59893500Y43991278D01*
X59893500Y22532254D01*
X59893480Y22488288D01*
X59893498Y22488154D01*
X59904325Y22447744D01*
X59904330Y22447706D01*
X59904335Y22447707D01*
X59915634Y22405469D01*
X59915671Y22405380D01*
X59937032Y22368382D01*
X59937052Y22368347D01*
X59958449Y22331250D01*
X59958533Y22331141D01*
X59958535Y22331138D01*
X59978846Y22310827D01*
X59989066Y22300607D01*
X59989059Y22300601D01*
X59989093Y22300580D01*
X60701572Y21587495D01*
X60717580Y21571474D01*
X60745335Y21516945D01*
X60735738Y21456517D01*
X60692455Y21413271D01*
X60647547Y21402500D01*
X60590943Y21402500D01*
X60590941Y21402500D01*
X60585338Y21401762D01*
X60525177Y21412915D01*
X60502415Y21429912D01*
X59381496Y22550831D01*
X59353719Y22605348D01*
X59352500Y22620835D01*
X59352500Y40642798D01*
X59352501Y40673251D01*
X59331205Y40752727D01*
X59330318Y40756038D01*
X59330317Y40756039D01*
X59330317Y40756041D01*
X59330316Y40756042D01*
X59287466Y40830260D01*
X59287465Y40830262D01*
X59226862Y40890865D01*
X59226860Y40890866D01*
X59221218Y40896509D01*
X59221214Y40896512D01*
X59152087Y40965639D01*
X45076363Y55041464D01*
X45076362Y55041465D01*
X45002138Y55084318D01*
X44941876Y55100465D01*
X44941875Y55100466D01*
X44941874Y55100466D01*
X44919356Y55106500D01*
X44919354Y55106500D01*
X44919353Y55106500D01*
X35279200Y55106500D01*
X35221009Y55125407D01*
X35185045Y55174907D01*
X35180200Y55205500D01*
X35180200Y55724852D01*
X35180200Y55724853D01*
X35165950Y55778035D01*
X35165093Y55781232D01*
X35158019Y55807636D01*
X35158015Y55807645D01*
X35115168Y55881858D01*
X35115167Y55881859D01*
X35115166Y55881860D01*
X35115165Y55881862D01*
X34438611Y56558416D01*
X34410834Y56612933D01*
X34410463Y56641348D01*
X34411200Y56646944D01*
X34411200Y56805056D01*
X34410710Y56806885D01*
X34370277Y56957784D01*
X34291220Y57094716D01*
X34179416Y57206520D01*
X34042484Y57285577D01*
X33889757Y57326500D01*
X33731643Y57326500D01*
X33578916Y57285577D01*
X33441984Y57206520D01*
X33330180Y57094716D01*
X33251123Y56957784D01*
X33210200Y56805057D01*
X33210200Y56646943D01*
X33251123Y56494216D01*
X33330180Y56357284D01*
X33441984Y56245480D01*
X33578916Y56166423D01*
X33731643Y56125500D01*
X33731645Y56125500D01*
X33889756Y56125500D01*
X33889757Y56125500D01*
X33889757Y56125501D01*
X33895352Y56126237D01*
X33955514Y56115091D01*
X33978284Y56098089D01*
X34500204Y55576169D01*
X34527981Y55521652D01*
X34529200Y55506165D01*
X34529200Y48393303D01*
X34510293Y48335112D01*
X34490472Y48314764D01*
X34485987Y48311323D01*
X34485984Y48311320D01*
X34374180Y48199516D01*
X34295123Y48062584D01*
X34254200Y47909857D01*
X34254200Y47751743D01*
X34295123Y47599016D01*
X34374180Y47462084D01*
X34485984Y47350280D01*
X34622916Y47271223D01*
X34775643Y47230300D01*
X34775645Y47230300D01*
X34933755Y47230300D01*
X34933757Y47230300D01*
X35086484Y47271223D01*
X35223416Y47350280D01*
X35255698Y47382563D01*
X35310213Y47410338D01*
X35370645Y47400767D01*
X35413910Y47357502D01*
X35424700Y47312557D01*
X35424700Y44839644D01*
X35405793Y44781453D01*
X35395704Y44769641D01*
X35344682Y44718619D01*
X35344680Y44718617D01*
X35344680Y44718616D01*
X35265623Y44581684D01*
X35224700Y44428957D01*
X35224700Y44270843D01*
X35265623Y44118116D01*
X35344680Y43981184D01*
X35395705Y43930159D01*
X35423481Y43875644D01*
X35424700Y43860157D01*
X35424700Y43581001D01*
X35405793Y43522810D01*
X35395704Y43510997D01*
X32898903Y41014196D01*
X32844386Y40986419D01*
X32828899Y40985200D01*
X32756743Y40985200D01*
X32604016Y40944277D01*
X32467084Y40865220D01*
X32355280Y40753416D01*
X32276223Y40616484D01*
X32235300Y40463757D01*
X32235300Y40305643D01*
X32276223Y40152916D01*
X32355280Y40015984D01*
X32406305Y39964959D01*
X32434081Y39910444D01*
X32435300Y39894957D01*
X32435300Y38558301D01*
X32416393Y38500110D01*
X32406304Y38488297D01*
X30581003Y36662996D01*
X30526486Y36635219D01*
X30510999Y36634000D01*
X29646799Y36634000D01*
X29588608Y36652907D01*
X29576795Y36662997D01*
X29302896Y36936897D01*
X29275119Y36991413D01*
X29273900Y37006900D01*
X29273900Y37079056D01*
X29273900Y37079057D01*
X29232977Y37231784D01*
X29153920Y37368716D01*
X29042116Y37480520D01*
X28905184Y37559577D01*
X28752457Y37600500D01*
X28594343Y37600500D01*
X28441616Y37559577D01*
X28304684Y37480520D01*
X28192880Y37368716D01*
X28113823Y37231784D01*
X28072900Y37079057D01*
X28072900Y36920943D01*
X28113823Y36768216D01*
X28192880Y36631284D01*
X28304684Y36519480D01*
X28441616Y36440423D01*
X28594343Y36399500D01*
X28666500Y36399500D01*
X28724691Y36380593D01*
X28736503Y36370504D01*
X28803502Y36303506D01*
X28831280Y36248990D01*
X28821709Y36188558D01*
X28803503Y36163498D01*
X26254874Y33614868D01*
X26200357Y33587091D01*
X26139925Y33596662D01*
X26096660Y33639927D01*
X26086717Y33671948D01*
X26086400Y33674355D01*
X26086400Y33674356D01*
X26086400Y33674357D01*
X26045477Y33827084D01*
X25966420Y33964016D01*
X25945085Y33985351D01*
X25915396Y34015041D01*
X25887619Y34069558D01*
X25886400Y34085044D01*
X25886400Y37165226D01*
X25886400Y37165227D01*
X25859107Y37267087D01*
X25806380Y37358413D01*
X25787077Y37377716D01*
X25731813Y37432981D01*
X25731813Y37432980D01*
X23212013Y39952780D01*
X23212010Y39952782D01*
X23212009Y39952783D01*
X23212008Y39952784D01*
X23120691Y40005506D01*
X23120693Y40005506D01*
X23081170Y40016096D01*
X23018827Y40032800D01*
X21302873Y40032800D01*
X21251943Y40019154D01*
X21201011Y40005507D01*
X21156683Y39979913D01*
X21156682Y39979914D01*
X21109688Y39952781D01*
X18935105Y37778198D01*
X18880588Y37750421D01*
X18820156Y37759992D01*
X18776891Y37803257D01*
X18767320Y37863689D01*
X18769469Y37873807D01*
X18782100Y37920943D01*
X18782100Y38079057D01*
X18782098Y38079062D01*
X18781362Y38084656D01*
X18792510Y38144818D01*
X18809508Y38167583D01*
X24107130Y43465204D01*
X24161647Y43492981D01*
X24177134Y43494200D01*
X32051298Y43494200D01*
X32109489Y43475293D01*
X32129840Y43455467D01*
X32133276Y43450989D01*
X32133278Y43450987D01*
X32133280Y43450984D01*
X32245084Y43339180D01*
X32382016Y43260123D01*
X32534743Y43219200D01*
X32534745Y43219200D01*
X32692855Y43219200D01*
X32692857Y43219200D01*
X32845584Y43260123D01*
X32982516Y43339180D01*
X33094320Y43450984D01*
X33173377Y43587916D01*
X33214300Y43740643D01*
X33214300Y43898757D01*
X33173377Y44051484D01*
X33094320Y44188416D01*
X32982516Y44300220D01*
X32845584Y44379277D01*
X32692857Y44420200D01*
X32534743Y44420200D01*
X32382016Y44379277D01*
X32245084Y44300220D01*
X32133276Y44188412D01*
X32129840Y44183933D01*
X32079416Y44149277D01*
X32051298Y44145200D01*
X24050232Y44145200D01*
X24050216Y44145201D01*
X24044153Y44145201D01*
X23958447Y44145201D01*
X23958444Y44145201D01*
X23875662Y44123019D01*
X23875658Y44123017D01*
X23801438Y44080166D01*
X23740834Y44019563D01*
X23740835Y44019562D01*
X23740833Y44019560D01*
X18349183Y38627912D01*
X18294666Y38600135D01*
X18266258Y38599763D01*
X18260659Y38600500D01*
X18260657Y38600500D01*
X18102543Y38600500D01*
X17949816Y38559577D01*
X17812884Y38480520D01*
X17701080Y38368716D01*
X17622023Y38231784D01*
X17581100Y38079057D01*
X17581100Y37920943D01*
X17622023Y37768216D01*
X17701080Y37631284D01*
X17812884Y37519480D01*
X17949816Y37440423D01*
X18102543Y37399500D01*
X18102545Y37399500D01*
X18260654Y37399500D01*
X18260657Y37399500D01*
X18307777Y37412126D01*
X18368876Y37408924D01*
X18416426Y37370419D01*
X18432262Y37311318D01*
X18410336Y37254197D01*
X18403404Y37246498D01*
X15211683Y34054777D01*
X12044004Y30887098D01*
X11989487Y30859321D01*
X11929055Y30868892D01*
X11885790Y30912157D01*
X11875000Y30957102D01*
X11875000Y31035456D01*
X11869785Y31054918D01*
X11834077Y31188184D01*
X11755020Y31325116D01*
X11643216Y31436920D01*
X11643213Y31436922D01*
X11643212Y31436923D01*
X11638728Y31440364D01*
X11604075Y31490791D01*
X11600000Y31518903D01*
X11600000Y48528352D01*
X11600000Y48528353D01*
X11577818Y48611138D01*
X11577818Y48611139D01*
X11577818Y48611140D01*
X11534968Y48685358D01*
X11534967Y48685359D01*
X11534966Y48685360D01*
X11534965Y48685362D01*
X11024456Y49195871D01*
X10996679Y49250388D01*
X11006249Y49310818D01*
X11019873Y49337555D01*
X11019875Y49337560D01*
X11019876Y49337562D01*
X11073401Y49502294D01*
X11073402Y49502298D01*
X11100500Y49673386D01*
X11100500Y49846615D01*
X11073402Y50017703D01*
X11073401Y50017707D01*
X11019876Y50182439D01*
X11019874Y50182442D01*
X11019873Y50182443D01*
X11019873Y50182445D01*
X10941232Y50336788D01*
X10839414Y50476928D01*
X10716928Y50599414D01*
X10576788Y50701232D01*
X10576787Y50701233D01*
X10576785Y50701234D01*
X10422441Y50779875D01*
X10422438Y50779877D01*
X10257706Y50833402D01*
X10257702Y50833403D01*
X10086614Y50860500D01*
X10086611Y50860500D01*
X9913389Y50860500D01*
X9913386Y50860500D01*
X9742297Y50833403D01*
X9742293Y50833402D01*
X9577561Y50779877D01*
X9577558Y50779875D01*
X9423214Y50701234D01*
X9283073Y50599415D01*
X9160585Y50476927D01*
X9058766Y50336786D01*
X8980125Y50182442D01*
X8980123Y50182439D01*
X8926598Y50017707D01*
X8926597Y50017703D01*
X8899500Y49846615D01*
X8899500Y49673386D01*
X8926597Y49502298D01*
X8926598Y49502294D01*
X8980123Y49337562D01*
X8980125Y49337559D01*
X9026403Y49246731D01*
X9058768Y49183212D01*
X9160586Y49043072D01*
X9283072Y48920586D01*
X9423212Y48818768D01*
X9577555Y48740127D01*
X9577557Y48740127D01*
X9577558Y48740126D01*
X9577561Y48740124D01*
X9742293Y48686599D01*
X9742297Y48686598D01*
X9913386Y48659500D01*
X9913389Y48659500D01*
X10086614Y48659500D01*
X10257702Y48686598D01*
X10257706Y48686599D01*
X10422438Y48740124D01*
X10422440Y48740125D01*
X10422442Y48740127D01*
X10422445Y48740127D01*
X10449180Y48753750D01*
X10509610Y48763321D01*
X10564127Y48735545D01*
X10564129Y48735544D01*
X10920004Y48379669D01*
X10947781Y48325152D01*
X10949000Y48309665D01*
X10949000Y31518903D01*
X10930093Y31460712D01*
X10910272Y31440364D01*
X10905787Y31436923D01*
X10793980Y31325116D01*
X10714921Y31188182D01*
X10714921Y31188181D01*
X10691105Y31099298D01*
X10657781Y31047984D01*
X10600659Y31026058D01*
X10541559Y31041894D01*
X10525475Y31054918D01*
X8633296Y32947097D01*
X8605519Y33001614D01*
X8604300Y33017101D01*
X8604300Y52386615D01*
X8899500Y52386615D01*
X8899500Y52213386D01*
X8926597Y52042298D01*
X8926598Y52042294D01*
X8980123Y51877562D01*
X8980125Y51877559D01*
X9055226Y51730162D01*
X9058768Y51723212D01*
X9160586Y51583072D01*
X9283072Y51460586D01*
X9423212Y51358768D01*
X9577555Y51280127D01*
X9577557Y51280127D01*
X9577558Y51280126D01*
X9577561Y51280124D01*
X9742293Y51226599D01*
X9742297Y51226598D01*
X9913386Y51199500D01*
X9913389Y51199500D01*
X10086614Y51199500D01*
X10257702Y51226598D01*
X10257706Y51226599D01*
X10422438Y51280124D01*
X10422440Y51280126D01*
X10422445Y51280127D01*
X10576788Y51358768D01*
X10716928Y51460586D01*
X10839414Y51583072D01*
X10941232Y51723212D01*
X11019873Y51877555D01*
X11019874Y51877560D01*
X11019876Y51877562D01*
X11073401Y52042294D01*
X11073402Y52042298D01*
X11100500Y52213386D01*
X11100500Y52386615D01*
X11073402Y52557703D01*
X11073401Y52557707D01*
X11019876Y52722439D01*
X11019874Y52722443D01*
X11006250Y52749182D01*
X10996679Y52809615D01*
X11024457Y52864131D01*
X11373731Y53213404D01*
X11428247Y53241181D01*
X11443734Y53242400D01*
X11687051Y53242400D01*
X11745242Y53223493D01*
X11781206Y53173993D01*
X11781206Y53112807D01*
X11757056Y53073399D01*
X11727068Y53043410D01*
X11700585Y53016927D01*
X11598766Y52876786D01*
X11520125Y52722442D01*
X11520123Y52722439D01*
X11466598Y52557707D01*
X11466597Y52557703D01*
X11439500Y52386615D01*
X11439500Y52213386D01*
X11466597Y52042298D01*
X11466598Y52042294D01*
X11520123Y51877562D01*
X11520125Y51877559D01*
X11595226Y51730162D01*
X11598768Y51723212D01*
X11700586Y51583072D01*
X11823072Y51460586D01*
X11963212Y51358768D01*
X12117555Y51280127D01*
X12117557Y51280127D01*
X12117558Y51280126D01*
X12117561Y51280124D01*
X12282293Y51226599D01*
X12282297Y51226598D01*
X12453386Y51199500D01*
X12453389Y51199500D01*
X12626614Y51199500D01*
X12797702Y51226598D01*
X12797706Y51226599D01*
X12962438Y51280124D01*
X12962440Y51280125D01*
X12962442Y51280127D01*
X12962445Y51280127D01*
X12989180Y51293750D01*
X13049610Y51303321D01*
X13104127Y51275545D01*
X13104129Y51275544D01*
X13413704Y50965969D01*
X13441481Y50911452D01*
X13442700Y50895965D01*
X13442700Y39642735D01*
X13423793Y39584544D01*
X13413705Y39572733D01*
X13390136Y39549164D01*
X13390131Y39549158D01*
X13347282Y39474940D01*
X13347281Y39474940D01*
X13347282Y39474939D01*
X13325100Y39392153D01*
X13325100Y35385503D01*
X13306193Y35327312D01*
X13286372Y35306964D01*
X13281887Y35303523D01*
X13281884Y35303520D01*
X13170080Y35191716D01*
X13091023Y35054784D01*
X13050100Y34902057D01*
X13050100Y34743943D01*
X13091023Y34591216D01*
X13170080Y34454284D01*
X13281884Y34342480D01*
X13418816Y34263423D01*
X13571543Y34222500D01*
X13571545Y34222500D01*
X13729655Y34222500D01*
X13729657Y34222500D01*
X13882384Y34263423D01*
X14019316Y34342480D01*
X14131120Y34454284D01*
X14210177Y34591216D01*
X14251100Y34743943D01*
X14251100Y34902057D01*
X14210177Y35054784D01*
X14131120Y35191716D01*
X14019316Y35303520D01*
X14019313Y35303522D01*
X14019312Y35303523D01*
X14014828Y35306964D01*
X13980175Y35357391D01*
X13976100Y35385503D01*
X13976100Y38286711D01*
X13995007Y38344902D01*
X14044507Y38380866D01*
X14105693Y38380866D01*
X14124592Y38372452D01*
X14177816Y38341723D01*
X14330543Y38300800D01*
X14330545Y38300800D01*
X14488655Y38300800D01*
X14488657Y38300800D01*
X14641384Y38341723D01*
X14778316Y38420780D01*
X14890120Y38532584D01*
X14969177Y38669516D01*
X15010100Y38822243D01*
X15010100Y38980357D01*
X14969177Y39133084D01*
X14890120Y39270016D01*
X14778316Y39381820D01*
X14778313Y39381822D01*
X14778312Y39381823D01*
X14773828Y39385264D01*
X14739175Y39435691D01*
X14735100Y39463803D01*
X14735100Y47740566D01*
X14754007Y47798757D01*
X14803507Y47834721D01*
X14864693Y47834721D01*
X14904101Y47810572D01*
X15746455Y46968218D01*
X16562788Y46151885D01*
X16590565Y46097368D01*
X16590938Y46068962D01*
X16590200Y46063359D01*
X16590200Y46063357D01*
X16590200Y45905243D01*
X16631123Y45752516D01*
X16710180Y45615584D01*
X16821984Y45503780D01*
X16958916Y45424723D01*
X17111643Y45383800D01*
X17111645Y45383800D01*
X17269755Y45383800D01*
X17269757Y45383800D01*
X17422484Y45424723D01*
X17559416Y45503780D01*
X17671220Y45615584D01*
X17750277Y45752516D01*
X17791200Y45905243D01*
X17791200Y46063357D01*
X17750277Y46216084D01*
X17671220Y46353016D01*
X17559416Y46464820D01*
X17422484Y46543877D01*
X17269757Y46584800D01*
X17111643Y46584800D01*
X17111641Y46584800D01*
X17106038Y46584062D01*
X17045877Y46595215D01*
X17023115Y46612212D01*
X15351296Y48284031D01*
X15323519Y48338548D01*
X15322300Y48354035D01*
X15322300Y52118365D01*
X15341207Y52176556D01*
X15390707Y52212520D01*
X15451893Y52212520D01*
X15491304Y52188369D01*
X16234104Y51445569D01*
X16261881Y51391052D01*
X16263100Y51375565D01*
X16263100Y50439303D01*
X16244193Y50381112D01*
X16224372Y50360764D01*
X16219887Y50357323D01*
X16219884Y50357320D01*
X16108080Y50245516D01*
X16029023Y50108584D01*
X15988100Y49955857D01*
X15988100Y49797743D01*
X16029023Y49645016D01*
X16108080Y49508084D01*
X16219884Y49396280D01*
X16356816Y49317223D01*
X16509543Y49276300D01*
X16509545Y49276300D01*
X16667655Y49276300D01*
X16667657Y49276300D01*
X16820384Y49317223D01*
X16957316Y49396280D01*
X17069120Y49508084D01*
X17148177Y49645016D01*
X17189100Y49797743D01*
X17189100Y49955857D01*
X17148177Y50108584D01*
X17069120Y50245516D01*
X16957316Y50357320D01*
X16957313Y50357322D01*
X16957312Y50357323D01*
X16952828Y50360764D01*
X16918175Y50411191D01*
X16914100Y50439303D01*
X16914100Y51594252D01*
X16914100Y51594253D01*
X16891918Y51677038D01*
X16849065Y51751262D01*
X16849062Y51751265D01*
X16788462Y51811866D01*
X16788462Y51811865D01*
X15820711Y52779616D01*
X15792934Y52834133D01*
X15792563Y52862548D01*
X15793300Y52868144D01*
X15793300Y53026256D01*
X15793300Y53026257D01*
X15752377Y53178984D01*
X15673320Y53315916D01*
X15561516Y53427720D01*
X15424584Y53506777D01*
X15271857Y53547700D01*
X15113743Y53547700D01*
X14979266Y53511667D01*
X14961016Y53506777D01*
X14824084Y53427720D01*
X14712278Y53315914D01*
X14708022Y53308542D01*
X14662551Y53267603D01*
X14601700Y53261210D01*
X14552284Y53288042D01*
X14073728Y53766598D01*
X13564456Y54275871D01*
X13536679Y54330388D01*
X13546249Y54390818D01*
X13559873Y54417555D01*
X13559875Y54417560D01*
X13559876Y54417562D01*
X13613401Y54582294D01*
X13613402Y54582298D01*
X13640500Y54753386D01*
X13640500Y54926615D01*
X13613402Y55097703D01*
X13613401Y55097707D01*
X13559876Y55262439D01*
X13559874Y55262442D01*
X13559873Y55262443D01*
X13559873Y55262445D01*
X13481232Y55416788D01*
X13379414Y55556928D01*
X13256928Y55679414D01*
X13116788Y55781232D01*
X13116787Y55781233D01*
X13116785Y55781234D01*
X12962441Y55859875D01*
X12962438Y55859877D01*
X12797706Y55913402D01*
X12797702Y55913403D01*
X12626614Y55940500D01*
X12626611Y55940500D01*
X12453389Y55940500D01*
X12453386Y55940500D01*
X12282297Y55913403D01*
X12282293Y55913402D01*
X12117561Y55859877D01*
X12117558Y55859875D01*
X11963214Y55781234D01*
X11823073Y55679415D01*
X11700585Y55556927D01*
X11598766Y55416786D01*
X11520125Y55262442D01*
X11520123Y55262439D01*
X11466598Y55097707D01*
X11466597Y55097703D01*
X11439500Y54926615D01*
X11439500Y54753386D01*
X11466597Y54582298D01*
X11466598Y54582294D01*
X11520123Y54417562D01*
X11520125Y54417559D01*
X11580477Y54299109D01*
X11598768Y54263212D01*
X11700586Y54123072D01*
X11761256Y54062402D01*
X11789032Y54007887D01*
X11779461Y53947455D01*
X11736196Y53904190D01*
X11691251Y53893400D01*
X11225047Y53893400D01*
X11142262Y53871218D01*
X11142261Y53871218D01*
X11142259Y53871217D01*
X11105651Y53850081D01*
X11097913Y53845613D01*
X11068038Y53828365D01*
X11068035Y53828363D01*
X10564128Y53324457D01*
X10509612Y53296680D01*
X10449180Y53306251D01*
X10422441Y53319875D01*
X10422438Y53319877D01*
X10257706Y53373402D01*
X10257702Y53373403D01*
X10086614Y53400500D01*
X10086611Y53400500D01*
X9913389Y53400500D01*
X9913386Y53400500D01*
X9742297Y53373403D01*
X9742293Y53373402D01*
X9577561Y53319877D01*
X9577558Y53319875D01*
X9423214Y53241234D01*
X9283073Y53139415D01*
X9160585Y53016927D01*
X9058766Y52876786D01*
X8980125Y52722442D01*
X8980123Y52722439D01*
X8926598Y52557707D01*
X8926597Y52557703D01*
X8899500Y52386615D01*
X8604300Y52386615D01*
X8604300Y54926615D01*
X8899500Y54926615D01*
X8899500Y54753386D01*
X8926597Y54582298D01*
X8926598Y54582294D01*
X8980123Y54417562D01*
X8980125Y54417559D01*
X9040477Y54299109D01*
X9058768Y54263212D01*
X9160586Y54123072D01*
X9283072Y54000586D01*
X9423212Y53898768D01*
X9577555Y53820127D01*
X9577557Y53820127D01*
X9577558Y53820126D01*
X9577561Y53820124D01*
X9742293Y53766599D01*
X9742297Y53766598D01*
X9913386Y53739500D01*
X9913389Y53739500D01*
X10086614Y53739500D01*
X10257702Y53766598D01*
X10257706Y53766599D01*
X10422438Y53820124D01*
X10422440Y53820126D01*
X10422445Y53820127D01*
X10576788Y53898768D01*
X10716928Y54000586D01*
X10839414Y54123072D01*
X10941232Y54263212D01*
X11019873Y54417555D01*
X11019874Y54417560D01*
X11019876Y54417562D01*
X11073401Y54582294D01*
X11073402Y54582298D01*
X11100500Y54753386D01*
X11100500Y54926615D01*
X11073402Y55097703D01*
X11073401Y55097707D01*
X11019876Y55262439D01*
X11019874Y55262442D01*
X11019873Y55262443D01*
X11019873Y55262445D01*
X10941232Y55416788D01*
X10839414Y55556928D01*
X10716928Y55679414D01*
X10576788Y55781232D01*
X10576787Y55781233D01*
X10576785Y55781234D01*
X10422441Y55859875D01*
X10422438Y55859877D01*
X10257706Y55913402D01*
X10257702Y55913403D01*
X10086614Y55940500D01*
X10086611Y55940500D01*
X9913389Y55940500D01*
X9913386Y55940500D01*
X9742297Y55913403D01*
X9742293Y55913402D01*
X9577561Y55859877D01*
X9577558Y55859875D01*
X9423214Y55781234D01*
X9283073Y55679415D01*
X9160585Y55556927D01*
X9058766Y55416786D01*
X8980125Y55262442D01*
X8980123Y55262439D01*
X8926598Y55097707D01*
X8926597Y55097703D01*
X8899500Y54926615D01*
X8604300Y54926615D01*
X8604300Y57466615D01*
X8899500Y57466615D01*
X8899500Y57293386D01*
X8926597Y57122298D01*
X8926598Y57122294D01*
X8980123Y56957562D01*
X8980125Y56957559D01*
X9057827Y56805057D01*
X9058768Y56803212D01*
X9160586Y56663072D01*
X9283072Y56540586D01*
X9423212Y56438768D01*
X9577555Y56360127D01*
X9577557Y56360127D01*
X9577558Y56360126D01*
X9577561Y56360124D01*
X9742293Y56306599D01*
X9742297Y56306598D01*
X9913386Y56279500D01*
X9913389Y56279500D01*
X10086614Y56279500D01*
X10257702Y56306598D01*
X10257706Y56306599D01*
X10422438Y56360124D01*
X10422440Y56360126D01*
X10422445Y56360127D01*
X10576788Y56438768D01*
X10716928Y56540586D01*
X10839414Y56663072D01*
X10941232Y56803212D01*
X11019873Y56957555D01*
X11019874Y56957560D01*
X11019876Y56957562D01*
X11073401Y57122294D01*
X11073402Y57122298D01*
X11100500Y57293386D01*
X11100500Y57466615D01*
X11073402Y57637703D01*
X11073401Y57637707D01*
X11019876Y57802439D01*
X11019874Y57802442D01*
X11019873Y57802443D01*
X11019873Y57802445D01*
X10941232Y57956788D01*
X10839414Y58096928D01*
X10716928Y58219414D01*
X10576788Y58321232D01*
X10576787Y58321233D01*
X10576785Y58321234D01*
X10422441Y58399875D01*
X10422438Y58399877D01*
X10257706Y58453402D01*
X10257702Y58453403D01*
X10086614Y58480500D01*
X10086611Y58480500D01*
X9913389Y58480500D01*
X9913386Y58480500D01*
X9742297Y58453403D01*
X9742293Y58453402D01*
X9577561Y58399877D01*
X9577558Y58399875D01*
X9423214Y58321234D01*
X9283073Y58219415D01*
X9160585Y58096927D01*
X9058766Y57956786D01*
X8980125Y57802442D01*
X8980123Y57802439D01*
X8926598Y57637707D01*
X8926597Y57637703D01*
X8899500Y57466615D01*
X8604300Y57466615D01*
X8604300Y60006615D01*
X8899500Y60006615D01*
X8899500Y59833386D01*
X8926597Y59662298D01*
X8926598Y59662294D01*
X8980123Y59497562D01*
X8980125Y59497559D01*
X9040133Y59379784D01*
X9058768Y59343212D01*
X9160586Y59203072D01*
X9283072Y59080586D01*
X9423212Y58978768D01*
X9577555Y58900127D01*
X9577557Y58900127D01*
X9577558Y58900126D01*
X9577561Y58900124D01*
X9742293Y58846599D01*
X9742297Y58846598D01*
X9913386Y58819500D01*
X9913389Y58819500D01*
X10086614Y58819500D01*
X10257702Y58846598D01*
X10257706Y58846599D01*
X10422438Y58900124D01*
X10422440Y58900126D01*
X10422445Y58900127D01*
X10576788Y58978768D01*
X10716928Y59080586D01*
X10839414Y59203072D01*
X10941232Y59343212D01*
X11019873Y59497555D01*
X11019874Y59497560D01*
X11019876Y59497562D01*
X11073401Y59662294D01*
X11073402Y59662298D01*
X11100500Y59833386D01*
X11100500Y60006615D01*
X11439500Y60006615D01*
X11439500Y59833386D01*
X11466597Y59662298D01*
X11466598Y59662294D01*
X11520123Y59497562D01*
X11520125Y59497559D01*
X11580133Y59379784D01*
X11598768Y59343212D01*
X11700586Y59203072D01*
X11823072Y59080586D01*
X11963212Y58978768D01*
X12117555Y58900127D01*
X12117557Y58900127D01*
X12117558Y58900126D01*
X12117561Y58900124D01*
X12282293Y58846599D01*
X12282297Y58846598D01*
X12453386Y58819500D01*
X12453389Y58819500D01*
X12626614Y58819500D01*
X12797702Y58846598D01*
X12797706Y58846599D01*
X12962438Y58900124D01*
X12962440Y58900126D01*
X12962445Y58900127D01*
X13116788Y58978768D01*
X13256928Y59080586D01*
X13379414Y59203072D01*
X13481232Y59343212D01*
X13559873Y59497555D01*
X13559874Y59497560D01*
X13559876Y59497562D01*
X13613401Y59662294D01*
X13613402Y59662298D01*
X13640500Y59833386D01*
X13640500Y60006615D01*
X13613402Y60177703D01*
X13613401Y60177707D01*
X13559876Y60342439D01*
X13559874Y60342442D01*
X13559873Y60342443D01*
X13559873Y60342445D01*
X13481232Y60496788D01*
X13379414Y60636928D01*
X13256928Y60759414D01*
X13116788Y60861232D01*
X13116787Y60861233D01*
X13116785Y60861234D01*
X12962441Y60939875D01*
X12962438Y60939877D01*
X12797706Y60993402D01*
X12797702Y60993403D01*
X12626614Y61020500D01*
X12626611Y61020500D01*
X12453389Y61020500D01*
X12453386Y61020500D01*
X12282297Y60993403D01*
X12282293Y60993402D01*
X12117561Y60939877D01*
X12117558Y60939875D01*
X11963214Y60861234D01*
X11823073Y60759415D01*
X11700585Y60636927D01*
X11598766Y60496786D01*
X11520125Y60342442D01*
X11520123Y60342439D01*
X11466598Y60177707D01*
X11466597Y60177703D01*
X11439500Y60006615D01*
X11100500Y60006615D01*
X11073402Y60177703D01*
X11073401Y60177707D01*
X11019876Y60342439D01*
X11019874Y60342442D01*
X11019873Y60342443D01*
X11019873Y60342445D01*
X10941232Y60496788D01*
X10839414Y60636928D01*
X10716928Y60759414D01*
X10576788Y60861232D01*
X10576787Y60861233D01*
X10576785Y60861234D01*
X10422441Y60939875D01*
X10422438Y60939877D01*
X10257706Y60993402D01*
X10257702Y60993403D01*
X10086614Y61020500D01*
X10086611Y61020500D01*
X9913389Y61020500D01*
X9913386Y61020500D01*
X9742297Y60993403D01*
X9742293Y60993402D01*
X9577561Y60939877D01*
X9577558Y60939875D01*
X9423214Y60861234D01*
X9283073Y60759415D01*
X9160585Y60636927D01*
X9058766Y60496786D01*
X8980125Y60342442D01*
X8980123Y60342439D01*
X8926598Y60177707D01*
X8926597Y60177703D01*
X8899500Y60006615D01*
X8604300Y60006615D01*
X8604300Y62546615D01*
X8899500Y62546615D01*
X8899500Y62373386D01*
X8926597Y62202298D01*
X8926598Y62202294D01*
X8980123Y62037562D01*
X8980125Y62037559D01*
X8980126Y62037556D01*
X8980127Y62037555D01*
X9058768Y61883212D01*
X9160586Y61743072D01*
X9283072Y61620586D01*
X9423212Y61518768D01*
X9577555Y61440127D01*
X9577557Y61440127D01*
X9577558Y61440126D01*
X9577561Y61440124D01*
X9742293Y61386599D01*
X9742297Y61386598D01*
X9913386Y61359500D01*
X9913389Y61359500D01*
X10086614Y61359500D01*
X10257702Y61386598D01*
X10257706Y61386599D01*
X10422438Y61440124D01*
X10422440Y61440126D01*
X10422445Y61440127D01*
X10576788Y61518768D01*
X10716928Y61620586D01*
X10839414Y61743072D01*
X10941232Y61883212D01*
X11019873Y62037555D01*
X11019874Y62037560D01*
X11019876Y62037562D01*
X11073401Y62202294D01*
X11073402Y62202298D01*
X11100500Y62373386D01*
X11100500Y62546615D01*
X11073402Y62717703D01*
X11073401Y62717707D01*
X11019876Y62882439D01*
X11019874Y62882442D01*
X11019873Y62882443D01*
X11019873Y62882445D01*
X10941232Y63036788D01*
X10839414Y63176928D01*
X10716928Y63299414D01*
X10576788Y63401232D01*
X10576787Y63401233D01*
X10576785Y63401234D01*
X10422441Y63479875D01*
X10422438Y63479877D01*
X10257706Y63533402D01*
X10257702Y63533403D01*
X10086614Y63560500D01*
X10086611Y63560500D01*
X9913389Y63560500D01*
X9913386Y63560500D01*
X9742297Y63533403D01*
X9742293Y63533402D01*
X9577561Y63479877D01*
X9577558Y63479875D01*
X9423214Y63401234D01*
X9283073Y63299415D01*
X9160585Y63176927D01*
X9058766Y63036786D01*
X8980125Y62882442D01*
X8980123Y62882439D01*
X8926598Y62717707D01*
X8926597Y62717703D01*
X8899500Y62546615D01*
X8604300Y62546615D01*
X8604300Y62996899D01*
X8623207Y63055090D01*
X8633296Y63066903D01*
X9436897Y63870504D01*
X9491414Y63898281D01*
X9506901Y63899500D01*
X10691339Y63899500D01*
X10691341Y63899501D01*
X10722758Y63902447D01*
X10855126Y63948764D01*
X10967960Y64032040D01*
X11051236Y64144874D01*
X11097553Y64277242D01*
X11100499Y64308659D01*
X11100500Y64308661D01*
X11100500Y65691339D01*
X11100499Y65691343D01*
X11097553Y65722754D01*
X11097553Y65722758D01*
X11051236Y65855126D01*
X10967960Y65967960D01*
X10923714Y66000615D01*
X10855127Y66051236D01*
X10812998Y66065977D01*
X10722758Y66097553D01*
X10722755Y66097554D01*
X10722753Y66097554D01*
X10691342Y66100500D01*
X10691332Y66100500D01*
X9308668Y66100500D01*
X9308657Y66100500D01*
X9277246Y66097554D01*
X9277243Y66097554D01*
X9277242Y66097553D01*
X9229129Y66080718D01*
X9144872Y66051236D01*
X9032041Y65967961D01*
X9032039Y65967959D01*
X8948764Y65855128D01*
X8902446Y65722754D01*
X8899500Y65691343D01*
X8899500Y64506901D01*
X8880593Y64448710D01*
X8870504Y64436897D01*
X7883316Y63449709D01*
X7830593Y63358389D01*
X7830592Y63358389D01*
X7830593Y63358388D01*
X7830593Y63358387D01*
X7803300Y63256527D01*
X500500Y63256527D01*
X500500Y75121290D01*
X3149500Y75121290D01*
X3149500Y74878711D01*
X3181161Y74638219D01*
X3181161Y74638214D01*
X3243944Y74403908D01*
X3243948Y74403895D01*
X3336772Y74179796D01*
X3336774Y74179793D01*
X3336776Y74179788D01*
X3376938Y74110226D01*
X3458066Y73969708D01*
X3605729Y73777269D01*
X3605731Y73777267D01*
X3605735Y73777262D01*
X3777262Y73605735D01*
X3777266Y73605732D01*
X3777268Y73605730D01*
X3964059Y73462401D01*
X3969711Y73458064D01*
X4179788Y73336776D01*
X4403900Y73243946D01*
X4638211Y73181162D01*
X4878712Y73149500D01*
X4878713Y73149500D01*
X5121287Y73149500D01*
X5121288Y73149500D01*
X5361789Y73181162D01*
X5596100Y73243946D01*
X5820212Y73336776D01*
X6030289Y73458064D01*
X6222738Y73605735D01*
X6394265Y73777262D01*
X6541936Y73969711D01*
X6623062Y74110226D01*
X44599500Y74110226D01*
X44599500Y73889775D01*
X44633984Y73672052D01*
X44702102Y73462401D01*
X44702104Y73462398D01*
X44702105Y73462394D01*
X44802185Y73265978D01*
X44931758Y73087635D01*
X45087635Y72931758D01*
X45265978Y72802185D01*
X45462394Y72702105D01*
X45672049Y72633985D01*
X45759140Y72620191D01*
X45889775Y72599500D01*
X45889778Y72599500D01*
X46110225Y72599500D01*
X46219086Y72616743D01*
X46327951Y72633985D01*
X46537606Y72702105D01*
X46734022Y72802185D01*
X46912365Y72931758D01*
X47068242Y73087635D01*
X47197815Y73265978D01*
X47297895Y73462394D01*
X47366015Y73672049D01*
X47400500Y73889778D01*
X47400500Y74110222D01*
X47400500Y74110226D01*
X47366015Y74327949D01*
X47366015Y74327951D01*
X47297895Y74537606D01*
X47197815Y74734022D01*
X47068242Y74912365D01*
X46912365Y75068242D01*
X46839350Y75121290D01*
X93149500Y75121290D01*
X93149500Y74878711D01*
X93181161Y74638219D01*
X93181161Y74638214D01*
X93243944Y74403908D01*
X93243948Y74403895D01*
X93336772Y74179796D01*
X93336774Y74179793D01*
X93336776Y74179788D01*
X93376938Y74110226D01*
X93458066Y73969708D01*
X93605729Y73777269D01*
X93605731Y73777267D01*
X93605735Y73777262D01*
X93777262Y73605735D01*
X93777266Y73605732D01*
X93777268Y73605730D01*
X93964059Y73462401D01*
X93969711Y73458064D01*
X94179788Y73336776D01*
X94403900Y73243946D01*
X94638211Y73181162D01*
X94878712Y73149500D01*
X94878713Y73149500D01*
X95121287Y73149500D01*
X95121288Y73149500D01*
X95361789Y73181162D01*
X95596100Y73243946D01*
X95820212Y73336776D01*
X96030289Y73458064D01*
X96222738Y73605735D01*
X96394265Y73777262D01*
X96541936Y73969711D01*
X96663224Y74179788D01*
X96756054Y74403900D01*
X96818838Y74638211D01*
X96850500Y74878712D01*
X96850500Y75121288D01*
X96818838Y75361789D01*
X96756054Y75596100D01*
X96663224Y75820212D01*
X96541936Y76030289D01*
X96394265Y76222738D01*
X96222738Y76394265D01*
X96222733Y76394269D01*
X96222731Y76394271D01*
X96030292Y76541934D01*
X96030289Y76541936D01*
X95820212Y76663224D01*
X95820208Y76663226D01*
X95820204Y76663228D01*
X95596105Y76756052D01*
X95596104Y76756053D01*
X95596100Y76756054D01*
X95361789Y76818838D01*
X95361786Y76818839D01*
X95361784Y76818839D01*
X95121289Y76850500D01*
X95121288Y76850500D01*
X94878712Y76850500D01*
X94878710Y76850500D01*
X94638218Y76818839D01*
X94638213Y76818839D01*
X94403907Y76756056D01*
X94403894Y76756052D01*
X94179795Y76663228D01*
X93969707Y76541934D01*
X93777268Y76394271D01*
X93605729Y76222732D01*
X93458066Y76030293D01*
X93336772Y75820205D01*
X93243948Y75596106D01*
X93243944Y75596093D01*
X93181161Y75361787D01*
X93181161Y75361782D01*
X93149500Y75121290D01*
X46839350Y75121290D01*
X46734022Y75197815D01*
X46734021Y75197816D01*
X46734019Y75197817D01*
X46644825Y75243264D01*
X46537606Y75297895D01*
X46537602Y75297896D01*
X46537599Y75297898D01*
X46327948Y75366016D01*
X46110225Y75400500D01*
X46110222Y75400500D01*
X45889778Y75400500D01*
X45889775Y75400500D01*
X45672051Y75366016D01*
X45462400Y75297898D01*
X45265980Y75197817D01*
X45176806Y75133029D01*
X45087635Y75068242D01*
X44931758Y74912365D01*
X44907309Y74878713D01*
X44802183Y74734020D01*
X44702102Y74537600D01*
X44633984Y74327949D01*
X44599500Y74110226D01*
X6623062Y74110226D01*
X6663224Y74179788D01*
X6756054Y74403900D01*
X6818838Y74638211D01*
X6850500Y74878712D01*
X6850500Y75121288D01*
X6818838Y75361789D01*
X6756054Y75596100D01*
X6663224Y75820212D01*
X6541936Y76030289D01*
X6394265Y76222738D01*
X6222738Y76394265D01*
X6222733Y76394269D01*
X6222731Y76394271D01*
X6030292Y76541934D01*
X6030289Y76541936D01*
X5820212Y76663224D01*
X5820208Y76663226D01*
X5820204Y76663228D01*
X5596105Y76756052D01*
X5596104Y76756053D01*
X5596100Y76756054D01*
X5361789Y76818838D01*
X5361786Y76818839D01*
X5361784Y76818839D01*
X5121289Y76850500D01*
X5121288Y76850500D01*
X4878712Y76850500D01*
X4878710Y76850500D01*
X4638218Y76818839D01*
X4638213Y76818839D01*
X4403907Y76756056D01*
X4403894Y76756052D01*
X4179795Y76663228D01*
X3969707Y76541934D01*
X3777268Y76394271D01*
X3605729Y76222732D01*
X3458066Y76030293D01*
X3336772Y75820205D01*
X3243948Y75596106D01*
X3243944Y75596093D01*
X3181161Y75361787D01*
X3181161Y75361782D01*
X3149500Y75121290D01*
X500500Y75121290D01*
X500500Y79400500D01*
X519407Y79458691D01*
X568907Y79494655D01*
X599500Y79499500D01*
X99400500Y79499500D01*
X99458691Y79480593D01*
G37*
%TD.AperFunction*%
%TD*%
M02*
