%TF.GenerationSoftware,KiCad,Pcbnew,10.0.6*%
%TF.CreationDate,2026-09-28T08:13:03-04:00*%
%TF.ProjectId,ai_robot_interface,61695f72-6f62-46f7-945f-696e74657266,A-12V-DRAFT*%
%TF.SameCoordinates,Original*%
%TF.FileFunction,Copper,L2,Bot*%
%TF.FilePolarity,Positive*%
%FSLAX46Y46*%
G04 Gerber Fmt 4.6, Leading zero omitted, Abs format (unit mm)*
G04 Created by KiCad (PCBNEW 10.0.6) date 2026-09-28 08:13:03*
%MOMM*%
%LPD*%
G01*
G04 APERTURE LIST*
G04 Aperture macros list*
%AMRoundRect*
0 Rectangle with rounded corners*
0 $1 Rounding radius*
0 $2 $3 $4 $5 $6 $7 $8 $9 X,Y pos of 4 corners*
0 Add a 4 corners polygon primitive as box body*
4,1,4,$2,$3,$4,$5,$6,$7,$8,$9,$2,$3,0*
0 Add four circle primitives for the rounded corners*
1,1,$1+$1,$2,$3*
1,1,$1+$1,$4,$5*
1,1,$1+$1,$6,$7*
1,1,$1+$1,$8,$9*
0 Add four rect primitives between the rounded corners*
20,1,$1+$1,$2,$3,$4,$5,0*
20,1,$1+$1,$4,$5,$6,$7,0*
20,1,$1+$1,$6,$7,$8,$9,0*
20,1,$1+$1,$8,$9,$2,$3,0*%
G04 Aperture macros list end*
%TA.AperFunction,HeatsinkPad*%
%ADD10C,0.600000*%
%TD*%
%TA.AperFunction,ComponentPad*%
%ADD11RoundRect,0.250000X-0.750000X-0.750000X0.750000X-0.750000X0.750000X0.750000X-0.750000X0.750000X0*%
%TD*%
%TA.AperFunction,ComponentPad*%
%ADD12C,2.000000*%
%TD*%
%TA.AperFunction,ComponentPad*%
%ADD13RoundRect,0.250001X-0.949999X-0.949999X0.949999X-0.949999X0.949999X0.949999X-0.949999X0.949999X0*%
%TD*%
%TA.AperFunction,ComponentPad*%
%ADD14C,2.400000*%
%TD*%
%TA.AperFunction,ComponentPad*%
%ADD15RoundRect,0.249999X1.550001X-0.790001X1.550001X0.790001X-1.550001X0.790001X-1.550001X-0.790001X0*%
%TD*%
%TA.AperFunction,ComponentPad*%
%ADD16O,3.600000X2.080000*%
%TD*%
%TA.AperFunction,ComponentPad*%
%ADD17RoundRect,0.264706X-0.635294X-0.635294X0.635294X-0.635294X0.635294X0.635294X-0.635294X0.635294X0*%
%TD*%
%TA.AperFunction,ComponentPad*%
%ADD18C,1.800000*%
%TD*%
%TA.AperFunction,ComponentPad*%
%ADD19RoundRect,0.249999X-0.790001X-1.550001X0.790001X-1.550001X0.790001X1.550001X-0.790001X1.550001X0*%
%TD*%
%TA.AperFunction,ComponentPad*%
%ADD20O,2.080000X3.600000*%
%TD*%
%TA.AperFunction,ViaPad*%
%ADD21C,0.600000*%
%TD*%
%TA.AperFunction,ViaPad*%
%ADD22C,0.800000*%
%TD*%
%TA.AperFunction,Conductor*%
%ADD23C,0.200000*%
%TD*%
%TA.AperFunction,Conductor*%
%ADD24C,0.400000*%
%TD*%
%TA.AperFunction,Conductor*%
%ADD25C,0.250000*%
%TD*%
%TA.AperFunction,Conductor*%
%ADD26C,1.000000*%
%TD*%
%TA.AperFunction,Conductor*%
%ADD27C,1.200000*%
%TD*%
%TA.AperFunction,Conductor*%
%ADD28C,3.000000*%
%TD*%
%TA.AperFunction,Conductor*%
%ADD29C,0.800000*%
%TD*%
G04 APERTURE END LIST*
D10*
%TO.P,U13,25*%
%TO.N,GND*%
X33300000Y35700000D03*
X33300000Y34300000D03*
X34700000Y35700000D03*
X34700000Y34300000D03*
%TD*%
D11*
%TO.P,C20,1*%
%TO.N,VM*%
X56000000Y82000000D03*
D12*
%TO.P,C20,2*%
%TO.N,GND*%
X61000000Y82000000D03*
%TD*%
D13*
%TO.P,C1,1*%
%TO.N,VM*%
X35000000Y11000000D03*
D14*
%TO.P,C1,2*%
%TO.N,GND*%
X42500000Y11000000D03*
%TD*%
D15*
%TO.P,J3,1*%
%TO.N,FR_OUT1*%
X86500000Y58500000D03*
D16*
%TO.P,J3,2*%
%TO.N,FR_OUT2*%
X86500000Y63580000D03*
%TD*%
D10*
%TO.P,U23,17*%
%TO.N,GND*%
X75700000Y22800000D03*
X75700000Y27200000D03*
X74300000Y22800000D03*
X74300000Y27200000D03*
%TD*%
D17*
%TO.P,J6,1*%
%TO.N,PI_3V3*%
X8000000Y82000000D03*
D18*
%TO.P,J6,2*%
%TO.N,GND*%
X10540000Y82000000D03*
%TO.P,J6,3*%
%TO.N,GPIO18*%
X8000000Y79460000D03*
%TO.P,J6,4*%
%TO.N,GND*%
X10540000Y79460000D03*
%TO.P,J6,5*%
%TO.N,GPIO23*%
X8000000Y76920000D03*
%TO.P,J6,6*%
%TO.N,unconnected-(J6-Pad6)*%
X10540000Y76920000D03*
%TO.P,J6,7*%
%TO.N,GPIO13*%
X8000000Y74380000D03*
%TO.P,J6,8*%
%TO.N,GND*%
X10540000Y74380000D03*
%TO.P,J6,9*%
%TO.N,GPIO5*%
X8000000Y71840000D03*
%TO.P,J6,10*%
%TO.N,unconnected-(J6-Pad10)*%
X10540000Y71840000D03*
%TO.P,J6,11*%
%TO.N,GPIO25*%
X8000000Y69300000D03*
%TO.P,J6,12*%
%TO.N,GPIO17*%
X10540000Y69300000D03*
%TO.P,J6,13*%
%TO.N,GPIO27*%
X8000000Y66760000D03*
%TO.P,J6,14*%
%TO.N,GND*%
X10540000Y66760000D03*
%TO.P,J6,15*%
X8000000Y64220000D03*
%TO.P,J6,16*%
X10540000Y64220000D03*
%TD*%
D15*
%TO.P,J5,1*%
%TO.N,BR_OUT1*%
X86500000Y20500000D03*
D16*
%TO.P,J5,2*%
%TO.N,BR_OUT2*%
X86500000Y25580000D03*
%TD*%
D10*
%TO.P,U20,17*%
%TO.N,GND*%
X75700000Y79800000D03*
X75700000Y84200000D03*
X74300000Y79800000D03*
X74300000Y84200000D03*
%TD*%
D15*
%TO.P,J2,1*%
%TO.N,FL_OUT1*%
X86500000Y77500000D03*
D16*
%TO.P,J2,2*%
%TO.N,FL_OUT2*%
X86500000Y82580000D03*
%TD*%
D10*
%TO.P,U22,17*%
%TO.N,GND*%
X75700000Y41800000D03*
X75700000Y46200000D03*
X74300000Y41800000D03*
X74300000Y46200000D03*
%TD*%
D15*
%TO.P,J4,1*%
%TO.N,BL_OUT1*%
X86500000Y39500000D03*
D16*
%TO.P,J4,2*%
%TO.N,BL_OUT2*%
X86500000Y44580000D03*
%TD*%
D14*
%TO.P,R5,1*%
%TO.N,VM*%
X35000000Y95000000D03*
%TO.P,R5,2*%
%TO.N,GND*%
X50240000Y95000000D03*
%TD*%
D11*
%TO.P,C25,1*%
%TO.N,VM*%
X56000000Y63000000D03*
D12*
%TO.P,C25,2*%
%TO.N,GND*%
X61000000Y63000000D03*
%TD*%
D13*
%TO.P,C2,1*%
%TO.N,VM*%
X56000000Y11000000D03*
D14*
%TO.P,C2,2*%
%TO.N,GND*%
X63500000Y11000000D03*
%TD*%
D11*
%TO.P,C35,1*%
%TO.N,VM*%
X56000000Y25000000D03*
D12*
%TO.P,C35,2*%
%TO.N,GND*%
X61000000Y25000000D03*
%TD*%
D11*
%TO.P,C30,1*%
%TO.N,VM*%
X56000000Y44000000D03*
D12*
%TO.P,C30,2*%
%TO.N,GND*%
X61000000Y44000000D03*
%TD*%
D10*
%TO.P,U21,17*%
%TO.N,GND*%
X75700000Y60800000D03*
X75700000Y65200000D03*
X74300000Y60800000D03*
X74300000Y65200000D03*
%TD*%
D19*
%TO.P,J1,1*%
%TO.N,MOTOR_IN*%
X13000000Y13000000D03*
D20*
%TO.P,J1,2*%
%TO.N,GND*%
X18080000Y13000000D03*
%TD*%
D21*
%TO.N,EFUSE_UV*%
X31900000Y32550000D03*
X29900000Y39000000D03*
D22*
%TO.N,GND*%
X43397900Y74175100D03*
X82412500Y80215300D03*
X42189900Y82320700D03*
X36369600Y30153500D03*
D21*
X72000000Y84500000D03*
D22*
X32912500Y42303200D03*
D21*
X67350000Y87300000D03*
D22*
X16880400Y25403800D03*
%TO.N,AIN1_RAW*%
X36818200Y84116200D03*
X40140900Y89918500D03*
X29966400Y86633200D03*
%TO.N,BIN1_RAW*%
X43563500Y80896500D03*
X38876900Y82537600D03*
%TO.N,RIGHT_PH_N*%
X39652000Y84610600D03*
X44954300Y84663700D03*
%TO.N,PI_3V3*%
X72946300Y40878700D03*
X27039800Y69771100D03*
X44960700Y71283900D03*
X47291600Y79679000D03*
X75693700Y86611600D03*
X72924600Y59888900D03*
X38241000Y87832500D03*
X8000000Y93584000D03*
X80587500Y69861600D03*
X80587500Y31839000D03*
X37635100Y85927300D03*
X73573600Y78870200D03*
X16206700Y56000000D03*
X27355000Y64262100D03*
X80541800Y50817500D03*
X47018200Y81814900D03*
X46059900Y87752600D03*
X22047200Y67062300D03*
X34616000Y90566000D03*
X40385400Y53939200D03*
X32693400Y65175000D03*
D21*
%TO.N,EFUSE_BGATE*%
X24100000Y28150000D03*
X30600000Y35750000D03*
%TO.N,EFUSE_DRV*%
X22050000Y28950000D03*
X30800000Y34550000D03*
D22*
%TO.N,FUSED_IN*%
X15228800Y27945100D03*
D21*
X23550000Y34350000D03*
X30850000Y33000000D03*
D22*
X23424800Y26413100D03*
%TO.N,EFUSE_OV*%
X35508300Y37870900D03*
X32750000Y32167000D03*
%TO.N,EFUSE_DVDT*%
X33750000Y31747100D03*
X32525000Y26718600D03*
%TO.N,EFUSE_SHDN*%
X36235000Y32458100D03*
X38221600Y42707900D03*
D21*
%TO.N,FAULT_OK_RAW*%
X79350000Y81550000D03*
D22*
X80424000Y42240900D03*
X53912000Y74665000D03*
X46985600Y24557800D03*
X75577100Y21255800D03*
X49300500Y16454900D03*
X46734800Y59810700D03*
X38045200Y34714100D03*
X72675200Y74665000D03*
X47830900Y20311800D03*
D21*
X36950000Y33450000D03*
X79150000Y62650000D03*
D22*
X79254100Y24652200D03*
D21*
%TO.N,EFUSE_PG_SENSE*%
X37100000Y30750000D03*
X31100000Y22500000D03*
D22*
%TO.N,VM*%
X70200000Y82975000D03*
X70200000Y44975000D03*
X69950000Y87464800D03*
X68500000Y49551500D03*
X69950000Y68525000D03*
X70200000Y25975000D03*
X39000000Y36400000D03*
X70200000Y63975000D03*
X39000000Y35600000D03*
X67534400Y26820800D03*
%TO.N,BR_IPROPI*%
X79291400Y26126500D03*
X81950400Y20257700D03*
%TO.N,ARM_RAW*%
X25578000Y74125000D03*
X20902000Y69449000D03*
%TO.N,LOGIC_GOOD*%
X38790800Y79950000D03*
X41563900Y50856200D03*
X23674000Y58106400D03*
X23674000Y65233400D03*
%TO.N,PHYS_OK*%
X42040900Y55193000D03*
X35110600Y79220100D03*
X38406000Y57625800D03*
X43135800Y49000000D03*
%TO.N,FEED_ENABLE*%
X63758200Y64358200D03*
X75819700Y19334400D03*
X45405000Y48072200D03*
D21*
X74050000Y56250000D03*
D22*
X63758200Y52385200D03*
X79489800Y23603300D03*
X47182700Y48827700D03*
X79808000Y39412800D03*
X82933700Y23224900D03*
X82775100Y34833700D03*
X83991200Y18494900D03*
X40777400Y43662300D03*
D21*
X79199999Y61800000D03*
D22*
%TO.N,DRIVE_ENABLE_CMD*%
X26313900Y84280400D03*
X53090200Y54974300D03*
X53090200Y71810700D03*
%TO.N,FL_VREF*%
X83528200Y79258100D03*
X77729400Y76921200D03*
%TO.N,VM_UV_SENSE*%
X43656600Y22931100D03*
X45619100Y20968600D03*
D21*
%TO.N,BL_IPROPI*%
X80100000Y43950000D03*
X79000000Y45000000D03*
D22*
%TO.N,GPIO13*%
X14335600Y78160600D03*
%TO.N,PWM_B_RAW*%
X20055000Y77171800D03*
X42540500Y84092200D03*
D21*
%TO.N,FL_IPROPI*%
X79050000Y82950000D03*
X80600000Y81700000D03*
D22*
%TO.N,WD_RAW*%
X29987800Y59884500D03*
X35250900Y55144000D03*
D21*
%TO.N,BR_CPH*%
X70950000Y24570000D03*
X70550000Y22000000D03*
D22*
%TO.N,GPIO23*%
X14355500Y82180500D03*
%TO.N,ARM_Q*%
X42884000Y76330500D03*
X38000000Y69622200D03*
X37364600Y61812800D03*
X43759100Y65250000D03*
D21*
%TO.N,FL_CPH*%
X70600000Y81500000D03*
D22*
X70622200Y78050000D03*
%TO.N,VM_OV_SENSE*%
X48696900Y31030700D03*
X48696900Y25389700D03*
X47267900Y21180400D03*
%TO.N,FAULT_OK*%
X44576400Y80394600D03*
X49420900Y59423100D03*
%TO.N,BL_VREF*%
X80937000Y39491000D03*
X80626200Y45059700D03*
%TO.N,FR_OUT1*%
X79200000Y65275000D03*
%TO.N,FR_OUT2*%
X70700000Y65400000D03*
%TO.N,ALL_OK*%
X46962300Y72187300D03*
X46159300Y68334300D03*
%TO.N,RIGHT_IN1*%
X75047600Y57832900D03*
X50438100Y56575100D03*
X77461500Y21661700D03*
X32323100Y81023100D03*
%TO.N,RIGHT_IN2*%
X26123600Y83086700D03*
X78527000Y57712600D03*
X81333800Y17089900D03*
X60966200Y50301100D03*
%TO.N,BR_OUT1*%
X79200000Y27275000D03*
%TO.N,BR_OUT2*%
X70700000Y27400000D03*
%TO.N,BR_VCP*%
X66396000Y27301500D03*
X66394700Y24096400D03*
%TO.N,GPIO18*%
X9270500Y87000000D03*
%TO.N,GPIO27*%
X14145800Y62645000D03*
%TO.N,WD_OK*%
X38658100Y78000000D03*
X38017900Y55169600D03*
%TO.N,LEFT_IN1*%
X21795800Y83650000D03*
X55781600Y77191900D03*
X62361600Y49050400D03*
%TO.N,LEFT_IN2*%
X62661300Y50783500D03*
X62468900Y64646300D03*
%TO.N,FL_OUT1*%
X79200000Y84275000D03*
D21*
%TO.N,FL_VCP*%
X71000000Y86350000D03*
X70980000Y82250000D03*
D22*
%TO.N,FR_IPROPI*%
X79262500Y64162500D03*
X81024300Y61226000D03*
%TO.N,HB*%
X28447200Y61814800D03*
X28447200Y65550200D03*
X47270000Y56182500D03*
X41209600Y58132100D03*
%TO.N,BL_CPH*%
X70631300Y40050000D03*
D21*
X70600000Y43500000D03*
D22*
%TO.N,BL_OUT1*%
X79200000Y46275000D03*
%TO.N,BL_OUT2*%
X70700000Y46400000D03*
D21*
%TO.N,BL_VCP*%
X70980000Y44250000D03*
X72250000Y47050000D03*
D22*
%TO.N,PWM_A_RAW*%
X44197900Y85324000D03*
X33342500Y90501200D03*
X36599100Y87105700D03*
%TO.N,LEFT_PRE1*%
X27748500Y85570900D03*
X42489400Y86598800D03*
%TO.N,LEFT_PRE2*%
X27231900Y80829300D03*
X24546100Y83379400D03*
%TO.N,RIGHT_PRE1*%
X42836800Y83090400D03*
X33229900Y81533000D03*
%TO.N,RIGHT_PRE2*%
X45518900Y86835300D03*
X27498600Y83569700D03*
%TO.N,HB_RAW*%
X44244100Y55548700D03*
X20680500Y61152700D03*
D21*
%TO.N,FR_CPH*%
X70950000Y62570000D03*
X70550000Y60000000D03*
D22*
%TO.N,FR_VCP*%
X66335600Y65385600D03*
X66335600Y62131200D03*
%TD*%
%TO.N,EFUSE_UV*%
D23*
X31900000Y34850000D02*
X31600000Y36300000D01*
X31600000Y36300000D02*
X29900000Y39000000D01*
X31900000Y32550000D02*
X31900000Y34850000D01*
%TO.N,GND*%
D24*
X42190000Y80962300D02*
X42190000Y82320700D01*
X33300000Y41915700D02*
X32912500Y42303200D01*
X63500000Y11000000D02*
X61000000Y13500000D01*
X43397900Y74175100D02*
X43740900Y74518100D01*
X70350000Y88350000D02*
X70800000Y87950000D01*
X43740900Y79411400D02*
X42190000Y80962300D01*
X74300000Y65200000D02*
X75700000Y65200000D01*
X75700000Y80215300D02*
X75700000Y79800000D01*
X42190000Y82320700D02*
X42189900Y82320700D01*
X34700000Y34300000D02*
X34700000Y31823100D01*
X18080000Y24204200D02*
X16880400Y25403800D01*
X10540000Y64220000D02*
X10540000Y66760000D01*
X75700000Y65200000D02*
X75700000Y60800000D01*
X18080000Y13000000D02*
X18080000Y24204200D01*
X71700000Y86650000D02*
X72000000Y84500000D01*
X10540000Y79460000D02*
X10540000Y82000000D01*
X75700000Y84200000D02*
X75700000Y80215300D01*
X75700000Y80215300D02*
X82412500Y80215300D01*
X34700000Y31823100D02*
X36369600Y30153500D01*
X70800000Y87950000D02*
X71700000Y86650000D01*
X75700000Y46200000D02*
X75700000Y41800000D01*
X33300000Y35700000D02*
X33300000Y41915700D01*
X75700000Y27200000D02*
X75700000Y22800000D01*
X61000000Y13500000D02*
X61000000Y25000000D01*
X67350000Y87300000D02*
X69700000Y88400000D01*
X43740900Y74518100D02*
X43740900Y79411400D01*
X69700000Y88400000D02*
X70350000Y88350000D01*
%TO.N,AIN1_RAW*%
D25*
X40140900Y86766300D02*
X40140900Y89918500D01*
X37192900Y84636600D02*
X38011200Y84636600D01*
X36818200Y84261900D02*
X37192900Y84636600D01*
X34446900Y86633200D02*
X29966400Y86633200D01*
X36818200Y84261900D02*
X36818200Y84116200D01*
X38011200Y84636600D02*
X40140900Y86766300D01*
X36818200Y84261900D02*
X34446900Y86633200D01*
%TO.N,BIN1_RAW*%
X42825000Y84856600D02*
X43324200Y84357400D01*
X38876900Y82537600D02*
X39251300Y82912000D01*
X42276900Y84856600D02*
X42825000Y84856600D01*
X43324200Y83988600D02*
X43563500Y83749300D01*
X43324200Y84357400D02*
X43324200Y83988600D01*
X40332300Y82912000D02*
X42276900Y84856600D01*
X43563500Y83749300D02*
X43563500Y80896500D01*
X39251300Y82912000D02*
X40332300Y82912000D01*
%TO.N,RIGHT_PH_N*%
X44539900Y86050700D02*
X44954300Y85636300D01*
X43682600Y85836300D02*
X43897000Y86050700D01*
X44954300Y85636300D02*
X44954300Y84663700D01*
X40877700Y85836300D02*
X43682600Y85836300D01*
X43897000Y86050700D02*
X44539900Y86050700D01*
X39652000Y84610600D02*
X40877700Y85836300D01*
%TO.N,PI_3V3*%
D24*
X27355000Y64262100D02*
X27355000Y66354600D01*
X44960700Y71319300D02*
X44960700Y71283900D01*
X47018200Y79679000D02*
X47018200Y73376800D01*
X9878700Y87806600D02*
X18612600Y79072700D01*
X75693700Y86611600D02*
X73573600Y84491500D01*
X38241000Y86533200D02*
X37635100Y85927300D01*
X72924600Y58434700D02*
X72924600Y59888900D01*
X37349500Y87832500D02*
X34616000Y90566000D01*
X73573600Y76875500D02*
X80587500Y69861600D01*
X38241000Y87832500D02*
X37349500Y87832500D01*
X18612600Y79072700D02*
X18612600Y70496900D01*
X18612600Y70496900D02*
X22047200Y67062300D01*
X16206700Y56000000D02*
X16206700Y61221800D01*
X27039800Y67062300D02*
X27039800Y69771100D01*
X16206700Y61221800D02*
X22047200Y67062300D01*
X47018200Y79679000D02*
X47291600Y79679000D01*
X27039800Y66669800D02*
X27039800Y67062300D01*
X72946300Y39480200D02*
X80587500Y31839000D01*
X8000000Y82000000D02*
X8000000Y87806600D01*
X73573600Y84491500D02*
X73573600Y78870200D01*
X27039800Y67062300D02*
X22047200Y67062300D01*
X47018200Y73376800D02*
X44960700Y71319300D01*
X8000000Y87806600D02*
X9878700Y87806600D01*
X38112000Y53939200D02*
X32693400Y59357800D01*
X72946300Y40878700D02*
X72946300Y39480200D01*
X80541800Y50817500D02*
X72924600Y58434700D01*
X8000000Y87806600D02*
X8000000Y93584000D01*
X31513800Y66354600D02*
X27355000Y66354600D01*
X47018200Y79679000D02*
X47018200Y81814900D01*
X40385400Y53939200D02*
X38112000Y53939200D01*
X32693400Y65175000D02*
X31513800Y66354600D01*
X32693400Y59357800D02*
X32693400Y65175000D01*
X47018200Y81814900D02*
X47018200Y86794300D01*
X47018200Y86794300D02*
X46059900Y87752600D01*
X38241000Y87832500D02*
X38241000Y86533200D01*
X73573600Y78870200D02*
X73573600Y76875500D01*
X27355000Y66354600D02*
X27039800Y66669800D01*
%TO.N,EFUSE_BGATE*%
D23*
X30600000Y35750000D02*
X24350000Y28750000D01*
X24350000Y28750000D02*
X24100000Y28150000D01*
%TO.N,EFUSE_DRV*%
X30800000Y34550000D02*
X24400000Y27550000D01*
X24400000Y27550000D02*
X23950000Y27500000D01*
X23950000Y27500000D02*
X23700000Y27600000D01*
X23700000Y27600000D02*
X22050000Y28950000D01*
%TO.N,FUSED_IN*%
X26050000Y35500000D02*
X23550000Y34350000D01*
X30850000Y33000000D02*
X31450000Y34400000D01*
X31200000Y36050000D02*
X30900000Y36350000D01*
X31250000Y35050000D02*
X31200000Y36050000D01*
X31350000Y34950000D02*
X31250000Y35050000D01*
X31450000Y34400000D02*
X31350000Y34950000D01*
X30750000Y36400000D02*
X26050000Y35500000D01*
D26*
X21892800Y27945100D02*
X15228800Y27945100D01*
X23424800Y26413100D02*
X21892800Y27945100D01*
D23*
X30900000Y36350000D02*
X30750000Y36400000D01*
%TO.N,EFUSE_OV*%
D25*
X34000000Y36362600D02*
X35508300Y37870900D01*
X34000000Y33417000D02*
X34000000Y36362600D01*
X32750000Y32167000D02*
X34000000Y33417000D01*
%TO.N,EFUSE_DVDT*%
X32525000Y26718600D02*
X33750000Y27943600D01*
X33750000Y27943600D02*
X33750000Y31747100D01*
%TO.N,EFUSE_SHDN*%
X36235000Y40721300D02*
X36235000Y32458100D01*
X38221600Y42707900D02*
X36235000Y40721300D01*
%TO.N,FAULT_OK_RAW*%
X38045200Y34714100D02*
X38045200Y36812300D01*
X75370400Y87372600D02*
X72675200Y84677400D01*
X47830900Y20311800D02*
X49300500Y18842200D01*
X79037100Y40854000D02*
X80424000Y42240900D01*
X76574700Y86790000D02*
X75992100Y87372600D01*
X75992100Y87372600D02*
X75370400Y87372600D01*
X79350000Y81550000D02*
X76574700Y84459400D01*
X88641600Y57398800D02*
X88322600Y57079800D01*
X78249700Y69090500D02*
X83745000Y69090500D01*
X53912000Y74665000D02*
X53912000Y70654200D01*
X48052500Y46819600D02*
X48052500Y54199200D01*
X78763100Y24161200D02*
X78763100Y22398500D01*
X78763100Y21736100D02*
X81773400Y18725800D01*
X72675200Y74665000D02*
X78249700Y69090500D01*
X79254100Y24652200D02*
X78763100Y24161200D01*
X78763100Y22398500D02*
X78763100Y21736100D01*
X76719800Y22398500D02*
X78763100Y22398500D01*
X83447800Y19223500D02*
X84290300Y19223500D01*
X75577100Y21255800D02*
X76719800Y22398500D01*
X53682600Y70424800D02*
X53682600Y56840700D01*
X53912000Y70654200D02*
X53682600Y70424800D01*
D23*
X80449999Y60750000D02*
X84125599Y57079800D01*
D25*
X53682600Y56840700D02*
X53841400Y56681900D01*
X53356900Y54199200D02*
X48052500Y54199200D01*
X49300500Y18842200D02*
X49300500Y16454900D01*
X72675200Y84677400D02*
X72675200Y74665000D01*
D23*
X79150000Y62650000D02*
X79600000Y62350000D01*
D25*
X53841400Y56681900D02*
X53841400Y54683700D01*
X47103800Y20311800D02*
X46535400Y20880200D01*
X88270700Y19068800D02*
X88640300Y19438400D01*
X83745000Y69090500D02*
X88641600Y64193900D01*
X46535400Y24148100D02*
X46945100Y24557800D01*
X81773400Y18725800D02*
X82950100Y18725800D01*
X48052500Y54199200D02*
X48052500Y58493000D01*
X53841400Y54683700D02*
X53356900Y54199200D01*
X38045200Y33457700D02*
X38045200Y34714100D01*
X48052500Y58493000D02*
X46734800Y59810700D01*
X88640300Y26154100D02*
X79037100Y35757300D01*
D23*
X79600000Y62350000D02*
X80449999Y60750000D01*
D25*
X38045200Y36812300D02*
X48052500Y46819600D01*
X84445000Y19068800D02*
X88270700Y19068800D01*
X82950100Y18725800D02*
X83447800Y19223500D01*
X46945100Y24557800D02*
X38045200Y33457700D01*
X88640300Y19438400D02*
X88640300Y26154100D01*
X46535400Y20880200D02*
X46535400Y24148100D01*
X46945100Y24557800D02*
X46985600Y24557800D01*
X76574700Y84459400D02*
X76574700Y86790000D01*
X88641600Y64193900D02*
X88641600Y57398800D01*
X84290300Y19223500D02*
X84445000Y19068800D01*
D23*
X36950000Y33450000D02*
X38045200Y34714100D01*
D25*
X47830900Y20311800D02*
X47103800Y20311800D01*
X88322600Y57079800D02*
X84125600Y57079800D01*
X79037100Y35757300D02*
X79037100Y40854000D01*
%TO.N,EFUSE_PG_SENSE*%
D23*
X37100000Y30750000D02*
X37100000Y29900000D01*
X37100000Y29900000D02*
X31100000Y22500000D01*
%TO.N,VM*%
D26*
X68500000Y86014800D02*
X68500000Y85500000D01*
X70200000Y82975000D02*
X68500000Y82975000D01*
D27*
X39000000Y35600000D02*
X41000000Y35600000D01*
D26*
X69950000Y68525000D02*
X68500000Y67075000D01*
X46500000Y95000000D02*
X56000000Y85500000D01*
X35000000Y95000000D02*
X46500000Y95000000D01*
X56000000Y82000000D02*
X56000000Y85500000D01*
X56000000Y85500000D02*
X68500000Y85500000D01*
X68380200Y25975000D02*
X67534400Y26820800D01*
X70200000Y44975000D02*
X68500000Y44975000D01*
X70200000Y63975000D02*
X68500000Y63975000D01*
D28*
X56000000Y11000000D02*
X56000000Y4000000D01*
X68500000Y4000000D02*
X35000000Y4000000D01*
D26*
X68500000Y67075000D02*
X68500000Y66500000D01*
X56000000Y44000000D02*
X56000000Y47500000D01*
X68500000Y47500000D02*
X68500000Y49551500D01*
X56000000Y66500000D02*
X68500000Y66500000D01*
X70200000Y25975000D02*
X68500000Y25975000D01*
X56000000Y28500000D02*
X68500000Y28500000D01*
D28*
X42000000Y36000000D02*
X68500000Y36000000D01*
X35000000Y4000000D02*
X35000000Y11000000D01*
X68500000Y85500000D02*
X68500000Y4000000D01*
D26*
X56000000Y63000000D02*
X56000000Y66500000D01*
X56000000Y25000000D02*
X56000000Y28500000D01*
X69950000Y87464800D02*
X68500000Y86014800D01*
D27*
X41000000Y35600000D02*
X42000000Y36000000D01*
D26*
X68500000Y25975000D02*
X68380200Y25975000D01*
D27*
X41000000Y36400000D02*
X42000000Y36000000D01*
D26*
X56000000Y47500000D02*
X68500000Y47500000D01*
D27*
X39000000Y36400000D02*
X41000000Y36400000D01*
%TO.N,BR_IPROPI*%
D25*
X79291400Y26126500D02*
X81950400Y23467500D01*
X81950400Y23467500D02*
X81950400Y20257700D01*
%TO.N,ARM_RAW*%
X20902000Y69449000D02*
X25578000Y74125000D01*
%TO.N,LOGIC_GOOD*%
X41563900Y50856200D02*
X30924200Y50856200D01*
X39811600Y55755900D02*
X41112200Y54455300D01*
X23674000Y65233400D02*
X23674000Y58106400D01*
X39811600Y78929200D02*
X39811600Y55755900D01*
X41112200Y54455300D02*
X41112200Y51307900D01*
X41112200Y51307900D02*
X41563900Y50856200D01*
X38790800Y79950000D02*
X39811600Y78929200D01*
X30924200Y50856200D02*
X23674000Y58106400D01*
%TO.N,PHYS_OK*%
X43135800Y54098100D02*
X42040900Y55193000D01*
X43135800Y49000000D02*
X43135800Y54098100D01*
X35110600Y60921200D02*
X35110600Y79220100D01*
X38406000Y57625800D02*
X35110600Y60921200D01*
%TO.N,FEED_ENABLE*%
X76880000Y18274100D02*
X75819700Y19334400D01*
X82775100Y36445700D02*
X79808000Y39412800D01*
X82075700Y19177500D02*
X81960500Y19177500D01*
D23*
X72200000Y59650000D02*
X72450000Y58100000D01*
D25*
X82933700Y20035500D02*
X82075700Y19177500D01*
D23*
X73750000Y60150000D02*
X73200000Y60600000D01*
D25*
X80705900Y22387200D02*
X79489800Y23603300D01*
D23*
X72200000Y60150000D02*
X72200000Y59650000D01*
D25*
X45405000Y48072200D02*
X46427200Y48072200D01*
X45187300Y48072200D02*
X45405000Y48072200D01*
X63758200Y64358200D02*
X63758200Y52385200D01*
D23*
X73200000Y60600000D02*
X72650000Y60600000D01*
D25*
X80705900Y20432100D02*
X80705900Y22387200D01*
X89092000Y28516800D02*
X89092000Y19251300D01*
D23*
X79199999Y61800000D02*
X77550000Y60150000D01*
D25*
X82775100Y34833700D02*
X89092000Y28516800D01*
D23*
X72250000Y60250000D02*
X72200000Y60150000D01*
X77550000Y60150000D02*
X73750000Y60150000D01*
D25*
X83991200Y18494900D02*
X83770400Y18274100D01*
X88457800Y18617100D02*
X84113400Y18617100D01*
X89092000Y19251300D02*
X88457800Y18617100D01*
X82933700Y23224900D02*
X82933700Y20035500D01*
X83770400Y18274100D02*
X76880000Y18274100D01*
X82775100Y34833700D02*
X82775100Y36445700D01*
D23*
X72650000Y60600000D02*
X72250000Y60250000D01*
D25*
X84113400Y18617100D02*
X83991200Y18494900D01*
X40777400Y43662300D02*
X45187300Y48072200D01*
X46427200Y48072200D02*
X47182700Y48827700D01*
X81960500Y19177500D02*
X80705900Y20432100D01*
D23*
X72450000Y58100000D02*
X74050000Y56250000D01*
%TO.N,DRIVE_ENABLE_CMD*%
D25*
X53090200Y71810700D02*
X48334800Y76566100D01*
X48334800Y86568800D02*
X43589600Y91314000D01*
X26313900Y85208300D02*
X26313900Y84280400D01*
X32419600Y91314000D02*
X26313900Y85208300D01*
X48334800Y76566100D02*
X48334800Y86568800D01*
X53090200Y71810700D02*
X53090200Y54974300D01*
X43589600Y91314000D02*
X32419600Y91314000D01*
%TO.N,FL_VREF*%
X78954500Y79592300D02*
X78112100Y79592300D01*
X77729400Y79209600D02*
X77729400Y76921200D01*
X78112100Y79592300D02*
X77729400Y79209600D01*
X79288700Y79258100D02*
X78954500Y79592300D01*
X83528200Y79258100D02*
X79288700Y79258100D01*
%TO.N,VM_UV_SENSE*%
X45619100Y20968600D02*
X43656600Y22931100D01*
%TO.N,BL_IPROPI*%
D23*
X80100000Y43950000D02*
X79000000Y45000000D01*
%TO.N,GPIO13*%
D25*
X8000000Y74380000D02*
X9270000Y75650000D01*
X11825000Y75650000D02*
X14335600Y78160600D01*
X9270000Y75650000D02*
X11825000Y75650000D01*
%TO.N,PWM_B_RAW*%
X20055000Y77171800D02*
X25889400Y77171800D01*
X40519500Y82460300D02*
X42151400Y84092200D01*
X38352500Y82034400D02*
X38576000Y81810900D01*
X38576000Y81810900D02*
X39177900Y81810900D01*
X39827300Y82460300D02*
X40519500Y82460300D01*
X39177900Y81810900D02*
X39827300Y82460300D01*
X34395300Y82034400D02*
X38352500Y82034400D01*
X25889400Y77171800D02*
X30986300Y82268700D01*
X30986300Y82268700D02*
X34161000Y82268700D01*
X42151400Y84092200D02*
X42540500Y84092200D01*
X34161000Y82268700D02*
X34395300Y82034400D01*
%TO.N,FL_IPROPI*%
D23*
X79050000Y82950000D02*
X80600000Y81700000D01*
%TO.N,WD_RAW*%
D25*
X29987800Y59884500D02*
X30510400Y59884500D01*
X30510400Y59884500D02*
X35250900Y55144000D01*
%TO.N,BR_CPH*%
D23*
X70950000Y24570000D02*
X70550000Y22000000D01*
%TO.N,GPIO23*%
D25*
X11012000Y78190000D02*
X14355500Y81533500D01*
X8000000Y76920000D02*
X9270000Y78190000D01*
X9270000Y78190000D02*
X11012000Y78190000D01*
X14355500Y81533500D02*
X14355500Y82180500D01*
%TO.N,ARM_Q*%
X37364600Y61812800D02*
X38000000Y62448200D01*
X42671200Y66337900D02*
X43759100Y65250000D01*
X42884000Y76330500D02*
X42671200Y76117700D01*
X38000000Y62448200D02*
X38000000Y69622200D01*
X42671200Y76117700D02*
X42671200Y66337900D01*
%TO.N,FL_CPH*%
D23*
X70600000Y81500000D02*
X70600000Y78100000D01*
X70600000Y78100000D02*
X70622200Y78050000D01*
%TO.N,VM_OV_SENSE*%
D25*
X48696900Y22609400D02*
X47267900Y21180400D01*
X48696900Y25389700D02*
X48696900Y22609400D01*
X48696900Y25389700D02*
X48696900Y31030700D01*
%TO.N,FAULT_OK*%
X49420900Y61079800D02*
X49420900Y59423100D01*
X44576400Y72566400D02*
X44179200Y72169200D01*
X44179200Y66321500D02*
X49420900Y61079800D01*
X44576400Y80394600D02*
X44576400Y72566400D01*
X44179200Y72169200D02*
X44179200Y66321500D01*
%TO.N,BL_VREF*%
X81166800Y39720800D02*
X81166800Y44519100D01*
X80937000Y39491000D02*
X81166800Y39720800D01*
X81166800Y44519100D02*
X80626200Y45059700D01*
%TO.N,FR_OUT1*%
D29*
X86500000Y58500000D02*
X79725000Y65275000D01*
X79725000Y65275000D02*
X79200000Y65275000D01*
%TO.N,FR_OUT2*%
X71615200Y66315200D02*
X85406500Y66315200D01*
X70700000Y65400000D02*
X71615200Y66315200D01*
X85406500Y66315200D02*
X86500000Y65221700D01*
X86500000Y63580000D02*
X86500000Y65221700D01*
%TO.N,ALL_OK*%
D25*
X46962300Y69137300D02*
X46159300Y68334300D01*
X46962300Y72187300D02*
X46962300Y69137300D01*
%TO.N,RIGHT_IN1*%
X40263300Y67540900D02*
X50438100Y57366100D01*
X50438100Y57366100D02*
X50438100Y56575100D01*
X32323100Y81023100D02*
X32539900Y80806300D01*
X33530900Y80806300D02*
X33774500Y81049900D01*
X83586900Y17768200D02*
X88247700Y17768200D01*
X77037100Y21661700D02*
X75092900Y19717500D01*
X83532700Y17822400D02*
X83586900Y17768200D01*
X32539900Y80806300D02*
X33530900Y80806300D01*
X38876500Y80907500D02*
X40263300Y79520700D01*
X89543800Y44231700D02*
X75942600Y57832900D01*
X89543800Y19064300D02*
X89543800Y44231700D01*
X75092900Y19026200D02*
X76296700Y17822400D01*
X40263300Y79520700D02*
X40263300Y67540900D01*
X38201800Y80907500D02*
X38876500Y80907500D01*
X88247700Y17768200D02*
X89543800Y19064300D01*
X75092900Y19717500D02*
X75092900Y19026200D01*
X77461500Y21661700D02*
X77037100Y21661700D01*
X75942600Y57832900D02*
X75047600Y57832900D01*
X33774500Y81049900D02*
X38059400Y81049900D01*
X76296700Y17822400D02*
X83532700Y17822400D01*
X38059400Y81049900D02*
X38201800Y80907500D01*
%TO.N,RIGHT_IN2*%
X54137100Y57130200D02*
X60966200Y50301100D01*
X81333800Y17089900D02*
X88254500Y17089900D01*
X54687800Y77260200D02*
X54687800Y70566300D01*
X54137100Y70015600D02*
X54137100Y57130200D01*
X90011700Y18847100D02*
X90011700Y46227900D01*
X43776700Y91765700D02*
X48786500Y86755900D01*
X88254500Y17089900D02*
X90011700Y18847100D01*
X25565800Y85099000D02*
X32232500Y91765700D01*
X54687800Y70566300D02*
X54137100Y70015600D01*
X90011700Y46227900D02*
X78527000Y57712600D01*
X48786500Y83161500D02*
X54687800Y77260200D01*
X26123600Y83086700D02*
X25565800Y83644500D01*
X48786500Y86755900D02*
X48786500Y83161500D01*
X32232500Y91765700D02*
X43776700Y91765700D01*
X25565800Y83644500D02*
X25565800Y85099000D01*
%TO.N,BR_OUT1*%
D29*
X86500000Y20500000D02*
X83935400Y23064600D01*
X79725000Y27275000D02*
X79200000Y27275000D01*
X82773400Y24226600D02*
X79725000Y27275000D01*
X83935400Y23639800D02*
X83348600Y24226600D01*
X83348600Y24226600D02*
X82773400Y24226600D01*
X83935400Y23064600D02*
X83935400Y23639800D01*
%TO.N,BR_OUT2*%
X85404500Y28317200D02*
X86500000Y27221700D01*
X71617200Y28317200D02*
X85404500Y28317200D01*
X70700000Y27400000D02*
X71617200Y28317200D01*
X86500000Y25580000D02*
X86500000Y27221700D01*
%TO.N,BR_VCP*%
D25*
X66394700Y27300200D02*
X66396000Y27301500D01*
X66394700Y24096400D02*
X66394700Y27300200D01*
%TO.N,GPIO18*%
X8000000Y79460000D02*
X9270500Y80730500D01*
X9270500Y80730500D02*
X9270500Y87000000D01*
%TO.N,GPIO27*%
X14145800Y64947600D02*
X14145800Y62645000D01*
X8000000Y66760000D02*
X9270000Y68030000D01*
X11063400Y68030000D02*
X14145800Y64947600D01*
X9270000Y68030000D02*
X11063400Y68030000D01*
%TO.N,WD_OK*%
X38658100Y78000000D02*
X39154200Y77503900D01*
X39154200Y77503900D02*
X39154200Y56305900D01*
X39154200Y56305900D02*
X38017900Y55169600D01*
%TO.N,LEFT_IN1*%
X55781600Y70592800D02*
X54616400Y69427600D01*
X30363200Y92217400D02*
X21795800Y83650000D01*
X54616400Y57799600D02*
X62361600Y50054400D01*
X55781600Y77191900D02*
X55781600Y70592800D01*
X49238200Y86943000D02*
X43963800Y92217400D01*
X54616400Y69427600D02*
X54616400Y57799600D01*
X55781600Y77191900D02*
X49238200Y83735300D01*
X62361600Y50054400D02*
X62361600Y49050400D01*
X43963800Y92217400D02*
X30363200Y92217400D01*
X49238200Y83735300D02*
X49238200Y86943000D01*
%TO.N,LEFT_IN2*%
X62468900Y50975900D02*
X62661300Y50783500D01*
X62468900Y64646300D02*
X62468900Y50975900D01*
%TO.N,FL_OUT1*%
D29*
X79985500Y84275000D02*
X79200000Y84275000D01*
X86500000Y77760500D02*
X79985500Y84275000D01*
X86500000Y77500000D02*
X86500000Y77760500D01*
%TO.N,FL_VCP*%
D23*
X71050000Y83150001D02*
X71000000Y86350000D01*
X70980000Y82250000D02*
X71050000Y83150001D01*
%TO.N,FR_IPROPI*%
D25*
X79262500Y64162500D02*
X81024300Y62400700D01*
X81024300Y62400700D02*
X81024300Y61226000D01*
%TO.N,HB*%
X41209600Y58132100D02*
X45320400Y58132100D01*
X28447200Y65550200D02*
X28447200Y61814800D01*
X45320400Y58132100D02*
X47270000Y56182500D01*
%TO.N,BL_CPH*%
D23*
X70600000Y43500000D02*
X70600000Y40100000D01*
X70600000Y40100000D02*
X70631300Y40050000D01*
%TO.N,BL_OUT1*%
D29*
X86500000Y40642800D02*
X80867800Y46275000D01*
X86500000Y39500000D02*
X86500000Y40642800D01*
X80867800Y46275000D02*
X79200000Y46275000D01*
%TO.N,BL_OUT2*%
X71300000Y50000000D02*
X85427000Y47294700D01*
X70700000Y46400000D02*
X71300000Y47000000D01*
X86500000Y44580000D02*
X86500000Y46221700D01*
X71300000Y47000000D02*
X71300000Y50000000D01*
X86500000Y46221700D02*
X85427000Y47294700D01*
%TO.N,BL_VCP*%
D23*
X70980000Y44250000D02*
X72250000Y47050000D01*
%TO.N,PWM_A_RAW*%
D25*
X45696100Y85586600D02*
X45696100Y84321400D01*
X39395200Y90221400D02*
X39819100Y90645300D01*
X44227600Y84362800D02*
X44227600Y85294300D01*
X45696100Y84321400D02*
X45311700Y83937000D01*
X39819100Y90645300D02*
X40637400Y90645300D01*
X37427600Y85088300D02*
X37824100Y85088300D01*
X44227600Y85294300D02*
X44197900Y85324000D01*
X36599100Y87244600D02*
X36599100Y87105700D01*
X39395200Y87247400D02*
X39395200Y90221400D01*
X33342500Y90501200D02*
X36599100Y87244600D01*
X45311700Y83937000D02*
X44653400Y83937000D01*
X36599100Y87105700D02*
X36599100Y85916800D01*
X39637500Y86901700D02*
X39637500Y87005100D01*
X44653400Y83937000D02*
X44227600Y84362800D01*
X39637500Y87005100D02*
X39395200Y87247400D01*
X37824100Y85088300D02*
X39637500Y86901700D01*
X40637400Y90645300D02*
X45696100Y85586600D01*
X36599100Y85916800D02*
X37427600Y85088300D01*
%TO.N,LEFT_PRE1*%
X27748500Y85570900D02*
X29929900Y83389500D01*
X29929900Y83389500D02*
X37402900Y83389500D01*
X40612200Y86598800D02*
X42489400Y86598800D01*
X37402900Y83389500D02*
X40612200Y86598800D01*
%TO.N,LEFT_PRE2*%
X27231900Y80829300D02*
X24681800Y83379400D01*
X24681800Y83379400D02*
X24546100Y83379400D01*
%TO.N,RIGHT_PRE1*%
X38388900Y81359200D02*
X40057200Y81359200D01*
X40057200Y81359200D02*
X41356200Y82658200D01*
X41356200Y82658200D02*
X41499800Y82658200D01*
X41499800Y82658200D02*
X41932000Y83090400D01*
X41932000Y83090400D02*
X42836800Y83090400D01*
X33229900Y81533000D02*
X33279600Y81582700D01*
X38165400Y81582700D02*
X38388900Y81359200D01*
X33279600Y81582700D02*
X38165400Y81582700D01*
%TO.N,RIGHT_PRE2*%
X38176800Y83520800D02*
X39984200Y83520800D01*
X43021200Y85347200D02*
X43775900Y84592500D01*
X28173600Y82894700D02*
X37550700Y82894700D01*
X44466300Y83485300D02*
X45593100Y83485300D01*
X39984200Y83520800D02*
X41810600Y85347200D01*
X45593100Y83485300D02*
X46163200Y84055400D01*
X46163200Y84055400D02*
X46163200Y86191000D01*
X27498600Y83569700D02*
X28173600Y82894700D01*
X46163200Y86191000D02*
X45518900Y86835300D01*
X43775900Y84175700D02*
X44466300Y83485300D01*
X41810600Y85347200D02*
X43021200Y85347200D01*
X43775900Y84592500D02*
X43775900Y84175700D01*
X37550700Y82894700D02*
X38176800Y83520800D01*
%TO.N,HB_RAW*%
X20680500Y60060000D02*
X30623900Y50116600D01*
X42297300Y53909000D02*
X41314200Y54892100D01*
X43873000Y55919800D02*
X44244100Y55548700D01*
X30623900Y50116600D02*
X41879100Y50116600D01*
X20680500Y61152700D02*
X20680500Y60060000D01*
X41314200Y55501500D02*
X41732500Y55919800D01*
X41314200Y54892100D02*
X41314200Y55501500D01*
X41879100Y50116600D02*
X42297300Y50534800D01*
X41732500Y55919800D02*
X43873000Y55919800D01*
X42297300Y50534800D02*
X42297300Y53909000D01*
%TO.N,FR_CPH*%
D23*
X70950000Y62570000D02*
X70550000Y60000000D01*
%TO.N,FR_VCP*%
D25*
X66335600Y65385600D02*
X66335600Y62131200D01*
%TD*%
%TA.AperFunction,Conductor*%
%TO.N,GND*%
G36*
X85102970Y46745341D02*
G01*
X85154353Y46718112D01*
X85870504Y46001961D01*
X85898281Y45947444D01*
X85899500Y45931957D01*
X85899500Y45919500D01*
X85880593Y45861309D01*
X85831093Y45825345D01*
X85800500Y45820500D01*
X85642368Y45820500D01*
X85449518Y45789956D01*
X85263814Y45729618D01*
X85089838Y45640973D01*
X85010852Y45583586D01*
X84931868Y45526201D01*
X84793799Y45388132D01*
X84736414Y45309148D01*
X84679027Y45230162D01*
X84590382Y45056186D01*
X84530044Y44870482D01*
X84499500Y44677633D01*
X84499500Y44482368D01*
X84530044Y44289519D01*
X84590382Y44103815D01*
X84672481Y43942686D01*
X84679029Y43929836D01*
X84793799Y43771868D01*
X84931868Y43633799D01*
X85089836Y43519029D01*
X85263813Y43430383D01*
X85449516Y43370045D01*
X85526658Y43357827D01*
X85642368Y43339500D01*
X85642371Y43339500D01*
X87357632Y43339500D01*
X87454056Y43354773D01*
X87550484Y43370045D01*
X87736187Y43430383D01*
X87910164Y43519029D01*
X88068132Y43633799D01*
X88206201Y43771868D01*
X88320971Y43929836D01*
X88409617Y44103813D01*
X88469955Y44289516D01*
X88488342Y44405605D01*
X88500500Y44482368D01*
X88500500Y44575666D01*
X88519407Y44633857D01*
X88568907Y44669821D01*
X88630093Y44669821D01*
X88669504Y44645670D01*
X89189304Y44125870D01*
X89217081Y44071353D01*
X89218300Y44055866D01*
X89218300Y29089835D01*
X89199393Y29031644D01*
X89149893Y28995680D01*
X89088707Y28995680D01*
X89049296Y29019831D01*
X83403011Y34666116D01*
X83375234Y34720633D01*
X83374863Y34749048D01*
X83375600Y34754644D01*
X83375600Y34912756D01*
X83373072Y34922191D01*
X83334677Y35065484D01*
X83255620Y35202416D01*
X83143816Y35314220D01*
X83143813Y35314222D01*
X83143812Y35314223D01*
X83139328Y35317664D01*
X83104675Y35368091D01*
X83100600Y35396203D01*
X83100600Y36488552D01*
X83100600Y36488553D01*
X83084730Y36547781D01*
X83084730Y36547782D01*
X83084730Y36547783D01*
X83078420Y36571334D01*
X83078419Y36571336D01*
X83078418Y36571337D01*
X83078418Y36571339D01*
X83035565Y36645562D01*
X80958806Y38722321D01*
X80931029Y38776838D01*
X80940600Y38837270D01*
X80983865Y38880535D01*
X81009847Y38888603D01*
X81009789Y38888821D01*
X81015366Y38890316D01*
X81015890Y38890478D01*
X81016053Y38890500D01*
X81016057Y38890500D01*
X81168784Y38931423D01*
X81305716Y39010480D01*
X81417520Y39122284D01*
X81496577Y39259216D01*
X81537500Y39411943D01*
X81537500Y39570057D01*
X81496577Y39722784D01*
X81495673Y39726158D01*
X81492300Y39751781D01*
X81492300Y44562257D01*
X81511207Y44620448D01*
X81560707Y44656412D01*
X81621893Y44656412D01*
X81661303Y44632262D01*
X83522876Y42770688D01*
X85384060Y40909504D01*
X85411837Y40854987D01*
X85402266Y40794555D01*
X85359001Y40751290D01*
X85314056Y40740500D01*
X84895732Y40740500D01*
X84865303Y40737647D01*
X84737113Y40692792D01*
X84627854Y40612155D01*
X84627845Y40612146D01*
X84547207Y40502885D01*
X84502355Y40374705D01*
X84502353Y40374696D01*
X84499500Y40344276D01*
X84499500Y38655733D01*
X84502353Y38625304D01*
X84502353Y38625302D01*
X84502354Y38625300D01*
X84511382Y38599500D01*
X84547208Y38497114D01*
X84627845Y38387855D01*
X84627854Y38387846D01*
X84737115Y38307208D01*
X84737116Y38307208D01*
X84737117Y38307207D01*
X84865300Y38262354D01*
X84895733Y38259500D01*
X88104266Y38259501D01*
X88104267Y38259501D01*
X88110352Y38260072D01*
X88134700Y38262354D01*
X88262883Y38307207D01*
X88278775Y38318936D01*
X88372145Y38387846D01*
X88372146Y38387848D01*
X88372150Y38387850D01*
X88452793Y38497117D01*
X88497646Y38625300D01*
X88500500Y38655733D01*
X88500499Y40344266D01*
X88497646Y40374700D01*
X88452793Y40502883D01*
X88452791Y40502885D01*
X88452791Y40502887D01*
X88372154Y40612146D01*
X88372145Y40612155D01*
X88262884Y40692793D01*
X88134704Y40737645D01*
X88134695Y40737647D01*
X88104275Y40740500D01*
X88104267Y40740500D01*
X87171470Y40740500D01*
X87113279Y40759407D01*
X87077315Y40808907D01*
X87075848Y40813859D01*
X87059577Y40874584D01*
X86980520Y41011516D01*
X81348321Y46643714D01*
X81348320Y46643716D01*
X81236516Y46755520D01*
X81231024Y46758691D01*
X81121025Y46822200D01*
X81121022Y46822200D01*
X81099585Y46834577D01*
X80946857Y46875501D01*
X80788743Y46875501D01*
X80782680Y46875501D01*
X80782664Y46875500D01*
X79120943Y46875500D01*
X78968216Y46834577D01*
X78831284Y46755520D01*
X78719480Y46643716D01*
X78640423Y46506784D01*
X78599500Y46354057D01*
X78599500Y46195943D01*
X78640423Y46043216D01*
X78719480Y45906284D01*
X78831284Y45794480D01*
X78968216Y45715423D01*
X79120943Y45674500D01*
X80152757Y45674500D01*
X80210948Y45655593D01*
X80246912Y45606093D01*
X80246912Y45544907D01*
X80222762Y45505499D01*
X80145680Y45428416D01*
X80066623Y45291484D01*
X80025700Y45138757D01*
X80025700Y44980643D01*
X80066623Y44827916D01*
X80145680Y44690984D01*
X80217162Y44619502D01*
X80244938Y44564987D01*
X80235367Y44504555D01*
X80192102Y44461290D01*
X80147157Y44450500D01*
X80050539Y44450500D01*
X79992348Y44469407D01*
X79982182Y44477888D01*
X79979348Y44480593D01*
X79531143Y44908426D01*
X79502105Y44962282D01*
X79500500Y44980038D01*
X79500500Y45065891D01*
X79500239Y45066865D01*
X79466392Y45193186D01*
X79466390Y45193189D01*
X79466390Y45193191D01*
X79400503Y45307310D01*
X79400501Y45307312D01*
X79400500Y45307314D01*
X79307314Y45400500D01*
X79307311Y45400502D01*
X79307309Y45400504D01*
X79193189Y45466391D01*
X79193191Y45466391D01*
X79170736Y45472408D01*
X79065892Y45500500D01*
X78934108Y45500500D01*
X78856200Y45479625D01*
X78806809Y45466391D01*
X78692690Y45400504D01*
X78599496Y45307310D01*
X78533609Y45193191D01*
X78522785Y45152793D01*
X78499500Y45065892D01*
X78499500Y44934108D01*
X78524591Y44840465D01*
X78533609Y44806810D01*
X78599496Y44692691D01*
X78599498Y44692689D01*
X78599500Y44692686D01*
X78692686Y44599500D01*
X78692688Y44599499D01*
X78692690Y44599497D01*
X78806810Y44533610D01*
X78806808Y44533610D01*
X78806812Y44533609D01*
X78806814Y44533608D01*
X78934108Y44499500D01*
X78934110Y44499500D01*
X79049462Y44499500D01*
X79107653Y44480593D01*
X79117817Y44472114D01*
X79568858Y44041576D01*
X79597895Y43987721D01*
X79599500Y43969965D01*
X79599500Y43884108D01*
X79608773Y43849500D01*
X79633609Y43756810D01*
X79699496Y43642691D01*
X79699498Y43642689D01*
X79699500Y43642686D01*
X79792686Y43549500D01*
X79792688Y43549499D01*
X79792690Y43549497D01*
X79906810Y43483610D01*
X79906808Y43483610D01*
X79906812Y43483609D01*
X79906814Y43483608D01*
X80034108Y43449500D01*
X80034110Y43449500D01*
X80165890Y43449500D01*
X80165892Y43449500D01*
X80293186Y43483608D01*
X80293188Y43483610D01*
X80293190Y43483610D01*
X80407309Y43549497D01*
X80407309Y43549498D01*
X80407314Y43549500D01*
X80500500Y43642686D01*
X80500503Y43642691D01*
X80566390Y43756810D01*
X80566390Y43756812D01*
X80566392Y43756814D01*
X80600500Y43884108D01*
X80600500Y44015892D01*
X80566392Y44143186D01*
X80566390Y44143189D01*
X80566390Y44143191D01*
X80500503Y44257310D01*
X80500501Y44257312D01*
X80500500Y44257314D01*
X80467155Y44290659D01*
X80439380Y44345173D01*
X80448951Y44405605D01*
X80492216Y44448870D01*
X80540654Y44457193D01*
X80540654Y44459200D01*
X80705256Y44459200D01*
X80705257Y44459200D01*
X80705257Y44459201D01*
X80710852Y44459937D01*
X80771014Y44448791D01*
X80793784Y44431789D01*
X80812304Y44413269D01*
X80840081Y44358752D01*
X80841300Y44343265D01*
X80841300Y42864843D01*
X80822393Y42806652D01*
X80772893Y42770688D01*
X80711707Y42770688D01*
X80692801Y42779106D01*
X80655785Y42800477D01*
X80604875Y42814118D01*
X80503057Y42841400D01*
X80344943Y42841400D01*
X80199229Y42802356D01*
X80192216Y42800477D01*
X80055284Y42721420D01*
X79943480Y42609616D01*
X79864423Y42472684D01*
X79823500Y42319956D01*
X79823500Y42161840D01*
X79824237Y42156240D01*
X79813086Y42096079D01*
X79796088Y42073316D01*
X78776632Y41053859D01*
X78776631Y41053858D01*
X78733783Y40979644D01*
X78721381Y40933359D01*
X78711600Y40896853D01*
X78711600Y35800153D01*
X78711600Y35714447D01*
X78728690Y35650666D01*
X78733783Y35631657D01*
X78776631Y35557443D01*
X78776633Y35557441D01*
X78776635Y35557438D01*
X82106454Y32227620D01*
X85247370Y29086704D01*
X85275147Y29032187D01*
X85265576Y28971755D01*
X85222311Y28928490D01*
X85177366Y28917700D01*
X71702337Y28917700D01*
X71702321Y28917701D01*
X71696258Y28917701D01*
X71538143Y28917701D01*
X71538140Y28917701D01*
X71385419Y28876779D01*
X71385418Y28876779D01*
X71248484Y28797720D01*
X70369504Y27918740D01*
X70314987Y27890963D01*
X70254555Y27900534D01*
X70211290Y27943799D01*
X70200500Y27988744D01*
X70200500Y39433852D01*
X70219407Y39492043D01*
X70268907Y39528007D01*
X70330093Y39528007D01*
X70348993Y39519592D01*
X70399516Y39490423D01*
X70552243Y39449500D01*
X70552245Y39449500D01*
X70710355Y39449500D01*
X70710357Y39449500D01*
X70863084Y39490423D01*
X71000016Y39569480D01*
X71111820Y39681284D01*
X71190877Y39818216D01*
X71231800Y39970943D01*
X71231800Y40129057D01*
X71190877Y40281784D01*
X71111820Y40418716D01*
X71000016Y40530520D01*
X71000013Y40530522D01*
X70949999Y40559398D01*
X70909059Y40604868D01*
X70900500Y40645134D01*
X70900500Y40957757D01*
X72345800Y40957757D01*
X72345800Y40799643D01*
X72386723Y40646916D01*
X72465780Y40509984D01*
X72516805Y40458959D01*
X72544581Y40404444D01*
X72545800Y40388957D01*
X72545800Y39532927D01*
X72545800Y39427473D01*
X72569870Y39337641D01*
X72573094Y39325608D01*
X72625816Y39234292D01*
X72625818Y39234290D01*
X72625820Y39234287D01*
X76463905Y35396203D01*
X79958004Y31902104D01*
X79985781Y31847587D01*
X79987000Y31832100D01*
X79987000Y31759943D01*
X80027923Y31607216D01*
X80106980Y31470284D01*
X80218784Y31358480D01*
X80355716Y31279423D01*
X80508443Y31238500D01*
X80508445Y31238500D01*
X80666555Y31238500D01*
X80666557Y31238500D01*
X80819284Y31279423D01*
X80956216Y31358480D01*
X81068020Y31470284D01*
X81147077Y31607216D01*
X81188000Y31759943D01*
X81188000Y31918057D01*
X81147077Y32070784D01*
X81068020Y32207716D01*
X80956216Y32319520D01*
X80819284Y32398577D01*
X80666557Y32439500D01*
X80666555Y32439500D01*
X80594400Y32439500D01*
X80536209Y32458407D01*
X80524396Y32468496D01*
X73375796Y39617097D01*
X73348019Y39671614D01*
X73346800Y39687101D01*
X73346800Y40388957D01*
X73365707Y40447148D01*
X73375790Y40458955D01*
X73426820Y40509984D01*
X73505877Y40646916D01*
X73546800Y40799643D01*
X73546800Y40957757D01*
X73505877Y41110484D01*
X73426820Y41247416D01*
X73315016Y41359220D01*
X73178084Y41438277D01*
X73025357Y41479200D01*
X72867243Y41479200D01*
X72714516Y41438277D01*
X72577584Y41359220D01*
X72465780Y41247416D01*
X72386723Y41110484D01*
X72345800Y40957757D01*
X70900500Y40957757D01*
X70900500Y43051679D01*
X70919407Y43109870D01*
X70929490Y43121677D01*
X71000500Y43192686D01*
X71058754Y43293584D01*
X71066390Y43306810D01*
X71066390Y43306812D01*
X71066392Y43306814D01*
X71100500Y43434108D01*
X71100500Y43565892D01*
X71076562Y43655230D01*
X71079764Y43716327D01*
X71118269Y43763877D01*
X71146564Y43776475D01*
X71173186Y43783608D01*
X71287314Y43849500D01*
X71380500Y43942686D01*
X71422766Y44015892D01*
X71446390Y44056810D01*
X71446390Y44056812D01*
X71446392Y44056814D01*
X71480500Y44184108D01*
X71480500Y44315892D01*
X71446392Y44443186D01*
X71444498Y44446466D01*
X71443934Y44449118D01*
X71443909Y44449180D01*
X71443920Y44449185D01*
X71431777Y44506312D01*
X71440074Y44536855D01*
X72338748Y46518185D01*
X72380003Y46563368D01*
X72403286Y46572917D01*
X72443180Y46583606D01*
X72443182Y46583607D01*
X72443181Y46583607D01*
X72443186Y46583608D01*
X72557314Y46649500D01*
X72650500Y46742686D01*
X72659741Y46758691D01*
X72716390Y46856810D01*
X72716390Y46856812D01*
X72716392Y46856814D01*
X72750500Y46984108D01*
X72750500Y47115892D01*
X72716392Y47243186D01*
X72716390Y47243189D01*
X72716390Y47243191D01*
X72650503Y47357310D01*
X72650501Y47357312D01*
X72650500Y47357314D01*
X72557314Y47450500D01*
X72557311Y47450502D01*
X72557309Y47450504D01*
X72443189Y47516391D01*
X72443191Y47516391D01*
X72393799Y47529625D01*
X72315892Y47550500D01*
X72184108Y47550500D01*
X72106200Y47529625D01*
X72056809Y47516391D01*
X72048997Y47511880D01*
X71989149Y47499161D01*
X71933254Y47524049D01*
X71902663Y47577038D01*
X71900500Y47597618D01*
X71900500Y49153837D01*
X71919407Y49212028D01*
X71968907Y49247992D01*
X72018120Y49251070D01*
X85102970Y46745341D01*
G37*
%TD.AperFunction*%
%TA.AperFunction,Conductor*%
G36*
X65767886Y65780593D02*
G01*
X65803850Y65731093D01*
X65803850Y65669907D01*
X65795431Y65651000D01*
X65776024Y65617387D01*
X65776024Y65617386D01*
X65776023Y65617384D01*
X65735100Y65464657D01*
X65735100Y65306543D01*
X65776023Y65153816D01*
X65855080Y65016884D01*
X65966884Y64905080D01*
X65966886Y64905079D01*
X65966888Y64905077D01*
X65971367Y64901640D01*
X66006023Y64851216D01*
X66010100Y64823098D01*
X66010100Y62693703D01*
X65991193Y62635512D01*
X65971372Y62615164D01*
X65966887Y62611723D01*
X65966884Y62611720D01*
X65855080Y62499916D01*
X65776023Y62362984D01*
X65735100Y62210257D01*
X65735100Y62052143D01*
X65776023Y61899416D01*
X65855080Y61762484D01*
X65966884Y61650680D01*
X66103816Y61571623D01*
X66256543Y61530700D01*
X66256545Y61530700D01*
X66414655Y61530700D01*
X66414657Y61530700D01*
X66567384Y61571623D01*
X66651001Y61619900D01*
X66710848Y61632621D01*
X66766744Y61607735D01*
X66797337Y61554747D01*
X66799500Y61534163D01*
X66799500Y48299500D01*
X66780593Y48241309D01*
X66731093Y48205345D01*
X66700500Y48200500D01*
X55931004Y48200500D01*
X55795672Y48173580D01*
X55795670Y48173580D01*
X55668193Y48120778D01*
X55668182Y48120772D01*
X55553458Y48044115D01*
X55455885Y47946542D01*
X55379228Y47831818D01*
X55379222Y47831807D01*
X55326420Y47704330D01*
X55326420Y47704328D01*
X55299500Y47568996D01*
X55299500Y45299500D01*
X55280593Y45241309D01*
X55231093Y45205345D01*
X55200500Y45200500D01*
X55195725Y45200500D01*
X55165305Y45197647D01*
X55165296Y45197645D01*
X55037116Y45152793D01*
X54927855Y45072155D01*
X54927845Y45072145D01*
X54847207Y44962884D01*
X54802355Y44834704D01*
X54802353Y44834695D01*
X54799500Y44804275D01*
X54799500Y43195726D01*
X54802353Y43165306D01*
X54802355Y43165297D01*
X54847207Y43037117D01*
X54927845Y42927856D01*
X54927847Y42927854D01*
X54927850Y42927850D01*
X54927853Y42927848D01*
X54927855Y42927846D01*
X55037116Y42847208D01*
X55037117Y42847208D01*
X55037118Y42847207D01*
X55165301Y42802354D01*
X55195725Y42799501D01*
X55195727Y42799500D01*
X55195734Y42799500D01*
X56804273Y42799500D01*
X56804273Y42799501D01*
X56834699Y42802354D01*
X56962882Y42847207D01*
X57072150Y42927850D01*
X57152793Y43037118D01*
X57197646Y43165301D01*
X57200499Y43195727D01*
X57200500Y43195727D01*
X57200500Y44804273D01*
X57200499Y44804275D01*
X57197646Y44834695D01*
X57197646Y44834699D01*
X57152793Y44962882D01*
X57140131Y44980038D01*
X57072154Y45072145D01*
X57072152Y45072147D01*
X57072150Y45072150D01*
X57072146Y45072153D01*
X57072144Y45072155D01*
X56962883Y45152793D01*
X56834703Y45197645D01*
X56834694Y45197647D01*
X56804274Y45200500D01*
X56804266Y45200500D01*
X56799500Y45200500D01*
X56741309Y45219407D01*
X56705345Y45268907D01*
X56700500Y45299500D01*
X56700500Y46700500D01*
X56719407Y46758691D01*
X56768907Y46794655D01*
X56799500Y46799500D01*
X66700500Y46799500D01*
X66758691Y46780593D01*
X66794655Y46731093D01*
X66799500Y46700500D01*
X66799500Y37799500D01*
X66780593Y37741309D01*
X66731093Y37705345D01*
X66700500Y37700500D01*
X41888542Y37700500D01*
X41667544Y37671405D01*
X41667539Y37671405D01*
X41452217Y37613710D01*
X41246277Y37528408D01*
X41246272Y37528405D01*
X41053228Y37416950D01*
X40876377Y37281248D01*
X40876372Y37281244D01*
X40824624Y37229496D01*
X40770107Y37201719D01*
X40754621Y37200500D01*
X39132734Y37200500D01*
X39074543Y37219407D01*
X39038579Y37268907D01*
X39038579Y37330093D01*
X39062730Y37369504D01*
X43502190Y41808964D01*
X48312965Y46619738D01*
X48319920Y46631785D01*
X48355818Y46693962D01*
X48378000Y46776747D01*
X48378000Y53774700D01*
X48396907Y53832891D01*
X48446407Y53868855D01*
X48477000Y53873700D01*
X53399751Y53873700D01*
X53399753Y53873700D01*
X53482539Y53895882D01*
X53482541Y53895884D01*
X53482543Y53895884D01*
X53556757Y53938732D01*
X53556757Y53938733D01*
X53556762Y53938735D01*
X54101865Y54483838D01*
X54110490Y54498777D01*
X54112651Y54502519D01*
X54144717Y54558061D01*
X54144718Y54558062D01*
X54166900Y54640847D01*
X54166900Y56401066D01*
X54185807Y56459257D01*
X54235307Y56495221D01*
X54296493Y56495221D01*
X54335904Y56471070D01*
X60338288Y50468686D01*
X60366065Y50414169D01*
X60366438Y50385766D01*
X60365700Y50380158D01*
X60365700Y50380157D01*
X60365700Y50222043D01*
X60406623Y50069316D01*
X60485680Y49932384D01*
X60597484Y49820580D01*
X60734416Y49741523D01*
X60887143Y49700600D01*
X60887145Y49700600D01*
X61045255Y49700600D01*
X61045257Y49700600D01*
X61197984Y49741523D01*
X61334916Y49820580D01*
X61446720Y49932384D01*
X61525777Y50069316D01*
X61557596Y50188069D01*
X61590919Y50239380D01*
X61648040Y50261307D01*
X61707141Y50245472D01*
X61723226Y50232447D01*
X62007104Y49948569D01*
X62034881Y49894052D01*
X62036100Y49878565D01*
X62036100Y49612903D01*
X62017193Y49554712D01*
X61997372Y49534364D01*
X61992887Y49530923D01*
X61992884Y49530920D01*
X61881080Y49419116D01*
X61802023Y49282184D01*
X61761100Y49129457D01*
X61761100Y48971343D01*
X61802023Y48818616D01*
X61881080Y48681684D01*
X61992884Y48569880D01*
X62129816Y48490823D01*
X62282543Y48449900D01*
X62282545Y48449900D01*
X62440655Y48449900D01*
X62440657Y48449900D01*
X62593384Y48490823D01*
X62730316Y48569880D01*
X62842120Y48681684D01*
X62921177Y48818616D01*
X62962100Y48971343D01*
X62962100Y49129457D01*
X62921177Y49282184D01*
X62842120Y49419116D01*
X62730316Y49530920D01*
X62730313Y49530922D01*
X62730312Y49530923D01*
X62725828Y49534364D01*
X62691175Y49584791D01*
X62687100Y49612903D01*
X62687100Y50092765D01*
X62706007Y50150956D01*
X62755507Y50186920D01*
X62760446Y50188383D01*
X62893084Y50223923D01*
X63030016Y50302980D01*
X63141820Y50414784D01*
X63220877Y50551716D01*
X63261800Y50704443D01*
X63261800Y50862557D01*
X63220877Y51015284D01*
X63141820Y51152216D01*
X63030016Y51264020D01*
X62893084Y51343077D01*
X62893081Y51343078D01*
X62867775Y51349859D01*
X62816462Y51383183D01*
X62794536Y51440305D01*
X62794400Y51445485D01*
X62794400Y64083798D01*
X62813307Y64141989D01*
X62833133Y64162340D01*
X62837611Y64165777D01*
X62837611Y64165778D01*
X62837616Y64165780D01*
X62949420Y64277584D01*
X62973371Y64319069D01*
X63018838Y64360008D01*
X63079688Y64366405D01*
X63132676Y64335813D01*
X63155925Y64285386D01*
X63156021Y64285411D01*
X63156170Y64284853D01*
X63157258Y64282494D01*
X63157698Y64279152D01*
X63157700Y64279145D01*
X63157700Y64279143D01*
X63198623Y64126416D01*
X63277680Y63989484D01*
X63389484Y63877680D01*
X63389486Y63877679D01*
X63389488Y63877677D01*
X63393967Y63874240D01*
X63428623Y63823816D01*
X63432700Y63795698D01*
X63432700Y52947703D01*
X63413793Y52889512D01*
X63393972Y52869164D01*
X63389487Y52865723D01*
X63389484Y52865720D01*
X63277680Y52753916D01*
X63198623Y52616984D01*
X63157700Y52464257D01*
X63157700Y52306143D01*
X63198623Y52153416D01*
X63277680Y52016484D01*
X63389484Y51904680D01*
X63526416Y51825623D01*
X63679143Y51784700D01*
X63679145Y51784700D01*
X63837255Y51784700D01*
X63837257Y51784700D01*
X63989984Y51825623D01*
X64126916Y51904680D01*
X64238720Y52016484D01*
X64317777Y52153416D01*
X64358700Y52306143D01*
X64358700Y52464257D01*
X64317777Y52616984D01*
X64238720Y52753916D01*
X64126916Y52865720D01*
X64126913Y52865722D01*
X64126912Y52865723D01*
X64122428Y52869164D01*
X64087775Y52919591D01*
X64083700Y52947703D01*
X64083700Y63795698D01*
X64102607Y63853889D01*
X64122433Y63874240D01*
X64126911Y63877677D01*
X64126911Y63877678D01*
X64126916Y63877680D01*
X64238720Y63989484D01*
X64317777Y64126416D01*
X64358700Y64279143D01*
X64358700Y64437257D01*
X64317777Y64589984D01*
X64238720Y64726916D01*
X64126916Y64838720D01*
X63989984Y64917777D01*
X63837257Y64958700D01*
X63679143Y64958700D01*
X63532772Y64919480D01*
X63526416Y64917777D01*
X63389484Y64838720D01*
X63277679Y64726915D01*
X63253729Y64685432D01*
X63208259Y64644492D01*
X63147409Y64638097D01*
X63094421Y64668690D01*
X63071175Y64719115D01*
X63071079Y64719089D01*
X63070927Y64719653D01*
X63069839Y64722015D01*
X63069400Y64725345D01*
X63069400Y64725357D01*
X63028477Y64878084D01*
X62949420Y65015016D01*
X62837616Y65126820D01*
X62700684Y65205877D01*
X62547957Y65246800D01*
X62389843Y65246800D01*
X62237116Y65205877D01*
X62100184Y65126820D01*
X61988380Y65015016D01*
X61909323Y64878084D01*
X61868400Y64725357D01*
X61868400Y64567243D01*
X61909323Y64414516D01*
X61988380Y64277584D01*
X62100184Y64165780D01*
X62100186Y64165779D01*
X62100188Y64165777D01*
X62104667Y64162340D01*
X62139323Y64111916D01*
X62143400Y64083798D01*
X62143400Y51113999D01*
X62130137Y51064500D01*
X62101723Y51015286D01*
X62101722Y51015282D01*
X62095241Y50991095D01*
X62061916Y50939781D01*
X62004794Y50917856D01*
X61945694Y50933693D01*
X61929611Y50946716D01*
X54970896Y57905431D01*
X54943119Y57959948D01*
X54941900Y57975435D01*
X54941900Y61740998D01*
X54960807Y61799189D01*
X55010307Y61835153D01*
X55071493Y61835153D01*
X55073598Y61834442D01*
X55165301Y61802354D01*
X55195725Y61799501D01*
X55195727Y61799500D01*
X55195734Y61799500D01*
X56804273Y61799500D01*
X56804273Y61799501D01*
X56834699Y61802354D01*
X56962882Y61847207D01*
X57072150Y61927850D01*
X57152793Y62037118D01*
X57197646Y62165301D01*
X57200499Y62195727D01*
X57200500Y62195727D01*
X57200500Y63804273D01*
X57200499Y63804275D01*
X57197646Y63834699D01*
X57152793Y63962882D01*
X57133159Y63989485D01*
X57072154Y64072145D01*
X57072152Y64072147D01*
X57072150Y64072150D01*
X57072146Y64072153D01*
X57072144Y64072155D01*
X56962883Y64152793D01*
X56834703Y64197645D01*
X56834694Y64197647D01*
X56804274Y64200500D01*
X56804266Y64200500D01*
X56799500Y64200500D01*
X56741309Y64219407D01*
X56705345Y64268907D01*
X56700500Y64299500D01*
X56700500Y65700500D01*
X56719407Y65758691D01*
X56768907Y65794655D01*
X56799500Y65799500D01*
X65709695Y65799500D01*
X65767886Y65780593D01*
G37*
%TD.AperFunction*%
%TA.AperFunction,Conductor*%
G36*
X78647181Y65695793D02*
G01*
X78683145Y65646293D01*
X78683145Y65585107D01*
X78674727Y65566201D01*
X78640423Y65506786D01*
X78616522Y65417585D01*
X78599500Y65354057D01*
X78599500Y65195943D01*
X78640423Y65043216D01*
X78719480Y64906284D01*
X78831284Y64794480D01*
X78855196Y64780675D01*
X78896136Y64735206D01*
X78902532Y64674356D01*
X78875699Y64624936D01*
X78781982Y64531219D01*
X78781980Y64531217D01*
X78781980Y64531216D01*
X78702923Y64394284D01*
X78662000Y64241557D01*
X78662000Y64083443D01*
X78702923Y63930716D01*
X78781980Y63793784D01*
X78893784Y63681980D01*
X79030716Y63602923D01*
X79183443Y63562000D01*
X79183445Y63562000D01*
X79341556Y63562000D01*
X79341557Y63562000D01*
X79341557Y63562001D01*
X79347152Y63562737D01*
X79407314Y63551591D01*
X79430084Y63534589D01*
X80669804Y62294869D01*
X80697581Y62240352D01*
X80698800Y62224865D01*
X80698800Y61788503D01*
X80679893Y61730312D01*
X80660072Y61709964D01*
X80655587Y61706523D01*
X80543779Y61594715D01*
X80527780Y61567003D01*
X80482310Y61526063D01*
X80421460Y61519668D01*
X80368472Y61550261D01*
X80354616Y61570058D01*
X80267657Y61733745D01*
X79868099Y62485856D01*
X79866812Y62488364D01*
X79851837Y62518652D01*
X79851834Y62518656D01*
X79849352Y62522361D01*
X79846815Y62525921D01*
X79823799Y62550620D01*
X79821863Y62552759D01*
X79799604Y62578087D01*
X79796266Y62581009D01*
X79792880Y62583801D01*
X79764283Y62601685D01*
X79761861Y62603249D01*
X79693415Y62648880D01*
X79655486Y62696891D01*
X79652325Y62709664D01*
X79652179Y62709624D01*
X79648312Y62724057D01*
X79616392Y62843186D01*
X79616390Y62843189D01*
X79616390Y62843191D01*
X79550503Y62957310D01*
X79550501Y62957312D01*
X79550500Y62957314D01*
X79457314Y63050500D01*
X79457311Y63050502D01*
X79457309Y63050504D01*
X79343189Y63116391D01*
X79343191Y63116391D01*
X79293799Y63129625D01*
X79215892Y63150500D01*
X79084108Y63150500D01*
X79006200Y63129625D01*
X78956809Y63116391D01*
X78842690Y63050504D01*
X78749496Y62957310D01*
X78683609Y62843191D01*
X78683608Y62843186D01*
X78649500Y62715892D01*
X78649500Y62584108D01*
X78665091Y62525921D01*
X78683609Y62456810D01*
X78749496Y62342691D01*
X78749498Y62342689D01*
X78749500Y62342686D01*
X78822183Y62270003D01*
X78849959Y62215488D01*
X78840388Y62155056D01*
X78822183Y62129999D01*
X78799500Y62107316D01*
X78799495Y62107310D01*
X78733608Y61993191D01*
X78699499Y61865891D01*
X78699499Y61765480D01*
X78680592Y61707289D01*
X78670503Y61695476D01*
X77454525Y60479496D01*
X77400008Y60451719D01*
X77384521Y60450500D01*
X73892608Y60450500D01*
X73834417Y60469407D01*
X73829917Y60472878D01*
X73782025Y60512062D01*
X73633227Y60633806D01*
X73405708Y60819958D01*
X73398395Y60826576D01*
X73384510Y60840461D01*
X73378350Y60844018D01*
X73365167Y60853128D01*
X73359669Y60857626D01*
X73359666Y60857628D01*
X73341764Y60865708D01*
X73332998Y60870202D01*
X73323808Y60875507D01*
X73315989Y60880021D01*
X73309122Y60881861D01*
X73294035Y60887246D01*
X73287549Y60890173D01*
X73268159Y60893345D01*
X73258535Y60895417D01*
X73239565Y60900500D01*
X73239562Y60900500D01*
X73232457Y60900500D01*
X73216478Y60901798D01*
X73209466Y60902945D01*
X73209465Y60902945D01*
X73203825Y60902381D01*
X73189924Y60900991D01*
X73180075Y60900500D01*
X72663304Y60900500D01*
X72656721Y60900719D01*
X72640534Y60901798D01*
X72630514Y60902466D01*
X72630513Y60902466D01*
X72630512Y60902466D01*
X72630084Y60902381D01*
X72610877Y60900500D01*
X72610436Y60900500D01*
X72585059Y60893701D01*
X72578651Y60892211D01*
X72552895Y60887117D01*
X72552888Y60887115D01*
X72552485Y60886916D01*
X72534453Y60880140D01*
X72534020Y60880024D01*
X72534014Y60880022D01*
X72534011Y60880021D01*
X72534009Y60880021D01*
X72534001Y60880017D01*
X72511260Y60866888D01*
X72505456Y60863790D01*
X72481894Y60852202D01*
X72481888Y60852199D01*
X72481543Y60851896D01*
X72465896Y60840697D01*
X72465495Y60840466D01*
X72465494Y60840465D01*
X72446918Y60821890D01*
X72442109Y60817392D01*
X72072483Y60493970D01*
X72061845Y60485862D01*
X72051412Y60478973D01*
X72051411Y60478973D01*
X72041950Y60468304D01*
X72033083Y60459495D01*
X72022346Y60450099D01*
X72015383Y60439705D01*
X72007214Y60429132D01*
X71998917Y60419775D01*
X71998916Y60419773D01*
X71992541Y60407022D01*
X71986252Y60396210D01*
X71978313Y60384356D01*
X71974280Y60372523D01*
X71969123Y60360190D01*
X71936578Y60295098D01*
X71933767Y60289874D01*
X71919980Y60265993D01*
X71918846Y60263256D01*
X71914495Y60251794D01*
X71913532Y60249004D01*
X71908004Y60221990D01*
X71906641Y60216218D01*
X71899500Y60189567D01*
X71899108Y60186588D01*
X71897884Y60174496D01*
X71897669Y60171483D01*
X71899322Y60143960D01*
X71899500Y60138028D01*
X71899500Y59670370D01*
X71898986Y59660297D01*
X71897033Y59641211D01*
X71898237Y59633751D01*
X71899500Y59617987D01*
X71899500Y59610437D01*
X71904465Y59591907D01*
X71906575Y59582050D01*
X72146026Y58097454D01*
X72147118Y58087499D01*
X72147425Y58082268D01*
X72153766Y58049200D01*
X72154274Y58046322D01*
X72159635Y58013086D01*
X72160896Y58008871D01*
X72162328Y58004554D01*
X72177009Y57974259D01*
X72178223Y57971656D01*
X72190459Y57944384D01*
X72192022Y57940900D01*
X72194381Y57937075D01*
X72196830Y57933354D01*
X72218862Y57907879D01*
X72220742Y57905639D01*
X72241987Y57879555D01*
X72245792Y57875965D01*
X72252733Y57868717D01*
X72946781Y57066223D01*
X73505900Y56419741D01*
X73526531Y56395887D01*
X73550296Y56339505D01*
X73549805Y56318209D01*
X73549500Y56315892D01*
X73549500Y56184108D01*
X73573489Y56094580D01*
X73583609Y56056810D01*
X73649496Y55942691D01*
X73649498Y55942689D01*
X73649500Y55942686D01*
X73742686Y55849500D01*
X73742688Y55849499D01*
X73742690Y55849497D01*
X73856810Y55783610D01*
X73856808Y55783610D01*
X73856812Y55783609D01*
X73856814Y55783608D01*
X73984108Y55749500D01*
X73984110Y55749500D01*
X74115890Y55749500D01*
X74115892Y55749500D01*
X74243186Y55783608D01*
X74243188Y55783610D01*
X74243190Y55783610D01*
X74357309Y55849497D01*
X74357309Y55849498D01*
X74357314Y55849500D01*
X74450500Y55942686D01*
X74516392Y56056814D01*
X74518439Y56064455D01*
X74551761Y56115770D01*
X74608882Y56137698D01*
X74667983Y56121864D01*
X74684070Y56108838D01*
X79912304Y50880604D01*
X79940081Y50826087D01*
X79941300Y50810600D01*
X79941300Y50738443D01*
X79982223Y50585716D01*
X80061280Y50448784D01*
X80173084Y50336980D01*
X80310016Y50257923D01*
X80462743Y50217000D01*
X80462745Y50217000D01*
X80620855Y50217000D01*
X80620857Y50217000D01*
X80773584Y50257923D01*
X80910516Y50336980D01*
X81022320Y50448784D01*
X81101377Y50585716D01*
X81142300Y50738443D01*
X81142300Y50896557D01*
X81101377Y51049284D01*
X81022320Y51186216D01*
X80910516Y51298020D01*
X80773584Y51377077D01*
X80620857Y51418000D01*
X80620855Y51418000D01*
X80548700Y51418000D01*
X80490509Y51436907D01*
X80478696Y51446996D01*
X74853801Y57071892D01*
X74826024Y57126409D01*
X74835595Y57186841D01*
X74878860Y57230106D01*
X74939292Y57239677D01*
X74949417Y57237525D01*
X74968543Y57232400D01*
X74968544Y57232400D01*
X75126655Y57232400D01*
X75126657Y57232400D01*
X75279384Y57273323D01*
X75416316Y57352380D01*
X75528120Y57464184D01*
X75528123Y57464189D01*
X75531560Y57468667D01*
X75581984Y57503323D01*
X75610102Y57507400D01*
X75766765Y57507400D01*
X75824956Y57488493D01*
X75836769Y57478404D01*
X85176973Y48138200D01*
X85204750Y48083683D01*
X85195179Y48023251D01*
X85151914Y47979986D01*
X85091482Y47970415D01*
X85088349Y47970963D01*
X71437893Y50585006D01*
X71430892Y50586612D01*
X71379059Y50600500D01*
X71379057Y50600500D01*
X71366373Y50600500D01*
X71347752Y50602267D01*
X71335296Y50604653D01*
X71281786Y50600761D01*
X71274606Y50600500D01*
X71220940Y50600500D01*
X71208683Y50597216D01*
X71190254Y50594106D01*
X71177598Y50593185D01*
X71126903Y50575573D01*
X71120041Y50573465D01*
X71068217Y50559578D01*
X71068210Y50559575D01*
X71057231Y50553236D01*
X71040231Y50545459D01*
X71028240Y50541293D01*
X70983838Y50511164D01*
X70977754Y50507351D01*
X70931283Y50480520D01*
X70922311Y50471548D01*
X70907900Y50459635D01*
X70897407Y50452515D01*
X70897402Y50452511D01*
X70862313Y50411919D01*
X70857422Y50406660D01*
X70819481Y50368719D01*
X70813131Y50357721D01*
X70802298Y50342490D01*
X70794009Y50332901D01*
X70794001Y50332889D01*
X70770618Y50284609D01*
X70767257Y50278266D01*
X70740426Y50231792D01*
X70740422Y50231782D01*
X70737138Y50219526D01*
X70730617Y50202012D01*
X70725085Y50190590D01*
X70714994Y50137893D01*
X70713388Y50130893D01*
X70699500Y50079060D01*
X70699500Y50066373D01*
X70697733Y50047752D01*
X70695347Y50035299D01*
X70695347Y50035296D01*
X70699239Y49981787D01*
X70699500Y49974607D01*
X70699500Y47289743D01*
X70680593Y47231552D01*
X70670503Y47219739D01*
X70369503Y46918740D01*
X70314987Y46890963D01*
X70254555Y46900534D01*
X70211290Y46943799D01*
X70200500Y46988744D01*
X70200500Y59452383D01*
X70219407Y59510574D01*
X70268907Y59546538D01*
X70330093Y59546538D01*
X70349002Y59538118D01*
X70356810Y59533610D01*
X70356811Y59533610D01*
X70356814Y59533608D01*
X70484108Y59499500D01*
X70484110Y59499500D01*
X70615890Y59499500D01*
X70615892Y59499500D01*
X70743186Y59533608D01*
X70743188Y59533610D01*
X70743190Y59533610D01*
X70857309Y59599497D01*
X70857309Y59599498D01*
X70857314Y59599500D01*
X70950500Y59692686D01*
X70966007Y59719544D01*
X71016390Y59806810D01*
X71016390Y59806812D01*
X71016392Y59806814D01*
X71050500Y59934108D01*
X71050500Y60065892D01*
X71016392Y60193186D01*
X71016390Y60193189D01*
X71016390Y60193191D01*
X70950503Y60307310D01*
X70950497Y60307317D01*
X70944034Y60313781D01*
X70916259Y60368298D01*
X70916219Y60399006D01*
X70916452Y60400500D01*
X71178026Y62081114D01*
X71205656Y62135702D01*
X71226347Y62151622D01*
X71257314Y62169500D01*
X71350500Y62262686D01*
X71357645Y62275062D01*
X71416390Y62376810D01*
X71416390Y62376812D01*
X71416392Y62376814D01*
X71450500Y62504108D01*
X71450500Y62635892D01*
X71416392Y62763186D01*
X71416390Y62763189D01*
X71416390Y62763191D01*
X71350503Y62877310D01*
X71350501Y62877312D01*
X71350500Y62877314D01*
X71257314Y62970500D01*
X71257311Y62970502D01*
X71257309Y62970504D01*
X71143189Y63036391D01*
X71143191Y63036391D01*
X71090519Y63050504D01*
X71015892Y63070500D01*
X70884108Y63070500D01*
X70809481Y63050504D01*
X70756809Y63036391D01*
X70642690Y62970504D01*
X70549496Y62877310D01*
X70483609Y62763191D01*
X70464990Y62693703D01*
X70449500Y62635892D01*
X70449500Y62504108D01*
X70474029Y62412563D01*
X70483609Y62376810D01*
X70549496Y62262691D01*
X70549502Y62262684D01*
X70555964Y62256221D01*
X70583739Y62201704D01*
X70583779Y62170996D01*
X70397322Y60973006D01*
X70369691Y60918415D01*
X70315249Y60890492D01*
X70254791Y60899901D01*
X70211411Y60943050D01*
X70200500Y60988231D01*
X70200500Y63179629D01*
X70219407Y63237820D01*
X70268907Y63273784D01*
X70280177Y63276725D01*
X70404328Y63301420D01*
X70531811Y63354225D01*
X70646542Y63430886D01*
X70744114Y63528458D01*
X70820775Y63643189D01*
X70873580Y63770672D01*
X70900500Y63906007D01*
X70900500Y64043993D01*
X70873580Y64179328D01*
X70834742Y64273092D01*
X70820777Y64306807D01*
X70820771Y64306818D01*
X70744114Y64421542D01*
X70646541Y64519115D01*
X70531817Y64595772D01*
X70531806Y64595778D01*
X70404329Y64648580D01*
X70280185Y64673274D01*
X70226802Y64703171D01*
X70201186Y64758736D01*
X70200500Y64770372D01*
X70200500Y64823516D01*
X70219407Y64881707D01*
X70268907Y64917671D01*
X70330093Y64917671D01*
X70348995Y64909255D01*
X70402986Y64878084D01*
X70418092Y64869363D01*
X70418094Y64869361D01*
X70447032Y64852654D01*
X70468215Y64840423D01*
X70620943Y64799499D01*
X70620944Y64799499D01*
X70779056Y64799499D01*
X70779057Y64799499D01*
X70931785Y64840423D01*
X70973804Y64864684D01*
X70981901Y64869359D01*
X70981904Y64869361D01*
X71002556Y64881284D01*
X71068716Y64919480D01*
X71180520Y65031284D01*
X71180520Y65031286D01*
X71188670Y65039435D01*
X71188672Y65039438D01*
X71834940Y65685704D01*
X71889456Y65713481D01*
X71904943Y65714700D01*
X78588990Y65714700D01*
X78647181Y65695793D01*
G37*
%TD.AperFunction*%
%TA.AperFunction,Conductor*%
G36*
X42332489Y82745993D02*
G01*
X42352840Y82726167D01*
X42356276Y82721689D01*
X42356278Y82721687D01*
X42356280Y82721684D01*
X42468084Y82609880D01*
X42605016Y82530823D01*
X42757743Y82489900D01*
X42757745Y82489900D01*
X42915855Y82489900D01*
X42915857Y82489900D01*
X43068584Y82530823D01*
X43089501Y82542900D01*
X43149347Y82555621D01*
X43205243Y82530735D01*
X43235836Y82477747D01*
X43238000Y82457163D01*
X43238000Y81459003D01*
X43219093Y81400812D01*
X43199272Y81380464D01*
X43194787Y81377023D01*
X43194784Y81377020D01*
X43082980Y81265216D01*
X43003923Y81128284D01*
X42963000Y80975557D01*
X42963000Y80817443D01*
X43003923Y80664716D01*
X43082980Y80527784D01*
X43194784Y80415980D01*
X43331716Y80336923D01*
X43484443Y80296000D01*
X43484445Y80296000D01*
X43642555Y80296000D01*
X43642557Y80296000D01*
X43795284Y80336923D01*
X43835008Y80359858D01*
X43894853Y80372579D01*
X43950749Y80347693D01*
X43980133Y80299745D01*
X43985345Y80280292D01*
X44016823Y80162816D01*
X44095880Y80025884D01*
X44207684Y79914080D01*
X44207686Y79914079D01*
X44207688Y79914077D01*
X44212167Y79910640D01*
X44246823Y79860216D01*
X44250900Y79832098D01*
X44250900Y72742235D01*
X44231993Y72684044D01*
X44221904Y72672232D01*
X43918735Y72369063D01*
X43918731Y72369058D01*
X43875883Y72294844D01*
X43875882Y72294839D01*
X43858550Y72230153D01*
X43853700Y72212053D01*
X43853700Y66364353D01*
X43853700Y66278647D01*
X43870029Y66217704D01*
X43875883Y66195857D01*
X43918731Y66121643D01*
X43918733Y66121641D01*
X43918735Y66121638D01*
X44057354Y65983019D01*
X44085130Y65928504D01*
X44075559Y65868072D01*
X44032294Y65824807D01*
X43971862Y65815236D01*
X43961726Y65817390D01*
X43934045Y65824807D01*
X43838157Y65850500D01*
X43680043Y65850500D01*
X43680041Y65850500D01*
X43674438Y65849762D01*
X43614277Y65860915D01*
X43591515Y65877912D01*
X43025696Y66443731D01*
X42997919Y66498248D01*
X42996700Y66513735D01*
X42996700Y75663050D01*
X43015607Y75721241D01*
X43065107Y75757205D01*
X43070052Y75758670D01*
X43115784Y75770923D01*
X43252716Y75849980D01*
X43364520Y75961784D01*
X43443577Y76098716D01*
X43484500Y76251443D01*
X43484500Y76409557D01*
X43443577Y76562284D01*
X43364520Y76699216D01*
X43252716Y76811020D01*
X43115784Y76890077D01*
X42963057Y76931000D01*
X42804943Y76931000D01*
X42652216Y76890077D01*
X42515284Y76811020D01*
X42403480Y76699216D01*
X42324423Y76562284D01*
X42283500Y76409557D01*
X42283500Y76251443D01*
X42324423Y76098716D01*
X42324424Y76098715D01*
X42324423Y76098715D01*
X42332437Y76084835D01*
X42345700Y76035336D01*
X42345700Y66380753D01*
X42345700Y66295047D01*
X42365262Y66222037D01*
X42367883Y66212257D01*
X42410731Y66138043D01*
X42410732Y66138042D01*
X42410733Y66138041D01*
X42410735Y66138038D01*
X42773273Y65775500D01*
X43131188Y65417585D01*
X43158965Y65363068D01*
X43159337Y65334662D01*
X43158845Y65330924D01*
X43132506Y65275698D01*
X43078736Y65246501D01*
X43018074Y65254486D01*
X42990688Y65273839D01*
X40617796Y67646731D01*
X40590019Y67701248D01*
X40588800Y67716735D01*
X40588800Y79563552D01*
X40584049Y79581284D01*
X40566618Y79646338D01*
X40523765Y79720562D01*
X40505707Y79738620D01*
X40463162Y79781166D01*
X40463162Y79781165D01*
X39379631Y80864696D01*
X39351854Y80919213D01*
X39361425Y80979645D01*
X39404690Y81022910D01*
X39449635Y81033700D01*
X40100051Y81033700D01*
X40100053Y81033700D01*
X40182839Y81055882D01*
X40182841Y81055884D01*
X40182843Y81055884D01*
X40257057Y81098732D01*
X40257057Y81098733D01*
X40257062Y81098735D01*
X41462031Y82303704D01*
X41516548Y82331481D01*
X41532035Y82332700D01*
X41542651Y82332700D01*
X41542653Y82332700D01*
X41625439Y82354882D01*
X41625441Y82354884D01*
X41625443Y82354884D01*
X41699657Y82397732D01*
X41699657Y82397733D01*
X41699662Y82397735D01*
X41951290Y82649363D01*
X42037832Y82735904D01*
X42092348Y82763681D01*
X42107835Y82764900D01*
X42274298Y82764900D01*
X42332489Y82745993D01*
G37*
%TD.AperFunction*%
%TA.AperFunction,Conductor*%
G36*
X99458691Y99480593D02*
G01*
X99494655Y99431093D01*
X99499500Y99400500D01*
X99499500Y599500D01*
X99480593Y541309D01*
X99431093Y505345D01*
X99400500Y500500D01*
X599500Y500500D01*
X541309Y519407D01*
X505345Y568907D01*
X500500Y599500D01*
X500500Y5121290D01*
X3149500Y5121290D01*
X3149500Y4878711D01*
X3181161Y4638219D01*
X3181161Y4638214D01*
X3243944Y4403908D01*
X3243948Y4403895D01*
X3336772Y4179796D01*
X3336774Y4179792D01*
X3336776Y4179788D01*
X3458064Y3969711D01*
X3458066Y3969708D01*
X3605729Y3777269D01*
X3605731Y3777267D01*
X3605735Y3777262D01*
X3777262Y3605735D01*
X3777266Y3605732D01*
X3777268Y3605730D01*
X3969707Y3458067D01*
X3969711Y3458064D01*
X4179788Y3336776D01*
X4403900Y3243946D01*
X4638211Y3181162D01*
X4878712Y3149500D01*
X4878713Y3149500D01*
X5121287Y3149500D01*
X5121288Y3149500D01*
X5361789Y3181162D01*
X5596100Y3243946D01*
X5820212Y3336776D01*
X6030289Y3458064D01*
X6222738Y3605735D01*
X6394265Y3777262D01*
X6541936Y3969711D01*
X6663224Y4179788D01*
X6756054Y4403900D01*
X6818838Y4638211D01*
X6850500Y4878712D01*
X6850500Y5121288D01*
X6818838Y5361789D01*
X6756054Y5596100D01*
X6663224Y5820212D01*
X6541936Y6030289D01*
X6394265Y6222738D01*
X6222738Y6394265D01*
X6222733Y6394269D01*
X6222731Y6394271D01*
X6030292Y6541934D01*
X6030289Y6541936D01*
X5820212Y6663224D01*
X5820208Y6663226D01*
X5820204Y6663228D01*
X5596105Y6756052D01*
X5596104Y6756053D01*
X5596100Y6756054D01*
X5361789Y6818838D01*
X5361786Y6818839D01*
X5361784Y6818839D01*
X5121289Y6850500D01*
X5121288Y6850500D01*
X4878712Y6850500D01*
X4878710Y6850500D01*
X4638218Y6818839D01*
X4638213Y6818839D01*
X4403907Y6756056D01*
X4403894Y6756052D01*
X4179795Y6663228D01*
X3969707Y6541934D01*
X3777268Y6394271D01*
X3605729Y6222732D01*
X3458066Y6030293D01*
X3336772Y5820205D01*
X3243948Y5596106D01*
X3243944Y5596093D01*
X3181161Y5361787D01*
X3181161Y5361782D01*
X3149500Y5121290D01*
X500500Y5121290D01*
X500500Y14604276D01*
X11759500Y14604276D01*
X11759500Y11395733D01*
X11762353Y11365304D01*
X11762353Y11365302D01*
X11762354Y11365300D01*
X11773844Y11332463D01*
X11807208Y11237114D01*
X11887845Y11127855D01*
X11887854Y11127846D01*
X11997115Y11047208D01*
X11997116Y11047208D01*
X11997117Y11047207D01*
X12125300Y11002354D01*
X12155733Y10999500D01*
X13844266Y10999501D01*
X13844267Y10999501D01*
X13850352Y11000072D01*
X13874700Y11002354D01*
X14002883Y11047207D01*
X14089937Y11111456D01*
X14112145Y11127846D01*
X14112146Y11127848D01*
X14112150Y11127850D01*
X14192793Y11237117D01*
X14237646Y11365300D01*
X14240500Y11395733D01*
X14240499Y14604266D01*
X14237646Y14634700D01*
X14192793Y14762883D01*
X14192791Y14762885D01*
X14192791Y14762887D01*
X14112154Y14872146D01*
X14112145Y14872155D01*
X14002884Y14952793D01*
X13874704Y14997645D01*
X13874695Y14997647D01*
X13844274Y15000500D01*
X12155732Y15000500D01*
X12125303Y14997647D01*
X11997113Y14952792D01*
X11887854Y14872155D01*
X11887845Y14872146D01*
X11807207Y14762885D01*
X11762355Y14634705D01*
X11762353Y14634696D01*
X11759500Y14604276D01*
X500500Y14604276D01*
X500500Y22565892D01*
X30599500Y22565892D01*
X30599500Y22434108D01*
X30617134Y22368298D01*
X30633609Y22306810D01*
X30699496Y22192691D01*
X30699498Y22192689D01*
X30699500Y22192686D01*
X30792686Y22099500D01*
X30792688Y22099499D01*
X30792690Y22099497D01*
X30906810Y22033610D01*
X30906808Y22033610D01*
X30906812Y22033609D01*
X30906814Y22033608D01*
X31034108Y21999500D01*
X31034110Y21999500D01*
X31165890Y21999500D01*
X31165892Y21999500D01*
X31293186Y22033608D01*
X31293188Y22033610D01*
X31293190Y22033610D01*
X31407309Y22099497D01*
X31407309Y22099498D01*
X31407314Y22099500D01*
X31500500Y22192686D01*
X31520226Y22226852D01*
X31566390Y22306810D01*
X31566390Y22306812D01*
X31566392Y22306814D01*
X31600500Y22434108D01*
X31600500Y22565892D01*
X31598611Y22572942D01*
X31601810Y22634042D01*
X31617333Y22660912D01*
X37320311Y29694585D01*
X37327188Y29702219D01*
X37340460Y29715489D01*
X37344454Y29722409D01*
X37353296Y29735265D01*
X37358331Y29741474D01*
X37365971Y29758609D01*
X37370636Y29767758D01*
X37380021Y29784011D01*
X37382091Y29791739D01*
X37387303Y29806439D01*
X37390558Y29813738D01*
X37393502Y29832253D01*
X37395649Y29842336D01*
X37400500Y29860437D01*
X37400500Y29868437D01*
X37401728Y29883983D01*
X37402984Y29891878D01*
X37401036Y29910525D01*
X37400500Y29920811D01*
X37400500Y30301679D01*
X37419407Y30359870D01*
X37429490Y30371677D01*
X37500500Y30442686D01*
X37500503Y30442691D01*
X37566390Y30556810D01*
X37566390Y30556812D01*
X37566392Y30556814D01*
X37600500Y30684108D01*
X37600500Y30815892D01*
X37566392Y30943186D01*
X37566390Y30943189D01*
X37566390Y30943191D01*
X37500503Y31057310D01*
X37500501Y31057312D01*
X37500500Y31057314D01*
X37407314Y31150500D01*
X37407311Y31150502D01*
X37407309Y31150504D01*
X37293189Y31216391D01*
X37293191Y31216391D01*
X37243799Y31229625D01*
X37165892Y31250500D01*
X37034108Y31250500D01*
X36956200Y31229625D01*
X36906809Y31216391D01*
X36792690Y31150504D01*
X36699496Y31057310D01*
X36633609Y30943191D01*
X36633608Y30943186D01*
X36599500Y30815892D01*
X36599500Y30684108D01*
X36605428Y30661985D01*
X36633609Y30556810D01*
X36699496Y30442691D01*
X36699498Y30442689D01*
X36699500Y30442686D01*
X36770505Y30371681D01*
X36798281Y30317166D01*
X36799500Y30301679D01*
X36799500Y30041611D01*
X36780593Y29983420D01*
X36777399Y29979261D01*
X31148662Y23037150D01*
X31097327Y23003857D01*
X31071763Y23000500D01*
X31034108Y23000500D01*
X30956200Y22979625D01*
X30906809Y22966391D01*
X30792690Y22900504D01*
X30699496Y22807310D01*
X30633609Y22693191D01*
X30622640Y22652253D01*
X30599500Y22565892D01*
X500500Y22565892D01*
X500500Y48068996D01*
X3899500Y48068996D01*
X3899500Y48068993D01*
X3899500Y47931007D01*
X3923225Y47811732D01*
X3926420Y47795673D01*
X3926420Y47795671D01*
X3979222Y47668194D01*
X3979228Y47668183D01*
X4055885Y47553459D01*
X4153458Y47455886D01*
X4268182Y47379229D01*
X4268193Y47379223D01*
X4315283Y47359718D01*
X4395672Y47326420D01*
X4531007Y47299500D01*
X4531008Y47299500D01*
X4668992Y47299500D01*
X4668993Y47299500D01*
X4804328Y47326420D01*
X4931811Y47379225D01*
X5046542Y47455886D01*
X5144114Y47553458D01*
X5220775Y47668189D01*
X5273580Y47795672D01*
X5300500Y47931007D01*
X5300500Y48068993D01*
X5300499Y48068996D01*
X10699500Y48068996D01*
X10699500Y48068993D01*
X10699500Y47931007D01*
X10723225Y47811732D01*
X10726420Y47795673D01*
X10726420Y47795671D01*
X10779222Y47668194D01*
X10779228Y47668183D01*
X10855885Y47553459D01*
X10953458Y47455886D01*
X11068182Y47379229D01*
X11068193Y47379223D01*
X11115283Y47359718D01*
X11195672Y47326420D01*
X11331007Y47299500D01*
X11331008Y47299500D01*
X11468992Y47299500D01*
X11468993Y47299500D01*
X11604328Y47326420D01*
X11731811Y47379225D01*
X11846542Y47455886D01*
X11944114Y47553458D01*
X12020775Y47668189D01*
X12073580Y47795672D01*
X12100500Y47931007D01*
X12100500Y48068993D01*
X12073580Y48204328D01*
X12034159Y48299500D01*
X12020777Y48331807D01*
X12020771Y48331818D01*
X11944114Y48446542D01*
X11846541Y48544115D01*
X11731817Y48620772D01*
X11731806Y48620778D01*
X11604328Y48673580D01*
X11468995Y48700500D01*
X11468993Y48700500D01*
X11331007Y48700500D01*
X11331004Y48700500D01*
X11195672Y48673580D01*
X11195670Y48673580D01*
X11068193Y48620778D01*
X11068182Y48620772D01*
X10953458Y48544115D01*
X10855885Y48446542D01*
X10779228Y48331818D01*
X10779222Y48331807D01*
X10726420Y48204330D01*
X10726420Y48204328D01*
X10699500Y48068996D01*
X5300499Y48068996D01*
X5273580Y48204328D01*
X5234159Y48299500D01*
X5220777Y48331807D01*
X5220771Y48331818D01*
X5144114Y48446542D01*
X5046541Y48544115D01*
X4931817Y48620772D01*
X4931806Y48620778D01*
X4804328Y48673580D01*
X4668995Y48700500D01*
X4668993Y48700500D01*
X4531007Y48700500D01*
X4531004Y48700500D01*
X4395672Y48673580D01*
X4395670Y48673580D01*
X4268193Y48620778D01*
X4268182Y48620772D01*
X4153458Y48544115D01*
X4055885Y48446542D01*
X3979228Y48331818D01*
X3979222Y48331807D01*
X3926420Y48204330D01*
X3926420Y48204328D01*
X3899500Y48068996D01*
X500500Y48068996D01*
X500500Y66846615D01*
X6899500Y66846615D01*
X6899500Y66673386D01*
X6926597Y66502298D01*
X6926598Y66502294D01*
X6980123Y66337562D01*
X6980125Y66337559D01*
X7041193Y66217704D01*
X7058768Y66183212D01*
X7160586Y66043072D01*
X7283072Y65920586D01*
X7423212Y65818768D01*
X7577555Y65740127D01*
X7577557Y65740127D01*
X7577558Y65740126D01*
X7577561Y65740124D01*
X7742293Y65686599D01*
X7742297Y65686598D01*
X7913386Y65659500D01*
X7913389Y65659500D01*
X8086614Y65659500D01*
X8257702Y65686598D01*
X8257706Y65686599D01*
X8422438Y65740124D01*
X8422440Y65740126D01*
X8422445Y65740127D01*
X8576788Y65818768D01*
X8716928Y65920586D01*
X8839414Y66043072D01*
X8941232Y66183212D01*
X9019873Y66337555D01*
X9019874Y66337560D01*
X9019876Y66337562D01*
X9073401Y66502294D01*
X9073402Y66502298D01*
X9100500Y66673386D01*
X9100500Y66846615D01*
X9073402Y67017703D01*
X9073401Y67017707D01*
X9019876Y67182439D01*
X9019874Y67182443D01*
X9006250Y67209182D01*
X8996679Y67269615D01*
X9024457Y67324131D01*
X9192123Y67491796D01*
X9375831Y67675504D01*
X9430347Y67703281D01*
X9445834Y67704500D01*
X10887565Y67704500D01*
X10945756Y67685593D01*
X10957569Y67675504D01*
X13791304Y64841769D01*
X13819081Y64787252D01*
X13820300Y64771765D01*
X13820300Y63207503D01*
X13801393Y63149312D01*
X13781572Y63128964D01*
X13777087Y63125523D01*
X13777084Y63125520D01*
X13665280Y63013716D01*
X13586223Y62876784D01*
X13545300Y62724057D01*
X13545300Y62565943D01*
X13586223Y62413216D01*
X13665280Y62276284D01*
X13777084Y62164480D01*
X13914016Y62085423D01*
X14066743Y62044500D01*
X14066745Y62044500D01*
X14224855Y62044500D01*
X14224857Y62044500D01*
X14377584Y62085423D01*
X14514516Y62164480D01*
X14626320Y62276284D01*
X14705377Y62413216D01*
X14746300Y62565943D01*
X14746300Y62724057D01*
X14705377Y62876784D01*
X14626320Y63013716D01*
X14514516Y63125520D01*
X14514513Y63125522D01*
X14514512Y63125523D01*
X14510028Y63128964D01*
X14475375Y63179391D01*
X14471300Y63207503D01*
X14471300Y64990452D01*
X14471300Y64990453D01*
X14460948Y65029087D01*
X14449118Y65073239D01*
X14409050Y65142639D01*
X14406268Y65147458D01*
X14406266Y65147460D01*
X14406265Y65147462D01*
X11263262Y68290465D01*
X11261284Y68291607D01*
X11260189Y68292823D01*
X11258113Y68294416D01*
X11258408Y68294801D01*
X11220343Y68337075D01*
X11213946Y68397925D01*
X11244537Y68450913D01*
X11252589Y68457434D01*
X11256928Y68460586D01*
X11379414Y68583072D01*
X11481232Y68723212D01*
X11559873Y68877555D01*
X11559874Y68877560D01*
X11559876Y68877562D01*
X11613401Y69042294D01*
X11613402Y69042298D01*
X11640500Y69213386D01*
X11640500Y69386615D01*
X11613402Y69557703D01*
X11613401Y69557707D01*
X11559876Y69722439D01*
X11559874Y69722442D01*
X11559873Y69722443D01*
X11559873Y69722445D01*
X11481232Y69876788D01*
X11379414Y70016928D01*
X11256928Y70139414D01*
X11116788Y70241232D01*
X11116787Y70241233D01*
X11116785Y70241234D01*
X10962441Y70319875D01*
X10962438Y70319877D01*
X10797706Y70373402D01*
X10797702Y70373403D01*
X10626614Y70400500D01*
X10626611Y70400500D01*
X10453389Y70400500D01*
X10453386Y70400500D01*
X10282297Y70373403D01*
X10282293Y70373402D01*
X10117561Y70319877D01*
X10117558Y70319875D01*
X9963214Y70241234D01*
X9823073Y70139415D01*
X9700585Y70016927D01*
X9598766Y69876786D01*
X9520125Y69722442D01*
X9520123Y69722439D01*
X9466598Y69557707D01*
X9466597Y69557703D01*
X9439500Y69386615D01*
X9439500Y69213386D01*
X9466597Y69042298D01*
X9466598Y69042294D01*
X9520123Y68877562D01*
X9520125Y68877559D01*
X9587109Y68746093D01*
X9598768Y68723212D01*
X9700586Y68583072D01*
X9759156Y68524502D01*
X9786932Y68469987D01*
X9777361Y68409555D01*
X9734096Y68366290D01*
X9689151Y68355500D01*
X9312853Y68355500D01*
X9227147Y68355500D01*
X9176478Y68341924D01*
X9144356Y68333317D01*
X9070142Y68290469D01*
X9070137Y68290465D01*
X8564128Y67784457D01*
X8509612Y67756680D01*
X8449180Y67766251D01*
X8422441Y67779875D01*
X8422438Y67779877D01*
X8257706Y67833402D01*
X8257702Y67833403D01*
X8086614Y67860500D01*
X8086611Y67860500D01*
X7913389Y67860500D01*
X7913386Y67860500D01*
X7742297Y67833403D01*
X7742293Y67833402D01*
X7577561Y67779877D01*
X7577558Y67779875D01*
X7423214Y67701234D01*
X7283073Y67599415D01*
X7160585Y67476927D01*
X7058766Y67336786D01*
X6980125Y67182442D01*
X6980123Y67182439D01*
X6926598Y67017707D01*
X6926597Y67017703D01*
X6899500Y66846615D01*
X500500Y66846615D01*
X500500Y69386615D01*
X6899500Y69386615D01*
X6899500Y69213386D01*
X6926597Y69042298D01*
X6926598Y69042294D01*
X6980123Y68877562D01*
X6980125Y68877559D01*
X7047109Y68746093D01*
X7058768Y68723212D01*
X7160586Y68583072D01*
X7283072Y68460586D01*
X7423212Y68358768D01*
X7577555Y68280127D01*
X7577557Y68280127D01*
X7577558Y68280126D01*
X7577561Y68280124D01*
X7742293Y68226599D01*
X7742297Y68226598D01*
X7913386Y68199500D01*
X7913389Y68199500D01*
X8086614Y68199500D01*
X8257702Y68226598D01*
X8257706Y68226599D01*
X8422438Y68280124D01*
X8422440Y68280126D01*
X8422445Y68280127D01*
X8576788Y68358768D01*
X8716928Y68460586D01*
X8839414Y68583072D01*
X8941232Y68723212D01*
X9019873Y68877555D01*
X9019874Y68877560D01*
X9019876Y68877562D01*
X9073401Y69042294D01*
X9073402Y69042298D01*
X9100500Y69213386D01*
X9100500Y69386615D01*
X9073402Y69557703D01*
X9073401Y69557707D01*
X9019876Y69722439D01*
X9019874Y69722442D01*
X9019873Y69722443D01*
X9019873Y69722445D01*
X8941232Y69876788D01*
X8839414Y70016928D01*
X8716928Y70139414D01*
X8576788Y70241232D01*
X8576787Y70241233D01*
X8576785Y70241234D01*
X8422441Y70319875D01*
X8422438Y70319877D01*
X8257706Y70373402D01*
X8257702Y70373403D01*
X8086614Y70400500D01*
X8086611Y70400500D01*
X7913389Y70400500D01*
X7913386Y70400500D01*
X7742297Y70373403D01*
X7742293Y70373402D01*
X7577561Y70319877D01*
X7577558Y70319875D01*
X7423214Y70241234D01*
X7283073Y70139415D01*
X7160585Y70016927D01*
X7058766Y69876786D01*
X6980125Y69722442D01*
X6980123Y69722439D01*
X6926598Y69557707D01*
X6926597Y69557703D01*
X6899500Y69386615D01*
X500500Y69386615D01*
X500500Y71926615D01*
X6899500Y71926615D01*
X6899500Y71753386D01*
X6926597Y71582298D01*
X6926598Y71582294D01*
X6980123Y71417562D01*
X6980125Y71417559D01*
X6980126Y71417556D01*
X6980127Y71417555D01*
X7058768Y71263212D01*
X7160586Y71123072D01*
X7283072Y71000586D01*
X7423212Y70898768D01*
X7577555Y70820127D01*
X7577557Y70820127D01*
X7577558Y70820126D01*
X7577561Y70820124D01*
X7742293Y70766599D01*
X7742297Y70766598D01*
X7913386Y70739500D01*
X7913389Y70739500D01*
X8086614Y70739500D01*
X8257702Y70766598D01*
X8257706Y70766599D01*
X8422438Y70820124D01*
X8422440Y70820126D01*
X8422445Y70820127D01*
X8576788Y70898768D01*
X8716928Y71000586D01*
X8839414Y71123072D01*
X8941232Y71263212D01*
X9019873Y71417555D01*
X9019874Y71417560D01*
X9019876Y71417562D01*
X9073401Y71582294D01*
X9073402Y71582298D01*
X9100500Y71753386D01*
X9100500Y71926615D01*
X9439500Y71926615D01*
X9439500Y71753386D01*
X9466597Y71582298D01*
X9466598Y71582294D01*
X9520123Y71417562D01*
X9520125Y71417559D01*
X9520126Y71417556D01*
X9520127Y71417555D01*
X9598768Y71263212D01*
X9700586Y71123072D01*
X9823072Y71000586D01*
X9963212Y70898768D01*
X10117555Y70820127D01*
X10117557Y70820127D01*
X10117558Y70820126D01*
X10117561Y70820124D01*
X10282293Y70766599D01*
X10282297Y70766598D01*
X10453386Y70739500D01*
X10453389Y70739500D01*
X10626614Y70739500D01*
X10797702Y70766598D01*
X10797706Y70766599D01*
X10962438Y70820124D01*
X10962440Y70820126D01*
X10962445Y70820127D01*
X11116788Y70898768D01*
X11256928Y71000586D01*
X11379414Y71123072D01*
X11481232Y71263212D01*
X11559873Y71417555D01*
X11559874Y71417560D01*
X11559876Y71417562D01*
X11613401Y71582294D01*
X11613402Y71582298D01*
X11640500Y71753386D01*
X11640500Y71926615D01*
X11613402Y72097703D01*
X11613401Y72097707D01*
X11559876Y72262439D01*
X11559874Y72262442D01*
X11559873Y72262443D01*
X11559873Y72262445D01*
X11481232Y72416788D01*
X11379414Y72556928D01*
X11256928Y72679414D01*
X11116788Y72781232D01*
X11116787Y72781233D01*
X11116785Y72781234D01*
X10962441Y72859875D01*
X10962438Y72859877D01*
X10797706Y72913402D01*
X10797702Y72913403D01*
X10626614Y72940500D01*
X10626611Y72940500D01*
X10453389Y72940500D01*
X10453386Y72940500D01*
X10282297Y72913403D01*
X10282293Y72913402D01*
X10117561Y72859877D01*
X10117558Y72859875D01*
X9963214Y72781234D01*
X9823073Y72679415D01*
X9700585Y72556927D01*
X9598766Y72416786D01*
X9520125Y72262442D01*
X9520123Y72262439D01*
X9466598Y72097707D01*
X9466597Y72097703D01*
X9439500Y71926615D01*
X9100500Y71926615D01*
X9073402Y72097703D01*
X9073401Y72097707D01*
X9019876Y72262439D01*
X9019874Y72262442D01*
X9019873Y72262443D01*
X9019873Y72262445D01*
X8941232Y72416788D01*
X8839414Y72556928D01*
X8716928Y72679414D01*
X8576788Y72781232D01*
X8576787Y72781233D01*
X8576785Y72781234D01*
X8422441Y72859875D01*
X8422438Y72859877D01*
X8257706Y72913402D01*
X8257702Y72913403D01*
X8086614Y72940500D01*
X8086611Y72940500D01*
X7913389Y72940500D01*
X7913386Y72940500D01*
X7742297Y72913403D01*
X7742293Y72913402D01*
X7577561Y72859877D01*
X7577558Y72859875D01*
X7423214Y72781234D01*
X7283073Y72679415D01*
X7160585Y72556927D01*
X7058766Y72416786D01*
X6980125Y72262442D01*
X6980123Y72262439D01*
X6926598Y72097707D01*
X6926597Y72097703D01*
X6899500Y71926615D01*
X500500Y71926615D01*
X500500Y82691343D01*
X6899500Y82691343D01*
X6899500Y81308658D01*
X6902446Y81277247D01*
X6902446Y81277245D01*
X6902447Y81277242D01*
X6917715Y81233608D01*
X6948764Y81144873D01*
X6985155Y81095566D01*
X7032040Y81032040D01*
X7087163Y80991357D01*
X7144872Y80948765D01*
X7144873Y80948765D01*
X7144874Y80948764D01*
X7277242Y80902447D01*
X7306221Y80899730D01*
X7308657Y80899501D01*
X7308661Y80899500D01*
X7308668Y80899500D01*
X8691339Y80899500D01*
X8691341Y80899501D01*
X8722758Y80902447D01*
X8722770Y80902452D01*
X8724680Y80902868D01*
X8725928Y80902744D01*
X8728755Y80903009D01*
X8728806Y80902459D01*
X8785565Y80896819D01*
X8831268Y80856138D01*
X8844330Y80796363D01*
X8819763Y80740327D01*
X8815818Y80736146D01*
X8564128Y80484457D01*
X8509612Y80456680D01*
X8449180Y80466251D01*
X8422441Y80479875D01*
X8422438Y80479877D01*
X8257706Y80533402D01*
X8257702Y80533403D01*
X8086614Y80560500D01*
X8086611Y80560500D01*
X7913389Y80560500D01*
X7913386Y80560500D01*
X7742297Y80533403D01*
X7742293Y80533402D01*
X7577561Y80479877D01*
X7577558Y80479875D01*
X7423214Y80401234D01*
X7283073Y80299415D01*
X7160585Y80176927D01*
X7058766Y80036786D01*
X6980125Y79882442D01*
X6980123Y79882439D01*
X6926598Y79717707D01*
X6926597Y79717703D01*
X6899500Y79546615D01*
X6899500Y79373386D01*
X6926597Y79202298D01*
X6926598Y79202294D01*
X6980123Y79037562D01*
X6980125Y79037559D01*
X7055622Y78889385D01*
X7058768Y78883212D01*
X7160586Y78743072D01*
X7283072Y78620586D01*
X7423212Y78518768D01*
X7577555Y78440127D01*
X7577557Y78440127D01*
X7577558Y78440126D01*
X7577561Y78440124D01*
X7742293Y78386599D01*
X7742297Y78386598D01*
X7913386Y78359500D01*
X7913389Y78359500D01*
X8086614Y78359500D01*
X8257702Y78386598D01*
X8257706Y78386599D01*
X8422438Y78440124D01*
X8422440Y78440126D01*
X8422445Y78440127D01*
X8576788Y78518768D01*
X8716928Y78620586D01*
X8839414Y78743072D01*
X8941232Y78883212D01*
X9019873Y79037555D01*
X9019874Y79037560D01*
X9019876Y79037562D01*
X9073401Y79202294D01*
X9073402Y79202298D01*
X9100500Y79373386D01*
X9100500Y79546615D01*
X9073402Y79717703D01*
X9073401Y79717707D01*
X9019876Y79882439D01*
X9019874Y79882443D01*
X9006250Y79909182D01*
X8996679Y79969615D01*
X9024454Y80024129D01*
X9530965Y80530638D01*
X9557166Y80576020D01*
X9573818Y80604862D01*
X9596000Y80687647D01*
X9596000Y86437498D01*
X9614907Y86495689D01*
X9634733Y86516040D01*
X9639211Y86519477D01*
X9639211Y86519478D01*
X9639216Y86519480D01*
X9751020Y86631284D01*
X9830077Y86768216D01*
X9871000Y86920943D01*
X9871000Y87008899D01*
X9889907Y87067090D01*
X9939407Y87103054D01*
X10000593Y87103054D01*
X10040004Y87078903D01*
X14203668Y82915239D01*
X14231445Y82860722D01*
X14221874Y82800290D01*
X14178609Y82757025D01*
X14159292Y82749610D01*
X14136615Y82743534D01*
X14123715Y82740077D01*
X14085449Y82717984D01*
X13986784Y82661020D01*
X13874980Y82549216D01*
X13795923Y82412284D01*
X13755000Y82259557D01*
X13755000Y82101443D01*
X13795923Y81948716D01*
X13874980Y81811784D01*
X13954216Y81732548D01*
X13981992Y81678033D01*
X13972421Y81617601D01*
X13954215Y81592542D01*
X10906169Y78544496D01*
X10851652Y78516719D01*
X10836165Y78515500D01*
X9312853Y78515500D01*
X9227147Y78515500D01*
X9180074Y78502887D01*
X9144356Y78493317D01*
X9070142Y78450469D01*
X9070137Y78450465D01*
X8564128Y77944457D01*
X8509612Y77916680D01*
X8449180Y77926251D01*
X8422441Y77939875D01*
X8422438Y77939877D01*
X8257706Y77993402D01*
X8257702Y77993403D01*
X8086614Y78020500D01*
X8086611Y78020500D01*
X7913389Y78020500D01*
X7913386Y78020500D01*
X7742297Y77993403D01*
X7742293Y77993402D01*
X7577561Y77939877D01*
X7577558Y77939875D01*
X7423214Y77861234D01*
X7283073Y77759415D01*
X7160585Y77636927D01*
X7058766Y77496786D01*
X6980125Y77342442D01*
X6980123Y77342439D01*
X6926598Y77177707D01*
X6926597Y77177703D01*
X6899500Y77006615D01*
X6899500Y76833386D01*
X6926597Y76662298D01*
X6926598Y76662294D01*
X6980123Y76497562D01*
X6980125Y76497559D01*
X7049386Y76361624D01*
X7058768Y76343212D01*
X7160586Y76203072D01*
X7283072Y76080586D01*
X7423212Y75978768D01*
X7577555Y75900127D01*
X7577557Y75900127D01*
X7577558Y75900126D01*
X7577561Y75900124D01*
X7742293Y75846599D01*
X7742297Y75846598D01*
X7913386Y75819500D01*
X7913389Y75819500D01*
X8086614Y75819500D01*
X8257702Y75846598D01*
X8257706Y75846599D01*
X8422438Y75900124D01*
X8422440Y75900126D01*
X8422445Y75900127D01*
X8576788Y75978768D01*
X8716928Y76080586D01*
X8839414Y76203072D01*
X8941232Y76343212D01*
X9019873Y76497555D01*
X9019874Y76497560D01*
X9019876Y76497562D01*
X9073401Y76662294D01*
X9073402Y76662298D01*
X9100500Y76833386D01*
X9100500Y77006615D01*
X9073402Y77177703D01*
X9073401Y77177707D01*
X9019876Y77342439D01*
X9019874Y77342443D01*
X9006250Y77369182D01*
X8996679Y77429615D01*
X9024457Y77484131D01*
X9192647Y77652320D01*
X9375831Y77835504D01*
X9430347Y77863281D01*
X9445834Y77864500D01*
X9689151Y77864500D01*
X9747342Y77845593D01*
X9783306Y77796093D01*
X9783306Y77734907D01*
X9759156Y77695499D01*
X9715978Y77652320D01*
X9700585Y77636927D01*
X9598766Y77496786D01*
X9520125Y77342442D01*
X9520123Y77342439D01*
X9466598Y77177707D01*
X9466597Y77177703D01*
X9439500Y77006615D01*
X9439500Y76833386D01*
X9466597Y76662298D01*
X9466598Y76662294D01*
X9520123Y76497562D01*
X9520125Y76497559D01*
X9589386Y76361624D01*
X9598768Y76343212D01*
X9700586Y76203072D01*
X9759156Y76144502D01*
X9786932Y76089987D01*
X9777361Y76029555D01*
X9734096Y75986290D01*
X9689151Y75975500D01*
X9312853Y75975500D01*
X9227147Y75975500D01*
X9176478Y75961924D01*
X9144356Y75953317D01*
X9070142Y75910469D01*
X9070137Y75910465D01*
X8564128Y75404457D01*
X8509612Y75376680D01*
X8449180Y75386251D01*
X8422441Y75399875D01*
X8422438Y75399877D01*
X8257706Y75453402D01*
X8257702Y75453403D01*
X8086614Y75480500D01*
X8086611Y75480500D01*
X7913389Y75480500D01*
X7913386Y75480500D01*
X7742297Y75453403D01*
X7742293Y75453402D01*
X7577561Y75399877D01*
X7577558Y75399875D01*
X7423214Y75321234D01*
X7283073Y75219415D01*
X7160585Y75096927D01*
X7058766Y74956786D01*
X6980125Y74802442D01*
X6980123Y74802439D01*
X6926598Y74637707D01*
X6926597Y74637703D01*
X6899500Y74466615D01*
X6899500Y74293386D01*
X6926597Y74122298D01*
X6926598Y74122294D01*
X6980123Y73957562D01*
X6980125Y73957559D01*
X7012908Y73893217D01*
X7058768Y73803212D01*
X7160586Y73663072D01*
X7283072Y73540586D01*
X7423212Y73438768D01*
X7577555Y73360127D01*
X7577557Y73360127D01*
X7577558Y73360126D01*
X7577561Y73360124D01*
X7742293Y73306599D01*
X7742297Y73306598D01*
X7913386Y73279500D01*
X7913389Y73279500D01*
X8086614Y73279500D01*
X8257702Y73306598D01*
X8257706Y73306599D01*
X8422438Y73360124D01*
X8422440Y73360126D01*
X8422445Y73360127D01*
X8576788Y73438768D01*
X8716928Y73540586D01*
X8839414Y73663072D01*
X8941232Y73803212D01*
X9019873Y73957555D01*
X9019874Y73957560D01*
X9019876Y73957562D01*
X9073401Y74122294D01*
X9073402Y74122298D01*
X9100500Y74293386D01*
X9100500Y74466615D01*
X9073402Y74637703D01*
X9073401Y74637707D01*
X9019876Y74802439D01*
X9019874Y74802443D01*
X9006250Y74829182D01*
X8996679Y74889615D01*
X9024457Y74944131D01*
X9375831Y75295504D01*
X9430347Y75323281D01*
X9445834Y75324500D01*
X11867851Y75324500D01*
X11867853Y75324500D01*
X11950639Y75346682D01*
X11950641Y75346684D01*
X11950643Y75346684D01*
X12024857Y75389532D01*
X12024857Y75389533D01*
X12024862Y75389535D01*
X14168015Y77532691D01*
X14222530Y77560466D01*
X14250941Y77560838D01*
X14256540Y77560101D01*
X14256543Y77560100D01*
X14256546Y77560100D01*
X14414655Y77560100D01*
X14414657Y77560100D01*
X14567384Y77601023D01*
X14704316Y77680080D01*
X14816120Y77791884D01*
X14895177Y77928816D01*
X14936100Y78081543D01*
X14936100Y78239657D01*
X14895177Y78392384D01*
X14816120Y78529316D01*
X14704316Y78641120D01*
X14567384Y78720177D01*
X14414657Y78761100D01*
X14256543Y78761100D01*
X14103816Y78720177D01*
X13966884Y78641120D01*
X13855080Y78529316D01*
X13776023Y78392384D01*
X13735100Y78239656D01*
X13735100Y78081540D01*
X13735837Y78075940D01*
X13724686Y78015779D01*
X13707688Y77993016D01*
X11719169Y76004496D01*
X11664652Y75976719D01*
X11649165Y75975500D01*
X11390849Y75975500D01*
X11332658Y75994407D01*
X11296694Y76043907D01*
X11296694Y76105093D01*
X11320843Y76144502D01*
X11379414Y76203072D01*
X11481232Y76343212D01*
X11559873Y76497555D01*
X11559874Y76497560D01*
X11559876Y76497562D01*
X11613401Y76662294D01*
X11613402Y76662298D01*
X11640500Y76833386D01*
X11640500Y77006615D01*
X11613402Y77177703D01*
X11613401Y77177707D01*
X11559876Y77342439D01*
X11559874Y77342442D01*
X11559873Y77342443D01*
X11559873Y77342445D01*
X11481232Y77496788D01*
X11379414Y77636928D01*
X11256928Y77759414D01*
X11256924Y77759417D01*
X11256922Y77759419D01*
X11226069Y77781835D01*
X11190105Y77831335D01*
X11190106Y77892520D01*
X11214252Y77931926D01*
X14615965Y81333638D01*
X14615968Y81333643D01*
X14658816Y81407857D01*
X14658816Y81407859D01*
X14658818Y81407861D01*
X14681000Y81490647D01*
X14681000Y81576353D01*
X14681000Y81617998D01*
X14699907Y81676189D01*
X14719733Y81696540D01*
X14724211Y81699977D01*
X14724211Y81699978D01*
X14724216Y81699980D01*
X14836020Y81811784D01*
X14915077Y81948716D01*
X14924608Y81984289D01*
X14957930Y82035601D01*
X15015051Y82057529D01*
X15074151Y82041695D01*
X15090238Y82028669D01*
X18183104Y78935803D01*
X18210881Y78881286D01*
X18212100Y78865799D01*
X18212100Y70549627D01*
X18212100Y70444173D01*
X18232929Y70366438D01*
X18239394Y70342308D01*
X18292116Y70250992D01*
X18292118Y70250990D01*
X18292120Y70250987D01*
X21410804Y67132303D01*
X21438580Y67077788D01*
X21429009Y67017356D01*
X21410803Y66992297D01*
X15886217Y61467710D01*
X15886216Y61467709D01*
X15833494Y61376391D01*
X15833490Y61376383D01*
X15821675Y61332282D01*
X15821675Y61332280D01*
X15806200Y61274527D01*
X15806200Y56489744D01*
X15787293Y56431553D01*
X15777204Y56419741D01*
X15726182Y56368719D01*
X15726180Y56368717D01*
X15726180Y56368716D01*
X15647123Y56231784D01*
X15606200Y56079057D01*
X15606200Y55920943D01*
X15647123Y55768216D01*
X15726180Y55631284D01*
X15837984Y55519480D01*
X15974916Y55440423D01*
X16127643Y55399500D01*
X16127645Y55399500D01*
X16285755Y55399500D01*
X16285757Y55399500D01*
X16438484Y55440423D01*
X16575416Y55519480D01*
X16687220Y55631284D01*
X16766277Y55768216D01*
X16807200Y55920943D01*
X16807200Y56079057D01*
X16766277Y56231784D01*
X16687220Y56368716D01*
X16687217Y56368719D01*
X16636196Y56419741D01*
X16608419Y56474258D01*
X16607200Y56489744D01*
X16607200Y61014899D01*
X16626107Y61073090D01*
X16636196Y61084903D01*
X21984097Y66432804D01*
X22038614Y66460581D01*
X22054101Y66461800D01*
X22126255Y66461800D01*
X22126257Y66461800D01*
X22278984Y66502723D01*
X22415916Y66581780D01*
X22451209Y66617073D01*
X22466941Y66632804D01*
X22521458Y66660581D01*
X22536944Y66661800D01*
X26551350Y66661800D01*
X26609541Y66642893D01*
X26645505Y66593393D01*
X26646977Y66588423D01*
X26666594Y66515208D01*
X26719316Y66423892D01*
X26719318Y66423890D01*
X26719320Y66423887D01*
X26925505Y66217702D01*
X26953281Y66163187D01*
X26954500Y66147700D01*
X26954500Y64751844D01*
X26935593Y64693653D01*
X26925504Y64681841D01*
X26874482Y64630819D01*
X26874480Y64630817D01*
X26874480Y64630816D01*
X26795423Y64493884D01*
X26754500Y64341157D01*
X26754500Y64183043D01*
X26795423Y64030316D01*
X26874480Y63893384D01*
X26986284Y63781580D01*
X27123216Y63702523D01*
X27275943Y63661600D01*
X27275945Y63661600D01*
X27434055Y63661600D01*
X27434057Y63661600D01*
X27586784Y63702523D01*
X27723716Y63781580D01*
X27835520Y63893384D01*
X27914577Y64030316D01*
X27927074Y64076956D01*
X27960397Y64128268D01*
X28017519Y64150195D01*
X28076619Y64134360D01*
X28115124Y64086810D01*
X28121700Y64051331D01*
X28121700Y62377303D01*
X28102793Y62319112D01*
X28082972Y62298764D01*
X28078487Y62295323D01*
X28078484Y62295320D01*
X27966680Y62183516D01*
X27887623Y62046584D01*
X27846700Y61893857D01*
X27846700Y61735743D01*
X27887623Y61583016D01*
X27966680Y61446084D01*
X28078484Y61334280D01*
X28215416Y61255223D01*
X28368143Y61214300D01*
X28368145Y61214300D01*
X28526255Y61214300D01*
X28526257Y61214300D01*
X28678984Y61255223D01*
X28815916Y61334280D01*
X28927720Y61446084D01*
X29006777Y61583016D01*
X29047700Y61735743D01*
X29047700Y61893857D01*
X29006777Y62046584D01*
X28927720Y62183516D01*
X28815916Y62295320D01*
X28815913Y62295322D01*
X28815912Y62295323D01*
X28811428Y62298764D01*
X28776775Y62349191D01*
X28772700Y62377303D01*
X28772700Y64987698D01*
X28791607Y65045889D01*
X28811433Y65066240D01*
X28815911Y65069677D01*
X28815911Y65069678D01*
X28815916Y65069680D01*
X28927720Y65181484D01*
X29006777Y65318416D01*
X29047700Y65471143D01*
X29047700Y65629257D01*
X29006777Y65781984D01*
X28999605Y65794407D01*
X28993142Y65805601D01*
X28980421Y65865449D01*
X29005308Y65921345D01*
X29058297Y65951937D01*
X29078879Y65954100D01*
X31306899Y65954100D01*
X31365090Y65935193D01*
X31376903Y65925104D01*
X32063904Y65238103D01*
X32091681Y65183586D01*
X32092900Y65168099D01*
X32092900Y65095943D01*
X32133823Y64943216D01*
X32212880Y64806284D01*
X32263905Y64755259D01*
X32291681Y64700744D01*
X32292900Y64685257D01*
X32292900Y59410527D01*
X32292900Y59305073D01*
X32307356Y59251123D01*
X32320194Y59203208D01*
X32372916Y59111892D01*
X32372918Y59111890D01*
X32372920Y59111887D01*
X35083742Y56401066D01*
X35657322Y55827486D01*
X35685099Y55772969D01*
X35675528Y55712537D01*
X35632263Y55669272D01*
X35571831Y55659701D01*
X35537820Y55671744D01*
X35482684Y55703577D01*
X35329957Y55744500D01*
X35171843Y55744500D01*
X35171841Y55744500D01*
X35166238Y55743762D01*
X35106077Y55754915D01*
X35083315Y55771912D01*
X32910843Y57944384D01*
X30710262Y60144965D01*
X30710259Y60144967D01*
X30710258Y60144968D01*
X30710257Y60144969D01*
X30636042Y60187817D01*
X30636044Y60187817D01*
X30603921Y60196424D01*
X30553253Y60210000D01*
X30553251Y60210000D01*
X30550302Y60210000D01*
X30548292Y60210654D01*
X30546819Y60210847D01*
X30546854Y60211120D01*
X30492111Y60228907D01*
X30471760Y60248733D01*
X30468323Y60253212D01*
X30468321Y60253214D01*
X30468320Y60253216D01*
X30356516Y60365020D01*
X30219584Y60444077D01*
X30066857Y60485000D01*
X29908743Y60485000D01*
X29756016Y60444077D01*
X29619084Y60365020D01*
X29507280Y60253216D01*
X29428223Y60116284D01*
X29387300Y59963557D01*
X29387300Y59805443D01*
X29428223Y59652716D01*
X29507280Y59515784D01*
X29619084Y59403980D01*
X29756016Y59324923D01*
X29908743Y59284000D01*
X29908745Y59284000D01*
X30066855Y59284000D01*
X30066857Y59284000D01*
X30219584Y59324923D01*
X30356516Y59403980D01*
X30373549Y59421013D01*
X30428065Y59448792D01*
X30488497Y59439222D01*
X30513558Y59421015D01*
X34622988Y55311585D01*
X34650765Y55257068D01*
X34651138Y55228662D01*
X34650400Y55223059D01*
X34650400Y55223057D01*
X34650400Y55064943D01*
X34691323Y54912216D01*
X34770380Y54775284D01*
X34882184Y54663480D01*
X35019116Y54584423D01*
X35171843Y54543500D01*
X35171845Y54543500D01*
X35329955Y54543500D01*
X35329957Y54543500D01*
X35482684Y54584423D01*
X35619616Y54663480D01*
X35731420Y54775284D01*
X35810477Y54912216D01*
X35851400Y55064943D01*
X35851400Y55223057D01*
X35810477Y55375784D01*
X35810315Y55376064D01*
X35778645Y55430919D01*
X35765923Y55490767D01*
X35790810Y55546663D01*
X35843798Y55577256D01*
X35904648Y55570860D01*
X35934383Y55550424D01*
X37791518Y53693290D01*
X37791520Y53693287D01*
X37866087Y53618720D01*
X37896588Y53601110D01*
X37927089Y53583500D01*
X37927090Y53583500D01*
X37957413Y53565993D01*
X38059270Y53538700D01*
X38059272Y53538699D01*
X38059273Y53538699D01*
X38170790Y53538699D01*
X38170806Y53538700D01*
X39895656Y53538700D01*
X39953847Y53519793D01*
X39965659Y53509704D01*
X40016681Y53458683D01*
X40016684Y53458680D01*
X40153616Y53379623D01*
X40306343Y53338700D01*
X40306345Y53338700D01*
X40464455Y53338700D01*
X40464457Y53338700D01*
X40617184Y53379623D01*
X40638202Y53391758D01*
X40698046Y53404479D01*
X40753942Y53379594D01*
X40784536Y53326606D01*
X40786700Y53306021D01*
X40786700Y51280700D01*
X40767793Y51222509D01*
X40718293Y51186545D01*
X40687700Y51181700D01*
X31100035Y51181700D01*
X31041844Y51200607D01*
X31030031Y51210696D01*
X24301911Y57938816D01*
X24274134Y57993333D01*
X24273763Y58021748D01*
X24274500Y58027344D01*
X24274500Y58185456D01*
X24273702Y58188434D01*
X24233577Y58338184D01*
X24154520Y58475116D01*
X24042716Y58586920D01*
X24042713Y58586922D01*
X24042712Y58586923D01*
X24038228Y58590364D01*
X24003575Y58640791D01*
X23999500Y58668903D01*
X23999500Y64670898D01*
X24018407Y64729089D01*
X24038233Y64749440D01*
X24042711Y64752877D01*
X24042711Y64752878D01*
X24042716Y64752880D01*
X24154520Y64864684D01*
X24233577Y65001616D01*
X24274500Y65154343D01*
X24274500Y65312457D01*
X24233577Y65465184D01*
X24154520Y65602116D01*
X24042716Y65713920D01*
X23905784Y65792977D01*
X23753057Y65833900D01*
X23594943Y65833900D01*
X23442216Y65792977D01*
X23305284Y65713920D01*
X23193480Y65602116D01*
X23114423Y65465184D01*
X23073500Y65312457D01*
X23073500Y65154343D01*
X23114423Y65001616D01*
X23193480Y64864684D01*
X23305284Y64752880D01*
X23305286Y64752879D01*
X23305288Y64752877D01*
X23309767Y64749440D01*
X23344423Y64699016D01*
X23348500Y64670898D01*
X23348500Y58668903D01*
X23329593Y58610712D01*
X23309772Y58590364D01*
X23305287Y58586923D01*
X23305284Y58586920D01*
X23193480Y58475116D01*
X23169396Y58433400D01*
X23114422Y58338182D01*
X23105595Y58305241D01*
X23072270Y58253927D01*
X23015148Y58232002D01*
X22956048Y58247839D01*
X22939965Y58260862D01*
X21034996Y60165831D01*
X21007219Y60220348D01*
X21006000Y60235835D01*
X21006000Y60590198D01*
X21024907Y60648389D01*
X21044733Y60668740D01*
X21049211Y60672177D01*
X21049211Y60672178D01*
X21049216Y60672180D01*
X21161020Y60783984D01*
X21240077Y60920916D01*
X21281000Y61073643D01*
X21281000Y61231757D01*
X21240077Y61384484D01*
X21161020Y61521416D01*
X21049216Y61633220D01*
X20912284Y61712277D01*
X20759557Y61753200D01*
X20601443Y61753200D01*
X20448716Y61712277D01*
X20311784Y61633220D01*
X20199980Y61521416D01*
X20120923Y61384484D01*
X20080000Y61231757D01*
X20080000Y61073643D01*
X20120923Y60920916D01*
X20199980Y60783984D01*
X20311784Y60672180D01*
X20311786Y60672179D01*
X20311788Y60672177D01*
X20316267Y60668740D01*
X20350923Y60618316D01*
X20355000Y60590198D01*
X20355000Y60102853D01*
X20355000Y60017147D01*
X20374132Y59945745D01*
X20377183Y59934357D01*
X20420031Y59860143D01*
X20420033Y59860141D01*
X20420035Y59860138D01*
X30424038Y49856135D01*
X30424040Y49856134D01*
X30424042Y49856132D01*
X30498257Y49813284D01*
X30498255Y49813284D01*
X30498259Y49813283D01*
X30498261Y49813282D01*
X30581047Y49791100D01*
X30581049Y49791100D01*
X41921951Y49791100D01*
X41921953Y49791100D01*
X42004739Y49813282D01*
X42004741Y49813284D01*
X42004743Y49813284D01*
X42078957Y49856132D01*
X42078957Y49856133D01*
X42078962Y49856135D01*
X42557765Y50334938D01*
X42577269Y50368719D01*
X42600616Y50409157D01*
X42600616Y50409159D01*
X42600618Y50409161D01*
X42615673Y50465352D01*
X42648997Y50516664D01*
X42706118Y50538591D01*
X42765219Y50522756D01*
X42803724Y50475206D01*
X42810300Y50439727D01*
X42810300Y49562503D01*
X42791393Y49504312D01*
X42771572Y49483964D01*
X42767087Y49480523D01*
X42767084Y49480520D01*
X42655280Y49368716D01*
X42576223Y49231784D01*
X42535300Y49079057D01*
X42535300Y48920943D01*
X42576223Y48768216D01*
X42655280Y48631284D01*
X42767084Y48519480D01*
X42904016Y48440423D01*
X43056743Y48399500D01*
X43056745Y48399500D01*
X43214855Y48399500D01*
X43214857Y48399500D01*
X43367584Y48440423D01*
X43504516Y48519480D01*
X43616320Y48631284D01*
X43695377Y48768216D01*
X43736300Y48920943D01*
X43736300Y49079057D01*
X43695377Y49231784D01*
X43616320Y49368716D01*
X43504516Y49480520D01*
X43504513Y49480522D01*
X43504512Y49480523D01*
X43500028Y49483964D01*
X43465375Y49534391D01*
X43461300Y49562503D01*
X43461300Y54140952D01*
X43453660Y54169465D01*
X43439118Y54223738D01*
X43396265Y54297962D01*
X43385954Y54308273D01*
X43335662Y54358566D01*
X43335662Y54358565D01*
X42668811Y55025416D01*
X42641034Y55079933D01*
X42640663Y55108348D01*
X42641400Y55113944D01*
X42641400Y55272056D01*
X42639771Y55278135D01*
X42600477Y55424784D01*
X42588343Y55445801D01*
X42575622Y55505649D01*
X42600509Y55561545D01*
X42653498Y55592137D01*
X42674080Y55594300D01*
X43544600Y55594300D01*
X43602791Y55575393D01*
X43638755Y55525893D01*
X43643600Y55495300D01*
X43643600Y55469643D01*
X43684523Y55316916D01*
X43763580Y55179984D01*
X43875384Y55068180D01*
X44012316Y54989123D01*
X44165043Y54948200D01*
X44165045Y54948200D01*
X44323155Y54948200D01*
X44323157Y54948200D01*
X44475884Y54989123D01*
X44612816Y55068180D01*
X44724620Y55179984D01*
X44803677Y55316916D01*
X44844600Y55469643D01*
X44844600Y55627757D01*
X44803677Y55780484D01*
X44724620Y55917416D01*
X44612816Y56029220D01*
X44475884Y56108277D01*
X44323157Y56149200D01*
X44165043Y56149200D01*
X44165042Y56149200D01*
X44159436Y56148462D01*
X44099275Y56159615D01*
X44076517Y56176610D01*
X44072862Y56180265D01*
X44072859Y56180267D01*
X44072857Y56180269D01*
X43998642Y56223117D01*
X43998644Y56223117D01*
X43966296Y56231784D01*
X43915853Y56245300D01*
X43915851Y56245300D01*
X41781432Y56245300D01*
X41781416Y56245301D01*
X41775353Y56245301D01*
X41689648Y56245301D01*
X41615203Y56225353D01*
X41615202Y56225354D01*
X41606864Y56223119D01*
X41606862Y56223119D01*
X41606862Y56223118D01*
X41539295Y56184108D01*
X41532635Y56180263D01*
X41472034Y56119663D01*
X41472035Y56119662D01*
X41472033Y56119660D01*
X41472032Y56119661D01*
X41053735Y55701363D01*
X41010881Y55627138D01*
X41010881Y55627137D01*
X41008027Y55616483D01*
X41008027Y55616482D01*
X40990327Y55550423D01*
X40988700Y55544352D01*
X40988700Y55278135D01*
X40969793Y55219944D01*
X40920293Y55183980D01*
X40859107Y55183980D01*
X40819696Y55208131D01*
X40166096Y55861731D01*
X40138319Y55916248D01*
X40137100Y55931735D01*
X40137100Y66967765D01*
X40156007Y67025956D01*
X40205507Y67061920D01*
X40266693Y67061920D01*
X40306104Y67037769D01*
X46763669Y60580204D01*
X46791446Y60525687D01*
X46781875Y60465255D01*
X46738610Y60421990D01*
X46693665Y60411200D01*
X46655743Y60411200D01*
X46503016Y60370277D01*
X46366084Y60291220D01*
X46254280Y60179416D01*
X46175223Y60042484D01*
X46134300Y59889757D01*
X46134300Y59731643D01*
X46175223Y59578916D01*
X46254280Y59441984D01*
X46366084Y59330180D01*
X46503016Y59251123D01*
X46655743Y59210200D01*
X46655745Y59210200D01*
X46813856Y59210200D01*
X46813857Y59210200D01*
X46813857Y59210201D01*
X46819452Y59210937D01*
X46879614Y59199791D01*
X46902384Y59182789D01*
X47698004Y58387169D01*
X47725781Y58332652D01*
X47727000Y58317165D01*
X47727000Y56783522D01*
X47708093Y56725331D01*
X47658593Y56689367D01*
X47597407Y56689367D01*
X47578501Y56697785D01*
X47501785Y56742077D01*
X47450875Y56755718D01*
X47349057Y56783000D01*
X47190943Y56783000D01*
X47190942Y56783000D01*
X47185334Y56782262D01*
X47125174Y56793416D01*
X47102414Y56810412D01*
X46340302Y57572524D01*
X45520262Y58392565D01*
X45520259Y58392567D01*
X45520257Y58392569D01*
X45446042Y58435417D01*
X45446044Y58435417D01*
X45413921Y58444024D01*
X45363253Y58457600D01*
X45363251Y58457600D01*
X41772102Y58457600D01*
X41713911Y58476507D01*
X41693560Y58496333D01*
X41690123Y58500812D01*
X41690121Y58500814D01*
X41690120Y58500816D01*
X41578316Y58612620D01*
X41441384Y58691677D01*
X41288657Y58732600D01*
X41130543Y58732600D01*
X40977816Y58691677D01*
X40840884Y58612620D01*
X40729080Y58500816D01*
X40650023Y58363884D01*
X40609100Y58211157D01*
X40609100Y58053043D01*
X40650023Y57900316D01*
X40729080Y57763384D01*
X40840884Y57651580D01*
X40977816Y57572523D01*
X41130543Y57531600D01*
X41130545Y57531600D01*
X41288655Y57531600D01*
X41288657Y57531600D01*
X41441384Y57572523D01*
X41578316Y57651580D01*
X41690120Y57763384D01*
X41690123Y57763389D01*
X41693560Y57767867D01*
X41743984Y57802523D01*
X41772102Y57806600D01*
X45144565Y57806600D01*
X45202756Y57787693D01*
X45214569Y57777604D01*
X45933109Y57059064D01*
X46642088Y56350086D01*
X46669865Y56295569D01*
X46670238Y56267166D01*
X46669500Y56261558D01*
X46669500Y56261557D01*
X46669500Y56103443D01*
X46710423Y55950716D01*
X46789480Y55813784D01*
X46901284Y55701980D01*
X47038216Y55622923D01*
X47190943Y55582000D01*
X47190945Y55582000D01*
X47349055Y55582000D01*
X47349057Y55582000D01*
X47501784Y55622923D01*
X47578501Y55667216D01*
X47638348Y55679937D01*
X47694244Y55655051D01*
X47724837Y55602063D01*
X47727000Y55581479D01*
X47727000Y49371643D01*
X47708093Y49313452D01*
X47658593Y49277488D01*
X47597407Y49277488D01*
X47557998Y49301638D01*
X47551416Y49308220D01*
X47414484Y49387277D01*
X47261757Y49428200D01*
X47103643Y49428200D01*
X46950916Y49387277D01*
X46813984Y49308220D01*
X46702180Y49196416D01*
X46623123Y49059484D01*
X46582200Y48906756D01*
X46582200Y48748640D01*
X46582937Y48743040D01*
X46571786Y48682879D01*
X46554788Y48660117D01*
X46321370Y48426697D01*
X46266853Y48398919D01*
X46251366Y48397700D01*
X45967502Y48397700D01*
X45909311Y48416607D01*
X45888960Y48436433D01*
X45885523Y48440912D01*
X45885521Y48440914D01*
X45885520Y48440916D01*
X45773716Y48552720D01*
X45636784Y48631777D01*
X45484057Y48672700D01*
X45325943Y48672700D01*
X45173216Y48631777D01*
X45036284Y48552720D01*
X44924480Y48440916D01*
X44845423Y48303984D01*
X44810806Y48174792D01*
X44785183Y48130411D01*
X40944983Y44290212D01*
X40890466Y44262435D01*
X40862058Y44262063D01*
X40856459Y44262800D01*
X40856457Y44262800D01*
X40698343Y44262800D01*
X40545616Y44221877D01*
X40408684Y44142820D01*
X40296880Y44031016D01*
X40217823Y43894084D01*
X40176900Y43741357D01*
X40176900Y43583243D01*
X40217823Y43430516D01*
X40296880Y43293584D01*
X40408684Y43181780D01*
X40545616Y43102723D01*
X40698343Y43061800D01*
X40698345Y43061800D01*
X40856455Y43061800D01*
X40856457Y43061800D01*
X41009184Y43102723D01*
X41146116Y43181780D01*
X41257920Y43293584D01*
X41336977Y43430516D01*
X41377900Y43583243D01*
X41377900Y43741357D01*
X41377898Y43741362D01*
X41377162Y43746956D01*
X41388310Y43807118D01*
X41405308Y43829883D01*
X45066221Y47490796D01*
X45120736Y47518571D01*
X45166635Y47513137D01*
X45166948Y47514303D01*
X45173214Y47512624D01*
X45173216Y47512623D01*
X45325943Y47471700D01*
X45325945Y47471700D01*
X45484055Y47471700D01*
X45484057Y47471700D01*
X45636784Y47512623D01*
X45773716Y47591680D01*
X45885520Y47703484D01*
X45885523Y47703489D01*
X45888960Y47707967D01*
X45939384Y47742623D01*
X45967502Y47746700D01*
X46470051Y47746700D01*
X46470053Y47746700D01*
X46552839Y47768882D01*
X46552841Y47768884D01*
X46552843Y47768884D01*
X46627057Y47811732D01*
X46627057Y47811733D01*
X46627062Y47811735D01*
X47015115Y48199790D01*
X47069630Y48227566D01*
X47098041Y48227938D01*
X47103640Y48227201D01*
X47103643Y48227200D01*
X47103646Y48227200D01*
X47261755Y48227200D01*
X47261757Y48227200D01*
X47414484Y48268123D01*
X47551416Y48347180D01*
X47557998Y48353763D01*
X47612513Y48381538D01*
X47672945Y48371967D01*
X47716210Y48328702D01*
X47727000Y48283757D01*
X47727000Y46995435D01*
X47708093Y46937244D01*
X47698004Y46925431D01*
X37784731Y37012158D01*
X37741883Y36937943D01*
X37741882Y36937941D01*
X37732431Y36902672D01*
X37732432Y36902671D01*
X37719700Y36855153D01*
X37719700Y35276603D01*
X37700793Y35218412D01*
X37680972Y35198064D01*
X37676487Y35194623D01*
X37676484Y35194620D01*
X37564680Y35082816D01*
X37485623Y34945884D01*
X37444700Y34793157D01*
X37444700Y34635043D01*
X37462853Y34567296D01*
X37459650Y34506194D01*
X37442050Y34476847D01*
X37015639Y33984674D01*
X36963245Y33953074D01*
X36940815Y33950500D01*
X36884108Y33950500D01*
X36771848Y33920421D01*
X36756810Y33916391D01*
X36708999Y33888787D01*
X36649151Y33876066D01*
X36593255Y33900953D01*
X36562663Y33953941D01*
X36560500Y33974524D01*
X36560500Y40545467D01*
X36579407Y40603658D01*
X36589490Y40615465D01*
X38054015Y42079991D01*
X38108530Y42107766D01*
X38136941Y42108138D01*
X38142540Y42107401D01*
X38142543Y42107400D01*
X38142546Y42107400D01*
X38300655Y42107400D01*
X38300657Y42107400D01*
X38453384Y42148323D01*
X38590316Y42227380D01*
X38702120Y42339184D01*
X38781177Y42476116D01*
X38822100Y42628843D01*
X38822100Y42786957D01*
X38781177Y42939684D01*
X38702120Y43076616D01*
X38590316Y43188420D01*
X38453384Y43267477D01*
X38300657Y43308400D01*
X38142543Y43308400D01*
X37989816Y43267477D01*
X37852884Y43188420D01*
X37741080Y43076616D01*
X37662023Y42939684D01*
X37641970Y42864843D01*
X37621100Y42786956D01*
X37621100Y42628840D01*
X37621837Y42623240D01*
X37610686Y42563079D01*
X37593688Y42540316D01*
X35974532Y40921159D01*
X35974531Y40921158D01*
X35931682Y40846940D01*
X35931681Y40846940D01*
X35931682Y40846939D01*
X35909500Y40764153D01*
X35909500Y38504138D01*
X35890593Y38445947D01*
X35841093Y38409983D01*
X35779907Y38409983D01*
X35761001Y38418401D01*
X35740085Y38430477D01*
X35682349Y38445947D01*
X35587357Y38471400D01*
X35429243Y38471400D01*
X35276516Y38430477D01*
X35139584Y38351420D01*
X35027780Y38239616D01*
X34948723Y38102684D01*
X34907800Y37949956D01*
X34907800Y37791841D01*
X34908537Y37786242D01*
X34897386Y37726081D01*
X34880388Y37703318D01*
X33739535Y36562463D01*
X33739531Y36562458D01*
X33696683Y36488243D01*
X33696682Y36488241D01*
X33687166Y36452729D01*
X33687167Y36452728D01*
X33674500Y36405453D01*
X33674500Y33592836D01*
X33655593Y33534645D01*
X33645504Y33522832D01*
X32917583Y32794912D01*
X32863066Y32767135D01*
X32834658Y32766763D01*
X32829059Y32767500D01*
X32829057Y32767500D01*
X32670943Y32767500D01*
X32518511Y32726656D01*
X32518216Y32726577D01*
X32497273Y32714486D01*
X32437424Y32701768D01*
X32381529Y32726656D01*
X32362040Y32750725D01*
X32300503Y32857310D01*
X32300501Y32857312D01*
X32300500Y32857314D01*
X32229494Y32928320D01*
X32201719Y32982834D01*
X32200500Y32998321D01*
X32200500Y34838458D01*
X32200665Y34844177D01*
X32202283Y34872141D01*
X32201939Y34876837D01*
X32201112Y34884909D01*
X32200500Y34889561D01*
X32194284Y34912756D01*
X32193246Y34916631D01*
X32191927Y34922191D01*
X32172951Y35013908D01*
X31900986Y36328404D01*
X31899007Y36344663D01*
X31898763Y36351045D01*
X31892738Y36370511D01*
X31890375Y36379690D01*
X31886252Y36399624D01*
X31883380Y36405337D01*
X31877261Y36420528D01*
X31875372Y36426632D01*
X31864514Y36443876D01*
X31859856Y36452129D01*
X31850713Y36470317D01*
X31846459Y36475093D01*
X31836619Y36488180D01*
X31836579Y36488243D01*
X30392522Y38781745D01*
X30377518Y38841061D01*
X30380674Y38860117D01*
X30395417Y38915140D01*
X30400500Y38934108D01*
X30400500Y39065892D01*
X30366392Y39193186D01*
X30366390Y39193189D01*
X30366390Y39193191D01*
X30300503Y39307310D01*
X30300501Y39307312D01*
X30300500Y39307314D01*
X30207314Y39400500D01*
X30207311Y39400502D01*
X30207309Y39400504D01*
X30093189Y39466391D01*
X30093191Y39466391D01*
X30043799Y39479625D01*
X29965892Y39500500D01*
X29834108Y39500500D01*
X29756200Y39479625D01*
X29706809Y39466391D01*
X29592690Y39400504D01*
X29499496Y39307310D01*
X29433609Y39193191D01*
X29433608Y39193186D01*
X29399500Y39065892D01*
X29399500Y38934108D01*
X29411693Y38888603D01*
X29433609Y38806810D01*
X29499496Y38692691D01*
X29499498Y38692689D01*
X29499500Y38692686D01*
X29592686Y38599500D01*
X29592688Y38599499D01*
X29592690Y38599497D01*
X29706810Y38533610D01*
X29706811Y38533610D01*
X29706814Y38533608D01*
X29827806Y38501189D01*
X29879119Y38467866D01*
X29885959Y38458311D01*
X30899203Y36849040D01*
X30914208Y36789723D01*
X30891481Y36732915D01*
X30839704Y36700315D01*
X30809493Y36697470D01*
X30807495Y36697590D01*
X30803749Y36697815D01*
X30770487Y36699812D01*
X30769240Y36699895D01*
X30732170Y36702591D01*
X30731093Y36702514D01*
X30729850Y36702434D01*
X30728690Y36702367D01*
X30692179Y36694896D01*
X30690954Y36694654D01*
X25997425Y35795894D01*
X25995496Y35795544D01*
X25960357Y35789535D01*
X25959329Y35789216D01*
X25958838Y35789094D01*
X25958437Y35788960D01*
X25956588Y35788367D01*
X25956113Y35788221D01*
X25955631Y35788030D01*
X25954631Y35787699D01*
X25922658Y35772215D01*
X25920882Y35771376D01*
X23834782Y34811770D01*
X23774014Y34804629D01*
X23749211Y34813977D01*
X23749183Y34813908D01*
X23747071Y34814783D01*
X23743910Y34815974D01*
X23743188Y34816391D01*
X23743187Y34816392D01*
X23743186Y34816392D01*
X23615892Y34850500D01*
X23484108Y34850500D01*
X23411769Y34831117D01*
X23356809Y34816391D01*
X23242690Y34750504D01*
X23149496Y34657310D01*
X23083609Y34543191D01*
X23083608Y34543186D01*
X23049500Y34415892D01*
X23049500Y34284108D01*
X23072118Y34199696D01*
X23083609Y34156810D01*
X23149496Y34042691D01*
X23149498Y34042689D01*
X23149500Y34042686D01*
X23242686Y33949500D01*
X23242688Y33949499D01*
X23242690Y33949497D01*
X23356810Y33883610D01*
X23356808Y33883610D01*
X23356812Y33883609D01*
X23356814Y33883608D01*
X23484108Y33849500D01*
X23484110Y33849500D01*
X23615890Y33849500D01*
X23615892Y33849500D01*
X23743186Y33883608D01*
X23743188Y33883610D01*
X23743190Y33883610D01*
X23857309Y33949497D01*
X23857309Y33949498D01*
X23857314Y33949500D01*
X23950500Y34042686D01*
X24016392Y34156814D01*
X24027882Y34199699D01*
X24061204Y34251011D01*
X24082129Y34264012D01*
X26131472Y35206709D01*
X26154209Y35213996D01*
X29987754Y35948079D01*
X30048462Y35940454D01*
X30093094Y35898601D01*
X30104601Y35838507D01*
X30102001Y35825227D01*
X30099500Y35815892D01*
X30099500Y35678397D01*
X30080593Y35620206D01*
X30074348Y35612461D01*
X24151130Y28978459D01*
X24137400Y28965738D01*
X24136133Y28964771D01*
X24136130Y28964768D01*
X24120789Y28944863D01*
X24116230Y28939370D01*
X24099499Y28920630D01*
X24099490Y28920617D01*
X24098773Y28919194D01*
X24088810Y28903366D01*
X24087834Y28902101D01*
X24087832Y28902096D01*
X24078165Y28878897D01*
X24075184Y28872415D01*
X24063872Y28849983D01*
X24063870Y28849977D01*
X24063547Y28848424D01*
X24058011Y28830528D01*
X23995304Y28680032D01*
X23955469Y28633589D01*
X23929544Y28622483D01*
X23906812Y28616392D01*
X23906810Y28616391D01*
X23792690Y28550504D01*
X23699496Y28457310D01*
X23633609Y28343191D01*
X23607221Y28244707D01*
X23573897Y28193392D01*
X23516775Y28171466D01*
X23457675Y28187302D01*
X23448903Y28193708D01*
X22586809Y28899058D01*
X22553745Y28950540D01*
X22550500Y28975680D01*
X22550500Y29015891D01*
X22550500Y29015892D01*
X22516392Y29143186D01*
X22516390Y29143189D01*
X22516390Y29143191D01*
X22450503Y29257310D01*
X22450501Y29257312D01*
X22450500Y29257314D01*
X22357314Y29350500D01*
X22357311Y29350502D01*
X22357309Y29350504D01*
X22243189Y29416391D01*
X22243191Y29416391D01*
X22193799Y29429625D01*
X22115892Y29450500D01*
X21984108Y29450500D01*
X21906200Y29429625D01*
X21856809Y29416391D01*
X21742690Y29350504D01*
X21649496Y29257310D01*
X21583609Y29143191D01*
X21583608Y29143186D01*
X21549500Y29015892D01*
X21549500Y28884108D01*
X21580015Y28770221D01*
X21576813Y28709122D01*
X21538308Y28661572D01*
X21484389Y28645600D01*
X15159804Y28645600D01*
X15024472Y28618680D01*
X15024470Y28618680D01*
X14896993Y28565878D01*
X14896982Y28565872D01*
X14782258Y28489215D01*
X14684685Y28391642D01*
X14608028Y28276918D01*
X14608022Y28276907D01*
X14555220Y28149430D01*
X14555220Y28149428D01*
X14528300Y28014096D01*
X14528300Y27876105D01*
X14555220Y27740773D01*
X14555220Y27740771D01*
X14608022Y27613294D01*
X14608028Y27613283D01*
X14684685Y27498559D01*
X14782258Y27400986D01*
X14896982Y27324329D01*
X14896993Y27324323D01*
X14912179Y27318033D01*
X15024472Y27271520D01*
X15159807Y27244600D01*
X21561635Y27244600D01*
X21619826Y27225693D01*
X21631639Y27215604D01*
X22978257Y25868986D01*
X23092989Y25792325D01*
X23220471Y25739520D01*
X23355806Y25712601D01*
X23355808Y25712601D01*
X23493793Y25712601D01*
X23493794Y25712601D01*
X23629128Y25739520D01*
X23756611Y25792325D01*
X23871343Y25868986D01*
X23968914Y25966557D01*
X24045575Y26081289D01*
X24098380Y26208772D01*
X24125299Y26344106D01*
X24125299Y26482094D01*
X24098380Y26617429D01*
X24045575Y26744911D01*
X23968914Y26859643D01*
X23790177Y27038380D01*
X23762402Y27092894D01*
X23771973Y27153326D01*
X23815238Y27196591D01*
X23871906Y27206684D01*
X23907988Y27202381D01*
X23911146Y27201953D01*
X23936017Y27198165D01*
X23943864Y27196969D01*
X23948766Y27196870D01*
X23953688Y27196931D01*
X23953696Y27196930D01*
X23986459Y27201651D01*
X23989611Y27202053D01*
X24420099Y27249886D01*
X24426584Y27250391D01*
X24452964Y27251571D01*
X24453249Y27251662D01*
X24472198Y27255674D01*
X24472504Y27255707D01*
X24497095Y27265315D01*
X24503219Y27267478D01*
X24528398Y27275447D01*
X24528650Y27275609D01*
X24545918Y27284390D01*
X24546202Y27284500D01*
X24567472Y27300149D01*
X24572817Y27303816D01*
X24595082Y27318034D01*
X24595277Y27318248D01*
X24609696Y27331211D01*
X24609937Y27331387D01*
X24626430Y27352006D01*
X24630654Y27356943D01*
X29729779Y32934108D01*
X30720128Y34017302D01*
X30773348Y34047491D01*
X30793193Y34049500D01*
X30822714Y34049500D01*
X30880905Y34030593D01*
X30916869Y33981093D01*
X30916869Y33919907D01*
X30913709Y33911502D01*
X30750463Y33530598D01*
X30710162Y33484560D01*
X30685093Y33473970D01*
X30656812Y33466392D01*
X30656810Y33466391D01*
X30542690Y33400504D01*
X30449496Y33307310D01*
X30383609Y33193191D01*
X30383608Y33193186D01*
X30349500Y33065892D01*
X30349500Y32934108D01*
X30364717Y32877317D01*
X30383609Y32806810D01*
X30449496Y32692691D01*
X30449498Y32692689D01*
X30449500Y32692686D01*
X30542686Y32599500D01*
X30542688Y32599499D01*
X30542690Y32599497D01*
X30656810Y32533610D01*
X30656808Y32533610D01*
X30656812Y32533609D01*
X30656814Y32533608D01*
X30784108Y32499500D01*
X30784110Y32499500D01*
X30915890Y32499500D01*
X30915892Y32499500D01*
X31043186Y32533608D01*
X31043188Y32533610D01*
X31043190Y32533610D01*
X31157309Y32599497D01*
X31157309Y32599498D01*
X31157314Y32599500D01*
X31230498Y32672685D01*
X31285013Y32700460D01*
X31345445Y32690889D01*
X31388710Y32647624D01*
X31399500Y32602679D01*
X31399500Y32484108D01*
X31410905Y32441545D01*
X31433609Y32356810D01*
X31499496Y32242691D01*
X31499498Y32242689D01*
X31499500Y32242686D01*
X31592686Y32149500D01*
X31592688Y32149499D01*
X31592690Y32149497D01*
X31706810Y32083610D01*
X31706808Y32083610D01*
X31706812Y32083609D01*
X31706814Y32083608D01*
X31834108Y32049500D01*
X31834110Y32049500D01*
X31965889Y32049500D01*
X31965892Y32049500D01*
X32051187Y32072355D01*
X32112285Y32069153D01*
X32159835Y32030648D01*
X32172433Y32002352D01*
X32190421Y31935220D01*
X32190421Y31935219D01*
X32215482Y31891811D01*
X32269480Y31798284D01*
X32381284Y31686480D01*
X32518216Y31607423D01*
X32670943Y31566500D01*
X32670945Y31566500D01*
X32829055Y31566500D01*
X32829057Y31566500D01*
X32981784Y31607423D01*
X33029364Y31634894D01*
X33089211Y31647615D01*
X33145106Y31622729D01*
X33174489Y31574781D01*
X33190423Y31515316D01*
X33269480Y31378384D01*
X33381284Y31266580D01*
X33381286Y31266579D01*
X33381288Y31266577D01*
X33385767Y31263140D01*
X33420423Y31212716D01*
X33424500Y31184598D01*
X33424500Y28119436D01*
X33405593Y28061245D01*
X33395504Y28049432D01*
X32692583Y27346512D01*
X32638066Y27318735D01*
X32609658Y27318363D01*
X32604059Y27319100D01*
X32604057Y27319100D01*
X32445943Y27319100D01*
X32293216Y27278177D01*
X32156284Y27199120D01*
X32044480Y27087316D01*
X31965423Y26950384D01*
X31924500Y26797657D01*
X31924500Y26639543D01*
X31965423Y26486816D01*
X32044480Y26349884D01*
X32156284Y26238080D01*
X32293216Y26159023D01*
X32445943Y26118100D01*
X32445945Y26118100D01*
X32604055Y26118100D01*
X32604057Y26118100D01*
X32756784Y26159023D01*
X32893716Y26238080D01*
X33005520Y26349884D01*
X33084577Y26486816D01*
X33125500Y26639543D01*
X33125500Y26797657D01*
X33125498Y26797662D01*
X33124762Y26803256D01*
X33135910Y26863418D01*
X33152908Y26886183D01*
X33949859Y27683134D01*
X33949862Y27683135D01*
X34010465Y27743738D01*
X34053318Y27817962D01*
X34057770Y27834577D01*
X34075501Y27900747D01*
X34075501Y27986453D01*
X34075501Y27992515D01*
X34075500Y27992533D01*
X34075500Y31184598D01*
X34094407Y31242789D01*
X34114233Y31263140D01*
X34118711Y31266577D01*
X34118711Y31266578D01*
X34118716Y31266580D01*
X34230520Y31378384D01*
X34309577Y31515316D01*
X34350500Y31668043D01*
X34350500Y31826157D01*
X34309577Y31978884D01*
X34230520Y32115816D01*
X34118716Y32227620D01*
X33981784Y32306677D01*
X33829057Y32347600D01*
X33670943Y32347600D01*
X33670938Y32347600D01*
X33645314Y32340734D01*
X33584213Y32343938D01*
X33536664Y32382444D01*
X33520830Y32441545D01*
X33542758Y32498666D01*
X33549678Y32506353D01*
X34260465Y33217138D01*
X34283372Y33256814D01*
X34303316Y33291357D01*
X34303316Y33291359D01*
X34303318Y33291361D01*
X34325500Y33374147D01*
X34325500Y33459853D01*
X34325500Y36186766D01*
X34344407Y36244957D01*
X34354490Y36256764D01*
X35340716Y37242991D01*
X35395231Y37270766D01*
X35423644Y37271138D01*
X35429238Y37270402D01*
X35429243Y37270400D01*
X35429248Y37270400D01*
X35587355Y37270400D01*
X35587357Y37270400D01*
X35740084Y37311323D01*
X35761001Y37323400D01*
X35820847Y37336121D01*
X35876743Y37311235D01*
X35907336Y37258247D01*
X35909500Y37237663D01*
X35909500Y33020603D01*
X35890593Y32962412D01*
X35870772Y32942064D01*
X35866287Y32938623D01*
X35866284Y32938620D01*
X35754480Y32826816D01*
X35675423Y32689884D01*
X35634500Y32537157D01*
X35634500Y32379043D01*
X35675423Y32226316D01*
X35754480Y32089384D01*
X35866284Y31977580D01*
X36003216Y31898523D01*
X36155943Y31857600D01*
X36155945Y31857600D01*
X36314055Y31857600D01*
X36314057Y31857600D01*
X36466784Y31898523D01*
X36603716Y31977580D01*
X36715520Y32089384D01*
X36794577Y32226316D01*
X36835500Y32379043D01*
X36835500Y32537157D01*
X36794577Y32689884D01*
X36720373Y32818410D01*
X36707653Y32878256D01*
X36732540Y32934151D01*
X36785528Y32964744D01*
X36831731Y32963535D01*
X36884108Y32949500D01*
X36884110Y32949500D01*
X37015890Y32949500D01*
X37015892Y32949500D01*
X37143186Y32983608D01*
X37143188Y32983610D01*
X37143190Y32983610D01*
X37257309Y33049497D01*
X37257309Y33049498D01*
X37257314Y33049500D01*
X37350500Y33142686D01*
X37416392Y33256814D01*
X37450500Y33384108D01*
X37450500Y33515892D01*
X37450499Y33515894D01*
X37450264Y33517682D01*
X37450500Y33518956D01*
X37450500Y33522381D01*
X37451135Y33522381D01*
X37461413Y33577843D01*
X37473594Y33595432D01*
X37479513Y33602263D01*
X37545877Y33678863D01*
X37598271Y33710462D01*
X37659232Y33705230D01*
X37705475Y33665165D01*
X37719700Y33614036D01*
X37719700Y33500553D01*
X37719700Y33414847D01*
X37739262Y33341837D01*
X37741883Y33332057D01*
X37784731Y33257843D01*
X37784733Y33257841D01*
X37784735Y33257838D01*
X46356105Y24686468D01*
X46383881Y24631953D01*
X46385100Y24616466D01*
X46385100Y24499135D01*
X46366193Y24440944D01*
X46356104Y24429132D01*
X46274935Y24347963D01*
X46274931Y24347958D01*
X46232083Y24273743D01*
X46232082Y24273740D01*
X46226921Y24254484D01*
X46226922Y24254483D01*
X46209900Y24190953D01*
X46209900Y21466043D01*
X46190993Y21407852D01*
X46141493Y21371888D01*
X46080307Y21371888D01*
X46040898Y21396038D01*
X45987816Y21449120D01*
X45850884Y21528177D01*
X45698157Y21569100D01*
X45540043Y21569100D01*
X45540041Y21569100D01*
X45534438Y21568362D01*
X45474277Y21579515D01*
X45451515Y21596512D01*
X44284511Y22763516D01*
X44256734Y22818033D01*
X44256363Y22846448D01*
X44257100Y22852044D01*
X44257100Y23010156D01*
X44248106Y23043723D01*
X44216177Y23162884D01*
X44137120Y23299816D01*
X44025316Y23411620D01*
X43888384Y23490677D01*
X43735657Y23531600D01*
X43577543Y23531600D01*
X43424816Y23490677D01*
X43287884Y23411620D01*
X43176080Y23299816D01*
X43097023Y23162884D01*
X43056100Y23010157D01*
X43056100Y22852043D01*
X43097023Y22699316D01*
X43176080Y22562384D01*
X43287884Y22450580D01*
X43424816Y22371523D01*
X43577543Y22330600D01*
X43577545Y22330600D01*
X43735656Y22330600D01*
X43735657Y22330600D01*
X43735657Y22330601D01*
X43741252Y22331337D01*
X43801414Y22320191D01*
X43824184Y22303189D01*
X44991188Y21136185D01*
X45018965Y21081668D01*
X45019338Y21053262D01*
X45018600Y21047659D01*
X45018600Y21047657D01*
X45018600Y20889543D01*
X45059523Y20736816D01*
X45138580Y20599884D01*
X45250384Y20488080D01*
X45387316Y20409023D01*
X45540043Y20368100D01*
X45540045Y20368100D01*
X45698155Y20368100D01*
X45698157Y20368100D01*
X45850884Y20409023D01*
X45987816Y20488080D01*
X46099620Y20599884D01*
X46128729Y20650303D01*
X46174196Y20691242D01*
X46235046Y20697639D01*
X46284465Y20670808D01*
X46903938Y20051335D01*
X46903940Y20051334D01*
X46903942Y20051332D01*
X46978157Y20008484D01*
X46978155Y20008484D01*
X46978159Y20008483D01*
X46978161Y20008482D01*
X47060947Y19986300D01*
X47268398Y19986300D01*
X47326589Y19967393D01*
X47346940Y19947567D01*
X47350376Y19943089D01*
X47350378Y19943087D01*
X47350380Y19943084D01*
X47462184Y19831280D01*
X47599116Y19752223D01*
X47751843Y19711300D01*
X47751845Y19711300D01*
X47909956Y19711300D01*
X47909957Y19711300D01*
X47909957Y19711301D01*
X47915552Y19712037D01*
X47975714Y19700891D01*
X47998484Y19683889D01*
X48946004Y18736369D01*
X48973781Y18681852D01*
X48975000Y18666365D01*
X48975000Y17017403D01*
X48956093Y16959212D01*
X48936272Y16938864D01*
X48931787Y16935423D01*
X48931784Y16935420D01*
X48819980Y16823616D01*
X48740923Y16686684D01*
X48700000Y16533957D01*
X48700000Y16375843D01*
X48740923Y16223116D01*
X48819980Y16086184D01*
X48931784Y15974380D01*
X49068716Y15895323D01*
X49221443Y15854400D01*
X49221445Y15854400D01*
X49379555Y15854400D01*
X49379557Y15854400D01*
X49532284Y15895323D01*
X49669216Y15974380D01*
X49781020Y16086184D01*
X49860077Y16223116D01*
X49901000Y16375843D01*
X49901000Y16533957D01*
X49860077Y16686684D01*
X49781020Y16823616D01*
X49669216Y16935420D01*
X49669213Y16935422D01*
X49669212Y16935423D01*
X49664728Y16938864D01*
X49630075Y16989291D01*
X49626000Y17017403D01*
X49626000Y18885052D01*
X49626000Y18885053D01*
X49611636Y18938662D01*
X49611636Y18938663D01*
X49611636Y18938664D01*
X49603818Y18967839D01*
X49603816Y18967843D01*
X49560968Y19042058D01*
X49560967Y19042059D01*
X49560966Y19042060D01*
X49560965Y19042062D01*
X48458811Y20144216D01*
X48431034Y20198733D01*
X48430663Y20227148D01*
X48431400Y20232744D01*
X48431400Y20390856D01*
X48426532Y20409024D01*
X48390477Y20543584D01*
X48311420Y20680516D01*
X48199616Y20792320D01*
X48062684Y20871377D01*
X47973864Y20895176D01*
X47919549Y20909730D01*
X47868234Y20943055D01*
X47846308Y21000176D01*
X47849545Y21030978D01*
X47868400Y21101343D01*
X47868400Y21259457D01*
X47868398Y21259462D01*
X47867662Y21265056D01*
X47878810Y21325218D01*
X47895807Y21347982D01*
X48957365Y22409538D01*
X48969209Y22430052D01*
X49000216Y22483757D01*
X49000216Y22483759D01*
X49000218Y22483761D01*
X49022400Y22566547D01*
X49022400Y22652253D01*
X49022400Y24827198D01*
X49041307Y24885389D01*
X49061133Y24905740D01*
X49065611Y24909177D01*
X49065611Y24909178D01*
X49065616Y24909180D01*
X49177420Y25020984D01*
X49256477Y25157916D01*
X49297400Y25310643D01*
X49297400Y25468757D01*
X49256477Y25621484D01*
X49177420Y25758416D01*
X49065616Y25870220D01*
X49065613Y25870222D01*
X49065612Y25870223D01*
X49061128Y25873664D01*
X49026475Y25924091D01*
X49022400Y25952203D01*
X49022400Y30468198D01*
X49041307Y30526389D01*
X49061133Y30546740D01*
X49065611Y30550177D01*
X49065611Y30550178D01*
X49065616Y30550180D01*
X49177420Y30661984D01*
X49256477Y30798916D01*
X49297400Y30951643D01*
X49297400Y31109757D01*
X49256477Y31262484D01*
X49177420Y31399416D01*
X49065616Y31511220D01*
X48928684Y31590277D01*
X48775957Y31631200D01*
X48617843Y31631200D01*
X48465116Y31590277D01*
X48328184Y31511220D01*
X48216380Y31399416D01*
X48137323Y31262484D01*
X48096400Y31109757D01*
X48096400Y30951643D01*
X48137323Y30798916D01*
X48216380Y30661984D01*
X48328184Y30550180D01*
X48328186Y30550179D01*
X48328188Y30550177D01*
X48332667Y30546740D01*
X48367323Y30496316D01*
X48371400Y30468198D01*
X48371400Y25952203D01*
X48352493Y25894012D01*
X48332672Y25873664D01*
X48328187Y25870223D01*
X48328184Y25870220D01*
X48216380Y25758416D01*
X48137323Y25621484D01*
X48096400Y25468757D01*
X48096400Y25310643D01*
X48137323Y25157916D01*
X48216380Y25020984D01*
X48328184Y24909180D01*
X48328186Y24909179D01*
X48328188Y24909177D01*
X48332667Y24905740D01*
X48367323Y24855316D01*
X48371400Y24827198D01*
X48371400Y22785236D01*
X48352493Y22727045D01*
X48342404Y22715232D01*
X47435483Y21808312D01*
X47380966Y21780535D01*
X47352558Y21780163D01*
X47346959Y21780900D01*
X47346957Y21780900D01*
X47188843Y21780900D01*
X47036116Y21739977D01*
X47009398Y21724552D01*
X46949551Y21711831D01*
X46893656Y21736718D01*
X46863063Y21789706D01*
X46860900Y21810289D01*
X46860900Y23858300D01*
X46879807Y23916491D01*
X46929307Y23952455D01*
X46959900Y23957300D01*
X47064655Y23957300D01*
X47064657Y23957300D01*
X47217384Y23998223D01*
X47354316Y24077280D01*
X47466120Y24189084D01*
X47545177Y24326016D01*
X47586100Y24478743D01*
X47586100Y24636857D01*
X47545177Y24789584D01*
X47466120Y24926516D01*
X47354316Y25038320D01*
X47217384Y25117377D01*
X47064657Y25158300D01*
X46906543Y25158300D01*
X46893570Y25154824D01*
X46881607Y25151619D01*
X46820506Y25154824D01*
X46785984Y25177243D01*
X38399696Y33563531D01*
X38371919Y33618048D01*
X38370700Y33633535D01*
X38370700Y34151598D01*
X38389607Y34209789D01*
X38409433Y34230140D01*
X38413911Y34233577D01*
X38413911Y34233578D01*
X38413916Y34233580D01*
X38525720Y34345384D01*
X38604777Y34482316D01*
X38645700Y34635043D01*
X38645700Y34733661D01*
X38664607Y34791852D01*
X38714107Y34827816D01*
X38764015Y34830759D01*
X38766497Y34830266D01*
X38766503Y34830263D01*
X38921158Y34799500D01*
X40754621Y34799500D01*
X40812812Y34780593D01*
X40824624Y34770504D01*
X40851943Y34743186D01*
X40876376Y34718753D01*
X41053226Y34583052D01*
X41053228Y34583051D01*
X41246272Y34471596D01*
X41246277Y34471593D01*
X41414179Y34402047D01*
X41452219Y34386290D01*
X41667537Y34328596D01*
X41888543Y34299500D01*
X66700500Y34299500D01*
X66758691Y34280593D01*
X66794655Y34231093D01*
X66799500Y34200500D01*
X66799500Y29299500D01*
X66780593Y29241309D01*
X66731093Y29205345D01*
X66700500Y29200500D01*
X55931004Y29200500D01*
X55795672Y29173580D01*
X55795670Y29173580D01*
X55668193Y29120778D01*
X55668182Y29120772D01*
X55553458Y29044115D01*
X55455885Y28946542D01*
X55379228Y28831818D01*
X55379222Y28831807D01*
X55326420Y28704330D01*
X55326420Y28704328D01*
X55299500Y28568996D01*
X55299500Y26299500D01*
X55280593Y26241309D01*
X55231093Y26205345D01*
X55200500Y26200500D01*
X55195725Y26200500D01*
X55165305Y26197647D01*
X55165296Y26197645D01*
X55037116Y26152793D01*
X54927855Y26072155D01*
X54927845Y26072145D01*
X54847207Y25962884D01*
X54802355Y25834704D01*
X54802353Y25834695D01*
X54799500Y25804275D01*
X54799500Y24195726D01*
X54802353Y24165306D01*
X54802355Y24165297D01*
X54847207Y24037117D01*
X54927845Y23927856D01*
X54927847Y23927854D01*
X54927850Y23927850D01*
X54927853Y23927848D01*
X54927855Y23927846D01*
X55037116Y23847208D01*
X55037117Y23847208D01*
X55037118Y23847207D01*
X55165301Y23802354D01*
X55195725Y23799501D01*
X55195727Y23799500D01*
X55195734Y23799500D01*
X56804273Y23799500D01*
X56804273Y23799501D01*
X56834699Y23802354D01*
X56962882Y23847207D01*
X57072150Y23927850D01*
X57152793Y24037118D01*
X57197646Y24165301D01*
X57200499Y24195727D01*
X57200500Y24195727D01*
X57200500Y25804273D01*
X57200499Y25804275D01*
X57197646Y25834695D01*
X57197646Y25834699D01*
X57152793Y25962882D01*
X57092931Y26043992D01*
X57072154Y26072145D01*
X57072152Y26072147D01*
X57072150Y26072150D01*
X57072146Y26072153D01*
X57072144Y26072155D01*
X56962883Y26152793D01*
X56834703Y26197645D01*
X56834694Y26197647D01*
X56804274Y26200500D01*
X56804266Y26200500D01*
X56799500Y26200500D01*
X56741309Y26219407D01*
X56705345Y26268907D01*
X56700500Y26299500D01*
X56700500Y27700500D01*
X56719407Y27758691D01*
X56768907Y27794655D01*
X56799500Y27799500D01*
X65818650Y27799500D01*
X65876841Y27780593D01*
X65912805Y27731093D01*
X65912805Y27669907D01*
X65904391Y27651010D01*
X65836423Y27533284D01*
X65795500Y27380557D01*
X65795500Y27222443D01*
X65836423Y27069716D01*
X65915480Y26932784D01*
X66027284Y26820980D01*
X66027289Y26820977D01*
X66030464Y26818541D01*
X66065122Y26768118D01*
X66069200Y26739996D01*
X66069200Y24658903D01*
X66050293Y24600712D01*
X66030472Y24580364D01*
X66025987Y24576923D01*
X66025984Y24576920D01*
X65914180Y24465116D01*
X65835123Y24328184D01*
X65794200Y24175457D01*
X65794200Y24017343D01*
X65835123Y23864616D01*
X65914180Y23727684D01*
X66025984Y23615880D01*
X66162916Y23536823D01*
X66315643Y23495900D01*
X66315645Y23495900D01*
X66473755Y23495900D01*
X66473757Y23495900D01*
X66626484Y23536823D01*
X66651002Y23550979D01*
X66710848Y23563699D01*
X66766744Y23538812D01*
X66797337Y23485824D01*
X66799500Y23465241D01*
X66799500Y5799500D01*
X66780593Y5741309D01*
X66731093Y5705345D01*
X66700500Y5700500D01*
X57799500Y5700500D01*
X57741309Y5719407D01*
X57705345Y5768907D01*
X57700500Y5799500D01*
X57700500Y11111456D01*
X57700500Y11111457D01*
X57671404Y11332463D01*
X57613710Y11547781D01*
X57597953Y11585821D01*
X57528407Y11753723D01*
X57528404Y11753728D01*
X57415328Y11949581D01*
X57416088Y11950020D01*
X57400499Y12001424D01*
X57400499Y12004266D01*
X57397646Y12034695D01*
X57397646Y12034698D01*
X57352793Y12162882D01*
X57352791Y12162884D01*
X57352791Y12162886D01*
X57272154Y12272145D01*
X57272152Y12272147D01*
X57272150Y12272150D01*
X57272146Y12272153D01*
X57272144Y12272155D01*
X57162885Y12352792D01*
X57148697Y12357757D01*
X57034698Y12397646D01*
X57034696Y12397647D01*
X57034694Y12397647D01*
X57004273Y12400500D01*
X57004265Y12400500D01*
X57001421Y12400500D01*
X56950023Y12416095D01*
X56949581Y12415328D01*
X56753727Y12528405D01*
X56753722Y12528408D01*
X56547782Y12613710D01*
X56452839Y12639150D01*
X56332463Y12671404D01*
X56332460Y12671405D01*
X56332458Y12671405D01*
X56111457Y12700500D01*
X55888543Y12700500D01*
X55888542Y12700500D01*
X55667544Y12671405D01*
X55667539Y12671405D01*
X55452217Y12613710D01*
X55246277Y12528408D01*
X55246273Y12528405D01*
X55050420Y12415328D01*
X55049985Y12416081D01*
X54998596Y12400500D01*
X54995734Y12400500D01*
X54965305Y12397647D01*
X54837114Y12352792D01*
X54727855Y12272155D01*
X54727845Y12272145D01*
X54647208Y12162886D01*
X54602353Y12034695D01*
X54599500Y12004274D01*
X54599500Y12001422D01*
X54583909Y11950022D01*
X54584672Y11949581D01*
X54471595Y11753728D01*
X54471592Y11753723D01*
X54386290Y11547783D01*
X54328595Y11332461D01*
X54328595Y11332456D01*
X54299500Y11111458D01*
X54299500Y5799500D01*
X54280593Y5741309D01*
X54231093Y5705345D01*
X54200500Y5700500D01*
X36799500Y5700500D01*
X36741309Y5719407D01*
X36705345Y5768907D01*
X36700500Y5799500D01*
X36700500Y11111456D01*
X36700500Y11111457D01*
X36671404Y11332463D01*
X36613710Y11547781D01*
X36597953Y11585821D01*
X36528407Y11753723D01*
X36528404Y11753728D01*
X36415328Y11949581D01*
X36416088Y11950020D01*
X36400499Y12001424D01*
X36400499Y12004266D01*
X36397646Y12034695D01*
X36397646Y12034698D01*
X36352793Y12162882D01*
X36352791Y12162884D01*
X36352791Y12162886D01*
X36272154Y12272145D01*
X36272152Y12272147D01*
X36272150Y12272150D01*
X36272146Y12272153D01*
X36272144Y12272155D01*
X36162885Y12352792D01*
X36148697Y12357757D01*
X36034698Y12397646D01*
X36034696Y12397647D01*
X36034694Y12397647D01*
X36004273Y12400500D01*
X36004265Y12400500D01*
X36001421Y12400500D01*
X35950023Y12416095D01*
X35949581Y12415328D01*
X35753727Y12528405D01*
X35753722Y12528408D01*
X35547782Y12613710D01*
X35452839Y12639150D01*
X35332463Y12671404D01*
X35332460Y12671405D01*
X35332458Y12671405D01*
X35111457Y12700500D01*
X34888543Y12700500D01*
X34888542Y12700500D01*
X34667544Y12671405D01*
X34667539Y12671405D01*
X34452217Y12613710D01*
X34246277Y12528408D01*
X34246273Y12528405D01*
X34050420Y12415328D01*
X34049985Y12416081D01*
X33998596Y12400500D01*
X33995734Y12400500D01*
X33965305Y12397647D01*
X33837114Y12352792D01*
X33727855Y12272155D01*
X33727845Y12272145D01*
X33647208Y12162886D01*
X33602353Y12034695D01*
X33599500Y12004274D01*
X33599500Y12001422D01*
X33583909Y11950022D01*
X33584672Y11949581D01*
X33471595Y11753728D01*
X33471592Y11753723D01*
X33386290Y11547783D01*
X33328595Y11332461D01*
X33328595Y11332456D01*
X33299500Y11111458D01*
X33299500Y3888543D01*
X33328595Y3667545D01*
X33328595Y3667540D01*
X33386290Y3452218D01*
X33471592Y3246278D01*
X33471595Y3246273D01*
X33583050Y3053229D01*
X33583052Y3053226D01*
X33718753Y2876376D01*
X33876376Y2718753D01*
X34053226Y2583052D01*
X34053228Y2583051D01*
X34246272Y2471596D01*
X34246277Y2471593D01*
X34414179Y2402047D01*
X34452219Y2386290D01*
X34667537Y2328596D01*
X34888543Y2299500D01*
X34888544Y2299500D01*
X68611456Y2299500D01*
X68611457Y2299500D01*
X68832463Y2328596D01*
X69047781Y2386290D01*
X69177647Y2440083D01*
X69253722Y2471593D01*
X69253723Y2471595D01*
X69253726Y2471595D01*
X69446774Y2583052D01*
X69623624Y2718753D01*
X69781247Y2876376D01*
X69916948Y3053226D01*
X70028405Y3246274D01*
X70113710Y3452219D01*
X70171404Y3667537D01*
X70200500Y3888543D01*
X70200500Y5121290D01*
X93149500Y5121290D01*
X93149500Y4878711D01*
X93181161Y4638219D01*
X93181161Y4638214D01*
X93243944Y4403908D01*
X93243948Y4403895D01*
X93336772Y4179796D01*
X93336774Y4179792D01*
X93336776Y4179788D01*
X93458064Y3969711D01*
X93458066Y3969708D01*
X93605729Y3777269D01*
X93605731Y3777267D01*
X93605735Y3777262D01*
X93777262Y3605735D01*
X93777266Y3605732D01*
X93777268Y3605730D01*
X93969707Y3458067D01*
X93969711Y3458064D01*
X94179788Y3336776D01*
X94403900Y3243946D01*
X94638211Y3181162D01*
X94878712Y3149500D01*
X94878713Y3149500D01*
X95121287Y3149500D01*
X95121288Y3149500D01*
X95361789Y3181162D01*
X95596100Y3243946D01*
X95820212Y3336776D01*
X96030289Y3458064D01*
X96222738Y3605735D01*
X96394265Y3777262D01*
X96541936Y3969711D01*
X96663224Y4179788D01*
X96756054Y4403900D01*
X96818838Y4638211D01*
X96850500Y4878712D01*
X96850500Y5121288D01*
X96818838Y5361789D01*
X96756054Y5596100D01*
X96663224Y5820212D01*
X96541936Y6030289D01*
X96394265Y6222738D01*
X96222738Y6394265D01*
X96222733Y6394269D01*
X96222731Y6394271D01*
X96030292Y6541934D01*
X96030289Y6541936D01*
X95820212Y6663224D01*
X95820208Y6663226D01*
X95820204Y6663228D01*
X95596105Y6756052D01*
X95596104Y6756053D01*
X95596100Y6756054D01*
X95361789Y6818838D01*
X95361786Y6818839D01*
X95361784Y6818839D01*
X95121289Y6850500D01*
X95121288Y6850500D01*
X94878712Y6850500D01*
X94878710Y6850500D01*
X94638218Y6818839D01*
X94638213Y6818839D01*
X94403907Y6756056D01*
X94403894Y6756052D01*
X94179795Y6663228D01*
X93969707Y6541934D01*
X93777268Y6394271D01*
X93605729Y6222732D01*
X93458066Y6030293D01*
X93336772Y5820205D01*
X93243948Y5596106D01*
X93243944Y5596093D01*
X93181161Y5361787D01*
X93181161Y5361782D01*
X93149500Y5121290D01*
X70200500Y5121290D01*
X70200500Y21452383D01*
X70219407Y21510574D01*
X70268907Y21546538D01*
X70330093Y21546538D01*
X70349002Y21538118D01*
X70356810Y21533610D01*
X70356811Y21533610D01*
X70356814Y21533608D01*
X70484108Y21499500D01*
X70484110Y21499500D01*
X70615890Y21499500D01*
X70615892Y21499500D01*
X70743186Y21533608D01*
X70743188Y21533610D01*
X70743190Y21533610D01*
X70857309Y21599497D01*
X70857309Y21599498D01*
X70857314Y21599500D01*
X70950500Y21692686D01*
X70950825Y21693249D01*
X71016390Y21806810D01*
X71016390Y21806812D01*
X71016392Y21806814D01*
X71050500Y21934108D01*
X71050500Y22065892D01*
X71016392Y22193186D01*
X71016390Y22193189D01*
X71016390Y22193191D01*
X70950503Y22307310D01*
X70950497Y22307317D01*
X70944034Y22313781D01*
X70916259Y22368298D01*
X70916219Y22399006D01*
X70921051Y22430053D01*
X71178026Y24081114D01*
X71205656Y24135702D01*
X71226347Y24151622D01*
X71257314Y24169500D01*
X71350500Y24262686D01*
X71350503Y24262691D01*
X71416390Y24376810D01*
X71416390Y24376812D01*
X71416392Y24376814D01*
X71450500Y24504108D01*
X71450500Y24635892D01*
X71416392Y24763186D01*
X71416390Y24763189D01*
X71416390Y24763191D01*
X71350503Y24877310D01*
X71350501Y24877312D01*
X71350500Y24877314D01*
X71257314Y24970500D01*
X71257311Y24970502D01*
X71257309Y24970504D01*
X71143189Y25036391D01*
X71143191Y25036391D01*
X71093799Y25049625D01*
X71015892Y25070500D01*
X70884108Y25070500D01*
X70806200Y25049625D01*
X70756809Y25036391D01*
X70642690Y24970504D01*
X70549496Y24877310D01*
X70483609Y24763191D01*
X70468585Y24707120D01*
X70449500Y24635892D01*
X70449500Y24504108D01*
X70469590Y24429132D01*
X70483609Y24376810D01*
X70549496Y24262691D01*
X70549502Y24262684D01*
X70555964Y24256221D01*
X70583739Y24201704D01*
X70583779Y24170996D01*
X70397322Y22973006D01*
X70369691Y22918415D01*
X70315249Y22890492D01*
X70254791Y22899901D01*
X70211411Y22943050D01*
X70200500Y22988231D01*
X70200500Y25179629D01*
X70219407Y25237820D01*
X70268907Y25273784D01*
X70280177Y25276725D01*
X70404328Y25301420D01*
X70531811Y25354225D01*
X70646542Y25430886D01*
X70744114Y25528458D01*
X70820775Y25643189D01*
X70873580Y25770672D01*
X70900500Y25906007D01*
X70900500Y26043993D01*
X70873580Y26179328D01*
X70832553Y26278377D01*
X70820777Y26306807D01*
X70820771Y26306818D01*
X70744114Y26421542D01*
X70646541Y26519115D01*
X70531817Y26595772D01*
X70531806Y26595778D01*
X70404329Y26648580D01*
X70280185Y26673274D01*
X70226802Y26703171D01*
X70201186Y26758736D01*
X70200500Y26770372D01*
X70200500Y26823516D01*
X70219407Y26881707D01*
X70268907Y26917671D01*
X70330093Y26917671D01*
X70348995Y26909255D01*
X70410878Y26873527D01*
X70468215Y26840423D01*
X70620943Y26799499D01*
X70620945Y26799499D01*
X70779055Y26799499D01*
X70779057Y26799499D01*
X70931785Y26840423D01*
X70931787Y26840425D01*
X70931789Y26840425D01*
X70965069Y26859640D01*
X70989122Y26873527D01*
X71068716Y26919480D01*
X71180520Y27031284D01*
X71180520Y27031286D01*
X71188670Y27039435D01*
X71188671Y27039438D01*
X71836940Y27687704D01*
X71891456Y27715481D01*
X71906943Y27716700D01*
X78590145Y27716700D01*
X78648336Y27697793D01*
X78684300Y27648293D01*
X78684300Y27587107D01*
X78675884Y27568206D01*
X78640423Y27506784D01*
X78599500Y27354057D01*
X78599500Y27195943D01*
X78640423Y27043216D01*
X78719480Y26906284D01*
X78831284Y26794480D01*
X78896341Y26756920D01*
X78937281Y26711451D01*
X78943677Y26650601D01*
X78916844Y26601181D01*
X78810882Y26495219D01*
X78810880Y26495217D01*
X78810880Y26495216D01*
X78731823Y26358284D01*
X78690900Y26205557D01*
X78690900Y26047443D01*
X78731823Y25894716D01*
X78810880Y25757784D01*
X78922684Y25645980D01*
X79059616Y25566923D01*
X79212343Y25526000D01*
X79212345Y25526000D01*
X79370456Y25526000D01*
X79370457Y25526000D01*
X79370457Y25526001D01*
X79376052Y25526737D01*
X79436214Y25515591D01*
X79458984Y25498589D01*
X79579673Y25377900D01*
X79607450Y25323383D01*
X79597879Y25262951D01*
X79554614Y25219686D01*
X79494182Y25210115D01*
X79484054Y25212268D01*
X79333157Y25252700D01*
X79175043Y25252700D01*
X79022316Y25211777D01*
X78885384Y25132720D01*
X78773580Y25020916D01*
X78694523Y24883984D01*
X78655740Y24739241D01*
X78653600Y24731256D01*
X78653600Y24573140D01*
X78654337Y24567540D01*
X78643186Y24507379D01*
X78626188Y24484617D01*
X78502635Y24361063D01*
X78502631Y24361058D01*
X78459783Y24286843D01*
X78459781Y24286839D01*
X78451111Y24254484D01*
X78451112Y24254483D01*
X78437600Y24204053D01*
X78437600Y22823000D01*
X78418693Y22764809D01*
X78369193Y22728845D01*
X78338600Y22724000D01*
X76762653Y22724000D01*
X76676947Y22724000D01*
X76594161Y22701818D01*
X76594160Y22701818D01*
X76594158Y22701817D01*
X76565357Y22685188D01*
X76519936Y22658965D01*
X76459334Y22598363D01*
X76459335Y22598362D01*
X76459333Y22598360D01*
X76459332Y22598360D01*
X75744682Y21883712D01*
X75690166Y21855935D01*
X75661758Y21855563D01*
X75656159Y21856300D01*
X75656157Y21856300D01*
X75498043Y21856300D01*
X75345316Y21815377D01*
X75208384Y21736320D01*
X75096580Y21624516D01*
X75017523Y21487584D01*
X74976600Y21334857D01*
X74976600Y21176743D01*
X75017523Y21024016D01*
X75096580Y20887084D01*
X75208384Y20775280D01*
X75345316Y20696223D01*
X75389458Y20684396D01*
X75440771Y20651072D01*
X75462698Y20593950D01*
X75446862Y20534850D01*
X75433838Y20518765D01*
X74832431Y19917358D01*
X74789583Y19843143D01*
X74789582Y19843141D01*
X74782020Y19814922D01*
X74782021Y19814921D01*
X74782021Y19814920D01*
X74767400Y19760353D01*
X74767400Y19069053D01*
X74767400Y18983347D01*
X74779373Y18938664D01*
X74789583Y18900557D01*
X74832431Y18826343D01*
X74832432Y18826342D01*
X74832433Y18826341D01*
X74832435Y18826338D01*
X75510873Y18147900D01*
X76036234Y17622539D01*
X76036235Y17622538D01*
X76036234Y17622538D01*
X76096835Y17561938D01*
X76096838Y17561935D01*
X76171062Y17519082D01*
X76253847Y17496900D01*
X80703911Y17496900D01*
X80762102Y17477993D01*
X80798066Y17428493D01*
X80798066Y17367307D01*
X80789650Y17348405D01*
X80774223Y17321684D01*
X80733300Y17168957D01*
X80733300Y17010843D01*
X80774223Y16858116D01*
X80853280Y16721184D01*
X80965084Y16609380D01*
X81102016Y16530323D01*
X81254743Y16489400D01*
X81254745Y16489400D01*
X81412855Y16489400D01*
X81412857Y16489400D01*
X81565584Y16530323D01*
X81702516Y16609380D01*
X81814320Y16721184D01*
X81814323Y16721189D01*
X81817760Y16725667D01*
X81868184Y16760323D01*
X81896302Y16764400D01*
X88297351Y16764400D01*
X88297353Y16764400D01*
X88380139Y16786582D01*
X88380141Y16786584D01*
X88380143Y16786584D01*
X88454357Y16829432D01*
X88454357Y16829433D01*
X88454362Y16829435D01*
X90272165Y18647238D01*
X90315018Y18721461D01*
X90337200Y18804247D01*
X90337200Y18889953D01*
X90337200Y46270753D01*
X90315018Y46353538D01*
X90272165Y46427762D01*
X90272162Y46427765D01*
X90211562Y46488366D01*
X90211562Y46488365D01*
X79154911Y57545016D01*
X79127134Y57599533D01*
X79126763Y57627948D01*
X79127500Y57633544D01*
X79127500Y57791656D01*
X79123496Y57806600D01*
X79086577Y57944384D01*
X79007520Y58081316D01*
X78895716Y58193120D01*
X78758784Y58272177D01*
X78606057Y58313100D01*
X78447943Y58313100D01*
X78295216Y58272177D01*
X78158284Y58193120D01*
X78046480Y58081316D01*
X77967423Y57944384D01*
X77926500Y57791657D01*
X77926500Y57633543D01*
X77967423Y57480816D01*
X78046480Y57343884D01*
X78158284Y57232080D01*
X78295216Y57153023D01*
X78447943Y57112100D01*
X78447945Y57112100D01*
X78606056Y57112100D01*
X78606057Y57112100D01*
X78606057Y57112101D01*
X78611652Y57112837D01*
X78671814Y57101691D01*
X78694584Y57084689D01*
X89657204Y46122069D01*
X89684981Y46067552D01*
X89686200Y46052065D01*
X89686200Y44788635D01*
X89667293Y44730444D01*
X89617793Y44694480D01*
X89556607Y44694480D01*
X89517196Y44718631D01*
X82835994Y51399833D01*
X76142462Y58093365D01*
X76142459Y58093367D01*
X76142458Y58093368D01*
X76142457Y58093369D01*
X76068242Y58136217D01*
X76068244Y58136217D01*
X76036121Y58144824D01*
X75985453Y58158400D01*
X75985451Y58158400D01*
X75610102Y58158400D01*
X75551911Y58177307D01*
X75531560Y58197133D01*
X75528123Y58201612D01*
X75528121Y58201614D01*
X75528120Y58201616D01*
X75416316Y58313420D01*
X75279384Y58392477D01*
X75126657Y58433400D01*
X74968543Y58433400D01*
X74815816Y58392477D01*
X74678884Y58313420D01*
X74567080Y58201616D01*
X74488023Y58064684D01*
X74447100Y57911957D01*
X74447100Y57753843D01*
X74451113Y57738868D01*
X74452222Y57734729D01*
X74449019Y57673627D01*
X74410514Y57626077D01*
X74351413Y57610242D01*
X74294292Y57632169D01*
X74286591Y57639102D01*
X73354096Y58571597D01*
X73326319Y58626114D01*
X73325100Y58641601D01*
X73325100Y59399157D01*
X73344007Y59457348D01*
X73354090Y59469155D01*
X73405120Y59520184D01*
X73484177Y59657116D01*
X73521712Y59797200D01*
X73555034Y59848510D01*
X73612155Y59870437D01*
X73658067Y59861806D01*
X73662451Y59859827D01*
X73681838Y59856657D01*
X73691468Y59854584D01*
X73701066Y59852012D01*
X73710437Y59849500D01*
X73710438Y59849500D01*
X73717544Y59849500D01*
X73733523Y59848202D01*
X73734395Y59848060D01*
X73740536Y59847055D01*
X73758573Y59848859D01*
X73760077Y59849009D01*
X73769926Y59849500D01*
X77589563Y59849500D01*
X77589563Y59849501D01*
X77665989Y59869979D01*
X77734511Y59909540D01*
X77790460Y59965489D01*
X77790460Y59965490D01*
X79095473Y61270505D01*
X79149990Y61298281D01*
X79165477Y61299500D01*
X79265889Y61299500D01*
X79265891Y61299500D01*
X79393185Y61333608D01*
X79393187Y61333610D01*
X79393189Y61333610D01*
X79507308Y61399497D01*
X79507308Y61399498D01*
X79507313Y61399500D01*
X79580751Y61472939D01*
X79635265Y61500715D01*
X79695697Y61491144D01*
X79738181Y61449380D01*
X80163372Y60649020D01*
X80167089Y60639597D01*
X80167576Y60639798D01*
X80170064Y60633804D01*
X80186265Y60605791D01*
X80187993Y60602675D01*
X80203184Y60574079D01*
X80206346Y60569644D01*
X80209676Y60565311D01*
X80232582Y60542439D01*
X80235060Y60539874D01*
X80257127Y60516193D01*
X80262134Y60512062D01*
X80261795Y60511652D01*
X80269724Y60505352D01*
X81227702Y59548781D01*
X83807781Y56972492D01*
X83823565Y56951938D01*
X83859658Y56889425D01*
X83865135Y56879938D01*
X83925738Y56819335D01*
X83999962Y56776482D01*
X84082747Y56754300D01*
X84082749Y56754300D01*
X88365451Y56754300D01*
X88365453Y56754300D01*
X88448239Y56776482D01*
X88448241Y56776484D01*
X88448243Y56776484D01*
X88522457Y56819332D01*
X88522457Y56819333D01*
X88522462Y56819335D01*
X88902065Y57198938D01*
X88921200Y57232081D01*
X88944916Y57273157D01*
X88944916Y57273159D01*
X88944918Y57273161D01*
X88967100Y57355947D01*
X88967100Y57441653D01*
X88967100Y64236753D01*
X88957363Y64273093D01*
X88944918Y64319539D01*
X88944915Y64319545D01*
X88902068Y64393758D01*
X88902066Y64393760D01*
X88902065Y64393762D01*
X83944862Y69350965D01*
X83944859Y69350967D01*
X83944857Y69350969D01*
X83870642Y69393817D01*
X83870644Y69393817D01*
X83838521Y69402424D01*
X83787853Y69416000D01*
X83787851Y69416000D01*
X81195103Y69416000D01*
X81136912Y69434907D01*
X81100948Y69484407D01*
X81100948Y69545593D01*
X81109367Y69564500D01*
X81113984Y69572497D01*
X81147077Y69629816D01*
X81188000Y69782543D01*
X81188000Y69940657D01*
X81147077Y70093384D01*
X81068020Y70230316D01*
X80956216Y70342120D01*
X80819284Y70421177D01*
X80666557Y70462100D01*
X80666555Y70462100D01*
X80594400Y70462100D01*
X80536209Y70481007D01*
X80524396Y70491096D01*
X74078751Y76936742D01*
X74015236Y77000257D01*
X77128900Y77000257D01*
X77128900Y76842143D01*
X77169823Y76689416D01*
X77248880Y76552484D01*
X77360684Y76440680D01*
X77497616Y76361623D01*
X77650343Y76320700D01*
X77650345Y76320700D01*
X77808455Y76320700D01*
X77808457Y76320700D01*
X77961184Y76361623D01*
X78098116Y76440680D01*
X78209920Y76552484D01*
X78288977Y76689416D01*
X78329900Y76842143D01*
X78329900Y77000257D01*
X78288977Y77152984D01*
X78209920Y77289916D01*
X78098116Y77401720D01*
X78098113Y77401722D01*
X78098112Y77401723D01*
X78093628Y77405164D01*
X78058975Y77455591D01*
X78054900Y77483703D01*
X78054900Y79033766D01*
X78073807Y79091957D01*
X78083896Y79103770D01*
X78217930Y79237804D01*
X78272447Y79265581D01*
X78287934Y79266800D01*
X78778665Y79266800D01*
X78836856Y79247893D01*
X78848668Y79237804D01*
X79088837Y78997636D01*
X79088842Y78997632D01*
X79163057Y78954784D01*
X79163055Y78954784D01*
X79163059Y78954783D01*
X79163061Y78954782D01*
X79245847Y78932600D01*
X82965698Y78932600D01*
X83023889Y78913693D01*
X83044240Y78893867D01*
X83047676Y78889389D01*
X83047678Y78889387D01*
X83047680Y78889384D01*
X83159484Y78777580D01*
X83296416Y78698523D01*
X83449143Y78657600D01*
X83449145Y78657600D01*
X83607255Y78657600D01*
X83607257Y78657600D01*
X83759984Y78698523D01*
X83896916Y78777580D01*
X84008720Y78889384D01*
X84087777Y79026316D01*
X84106196Y79095060D01*
X84139518Y79146372D01*
X84196640Y79168299D01*
X84255740Y79152464D01*
X84271826Y79139439D01*
X84645043Y78766222D01*
X84672820Y78711705D01*
X84663249Y78651273D01*
X84633835Y78616568D01*
X84627848Y78612149D01*
X84627847Y78612148D01*
X84547207Y78502885D01*
X84502355Y78374705D01*
X84502353Y78374696D01*
X84499500Y78344276D01*
X84499500Y76655733D01*
X84502353Y76625304D01*
X84502353Y76625302D01*
X84502354Y76625300D01*
X84524404Y76562284D01*
X84547208Y76497114D01*
X84627845Y76387855D01*
X84627854Y76387846D01*
X84737115Y76307208D01*
X84737116Y76307208D01*
X84737117Y76307207D01*
X84865300Y76262354D01*
X84895733Y76259500D01*
X88104266Y76259501D01*
X88104267Y76259501D01*
X88110352Y76260072D01*
X88134700Y76262354D01*
X88262883Y76307207D01*
X88262886Y76307209D01*
X88372145Y76387846D01*
X88372146Y76387848D01*
X88372150Y76387850D01*
X88452793Y76497117D01*
X88497646Y76625300D01*
X88500500Y76655733D01*
X88500499Y78344266D01*
X88497646Y78374700D01*
X88452793Y78502883D01*
X88452791Y78502885D01*
X88452791Y78502887D01*
X88372154Y78612146D01*
X88372145Y78612155D01*
X88262884Y78692793D01*
X88134704Y78737645D01*
X88134695Y78737647D01*
X88104275Y78740500D01*
X88104267Y78740500D01*
X86410243Y78740500D01*
X86352052Y78759407D01*
X86340239Y78769496D01*
X82432102Y82677633D01*
X84499500Y82677633D01*
X84499500Y82482368D01*
X84530044Y82289519D01*
X84590382Y82103815D01*
X84672840Y81941981D01*
X84679029Y81929836D01*
X84793799Y81771868D01*
X84931868Y81633799D01*
X85089836Y81519029D01*
X85263813Y81430383D01*
X85449516Y81370045D01*
X85526658Y81357827D01*
X85642368Y81339500D01*
X85642371Y81339500D01*
X87357632Y81339500D01*
X87454056Y81354773D01*
X87550484Y81370045D01*
X87736187Y81430383D01*
X87910164Y81519029D01*
X88068132Y81633799D01*
X88206201Y81771868D01*
X88320971Y81929836D01*
X88409617Y82103813D01*
X88469955Y82289516D01*
X88487566Y82400709D01*
X88500500Y82482368D01*
X88500500Y82677633D01*
X88472940Y82851639D01*
X88469955Y82870484D01*
X88409617Y83056187D01*
X88320971Y83230164D01*
X88206201Y83388132D01*
X88068132Y83526201D01*
X87910164Y83640971D01*
X87910163Y83640972D01*
X87910161Y83640973D01*
X87736185Y83729618D01*
X87550481Y83789956D01*
X87357632Y83820500D01*
X87357629Y83820500D01*
X85642371Y83820500D01*
X85642368Y83820500D01*
X85449518Y83789956D01*
X85263814Y83729618D01*
X85089838Y83640973D01*
X85011091Y83583760D01*
X84931868Y83526201D01*
X84793799Y83388132D01*
X84775733Y83363266D01*
X84679027Y83230162D01*
X84590382Y83056186D01*
X84530044Y82870482D01*
X84499500Y82677633D01*
X82432102Y82677633D01*
X80466021Y84643714D01*
X80466020Y84643716D01*
X80354216Y84755520D01*
X80347028Y84759670D01*
X80253364Y84813747D01*
X80253361Y84813748D01*
X80217287Y84834576D01*
X80217286Y84834577D01*
X80217285Y84834577D01*
X80064557Y84875501D01*
X79906443Y84875501D01*
X79900380Y84875501D01*
X79900364Y84875500D01*
X79120943Y84875500D01*
X78968216Y84834577D01*
X78831284Y84755520D01*
X78719480Y84643716D01*
X78640423Y84506784D01*
X78599500Y84354057D01*
X78599500Y84195943D01*
X78640423Y84043216D01*
X78719480Y83906284D01*
X78831284Y83794480D01*
X78968216Y83715423D01*
X79120943Y83674500D01*
X79695757Y83674500D01*
X79753948Y83655593D01*
X79765761Y83645504D01*
X83409538Y80001727D01*
X83437315Y79947210D01*
X83427744Y79886778D01*
X83384479Y79843513D01*
X83365160Y79836098D01*
X83327269Y79825945D01*
X83296415Y79817677D01*
X83159484Y79738620D01*
X83047676Y79626812D01*
X83044240Y79622333D01*
X82993816Y79587677D01*
X82965698Y79583600D01*
X79464535Y79583600D01*
X79406344Y79602507D01*
X79394532Y79612596D01*
X79154362Y79852765D01*
X79154357Y79852769D01*
X79080142Y79895617D01*
X79080144Y79895617D01*
X79029516Y79909182D01*
X78997353Y79917800D01*
X78997351Y79917800D01*
X78161032Y79917800D01*
X78161016Y79917801D01*
X78154953Y79917801D01*
X78069248Y79917801D01*
X78069245Y79917801D01*
X77986465Y79895620D01*
X77912235Y79852763D01*
X77851634Y79792163D01*
X77851635Y79792162D01*
X77851633Y79792160D01*
X77851632Y79792161D01*
X77468935Y79409463D01*
X77468931Y79409458D01*
X77426083Y79335243D01*
X77426081Y79335239D01*
X77418191Y79305795D01*
X77418192Y79305794D01*
X77403900Y79252453D01*
X77403900Y77483703D01*
X77384993Y77425512D01*
X77365172Y77405164D01*
X77360687Y77401723D01*
X77360684Y77401720D01*
X77248880Y77289916D01*
X77169823Y77152984D01*
X77128900Y77000257D01*
X74015236Y77000257D01*
X74003096Y77012397D01*
X73975319Y77066914D01*
X73974100Y77082401D01*
X73974100Y78380457D01*
X73993007Y78438648D01*
X74003090Y78450455D01*
X74054120Y78501484D01*
X74133177Y78638416D01*
X74174100Y78791143D01*
X74174100Y78949257D01*
X74133177Y79101984D01*
X74054120Y79238916D01*
X74029709Y79263327D01*
X74003096Y79289941D01*
X73975319Y79344458D01*
X73974100Y79359944D01*
X73974100Y84284599D01*
X73993007Y84342790D01*
X74003096Y84354603D01*
X75630597Y85982104D01*
X75685114Y86009881D01*
X75700601Y86011100D01*
X75772755Y86011100D01*
X75772757Y86011100D01*
X75925484Y86052023D01*
X76062416Y86131080D01*
X76080198Y86148863D01*
X76134713Y86176638D01*
X76195145Y86167067D01*
X76238410Y86123802D01*
X76249200Y86078857D01*
X76249200Y84464388D01*
X76249172Y84462051D01*
X76248279Y84424240D01*
X76248630Y84420987D01*
X76248647Y84420665D01*
X76248713Y84420111D01*
X76248773Y84419792D01*
X76249200Y84416546D01*
X76259000Y84379971D01*
X76259577Y84377709D01*
X76268503Y84340946D01*
X76269692Y84337873D01*
X76269787Y84337584D01*
X76269986Y84337086D01*
X76270124Y84336798D01*
X76271382Y84333761D01*
X76290300Y84300993D01*
X76291442Y84298961D01*
X76309592Y84265739D01*
X76311524Y84263095D01*
X76311703Y84262819D01*
X76312033Y84262379D01*
X76312236Y84262142D01*
X76314232Y84259541D01*
X76341034Y84232738D01*
X76342664Y84231069D01*
X78822135Y81631792D01*
X78848619Y81576637D01*
X78849500Y81563460D01*
X78849500Y81484108D01*
X78867512Y81416885D01*
X78883609Y81356810D01*
X78949496Y81242691D01*
X78949498Y81242689D01*
X78949500Y81242686D01*
X79042686Y81149500D01*
X79042688Y81149499D01*
X79042690Y81149497D01*
X79156810Y81083610D01*
X79156808Y81083610D01*
X79156812Y81083609D01*
X79156814Y81083608D01*
X79284108Y81049500D01*
X79284110Y81049500D01*
X79415890Y81049500D01*
X79415892Y81049500D01*
X79543186Y81083608D01*
X79543188Y81083610D01*
X79543190Y81083610D01*
X79657309Y81149497D01*
X79657309Y81149498D01*
X79657314Y81149500D01*
X79750500Y81242686D01*
X79787522Y81306810D01*
X79816390Y81356810D01*
X79816390Y81356812D01*
X79816392Y81356814D01*
X79850500Y81484108D01*
X79850500Y81615892D01*
X79825691Y81708481D01*
X79828894Y81769581D01*
X79867399Y81817130D01*
X79926499Y81832966D01*
X79983463Y81811166D01*
X80062648Y81747308D01*
X80096075Y81696062D01*
X80099500Y81670246D01*
X80099500Y81634108D01*
X80117778Y81565892D01*
X80133609Y81506810D01*
X80199496Y81392691D01*
X80199498Y81392689D01*
X80199500Y81392686D01*
X80292686Y81299500D01*
X80292688Y81299499D01*
X80292690Y81299497D01*
X80406810Y81233610D01*
X80406808Y81233610D01*
X80406812Y81233609D01*
X80406814Y81233608D01*
X80534108Y81199500D01*
X80534110Y81199500D01*
X80665890Y81199500D01*
X80665892Y81199500D01*
X80793186Y81233608D01*
X80793188Y81233610D01*
X80793190Y81233610D01*
X80907309Y81299497D01*
X80907309Y81299498D01*
X80907314Y81299500D01*
X81000500Y81392686D01*
X81021928Y81429800D01*
X81066390Y81506810D01*
X81066390Y81506812D01*
X81066392Y81506814D01*
X81100500Y81634108D01*
X81100500Y81765892D01*
X81066392Y81893186D01*
X81066390Y81893189D01*
X81066390Y81893191D01*
X81000503Y82007310D01*
X81000501Y82007312D01*
X81000500Y82007314D01*
X80907314Y82100500D01*
X80907311Y82100502D01*
X80907309Y82100504D01*
X80793189Y82166391D01*
X80793191Y82166391D01*
X80743799Y82179625D01*
X80665892Y82200500D01*
X80534108Y82200500D01*
X80534106Y82200500D01*
X80525630Y82198229D01*
X80464529Y82201436D01*
X80437868Y82216795D01*
X79587353Y82902694D01*
X79553925Y82953941D01*
X79550500Y82979757D01*
X79550500Y83015891D01*
X79549903Y83018120D01*
X79516392Y83143186D01*
X79516390Y83143190D01*
X79516390Y83143191D01*
X79450503Y83257310D01*
X79450501Y83257312D01*
X79450500Y83257314D01*
X79357314Y83350500D01*
X79357311Y83350502D01*
X79357309Y83350504D01*
X79243189Y83416391D01*
X79243191Y83416391D01*
X79193799Y83429625D01*
X79115892Y83450500D01*
X78984108Y83450500D01*
X78906200Y83429625D01*
X78856809Y83416391D01*
X78742690Y83350504D01*
X78649496Y83257310D01*
X78583609Y83143190D01*
X78583607Y83143186D01*
X78562661Y83065014D01*
X78529337Y83013700D01*
X78472216Y82991774D01*
X78413115Y83007610D01*
X78395400Y83022305D01*
X78369458Y83049500D01*
X77275856Y84195945D01*
X76927565Y84561065D01*
X76901081Y84616221D01*
X76900200Y84629398D01*
X76900200Y86832850D01*
X76900200Y86832853D01*
X76895472Y86850500D01*
X76878018Y86915639D01*
X76856055Y86953680D01*
X76835165Y86989862D01*
X76774562Y87050465D01*
X76774559Y87050467D01*
X76191962Y87633065D01*
X76191959Y87633067D01*
X76191957Y87633069D01*
X76117742Y87675917D01*
X76117744Y87675917D01*
X76085621Y87684524D01*
X76034953Y87698100D01*
X75327547Y87698100D01*
X75244762Y87675918D01*
X75170538Y87633065D01*
X72414734Y84877261D01*
X72371880Y84803036D01*
X72360262Y84759672D01*
X72360262Y84759671D01*
X72349700Y84720253D01*
X72349700Y75227503D01*
X72330793Y75169312D01*
X72310972Y75148964D01*
X72306487Y75145523D01*
X72306484Y75145520D01*
X72194680Y75033716D01*
X72115623Y74896784D01*
X72074700Y74744057D01*
X72074700Y74585943D01*
X72115623Y74433216D01*
X72194680Y74296284D01*
X72306484Y74184480D01*
X72443416Y74105423D01*
X72596143Y74064500D01*
X72596145Y74064500D01*
X72754256Y74064500D01*
X72754257Y74064500D01*
X72754257Y74064501D01*
X72759852Y74065237D01*
X72820014Y74054091D01*
X72842784Y74037089D01*
X75437889Y71441985D01*
X77989233Y68890641D01*
X77989235Y68890638D01*
X78049838Y68830035D01*
X78049840Y68830034D01*
X78119682Y68789710D01*
X78119683Y68789710D01*
X78124058Y68787184D01*
X78124060Y68787183D01*
X78124062Y68787182D01*
X78206848Y68764999D01*
X78206850Y68764999D01*
X78298616Y68764999D01*
X78298632Y68765000D01*
X83569165Y68765000D01*
X83627356Y68746093D01*
X83639169Y68736004D01*
X85290469Y67084704D01*
X85318246Y67030187D01*
X85308675Y66969755D01*
X85265410Y66926490D01*
X85220465Y66915700D01*
X71694257Y66915700D01*
X71536142Y66915700D01*
X71383415Y66874777D01*
X71383414Y66874777D01*
X71383412Y66874776D01*
X71343143Y66851526D01*
X71334631Y66846611D01*
X71246484Y66795720D01*
X71246481Y66795718D01*
X71134679Y66683917D01*
X71134680Y66683916D01*
X70369504Y65918740D01*
X70314987Y65890963D01*
X70254555Y65900534D01*
X70211290Y65943799D01*
X70200500Y65988744D01*
X70200500Y67743836D01*
X70219407Y67802027D01*
X70229490Y67813834D01*
X70494114Y68078457D01*
X70570775Y68193189D01*
X70623580Y68320672D01*
X70650500Y68456006D01*
X70650500Y68593994D01*
X70623580Y68729329D01*
X70599616Y68787184D01*
X70570777Y68856808D01*
X70570771Y68856819D01*
X70494114Y68971543D01*
X70396546Y69069111D01*
X70396543Y69069114D01*
X70325281Y69116730D01*
X70281810Y69145777D01*
X70261612Y69154143D01*
X70215087Y69193881D01*
X70200500Y69245606D01*
X70200500Y77428599D01*
X70219407Y77486790D01*
X70268907Y77522754D01*
X70330093Y77522754D01*
X70348991Y77514340D01*
X70390416Y77490423D01*
X70543143Y77449500D01*
X70543145Y77449500D01*
X70701255Y77449500D01*
X70701257Y77449500D01*
X70853984Y77490423D01*
X70990916Y77569480D01*
X71102720Y77681284D01*
X71181777Y77818216D01*
X71222700Y77970943D01*
X71222700Y78129057D01*
X71181777Y78281784D01*
X71102720Y78418716D01*
X70990916Y78530520D01*
X70990913Y78530522D01*
X70949999Y78554144D01*
X70909059Y78599614D01*
X70900500Y78639880D01*
X70900500Y81051679D01*
X70919407Y81109870D01*
X70929490Y81121677D01*
X71000500Y81192686D01*
X71004434Y81199500D01*
X71066390Y81306810D01*
X71066390Y81306812D01*
X71066392Y81306814D01*
X71100500Y81434108D01*
X71100500Y81565892D01*
X71076562Y81655230D01*
X71079764Y81716327D01*
X71118269Y81763877D01*
X71146564Y81776475D01*
X71173186Y81783608D01*
X71287314Y81849500D01*
X71380500Y81942686D01*
X71380797Y81943200D01*
X71446390Y82056810D01*
X71446390Y82056812D01*
X71446392Y82056814D01*
X71480500Y82184108D01*
X71480500Y82315892D01*
X71446392Y82443186D01*
X71446390Y82443189D01*
X71446390Y82443191D01*
X71380503Y82557310D01*
X71380501Y82557312D01*
X71380500Y82557314D01*
X71342965Y82594849D01*
X71315190Y82649363D01*
X71314269Y82672520D01*
X71346977Y83093053D01*
X71349666Y83109507D01*
X71351080Y83115136D01*
X71351081Y83115138D01*
X71350754Y83136059D01*
X71351040Y83145278D01*
X71351222Y83147617D01*
X71352663Y83166142D01*
X71351597Y83171862D01*
X71349935Y83188444D01*
X71349791Y83197645D01*
X71307456Y85907078D01*
X71325452Y85965556D01*
X71336435Y85978622D01*
X71400500Y86042686D01*
X71418362Y86073624D01*
X71466390Y86156810D01*
X71466390Y86156812D01*
X71466392Y86156814D01*
X71500500Y86284108D01*
X71500500Y86415892D01*
X71466392Y86543186D01*
X71466390Y86543189D01*
X71466390Y86543191D01*
X71400503Y86657310D01*
X71400501Y86657312D01*
X71400500Y86657314D01*
X71307314Y86750500D01*
X71307311Y86750502D01*
X71307309Y86750504D01*
X71193189Y86816391D01*
X71193191Y86816391D01*
X71131748Y86832854D01*
X71065892Y86850500D01*
X70934108Y86850500D01*
X70868252Y86832854D01*
X70806809Y86816391D01*
X70692690Y86750504D01*
X70599496Y86657310D01*
X70533609Y86543191D01*
X70520881Y86495689D01*
X70499500Y86415892D01*
X70499500Y86284108D01*
X70524503Y86190796D01*
X70533609Y86156810D01*
X70599496Y86042691D01*
X70599498Y86042689D01*
X70599500Y86042686D01*
X70677571Y85964615D01*
X70705347Y85910100D01*
X70706554Y85896160D01*
X70741772Y83642239D01*
X70723776Y83583760D01*
X70674844Y83547027D01*
X70613666Y83546071D01*
X70587782Y83558377D01*
X70531818Y83595772D01*
X70531806Y83595778D01*
X70404329Y83648580D01*
X70280185Y83673274D01*
X70226802Y83703171D01*
X70201186Y83758736D01*
X70200500Y83770372D01*
X70200500Y85611456D01*
X70200500Y85611457D01*
X70171404Y85832463D01*
X70113710Y86047781D01*
X70075670Y86139618D01*
X70028407Y86253723D01*
X70028404Y86253728D01*
X69957011Y86377384D01*
X69944289Y86437232D01*
X69969176Y86493128D01*
X69972744Y86496888D01*
X70212841Y86736984D01*
X70494114Y87018257D01*
X70570775Y87132989D01*
X70623580Y87260472D01*
X70650500Y87395806D01*
X70650500Y87533794D01*
X70623580Y87669129D01*
X70570775Y87796612D01*
X70570774Y87796614D01*
X70570771Y87796619D01*
X70494114Y87911343D01*
X70396542Y88008915D01*
X70281818Y88085572D01*
X70281807Y88085578D01*
X70154329Y88138380D01*
X70018996Y88165300D01*
X70018994Y88165300D01*
X69881006Y88165300D01*
X69881003Y88165300D01*
X69745672Y88138380D01*
X69745670Y88138380D01*
X69618191Y88085577D01*
X69503457Y88008915D01*
X68719838Y87225298D01*
X68665322Y87197521D01*
X68636914Y87197149D01*
X68611460Y87200500D01*
X68611457Y87200500D01*
X68388543Y87200500D01*
X68388542Y87200500D01*
X68167544Y87171405D01*
X68167539Y87171405D01*
X67952217Y87113710D01*
X67746277Y87028408D01*
X67746272Y87028405D01*
X67553228Y86916950D01*
X67376379Y86781250D01*
X67218750Y86623621D01*
X67083050Y86446772D01*
X66969974Y86250919D01*
X66968645Y86251686D01*
X66929896Y86211894D01*
X66883785Y86200500D01*
X56331165Y86200500D01*
X56272974Y86219407D01*
X56261161Y86229496D01*
X51910400Y90580257D01*
X47369367Y95121290D01*
X93149500Y95121290D01*
X93149500Y94878711D01*
X93181161Y94638219D01*
X93181161Y94638214D01*
X93243944Y94403908D01*
X93243948Y94403895D01*
X93336772Y94179796D01*
X93336774Y94179792D01*
X93336776Y94179788D01*
X93403326Y94064520D01*
X93458066Y93969708D01*
X93605729Y93777269D01*
X93605731Y93777267D01*
X93605735Y93777262D01*
X93777262Y93605735D01*
X93777266Y93605732D01*
X93777268Y93605730D01*
X93908614Y93504945D01*
X93969711Y93458064D01*
X94179788Y93336776D01*
X94403900Y93243946D01*
X94638211Y93181162D01*
X94878712Y93149500D01*
X94878713Y93149500D01*
X95121287Y93149500D01*
X95121288Y93149500D01*
X95361789Y93181162D01*
X95596100Y93243946D01*
X95820212Y93336776D01*
X96030289Y93458064D01*
X96222738Y93605735D01*
X96394265Y93777262D01*
X96541936Y93969711D01*
X96663224Y94179788D01*
X96756054Y94403900D01*
X96818838Y94638211D01*
X96850500Y94878712D01*
X96850500Y95121288D01*
X96818838Y95361789D01*
X96756054Y95596100D01*
X96663224Y95820212D01*
X96541936Y96030289D01*
X96394265Y96222738D01*
X96222738Y96394265D01*
X96222733Y96394269D01*
X96222731Y96394271D01*
X96030292Y96541934D01*
X96030289Y96541936D01*
X95820212Y96663224D01*
X95820208Y96663226D01*
X95820204Y96663228D01*
X95596105Y96756052D01*
X95596104Y96756053D01*
X95596100Y96756054D01*
X95361789Y96818838D01*
X95361786Y96818839D01*
X95361784Y96818839D01*
X95121289Y96850500D01*
X95121288Y96850500D01*
X94878712Y96850500D01*
X94878710Y96850500D01*
X94638218Y96818839D01*
X94638213Y96818839D01*
X94403907Y96756056D01*
X94403894Y96756052D01*
X94179795Y96663228D01*
X93969707Y96541934D01*
X93777268Y96394271D01*
X93605729Y96222732D01*
X93458066Y96030293D01*
X93336772Y95820205D01*
X93243948Y95596106D01*
X93243944Y95596093D01*
X93181161Y95361787D01*
X93181161Y95361782D01*
X93149500Y95121290D01*
X47369367Y95121290D01*
X46946543Y95544114D01*
X46868750Y95596093D01*
X46831808Y95620777D01*
X46704328Y95673580D01*
X46568996Y95700500D01*
X46568994Y95700500D01*
X46568993Y95700500D01*
X36272613Y95700500D01*
X36214422Y95719407D01*
X36192522Y95741307D01*
X36068242Y95912365D01*
X35912365Y96068242D01*
X35734022Y96197815D01*
X35734021Y96197816D01*
X35734019Y96197817D01*
X35644825Y96243264D01*
X35537606Y96297895D01*
X35537602Y96297896D01*
X35537599Y96297898D01*
X35327948Y96366016D01*
X35110225Y96400500D01*
X35110222Y96400500D01*
X34889778Y96400500D01*
X34889775Y96400500D01*
X34672051Y96366016D01*
X34462400Y96297898D01*
X34265980Y96197817D01*
X34176806Y96133029D01*
X34087635Y96068242D01*
X33931758Y95912365D01*
X33866971Y95823194D01*
X33802183Y95734020D01*
X33702102Y95537600D01*
X33633984Y95327949D01*
X33599500Y95110226D01*
X33599500Y94889775D01*
X33633984Y94672052D01*
X33702102Y94462401D01*
X33702104Y94462398D01*
X33702105Y94462394D01*
X33731912Y94403895D01*
X33799878Y94270504D01*
X33802185Y94265978D01*
X33931758Y94087635D01*
X34087635Y93931758D01*
X34265978Y93802185D01*
X34462394Y93702105D01*
X34672049Y93633985D01*
X34759140Y93620191D01*
X34889775Y93599500D01*
X34889778Y93599500D01*
X35110225Y93599500D01*
X35219086Y93616743D01*
X35327951Y93633985D01*
X35537606Y93702105D01*
X35734022Y93802185D01*
X35912365Y93931758D01*
X36068242Y94087635D01*
X36192521Y94258693D01*
X36242020Y94294655D01*
X36272613Y94299500D01*
X46168835Y94299500D01*
X46227026Y94280593D01*
X46238839Y94270504D01*
X55270504Y85238839D01*
X55298281Y85184322D01*
X55299500Y85168835D01*
X55299500Y83299500D01*
X55280593Y83241309D01*
X55231093Y83205345D01*
X55200500Y83200500D01*
X55195725Y83200500D01*
X55165305Y83197647D01*
X55165296Y83197645D01*
X55037116Y83152793D01*
X54927855Y83072155D01*
X54927845Y83072145D01*
X54847207Y82962884D01*
X54802355Y82834704D01*
X54802353Y82834695D01*
X54799500Y82804275D01*
X54799500Y81195726D01*
X54802353Y81165306D01*
X54802355Y81165297D01*
X54847207Y81037117D01*
X54927845Y80927856D01*
X54927847Y80927854D01*
X54927850Y80927850D01*
X54927853Y80927848D01*
X54927855Y80927846D01*
X55037116Y80847208D01*
X55037117Y80847208D01*
X55037118Y80847207D01*
X55165301Y80802354D01*
X55195725Y80799501D01*
X55195727Y80799500D01*
X55195734Y80799500D01*
X56804273Y80799500D01*
X56804273Y80799501D01*
X56834699Y80802354D01*
X56962882Y80847207D01*
X57072150Y80927850D01*
X57152793Y81037118D01*
X57197646Y81165301D01*
X57200499Y81195727D01*
X57200500Y81195727D01*
X57200500Y82804273D01*
X57200499Y82804275D01*
X57197646Y82834699D01*
X57152793Y82962882D01*
X57149045Y82967960D01*
X57072154Y83072145D01*
X57072152Y83072147D01*
X57072150Y83072150D01*
X57072146Y83072153D01*
X57072144Y83072155D01*
X56962883Y83152793D01*
X56834703Y83197645D01*
X56834694Y83197647D01*
X56804274Y83200500D01*
X56804266Y83200500D01*
X56799500Y83200500D01*
X56741309Y83219407D01*
X56705345Y83268907D01*
X56700500Y83299500D01*
X56700500Y84700500D01*
X56719407Y84758691D01*
X56768907Y84794655D01*
X56799500Y84799500D01*
X66700500Y84799500D01*
X66758691Y84780593D01*
X66794655Y84731093D01*
X66799500Y84700500D01*
X66799500Y67299500D01*
X66780593Y67241309D01*
X66731093Y67205345D01*
X66700500Y67200500D01*
X55931004Y67200500D01*
X55795672Y67173580D01*
X55795670Y67173580D01*
X55668193Y67120778D01*
X55668182Y67120772D01*
X55553458Y67044115D01*
X55455885Y66946542D01*
X55379228Y66831818D01*
X55379222Y66831807D01*
X55326420Y66704330D01*
X55326420Y66704328D01*
X55299500Y66568996D01*
X55299500Y64299500D01*
X55280593Y64241309D01*
X55231093Y64205345D01*
X55200500Y64200500D01*
X55195725Y64200500D01*
X55165305Y64197647D01*
X55165301Y64197646D01*
X55073597Y64165558D01*
X55012427Y64164186D01*
X54962133Y64199030D01*
X54941925Y64256782D01*
X54941900Y64259003D01*
X54941900Y69251767D01*
X54960807Y69309958D01*
X54970890Y69321765D01*
X55981459Y70332334D01*
X55981462Y70332335D01*
X56042065Y70392938D01*
X56084918Y70467162D01*
X56085050Y70467653D01*
X56107101Y70549947D01*
X56107101Y70635653D01*
X56107101Y70641715D01*
X56107100Y70641733D01*
X56107100Y76629398D01*
X56126007Y76687589D01*
X56145833Y76707940D01*
X56150311Y76711377D01*
X56150311Y76711378D01*
X56150316Y76711380D01*
X56262120Y76823184D01*
X56341177Y76960116D01*
X56382100Y77112843D01*
X56382100Y77270957D01*
X56341177Y77423684D01*
X56262120Y77560616D01*
X56150316Y77672420D01*
X56013384Y77751477D01*
X55860657Y77792400D01*
X55702543Y77792400D01*
X55702541Y77792400D01*
X55696938Y77791662D01*
X55636777Y77802815D01*
X55614015Y77819812D01*
X49592696Y83841131D01*
X49564919Y83895648D01*
X49563700Y83911135D01*
X49563700Y86985854D01*
X49559396Y87001916D01*
X49555524Y87016365D01*
X49552297Y87028408D01*
X49541520Y87068633D01*
X49541519Y87068636D01*
X49541518Y87068637D01*
X49541518Y87068639D01*
X49498665Y87142862D01*
X44163662Y92477865D01*
X44163659Y92477867D01*
X44163657Y92477869D01*
X44089442Y92520717D01*
X44089444Y92520717D01*
X44057321Y92529324D01*
X44006653Y92542900D01*
X30406053Y92542900D01*
X30320347Y92542900D01*
X30269678Y92529324D01*
X30237556Y92520717D01*
X30163342Y92477869D01*
X30163341Y92477868D01*
X21963383Y84277912D01*
X21908866Y84250135D01*
X21880458Y84249763D01*
X21874859Y84250500D01*
X21874857Y84250500D01*
X21716743Y84250500D01*
X21564016Y84209577D01*
X21427084Y84130520D01*
X21315280Y84018716D01*
X21236223Y83881784D01*
X21195300Y83729057D01*
X21195300Y83570943D01*
X21236223Y83418216D01*
X21315280Y83281284D01*
X21427084Y83169480D01*
X21564016Y83090423D01*
X21716743Y83049500D01*
X21716745Y83049500D01*
X21874855Y83049500D01*
X21874857Y83049500D01*
X22027584Y83090423D01*
X22164516Y83169480D01*
X22276320Y83281284D01*
X22355377Y83418216D01*
X22396300Y83570943D01*
X22396300Y83729057D01*
X22396298Y83729062D01*
X22395562Y83734656D01*
X22406710Y83794818D01*
X22423708Y83817583D01*
X30469031Y91862904D01*
X30523548Y91890681D01*
X30539035Y91891900D01*
X31659366Y91891900D01*
X31717557Y91872993D01*
X31753521Y91823493D01*
X31753521Y91762307D01*
X31729370Y91722896D01*
X25305332Y85298859D01*
X25305331Y85298858D01*
X25262483Y85224643D01*
X25255440Y85198363D01*
X25255441Y85198362D01*
X25240300Y85141853D01*
X25240300Y83747484D01*
X25221393Y83689293D01*
X25171893Y83653329D01*
X25110707Y83653329D01*
X25061207Y83689293D01*
X25055564Y83697984D01*
X25026621Y83748114D01*
X25026620Y83748116D01*
X24914816Y83859920D01*
X24777884Y83938977D01*
X24625157Y83979900D01*
X24467043Y83979900D01*
X24314316Y83938977D01*
X24177384Y83859920D01*
X24065580Y83748116D01*
X23986523Y83611184D01*
X23945600Y83458457D01*
X23945600Y83300343D01*
X23986523Y83147616D01*
X24065580Y83010684D01*
X24177384Y82898880D01*
X24314316Y82819823D01*
X24467043Y82778900D01*
X24467045Y82778900D01*
X24625155Y82778900D01*
X24625157Y82778900D01*
X24725172Y82805699D01*
X24786271Y82802496D01*
X24820797Y82780076D01*
X26603988Y80996885D01*
X26631765Y80942368D01*
X26632138Y80913962D01*
X26631400Y80908359D01*
X26631400Y80908357D01*
X26631400Y80750243D01*
X26672323Y80597516D01*
X26751380Y80460584D01*
X26863184Y80348780D01*
X27000116Y80269723D01*
X27152843Y80228800D01*
X27152845Y80228800D01*
X27310955Y80228800D01*
X27310957Y80228800D01*
X27463684Y80269723D01*
X27600616Y80348780D01*
X27712420Y80460584D01*
X27791477Y80597516D01*
X27832400Y80750243D01*
X27832400Y80908357D01*
X27791477Y81061084D01*
X27712420Y81198016D01*
X27600616Y81309820D01*
X27463684Y81388877D01*
X27310957Y81429800D01*
X27152843Y81429800D01*
X27152841Y81429800D01*
X27147238Y81429062D01*
X27087077Y81440215D01*
X27064315Y81457212D01*
X26191937Y82329590D01*
X26164160Y82384107D01*
X26173731Y82444539D01*
X26216996Y82487804D01*
X26236307Y82495217D01*
X26355384Y82527123D01*
X26492316Y82606180D01*
X26604120Y82717984D01*
X26683177Y82854916D01*
X26724100Y83007643D01*
X26724100Y83165757D01*
X26683177Y83318484D01*
X26604120Y83455416D01*
X26503698Y83555838D01*
X26475923Y83610352D01*
X26485494Y83670784D01*
X26528759Y83714049D01*
X26539723Y83718258D01*
X26539689Y83718340D01*
X26545681Y83720822D01*
X26545681Y83720823D01*
X26545684Y83720823D01*
X26682616Y83799880D01*
X26771032Y83888297D01*
X26825546Y83916073D01*
X26885979Y83906502D01*
X26929243Y83863238D01*
X26938815Y83802806D01*
X26936660Y83792669D01*
X26898100Y83648757D01*
X26898100Y83490643D01*
X26939023Y83337916D01*
X27018080Y83200984D01*
X27129884Y83089180D01*
X27266816Y83010123D01*
X27419543Y82969200D01*
X27419545Y82969200D01*
X27577656Y82969200D01*
X27577657Y82969200D01*
X27577657Y82969201D01*
X27583252Y82969937D01*
X27643414Y82958791D01*
X27666183Y82941789D01*
X27973737Y82634236D01*
X27973742Y82634232D01*
X28047957Y82591384D01*
X28047955Y82591384D01*
X28047959Y82591383D01*
X28047961Y82591382D01*
X28130747Y82569200D01*
X28216453Y82569200D01*
X30587466Y82569200D01*
X30645657Y82550293D01*
X30681621Y82500793D01*
X30681621Y82439607D01*
X30657471Y82400199D01*
X28214153Y79956880D01*
X25783569Y77526296D01*
X25729052Y77498519D01*
X25713565Y77497300D01*
X20617502Y77497300D01*
X20559311Y77516207D01*
X20538960Y77536033D01*
X20535523Y77540512D01*
X20535521Y77540514D01*
X20535520Y77540516D01*
X20423716Y77652320D01*
X20286784Y77731377D01*
X20134057Y77772300D01*
X19975943Y77772300D01*
X19823216Y77731377D01*
X19686284Y77652320D01*
X19574480Y77540516D01*
X19495423Y77403584D01*
X19454500Y77250857D01*
X19454500Y77092743D01*
X19495423Y76940016D01*
X19574480Y76803084D01*
X19686284Y76691280D01*
X19823216Y76612223D01*
X19975943Y76571300D01*
X19975945Y76571300D01*
X20134055Y76571300D01*
X20134057Y76571300D01*
X20286784Y76612223D01*
X20423716Y76691280D01*
X20535520Y76803084D01*
X20535523Y76803089D01*
X20538960Y76807567D01*
X20589384Y76842223D01*
X20617502Y76846300D01*
X25932251Y76846300D01*
X25932253Y76846300D01*
X26015039Y76868482D01*
X26015041Y76868484D01*
X26015043Y76868484D01*
X26089257Y76911332D01*
X26089257Y76911333D01*
X26089262Y76911335D01*
X31092131Y81914204D01*
X31146648Y81941981D01*
X31162135Y81943200D01*
X32601859Y81943200D01*
X32660050Y81924293D01*
X32696014Y81874793D01*
X32696014Y81813607D01*
X32687597Y81794705D01*
X32681192Y81783610D01*
X32670322Y81764784D01*
X32670321Y81764781D01*
X32642685Y81661642D01*
X32609361Y81610328D01*
X32552239Y81588402D01*
X32521438Y81591639D01*
X32402157Y81623600D01*
X32244043Y81623600D01*
X32091316Y81582677D01*
X31954384Y81503620D01*
X31842580Y81391816D01*
X31763523Y81254884D01*
X31722600Y81102157D01*
X31722600Y80944043D01*
X31763523Y80791316D01*
X31842580Y80654384D01*
X31954384Y80542580D01*
X32091316Y80463523D01*
X32244043Y80422600D01*
X32244045Y80422600D01*
X32402155Y80422600D01*
X32402157Y80422600D01*
X32554884Y80463523D01*
X32561838Y80467539D01*
X32611336Y80480800D01*
X33573751Y80480800D01*
X33573753Y80480800D01*
X33656539Y80502982D01*
X33656541Y80502984D01*
X33656543Y80502984D01*
X33730757Y80545832D01*
X33730757Y80545833D01*
X33730762Y80545835D01*
X33839312Y80654385D01*
X33880332Y80695404D01*
X33934848Y80723181D01*
X33950335Y80724400D01*
X37883565Y80724400D01*
X37941756Y80705493D01*
X37953568Y80695404D01*
X38001936Y80647036D01*
X38001942Y80647032D01*
X38076157Y80604184D01*
X38076155Y80604184D01*
X38076159Y80604183D01*
X38076161Y80604182D01*
X38158947Y80582000D01*
X38244653Y80582000D01*
X38334557Y80582000D01*
X38392748Y80563093D01*
X38428712Y80513593D01*
X38428712Y80452407D01*
X38404562Y80412999D01*
X38310280Y80318716D01*
X38231223Y80181784D01*
X38190300Y80029057D01*
X38190300Y79870943D01*
X38231223Y79718216D01*
X38310280Y79581284D01*
X38422084Y79469480D01*
X38559016Y79390423D01*
X38711743Y79349500D01*
X38711745Y79349500D01*
X38869856Y79349500D01*
X38869857Y79349500D01*
X38869857Y79349501D01*
X38875452Y79350237D01*
X38935614Y79339091D01*
X38958384Y79322089D01*
X39457104Y78823369D01*
X39484881Y78768852D01*
X39486100Y78753365D01*
X39486100Y77871335D01*
X39467193Y77813144D01*
X39417693Y77777180D01*
X39356507Y77777180D01*
X39317096Y77801331D01*
X39286011Y77832416D01*
X39258234Y77886933D01*
X39257863Y77915348D01*
X39258600Y77920944D01*
X39258600Y78079056D01*
X39258600Y78079057D01*
X39217677Y78231784D01*
X39138620Y78368716D01*
X39026816Y78480520D01*
X38889884Y78559577D01*
X38737157Y78600500D01*
X38579043Y78600500D01*
X38426316Y78559577D01*
X38289384Y78480520D01*
X38177580Y78368716D01*
X38098523Y78231784D01*
X38057600Y78079057D01*
X38057600Y77920943D01*
X38098523Y77768216D01*
X38177580Y77631284D01*
X38289384Y77519480D01*
X38426316Y77440423D01*
X38579043Y77399500D01*
X38579045Y77399500D01*
X38729700Y77399500D01*
X38787891Y77380593D01*
X38823855Y77331093D01*
X38828700Y77300500D01*
X38828700Y58246625D01*
X38809793Y58188434D01*
X38760293Y58152470D01*
X38699107Y58152470D01*
X38680201Y58160888D01*
X38637785Y58185377D01*
X38577179Y58201616D01*
X38485057Y58226300D01*
X38326943Y58226300D01*
X38326941Y58226300D01*
X38321338Y58225562D01*
X38261177Y58236715D01*
X38238415Y58253712D01*
X35465096Y61027031D01*
X35437319Y61081548D01*
X35436100Y61097035D01*
X35436100Y61891857D01*
X36764100Y61891857D01*
X36764100Y61733743D01*
X36805023Y61581016D01*
X36884080Y61444084D01*
X36995884Y61332280D01*
X37132816Y61253223D01*
X37285543Y61212300D01*
X37285545Y61212300D01*
X37443655Y61212300D01*
X37443657Y61212300D01*
X37596384Y61253223D01*
X37733316Y61332280D01*
X37845120Y61444084D01*
X37924177Y61581016D01*
X37965100Y61733743D01*
X37965100Y61891857D01*
X37965099Y61891859D01*
X37964362Y61897459D01*
X37975511Y61957620D01*
X37992508Y61980383D01*
X38260465Y62248338D01*
X38275894Y62275062D01*
X38303318Y62322562D01*
X38325500Y62405347D01*
X38325500Y69059698D01*
X38344407Y69117889D01*
X38364233Y69138240D01*
X38368711Y69141677D01*
X38368711Y69141678D01*
X38368716Y69141680D01*
X38480520Y69253484D01*
X38559577Y69390416D01*
X38600500Y69543143D01*
X38600500Y69701257D01*
X38559577Y69853984D01*
X38480520Y69990916D01*
X38368716Y70102720D01*
X38231784Y70181777D01*
X38079057Y70222700D01*
X37920943Y70222700D01*
X37768216Y70181777D01*
X37631284Y70102720D01*
X37519480Y69990916D01*
X37440423Y69853984D01*
X37399500Y69701257D01*
X37399500Y69543143D01*
X37440423Y69390416D01*
X37519480Y69253484D01*
X37631284Y69141680D01*
X37631286Y69141679D01*
X37631288Y69141677D01*
X37635767Y69138240D01*
X37670423Y69087816D01*
X37674500Y69059698D01*
X37674500Y62624035D01*
X37655593Y62565844D01*
X37645503Y62554031D01*
X37532183Y62440712D01*
X37477667Y62412935D01*
X37449260Y62412563D01*
X37443661Y62413300D01*
X37443657Y62413300D01*
X37285543Y62413300D01*
X37132816Y62372377D01*
X36995884Y62293320D01*
X36884080Y62181516D01*
X36805023Y62044584D01*
X36764100Y61891857D01*
X35436100Y61891857D01*
X35436100Y78657598D01*
X35455007Y78715789D01*
X35474833Y78736140D01*
X35479311Y78739577D01*
X35479311Y78739578D01*
X35479316Y78739580D01*
X35591120Y78851384D01*
X35670177Y78988316D01*
X35711100Y79141043D01*
X35711100Y79299157D01*
X35670177Y79451884D01*
X35591120Y79588816D01*
X35479316Y79700620D01*
X35342384Y79779677D01*
X35189657Y79820600D01*
X35031543Y79820600D01*
X34878816Y79779677D01*
X34741884Y79700620D01*
X34630080Y79588816D01*
X34551023Y79451884D01*
X34510100Y79299157D01*
X34510100Y79141043D01*
X34551023Y78988316D01*
X34630080Y78851384D01*
X34741884Y78739580D01*
X34741886Y78739579D01*
X34741888Y78739577D01*
X34746367Y78736140D01*
X34781023Y78685716D01*
X34785100Y78657600D01*
X34785100Y60964053D01*
X34785100Y60878347D01*
X34795252Y60840460D01*
X34807283Y60795557D01*
X34850131Y60721343D01*
X34850132Y60721342D01*
X34850133Y60721341D01*
X34850135Y60721338D01*
X36320349Y59251124D01*
X37778088Y57793385D01*
X37805865Y57738868D01*
X37806238Y57710462D01*
X37805500Y57704859D01*
X37805500Y57704857D01*
X37805500Y57546743D01*
X37846423Y57394016D01*
X37925480Y57257084D01*
X38037284Y57145280D01*
X38174216Y57066223D01*
X38326943Y57025300D01*
X38326945Y57025300D01*
X38485055Y57025300D01*
X38485057Y57025300D01*
X38637784Y57066223D01*
X38680201Y57090713D01*
X38740048Y57103434D01*
X38795943Y57078548D01*
X38826536Y57025560D01*
X38828700Y57004976D01*
X38828700Y56481736D01*
X38809793Y56423545D01*
X38799704Y56411732D01*
X38185483Y55797512D01*
X38130966Y55769735D01*
X38102558Y55769363D01*
X38096959Y55770100D01*
X38096957Y55770100D01*
X37938843Y55770100D01*
X37795103Y55731585D01*
X37786116Y55729177D01*
X37649184Y55650120D01*
X37537380Y55538316D01*
X37458322Y55401382D01*
X37451538Y55376064D01*
X37418213Y55324751D01*
X37361092Y55302825D01*
X37301991Y55318662D01*
X37285908Y55331685D01*
X33122896Y59494697D01*
X33095119Y59549214D01*
X33093900Y59564701D01*
X33093900Y64685257D01*
X33112807Y64743448D01*
X33122890Y64755255D01*
X33173920Y64806284D01*
X33252977Y64943216D01*
X33293900Y65095943D01*
X33293900Y65254057D01*
X33252977Y65406784D01*
X33173920Y65543716D01*
X33062116Y65655520D01*
X32925184Y65734577D01*
X32772457Y65775500D01*
X32772455Y65775500D01*
X32700301Y65775500D01*
X32642110Y65794407D01*
X32630297Y65804496D01*
X32217089Y66217704D01*
X31759713Y66675080D01*
X31759710Y66675082D01*
X31759709Y66675083D01*
X31759708Y66675084D01*
X31668391Y66727806D01*
X31668393Y66727806D01*
X31628870Y66738396D01*
X31566527Y66755100D01*
X31566525Y66755100D01*
X27561901Y66755100D01*
X27503710Y66774007D01*
X27491897Y66784096D01*
X27469296Y66806697D01*
X27441519Y66861214D01*
X27440300Y66876701D01*
X27440300Y69281357D01*
X27459207Y69339548D01*
X27469290Y69351355D01*
X27520320Y69402384D01*
X27599377Y69539316D01*
X27640300Y69692043D01*
X27640300Y69850157D01*
X27599377Y70002884D01*
X27520320Y70139816D01*
X27408516Y70251620D01*
X27271584Y70330677D01*
X27118857Y70371600D01*
X26960743Y70371600D01*
X26808016Y70330677D01*
X26671084Y70251620D01*
X26559280Y70139816D01*
X26480223Y70002884D01*
X26439300Y69850157D01*
X26439300Y69692043D01*
X26480223Y69539316D01*
X26559280Y69402384D01*
X26610305Y69351359D01*
X26638081Y69296844D01*
X26639300Y69281357D01*
X26639300Y67561800D01*
X26620393Y67503609D01*
X26570893Y67467645D01*
X26540300Y67462800D01*
X22536944Y67462800D01*
X22478753Y67481707D01*
X22466941Y67491796D01*
X22415918Y67542818D01*
X22415916Y67542820D01*
X22278984Y67621877D01*
X22126257Y67662800D01*
X22126255Y67662800D01*
X22054101Y67662800D01*
X21995910Y67681707D01*
X21984097Y67691796D01*
X20981115Y68694778D01*
X20953338Y68749295D01*
X20962909Y68809727D01*
X21006174Y68852992D01*
X21025485Y68860405D01*
X21133784Y68889423D01*
X21270716Y68968480D01*
X21382520Y69080284D01*
X21461577Y69217216D01*
X21502500Y69369943D01*
X21502500Y69528057D01*
X21502498Y69528062D01*
X21501762Y69533656D01*
X21512910Y69593818D01*
X21529908Y69616583D01*
X25410415Y73497091D01*
X25464930Y73524866D01*
X25493341Y73525238D01*
X25498940Y73524501D01*
X25498943Y73524500D01*
X25498946Y73524500D01*
X25657055Y73524500D01*
X25657057Y73524500D01*
X25809784Y73565423D01*
X25946716Y73644480D01*
X26058520Y73756284D01*
X26137577Y73893216D01*
X26178500Y74045943D01*
X26178500Y74204057D01*
X26137577Y74356784D01*
X26058520Y74493716D01*
X25946716Y74605520D01*
X25809784Y74684577D01*
X25657057Y74725500D01*
X25498943Y74725500D01*
X25346216Y74684577D01*
X25209284Y74605520D01*
X25097480Y74493716D01*
X25018423Y74356784D01*
X25001437Y74293389D01*
X24977500Y74204056D01*
X24977500Y74045940D01*
X24978237Y74040340D01*
X24967086Y73980179D01*
X24950088Y73957416D01*
X21069583Y70076912D01*
X21015066Y70049135D01*
X20986658Y70048763D01*
X20981059Y70049500D01*
X20981057Y70049500D01*
X20822943Y70049500D01*
X20670216Y70008577D01*
X20533284Y69929520D01*
X20421480Y69817716D01*
X20342423Y69680784D01*
X20314416Y69576258D01*
X20313408Y69572497D01*
X20280084Y69521183D01*
X20222962Y69499256D01*
X20163862Y69515092D01*
X20147777Y69528116D01*
X19042096Y70633797D01*
X19014319Y70688314D01*
X19013100Y70703801D01*
X19013100Y79125428D01*
X19004725Y79156681D01*
X19004724Y79156684D01*
X19001612Y79168299D01*
X18985807Y79227288D01*
X18985805Y79227291D01*
X18985805Y79227293D01*
X18933083Y79318609D01*
X18933081Y79318611D01*
X18933080Y79318613D01*
X10124613Y88127080D01*
X10124610Y88127082D01*
X10124608Y88127084D01*
X10033291Y88179806D01*
X10033293Y88179806D01*
X9993770Y88190396D01*
X9931427Y88207100D01*
X9931425Y88207100D01*
X8499500Y88207100D01*
X8441309Y88226007D01*
X8405345Y88275507D01*
X8400500Y88306100D01*
X8400500Y93094257D01*
X8419407Y93152448D01*
X8429490Y93164255D01*
X8480520Y93215284D01*
X8559577Y93352216D01*
X8600500Y93504943D01*
X8600500Y93663057D01*
X8559577Y93815784D01*
X8480520Y93952716D01*
X8368716Y94064520D01*
X8231784Y94143577D01*
X8079057Y94184500D01*
X7920943Y94184500D01*
X7768216Y94143577D01*
X7631284Y94064520D01*
X7519480Y93952716D01*
X7440423Y93815784D01*
X7399500Y93663057D01*
X7399500Y93504943D01*
X7440423Y93352216D01*
X7519480Y93215284D01*
X7570505Y93164259D01*
X7598281Y93109744D01*
X7599500Y93094257D01*
X7599500Y83199500D01*
X7580593Y83141309D01*
X7531093Y83105345D01*
X7500500Y83100500D01*
X7308657Y83100500D01*
X7277246Y83097554D01*
X7277243Y83097554D01*
X7277242Y83097553D01*
X7229129Y83080718D01*
X7144872Y83051236D01*
X7032041Y82967961D01*
X7032039Y82967959D01*
X6948764Y82855128D01*
X6922503Y82780076D01*
X6914438Y82757025D01*
X6902446Y82722754D01*
X6899500Y82691343D01*
X500500Y82691343D01*
X500500Y95121290D01*
X3149500Y95121290D01*
X3149500Y94878711D01*
X3181161Y94638219D01*
X3181161Y94638214D01*
X3243944Y94403908D01*
X3243948Y94403895D01*
X3336772Y94179796D01*
X3336774Y94179792D01*
X3336776Y94179788D01*
X3403326Y94064520D01*
X3458066Y93969708D01*
X3605729Y93777269D01*
X3605731Y93777267D01*
X3605735Y93777262D01*
X3777262Y93605735D01*
X3777266Y93605732D01*
X3777268Y93605730D01*
X3908614Y93504945D01*
X3969711Y93458064D01*
X4179788Y93336776D01*
X4403900Y93243946D01*
X4638211Y93181162D01*
X4878712Y93149500D01*
X4878713Y93149500D01*
X5121287Y93149500D01*
X5121288Y93149500D01*
X5361789Y93181162D01*
X5596100Y93243946D01*
X5820212Y93336776D01*
X6030289Y93458064D01*
X6222738Y93605735D01*
X6394265Y93777262D01*
X6541936Y93969711D01*
X6663224Y94179788D01*
X6756054Y94403900D01*
X6818838Y94638211D01*
X6850500Y94878712D01*
X6850500Y95121288D01*
X6818838Y95361789D01*
X6756054Y95596100D01*
X6663224Y95820212D01*
X6541936Y96030289D01*
X6394265Y96222738D01*
X6222738Y96394265D01*
X6222733Y96394269D01*
X6222731Y96394271D01*
X6030292Y96541934D01*
X6030289Y96541936D01*
X5820212Y96663224D01*
X5820208Y96663226D01*
X5820204Y96663228D01*
X5596105Y96756052D01*
X5596104Y96756053D01*
X5596100Y96756054D01*
X5361789Y96818838D01*
X5361786Y96818839D01*
X5361784Y96818839D01*
X5121289Y96850500D01*
X5121288Y96850500D01*
X4878712Y96850500D01*
X4878710Y96850500D01*
X4638218Y96818839D01*
X4638213Y96818839D01*
X4403907Y96756056D01*
X4403894Y96756052D01*
X4179795Y96663228D01*
X3969707Y96541934D01*
X3777268Y96394271D01*
X3605729Y96222732D01*
X3458066Y96030293D01*
X3336772Y95820205D01*
X3243948Y95596106D01*
X3243944Y95596093D01*
X3181161Y95361787D01*
X3181161Y95361782D01*
X3149500Y95121290D01*
X500500Y95121290D01*
X500500Y99400500D01*
X519407Y99458691D01*
X568907Y99494655D01*
X599500Y99499500D01*
X99400500Y99499500D01*
X99458691Y99480593D01*
G37*
%TD.AperFunction*%
%TD*%
M02*
