%TF.GenerationSoftware,KiCad,Pcbnew,10.0.6*%
%TF.CreationDate,2026-09-28T08:13:03-04:00*%
%TF.ProjectId,ai_robot_interface,61695f72-6f62-46f7-945f-696e74657266,A-12V-DRAFT*%
%TF.SameCoordinates,Original*%
%TF.FileFunction,Paste,Top*%
%TF.FilePolarity,Positive*%
%FSLAX46Y46*%
G04 Gerber Fmt 4.6, Leading zero omitted, Abs format (unit mm)*
G04 Created by KiCad (PCBNEW 10.0.6) date 2026-09-28 08:13:03*
%MOMM*%
%LPD*%
G01*
G04 APERTURE LIST*
G04 Aperture macros list*
%AMRoundRect*
0 Rectangle with rounded corners*
0 $1 Rounding radius*
0 $2 $3 $4 $5 $6 $7 $8 $9 X,Y pos of 4 corners*
0 Add a 4 corners polygon primitive as box body*
4,1,4,$2,$3,$4,$5,$6,$7,$8,$9,$2,$3,0*
0 Add four circle primitives for the rounded corners*
1,1,$1+$1,$2,$3*
1,1,$1+$1,$4,$5*
1,1,$1+$1,$6,$7*
1,1,$1+$1,$8,$9*
0 Add four rect primitives between the rounded corners*
20,1,$1+$1,$2,$3,$4,$5,0*
20,1,$1+$1,$4,$5,$6,$7,0*
20,1,$1+$1,$6,$7,$8,$9,0*
20,1,$1+$1,$8,$9,$2,$3,0*%
G04 Aperture macros list end*
%ADD10RoundRect,0.250000X-0.262500X-0.450000X0.262500X-0.450000X0.262500X0.450000X-0.262500X0.450000X0*%
%ADD11RoundRect,0.150000X-0.512500X-0.150000X0.512500X-0.150000X0.512500X0.150000X-0.512500X0.150000X0*%
%ADD12RoundRect,0.050001X-0.543999X-0.543999X0.543999X-0.543999X0.543999X0.543999X-0.543999X0.543999X0*%
%ADD13RoundRect,0.050000X-0.240000X-0.070000X0.240000X-0.070000X0.240000X0.070000X-0.240000X0.070000X0*%
%ADD14RoundRect,0.050000X-0.070000X-0.240000X0.070000X-0.240000X0.070000X0.240000X-0.070000X0.240000X0*%
%ADD15RoundRect,0.250000X0.475000X-0.250000X0.475000X0.250000X-0.475000X0.250000X-0.475000X-0.250000X0*%
%ADD16RoundRect,0.200000X-0.200000X-0.275000X0.200000X-0.275000X0.200000X0.275000X-0.200000X0.275000X0*%
%ADD17RoundRect,0.250000X-0.325000X-0.650000X0.325000X-0.650000X0.325000X0.650000X-0.325000X0.650000X0*%
%ADD18RoundRect,0.250000X-0.250000X-0.475000X0.250000X-0.475000X0.250000X0.475000X-0.250000X0.475000X0*%
%ADD19RoundRect,0.250000X-1.000000X-0.900000X1.000000X-0.900000X1.000000X0.900000X-1.000000X0.900000X0*%
%ADD20RoundRect,0.225000X0.250000X-0.225000X0.250000X0.225000X-0.250000X0.225000X-0.250000X-0.225000X0*%
%ADD21RoundRect,0.250000X0.450000X-0.262500X0.450000X0.262500X-0.450000X0.262500X-0.450000X-0.262500X0*%
%ADD22RoundRect,0.225000X-0.225000X-0.250000X0.225000X-0.250000X0.225000X0.250000X-0.225000X0.250000X0*%
%ADD23RoundRect,0.200000X0.275000X-0.200000X0.275000X0.200000X-0.275000X0.200000X-0.275000X-0.200000X0*%
%ADD24RoundRect,0.050000X-0.375000X-0.100000X0.375000X-0.100000X0.375000X0.100000X-0.375000X0.100000X0*%
%ADD25RoundRect,0.050000X1.180000X1.725000X-1.180000X1.725000X-1.180000X-1.725000X1.180000X-1.725000X0*%
%ADD26RoundRect,0.050000X0.700000X0.175000X-0.700000X0.175000X-0.700000X-0.175000X0.700000X-0.175000X0*%
%ADD27RoundRect,0.100000X-0.637500X-0.100000X0.637500X-0.100000X0.637500X0.100000X-0.637500X0.100000X0*%
%ADD28R,1.960000X3.150000*%
%ADD29RoundRect,0.150000X-0.587500X-0.150000X0.587500X-0.150000X0.587500X0.150000X-0.587500X0.150000X0*%
%ADD30R,0.450000X0.340000*%
%ADD31R,1.445000X1.020000*%
%ADD32RoundRect,0.050600X-0.064400X-0.311900X0.064400X-0.311900X0.064400X0.311900X-0.064400X0.311900X0*%
%ADD33RoundRect,0.050920X-0.619080X-0.724080X0.619080X-0.724080X0.619080X0.724080X-0.619080X0.724080X0*%
%ADD34RoundRect,0.049600X-0.250400X-0.105400X0.250400X-0.105400X0.250400X0.105400X-0.250400X0.105400X0*%
%ADD35RoundRect,0.250000X-0.375000X-1.000000X0.375000X-1.000000X0.375000X1.000000X-0.375000X1.000000X0*%
G04 APERTURE END LIST*
D10*
%TO.C,R41*%
X31087500Y41000000D03*
X32912500Y41000000D03*
%TD*%
D11*
%TO.C,U15*%
X32862500Y85950000D03*
X32862500Y85000000D03*
X32862500Y84050000D03*
X35137500Y84050000D03*
X35137500Y85000000D03*
X35137500Y85950000D03*
%TD*%
D12*
%TO.C,U13*%
X33306000Y35694000D03*
X33306000Y34306000D03*
X34694000Y35694000D03*
X34694000Y34306000D03*
D13*
X32087500Y36250000D03*
X32087500Y35750000D03*
X32087500Y35250000D03*
X32087500Y34750000D03*
X32087500Y34250000D03*
X32087500Y33750000D03*
D14*
X32750000Y33087500D03*
X33250000Y33087500D03*
X33750000Y33087500D03*
X34250000Y33087500D03*
X34750000Y33087500D03*
X35250000Y33087500D03*
D13*
X35912500Y33750000D03*
X35912500Y34250000D03*
X35912500Y34750000D03*
X35912500Y35250000D03*
X35912500Y35750000D03*
X35912500Y36250000D03*
D14*
X35250000Y36912500D03*
X34750000Y36912500D03*
X34250000Y36912500D03*
X33750000Y36912500D03*
X33250000Y36912500D03*
X32750000Y36912500D03*
%TD*%
D15*
%TO.C,C36*%
X69000000Y25050000D03*
X69000000Y26950000D03*
%TD*%
D16*
%TO.C,R126*%
X15175000Y67000000D03*
X16825000Y67000000D03*
%TD*%
D11*
%TO.C,U14*%
X41862500Y49950000D03*
X41862500Y49000000D03*
X41862500Y48050000D03*
X44137500Y48050000D03*
X44137500Y49950000D03*
%TD*%
D10*
%TO.C,R35*%
X74587500Y18000000D03*
X76412500Y18000000D03*
%TD*%
%TO.C,R46*%
X31087500Y22500000D03*
X32912500Y22500000D03*
%TD*%
D17*
%TO.C,C41*%
X16525000Y28000000D03*
X19475000Y28000000D03*
%TD*%
D10*
%TO.C,R20*%
X80587500Y87500000D03*
X82412500Y87500000D03*
%TD*%
D18*
%TO.C,C24*%
X80550000Y84600000D03*
X82450000Y84600000D03*
%TD*%
D19*
%TO.C,D2*%
X73850000Y8000000D03*
X78150000Y8000000D03*
%TD*%
D20*
%TO.C,C100*%
X13000000Y52225000D03*
X13000000Y53775000D03*
%TD*%
D10*
%TO.C,R40*%
X28087500Y39000000D03*
X29912500Y39000000D03*
%TD*%
%TO.C,R33*%
X80587500Y21800000D03*
X82412500Y21800000D03*
%TD*%
D20*
%TO.C,C102*%
X23000000Y66225000D03*
X23000000Y67775000D03*
%TD*%
D21*
%TO.C,R7*%
X44000000Y24087500D03*
X44000000Y25912500D03*
%TD*%
D17*
%TO.C,C40*%
X32525000Y25200000D03*
X35475000Y25200000D03*
%TD*%
D16*
%TO.C,R112*%
X15175000Y79000000D03*
X16825000Y79000000D03*
%TD*%
D10*
%TO.C,R22*%
X80587500Y81700000D03*
X82412500Y81700000D03*
%TD*%
D15*
%TO.C,C38*%
X69000000Y21050000D03*
X69000000Y22950000D03*
%TD*%
D10*
%TO.C,R43*%
X38087500Y39000000D03*
X39912500Y39000000D03*
%TD*%
D22*
%TO.C,C104*%
X42225000Y73000000D03*
X43775000Y73000000D03*
%TD*%
D16*
%TO.C,R116*%
X15175000Y75000000D03*
X16825000Y75000000D03*
%TD*%
%TO.C,R104*%
X15175000Y83000000D03*
X16825000Y83000000D03*
%TD*%
D23*
%TO.C,R105*%
X20000000Y82175000D03*
X20000000Y83825000D03*
%TD*%
D15*
%TO.C,C23*%
X69000000Y78050000D03*
X69000000Y79950000D03*
%TD*%
D11*
%TO.C,U11*%
X45862500Y23950000D03*
X45862500Y23000000D03*
X45862500Y22050000D03*
X48137500Y22050000D03*
X48137500Y23000000D03*
X48137500Y23950000D03*
%TD*%
D10*
%TO.C,R45*%
X27087500Y22500000D03*
X28912500Y22500000D03*
%TD*%
D16*
%TO.C,R134*%
X9175000Y54000000D03*
X10825000Y54000000D03*
%TD*%
D10*
%TO.C,R28*%
X80587500Y49500000D03*
X82412500Y49500000D03*
%TD*%
D16*
%TO.C,R44*%
X35175000Y29000000D03*
X36825000Y29000000D03*
%TD*%
D23*
%TO.C,R113*%
X20000000Y78175000D03*
X20000000Y79825000D03*
%TD*%
D10*
%TO.C,R24*%
X80587500Y68500000D03*
X82412500Y68500000D03*
%TD*%
D24*
%TO.C,U5*%
X37450000Y66750000D03*
X37450000Y66250000D03*
X37450000Y65750000D03*
X37450000Y65250000D03*
X40550000Y65250000D03*
X40550000Y65750000D03*
X40550000Y66250000D03*
X40550000Y66750000D03*
%TD*%
D23*
%TO.C,R131*%
X31000000Y65175000D03*
X31000000Y66825000D03*
%TD*%
D22*
%TO.C,C109*%
X29225000Y71000000D03*
X30775000Y71000000D03*
%TD*%
D25*
%TO.C,U23*%
X75000000Y25000000D03*
D26*
X77900000Y22725000D03*
X77900000Y23375000D03*
X77900000Y24025000D03*
X77900000Y24675000D03*
X77900000Y25325000D03*
X77900000Y25975000D03*
X77900000Y26625000D03*
X77900000Y27275000D03*
X72100000Y27275000D03*
X72100000Y26625000D03*
X72100000Y25975000D03*
X72100000Y25325000D03*
X72100000Y24675000D03*
X72100000Y24025000D03*
X72100000Y23375000D03*
X72100000Y22725000D03*
%TD*%
D23*
%TO.C,R138*%
X22000000Y55175000D03*
X22000000Y56825000D03*
%TD*%
D10*
%TO.C,R31*%
X74587500Y37000000D03*
X76412500Y37000000D03*
%TD*%
%TO.C,R30*%
X80587500Y43700000D03*
X82412500Y43700000D03*
%TD*%
%TO.C,R10*%
X46087500Y19000000D03*
X47912500Y19000000D03*
%TD*%
D18*
%TO.C,C11*%
X50050000Y20000000D03*
X51950000Y20000000D03*
%TD*%
D15*
%TO.C,C31*%
X69000000Y44050000D03*
X69000000Y45950000D03*
%TD*%
D11*
%TO.C,U12*%
X28862500Y75950000D03*
X28862500Y75000000D03*
X28862500Y74050000D03*
X31137500Y74050000D03*
X31137500Y75000000D03*
X31137500Y75950000D03*
%TD*%
D10*
%TO.C,R42*%
X35087500Y41000000D03*
X36912500Y41000000D03*
%TD*%
D20*
%TO.C,C106*%
X33000000Y56225000D03*
X33000000Y57775000D03*
%TD*%
D18*
%TO.C,C34*%
X80550000Y46600000D03*
X82450000Y46600000D03*
%TD*%
D21*
%TO.C,R6*%
X44000000Y28087500D03*
X44000000Y29912500D03*
%TD*%
D18*
%TO.C,C29*%
X80550000Y65600000D03*
X82450000Y65600000D03*
%TD*%
D15*
%TO.C,C21*%
X69000000Y82050000D03*
X69000000Y83950000D03*
%TD*%
%TO.C,C26*%
X69000000Y63050000D03*
X69000000Y64950000D03*
%TD*%
D23*
%TO.C,R127*%
X20000000Y66175000D03*
X20000000Y67825000D03*
%TD*%
D27*
%TO.C,U6*%
X40137500Y79950000D03*
X40137500Y79300000D03*
X40137500Y78650000D03*
X40137500Y78000000D03*
X40137500Y77350000D03*
X40137500Y76700000D03*
X40137500Y76050000D03*
X45862500Y76050000D03*
X45862500Y76700000D03*
X45862500Y77350000D03*
X45862500Y78000000D03*
X45862500Y78650000D03*
X45862500Y79300000D03*
X45862500Y79950000D03*
%TD*%
D15*
%TO.C,C14*%
X49000000Y84050000D03*
X49000000Y85950000D03*
%TD*%
D25*
%TO.C,U20*%
X75000000Y82000000D03*
D26*
X77900000Y79725000D03*
X77900000Y80375000D03*
X77900000Y81025000D03*
X77900000Y81675000D03*
X77900000Y82325000D03*
X77900000Y82975000D03*
X77900000Y83625000D03*
X77900000Y84275000D03*
X72100000Y84275000D03*
X72100000Y83625000D03*
X72100000Y82975000D03*
X72100000Y82325000D03*
X72100000Y81675000D03*
X72100000Y81025000D03*
X72100000Y80375000D03*
X72100000Y79725000D03*
%TD*%
D16*
%TO.C,R139*%
X38175000Y61000000D03*
X39825000Y61000000D03*
%TD*%
D10*
%TO.C,R29*%
X80587500Y40800000D03*
X82412500Y40800000D03*
%TD*%
D15*
%TO.C,C33*%
X69000000Y40050000D03*
X69000000Y41950000D03*
%TD*%
D28*
%TO.C,F1*%
X14550000Y35000000D03*
X19450000Y35000000D03*
%TD*%
D21*
%TO.C,R8*%
X50000000Y28087500D03*
X50000000Y29912500D03*
%TD*%
D25*
%TO.C,U22*%
X75000000Y44000000D03*
D26*
X77900000Y41725000D03*
X77900000Y42375000D03*
X77900000Y43025000D03*
X77900000Y43675000D03*
X77900000Y44325000D03*
X77900000Y44975000D03*
X77900000Y45625000D03*
X77900000Y46275000D03*
X72100000Y46275000D03*
X72100000Y45625000D03*
X72100000Y44975000D03*
X72100000Y44325000D03*
X72100000Y43675000D03*
X72100000Y43025000D03*
X72100000Y42375000D03*
X72100000Y41725000D03*
%TD*%
D10*
%TO.C,R11*%
X37087500Y44000000D03*
X38912500Y44000000D03*
%TD*%
D18*
%TO.C,C12*%
X41050000Y45000000D03*
X42950000Y45000000D03*
%TD*%
D16*
%TO.C,R133*%
X9175000Y57000000D03*
X10825000Y57000000D03*
%TD*%
D18*
%TO.C,C37*%
X68050000Y29100000D03*
X69950000Y29100000D03*
%TD*%
D23*
%TO.C,R125*%
X20000000Y70175000D03*
X20000000Y71825000D03*
%TD*%
D18*
%TO.C,C22*%
X68050000Y86100000D03*
X69950000Y86100000D03*
%TD*%
D21*
%TO.C,R9*%
X50000000Y24087500D03*
X50000000Y25912500D03*
%TD*%
D10*
%TO.C,R32*%
X80587500Y30500000D03*
X82412500Y30500000D03*
%TD*%
D27*
%TO.C,U16*%
X41137500Y86950000D03*
X41137500Y86300000D03*
X41137500Y85650000D03*
X41137500Y85000000D03*
X41137500Y84350000D03*
X41137500Y83700000D03*
X41137500Y83050000D03*
X46862500Y83050000D03*
X46862500Y83700000D03*
X46862500Y84350000D03*
X46862500Y85000000D03*
X46862500Y85650000D03*
X46862500Y86300000D03*
X46862500Y86950000D03*
%TD*%
D29*
%TO.C,U7*%
X17062500Y56950000D03*
X17062500Y55050000D03*
X18937500Y56000000D03*
%TD*%
D20*
%TO.C,C103*%
X35000000Y65225000D03*
X35000000Y66775000D03*
%TD*%
D16*
%TO.C,R100*%
X15175000Y87000000D03*
X16825000Y87000000D03*
%TD*%
D10*
%TO.C,R34*%
X80587500Y24700000D03*
X82412500Y24700000D03*
%TD*%
D17*
%TO.C,C42*%
X26525000Y28000000D03*
X29475000Y28000000D03*
%TD*%
D23*
%TO.C,R129*%
X20000000Y62175000D03*
X20000000Y63825000D03*
%TD*%
D15*
%TO.C,C28*%
X69000000Y59050000D03*
X69000000Y60950000D03*
%TD*%
D30*
%TO.C,Q1*%
X23565000Y34975000D03*
X23565000Y34325000D03*
X23565000Y33675000D03*
X23565000Y33025000D03*
D31*
X25262500Y34635000D03*
X25262500Y33365000D03*
D30*
X26435000Y34975000D03*
X26435000Y34325000D03*
X26435000Y33675000D03*
X26435000Y33025000D03*
%TD*%
D18*
%TO.C,C13*%
X33050000Y89000000D03*
X34950000Y89000000D03*
%TD*%
D10*
%TO.C,R27*%
X74587500Y56000000D03*
X76412500Y56000000D03*
%TD*%
D11*
%TO.C,U9*%
X45862500Y58950000D03*
X45862500Y58000000D03*
X45862500Y57050000D03*
X48137500Y57050000D03*
X48137500Y58000000D03*
X48137500Y58950000D03*
%TD*%
D27*
%TO.C,U3*%
X23137500Y84950000D03*
X23137500Y84300000D03*
X23137500Y83650000D03*
X23137500Y83000000D03*
X23137500Y82350000D03*
X23137500Y81700000D03*
X23137500Y81050000D03*
X28862500Y81050000D03*
X28862500Y81700000D03*
X28862500Y82350000D03*
X28862500Y83000000D03*
X28862500Y83650000D03*
X28862500Y84300000D03*
X28862500Y84950000D03*
%TD*%
D22*
%TO.C,C107*%
X45225000Y54000000D03*
X46775000Y54000000D03*
%TD*%
D10*
%TO.C,R23*%
X74587500Y75000000D03*
X76412500Y75000000D03*
%TD*%
D20*
%TO.C,C105*%
X15000000Y56225000D03*
X15000000Y57775000D03*
%TD*%
D10*
%TO.C,R25*%
X80587500Y59800000D03*
X82412500Y59800000D03*
%TD*%
%TO.C,R12*%
X40087500Y42000000D03*
X41912500Y42000000D03*
%TD*%
D16*
%TO.C,R128*%
X15175000Y63000000D03*
X16825000Y63000000D03*
%TD*%
D23*
%TO.C,R140*%
X47000000Y69175000D03*
X47000000Y70825000D03*
%TD*%
D16*
%TO.C,R132*%
X30175000Y61000000D03*
X31825000Y61000000D03*
%TD*%
D11*
%TO.C,U8*%
X34862500Y57950000D03*
X34862500Y57000000D03*
X34862500Y56050000D03*
X37137500Y56050000D03*
X37137500Y57000000D03*
X37137500Y57950000D03*
%TD*%
D19*
%TO.C,D1*%
X9850000Y25000000D03*
X14150000Y25000000D03*
%TD*%
D23*
%TO.C,R101*%
X20000000Y86175000D03*
X20000000Y87825000D03*
%TD*%
D25*
%TO.C,U21*%
X75000000Y63000000D03*
D26*
X77900000Y60725000D03*
X77900000Y61375000D03*
X77900000Y62025000D03*
X77900000Y62675000D03*
X77900000Y63325000D03*
X77900000Y63975000D03*
X77900000Y64625000D03*
X77900000Y65275000D03*
X72100000Y65275000D03*
X72100000Y64625000D03*
X72100000Y63975000D03*
X72100000Y63325000D03*
X72100000Y62675000D03*
X72100000Y62025000D03*
X72100000Y61375000D03*
X72100000Y60725000D03*
%TD*%
D16*
%TO.C,R124*%
X15175000Y71000000D03*
X16825000Y71000000D03*
%TD*%
%TO.C,R141*%
X50175000Y71000000D03*
X51825000Y71000000D03*
%TD*%
D20*
%TO.C,C101*%
X31000000Y83225000D03*
X31000000Y84775000D03*
%TD*%
D18*
%TO.C,C27*%
X68050000Y67100000D03*
X69950000Y67100000D03*
%TD*%
D10*
%TO.C,R26*%
X80587500Y62700000D03*
X82412500Y62700000D03*
%TD*%
D18*
%TO.C,C32*%
X68050000Y48100000D03*
X69950000Y48100000D03*
%TD*%
D10*
%TO.C,R21*%
X80587500Y78800000D03*
X82412500Y78800000D03*
%TD*%
D32*
%TO.C,U4*%
X25675000Y67337000D03*
X25675000Y64663000D03*
D33*
X26000000Y66000000D03*
D32*
X26325000Y67337000D03*
X26325000Y64663000D03*
D34*
X24600000Y66975000D03*
X24600000Y66325000D03*
X24600000Y65675000D03*
X24600000Y65025000D03*
X27400000Y65025000D03*
X27400000Y65675000D03*
X27400000Y66325000D03*
X27400000Y66975000D03*
%TD*%
D29*
%TO.C,Q2*%
X22062500Y28950000D03*
X22062500Y27050000D03*
X23937500Y28000000D03*
%TD*%
D23*
%TO.C,R117*%
X20000000Y74175000D03*
X20000000Y75825000D03*
%TD*%
D18*
%TO.C,C39*%
X80550000Y27600000D03*
X82450000Y27600000D03*
%TD*%
D16*
%TO.C,R130*%
X25175000Y71000000D03*
X26825000Y71000000D03*
%TD*%
D35*
%TO.C,SW1*%
X5500000Y50750000D03*
X8000000Y50750000D03*
X10500000Y50750000D03*
%TD*%
M02*
