%TF.GenerationSoftware,KiCad,Pcbnew,10.0.6*%
%TF.CreationDate,2026-09-28T08:13:03-04:00*%
%TF.ProjectId,ai_robot_interface,61695f72-6f62-46f7-945f-696e74657266,A-12V-DRAFT*%
%TF.SameCoordinates,Original*%
%TF.FileFunction,Soldermask,Bot*%
%TF.FilePolarity,Negative*%
%FSLAX46Y46*%
G04 Gerber Fmt 4.6, Leading zero omitted, Abs format (unit mm)*
G04 Created by KiCad (PCBNEW 10.0.6) date 2026-09-28 08:13:03*
%MOMM*%
%LPD*%
G01*
G04 APERTURE LIST*
G04 APERTURE END LIST*
G36*
X5117449Y6624975D02*
G01*
X5127888Y6624975D01*
X5179304Y6616832D01*
X5317976Y6598575D01*
X5351807Y6589510D01*
X5380516Y6584963D01*
X5435724Y6567025D01*
X5523909Y6543396D01*
X5580171Y6520092D01*
X5623774Y6505924D01*
X5664624Y6485110D01*
X5720884Y6461806D01*
X5799946Y6416160D01*
X5851673Y6389803D01*
X5875188Y6372718D01*
X5905520Y6355206D01*
X6016469Y6270072D01*
X6058600Y6239462D01*
X6065984Y6232078D01*
X6074658Y6225422D01*
X6225421Y6074659D01*
X6232076Y6065986D01*
X6239462Y6058600D01*
X6270075Y6016464D01*
X6355205Y5905521D01*
X6372715Y5875192D01*
X6389803Y5851673D01*
X6416162Y5799940D01*
X6461805Y5720885D01*
X6485106Y5664631D01*
X6505924Y5623774D01*
X6520093Y5580165D01*
X6543395Y5523910D01*
X6567020Y5435738D01*
X6584963Y5380516D01*
X6589510Y5351802D01*
X6598574Y5317977D01*
X6616829Y5179316D01*
X6624975Y5127888D01*
X6624975Y5117449D01*
X6626403Y5106602D01*
X6626403Y4893399D01*
X6624975Y4882553D01*
X6624975Y4872112D01*
X6616828Y4820680D01*
X6598574Y4682024D01*
X6589511Y4648202D01*
X6584963Y4619484D01*
X6567018Y4564258D01*
X6543395Y4476091D01*
X6520094Y4419840D01*
X6505924Y4376226D01*
X6485104Y4335366D01*
X6461805Y4279116D01*
X6416166Y4200069D01*
X6389803Y4148327D01*
X6372712Y4124805D01*
X6355205Y4094480D01*
X6270089Y3983555D01*
X6239462Y3941400D01*
X6232072Y3934011D01*
X6225421Y3925342D01*
X6074658Y3774579D01*
X6065989Y3767928D01*
X6058600Y3760538D01*
X6016445Y3729911D01*
X5905520Y3644795D01*
X5875195Y3627288D01*
X5851673Y3610197D01*
X5799931Y3583834D01*
X5720884Y3538195D01*
X5664634Y3514896D01*
X5623774Y3494076D01*
X5580160Y3479906D01*
X5523909Y3456605D01*
X5435742Y3432982D01*
X5380516Y3415037D01*
X5351798Y3410489D01*
X5317976Y3401426D01*
X5179317Y3383171D01*
X5127888Y3375025D01*
X5117448Y3375025D01*
X5106602Y3373597D01*
X4893398Y3373597D01*
X4882552Y3375025D01*
X4872112Y3375025D01*
X4820684Y3383171D01*
X4682023Y3401426D01*
X4648198Y3410490D01*
X4619484Y3415037D01*
X4564262Y3432980D01*
X4476090Y3456605D01*
X4419835Y3479907D01*
X4376226Y3494076D01*
X4335369Y3514894D01*
X4279115Y3538195D01*
X4200060Y3583838D01*
X4148327Y3610197D01*
X4124808Y3627285D01*
X4094479Y3644795D01*
X3983536Y3729925D01*
X3941400Y3760538D01*
X3934014Y3767924D01*
X3925341Y3774579D01*
X3774578Y3925342D01*
X3767922Y3934016D01*
X3760538Y3941400D01*
X3729928Y3983531D01*
X3644794Y4094480D01*
X3627282Y4124812D01*
X3610197Y4148327D01*
X3583840Y4200054D01*
X3538194Y4279116D01*
X3514890Y4335376D01*
X3494076Y4376226D01*
X3479908Y4419829D01*
X3456604Y4476091D01*
X3432975Y4564276D01*
X3415037Y4619484D01*
X3410490Y4648193D01*
X3401425Y4682024D01*
X3383168Y4820693D01*
X3375025Y4872112D01*
X3375025Y4882553D01*
X3373597Y4893399D01*
X3373597Y5106602D01*
X3375025Y5117449D01*
X3375025Y5127888D01*
X3383168Y5179303D01*
X3401425Y5317977D01*
X3410490Y5351811D01*
X3415037Y5380516D01*
X3432973Y5435721D01*
X3456604Y5523910D01*
X3479910Y5580176D01*
X3494076Y5623774D01*
X3514888Y5664620D01*
X3538194Y5720885D01*
X3583845Y5799955D01*
X3610197Y5851673D01*
X3627279Y5875186D01*
X3644794Y5905521D01*
X3729942Y6016489D01*
X3760538Y6058600D01*
X3767919Y6065982D01*
X3774578Y6074659D01*
X3925341Y6225422D01*
X3934018Y6232081D01*
X3941400Y6239462D01*
X3983511Y6270058D01*
X4094479Y6355206D01*
X4124814Y6372721D01*
X4148327Y6389803D01*
X4200045Y6416155D01*
X4279115Y6461806D01*
X4335380Y6485112D01*
X4376226Y6505924D01*
X4419824Y6520090D01*
X4476090Y6543396D01*
X4564279Y6567027D01*
X4619484Y6584963D01*
X4648189Y6589510D01*
X4682023Y6598575D01*
X4820697Y6616832D01*
X4872112Y6624975D01*
X4882551Y6624975D01*
X4893398Y6626403D01*
X5106602Y6626403D01*
X5117449Y6624975D01*
G37*
G36*
X95117449Y6624975D02*
G01*
X95127888Y6624975D01*
X95179304Y6616832D01*
X95317976Y6598575D01*
X95351807Y6589510D01*
X95380516Y6584963D01*
X95435724Y6567025D01*
X95523909Y6543396D01*
X95580171Y6520092D01*
X95623774Y6505924D01*
X95664624Y6485110D01*
X95720884Y6461806D01*
X95799946Y6416160D01*
X95851673Y6389803D01*
X95875188Y6372718D01*
X95905520Y6355206D01*
X96016469Y6270072D01*
X96058600Y6239462D01*
X96065984Y6232078D01*
X96074658Y6225422D01*
X96225421Y6074659D01*
X96232076Y6065986D01*
X96239462Y6058600D01*
X96270075Y6016464D01*
X96355205Y5905521D01*
X96372715Y5875192D01*
X96389803Y5851673D01*
X96416162Y5799940D01*
X96461805Y5720885D01*
X96485106Y5664631D01*
X96505924Y5623774D01*
X96520093Y5580165D01*
X96543395Y5523910D01*
X96567020Y5435738D01*
X96584963Y5380516D01*
X96589510Y5351802D01*
X96598574Y5317977D01*
X96616829Y5179316D01*
X96624975Y5127888D01*
X96624975Y5117449D01*
X96626403Y5106602D01*
X96626403Y4893399D01*
X96624975Y4882553D01*
X96624975Y4872112D01*
X96616828Y4820680D01*
X96598574Y4682024D01*
X96589511Y4648202D01*
X96584963Y4619484D01*
X96567018Y4564258D01*
X96543395Y4476091D01*
X96520094Y4419840D01*
X96505924Y4376226D01*
X96485104Y4335366D01*
X96461805Y4279116D01*
X96416166Y4200069D01*
X96389803Y4148327D01*
X96372712Y4124805D01*
X96355205Y4094480D01*
X96270089Y3983555D01*
X96239462Y3941400D01*
X96232072Y3934011D01*
X96225421Y3925342D01*
X96074658Y3774579D01*
X96065989Y3767928D01*
X96058600Y3760538D01*
X96016445Y3729911D01*
X95905520Y3644795D01*
X95875195Y3627288D01*
X95851673Y3610197D01*
X95799931Y3583834D01*
X95720884Y3538195D01*
X95664634Y3514896D01*
X95623774Y3494076D01*
X95580160Y3479906D01*
X95523909Y3456605D01*
X95435742Y3432982D01*
X95380516Y3415037D01*
X95351798Y3410489D01*
X95317976Y3401426D01*
X95179317Y3383171D01*
X95127888Y3375025D01*
X95117448Y3375025D01*
X95106602Y3373597D01*
X94893398Y3373597D01*
X94882552Y3375025D01*
X94872112Y3375025D01*
X94820684Y3383171D01*
X94682023Y3401426D01*
X94648198Y3410490D01*
X94619484Y3415037D01*
X94564262Y3432980D01*
X94476090Y3456605D01*
X94419835Y3479907D01*
X94376226Y3494076D01*
X94335369Y3514894D01*
X94279115Y3538195D01*
X94200060Y3583838D01*
X94148327Y3610197D01*
X94124808Y3627285D01*
X94094479Y3644795D01*
X93983536Y3729925D01*
X93941400Y3760538D01*
X93934014Y3767924D01*
X93925341Y3774579D01*
X93774578Y3925342D01*
X93767922Y3934016D01*
X93760538Y3941400D01*
X93729928Y3983531D01*
X93644794Y4094480D01*
X93627282Y4124812D01*
X93610197Y4148327D01*
X93583840Y4200054D01*
X93538194Y4279116D01*
X93514890Y4335376D01*
X93494076Y4376226D01*
X93479908Y4419829D01*
X93456604Y4476091D01*
X93432975Y4564276D01*
X93415037Y4619484D01*
X93410490Y4648193D01*
X93401425Y4682024D01*
X93383168Y4820693D01*
X93375025Y4872112D01*
X93375025Y4882553D01*
X93373597Y4893399D01*
X93373597Y5106602D01*
X93375025Y5117449D01*
X93375025Y5127888D01*
X93383168Y5179303D01*
X93401425Y5317977D01*
X93410490Y5351811D01*
X93415037Y5380516D01*
X93432973Y5435721D01*
X93456604Y5523910D01*
X93479910Y5580176D01*
X93494076Y5623774D01*
X93514888Y5664620D01*
X93538194Y5720885D01*
X93583845Y5799955D01*
X93610197Y5851673D01*
X93627279Y5875186D01*
X93644794Y5905521D01*
X93729942Y6016489D01*
X93760538Y6058600D01*
X93767919Y6065982D01*
X93774578Y6074659D01*
X93925341Y6225422D01*
X93934018Y6232081D01*
X93941400Y6239462D01*
X93983511Y6270058D01*
X94094479Y6355206D01*
X94124814Y6372721D01*
X94148327Y6389803D01*
X94200045Y6416155D01*
X94279115Y6461806D01*
X94335380Y6485112D01*
X94376226Y6505924D01*
X94419824Y6520090D01*
X94476090Y6543396D01*
X94564279Y6567027D01*
X94619484Y6584963D01*
X94648189Y6589510D01*
X94682023Y6598575D01*
X94820697Y6616832D01*
X94872112Y6624975D01*
X94882551Y6624975D01*
X94893398Y6626403D01*
X95106602Y6626403D01*
X95117449Y6624975D01*
G37*
G36*
X36014105Y12222563D02*
G01*
X36018729Y12220522D01*
X36021252Y12220189D01*
X36052815Y12205471D01*
X36108238Y12180999D01*
X36180999Y12108238D01*
X36205479Y12052795D01*
X36220188Y12021253D01*
X36220519Y12018733D01*
X36222563Y12014105D01*
X36229999Y11949998D01*
X36229999Y11946733D01*
X36230000Y11946725D01*
X36230000Y10903504D01*
X36230000Y10050001D01*
X36222563Y9985895D01*
X36220519Y9981268D01*
X36220188Y9978748D01*
X36205488Y9947225D01*
X36180999Y9891762D01*
X36108238Y9819001D01*
X36052775Y9794512D01*
X36021252Y9779812D01*
X36018732Y9779481D01*
X36014105Y9777437D01*
X35949998Y9770001D01*
X35946731Y9770001D01*
X35946724Y9770000D01*
X34053276Y9770000D01*
X34053275Y9770001D01*
X34050001Y9770000D01*
X33985895Y9777437D01*
X33981267Y9779481D01*
X33978747Y9779812D01*
X33947205Y9794521D01*
X33891762Y9819001D01*
X33819001Y9891762D01*
X33794529Y9947185D01*
X33779811Y9978748D01*
X33779478Y9981271D01*
X33777437Y9985895D01*
X33770001Y10050002D01*
X33770000Y10053269D01*
X33770000Y10053276D01*
X33770000Y11946725D01*
X33770000Y11946726D01*
X33770000Y11949999D01*
X33777437Y12014105D01*
X33779478Y12018730D01*
X33779811Y12021253D01*
X33794537Y12052835D01*
X33819001Y12108238D01*
X33891762Y12180999D01*
X33947165Y12205463D01*
X33978747Y12220189D01*
X33981270Y12220522D01*
X33985895Y12222563D01*
X34050002Y12229999D01*
X34053268Y12230000D01*
X34053276Y12230000D01*
X35946724Y12230000D01*
X35949999Y12230000D01*
X36014105Y12222563D01*
G37*
G36*
X57014105Y12222563D02*
G01*
X57018729Y12220522D01*
X57021252Y12220189D01*
X57052815Y12205471D01*
X57108238Y12180999D01*
X57180999Y12108238D01*
X57205479Y12052795D01*
X57220188Y12021253D01*
X57220519Y12018733D01*
X57222563Y12014105D01*
X57229999Y11949998D01*
X57229999Y11946733D01*
X57230000Y11946725D01*
X57230000Y10903504D01*
X57230000Y10050001D01*
X57222563Y9985895D01*
X57220519Y9981268D01*
X57220188Y9978748D01*
X57205488Y9947225D01*
X57180999Y9891762D01*
X57108238Y9819001D01*
X57052775Y9794512D01*
X57021252Y9779812D01*
X57018732Y9779481D01*
X57014105Y9777437D01*
X56949998Y9770001D01*
X56946731Y9770001D01*
X56946724Y9770000D01*
X55053276Y9770000D01*
X55053275Y9770001D01*
X55050001Y9770000D01*
X54985895Y9777437D01*
X54981267Y9779481D01*
X54978747Y9779812D01*
X54947205Y9794521D01*
X54891762Y9819001D01*
X54819001Y9891762D01*
X54794529Y9947185D01*
X54779811Y9978748D01*
X54779478Y9981271D01*
X54777437Y9985895D01*
X54770001Y10050002D01*
X54770000Y10053269D01*
X54770000Y10053276D01*
X54770000Y11946725D01*
X54770000Y11946726D01*
X54770000Y11949999D01*
X54777437Y12014105D01*
X54779478Y12018730D01*
X54779811Y12021253D01*
X54794537Y12052835D01*
X54819001Y12108238D01*
X54891762Y12180999D01*
X54947165Y12205463D01*
X54978747Y12220189D01*
X54981270Y12220522D01*
X54985895Y12222563D01*
X55050002Y12229999D01*
X55053268Y12230000D01*
X55053276Y12230000D01*
X56946724Y12230000D01*
X56949999Y12230000D01*
X57014105Y12222563D01*
G37*
G36*
X42787138Y12196015D02*
G01*
X42970701Y12136372D01*
X43142673Y12048747D01*
X43298821Y11935299D01*
X43435299Y11798821D01*
X43548747Y11642673D01*
X43636372Y11470701D01*
X43696015Y11287138D01*
X43726208Y11096505D01*
X43726208Y10903495D01*
X43696015Y10712862D01*
X43636372Y10529299D01*
X43548747Y10357327D01*
X43435299Y10201179D01*
X43298821Y10064701D01*
X43142673Y9951253D01*
X42970701Y9863628D01*
X42787138Y9803985D01*
X42596505Y9773792D01*
X42403495Y9773792D01*
X42212862Y9803985D01*
X42029299Y9863628D01*
X41857327Y9951253D01*
X41701179Y10064701D01*
X41564701Y10201179D01*
X41451253Y10357327D01*
X41363628Y10529299D01*
X41303985Y10712862D01*
X41273792Y10903495D01*
X41273792Y11096505D01*
X41303985Y11287138D01*
X41363628Y11470701D01*
X41451253Y11642673D01*
X41564701Y11798821D01*
X41701179Y11935299D01*
X41857327Y12048747D01*
X42029299Y12136372D01*
X42212862Y12196015D01*
X42403495Y12226208D01*
X42596505Y12226208D01*
X42787138Y12196015D01*
G37*
G36*
X63787138Y12196015D02*
G01*
X63970701Y12136372D01*
X64142673Y12048747D01*
X64298821Y11935299D01*
X64435299Y11798821D01*
X64548747Y11642673D01*
X64636372Y11470701D01*
X64696015Y11287138D01*
X64726208Y11096505D01*
X64726208Y10903495D01*
X64696015Y10712862D01*
X64636372Y10529299D01*
X64548747Y10357327D01*
X64435299Y10201179D01*
X64298821Y10064701D01*
X64142673Y9951253D01*
X63970701Y9863628D01*
X63787138Y9803985D01*
X63596505Y9773792D01*
X63403495Y9773792D01*
X63212862Y9803985D01*
X63029299Y9863628D01*
X62857327Y9951253D01*
X62701179Y10064701D01*
X62564701Y10201179D01*
X62451253Y10357327D01*
X62363628Y10529299D01*
X62303985Y10712862D01*
X62273792Y10903495D01*
X62273792Y11096505D01*
X62303985Y11287138D01*
X62363628Y11470701D01*
X62451253Y11642673D01*
X62564701Y11798821D01*
X62701179Y11935299D01*
X62857327Y12048747D01*
X63029299Y12136372D01*
X63212862Y12196015D01*
X63403495Y12226208D01*
X63596505Y12226208D01*
X63787138Y12196015D01*
G37*
G36*
X13854107Y14822563D02*
G01*
X13858731Y14820522D01*
X13861255Y14820189D01*
X13892844Y14805459D01*
X13948239Y14780999D01*
X14020999Y14708239D01*
X14045467Y14652824D01*
X14060188Y14621256D01*
X14060520Y14618734D01*
X14062563Y14614107D01*
X14069999Y14550000D01*
X14069999Y14546735D01*
X14070000Y14546727D01*
X14070000Y12240971D01*
X14070000Y11449999D01*
X14062563Y11385893D01*
X14060519Y11381266D01*
X14060188Y11378745D01*
X14045476Y11347196D01*
X14020999Y11291761D01*
X13948239Y11219001D01*
X13892804Y11194524D01*
X13861255Y11179812D01*
X13858734Y11179481D01*
X13854107Y11177437D01*
X13790000Y11170001D01*
X13786733Y11170001D01*
X13786726Y11170000D01*
X12213274Y11170000D01*
X12213273Y11170001D01*
X12209999Y11170000D01*
X12145893Y11177437D01*
X12141266Y11179480D01*
X12138744Y11179812D01*
X12107176Y11194533D01*
X12051761Y11219001D01*
X11979001Y11291761D01*
X11954541Y11347156D01*
X11939811Y11378745D01*
X11939478Y11381269D01*
X11937437Y11385893D01*
X11930001Y11450000D01*
X11930000Y11453267D01*
X11930000Y11453274D01*
X11930000Y14546727D01*
X11930000Y14546728D01*
X11930000Y14550001D01*
X11937437Y14614107D01*
X11939478Y14618731D01*
X11939811Y14621256D01*
X11954550Y14652864D01*
X11979001Y14708239D01*
X12051761Y14780999D01*
X12107136Y14805450D01*
X12138744Y14820189D01*
X12141269Y14820522D01*
X12145893Y14822563D01*
X12210000Y14829999D01*
X12213266Y14830000D01*
X12213274Y14830000D01*
X13786726Y14830000D01*
X13790001Y14830000D01*
X13854107Y14822563D01*
G37*
G36*
X18174669Y14824848D02*
G01*
X18184878Y14824848D01*
X18224767Y14816914D01*
X18329747Y14800287D01*
X18363518Y14789314D01*
X18390605Y14783926D01*
X18428830Y14768093D01*
X18489416Y14748407D01*
X18546172Y14719489D01*
X18584395Y14703656D01*
X18607356Y14688314D01*
X18638989Y14672196D01*
X18724983Y14609718D01*
X18758801Y14587121D01*
X18766018Y14579904D01*
X18774806Y14573519D01*
X18893518Y14454807D01*
X18899902Y14446020D01*
X18907121Y14438801D01*
X18929720Y14404979D01*
X18992195Y14318990D01*
X19008311Y14287360D01*
X19023656Y14264395D01*
X19039490Y14226168D01*
X19068406Y14169417D01*
X19088089Y14108839D01*
X19103926Y14070605D01*
X19109314Y14043514D01*
X19120286Y14009748D01*
X19136909Y13904787D01*
X19144848Y13864878D01*
X19145575Y13850072D01*
X19146701Y13842964D01*
X19149809Y13763883D01*
X19150000Y13760000D01*
X19150000Y12240000D01*
X19149809Y12236114D01*
X19146701Y12157037D01*
X19145575Y12149931D01*
X19144848Y12135122D01*
X19136908Y12095210D01*
X19120286Y11990253D01*
X19109315Y11956490D01*
X19103926Y11929395D01*
X19088087Y11891159D01*
X19068406Y11830584D01*
X19039492Y11773838D01*
X19023656Y11735605D01*
X19008309Y11712638D01*
X18992195Y11681011D01*
X18929728Y11595035D01*
X18907121Y11561199D01*
X18899899Y11553978D01*
X18893518Y11545194D01*
X18774806Y11426482D01*
X18766022Y11420101D01*
X18758801Y11412879D01*
X18724965Y11390272D01*
X18638989Y11327805D01*
X18607362Y11311691D01*
X18584395Y11296344D01*
X18546162Y11280508D01*
X18489416Y11251594D01*
X18428841Y11231913D01*
X18390605Y11216074D01*
X18363510Y11210685D01*
X18329747Y11199714D01*
X18224776Y11183089D01*
X18184878Y11175152D01*
X18174668Y11175152D01*
X18163941Y11173453D01*
X17996059Y11173453D01*
X17985332Y11175152D01*
X17975122Y11175152D01*
X17935225Y11183089D01*
X17830252Y11199714D01*
X17796486Y11210686D01*
X17769395Y11216074D01*
X17731161Y11231911D01*
X17670583Y11251594D01*
X17613832Y11280510D01*
X17575605Y11296344D01*
X17552640Y11311689D01*
X17521010Y11327805D01*
X17435021Y11390280D01*
X17401199Y11412879D01*
X17393980Y11420098D01*
X17385193Y11426482D01*
X17266481Y11545194D01*
X17260096Y11553982D01*
X17252879Y11561199D01*
X17230282Y11595017D01*
X17167804Y11681011D01*
X17151686Y11712644D01*
X17136344Y11735605D01*
X17120511Y11773828D01*
X17091593Y11830584D01*
X17071907Y11891170D01*
X17056074Y11929395D01*
X17050686Y11956482D01*
X17039713Y11990253D01*
X17023086Y12095235D01*
X17015152Y12135122D01*
X17014425Y12149922D01*
X17013298Y12157037D01*
X17010190Y12236120D01*
X17010000Y12240000D01*
X17010000Y13760000D01*
X17010190Y13763877D01*
X17013298Y13842964D01*
X17014425Y13850081D01*
X17015152Y13864878D01*
X17023085Y13904762D01*
X17039713Y14009748D01*
X17050686Y14043522D01*
X17056074Y14070605D01*
X17071905Y14108827D01*
X17091593Y14169417D01*
X17120514Y14226179D01*
X17136344Y14264395D01*
X17151684Y14287354D01*
X17167804Y14318990D01*
X17230290Y14404996D01*
X17252879Y14438801D01*
X17260093Y14446016D01*
X17266481Y14454807D01*
X17385193Y14573519D01*
X17393984Y14579907D01*
X17401199Y14587121D01*
X17435004Y14609710D01*
X17521010Y14672196D01*
X17552646Y14688316D01*
X17575605Y14703656D01*
X17613821Y14719486D01*
X17670583Y14748407D01*
X17731173Y14768095D01*
X17769395Y14783926D01*
X17796478Y14789314D01*
X17830252Y14800287D01*
X17935234Y14816914D01*
X17975122Y14824848D01*
X17985331Y14824848D01*
X17996059Y14826547D01*
X18163941Y14826547D01*
X18174669Y14824848D01*
G37*
G36*
X88114107Y21562563D02*
G01*
X88118731Y21560522D01*
X88121255Y21560189D01*
X88152844Y21545459D01*
X88208239Y21520999D01*
X88280999Y21448239D01*
X88305467Y21392824D01*
X88320188Y21361256D01*
X88320520Y21358734D01*
X88322563Y21354107D01*
X88329999Y21290000D01*
X88329999Y21286735D01*
X88330000Y21286727D01*
X88330000Y19713274D01*
X88330000Y19709999D01*
X88322563Y19645893D01*
X88320519Y19641266D01*
X88320188Y19638745D01*
X88305476Y19607196D01*
X88280999Y19551761D01*
X88208239Y19479001D01*
X88152804Y19454524D01*
X88121255Y19439812D01*
X88118734Y19439481D01*
X88114107Y19437437D01*
X88050000Y19430001D01*
X88046733Y19430001D01*
X88046726Y19430000D01*
X84953274Y19430000D01*
X84953273Y19430001D01*
X84949999Y19430000D01*
X84885893Y19437437D01*
X84881266Y19439480D01*
X84878744Y19439812D01*
X84847176Y19454533D01*
X84791761Y19479001D01*
X84719001Y19551761D01*
X84694541Y19607156D01*
X84679811Y19638745D01*
X84679478Y19641269D01*
X84677437Y19645893D01*
X84670001Y19710000D01*
X84670000Y19713267D01*
X84670000Y19713274D01*
X84670000Y21286727D01*
X84670000Y21286728D01*
X84670000Y21290001D01*
X84677437Y21354107D01*
X84679478Y21358731D01*
X84679811Y21361256D01*
X84694550Y21392864D01*
X84719001Y21448239D01*
X84791761Y21520999D01*
X84847136Y21545450D01*
X84878744Y21560189D01*
X84881269Y21560522D01*
X84885893Y21562563D01*
X84950000Y21569999D01*
X84953266Y21570000D01*
X84953274Y21570000D01*
X88046726Y21570000D01*
X88050001Y21570000D01*
X88114107Y21562563D01*
G37*
G36*
X56814106Y26022563D02*
G01*
X56818730Y26020522D01*
X56821253Y26020189D01*
X56852824Y26005467D01*
X56908238Y25980999D01*
X56980999Y25908238D01*
X57005476Y25852803D01*
X57020188Y25821254D01*
X57020519Y25818734D01*
X57022563Y25814106D01*
X57030000Y25750000D01*
X57030000Y24250000D01*
X57022563Y24185894D01*
X57020519Y24181267D01*
X57020188Y24178747D01*
X57005484Y24147217D01*
X56980999Y24091762D01*
X56908238Y24019001D01*
X56852783Y23994516D01*
X56821253Y23979812D01*
X56818733Y23979481D01*
X56814106Y23977437D01*
X56750000Y23970000D01*
X55250000Y23970000D01*
X55185894Y23977437D01*
X55181266Y23979481D01*
X55178746Y23979812D01*
X55147197Y23994524D01*
X55091762Y24019001D01*
X55019001Y24091762D01*
X54994533Y24147176D01*
X54979811Y24178747D01*
X54979478Y24181270D01*
X54977437Y24185894D01*
X54970000Y24250000D01*
X54970000Y25750000D01*
X54977437Y25814106D01*
X54979478Y25818731D01*
X54979811Y25821254D01*
X54994541Y25852843D01*
X55019001Y25908238D01*
X55091762Y25980999D01*
X55147157Y26005459D01*
X55178746Y26020189D01*
X55181269Y26020522D01*
X55185894Y26022563D01*
X55250000Y26030000D01*
X56750000Y26030000D01*
X56814106Y26022563D01*
G37*
G36*
X61091101Y26025040D02*
G01*
X61100958Y26025040D01*
X61139473Y26017379D01*
X61240409Y26001393D01*
X61272873Y25990845D01*
X61298993Y25985649D01*
X61335855Y25970381D01*
X61394109Y25951452D01*
X61448683Y25923646D01*
X61485539Y25908379D01*
X61507678Y25893586D01*
X61538089Y25878091D01*
X61620752Y25818033D01*
X61653425Y25796201D01*
X61660398Y25789228D01*
X61668828Y25783103D01*
X61783102Y25668829D01*
X61789226Y25660400D01*
X61796201Y25653425D01*
X61818035Y25620748D01*
X61878090Y25538090D01*
X61893583Y25507682D01*
X61908379Y25485539D01*
X61923647Y25448679D01*
X61951451Y25394110D01*
X61970376Y25335864D01*
X61985649Y25298993D01*
X61990845Y25272869D01*
X62001392Y25240410D01*
X62017377Y25139479D01*
X62025040Y25100958D01*
X62025040Y25091102D01*
X62026671Y25080804D01*
X62026671Y24919197D01*
X62025040Y24908900D01*
X62025040Y24899042D01*
X62017377Y24860518D01*
X62001392Y24759591D01*
X61990845Y24727134D01*
X61985649Y24701007D01*
X61970375Y24664134D01*
X61951451Y24605891D01*
X61923649Y24551327D01*
X61908379Y24514461D01*
X61893581Y24492316D01*
X61878090Y24461911D01*
X61818043Y24379265D01*
X61796201Y24346575D01*
X61789223Y24339598D01*
X61783102Y24331172D01*
X61668828Y24216898D01*
X61660402Y24210777D01*
X61653425Y24203799D01*
X61620735Y24181957D01*
X61538089Y24121910D01*
X61507684Y24106419D01*
X61485539Y24091621D01*
X61448673Y24076351D01*
X61394109Y24048549D01*
X61335866Y24029625D01*
X61298993Y24014351D01*
X61272866Y24009155D01*
X61240409Y23998608D01*
X61139482Y23982623D01*
X61100958Y23974960D01*
X61091101Y23974960D01*
X61080803Y23973329D01*
X60919197Y23973329D01*
X60908899Y23974960D01*
X60899042Y23974960D01*
X60860518Y23982623D01*
X60759590Y23998608D01*
X60727131Y24009155D01*
X60701007Y24014351D01*
X60664136Y24029624D01*
X60605890Y24048549D01*
X60551321Y24076353D01*
X60514461Y24091621D01*
X60492318Y24106417D01*
X60461910Y24121910D01*
X60379252Y24181965D01*
X60346575Y24203799D01*
X60339600Y24210774D01*
X60331171Y24216898D01*
X60216897Y24331172D01*
X60210772Y24339602D01*
X60203799Y24346575D01*
X60181967Y24379248D01*
X60121909Y24461911D01*
X60106414Y24492322D01*
X60091621Y24514461D01*
X60076354Y24551317D01*
X60048548Y24605891D01*
X60029619Y24664145D01*
X60014351Y24701007D01*
X60009155Y24727127D01*
X59998607Y24759591D01*
X59982621Y24860527D01*
X59974960Y24899042D01*
X59974960Y24908899D01*
X59973329Y24919197D01*
X59973329Y25080804D01*
X59974960Y25091103D01*
X59974960Y25100958D01*
X59982620Y25139470D01*
X59998607Y25240410D01*
X60009156Y25272877D01*
X60014351Y25298993D01*
X60029618Y25335852D01*
X60048548Y25394110D01*
X60076357Y25448689D01*
X60091621Y25485539D01*
X60106412Y25507676D01*
X60121909Y25538090D01*
X60181976Y25620765D01*
X60203799Y25653425D01*
X60210770Y25660397D01*
X60216897Y25668829D01*
X60331171Y25783103D01*
X60339603Y25789230D01*
X60346575Y25796201D01*
X60379235Y25818024D01*
X60461910Y25878091D01*
X60492324Y25893588D01*
X60514461Y25908379D01*
X60551311Y25923643D01*
X60605890Y25951452D01*
X60664148Y25970382D01*
X60701007Y25985649D01*
X60727123Y25990844D01*
X60759590Y26001393D01*
X60860528Y26017380D01*
X60899042Y26025040D01*
X60908899Y26025040D01*
X60919197Y26026671D01*
X61080803Y26026671D01*
X61091101Y26025040D01*
G37*
G36*
X87263880Y26649810D02*
G01*
X87342963Y26646702D01*
X87350078Y26645575D01*
X87364878Y26644848D01*
X87404765Y26636914D01*
X87509747Y26620287D01*
X87543518Y26609314D01*
X87570605Y26603926D01*
X87608830Y26588093D01*
X87669416Y26568407D01*
X87726172Y26539489D01*
X87764395Y26523656D01*
X87787356Y26508314D01*
X87818989Y26492196D01*
X87904983Y26429718D01*
X87938801Y26407121D01*
X87946018Y26399904D01*
X87954806Y26393519D01*
X88073518Y26274807D01*
X88079902Y26266020D01*
X88087121Y26258801D01*
X88109720Y26224979D01*
X88172195Y26138990D01*
X88188311Y26107360D01*
X88203656Y26084395D01*
X88219490Y26046168D01*
X88248406Y25989417D01*
X88268089Y25928839D01*
X88283926Y25890605D01*
X88289314Y25863514D01*
X88300286Y25829748D01*
X88316912Y25724773D01*
X88324848Y25684878D01*
X88324848Y25674670D01*
X88326547Y25663942D01*
X88326547Y25496059D01*
X88324848Y25485332D01*
X88324848Y25475122D01*
X88316911Y25435224D01*
X88300286Y25330253D01*
X88289315Y25296490D01*
X88283926Y25269395D01*
X88268087Y25231159D01*
X88248406Y25170584D01*
X88219492Y25113838D01*
X88203656Y25075605D01*
X88188309Y25052638D01*
X88172195Y25021011D01*
X88109728Y24935035D01*
X88087121Y24901199D01*
X88079899Y24893978D01*
X88073518Y24885194D01*
X87954806Y24766482D01*
X87946022Y24760101D01*
X87938801Y24752879D01*
X87904965Y24730272D01*
X87818989Y24667805D01*
X87787362Y24651691D01*
X87764395Y24636344D01*
X87726162Y24620508D01*
X87669416Y24591594D01*
X87608841Y24571913D01*
X87570605Y24556074D01*
X87543510Y24550685D01*
X87509747Y24539714D01*
X87404790Y24523092D01*
X87364878Y24515152D01*
X87350069Y24514425D01*
X87342963Y24513299D01*
X87263886Y24510191D01*
X87260000Y24510000D01*
X87259029Y24510000D01*
X85740971Y24510000D01*
X85740000Y24510000D01*
X85736113Y24510191D01*
X85657036Y24513299D01*
X85649928Y24514425D01*
X85635122Y24515152D01*
X85595213Y24523091D01*
X85490252Y24539714D01*
X85456486Y24550686D01*
X85429395Y24556074D01*
X85391161Y24571911D01*
X85330583Y24591594D01*
X85273832Y24620510D01*
X85235605Y24636344D01*
X85212640Y24651689D01*
X85181010Y24667805D01*
X85095021Y24730280D01*
X85061199Y24752879D01*
X85053980Y24760098D01*
X85045193Y24766482D01*
X84926481Y24885194D01*
X84920096Y24893982D01*
X84912879Y24901199D01*
X84890282Y24935017D01*
X84827804Y25021011D01*
X84811686Y25052644D01*
X84796344Y25075605D01*
X84780511Y25113828D01*
X84751593Y25170584D01*
X84731907Y25231170D01*
X84716074Y25269395D01*
X84710686Y25296482D01*
X84699713Y25330253D01*
X84683086Y25435233D01*
X84675152Y25475122D01*
X84675152Y25485332D01*
X84673453Y25496059D01*
X84673453Y25663942D01*
X84675152Y25674670D01*
X84675152Y25684878D01*
X84683085Y25724764D01*
X84699713Y25829748D01*
X84710686Y25863522D01*
X84716074Y25890605D01*
X84731905Y25928827D01*
X84751593Y25989417D01*
X84780514Y26046179D01*
X84796344Y26084395D01*
X84811684Y26107354D01*
X84827804Y26138990D01*
X84890290Y26224996D01*
X84912879Y26258801D01*
X84920093Y26266016D01*
X84926481Y26274807D01*
X85045193Y26393519D01*
X85053984Y26399907D01*
X85061199Y26407121D01*
X85095004Y26429710D01*
X85181010Y26492196D01*
X85212646Y26508316D01*
X85235605Y26523656D01*
X85273821Y26539486D01*
X85330583Y26568407D01*
X85391173Y26588095D01*
X85429395Y26603926D01*
X85456478Y26609314D01*
X85490252Y26620287D01*
X85595238Y26636915D01*
X85635122Y26644848D01*
X85649919Y26645575D01*
X85657036Y26646702D01*
X85736119Y26649810D01*
X85740000Y26650000D01*
X87260000Y26650000D01*
X87263880Y26649810D01*
G37*
G36*
X88114107Y40562563D02*
G01*
X88118731Y40560522D01*
X88121255Y40560189D01*
X88152844Y40545459D01*
X88208239Y40520999D01*
X88280999Y40448239D01*
X88305467Y40392824D01*
X88320188Y40361256D01*
X88320520Y40358734D01*
X88322563Y40354107D01*
X88329999Y40290000D01*
X88329999Y40286735D01*
X88330000Y40286727D01*
X88330000Y38713274D01*
X88330000Y38709999D01*
X88322563Y38645893D01*
X88320519Y38641266D01*
X88320188Y38638745D01*
X88305476Y38607196D01*
X88280999Y38551761D01*
X88208239Y38479001D01*
X88152804Y38454524D01*
X88121255Y38439812D01*
X88118734Y38439481D01*
X88114107Y38437437D01*
X88050000Y38430001D01*
X88046733Y38430001D01*
X88046726Y38430000D01*
X84953274Y38430000D01*
X84953273Y38430001D01*
X84949999Y38430000D01*
X84885893Y38437437D01*
X84881266Y38439480D01*
X84878744Y38439812D01*
X84847176Y38454533D01*
X84791761Y38479001D01*
X84719001Y38551761D01*
X84694541Y38607156D01*
X84679811Y38638745D01*
X84679478Y38641269D01*
X84677437Y38645893D01*
X84670001Y38710000D01*
X84670000Y38713267D01*
X84670000Y38713274D01*
X84670000Y40286727D01*
X84670000Y40286728D01*
X84670000Y40290001D01*
X84677437Y40354107D01*
X84679478Y40358731D01*
X84679811Y40361256D01*
X84694550Y40392864D01*
X84719001Y40448239D01*
X84791761Y40520999D01*
X84847136Y40545450D01*
X84878744Y40560189D01*
X84881269Y40560522D01*
X84885893Y40562563D01*
X84950000Y40569999D01*
X84953266Y40570000D01*
X84953274Y40570000D01*
X88046726Y40570000D01*
X88050001Y40570000D01*
X88114107Y40562563D01*
G37*
G36*
X56814106Y45022563D02*
G01*
X56818730Y45020522D01*
X56821253Y45020189D01*
X56852824Y45005467D01*
X56908238Y44980999D01*
X56980999Y44908238D01*
X57005476Y44852803D01*
X57020188Y44821254D01*
X57020519Y44818734D01*
X57022563Y44814106D01*
X57030000Y44750000D01*
X57030000Y43250000D01*
X57022563Y43185894D01*
X57020519Y43181267D01*
X57020188Y43178747D01*
X57005484Y43147217D01*
X56980999Y43091762D01*
X56908238Y43019001D01*
X56852783Y42994516D01*
X56821253Y42979812D01*
X56818733Y42979481D01*
X56814106Y42977437D01*
X56750000Y42970000D01*
X55250000Y42970000D01*
X55185894Y42977437D01*
X55181266Y42979481D01*
X55178746Y42979812D01*
X55147197Y42994524D01*
X55091762Y43019001D01*
X55019001Y43091762D01*
X54994533Y43147176D01*
X54979811Y43178747D01*
X54979478Y43181270D01*
X54977437Y43185894D01*
X54970000Y43250000D01*
X54970000Y44750000D01*
X54977437Y44814106D01*
X54979478Y44818731D01*
X54979811Y44821254D01*
X54994541Y44852843D01*
X55019001Y44908238D01*
X55091762Y44980999D01*
X55147157Y45005459D01*
X55178746Y45020189D01*
X55181269Y45020522D01*
X55185894Y45022563D01*
X55250000Y45030000D01*
X56750000Y45030000D01*
X56814106Y45022563D01*
G37*
G36*
X61091101Y45025040D02*
G01*
X61100958Y45025040D01*
X61139473Y45017379D01*
X61240409Y45001393D01*
X61272873Y44990845D01*
X61298993Y44985649D01*
X61335855Y44970381D01*
X61394109Y44951452D01*
X61448683Y44923646D01*
X61485539Y44908379D01*
X61507678Y44893586D01*
X61538089Y44878091D01*
X61620752Y44818033D01*
X61653425Y44796201D01*
X61660398Y44789228D01*
X61668828Y44783103D01*
X61783102Y44668829D01*
X61789226Y44660400D01*
X61796201Y44653425D01*
X61818035Y44620748D01*
X61878090Y44538090D01*
X61893583Y44507682D01*
X61908379Y44485539D01*
X61923647Y44448679D01*
X61951451Y44394110D01*
X61970376Y44335864D01*
X61985649Y44298993D01*
X61990845Y44272869D01*
X62001392Y44240410D01*
X62017377Y44139479D01*
X62025040Y44100958D01*
X62025040Y44091102D01*
X62026671Y44080804D01*
X62026671Y43919197D01*
X62025040Y43908900D01*
X62025040Y43899042D01*
X62017377Y43860518D01*
X62001392Y43759591D01*
X61990845Y43727134D01*
X61985649Y43701007D01*
X61970375Y43664134D01*
X61951451Y43605891D01*
X61923649Y43551327D01*
X61908379Y43514461D01*
X61893581Y43492316D01*
X61878090Y43461911D01*
X61818043Y43379265D01*
X61796201Y43346575D01*
X61789223Y43339598D01*
X61783102Y43331172D01*
X61668828Y43216898D01*
X61660402Y43210777D01*
X61653425Y43203799D01*
X61620735Y43181957D01*
X61538089Y43121910D01*
X61507684Y43106419D01*
X61485539Y43091621D01*
X61448673Y43076351D01*
X61394109Y43048549D01*
X61335866Y43029625D01*
X61298993Y43014351D01*
X61272866Y43009155D01*
X61240409Y42998608D01*
X61139482Y42982623D01*
X61100958Y42974960D01*
X61091101Y42974960D01*
X61080803Y42973329D01*
X60919197Y42973329D01*
X60908899Y42974960D01*
X60899042Y42974960D01*
X60860518Y42982623D01*
X60759590Y42998608D01*
X60727131Y43009155D01*
X60701007Y43014351D01*
X60664136Y43029624D01*
X60605890Y43048549D01*
X60551321Y43076353D01*
X60514461Y43091621D01*
X60492318Y43106417D01*
X60461910Y43121910D01*
X60379252Y43181965D01*
X60346575Y43203799D01*
X60339600Y43210774D01*
X60331171Y43216898D01*
X60216897Y43331172D01*
X60210772Y43339602D01*
X60203799Y43346575D01*
X60181967Y43379248D01*
X60121909Y43461911D01*
X60106414Y43492322D01*
X60091621Y43514461D01*
X60076354Y43551317D01*
X60048548Y43605891D01*
X60029619Y43664145D01*
X60014351Y43701007D01*
X60009155Y43727127D01*
X59998607Y43759591D01*
X59982621Y43860527D01*
X59974960Y43899042D01*
X59974960Y43908899D01*
X59973329Y43919197D01*
X59973329Y44080804D01*
X59974960Y44091103D01*
X59974960Y44100958D01*
X59982620Y44139470D01*
X59998607Y44240410D01*
X60009156Y44272877D01*
X60014351Y44298993D01*
X60029618Y44335852D01*
X60048548Y44394110D01*
X60076357Y44448689D01*
X60091621Y44485539D01*
X60106412Y44507676D01*
X60121909Y44538090D01*
X60181976Y44620765D01*
X60203799Y44653425D01*
X60210770Y44660397D01*
X60216897Y44668829D01*
X60331171Y44783103D01*
X60339603Y44789230D01*
X60346575Y44796201D01*
X60379235Y44818024D01*
X60461910Y44878091D01*
X60492324Y44893588D01*
X60514461Y44908379D01*
X60551311Y44923643D01*
X60605890Y44951452D01*
X60664148Y44970382D01*
X60701007Y44985649D01*
X60727123Y44990844D01*
X60759590Y45001393D01*
X60860528Y45017380D01*
X60899042Y45025040D01*
X60908899Y45025040D01*
X60919197Y45026671D01*
X61080803Y45026671D01*
X61091101Y45025040D01*
G37*
G36*
X87263880Y45649810D02*
G01*
X87342963Y45646702D01*
X87350078Y45645575D01*
X87364878Y45644848D01*
X87404765Y45636914D01*
X87509747Y45620287D01*
X87543518Y45609314D01*
X87570605Y45603926D01*
X87608830Y45588093D01*
X87669416Y45568407D01*
X87726172Y45539489D01*
X87764395Y45523656D01*
X87787356Y45508314D01*
X87818989Y45492196D01*
X87904983Y45429718D01*
X87938801Y45407121D01*
X87946018Y45399904D01*
X87954806Y45393519D01*
X88073518Y45274807D01*
X88079902Y45266020D01*
X88087121Y45258801D01*
X88109720Y45224979D01*
X88172195Y45138990D01*
X88188311Y45107360D01*
X88203656Y45084395D01*
X88219490Y45046168D01*
X88248406Y44989417D01*
X88268089Y44928839D01*
X88283926Y44890605D01*
X88289314Y44863514D01*
X88300286Y44829748D01*
X88316912Y44724773D01*
X88324848Y44684878D01*
X88324848Y44674670D01*
X88326547Y44663942D01*
X88326547Y44496059D01*
X88324848Y44485332D01*
X88324848Y44475122D01*
X88316911Y44435224D01*
X88300286Y44330253D01*
X88289315Y44296490D01*
X88283926Y44269395D01*
X88268087Y44231159D01*
X88248406Y44170584D01*
X88219492Y44113838D01*
X88203656Y44075605D01*
X88188309Y44052638D01*
X88172195Y44021011D01*
X88109728Y43935035D01*
X88087121Y43901199D01*
X88079899Y43893978D01*
X88073518Y43885194D01*
X87954806Y43766482D01*
X87946022Y43760101D01*
X87938801Y43752879D01*
X87904965Y43730272D01*
X87818989Y43667805D01*
X87787362Y43651691D01*
X87764395Y43636344D01*
X87726162Y43620508D01*
X87669416Y43591594D01*
X87608841Y43571913D01*
X87570605Y43556074D01*
X87543510Y43550685D01*
X87509747Y43539714D01*
X87404790Y43523092D01*
X87364878Y43515152D01*
X87350069Y43514425D01*
X87342963Y43513299D01*
X87263886Y43510191D01*
X87260000Y43510000D01*
X87259029Y43510000D01*
X85740971Y43510000D01*
X85740000Y43510000D01*
X85736113Y43510191D01*
X85657036Y43513299D01*
X85649928Y43514425D01*
X85635122Y43515152D01*
X85595213Y43523091D01*
X85490252Y43539714D01*
X85456486Y43550686D01*
X85429395Y43556074D01*
X85391161Y43571911D01*
X85330583Y43591594D01*
X85273832Y43620510D01*
X85235605Y43636344D01*
X85212640Y43651689D01*
X85181010Y43667805D01*
X85095021Y43730280D01*
X85061199Y43752879D01*
X85053980Y43760098D01*
X85045193Y43766482D01*
X84926481Y43885194D01*
X84920096Y43893982D01*
X84912879Y43901199D01*
X84890282Y43935017D01*
X84827804Y44021011D01*
X84811686Y44052644D01*
X84796344Y44075605D01*
X84780511Y44113828D01*
X84751593Y44170584D01*
X84731907Y44231170D01*
X84716074Y44269395D01*
X84710686Y44296482D01*
X84699713Y44330253D01*
X84683086Y44435233D01*
X84675152Y44475122D01*
X84675152Y44485332D01*
X84673453Y44496059D01*
X84673453Y44663942D01*
X84675152Y44674670D01*
X84675152Y44684878D01*
X84683085Y44724764D01*
X84699713Y44829748D01*
X84710686Y44863522D01*
X84716074Y44890605D01*
X84731905Y44928827D01*
X84751593Y44989417D01*
X84780514Y45046179D01*
X84796344Y45084395D01*
X84811684Y45107354D01*
X84827804Y45138990D01*
X84890290Y45224996D01*
X84912879Y45258801D01*
X84920093Y45266016D01*
X84926481Y45274807D01*
X85045193Y45393519D01*
X85053984Y45399907D01*
X85061199Y45407121D01*
X85095004Y45429710D01*
X85181010Y45492196D01*
X85212646Y45508316D01*
X85235605Y45523656D01*
X85273821Y45539486D01*
X85330583Y45568407D01*
X85391173Y45588095D01*
X85429395Y45603926D01*
X85456478Y45609314D01*
X85490252Y45620287D01*
X85595238Y45636915D01*
X85635122Y45644848D01*
X85649919Y45645575D01*
X85657036Y45646702D01*
X85736119Y45649810D01*
X85740000Y45650000D01*
X87260000Y45650000D01*
X87263880Y45649810D01*
G37*
G36*
X4783688Y48443462D02*
G01*
X4892205Y48380810D01*
X4980810Y48292205D01*
X5043462Y48183688D01*
X5075894Y48062653D01*
X5075894Y47937347D01*
X5043462Y47816312D01*
X4980810Y47707795D01*
X4892205Y47619190D01*
X4783688Y47556538D01*
X4662653Y47524106D01*
X4537347Y47524106D01*
X4416312Y47556538D01*
X4307795Y47619190D01*
X4219190Y47707795D01*
X4156538Y47816312D01*
X4124106Y47937347D01*
X4124106Y48062653D01*
X4156538Y48183688D01*
X4219190Y48292205D01*
X4307795Y48380810D01*
X4416312Y48443462D01*
X4537347Y48475894D01*
X4662653Y48475894D01*
X4783688Y48443462D01*
G37*
G36*
X11583688Y48443462D02*
G01*
X11692205Y48380810D01*
X11780810Y48292205D01*
X11843462Y48183688D01*
X11875894Y48062653D01*
X11875894Y47937347D01*
X11843462Y47816312D01*
X11780810Y47707795D01*
X11692205Y47619190D01*
X11583688Y47556538D01*
X11462653Y47524106D01*
X11337347Y47524106D01*
X11216312Y47556538D01*
X11107795Y47619190D01*
X11019190Y47707795D01*
X10956538Y47816312D01*
X10924106Y47937347D01*
X10924106Y48062653D01*
X10956538Y48183688D01*
X11019190Y48292205D01*
X11107795Y48380810D01*
X11216312Y48443462D01*
X11337347Y48475894D01*
X11462653Y48475894D01*
X11583688Y48443462D01*
G37*
G36*
X88114107Y59562563D02*
G01*
X88118731Y59560522D01*
X88121255Y59560189D01*
X88152844Y59545459D01*
X88208239Y59520999D01*
X88280999Y59448239D01*
X88305467Y59392824D01*
X88320188Y59361256D01*
X88320520Y59358734D01*
X88322563Y59354107D01*
X88329999Y59290000D01*
X88329999Y59286735D01*
X88330000Y59286727D01*
X88330000Y57713274D01*
X88330000Y57709999D01*
X88322563Y57645893D01*
X88320519Y57641266D01*
X88320188Y57638745D01*
X88305476Y57607196D01*
X88280999Y57551761D01*
X88208239Y57479001D01*
X88152804Y57454524D01*
X88121255Y57439812D01*
X88118734Y57439481D01*
X88114107Y57437437D01*
X88050000Y57430001D01*
X88046733Y57430001D01*
X88046726Y57430000D01*
X84953274Y57430000D01*
X84953273Y57430001D01*
X84949999Y57430000D01*
X84885893Y57437437D01*
X84881266Y57439480D01*
X84878744Y57439812D01*
X84847176Y57454533D01*
X84791761Y57479001D01*
X84719001Y57551761D01*
X84694541Y57607156D01*
X84679811Y57638745D01*
X84679478Y57641269D01*
X84677437Y57645893D01*
X84670001Y57710000D01*
X84670000Y57713267D01*
X84670000Y57713274D01*
X84670000Y59286727D01*
X84670000Y59286728D01*
X84670000Y59290001D01*
X84677437Y59354107D01*
X84679478Y59358731D01*
X84679811Y59361256D01*
X84694550Y59392864D01*
X84719001Y59448239D01*
X84791761Y59520999D01*
X84847136Y59545450D01*
X84878744Y59560189D01*
X84881269Y59560522D01*
X84885893Y59562563D01*
X84950000Y59569999D01*
X84953266Y59570000D01*
X84953274Y59570000D01*
X88046726Y59570000D01*
X88050001Y59570000D01*
X88114107Y59562563D01*
G37*
G36*
X56814106Y64022563D02*
G01*
X56818730Y64020522D01*
X56821253Y64020189D01*
X56852824Y64005467D01*
X56908238Y63980999D01*
X56980999Y63908238D01*
X57005476Y63852803D01*
X57020188Y63821254D01*
X57020519Y63818734D01*
X57022563Y63814106D01*
X57030000Y63750000D01*
X57030000Y62250000D01*
X57022563Y62185894D01*
X57020519Y62181267D01*
X57020188Y62178747D01*
X57005484Y62147217D01*
X56980999Y62091762D01*
X56908238Y62019001D01*
X56852783Y61994516D01*
X56821253Y61979812D01*
X56818733Y61979481D01*
X56814106Y61977437D01*
X56750000Y61970000D01*
X55250000Y61970000D01*
X55185894Y61977437D01*
X55181266Y61979481D01*
X55178746Y61979812D01*
X55147197Y61994524D01*
X55091762Y62019001D01*
X55019001Y62091762D01*
X54994533Y62147176D01*
X54979811Y62178747D01*
X54979478Y62181270D01*
X54977437Y62185894D01*
X54970000Y62250000D01*
X54970000Y63750000D01*
X54977437Y63814106D01*
X54979478Y63818731D01*
X54979811Y63821254D01*
X54994541Y63852843D01*
X55019001Y63908238D01*
X55091762Y63980999D01*
X55147157Y64005459D01*
X55178746Y64020189D01*
X55181269Y64020522D01*
X55185894Y64022563D01*
X55250000Y64030000D01*
X56750000Y64030000D01*
X56814106Y64022563D01*
G37*
G36*
X61091101Y64025040D02*
G01*
X61100958Y64025040D01*
X61139473Y64017379D01*
X61240409Y64001393D01*
X61272873Y63990845D01*
X61298993Y63985649D01*
X61335855Y63970381D01*
X61394109Y63951452D01*
X61448683Y63923646D01*
X61485539Y63908379D01*
X61507678Y63893586D01*
X61538089Y63878091D01*
X61620752Y63818033D01*
X61653425Y63796201D01*
X61660398Y63789228D01*
X61668828Y63783103D01*
X61783102Y63668829D01*
X61789226Y63660400D01*
X61796201Y63653425D01*
X61818035Y63620748D01*
X61878090Y63538090D01*
X61893583Y63507682D01*
X61908379Y63485539D01*
X61923647Y63448679D01*
X61951451Y63394110D01*
X61970376Y63335864D01*
X61985649Y63298993D01*
X61990845Y63272869D01*
X62001392Y63240410D01*
X62017377Y63139479D01*
X62025040Y63100958D01*
X62025040Y63091102D01*
X62026671Y63080804D01*
X62026671Y62919197D01*
X62025040Y62908900D01*
X62025040Y62899042D01*
X62017377Y62860518D01*
X62001392Y62759591D01*
X61990845Y62727134D01*
X61985649Y62701007D01*
X61970375Y62664134D01*
X61951451Y62605891D01*
X61923649Y62551327D01*
X61908379Y62514461D01*
X61893581Y62492316D01*
X61878090Y62461911D01*
X61818043Y62379265D01*
X61796201Y62346575D01*
X61789223Y62339598D01*
X61783102Y62331172D01*
X61668828Y62216898D01*
X61660402Y62210777D01*
X61653425Y62203799D01*
X61620735Y62181957D01*
X61538089Y62121910D01*
X61507684Y62106419D01*
X61485539Y62091621D01*
X61448673Y62076351D01*
X61394109Y62048549D01*
X61335866Y62029625D01*
X61298993Y62014351D01*
X61272866Y62009155D01*
X61240409Y61998608D01*
X61139482Y61982623D01*
X61100958Y61974960D01*
X61091101Y61974960D01*
X61080803Y61973329D01*
X60919197Y61973329D01*
X60908899Y61974960D01*
X60899042Y61974960D01*
X60860518Y61982623D01*
X60759590Y61998608D01*
X60727131Y62009155D01*
X60701007Y62014351D01*
X60664136Y62029624D01*
X60605890Y62048549D01*
X60551321Y62076353D01*
X60514461Y62091621D01*
X60492318Y62106417D01*
X60461910Y62121910D01*
X60379252Y62181965D01*
X60346575Y62203799D01*
X60339600Y62210774D01*
X60331171Y62216898D01*
X60216897Y62331172D01*
X60210772Y62339602D01*
X60203799Y62346575D01*
X60181967Y62379248D01*
X60121909Y62461911D01*
X60106414Y62492322D01*
X60091621Y62514461D01*
X60076354Y62551317D01*
X60048548Y62605891D01*
X60029619Y62664145D01*
X60014351Y62701007D01*
X60009155Y62727127D01*
X59998607Y62759591D01*
X59982621Y62860527D01*
X59974960Y62899042D01*
X59974960Y62908899D01*
X59973329Y62919197D01*
X59973329Y63080804D01*
X59974960Y63091103D01*
X59974960Y63100958D01*
X59982620Y63139470D01*
X59998607Y63240410D01*
X60009156Y63272877D01*
X60014351Y63298993D01*
X60029618Y63335852D01*
X60048548Y63394110D01*
X60076357Y63448689D01*
X60091621Y63485539D01*
X60106412Y63507676D01*
X60121909Y63538090D01*
X60181976Y63620765D01*
X60203799Y63653425D01*
X60210770Y63660397D01*
X60216897Y63668829D01*
X60331171Y63783103D01*
X60339603Y63789230D01*
X60346575Y63796201D01*
X60379235Y63818024D01*
X60461910Y63878091D01*
X60492324Y63893588D01*
X60514461Y63908379D01*
X60551311Y63923643D01*
X60605890Y63951452D01*
X60664148Y63970382D01*
X60701007Y63985649D01*
X60727123Y63990844D01*
X60759590Y64001393D01*
X60860528Y64017380D01*
X60899042Y64025040D01*
X60908899Y64025040D01*
X60919197Y64026671D01*
X61080803Y64026671D01*
X61091101Y64025040D01*
G37*
G36*
X87263880Y64649810D02*
G01*
X87342963Y64646702D01*
X87350078Y64645575D01*
X87364878Y64644848D01*
X87404765Y64636914D01*
X87509747Y64620287D01*
X87543518Y64609314D01*
X87570605Y64603926D01*
X87608830Y64588093D01*
X87669416Y64568407D01*
X87726172Y64539489D01*
X87764395Y64523656D01*
X87787356Y64508314D01*
X87818989Y64492196D01*
X87904983Y64429718D01*
X87938801Y64407121D01*
X87946018Y64399904D01*
X87954806Y64393519D01*
X88073518Y64274807D01*
X88079902Y64266020D01*
X88087121Y64258801D01*
X88109720Y64224979D01*
X88172195Y64138990D01*
X88188311Y64107360D01*
X88203656Y64084395D01*
X88219490Y64046168D01*
X88248406Y63989417D01*
X88268089Y63928839D01*
X88283926Y63890605D01*
X88289314Y63863514D01*
X88300286Y63829748D01*
X88316912Y63724773D01*
X88324848Y63684878D01*
X88324848Y63674670D01*
X88326547Y63663942D01*
X88326547Y63496059D01*
X88324848Y63485332D01*
X88324848Y63475122D01*
X88316911Y63435224D01*
X88300286Y63330253D01*
X88289315Y63296490D01*
X88283926Y63269395D01*
X88268087Y63231159D01*
X88248406Y63170584D01*
X88219492Y63113838D01*
X88203656Y63075605D01*
X88188309Y63052638D01*
X88172195Y63021011D01*
X88109728Y62935035D01*
X88087121Y62901199D01*
X88079899Y62893978D01*
X88073518Y62885194D01*
X87954806Y62766482D01*
X87946022Y62760101D01*
X87938801Y62752879D01*
X87904965Y62730272D01*
X87818989Y62667805D01*
X87787362Y62651691D01*
X87764395Y62636344D01*
X87726162Y62620508D01*
X87669416Y62591594D01*
X87608841Y62571913D01*
X87570605Y62556074D01*
X87543510Y62550685D01*
X87509747Y62539714D01*
X87404790Y62523092D01*
X87364878Y62515152D01*
X87350069Y62514425D01*
X87342963Y62513299D01*
X87263886Y62510191D01*
X87260000Y62510000D01*
X87259029Y62510000D01*
X85740971Y62510000D01*
X85740000Y62510000D01*
X85736113Y62510191D01*
X85657036Y62513299D01*
X85649928Y62514425D01*
X85635122Y62515152D01*
X85595213Y62523091D01*
X85490252Y62539714D01*
X85456486Y62550686D01*
X85429395Y62556074D01*
X85391161Y62571911D01*
X85330583Y62591594D01*
X85273832Y62620510D01*
X85235605Y62636344D01*
X85212640Y62651689D01*
X85181010Y62667805D01*
X85095021Y62730280D01*
X85061199Y62752879D01*
X85053980Y62760098D01*
X85045193Y62766482D01*
X84926481Y62885194D01*
X84920096Y62893982D01*
X84912879Y62901199D01*
X84890282Y62935017D01*
X84827804Y63021011D01*
X84811686Y63052644D01*
X84796344Y63075605D01*
X84780511Y63113828D01*
X84751593Y63170584D01*
X84731907Y63231170D01*
X84716074Y63269395D01*
X84710686Y63296482D01*
X84699713Y63330253D01*
X84683086Y63435233D01*
X84675152Y63475122D01*
X84675152Y63485332D01*
X84673453Y63496059D01*
X84673453Y63663942D01*
X84675152Y63674670D01*
X84675152Y63684878D01*
X84683085Y63724764D01*
X84699713Y63829748D01*
X84710686Y63863522D01*
X84716074Y63890605D01*
X84731905Y63928827D01*
X84751593Y63989417D01*
X84780514Y64046179D01*
X84796344Y64084395D01*
X84811684Y64107354D01*
X84827804Y64138990D01*
X84890290Y64224996D01*
X84912879Y64258801D01*
X84920093Y64266016D01*
X84926481Y64274807D01*
X85045193Y64393519D01*
X85053984Y64399907D01*
X85061199Y64407121D01*
X85095004Y64429710D01*
X85181010Y64492196D01*
X85212646Y64508316D01*
X85235605Y64523656D01*
X85273821Y64539486D01*
X85330583Y64568407D01*
X85391173Y64588095D01*
X85429395Y64603926D01*
X85456478Y64609314D01*
X85490252Y64620287D01*
X85595238Y64636915D01*
X85635122Y64644848D01*
X85649919Y64645575D01*
X85657036Y64646702D01*
X85736119Y64649810D01*
X85740000Y64650000D01*
X87260000Y64650000D01*
X87263880Y64649810D01*
G37*
G36*
X8269965Y65109955D02*
G01*
X8438399Y65040187D01*
X8589986Y64938900D01*
X8718900Y64809986D01*
X8820187Y64658399D01*
X8889955Y64489965D01*
X8925522Y64311156D01*
X8925522Y64128844D01*
X8889955Y63950035D01*
X8820187Y63781601D01*
X8718900Y63630014D01*
X8589986Y63501100D01*
X8438399Y63399813D01*
X8269965Y63330045D01*
X8091156Y63294478D01*
X7908844Y63294478D01*
X7730035Y63330045D01*
X7561601Y63399813D01*
X7410014Y63501100D01*
X7281100Y63630014D01*
X7179813Y63781601D01*
X7110045Y63950035D01*
X7074478Y64128844D01*
X7074478Y64311156D01*
X7110045Y64489965D01*
X7179813Y64658399D01*
X7281100Y64809986D01*
X7410014Y64938900D01*
X7561601Y65040187D01*
X7730035Y65109955D01*
X7908844Y65145522D01*
X8091156Y65145522D01*
X8269965Y65109955D01*
G37*
G36*
X10809965Y65109955D02*
G01*
X10978399Y65040187D01*
X11129986Y64938900D01*
X11258900Y64809986D01*
X11360187Y64658399D01*
X11429955Y64489965D01*
X11465522Y64311156D01*
X11465522Y64128844D01*
X11429955Y63950035D01*
X11360187Y63781601D01*
X11258900Y63630014D01*
X11129986Y63501100D01*
X10978399Y63399813D01*
X10809965Y63330045D01*
X10631156Y63294478D01*
X10448844Y63294478D01*
X10270035Y63330045D01*
X10101601Y63399813D01*
X9950014Y63501100D01*
X9821100Y63630014D01*
X9719813Y63781601D01*
X9650045Y63950035D01*
X9614478Y64128844D01*
X9614478Y64311156D01*
X9650045Y64489965D01*
X9719813Y64658399D01*
X9821100Y64809986D01*
X9950014Y64938900D01*
X10101601Y65040187D01*
X10270035Y65109955D01*
X10448844Y65145522D01*
X10631156Y65145522D01*
X10809965Y65109955D01*
G37*
G36*
X8269965Y67649955D02*
G01*
X8438399Y67580187D01*
X8589986Y67478900D01*
X8718900Y67349986D01*
X8820187Y67198399D01*
X8889955Y67029965D01*
X8925522Y66851156D01*
X8925522Y66668844D01*
X8889955Y66490035D01*
X8820187Y66321601D01*
X8718900Y66170014D01*
X8589986Y66041100D01*
X8438399Y65939813D01*
X8269965Y65870045D01*
X8091156Y65834478D01*
X7908844Y65834478D01*
X7730035Y65870045D01*
X7561601Y65939813D01*
X7410014Y66041100D01*
X7281100Y66170014D01*
X7179813Y66321601D01*
X7110045Y66490035D01*
X7074478Y66668844D01*
X7074478Y66851156D01*
X7110045Y67029965D01*
X7179813Y67198399D01*
X7281100Y67349986D01*
X7410014Y67478900D01*
X7561601Y67580187D01*
X7730035Y67649955D01*
X7908844Y67685522D01*
X8091156Y67685522D01*
X8269965Y67649955D01*
G37*
G36*
X10809965Y67649955D02*
G01*
X10978399Y67580187D01*
X11129986Y67478900D01*
X11258900Y67349986D01*
X11360187Y67198399D01*
X11429955Y67029965D01*
X11465522Y66851156D01*
X11465522Y66668844D01*
X11429955Y66490035D01*
X11360187Y66321601D01*
X11258900Y66170014D01*
X11129986Y66041100D01*
X10978399Y65939813D01*
X10809965Y65870045D01*
X10631156Y65834478D01*
X10448844Y65834478D01*
X10270035Y65870045D01*
X10101601Y65939813D01*
X9950014Y66041100D01*
X9821100Y66170014D01*
X9719813Y66321601D01*
X9650045Y66490035D01*
X9614478Y66668844D01*
X9614478Y66851156D01*
X9650045Y67029965D01*
X9719813Y67198399D01*
X9821100Y67349986D01*
X9950014Y67478900D01*
X10101601Y67580187D01*
X10270035Y67649955D01*
X10448844Y67685522D01*
X10631156Y67685522D01*
X10809965Y67649955D01*
G37*
G36*
X8269965Y70189955D02*
G01*
X8438399Y70120187D01*
X8589986Y70018900D01*
X8718900Y69889986D01*
X8820187Y69738399D01*
X8889955Y69569965D01*
X8925522Y69391156D01*
X8925522Y69208844D01*
X8889955Y69030035D01*
X8820187Y68861601D01*
X8718900Y68710014D01*
X8589986Y68581100D01*
X8438399Y68479813D01*
X8269965Y68410045D01*
X8091156Y68374478D01*
X7908844Y68374478D01*
X7730035Y68410045D01*
X7561601Y68479813D01*
X7410014Y68581100D01*
X7281100Y68710014D01*
X7179813Y68861601D01*
X7110045Y69030035D01*
X7074478Y69208844D01*
X7074478Y69391156D01*
X7110045Y69569965D01*
X7179813Y69738399D01*
X7281100Y69889986D01*
X7410014Y70018900D01*
X7561601Y70120187D01*
X7730035Y70189955D01*
X7908844Y70225522D01*
X8091156Y70225522D01*
X8269965Y70189955D01*
G37*
G36*
X10809965Y70189955D02*
G01*
X10978399Y70120187D01*
X11129986Y70018900D01*
X11258900Y69889986D01*
X11360187Y69738399D01*
X11429955Y69569965D01*
X11465522Y69391156D01*
X11465522Y69208844D01*
X11429955Y69030035D01*
X11360187Y68861601D01*
X11258900Y68710014D01*
X11129986Y68581100D01*
X10978399Y68479813D01*
X10809965Y68410045D01*
X10631156Y68374478D01*
X10448844Y68374478D01*
X10270035Y68410045D01*
X10101601Y68479813D01*
X9950014Y68581100D01*
X9821100Y68710014D01*
X9719813Y68861601D01*
X9650045Y69030035D01*
X9614478Y69208844D01*
X9614478Y69391156D01*
X9650045Y69569965D01*
X9719813Y69738399D01*
X9821100Y69889986D01*
X9950014Y70018900D01*
X10101601Y70120187D01*
X10270035Y70189955D01*
X10448844Y70225522D01*
X10631156Y70225522D01*
X10809965Y70189955D01*
G37*
G36*
X8269965Y72729955D02*
G01*
X8438399Y72660187D01*
X8589986Y72558900D01*
X8718900Y72429986D01*
X8820187Y72278399D01*
X8889955Y72109965D01*
X8925522Y71931156D01*
X8925522Y71748844D01*
X8889955Y71570035D01*
X8820187Y71401601D01*
X8718900Y71250014D01*
X8589986Y71121100D01*
X8438399Y71019813D01*
X8269965Y70950045D01*
X8091156Y70914478D01*
X7908844Y70914478D01*
X7730035Y70950045D01*
X7561601Y71019813D01*
X7410014Y71121100D01*
X7281100Y71250014D01*
X7179813Y71401601D01*
X7110045Y71570035D01*
X7074478Y71748844D01*
X7074478Y71931156D01*
X7110045Y72109965D01*
X7179813Y72278399D01*
X7281100Y72429986D01*
X7410014Y72558900D01*
X7561601Y72660187D01*
X7730035Y72729955D01*
X7908844Y72765522D01*
X8091156Y72765522D01*
X8269965Y72729955D01*
G37*
G36*
X10809965Y72729955D02*
G01*
X10978399Y72660187D01*
X11129986Y72558900D01*
X11258900Y72429986D01*
X11360187Y72278399D01*
X11429955Y72109965D01*
X11465522Y71931156D01*
X11465522Y71748844D01*
X11429955Y71570035D01*
X11360187Y71401601D01*
X11258900Y71250014D01*
X11129986Y71121100D01*
X10978399Y71019813D01*
X10809965Y70950045D01*
X10631156Y70914478D01*
X10448844Y70914478D01*
X10270035Y70950045D01*
X10101601Y71019813D01*
X9950014Y71121100D01*
X9821100Y71250014D01*
X9719813Y71401601D01*
X9650045Y71570035D01*
X9614478Y71748844D01*
X9614478Y71931156D01*
X9650045Y72109965D01*
X9719813Y72278399D01*
X9821100Y72429986D01*
X9950014Y72558900D01*
X10101601Y72660187D01*
X10270035Y72729955D01*
X10448844Y72765522D01*
X10631156Y72765522D01*
X10809965Y72729955D01*
G37*
G36*
X8269965Y75269955D02*
G01*
X8438399Y75200187D01*
X8589986Y75098900D01*
X8718900Y74969986D01*
X8820187Y74818399D01*
X8889955Y74649965D01*
X8925522Y74471156D01*
X8925522Y74288844D01*
X8889955Y74110035D01*
X8820187Y73941601D01*
X8718900Y73790014D01*
X8589986Y73661100D01*
X8438399Y73559813D01*
X8269965Y73490045D01*
X8091156Y73454478D01*
X7908844Y73454478D01*
X7730035Y73490045D01*
X7561601Y73559813D01*
X7410014Y73661100D01*
X7281100Y73790014D01*
X7179813Y73941601D01*
X7110045Y74110035D01*
X7074478Y74288844D01*
X7074478Y74471156D01*
X7110045Y74649965D01*
X7179813Y74818399D01*
X7281100Y74969986D01*
X7410014Y75098900D01*
X7561601Y75200187D01*
X7730035Y75269955D01*
X7908844Y75305522D01*
X8091156Y75305522D01*
X8269965Y75269955D01*
G37*
G36*
X10809965Y75269955D02*
G01*
X10978399Y75200187D01*
X11129986Y75098900D01*
X11258900Y74969986D01*
X11360187Y74818399D01*
X11429955Y74649965D01*
X11465522Y74471156D01*
X11465522Y74288844D01*
X11429955Y74110035D01*
X11360187Y73941601D01*
X11258900Y73790014D01*
X11129986Y73661100D01*
X10978399Y73559813D01*
X10809965Y73490045D01*
X10631156Y73454478D01*
X10448844Y73454478D01*
X10270035Y73490045D01*
X10101601Y73559813D01*
X9950014Y73661100D01*
X9821100Y73790014D01*
X9719813Y73941601D01*
X9650045Y74110035D01*
X9614478Y74288844D01*
X9614478Y74471156D01*
X9650045Y74649965D01*
X9719813Y74818399D01*
X9821100Y74969986D01*
X9950014Y75098900D01*
X10101601Y75200187D01*
X10270035Y75269955D01*
X10448844Y75305522D01*
X10631156Y75305522D01*
X10809965Y75269955D01*
G37*
G36*
X8269965Y77809955D02*
G01*
X8438399Y77740187D01*
X8589986Y77638900D01*
X8718900Y77509986D01*
X8820187Y77358399D01*
X8889955Y77189965D01*
X8925522Y77011156D01*
X8925522Y76828844D01*
X8889955Y76650035D01*
X8820187Y76481601D01*
X8718900Y76330014D01*
X8589986Y76201100D01*
X8438399Y76099813D01*
X8269965Y76030045D01*
X8091156Y75994478D01*
X7908844Y75994478D01*
X7730035Y76030045D01*
X7561601Y76099813D01*
X7410014Y76201100D01*
X7281100Y76330014D01*
X7179813Y76481601D01*
X7110045Y76650035D01*
X7074478Y76828844D01*
X7074478Y77011156D01*
X7110045Y77189965D01*
X7179813Y77358399D01*
X7281100Y77509986D01*
X7410014Y77638900D01*
X7561601Y77740187D01*
X7730035Y77809955D01*
X7908844Y77845522D01*
X8091156Y77845522D01*
X8269965Y77809955D01*
G37*
G36*
X10809965Y77809955D02*
G01*
X10978399Y77740187D01*
X11129986Y77638900D01*
X11258900Y77509986D01*
X11360187Y77358399D01*
X11429955Y77189965D01*
X11465522Y77011156D01*
X11465522Y76828844D01*
X11429955Y76650035D01*
X11360187Y76481601D01*
X11258900Y76330014D01*
X11129986Y76201100D01*
X10978399Y76099813D01*
X10809965Y76030045D01*
X10631156Y75994478D01*
X10448844Y75994478D01*
X10270035Y76030045D01*
X10101601Y76099813D01*
X9950014Y76201100D01*
X9821100Y76330014D01*
X9719813Y76481601D01*
X9650045Y76650035D01*
X9614478Y76828844D01*
X9614478Y77011156D01*
X9650045Y77189965D01*
X9719813Y77358399D01*
X9821100Y77509986D01*
X9950014Y77638900D01*
X10101601Y77740187D01*
X10270035Y77809955D01*
X10448844Y77845522D01*
X10631156Y77845522D01*
X10809965Y77809955D01*
G37*
G36*
X88114107Y78562563D02*
G01*
X88118731Y78560522D01*
X88121255Y78560189D01*
X88152844Y78545459D01*
X88208239Y78520999D01*
X88280999Y78448239D01*
X88305467Y78392824D01*
X88320188Y78361256D01*
X88320520Y78358734D01*
X88322563Y78354107D01*
X88329999Y78290000D01*
X88329999Y78286735D01*
X88330000Y78286727D01*
X88330000Y77358399D01*
X88330000Y76709999D01*
X88322563Y76645893D01*
X88320519Y76641266D01*
X88320188Y76638745D01*
X88305476Y76607196D01*
X88280999Y76551761D01*
X88208239Y76479001D01*
X88152804Y76454524D01*
X88121255Y76439812D01*
X88118734Y76439481D01*
X88114107Y76437437D01*
X88050000Y76430001D01*
X88046733Y76430001D01*
X88046726Y76430000D01*
X84953274Y76430000D01*
X84953273Y76430001D01*
X84949999Y76430000D01*
X84885893Y76437437D01*
X84881266Y76439480D01*
X84878744Y76439812D01*
X84847176Y76454533D01*
X84791761Y76479001D01*
X84719001Y76551761D01*
X84694541Y76607156D01*
X84679811Y76638745D01*
X84679478Y76641269D01*
X84677437Y76645893D01*
X84670001Y76710000D01*
X84670000Y76713267D01*
X84670000Y76713274D01*
X84670000Y78286727D01*
X84670000Y78286728D01*
X84670000Y78290001D01*
X84677437Y78354107D01*
X84679478Y78358731D01*
X84679811Y78361256D01*
X84694550Y78392864D01*
X84719001Y78448239D01*
X84791761Y78520999D01*
X84847136Y78545450D01*
X84878744Y78560189D01*
X84881269Y78560522D01*
X84885893Y78562563D01*
X84950000Y78569999D01*
X84953266Y78570000D01*
X84953274Y78570000D01*
X88046726Y78570000D01*
X88050001Y78570000D01*
X88114107Y78562563D01*
G37*
G36*
X8269965Y80349955D02*
G01*
X8438399Y80280187D01*
X8589986Y80178900D01*
X8718900Y80049986D01*
X8820187Y79898399D01*
X8889955Y79729965D01*
X8925522Y79551156D01*
X8925522Y79368844D01*
X8889955Y79190035D01*
X8820187Y79021601D01*
X8718900Y78870014D01*
X8589986Y78741100D01*
X8438399Y78639813D01*
X8269965Y78570045D01*
X8091156Y78534478D01*
X7908844Y78534478D01*
X7730035Y78570045D01*
X7561601Y78639813D01*
X7410014Y78741100D01*
X7281100Y78870014D01*
X7179813Y79021601D01*
X7110045Y79190035D01*
X7074478Y79368844D01*
X7074478Y79551156D01*
X7110045Y79729965D01*
X7179813Y79898399D01*
X7281100Y80049986D01*
X7410014Y80178900D01*
X7561601Y80280187D01*
X7730035Y80349955D01*
X7908844Y80385522D01*
X8091156Y80385522D01*
X8269965Y80349955D01*
G37*
G36*
X10809965Y80349955D02*
G01*
X10978399Y80280187D01*
X11129986Y80178900D01*
X11258900Y80049986D01*
X11360187Y79898399D01*
X11429955Y79729965D01*
X11465522Y79551156D01*
X11465522Y79368844D01*
X11429955Y79190035D01*
X11360187Y79021601D01*
X11258900Y78870014D01*
X11129986Y78741100D01*
X10978399Y78639813D01*
X10809965Y78570045D01*
X10631156Y78534478D01*
X10448844Y78534478D01*
X10270035Y78570045D01*
X10101601Y78639813D01*
X9950014Y78741100D01*
X9821100Y78870014D01*
X9719813Y79021601D01*
X9650045Y79190035D01*
X9614478Y79368844D01*
X9614478Y79551156D01*
X9650045Y79729965D01*
X9719813Y79898399D01*
X9821100Y80049986D01*
X9950014Y80178900D01*
X10101601Y80280187D01*
X10270035Y80349955D01*
X10448844Y80385522D01*
X10631156Y80385522D01*
X10809965Y80349955D01*
G37*
G36*
X56814106Y83022563D02*
G01*
X56818730Y83020522D01*
X56821253Y83020189D01*
X56852824Y83005467D01*
X56908238Y82980999D01*
X56980999Y82908238D01*
X57005476Y82852803D01*
X57020188Y82821254D01*
X57020519Y82818734D01*
X57022563Y82814106D01*
X57030000Y82750000D01*
X57030000Y81250000D01*
X57022563Y81185894D01*
X57020519Y81181267D01*
X57020188Y81178747D01*
X57005484Y81147217D01*
X56980999Y81091762D01*
X56908238Y81019001D01*
X56852783Y80994516D01*
X56821253Y80979812D01*
X56818733Y80979481D01*
X56814106Y80977437D01*
X56750000Y80970000D01*
X55250000Y80970000D01*
X55185894Y80977437D01*
X55181266Y80979481D01*
X55178746Y80979812D01*
X55147197Y80994524D01*
X55091762Y81019001D01*
X55019001Y81091762D01*
X54994533Y81147176D01*
X54979811Y81178747D01*
X54979478Y81181270D01*
X54977437Y81185894D01*
X54970000Y81250000D01*
X54970000Y82750000D01*
X54977437Y82814106D01*
X54979478Y82818731D01*
X54979811Y82821254D01*
X54994541Y82852843D01*
X55019001Y82908238D01*
X55091762Y82980999D01*
X55147157Y83005459D01*
X55178746Y83020189D01*
X55181269Y83020522D01*
X55185894Y83022563D01*
X55250000Y83030000D01*
X56750000Y83030000D01*
X56814106Y83022563D01*
G37*
G36*
X61091101Y83025040D02*
G01*
X61100958Y83025040D01*
X61139473Y83017379D01*
X61240409Y83001393D01*
X61272873Y82990845D01*
X61298993Y82985649D01*
X61335855Y82970381D01*
X61394109Y82951452D01*
X61448683Y82923646D01*
X61485539Y82908379D01*
X61507678Y82893586D01*
X61538089Y82878091D01*
X61620752Y82818033D01*
X61653425Y82796201D01*
X61660398Y82789228D01*
X61668828Y82783103D01*
X61783102Y82668829D01*
X61789226Y82660400D01*
X61796201Y82653425D01*
X61818035Y82620748D01*
X61878090Y82538090D01*
X61893583Y82507682D01*
X61908379Y82485539D01*
X61923647Y82448679D01*
X61951451Y82394110D01*
X61970376Y82335864D01*
X61985649Y82298993D01*
X61990845Y82272869D01*
X62001392Y82240410D01*
X62017377Y82139479D01*
X62025040Y82100958D01*
X62025040Y82091102D01*
X62026671Y82080804D01*
X62026671Y81919197D01*
X62025040Y81908900D01*
X62025040Y81899042D01*
X62017377Y81860518D01*
X62001392Y81759591D01*
X61990845Y81727134D01*
X61985649Y81701007D01*
X61970375Y81664134D01*
X61951451Y81605891D01*
X61923649Y81551327D01*
X61908379Y81514461D01*
X61893581Y81492316D01*
X61878090Y81461911D01*
X61818043Y81379265D01*
X61796201Y81346575D01*
X61789223Y81339598D01*
X61783102Y81331172D01*
X61668828Y81216898D01*
X61660402Y81210777D01*
X61653425Y81203799D01*
X61620735Y81181957D01*
X61538089Y81121910D01*
X61507684Y81106419D01*
X61485539Y81091621D01*
X61448673Y81076351D01*
X61394109Y81048549D01*
X61335866Y81029625D01*
X61298993Y81014351D01*
X61272866Y81009155D01*
X61240409Y80998608D01*
X61139482Y80982623D01*
X61100958Y80974960D01*
X61091101Y80974960D01*
X61080803Y80973329D01*
X60919197Y80973329D01*
X60908899Y80974960D01*
X60899042Y80974960D01*
X60860518Y80982623D01*
X60759590Y80998608D01*
X60727131Y81009155D01*
X60701007Y81014351D01*
X60664136Y81029624D01*
X60605890Y81048549D01*
X60551321Y81076353D01*
X60514461Y81091621D01*
X60492318Y81106417D01*
X60461910Y81121910D01*
X60379252Y81181965D01*
X60346575Y81203799D01*
X60339600Y81210774D01*
X60331171Y81216898D01*
X60216897Y81331172D01*
X60210772Y81339602D01*
X60203799Y81346575D01*
X60181967Y81379248D01*
X60121909Y81461911D01*
X60106414Y81492322D01*
X60091621Y81514461D01*
X60076354Y81551317D01*
X60048548Y81605891D01*
X60029619Y81664145D01*
X60014351Y81701007D01*
X60009155Y81727127D01*
X59998607Y81759591D01*
X59982621Y81860527D01*
X59974960Y81899042D01*
X59974960Y81908899D01*
X59973329Y81919197D01*
X59973329Y82080804D01*
X59974960Y82091103D01*
X59974960Y82100958D01*
X59982620Y82139470D01*
X59998607Y82240410D01*
X60009156Y82272877D01*
X60014351Y82298993D01*
X60029618Y82335852D01*
X60048548Y82394110D01*
X60076357Y82448689D01*
X60091621Y82485539D01*
X60106412Y82507676D01*
X60121909Y82538090D01*
X60181976Y82620765D01*
X60203799Y82653425D01*
X60210770Y82660397D01*
X60216897Y82668829D01*
X60331171Y82783103D01*
X60339603Y82789230D01*
X60346575Y82796201D01*
X60379235Y82818024D01*
X60461910Y82878091D01*
X60492324Y82893588D01*
X60514461Y82908379D01*
X60551311Y82923643D01*
X60605890Y82951452D01*
X60664148Y82970382D01*
X60701007Y82985649D01*
X60727123Y82990844D01*
X60759590Y83001393D01*
X60860528Y83017380D01*
X60899042Y83025040D01*
X60908899Y83025040D01*
X60919197Y83026671D01*
X61080803Y83026671D01*
X61091101Y83025040D01*
G37*
G36*
X8702767Y82922172D02*
G01*
X8707563Y82920055D01*
X8710352Y82919687D01*
X8745255Y82903412D01*
X8801843Y82878426D01*
X8878426Y82801843D01*
X8903421Y82745234D01*
X8919686Y82710353D01*
X8920052Y82707567D01*
X8922172Y82702767D01*
X8930000Y82635294D01*
X8930000Y81364706D01*
X8922172Y81297233D01*
X8920052Y81292434D01*
X8919686Y81289648D01*
X8903429Y81254785D01*
X8878426Y81198157D01*
X8801843Y81121574D01*
X8745215Y81096571D01*
X8710352Y81080314D01*
X8707566Y81079948D01*
X8702767Y81077828D01*
X8635294Y81070000D01*
X7364706Y81070000D01*
X7297233Y81077828D01*
X7292433Y81079948D01*
X7289647Y81080314D01*
X7254766Y81096579D01*
X7198157Y81121574D01*
X7121574Y81198157D01*
X7096588Y81254745D01*
X7080313Y81289648D01*
X7079945Y81292437D01*
X7077828Y81297233D01*
X7070000Y81364706D01*
X7070000Y82635294D01*
X7077828Y82702767D01*
X7079945Y82707564D01*
X7080313Y82710353D01*
X7096596Y82745275D01*
X7121574Y82801843D01*
X7198157Y82878426D01*
X7254725Y82903404D01*
X7289647Y82919687D01*
X7292436Y82920055D01*
X7297233Y82922172D01*
X7364706Y82930000D01*
X8635294Y82930000D01*
X8702767Y82922172D01*
G37*
G36*
X10809965Y82889955D02*
G01*
X10978399Y82820187D01*
X11129986Y82718900D01*
X11258900Y82589986D01*
X11360187Y82438399D01*
X11429955Y82269965D01*
X11465522Y82091156D01*
X11465522Y81908844D01*
X11429955Y81730035D01*
X11360187Y81561601D01*
X11258900Y81410014D01*
X11129986Y81281100D01*
X10978399Y81179813D01*
X10809965Y81110045D01*
X10631156Y81074478D01*
X10448844Y81074478D01*
X10270035Y81110045D01*
X10101601Y81179813D01*
X9950014Y81281100D01*
X9821100Y81410014D01*
X9719813Y81561601D01*
X9650045Y81730035D01*
X9614478Y81908844D01*
X9614478Y82091156D01*
X9650045Y82269965D01*
X9719813Y82438399D01*
X9821100Y82589986D01*
X9950014Y82718900D01*
X10101601Y82820187D01*
X10270035Y82889955D01*
X10448844Y82925522D01*
X10631156Y82925522D01*
X10809965Y82889955D01*
G37*
G36*
X87263880Y83649810D02*
G01*
X87342963Y83646702D01*
X87350078Y83645575D01*
X87364878Y83644848D01*
X87404765Y83636914D01*
X87509747Y83620287D01*
X87543518Y83609314D01*
X87570605Y83603926D01*
X87608830Y83588093D01*
X87669416Y83568407D01*
X87726172Y83539489D01*
X87764395Y83523656D01*
X87787356Y83508314D01*
X87818989Y83492196D01*
X87904983Y83429718D01*
X87938801Y83407121D01*
X87946018Y83399904D01*
X87954806Y83393519D01*
X88073518Y83274807D01*
X88079902Y83266020D01*
X88087121Y83258801D01*
X88109720Y83224979D01*
X88172195Y83138990D01*
X88188311Y83107360D01*
X88203656Y83084395D01*
X88219490Y83046168D01*
X88248406Y82989417D01*
X88268089Y82928839D01*
X88283926Y82890605D01*
X88289314Y82863514D01*
X88300286Y82829748D01*
X88316912Y82724773D01*
X88324848Y82684878D01*
X88324848Y82674670D01*
X88326547Y82663942D01*
X88326547Y82496059D01*
X88324848Y82485332D01*
X88324848Y82475122D01*
X88316911Y82435224D01*
X88300286Y82330253D01*
X88289315Y82296490D01*
X88283926Y82269395D01*
X88268087Y82231159D01*
X88248406Y82170584D01*
X88219492Y82113838D01*
X88203656Y82075605D01*
X88188309Y82052638D01*
X88172195Y82021011D01*
X88109728Y81935035D01*
X88087121Y81901199D01*
X88079899Y81893978D01*
X88073518Y81885194D01*
X87954806Y81766482D01*
X87946022Y81760101D01*
X87938801Y81752879D01*
X87904965Y81730272D01*
X87818989Y81667805D01*
X87787362Y81651691D01*
X87764395Y81636344D01*
X87726162Y81620508D01*
X87669416Y81591594D01*
X87608841Y81571913D01*
X87570605Y81556074D01*
X87543510Y81550685D01*
X87509747Y81539714D01*
X87404790Y81523092D01*
X87364878Y81515152D01*
X87350069Y81514425D01*
X87342963Y81513299D01*
X87263886Y81510191D01*
X87260000Y81510000D01*
X87259029Y81510000D01*
X85740971Y81510000D01*
X85740000Y81510000D01*
X85736113Y81510191D01*
X85657036Y81513299D01*
X85649928Y81514425D01*
X85635122Y81515152D01*
X85595213Y81523091D01*
X85490252Y81539714D01*
X85456486Y81550686D01*
X85429395Y81556074D01*
X85391161Y81571911D01*
X85330583Y81591594D01*
X85273832Y81620510D01*
X85235605Y81636344D01*
X85212640Y81651689D01*
X85181010Y81667805D01*
X85095021Y81730280D01*
X85061199Y81752879D01*
X85053980Y81760098D01*
X85045193Y81766482D01*
X84926481Y81885194D01*
X84920096Y81893982D01*
X84912879Y81901199D01*
X84890282Y81935017D01*
X84827804Y82021011D01*
X84811686Y82052644D01*
X84796344Y82075605D01*
X84780511Y82113828D01*
X84751593Y82170584D01*
X84731907Y82231170D01*
X84716074Y82269395D01*
X84710686Y82296482D01*
X84699713Y82330253D01*
X84683086Y82435233D01*
X84675152Y82475122D01*
X84675152Y82485332D01*
X84673453Y82496059D01*
X84673453Y82663942D01*
X84675152Y82674670D01*
X84675152Y82684878D01*
X84683085Y82724764D01*
X84699713Y82829748D01*
X84710686Y82863522D01*
X84716074Y82890605D01*
X84731905Y82928827D01*
X84751593Y82989417D01*
X84780514Y83046179D01*
X84796344Y83084395D01*
X84811684Y83107354D01*
X84827804Y83138990D01*
X84890290Y83224996D01*
X84912879Y83258801D01*
X84920093Y83266016D01*
X84926481Y83274807D01*
X85045193Y83393519D01*
X85053984Y83399907D01*
X85061199Y83407121D01*
X85095004Y83429710D01*
X85181010Y83492196D01*
X85212646Y83508316D01*
X85235605Y83523656D01*
X85273821Y83539486D01*
X85330583Y83568407D01*
X85391173Y83588095D01*
X85429395Y83603926D01*
X85456478Y83609314D01*
X85490252Y83620287D01*
X85595238Y83636915D01*
X85635122Y83644848D01*
X85649919Y83645575D01*
X85657036Y83646702D01*
X85736119Y83649810D01*
X85740000Y83650000D01*
X87260000Y83650000D01*
X87263880Y83649810D01*
G37*
G36*
X5117449Y96624975D02*
G01*
X5127888Y96624975D01*
X5179304Y96616832D01*
X5317976Y96598575D01*
X5351807Y96589510D01*
X5380516Y96584963D01*
X5435724Y96567025D01*
X5523909Y96543396D01*
X5580171Y96520092D01*
X5623774Y96505924D01*
X5664624Y96485110D01*
X5720884Y96461806D01*
X5799946Y96416160D01*
X5851673Y96389803D01*
X5875188Y96372718D01*
X5905520Y96355206D01*
X6016469Y96270072D01*
X6058600Y96239462D01*
X6065984Y96232078D01*
X6074658Y96225422D01*
X6225421Y96074659D01*
X6232076Y96065986D01*
X6239462Y96058600D01*
X6270075Y96016464D01*
X6355205Y95905521D01*
X6372715Y95875192D01*
X6389803Y95851673D01*
X6416162Y95799940D01*
X6461805Y95720885D01*
X6485106Y95664631D01*
X6505924Y95623774D01*
X6520093Y95580165D01*
X6543395Y95523910D01*
X6567020Y95435738D01*
X6584963Y95380516D01*
X6589510Y95351802D01*
X6598574Y95317977D01*
X6616829Y95179316D01*
X6624975Y95127888D01*
X6624975Y95117449D01*
X6626403Y95106602D01*
X6626403Y94893399D01*
X6624975Y94882553D01*
X6624975Y94872112D01*
X6616828Y94820680D01*
X6598574Y94682024D01*
X6589511Y94648202D01*
X6584963Y94619484D01*
X6567018Y94564258D01*
X6543395Y94476091D01*
X6520094Y94419840D01*
X6505924Y94376226D01*
X6485104Y94335366D01*
X6461805Y94279116D01*
X6416166Y94200069D01*
X6389803Y94148327D01*
X6372712Y94124805D01*
X6355205Y94094480D01*
X6270089Y93983555D01*
X6239462Y93941400D01*
X6232072Y93934011D01*
X6225421Y93925342D01*
X6074658Y93774579D01*
X6065989Y93767928D01*
X6058600Y93760538D01*
X6016445Y93729911D01*
X5905520Y93644795D01*
X5875195Y93627288D01*
X5851673Y93610197D01*
X5799931Y93583834D01*
X5720884Y93538195D01*
X5664634Y93514896D01*
X5623774Y93494076D01*
X5580160Y93479906D01*
X5523909Y93456605D01*
X5435742Y93432982D01*
X5380516Y93415037D01*
X5351798Y93410489D01*
X5317976Y93401426D01*
X5179317Y93383171D01*
X5127888Y93375025D01*
X5117448Y93375025D01*
X5106602Y93373597D01*
X4893398Y93373597D01*
X4882552Y93375025D01*
X4872112Y93375025D01*
X4820684Y93383171D01*
X4682023Y93401426D01*
X4648198Y93410490D01*
X4619484Y93415037D01*
X4564262Y93432980D01*
X4476090Y93456605D01*
X4419835Y93479907D01*
X4376226Y93494076D01*
X4335369Y93514894D01*
X4279115Y93538195D01*
X4200060Y93583838D01*
X4148327Y93610197D01*
X4124808Y93627285D01*
X4094479Y93644795D01*
X3983536Y93729925D01*
X3941400Y93760538D01*
X3934014Y93767924D01*
X3925341Y93774579D01*
X3774578Y93925342D01*
X3767922Y93934016D01*
X3760538Y93941400D01*
X3729928Y93983531D01*
X3644794Y94094480D01*
X3627282Y94124812D01*
X3610197Y94148327D01*
X3583840Y94200054D01*
X3538194Y94279116D01*
X3514890Y94335376D01*
X3494076Y94376226D01*
X3479908Y94419829D01*
X3456604Y94476091D01*
X3432975Y94564276D01*
X3415037Y94619484D01*
X3410490Y94648193D01*
X3401425Y94682024D01*
X3383168Y94820693D01*
X3375025Y94872112D01*
X3375025Y94882553D01*
X3373597Y94893399D01*
X3373597Y95106602D01*
X3375025Y95117449D01*
X3375025Y95127888D01*
X3383168Y95179303D01*
X3401425Y95317977D01*
X3410490Y95351811D01*
X3415037Y95380516D01*
X3432973Y95435721D01*
X3456604Y95523910D01*
X3479910Y95580176D01*
X3494076Y95623774D01*
X3514888Y95664620D01*
X3538194Y95720885D01*
X3583845Y95799955D01*
X3610197Y95851673D01*
X3627279Y95875186D01*
X3644794Y95905521D01*
X3729942Y96016489D01*
X3760538Y96058600D01*
X3767919Y96065982D01*
X3774578Y96074659D01*
X3925341Y96225422D01*
X3934018Y96232081D01*
X3941400Y96239462D01*
X3983511Y96270058D01*
X4094479Y96355206D01*
X4124814Y96372721D01*
X4148327Y96389803D01*
X4200045Y96416155D01*
X4279115Y96461806D01*
X4335380Y96485112D01*
X4376226Y96505924D01*
X4419824Y96520090D01*
X4476090Y96543396D01*
X4564279Y96567027D01*
X4619484Y96584963D01*
X4648189Y96589510D01*
X4682023Y96598575D01*
X4820697Y96616832D01*
X4872112Y96624975D01*
X4882551Y96624975D01*
X4893398Y96626403D01*
X5106602Y96626403D01*
X5117449Y96624975D01*
G37*
G36*
X95117449Y96624975D02*
G01*
X95127888Y96624975D01*
X95179304Y96616832D01*
X95317976Y96598575D01*
X95351807Y96589510D01*
X95380516Y96584963D01*
X95435724Y96567025D01*
X95523909Y96543396D01*
X95580171Y96520092D01*
X95623774Y96505924D01*
X95664624Y96485110D01*
X95720884Y96461806D01*
X95799946Y96416160D01*
X95851673Y96389803D01*
X95875188Y96372718D01*
X95905520Y96355206D01*
X96016469Y96270072D01*
X96058600Y96239462D01*
X96065984Y96232078D01*
X96074658Y96225422D01*
X96225421Y96074659D01*
X96232076Y96065986D01*
X96239462Y96058600D01*
X96270075Y96016464D01*
X96355205Y95905521D01*
X96372715Y95875192D01*
X96389803Y95851673D01*
X96416162Y95799940D01*
X96461805Y95720885D01*
X96485106Y95664631D01*
X96505924Y95623774D01*
X96520093Y95580165D01*
X96543395Y95523910D01*
X96567020Y95435738D01*
X96584963Y95380516D01*
X96589510Y95351802D01*
X96598574Y95317977D01*
X96616829Y95179316D01*
X96624975Y95127888D01*
X96624975Y95117449D01*
X96626403Y95106602D01*
X96626403Y94893399D01*
X96624975Y94882553D01*
X96624975Y94872112D01*
X96616828Y94820680D01*
X96598574Y94682024D01*
X96589511Y94648202D01*
X96584963Y94619484D01*
X96567018Y94564258D01*
X96543395Y94476091D01*
X96520094Y94419840D01*
X96505924Y94376226D01*
X96485104Y94335366D01*
X96461805Y94279116D01*
X96416166Y94200069D01*
X96389803Y94148327D01*
X96372712Y94124805D01*
X96355205Y94094480D01*
X96270089Y93983555D01*
X96239462Y93941400D01*
X96232072Y93934011D01*
X96225421Y93925342D01*
X96074658Y93774579D01*
X96065989Y93767928D01*
X96058600Y93760538D01*
X96016445Y93729911D01*
X95905520Y93644795D01*
X95875195Y93627288D01*
X95851673Y93610197D01*
X95799931Y93583834D01*
X95720884Y93538195D01*
X95664634Y93514896D01*
X95623774Y93494076D01*
X95580160Y93479906D01*
X95523909Y93456605D01*
X95435742Y93432982D01*
X95380516Y93415037D01*
X95351798Y93410489D01*
X95317976Y93401426D01*
X95179317Y93383171D01*
X95127888Y93375025D01*
X95117448Y93375025D01*
X95106602Y93373597D01*
X94893398Y93373597D01*
X94882552Y93375025D01*
X94872112Y93375025D01*
X94820684Y93383171D01*
X94682023Y93401426D01*
X94648198Y93410490D01*
X94619484Y93415037D01*
X94564262Y93432980D01*
X94476090Y93456605D01*
X94419835Y93479907D01*
X94376226Y93494076D01*
X94335369Y93514894D01*
X94279115Y93538195D01*
X94200060Y93583838D01*
X94148327Y93610197D01*
X94124808Y93627285D01*
X94094479Y93644795D01*
X93983536Y93729925D01*
X93941400Y93760538D01*
X93934014Y93767924D01*
X93925341Y93774579D01*
X93774578Y93925342D01*
X93767922Y93934016D01*
X93760538Y93941400D01*
X93729928Y93983531D01*
X93644794Y94094480D01*
X93627282Y94124812D01*
X93610197Y94148327D01*
X93583840Y94200054D01*
X93538194Y94279116D01*
X93514890Y94335376D01*
X93494076Y94376226D01*
X93479908Y94419829D01*
X93456604Y94476091D01*
X93432975Y94564276D01*
X93415037Y94619484D01*
X93410490Y94648193D01*
X93401425Y94682024D01*
X93383168Y94820693D01*
X93375025Y94872112D01*
X93375025Y94882553D01*
X93373597Y94893399D01*
X93373597Y95106602D01*
X93375025Y95117449D01*
X93375025Y95127888D01*
X93383168Y95179303D01*
X93401425Y95317977D01*
X93410490Y95351811D01*
X93415037Y95380516D01*
X93432973Y95435721D01*
X93456604Y95523910D01*
X93479910Y95580176D01*
X93494076Y95623774D01*
X93514888Y95664620D01*
X93538194Y95720885D01*
X93583845Y95799955D01*
X93610197Y95851673D01*
X93627279Y95875186D01*
X93644794Y95905521D01*
X93729942Y96016489D01*
X93760538Y96058600D01*
X93767919Y96065982D01*
X93774578Y96074659D01*
X93925341Y96225422D01*
X93934018Y96232081D01*
X93941400Y96239462D01*
X93983511Y96270058D01*
X94094479Y96355206D01*
X94124814Y96372721D01*
X94148327Y96389803D01*
X94200045Y96416155D01*
X94279115Y96461806D01*
X94335380Y96485112D01*
X94376226Y96505924D01*
X94419824Y96520090D01*
X94476090Y96543396D01*
X94564279Y96567027D01*
X94619484Y96584963D01*
X94648189Y96589510D01*
X94682023Y96598575D01*
X94820697Y96616832D01*
X94872112Y96624975D01*
X94882551Y96624975D01*
X94893398Y96626403D01*
X95106602Y96626403D01*
X95117449Y96624975D01*
G37*
G36*
X35287138Y96196015D02*
G01*
X35470701Y96136372D01*
X35642673Y96048747D01*
X35798821Y95935299D01*
X35935299Y95798821D01*
X36048747Y95642673D01*
X36136372Y95470701D01*
X36196015Y95287138D01*
X36226208Y95096505D01*
X36226208Y94903495D01*
X36196015Y94712862D01*
X36136372Y94529299D01*
X36048747Y94357327D01*
X35935299Y94201179D01*
X35798821Y94064701D01*
X35642673Y93951253D01*
X35470701Y93863628D01*
X35287138Y93803985D01*
X35096505Y93773792D01*
X34903495Y93773792D01*
X34712862Y93803985D01*
X34529299Y93863628D01*
X34357327Y93951253D01*
X34201179Y94064701D01*
X34064701Y94201179D01*
X33951253Y94357327D01*
X33863628Y94529299D01*
X33803985Y94712862D01*
X33773792Y94903495D01*
X33773792Y95096505D01*
X33803985Y95287138D01*
X33863628Y95470701D01*
X33951253Y95642673D01*
X34064701Y95798821D01*
X34201179Y95935299D01*
X34357327Y96048747D01*
X34529299Y96136372D01*
X34712862Y96196015D01*
X34903495Y96226208D01*
X35096505Y96226208D01*
X35287138Y96196015D01*
G37*
G36*
X50527138Y96196015D02*
G01*
X50710701Y96136372D01*
X50882673Y96048747D01*
X51038821Y95935299D01*
X51175299Y95798821D01*
X51288747Y95642673D01*
X51376372Y95470701D01*
X51436015Y95287138D01*
X51466208Y95096505D01*
X51466208Y94903495D01*
X51436015Y94712862D01*
X51376372Y94529299D01*
X51288747Y94357327D01*
X51175299Y94201179D01*
X51038821Y94064701D01*
X50882673Y93951253D01*
X50710701Y93863628D01*
X50527138Y93803985D01*
X50336505Y93773792D01*
X50143495Y93773792D01*
X49952862Y93803985D01*
X49769299Y93863628D01*
X49597327Y93951253D01*
X49441179Y94064701D01*
X49304701Y94201179D01*
X49191253Y94357327D01*
X49103628Y94529299D01*
X49043985Y94712862D01*
X49013792Y94903495D01*
X49013792Y95096505D01*
X49043985Y95287138D01*
X49103628Y95470701D01*
X49191253Y95642673D01*
X49304701Y95798821D01*
X49441179Y95935299D01*
X49597327Y96048747D01*
X49769299Y96136372D01*
X49952862Y96196015D01*
X50143495Y96226208D01*
X50336505Y96226208D01*
X50527138Y96196015D01*
G37*
M02*
