#VRML V2.0 utf8
# Project-authored nominal visualization, not manufacturer CAD or fit certification.
# External KiCad VRML unit=2.54mm. Lead bends/chamfers/marking/underside details simplified.
# Nominal XY body 4.4x5.0, maximum package height1.2; nominal lead span6.4/pitch.65. Exposed-pad depiction uses maximum rectangular dimensions; actual paddle outline varies.
Transform { translation 0 0 0.255906 children [ Shape { appearance Appearance { material Material { diffuseColor 0.065 0.070 0.080 } } geometry Box { size 1.732283 1.968504 0.433071 } } ] }
Transform { translation -1.062992 0.895669 0.029528 children [ Shape { appearance Appearance { material Material { diffuseColor 0.65 0.67 0.70 } } geometry Box { size 0.393701 0.09252 0.059055 } } ] }
Transform { translation -1.062992 0.639764 0.029528 children [ Shape { appearance Appearance { material Material { diffuseColor 0.65 0.67 0.70 } } geometry Box { size 0.393701 0.09252 0.059055 } } ] }
Transform { translation -1.062992 0.383858 0.029528 children [ Shape { appearance Appearance { material Material { diffuseColor 0.65 0.67 0.70 } } geometry Box { size 0.393701 0.09252 0.059055 } } ] }
Transform { translation -1.062992 0.127953 0.029528 children [ Shape { appearance Appearance { material Material { diffuseColor 0.65 0.67 0.70 } } geometry Box { size 0.393701 0.09252 0.059055 } } ] }
Transform { translation -1.062992 -0.127953 0.029528 children [ Shape { appearance Appearance { material Material { diffuseColor 0.65 0.67 0.70 } } geometry Box { size 0.393701 0.09252 0.059055 } } ] }
Transform { translation -1.062992 -0.383858 0.029528 children [ Shape { appearance Appearance { material Material { diffuseColor 0.65 0.67 0.70 } } geometry Box { size 0.393701 0.09252 0.059055 } } ] }
Transform { translation -1.062992 -0.639764 0.029528 children [ Shape { appearance Appearance { material Material { diffuseColor 0.65 0.67 0.70 } } geometry Box { size 0.393701 0.09252 0.059055 } } ] }
Transform { translation -1.062992 -0.895669 0.029528 children [ Shape { appearance Appearance { material Material { diffuseColor 0.65 0.67 0.70 } } geometry Box { size 0.393701 0.09252 0.059055 } } ] }
Transform { translation 1.062992 -0.895669 0.029528 children [ Shape { appearance Appearance { material Material { diffuseColor 0.65 0.67 0.70 } } geometry Box { size 0.393701 0.09252 0.059055 } } ] }
Transform { translation 1.062992 -0.639764 0.029528 children [ Shape { appearance Appearance { material Material { diffuseColor 0.65 0.67 0.70 } } geometry Box { size 0.393701 0.09252 0.059055 } } ] }
Transform { translation 1.062992 -0.383858 0.029528 children [ Shape { appearance Appearance { material Material { diffuseColor 0.65 0.67 0.70 } } geometry Box { size 0.393701 0.09252 0.059055 } } ] }
Transform { translation 1.062992 -0.127953 0.029528 children [ Shape { appearance Appearance { material Material { diffuseColor 0.65 0.67 0.70 } } geometry Box { size 0.393701 0.09252 0.059055 } } ] }
Transform { translation 1.062992 0.127953 0.029528 children [ Shape { appearance Appearance { material Material { diffuseColor 0.65 0.67 0.70 } } geometry Box { size 0.393701 0.09252 0.059055 } } ] }
Transform { translation 1.062992 0.383858 0.029528 children [ Shape { appearance Appearance { material Material { diffuseColor 0.65 0.67 0.70 } } geometry Box { size 0.393701 0.09252 0.059055 } } ] }
Transform { translation 1.062992 0.639764 0.029528 children [ Shape { appearance Appearance { material Material { diffuseColor 0.65 0.67 0.70 } } geometry Box { size 0.393701 0.09252 0.059055 } } ] }
Transform { translation 1.062992 0.895669 0.029528 children [ Shape { appearance Appearance { material Material { diffuseColor 0.65 0.67 0.70 } } geometry Box { size 0.393701 0.09252 0.059055 } } ] }
Transform { translation 0 0 0.009843 children [ Shape { appearance Appearance { material Material { diffuseColor 0.55 0.57 0.59 } } geometry Box { size 0.968504 1.397638 0.019685 } } ] }
Transform { translation -0.708661 0.826772 0.474409 children [ Shape { appearance Appearance { material Material { diffuseColor 0.68 0.70 0.72 } } geometry Box { size 0.086614 0.086614 0.003937 } } ] }
