#VRML V2.0 utf8
# Project nominal visualization: EEUFR1H221, D10 H16 P5 mm. No tolerance/standoff/fit approval.
# Positive pin1 at0; negative pin2 at +pitch. VRML units2.54mm.
Shape { appearance Appearance { material Material { diffuseColor 0.06 0.09 0.16 } } geometry IndexedFaceSet { solid FALSE coord Coordinate { point [ 2.9527559 0.0000000 0.0000000, 2.9432770 0.1929471 0.0000000, 2.9149317 0.3840361 0.0000000, 2.8679928 0.5714265 0.0000000, 2.8029125 0.7533138 0.0000000, 2.7203174 0.9279463 0.0000000, 2.6210032 1.0936422 0.0000000, 2.5059261 1.2488057 0.0000000, 2.3761945 1.3919425 0.0000000, 2.2330576 1.5216741 0.0000000, 2.0778942 1.6367512 0.0000000, 1.9121983 1.7360655 0.0000000, 1.7375658 1.8186605 0.0000000, 1.5556785 1.8837408 0.0000000, 1.3682880 1.9306797 0.0000000, 1.1771991 1.9590251 0.0000000, 0.9842520 1.9685039 0.0000000, 0.7913048 1.9590251 0.0000000, 0.6002159 1.9306797 0.0000000, 0.4128254 1.8837408 0.0000000, 0.2309381 1.8186605 0.0000000, 0.0563056 1.7360655 0.0000000, -0.1093902 1.6367512 0.0000000, -0.2645537 1.5216741 0.0000000, -0.4076905 1.3919425 0.0000000, -0.5374222 1.2488057 0.0000000, -0.6524992 1.0936422 0.0000000, -0.7518135 0.9279463 0.0000000, -0.8344085 0.7533138 0.0000000, -0.8994888 0.5714265 0.0000000, -0.9464277 0.3840361 0.0000000, -0.9747731 0.1929471 0.0000000, -0.9842520 0.0000000 0.0000000, -0.9747731 -0.1929471 0.0000000, -0.9464277 -0.3840361 0.0000000, -0.8994888 -0.5714265 0.0000000, -0.8344085 -0.7533138 0.0000000, -0.7518135 -0.9279463 0.0000000, -0.6524992 -1.0936422 0.0000000, -0.5374222 -1.2488057 0.0000000, -0.4076905 -1.3919425 0.0000000, -0.2645537 -1.5216741 0.0000000, -0.1093902 -1.6367512 0.0000000, 0.0563056 -1.7360655 0.0000000, 0.2309381 -1.8186605 0.0000000, 0.4128254 -1.8837408 0.0000000, 0.6002159 -1.9306797 0.0000000, 0.7913048 -1.9590251 0.0000000, 0.9842520 -1.9685039 0.0000000, 1.1771991 -1.9590251 0.0000000, 1.3682880 -1.9306797 0.0000000, 1.5556785 -1.8837408 0.0000000, 1.7375658 -1.8186605 0.0000000, 1.9121983 -1.7360655 0.0000000, 2.0778942 -1.6367512 0.0000000, 2.2330576 -1.5216741 0.0000000, 2.3761945 -1.3919425 0.0000000, 2.5059261 -1.2488057 0.0000000, 2.6210032 -1.0936422 0.0000000, 2.7203174 -0.9279463 0.0000000, 2.8029125 -0.7533138 0.0000000, 2.8679928 -0.5714265 0.0000000, 2.9149317 -0.3840361 0.0000000, 2.9432770 -0.1929471 0.0000000, 2.9527559 0.0000000 6.2677165, 2.9432770 0.1929471 6.2677165, 2.9149317 0.3840361 6.2677165, 2.8679928 0.5714265 6.2677165, 2.8029125 0.7533138 6.2677165, 2.7203174 0.9279463 6.2677165, 2.6210032 1.0936422 6.2677165, 2.5059261 1.2488057 6.2677165, 2.3761945 1.3919425 6.2677165, 2.2330576 1.5216741 6.2677165, 2.0778942 1.6367512 6.2677165, 1.9121983 1.7360655 6.2677165, 1.7375658 1.8186605 6.2677165, 1.5556785 1.8837408 6.2677165, 1.3682880 1.9306797 6.2677165, 1.1771991 1.9590251 6.2677165, 0.9842520 1.9685039 6.2677165, 0.7913048 1.9590251 6.2677165, 0.6002159 1.9306797 6.2677165, 0.4128254 1.8837408 6.2677165, 0.2309381 1.8186605 6.2677165, 0.0563056 1.7360655 6.2677165, -0.1093902 1.6367512 6.2677165, -0.2645537 1.5216741 6.2677165, -0.4076905 1.3919425 6.2677165, -0.5374222 1.2488057 6.2677165, -0.6524992 1.0936422 6.2677165, -0.7518135 0.9279463 6.2677165, -0.8344085 0.7533138 6.2677165, -0.8994888 0.5714265 6.2677165, -0.9464277 0.3840361 6.2677165, -0.9747731 0.1929471 6.2677165, -0.9842520 0.0000000 6.2677165, -0.9747731 -0.1929471 6.2677165, -0.9464277 -0.3840361 6.2677165, -0.8994888 -0.5714265 6.2677165, -0.8344085 -0.7533138 6.2677165, -0.7518135 -0.9279463 6.2677165, -0.6524992 -1.0936422 6.2677165, -0.5374222 -1.2488057 6.2677165, -0.4076905 -1.3919425 6.2677165, -0.2645537 -1.5216741 6.2677165, -0.1093902 -1.6367512 6.2677165, 0.0563056 -1.7360655 6.2677165, 0.2309381 -1.8186605 6.2677165, 0.4128254 -1.8837408 6.2677165, 0.6002159 -1.9306797 6.2677165, 0.7913048 -1.9590251 6.2677165, 0.9842520 -1.9685039 6.2677165, 1.1771991 -1.9590251 6.2677165, 1.3682880 -1.9306797 6.2677165, 1.5556785 -1.8837408 6.2677165, 1.7375658 -1.8186605 6.2677165, 1.9121983 -1.7360655 6.2677165, 2.0778942 -1.6367512 6.2677165, 2.2330576 -1.5216741 6.2677165, 2.3761945 -1.3919425 6.2677165, 2.5059261 -1.2488057 6.2677165, 2.6210032 -1.0936422 6.2677165, 2.7203174 -0.9279463 6.2677165, 2.8029125 -0.7533138 6.2677165, 2.8679928 -0.5714265 6.2677165, 2.9149317 -0.3840361 6.2677165, 2.9432770 -0.1929471 6.2677165 ] } coordIndex [ 0 1 65 64 -1, 1 2 66 65 -1, 2 3 67 66 -1, 3 4 68 67 -1, 4 5 69 68 -1, 5 6 70 69 -1, 6 7 71 70 -1, 7 8 72 71 -1, 8 9 73 72 -1, 9 10 74 73 -1, 10 11 75 74 -1, 11 12 76 75 -1, 12 13 77 76 -1, 13 14 78 77 -1, 14 15 79 78 -1, 15 16 80 79 -1, 16 17 81 80 -1, 17 18 82 81 -1, 18 19 83 82 -1, 19 20 84 83 -1, 20 21 85 84 -1, 21 22 86 85 -1, 22 23 87 86 -1, 23 24 88 87 -1, 24 25 89 88 -1, 25 26 90 89 -1, 26 27 91 90 -1, 27 28 92 91 -1, 28 29 93 92 -1, 29 30 94 93 -1, 30 31 95 94 -1, 31 32 96 95 -1, 32 33 97 96 -1, 33 34 98 97 -1, 34 35 99 98 -1, 35 36 100 99 -1, 36 37 101 100 -1, 37 38 102 101 -1, 38 39 103 102 -1, 39 40 104 103 -1, 40 41 105 104 -1, 41 42 106 105 -1, 42 43 107 106 -1, 43 44 108 107 -1, 44 45 109 108 -1, 45 46 110 109 -1, 46 47 111 110 -1, 47 48 112 111 -1, 48 49 113 112 -1, 49 50 114 113 -1, 50 51 115 114 -1, 51 52 116 115 -1, 52 53 117 116 -1, 53 54 118 117 -1, 54 55 119 118 -1, 55 56 120 119 -1, 56 57 121 120 -1, 57 58 122 121 -1, 58 59 123 122 -1, 59 60 124 123 -1, 60 61 125 124 -1, 61 62 126 125 -1, 62 63 127 126 -1, 63 0 64 127 -1, 63 62 61 60 59 58 57 56 55 54 53 52 51 50 49 48 47 46 45 44 43 42 41 40 39 38 37 36 35 34 33 32 31 30 29 28 27 26 25 24 23 22 21 20 19 18 17 16 15 14 13 12 11 10 9 8 7 6 5 4 3 2 1 0 -1, 64 65 66 67 68 69 70 71 72 73 74 75 76 77 78 79 80 81 82 83 84 85 86 87 88 89 90 91 92 93 94 95 96 97 98 99 100 101 102 103 104 105 106 107 108 109 110 111 112 113 114 115 116 117 118 119 120 121 122 123 124 125 126 127 -1 ] } }
Shape { appearance Appearance { material Material { diffuseColor 0.65 0.66 0.68 } } geometry IndexedFaceSet { solid FALSE coord Coordinate { point [ 2.9055118 0.0000000 6.2677165, 2.8962604 0.1883164 6.2677165, 2.8685953 0.3748192 6.2677165, 2.8227830 0.5577123 6.2677165, 2.7592646 0.7352343 6.2677165, 2.6786519 0.9056756 6.2677165, 2.5817211 1.0673948 6.2677165, 2.4694059 1.2188343 6.2677165, 2.3427878 1.3585359 6.2677165, 2.2030863 1.4851539 6.2677165, 2.0516467 1.5974692 6.2677165, 1.8899276 1.6943999 6.2677165, 1.7194863 1.7750126 6.2677165, 1.5419643 1.8385310 6.2677165, 1.3590712 1.8843434 6.2677165, 1.1725684 1.9120085 6.2677165, 0.9842520 1.9212598 6.2677165, 0.7959356 1.9120085 6.2677165, 0.6094328 1.8843434 6.2677165, 0.4265397 1.8385310 6.2677165, 0.2490177 1.7750126 6.2677165, 0.0785763 1.6943999 6.2677165, -0.0831428 1.5974692 6.2677165, -0.2345824 1.4851539 6.2677165, -0.3742839 1.3585359 6.2677165, -0.5009020 1.2188343 6.2677165, -0.6132172 1.0673948 6.2677165, -0.7101479 0.9056756 6.2677165, -0.7907607 0.7352343 6.2677165, -0.8542791 0.5577123 6.2677165, -0.9000914 0.3748192 6.2677165, -0.9277565 0.1883164 6.2677165, -0.9370079 0.0000000 6.2677165, -0.9277565 -0.1883164 6.2677165, -0.9000914 -0.3748192 6.2677165, -0.8542791 -0.5577123 6.2677165, -0.7907607 -0.7352343 6.2677165, -0.7101479 -0.9056756 6.2677165, -0.6132172 -1.0673948 6.2677165, -0.5009020 -1.2188343 6.2677165, -0.3742839 -1.3585359 6.2677165, -0.2345824 -1.4851539 6.2677165, -0.0831428 -1.5974692 6.2677165, 0.0785763 -1.6943999 6.2677165, 0.2490177 -1.7750126 6.2677165, 0.4265397 -1.8385310 6.2677165, 0.6094328 -1.8843434 6.2677165, 0.7959356 -1.9120085 6.2677165, 0.9842520 -1.9212598 6.2677165, 1.1725684 -1.9120085 6.2677165, 1.3590712 -1.8843434 6.2677165, 1.5419643 -1.8385310 6.2677165, 1.7194863 -1.7750126 6.2677165, 1.8899276 -1.6943999 6.2677165, 2.0516467 -1.5974692 6.2677165, 2.2030863 -1.4851539 6.2677165, 2.3427878 -1.3585359 6.2677165, 2.4694059 -1.2188343 6.2677165, 2.5817211 -1.0673948 6.2677165, 2.6786519 -0.9056756 6.2677165, 2.7592646 -0.7352343 6.2677165, 2.8227830 -0.5577123 6.2677165, 2.8685953 -0.3748192 6.2677165, 2.8962604 -0.1883164 6.2677165, 2.9055118 0.0000000 6.2992126, 2.8962604 0.1883164 6.2992126, 2.8685953 0.3748192 6.2992126, 2.8227830 0.5577123 6.2992126, 2.7592646 0.7352343 6.2992126, 2.6786519 0.9056756 6.2992126, 2.5817211 1.0673948 6.2992126, 2.4694059 1.2188343 6.2992126, 2.3427878 1.3585359 6.2992126, 2.2030863 1.4851539 6.2992126, 2.0516467 1.5974692 6.2992126, 1.8899276 1.6943999 6.2992126, 1.7194863 1.7750126 6.2992126, 1.5419643 1.8385310 6.2992126, 1.3590712 1.8843434 6.2992126, 1.1725684 1.9120085 6.2992126, 0.9842520 1.9212598 6.2992126, 0.7959356 1.9120085 6.2992126, 0.6094328 1.8843434 6.2992126, 0.4265397 1.8385310 6.2992126, 0.2490177 1.7750126 6.2992126, 0.0785763 1.6943999 6.2992126, -0.0831428 1.5974692 6.2992126, -0.2345824 1.4851539 6.2992126, -0.3742839 1.3585359 6.2992126, -0.5009020 1.2188343 6.2992126, -0.6132172 1.0673948 6.2992126, -0.7101479 0.9056756 6.2992126, -0.7907607 0.7352343 6.2992126, -0.8542791 0.5577123 6.2992126, -0.9000914 0.3748192 6.2992126, -0.9277565 0.1883164 6.2992126, -0.9370079 0.0000000 6.2992126, -0.9277565 -0.1883164 6.2992126, -0.9000914 -0.3748192 6.2992126, -0.8542791 -0.5577123 6.2992126, -0.7907607 -0.7352343 6.2992126, -0.7101479 -0.9056756 6.2992126, -0.6132172 -1.0673948 6.2992126, -0.5009020 -1.2188343 6.2992126, -0.3742839 -1.3585359 6.2992126, -0.2345824 -1.4851539 6.2992126, -0.0831428 -1.5974692 6.2992126, 0.0785763 -1.6943999 6.2992126, 0.2490177 -1.7750126 6.2992126, 0.4265397 -1.8385310 6.2992126, 0.6094328 -1.8843434 6.2992126, 0.7959356 -1.9120085 6.2992126, 0.9842520 -1.9212598 6.2992126, 1.1725684 -1.9120085 6.2992126, 1.3590712 -1.8843434 6.2992126, 1.5419643 -1.8385310 6.2992126, 1.7194863 -1.7750126 6.2992126, 1.8899276 -1.6943999 6.2992126, 2.0516467 -1.5974692 6.2992126, 2.2030863 -1.4851539 6.2992126, 2.3427878 -1.3585359 6.2992126, 2.4694059 -1.2188343 6.2992126, 2.5817211 -1.0673948 6.2992126, 2.6786519 -0.9056756 6.2992126, 2.7592646 -0.7352343 6.2992126, 2.8227830 -0.5577123 6.2992126, 2.8685953 -0.3748192 6.2992126, 2.8962604 -0.1883164 6.2992126 ] } coordIndex [ 0 1 65 64 -1, 1 2 66 65 -1, 2 3 67 66 -1, 3 4 68 67 -1, 4 5 69 68 -1, 5 6 70 69 -1, 6 7 71 70 -1, 7 8 72 71 -1, 8 9 73 72 -1, 9 10 74 73 -1, 10 11 75 74 -1, 11 12 76 75 -1, 12 13 77 76 -1, 13 14 78 77 -1, 14 15 79 78 -1, 15 16 80 79 -1, 16 17 81 80 -1, 17 18 82 81 -1, 18 19 83 82 -1, 19 20 84 83 -1, 20 21 85 84 -1, 21 22 86 85 -1, 22 23 87 86 -1, 23 24 88 87 -1, 24 25 89 88 -1, 25 26 90 89 -1, 26 27 91 90 -1, 27 28 92 91 -1, 28 29 93 92 -1, 29 30 94 93 -1, 30 31 95 94 -1, 31 32 96 95 -1, 32 33 97 96 -1, 33 34 98 97 -1, 34 35 99 98 -1, 35 36 100 99 -1, 36 37 101 100 -1, 37 38 102 101 -1, 38 39 103 102 -1, 39 40 104 103 -1, 40 41 105 104 -1, 41 42 106 105 -1, 42 43 107 106 -1, 43 44 108 107 -1, 44 45 109 108 -1, 45 46 110 109 -1, 46 47 111 110 -1, 47 48 112 111 -1, 48 49 113 112 -1, 49 50 114 113 -1, 50 51 115 114 -1, 51 52 116 115 -1, 52 53 117 116 -1, 53 54 118 117 -1, 54 55 119 118 -1, 55 56 120 119 -1, 56 57 121 120 -1, 57 58 122 121 -1, 58 59 123 122 -1, 59 60 124 123 -1, 60 61 125 124 -1, 61 62 126 125 -1, 62 63 127 126 -1, 63 0 64 127 -1, 63 62 61 60 59 58 57 56 55 54 53 52 51 50 49 48 47 46 45 44 43 42 41 40 39 38 37 36 35 34 33 32 31 30 29 28 27 26 25 24 23 22 21 20 19 18 17 16 15 14 13 12 11 10 9 8 7 6 5 4 3 2 1 0 -1, 64 65 66 67 68 69 70 71 72 73 74 75 76 77 78 79 80 81 82 83 84 85 86 87 88 89 90 91 92 93 94 95 96 97 98 99 100 101 102 103 104 105 106 107 108 109 110 111 112 113 114 115 116 117 118 119 120 121 122 123 124 125 126 127 -1 ] } }
Shape { appearance Appearance { material Material { diffuseColor 0.72 0.72 0.70 } } geometry IndexedFaceSet { solid FALSE coord Coordinate { point [ 0.1181102 0.0000000 -0.6299213, 0.1175415 0.0115768 -0.6299213, 0.1158408 0.0230422 -0.6299213, 0.1130244 0.0342856 -0.6299213, 0.1091196 0.0451988 -0.6299213, 0.1041639 0.0556768 -0.6299213, 0.0982051 0.0656185 -0.6299213, 0.0913004 0.0749283 -0.6299213, 0.0835165 0.0835165 -0.6299213, 0.0749283 0.0913004 -0.6299213, 0.0656185 0.0982051 -0.6299213, 0.0556768 0.1041639 -0.6299213, 0.0451988 0.1091196 -0.6299213, 0.0342856 0.1130244 -0.6299213, 0.0230422 0.1158408 -0.6299213, 0.0115768 0.1175415 -0.6299213, 0.0000000 0.1181102 -0.6299213, -0.0115768 0.1175415 -0.6299213, -0.0230422 0.1158408 -0.6299213, -0.0342856 0.1130244 -0.6299213, -0.0451988 0.1091196 -0.6299213, -0.0556768 0.1041639 -0.6299213, -0.0656185 0.0982051 -0.6299213, -0.0749283 0.0913004 -0.6299213, -0.0835165 0.0835165 -0.6299213, -0.0913004 0.0749283 -0.6299213, -0.0982051 0.0656185 -0.6299213, -0.1041639 0.0556768 -0.6299213, -0.1091196 0.0451988 -0.6299213, -0.1130244 0.0342856 -0.6299213, -0.1158408 0.0230422 -0.6299213, -0.1175415 0.0115768 -0.6299213, -0.1181102 0.0000000 -0.6299213, -0.1175415 -0.0115768 -0.6299213, -0.1158408 -0.0230422 -0.6299213, -0.1130244 -0.0342856 -0.6299213, -0.1091196 -0.0451988 -0.6299213, -0.1041639 -0.0556768 -0.6299213, -0.0982051 -0.0656185 -0.6299213, -0.0913004 -0.0749283 -0.6299213, -0.0835165 -0.0835165 -0.6299213, -0.0749283 -0.0913004 -0.6299213, -0.0656185 -0.0982051 -0.6299213, -0.0556768 -0.1041639 -0.6299213, -0.0451988 -0.1091196 -0.6299213, -0.0342856 -0.1130244 -0.6299213, -0.0230422 -0.1158408 -0.6299213, -0.0115768 -0.1175415 -0.6299213, -0.0000000 -0.1181102 -0.6299213, 0.0115768 -0.1175415 -0.6299213, 0.0230422 -0.1158408 -0.6299213, 0.0342856 -0.1130244 -0.6299213, 0.0451988 -0.1091196 -0.6299213, 0.0556768 -0.1041639 -0.6299213, 0.0656185 -0.0982051 -0.6299213, 0.0749283 -0.0913004 -0.6299213, 0.0835165 -0.0835165 -0.6299213, 0.0913004 -0.0749283 -0.6299213, 0.0982051 -0.0656185 -0.6299213, 0.1041639 -0.0556768 -0.6299213, 0.1091196 -0.0451988 -0.6299213, 0.1130244 -0.0342856 -0.6299213, 0.1158408 -0.0230422 -0.6299213, 0.1175415 -0.0115768 -0.6299213, 0.1181102 0.0000000 0.0000000, 0.1175415 0.0115768 0.0000000, 0.1158408 0.0230422 0.0000000, 0.1130244 0.0342856 0.0000000, 0.1091196 0.0451988 0.0000000, 0.1041639 0.0556768 0.0000000, 0.0982051 0.0656185 0.0000000, 0.0913004 0.0749283 0.0000000, 0.0835165 0.0835165 0.0000000, 0.0749283 0.0913004 0.0000000, 0.0656185 0.0982051 0.0000000, 0.0556768 0.1041639 0.0000000, 0.0451988 0.1091196 0.0000000, 0.0342856 0.1130244 0.0000000, 0.0230422 0.1158408 0.0000000, 0.0115768 0.1175415 0.0000000, 0.0000000 0.1181102 0.0000000, -0.0115768 0.1175415 0.0000000, -0.0230422 0.1158408 0.0000000, -0.0342856 0.1130244 0.0000000, -0.0451988 0.1091196 0.0000000, -0.0556768 0.1041639 0.0000000, -0.0656185 0.0982051 0.0000000, -0.0749283 0.0913004 0.0000000, -0.0835165 0.0835165 0.0000000, -0.0913004 0.0749283 0.0000000, -0.0982051 0.0656185 0.0000000, -0.1041639 0.0556768 0.0000000, -0.1091196 0.0451988 0.0000000, -0.1130244 0.0342856 0.0000000, -0.1158408 0.0230422 0.0000000, -0.1175415 0.0115768 0.0000000, -0.1181102 0.0000000 0.0000000, -0.1175415 -0.0115768 0.0000000, -0.1158408 -0.0230422 0.0000000, -0.1130244 -0.0342856 0.0000000, -0.1091196 -0.0451988 0.0000000, -0.1041639 -0.0556768 0.0000000, -0.0982051 -0.0656185 0.0000000, -0.0913004 -0.0749283 0.0000000, -0.0835165 -0.0835165 0.0000000, -0.0749283 -0.0913004 0.0000000, -0.0656185 -0.0982051 0.0000000, -0.0556768 -0.1041639 0.0000000, -0.0451988 -0.1091196 0.0000000, -0.0342856 -0.1130244 0.0000000, -0.0230422 -0.1158408 0.0000000, -0.0115768 -0.1175415 0.0000000, -0.0000000 -0.1181102 0.0000000, 0.0115768 -0.1175415 0.0000000, 0.0230422 -0.1158408 0.0000000, 0.0342856 -0.1130244 0.0000000, 0.0451988 -0.1091196 0.0000000, 0.0556768 -0.1041639 0.0000000, 0.0656185 -0.0982051 0.0000000, 0.0749283 -0.0913004 0.0000000, 0.0835165 -0.0835165 0.0000000, 0.0913004 -0.0749283 0.0000000, 0.0982051 -0.0656185 0.0000000, 0.1041639 -0.0556768 0.0000000, 0.1091196 -0.0451988 0.0000000, 0.1130244 -0.0342856 0.0000000, 0.1158408 -0.0230422 0.0000000, 0.1175415 -0.0115768 0.0000000 ] } coordIndex [ 0 1 65 64 -1, 1 2 66 65 -1, 2 3 67 66 -1, 3 4 68 67 -1, 4 5 69 68 -1, 5 6 70 69 -1, 6 7 71 70 -1, 7 8 72 71 -1, 8 9 73 72 -1, 9 10 74 73 -1, 10 11 75 74 -1, 11 12 76 75 -1, 12 13 77 76 -1, 13 14 78 77 -1, 14 15 79 78 -1, 15 16 80 79 -1, 16 17 81 80 -1, 17 18 82 81 -1, 18 19 83 82 -1, 19 20 84 83 -1, 20 21 85 84 -1, 21 22 86 85 -1, 22 23 87 86 -1, 23 24 88 87 -1, 24 25 89 88 -1, 25 26 90 89 -1, 26 27 91 90 -1, 27 28 92 91 -1, 28 29 93 92 -1, 29 30 94 93 -1, 30 31 95 94 -1, 31 32 96 95 -1, 32 33 97 96 -1, 33 34 98 97 -1, 34 35 99 98 -1, 35 36 100 99 -1, 36 37 101 100 -1, 37 38 102 101 -1, 38 39 103 102 -1, 39 40 104 103 -1, 40 41 105 104 -1, 41 42 106 105 -1, 42 43 107 106 -1, 43 44 108 107 -1, 44 45 109 108 -1, 45 46 110 109 -1, 46 47 111 110 -1, 47 48 112 111 -1, 48 49 113 112 -1, 49 50 114 113 -1, 50 51 115 114 -1, 51 52 116 115 -1, 52 53 117 116 -1, 53 54 118 117 -1, 54 55 119 118 -1, 55 56 120 119 -1, 56 57 121 120 -1, 57 58 122 121 -1, 58 59 123 122 -1, 59 60 124 123 -1, 60 61 125 124 -1, 61 62 126 125 -1, 62 63 127 126 -1, 63 0 64 127 -1, 63 62 61 60 59 58 57 56 55 54 53 52 51 50 49 48 47 46 45 44 43 42 41 40 39 38 37 36 35 34 33 32 31 30 29 28 27 26 25 24 23 22 21 20 19 18 17 16 15 14 13 12 11 10 9 8 7 6 5 4 3 2 1 0 -1, 64 65 66 67 68 69 70 71 72 73 74 75 76 77 78 79 80 81 82 83 84 85 86 87 88 89 90 91 92 93 94 95 96 97 98 99 100 101 102 103 104 105 106 107 108 109 110 111 112 113 114 115 116 117 118 119 120 121 122 123 124 125 126 127 -1 ] } }
Shape { appearance Appearance { material Material { diffuseColor 0.72 0.72 0.70 } } geometry IndexedFaceSet { solid FALSE coord Coordinate { point [ 2.0866142 0.0000000 -0.6299213, 2.0860454 0.0115768 -0.6299213, 2.0843447 0.0230422 -0.6299213, 2.0815284 0.0342856 -0.6299213, 2.0776236 0.0451988 -0.6299213, 2.0726679 0.0556768 -0.6299213, 2.0667090 0.0656185 -0.6299213, 2.0598044 0.0749283 -0.6299213, 2.0520205 0.0835165 -0.6299213, 2.0434323 0.0913004 -0.6299213, 2.0341225 0.0982051 -0.6299213, 2.0241807 0.1041639 -0.6299213, 2.0137028 0.1091196 -0.6299213, 2.0027895 0.1130244 -0.6299213, 1.9915461 0.1158408 -0.6299213, 1.9800808 0.1175415 -0.6299213, 1.9685039 0.1181102 -0.6299213, 1.9569271 0.1175415 -0.6299213, 1.9454618 0.1158408 -0.6299213, 1.9342183 0.1130244 -0.6299213, 1.9233051 0.1091196 -0.6299213, 1.9128272 0.1041639 -0.6299213, 1.9028854 0.0982051 -0.6299213, 1.8935756 0.0913004 -0.6299213, 1.8849874 0.0835165 -0.6299213, 1.8772035 0.0749283 -0.6299213, 1.8702989 0.0656185 -0.6299213, 1.8643400 0.0556768 -0.6299213, 1.8593843 0.0451988 -0.6299213, 1.8554795 0.0342856 -0.6299213, 1.8526632 0.0230422 -0.6299213, 1.8509624 0.0115768 -0.6299213, 1.8503937 0.0000000 -0.6299213, 1.8509624 -0.0115768 -0.6299213, 1.8526632 -0.0230422 -0.6299213, 1.8554795 -0.0342856 -0.6299213, 1.8593843 -0.0451988 -0.6299213, 1.8643400 -0.0556768 -0.6299213, 1.8702989 -0.0656185 -0.6299213, 1.8772035 -0.0749283 -0.6299213, 1.8849874 -0.0835165 -0.6299213, 1.8935756 -0.0913004 -0.6299213, 1.9028854 -0.0982051 -0.6299213, 1.9128272 -0.1041639 -0.6299213, 1.9233051 -0.1091196 -0.6299213, 1.9342183 -0.1130244 -0.6299213, 1.9454618 -0.1158408 -0.6299213, 1.9569271 -0.1175415 -0.6299213, 1.9685039 -0.1181102 -0.6299213, 1.9800808 -0.1175415 -0.6299213, 1.9915461 -0.1158408 -0.6299213, 2.0027895 -0.1130244 -0.6299213, 2.0137028 -0.1091196 -0.6299213, 2.0241807 -0.1041639 -0.6299213, 2.0341225 -0.0982051 -0.6299213, 2.0434323 -0.0913004 -0.6299213, 2.0520205 -0.0835165 -0.6299213, 2.0598044 -0.0749283 -0.6299213, 2.0667090 -0.0656185 -0.6299213, 2.0726679 -0.0556768 -0.6299213, 2.0776236 -0.0451988 -0.6299213, 2.0815284 -0.0342856 -0.6299213, 2.0843447 -0.0230422 -0.6299213, 2.0860454 -0.0115768 -0.6299213, 2.0866142 0.0000000 0.0000000, 2.0860454 0.0115768 0.0000000, 2.0843447 0.0230422 0.0000000, 2.0815284 0.0342856 0.0000000, 2.0776236 0.0451988 0.0000000, 2.0726679 0.0556768 0.0000000, 2.0667090 0.0656185 0.0000000, 2.0598044 0.0749283 0.0000000, 2.0520205 0.0835165 0.0000000, 2.0434323 0.0913004 0.0000000, 2.0341225 0.0982051 0.0000000, 2.0241807 0.1041639 0.0000000, 2.0137028 0.1091196 0.0000000, 2.0027895 0.1130244 0.0000000, 1.9915461 0.1158408 0.0000000, 1.9800808 0.1175415 0.0000000, 1.9685039 0.1181102 0.0000000, 1.9569271 0.1175415 0.0000000, 1.9454618 0.1158408 0.0000000, 1.9342183 0.1130244 0.0000000, 1.9233051 0.1091196 0.0000000, 1.9128272 0.1041639 0.0000000, 1.9028854 0.0982051 0.0000000, 1.8935756 0.0913004 0.0000000, 1.8849874 0.0835165 0.0000000, 1.8772035 0.0749283 0.0000000, 1.8702989 0.0656185 0.0000000, 1.8643400 0.0556768 0.0000000, 1.8593843 0.0451988 0.0000000, 1.8554795 0.0342856 0.0000000, 1.8526632 0.0230422 0.0000000, 1.8509624 0.0115768 0.0000000, 1.8503937 0.0000000 0.0000000, 1.8509624 -0.0115768 0.0000000, 1.8526632 -0.0230422 0.0000000, 1.8554795 -0.0342856 0.0000000, 1.8593843 -0.0451988 0.0000000, 1.8643400 -0.0556768 0.0000000, 1.8702989 -0.0656185 0.0000000, 1.8772035 -0.0749283 0.0000000, 1.8849874 -0.0835165 0.0000000, 1.8935756 -0.0913004 0.0000000, 1.9028854 -0.0982051 0.0000000, 1.9128272 -0.1041639 0.0000000, 1.9233051 -0.1091196 0.0000000, 1.9342183 -0.1130244 0.0000000, 1.9454618 -0.1158408 0.0000000, 1.9569271 -0.1175415 0.0000000, 1.9685039 -0.1181102 0.0000000, 1.9800808 -0.1175415 0.0000000, 1.9915461 -0.1158408 0.0000000, 2.0027895 -0.1130244 0.0000000, 2.0137028 -0.1091196 0.0000000, 2.0241807 -0.1041639 0.0000000, 2.0341225 -0.0982051 0.0000000, 2.0434323 -0.0913004 0.0000000, 2.0520205 -0.0835165 0.0000000, 2.0598044 -0.0749283 0.0000000, 2.0667090 -0.0656185 0.0000000, 2.0726679 -0.0556768 0.0000000, 2.0776236 -0.0451988 0.0000000, 2.0815284 -0.0342856 0.0000000, 2.0843447 -0.0230422 0.0000000, 2.0860454 -0.0115768 0.0000000 ] } coordIndex [ 0 1 65 64 -1, 1 2 66 65 -1, 2 3 67 66 -1, 3 4 68 67 -1, 4 5 69 68 -1, 5 6 70 69 -1, 6 7 71 70 -1, 7 8 72 71 -1, 8 9 73 72 -1, 9 10 74 73 -1, 10 11 75 74 -1, 11 12 76 75 -1, 12 13 77 76 -1, 13 14 78 77 -1, 14 15 79 78 -1, 15 16 80 79 -1, 16 17 81 80 -1, 17 18 82 81 -1, 18 19 83 82 -1, 19 20 84 83 -1, 20 21 85 84 -1, 21 22 86 85 -1, 22 23 87 86 -1, 23 24 88 87 -1, 24 25 89 88 -1, 25 26 90 89 -1, 26 27 91 90 -1, 27 28 92 91 -1, 28 29 93 92 -1, 29 30 94 93 -1, 30 31 95 94 -1, 31 32 96 95 -1, 32 33 97 96 -1, 33 34 98 97 -1, 34 35 99 98 -1, 35 36 100 99 -1, 36 37 101 100 -1, 37 38 102 101 -1, 38 39 103 102 -1, 39 40 104 103 -1, 40 41 105 104 -1, 41 42 106 105 -1, 42 43 107 106 -1, 43 44 108 107 -1, 44 45 109 108 -1, 45 46 110 109 -1, 46 47 111 110 -1, 47 48 112 111 -1, 48 49 113 112 -1, 49 50 114 113 -1, 50 51 115 114 -1, 51 52 116 115 -1, 52 53 117 116 -1, 53 54 118 117 -1, 54 55 119 118 -1, 55 56 120 119 -1, 56 57 121 120 -1, 57 58 122 121 -1, 58 59 123 122 -1, 59 60 124 123 -1, 60 61 125 124 -1, 61 62 126 125 -1, 62 63 127 126 -1, 63 0 64 127 -1, 63 62 61 60 59 58 57 56 55 54 53 52 51 50 49 48 47 46 45 44 43 42 41 40 39 38 37 36 35 34 33 32 31 30 29 28 27 26 25 24 23 22 21 20 19 18 17 16 15 14 13 12 11 10 9 8 7 6 5 4 3 2 1 0 -1, 64 65 66 67 68 69 70 71 72 73 74 75 76 77 78 79 80 81 82 83 84 85 86 87 88 89 90 91 92 93 94 95 96 97 98 99 100 101 102 103 104 105 106 107 108 109 110 111 112 113 114 115 116 117 118 119 120 121 122 123 124 125 126 127 -1 ] } }
Shape { appearance Appearance { material Material { diffuseColor 0.66 0.69 0.72 } } geometry IndexedFaceSet { solid FALSE coord Coordinate { point [ 2.8821761 -0.5442210 0.3149606, 2.9155158 -0.4105028 0.3149606, 2.9394466 -0.2747847 0.3149606, 2.9538519 -0.1377278 0.3149606, 2.9586614 0.0000000 0.3149606, 2.9538519 0.1377278 0.3149606, 2.9394466 0.2747847 0.3149606, 2.9155158 0.4105028 0.3149606, 2.8821761 0.5442210 0.3149606, 2.8821761 -0.5442210 5.9842520, 2.9155158 -0.4105028 5.9842520, 2.9394466 -0.2747847 5.9842520, 2.9538519 -0.1377278 5.9842520, 2.9586614 0.0000000 5.9842520, 2.9538519 0.1377278 5.9842520, 2.9394466 0.2747847 5.9842520, 2.9155158 0.4105028 5.9842520, 2.8821761 0.5442210 5.9842520 ] } coordIndex [ 0 1 10 9 -1, 1 2 11 10 -1, 2 3 12 11 -1, 3 4 13 12 -1, 4 5 14 13 -1, 5 6 15 14 -1, 6 7 16 15 -1, 7 8 17 16 -1 ] } }
