#VRML V2.0 utf8
# Nominal project-authored visualization, not manufacturer CAD or mechanical fit proof.
# PanasonicEEUFR1E102:nominalD10mm,L20mm,F5mm;FR-Adatasheet01-Sep-2025 d0.6mm.
# Pin1positiveatx0;pin2negativeatx5;can centerx2.5. Negative stripe visual convention on+Xside.
# Explicit64-sidedIndexedFaceSet meshes avoid renderer dependency on VRML Cylinder primitives.
# One externalKiCadVRML unit=2.54mm. Nominal bodyheight20mm; bulging,tolerances,sleevecrimp/standoffnotmodeled.
Shape { appearance Appearance { material Material { diffuseColor 0.05 0.08 0.16 shininess 0.25 } } geometry IndexedFaceSet { solid FALSE creaseAngle 0.5 coord Coordinate { point [ 2.9527559 0.0000000 0.0000000, 2.9432770 0.1929471 0.0000000, 2.9149316 0.3840361 0.0000000, 2.8679928 0.5714265 0.0000000, 2.8029125 0.7533138 0.0000000, 2.7203174 0.9279463 0.0000000, 2.6210032 1.0936422 0.0000000, 2.5059261 1.2488057 0.0000000, 2.3761945 1.3919425 0.0000000, 2.2330577 1.5216741 0.0000000, 2.0778942 1.6367512 0.0000000, 1.9121983 1.7360654 0.0000000, 1.7375658 1.8186605 0.0000000, 1.5556785 1.8837408 0.0000000, 1.3682881 1.9306796 0.0000000, 1.1771991 1.9590250 0.0000000, 0.9842520 1.9685039 0.0000000, 0.7913049 1.9590250 0.0000000, 0.6002159 1.9306796 0.0000000, 0.4128255 1.8837408 0.0000000, 0.2309382 1.8186605 0.0000000, 0.0563057 1.7360654 0.0000000, -0.1093902 1.6367512 0.0000000, -0.2645537 1.5216741 0.0000000, -0.4076905 1.3919425 0.0000000, -0.5374221 1.2488057 0.0000000, -0.6524992 1.0936422 0.0000000, -0.7518134 0.9279463 0.0000000, -0.8344085 0.7533138 0.0000000, -0.8994888 0.5714265 0.0000000, -0.9464276 0.3840361 0.0000000, -0.9747730 0.1929471 0.0000000, -0.9842519 0.0000000 0.0000000, -0.9747730 -0.1929471 0.0000000, -0.9464276 -0.3840361 0.0000000, -0.8994888 -0.5714265 0.0000000, -0.8344085 -0.7533138 0.0000000, -0.7518134 -0.9279463 0.0000000, -0.6524992 -1.0936422 0.0000000, -0.5374221 -1.2488057 0.0000000, -0.4076905 -1.3919425 0.0000000, -0.2645537 -1.5216741 0.0000000, -0.1093902 -1.6367512 0.0000000, 0.0563057 -1.7360654 0.0000000, 0.2309382 -1.8186605 0.0000000, 0.4128255 -1.8837408 0.0000000, 0.6002159 -1.9306796 0.0000000, 0.7913049 -1.9590250 0.0000000, 0.9842520 -1.9685039 0.0000000, 1.1771991 -1.9590250 0.0000000, 1.3682881 -1.9306796 0.0000000, 1.5556785 -1.8837408 0.0000000, 1.7375658 -1.8186605 0.0000000, 1.9121983 -1.7360654 0.0000000, 2.0778942 -1.6367512 0.0000000, 2.2330577 -1.5216741 0.0000000, 2.3761945 -1.3919425 0.0000000, 2.5059261 -1.2488057 0.0000000, 2.6210032 -1.0936422 0.0000000, 2.7203174 -0.9279463 0.0000000, 2.8029125 -0.7533138 0.0000000, 2.8679928 -0.5714265 0.0000000, 2.9149316 -0.3840361 0.0000000, 2.9432770 -0.1929471 0.0000000, 2.9527559 0.0000000 7.8543307, 2.9432770 0.1929471 7.8543307, 2.9149316 0.3840361 7.8543307, 2.8679928 0.5714265 7.8543307, 2.8029125 0.7533138 7.8543307, 2.7203174 0.9279463 7.8543307, 2.6210032 1.0936422 7.8543307, 2.5059261 1.2488057 7.8543307, 2.3761945 1.3919425 7.8543307, 2.2330577 1.5216741 7.8543307, 2.0778942 1.6367512 7.8543307, 1.9121983 1.7360654 7.8543307, 1.7375658 1.8186605 7.8543307, 1.5556785 1.8837408 7.8543307, 1.3682881 1.9306796 7.8543307, 1.1771991 1.9590250 7.8543307, 0.9842520 1.9685039 7.8543307, 0.7913049 1.9590250 7.8543307, 0.6002159 1.9306796 7.8543307, 0.4128255 1.8837408 7.8543307, 0.2309382 1.8186605 7.8543307, 0.0563057 1.7360654 7.8543307, -0.1093902 1.6367512 7.8543307, -0.2645537 1.5216741 7.8543307, -0.4076905 1.3919425 7.8543307, -0.5374221 1.2488057 7.8543307, -0.6524992 1.0936422 7.8543307, -0.7518134 0.9279463 7.8543307, -0.8344085 0.7533138 7.8543307, -0.8994888 0.5714265 7.8543307, -0.9464276 0.3840361 7.8543307, -0.9747730 0.1929471 7.8543307, -0.9842519 0.0000000 7.8543307, -0.9747730 -0.1929471 7.8543307, -0.9464276 -0.3840361 7.8543307, -0.8994888 -0.5714265 7.8543307, -0.8344085 -0.7533138 7.8543307, -0.7518134 -0.9279463 7.8543307, -0.6524992 -1.0936422 7.8543307, -0.5374221 -1.2488057 7.8543307, -0.4076905 -1.3919425 7.8543307, -0.2645537 -1.5216741 7.8543307, -0.1093902 -1.6367512 7.8543307, 0.0563057 -1.7360654 7.8543307, 0.2309382 -1.8186605 7.8543307, 0.4128255 -1.8837408 7.8543307, 0.6002159 -1.9306796 7.8543307, 0.7913049 -1.9590250 7.8543307, 0.9842520 -1.9685039 7.8543307, 1.1771991 -1.9590250 7.8543307, 1.3682881 -1.9306796 7.8543307, 1.5556785 -1.8837408 7.8543307, 1.7375658 -1.8186605 7.8543307, 1.9121983 -1.7360654 7.8543307, 2.0778942 -1.6367512 7.8543307, 2.2330577 -1.5216741 7.8543307, 2.3761945 -1.3919425 7.8543307, 2.5059261 -1.2488057 7.8543307, 2.6210032 -1.0936422 7.8543307, 2.7203174 -0.9279463 7.8543307, 2.8029125 -0.7533138 7.8543307, 2.8679928 -0.5714265 7.8543307, 2.9149316 -0.3840361 7.8543307, 2.9432770 -0.1929471 7.8543307, 0.9842520 0.0000000 0.0000000, 0.9842520 0.0000000 7.8543307 ] } coordIndex [ 0 1 65 64 -1, 128 1 0 -1, 129 64 65 -1, 1 2 66 65 -1, 128 2 1 -1, 129 65 66 -1, 2 3 67 66 -1, 128 3 2 -1, 129 66 67 -1, 3 4 68 67 -1, 128 4 3 -1, 129 67 68 -1, 4 5 69 68 -1, 128 5 4 -1, 129 68 69 -1, 5 6 70 69 -1, 128 6 5 -1, 129 69 70 -1, 6 7 71 70 -1, 128 7 6 -1, 129 70 71 -1, 7 8 72 71 -1, 128 8 7 -1, 129 71 72 -1, 8 9 73 72 -1, 128 9 8 -1, 129 72 73 -1, 9 10 74 73 -1, 128 10 9 -1, 129 73 74 -1, 10 11 75 74 -1, 128 11 10 -1, 129 74 75 -1, 11 12 76 75 -1, 128 12 11 -1, 129 75 76 -1, 12 13 77 76 -1, 128 13 12 -1, 129 76 77 -1, 13 14 78 77 -1, 128 14 13 -1, 129 77 78 -1, 14 15 79 78 -1, 128 15 14 -1, 129 78 79 -1, 15 16 80 79 -1, 128 16 15 -1, 129 79 80 -1, 16 17 81 80 -1, 128 17 16 -1, 129 80 81 -1, 17 18 82 81 -1, 128 18 17 -1, 129 81 82 -1, 18 19 83 82 -1, 128 19 18 -1, 129 82 83 -1, 19 20 84 83 -1, 128 20 19 -1, 129 83 84 -1, 20 21 85 84 -1, 128 21 20 -1, 129 84 85 -1, 21 22 86 85 -1, 128 22 21 -1, 129 85 86 -1, 22 23 87 86 -1, 128 23 22 -1, 129 86 87 -1, 23 24 88 87 -1, 128 24 23 -1, 129 87 88 -1, 24 25 89 88 -1, 128 25 24 -1, 129 88 89 -1, 25 26 90 89 -1, 128 26 25 -1, 129 89 90 -1, 26 27 91 90 -1, 128 27 26 -1, 129 90 91 -1, 27 28 92 91 -1, 128 28 27 -1, 129 91 92 -1, 28 29 93 92 -1, 128 29 28 -1, 129 92 93 -1, 29 30 94 93 -1, 128 30 29 -1, 129 93 94 -1, 30 31 95 94 -1, 128 31 30 -1, 129 94 95 -1, 31 32 96 95 -1, 128 32 31 -1, 129 95 96 -1, 32 33 97 96 -1, 128 33 32 -1, 129 96 97 -1, 33 34 98 97 -1, 128 34 33 -1, 129 97 98 -1, 34 35 99 98 -1, 128 35 34 -1, 129 98 99 -1, 35 36 100 99 -1, 128 36 35 -1, 129 99 100 -1, 36 37 101 100 -1, 128 37 36 -1, 129 100 101 -1, 37 38 102 101 -1, 128 38 37 -1, 129 101 102 -1, 38 39 103 102 -1, 128 39 38 -1, 129 102 103 -1, 39 40 104 103 -1, 128 40 39 -1, 129 103 104 -1, 40 41 105 104 -1, 128 41 40 -1, 129 104 105 -1, 41 42 106 105 -1, 128 42 41 -1, 129 105 106 -1, 42 43 107 106 -1, 128 43 42 -1, 129 106 107 -1, 43 44 108 107 -1, 128 44 43 -1, 129 107 108 -1, 44 45 109 108 -1, 128 45 44 -1, 129 108 109 -1, 45 46 110 109 -1, 128 46 45 -1, 129 109 110 -1, 46 47 111 110 -1, 128 47 46 -1, 129 110 111 -1, 47 48 112 111 -1, 128 48 47 -1, 129 111 112 -1, 48 49 113 112 -1, 128 49 48 -1, 129 112 113 -1, 49 50 114 113 -1, 128 50 49 -1, 129 113 114 -1, 50 51 115 114 -1, 128 51 50 -1, 129 114 115 -1, 51 52 116 115 -1, 128 52 51 -1, 129 115 116 -1, 52 53 117 116 -1, 128 53 52 -1, 129 116 117 -1, 53 54 118 117 -1, 128 54 53 -1, 129 117 118 -1, 54 55 119 118 -1, 128 55 54 -1, 129 118 119 -1, 55 56 120 119 -1, 128 56 55 -1, 129 119 120 -1, 56 57 121 120 -1, 128 57 56 -1, 129 120 121 -1, 57 58 122 121 -1, 128 58 57 -1, 129 121 122 -1, 58 59 123 122 -1, 128 59 58 -1, 129 122 123 -1, 59 60 124 123 -1, 128 60 59 -1, 129 123 124 -1, 60 61 125 124 -1, 128 61 60 -1, 129 124 125 -1, 61 62 126 125 -1, 128 62 61 -1, 129 125 126 -1, 62 63 127 126 -1, 128 63 62 -1, 129 126 127 -1, 63 0 64 127 -1, 128 0 63 -1, 129 127 64 -1 ] } }
Shape { appearance Appearance { material Material { diffuseColor 0.70 0.72 0.74 shininess 0.25 } } geometry IndexedFaceSet { solid FALSE creaseAngle 0.5 coord Coordinate { point [ 0.1181102 0.0000000 -0.7874016, 0.1175415 0.0115768 -0.7874016, 0.1158407 0.0230422 -0.7874016, 0.1130244 0.0342856 -0.7874016, 0.1091196 0.0451988 -0.7874016, 0.1041639 0.0556768 -0.7874016, 0.0982050 0.0656185 -0.7874016, 0.0913004 0.0749283 -0.7874016, 0.0835165 0.0835165 -0.7874016, 0.0749283 0.0913004 -0.7874016, 0.0656185 0.0982050 -0.7874016, 0.0556768 0.1041639 -0.7874016, 0.0451988 0.1091196 -0.7874016, 0.0342856 0.1130244 -0.7874016, 0.0230422 0.1158407 -0.7874016, 0.0115768 0.1175415 -0.7874016, 0.0000000 0.1181102 -0.7874016, -0.0115768 0.1175415 -0.7874016, -0.0230422 0.1158407 -0.7874016, -0.0342856 0.1130244 -0.7874016, -0.0451988 0.1091196 -0.7874016, -0.0556768 0.1041639 -0.7874016, -0.0656185 0.0982050 -0.7874016, -0.0749283 0.0913004 -0.7874016, -0.0835165 0.0835165 -0.7874016, -0.0913004 0.0749283 -0.7874016, -0.0982050 0.0656185 -0.7874016, -0.1041639 0.0556768 -0.7874016, -0.1091196 0.0451988 -0.7874016, -0.1130244 0.0342856 -0.7874016, -0.1158407 0.0230422 -0.7874016, -0.1175415 0.0115768 -0.7874016, -0.1181102 0.0000000 -0.7874016, -0.1175415 -0.0115768 -0.7874016, -0.1158407 -0.0230422 -0.7874016, -0.1130244 -0.0342856 -0.7874016, -0.1091196 -0.0451988 -0.7874016, -0.1041639 -0.0556768 -0.7874016, -0.0982050 -0.0656185 -0.7874016, -0.0913004 -0.0749283 -0.7874016, -0.0835165 -0.0835165 -0.7874016, -0.0749283 -0.0913004 -0.7874016, -0.0656185 -0.0982050 -0.7874016, -0.0556768 -0.1041639 -0.7874016, -0.0451988 -0.1091196 -0.7874016, -0.0342856 -0.1130244 -0.7874016, -0.0230422 -0.1158407 -0.7874016, -0.0115768 -0.1175415 -0.7874016, -0.0000000 -0.1181102 -0.7874016, 0.0115768 -0.1175415 -0.7874016, 0.0230422 -0.1158407 -0.7874016, 0.0342856 -0.1130244 -0.7874016, 0.0451988 -0.1091196 -0.7874016, 0.0556768 -0.1041639 -0.7874016, 0.0656185 -0.0982050 -0.7874016, 0.0749283 -0.0913004 -0.7874016, 0.0835165 -0.0835165 -0.7874016, 0.0913004 -0.0749283 -0.7874016, 0.0982050 -0.0656185 -0.7874016, 0.1041639 -0.0556768 -0.7874016, 0.1091196 -0.0451988 -0.7874016, 0.1130244 -0.0342856 -0.7874016, 0.1158407 -0.0230422 -0.7874016, 0.1175415 -0.0115768 -0.7874016, 0.1181102 0.0000000 0.0000000, 0.1175415 0.0115768 0.0000000, 0.1158407 0.0230422 0.0000000, 0.1130244 0.0342856 0.0000000, 0.1091196 0.0451988 0.0000000, 0.1041639 0.0556768 0.0000000, 0.0982050 0.0656185 0.0000000, 0.0913004 0.0749283 0.0000000, 0.0835165 0.0835165 0.0000000, 0.0749283 0.0913004 0.0000000, 0.0656185 0.0982050 0.0000000, 0.0556768 0.1041639 0.0000000, 0.0451988 0.1091196 0.0000000, 0.0342856 0.1130244 0.0000000, 0.0230422 0.1158407 0.0000000, 0.0115768 0.1175415 0.0000000, 0.0000000 0.1181102 0.0000000, -0.0115768 0.1175415 0.0000000, -0.0230422 0.1158407 0.0000000, -0.0342856 0.1130244 0.0000000, -0.0451988 0.1091196 0.0000000, -0.0556768 0.1041639 0.0000000, -0.0656185 0.0982050 0.0000000, -0.0749283 0.0913004 0.0000000, -0.0835165 0.0835165 0.0000000, -0.0913004 0.0749283 0.0000000, -0.0982050 0.0656185 0.0000000, -0.1041639 0.0556768 0.0000000, -0.1091196 0.0451988 0.0000000, -0.1130244 0.0342856 0.0000000, -0.1158407 0.0230422 0.0000000, -0.1175415 0.0115768 0.0000000, -0.1181102 0.0000000 0.0000000, -0.1175415 -0.0115768 0.0000000, -0.1158407 -0.0230422 0.0000000, -0.1130244 -0.0342856 0.0000000, -0.1091196 -0.0451988 0.0000000, -0.1041639 -0.0556768 0.0000000, -0.0982050 -0.0656185 0.0000000, -0.0913004 -0.0749283 0.0000000, -0.0835165 -0.0835165 0.0000000, -0.0749283 -0.0913004 0.0000000, -0.0656185 -0.0982050 0.0000000, -0.0556768 -0.1041639 0.0000000, -0.0451988 -0.1091196 0.0000000, -0.0342856 -0.1130244 0.0000000, -0.0230422 -0.1158407 0.0000000, -0.0115768 -0.1175415 0.0000000, -0.0000000 -0.1181102 0.0000000, 0.0115768 -0.1175415 0.0000000, 0.0230422 -0.1158407 0.0000000, 0.0342856 -0.1130244 0.0000000, 0.0451988 -0.1091196 0.0000000, 0.0556768 -0.1041639 0.0000000, 0.0656185 -0.0982050 0.0000000, 0.0749283 -0.0913004 0.0000000, 0.0835165 -0.0835165 0.0000000, 0.0913004 -0.0749283 0.0000000, 0.0982050 -0.0656185 0.0000000, 0.1041639 -0.0556768 0.0000000, 0.1091196 -0.0451988 0.0000000, 0.1130244 -0.0342856 0.0000000, 0.1158407 -0.0230422 0.0000000, 0.1175415 -0.0115768 0.0000000, 0.0000000 0.0000000 -0.7874016, 0.0000000 0.0000000 0.0000000 ] } coordIndex [ 0 1 65 64 -1, 128 1 0 -1, 129 64 65 -1, 1 2 66 65 -1, 128 2 1 -1, 129 65 66 -1, 2 3 67 66 -1, 128 3 2 -1, 129 66 67 -1, 3 4 68 67 -1, 128 4 3 -1, 129 67 68 -1, 4 5 69 68 -1, 128 5 4 -1, 129 68 69 -1, 5 6 70 69 -1, 128 6 5 -1, 129 69 70 -1, 6 7 71 70 -1, 128 7 6 -1, 129 70 71 -1, 7 8 72 71 -1, 128 8 7 -1, 129 71 72 -1, 8 9 73 72 -1, 128 9 8 -1, 129 72 73 -1, 9 10 74 73 -1, 128 10 9 -1, 129 73 74 -1, 10 11 75 74 -1, 128 11 10 -1, 129 74 75 -1, 11 12 76 75 -1, 128 12 11 -1, 129 75 76 -1, 12 13 77 76 -1, 128 13 12 -1, 129 76 77 -1, 13 14 78 77 -1, 128 14 13 -1, 129 77 78 -1, 14 15 79 78 -1, 128 15 14 -1, 129 78 79 -1, 15 16 80 79 -1, 128 16 15 -1, 129 79 80 -1, 16 17 81 80 -1, 128 17 16 -1, 129 80 81 -1, 17 18 82 81 -1, 128 18 17 -1, 129 81 82 -1, 18 19 83 82 -1, 128 19 18 -1, 129 82 83 -1, 19 20 84 83 -1, 128 20 19 -1, 129 83 84 -1, 20 21 85 84 -1, 128 21 20 -1, 129 84 85 -1, 21 22 86 85 -1, 128 22 21 -1, 129 85 86 -1, 22 23 87 86 -1, 128 23 22 -1, 129 86 87 -1, 23 24 88 87 -1, 128 24 23 -1, 129 87 88 -1, 24 25 89 88 -1, 128 25 24 -1, 129 88 89 -1, 25 26 90 89 -1, 128 26 25 -1, 129 89 90 -1, 26 27 91 90 -1, 128 27 26 -1, 129 90 91 -1, 27 28 92 91 -1, 128 28 27 -1, 129 91 92 -1, 28 29 93 92 -1, 128 29 28 -1, 129 92 93 -1, 29 30 94 93 -1, 128 30 29 -1, 129 93 94 -1, 30 31 95 94 -1, 128 31 30 -1, 129 94 95 -1, 31 32 96 95 -1, 128 32 31 -1, 129 95 96 -1, 32 33 97 96 -1, 128 33 32 -1, 129 96 97 -1, 33 34 98 97 -1, 128 34 33 -1, 129 97 98 -1, 34 35 99 98 -1, 128 35 34 -1, 129 98 99 -1, 35 36 100 99 -1, 128 36 35 -1, 129 99 100 -1, 36 37 101 100 -1, 128 37 36 -1, 129 100 101 -1, 37 38 102 101 -1, 128 38 37 -1, 129 101 102 -1, 38 39 103 102 -1, 128 39 38 -1, 129 102 103 -1, 39 40 104 103 -1, 128 40 39 -1, 129 103 104 -1, 40 41 105 104 -1, 128 41 40 -1, 129 104 105 -1, 41 42 106 105 -1, 128 42 41 -1, 129 105 106 -1, 42 43 107 106 -1, 128 43 42 -1, 129 106 107 -1, 43 44 108 107 -1, 128 44 43 -1, 129 107 108 -1, 44 45 109 108 -1, 128 45 44 -1, 129 108 109 -1, 45 46 110 109 -1, 128 46 45 -1, 129 109 110 -1, 46 47 111 110 -1, 128 47 46 -1, 129 110 111 -1, 47 48 112 111 -1, 128 48 47 -1, 129 111 112 -1, 48 49 113 112 -1, 128 49 48 -1, 129 112 113 -1, 49 50 114 113 -1, 128 50 49 -1, 129 113 114 -1, 50 51 115 114 -1, 128 51 50 -1, 129 114 115 -1, 51 52 116 115 -1, 128 52 51 -1, 129 115 116 -1, 52 53 117 116 -1, 128 53 52 -1, 129 116 117 -1, 53 54 118 117 -1, 128 54 53 -1, 129 117 118 -1, 54 55 119 118 -1, 128 55 54 -1, 129 118 119 -1, 55 56 120 119 -1, 128 56 55 -1, 129 119 120 -1, 56 57 121 120 -1, 128 57 56 -1, 129 120 121 -1, 57 58 122 121 -1, 128 58 57 -1, 129 121 122 -1, 58 59 123 122 -1, 128 59 58 -1, 129 122 123 -1, 59 60 124 123 -1, 128 60 59 -1, 129 123 124 -1, 60 61 125 124 -1, 128 61 60 -1, 129 124 125 -1, 61 62 126 125 -1, 128 62 61 -1, 129 125 126 -1, 62 63 127 126 -1, 128 63 62 -1, 129 126 127 -1, 63 0 64 127 -1, 128 0 63 -1, 129 127 64 -1 ] } }
Shape { appearance Appearance { material Material { diffuseColor 0.70 0.72 0.74 shininess 0.25 } } geometry IndexedFaceSet { solid FALSE creaseAngle 0.5 coord Coordinate { point [ 2.0866141 0.0000000 -0.7874016, 2.0860454 0.0115768 -0.7874016, 2.0843446 0.0230422 -0.7874016, 2.0815283 0.0342856 -0.7874016, 2.0776235 0.0451988 -0.7874016, 2.0726678 0.0556768 -0.7874016, 2.0667089 0.0656185 -0.7874016, 2.0598043 0.0749283 -0.7874016, 2.0520204 0.0835165 -0.7874016, 2.0434322 0.0913004 -0.7874016, 2.0341224 0.0982050 -0.7874016, 2.0241807 0.1041639 -0.7874016, 2.0137027 0.1091196 -0.7874016, 2.0027895 0.1130244 -0.7874016, 1.9915461 0.1158407 -0.7874016, 1.9800807 0.1175415 -0.7874016, 1.9685039 0.1181102 -0.7874016, 1.9569271 0.1175415 -0.7874016, 1.9454617 0.1158407 -0.7874016, 1.9342183 0.1130244 -0.7874016, 1.9233051 0.1091196 -0.7874016, 1.9128271 0.1041639 -0.7874016, 1.9028854 0.0982050 -0.7874016, 1.8935756 0.0913004 -0.7874016, 1.8849874 0.0835165 -0.7874016, 1.8772035 0.0749283 -0.7874016, 1.8702989 0.0656185 -0.7874016, 1.8643400 0.0556768 -0.7874016, 1.8593843 0.0451988 -0.7874016, 1.8554795 0.0342856 -0.7874016, 1.8526632 0.0230422 -0.7874016, 1.8509624 0.0115768 -0.7874016, 1.8503937 0.0000000 -0.7874016, 1.8509624 -0.0115768 -0.7874016, 1.8526632 -0.0230422 -0.7874016, 1.8554795 -0.0342856 -0.7874016, 1.8593843 -0.0451988 -0.7874016, 1.8643400 -0.0556768 -0.7874016, 1.8702989 -0.0656185 -0.7874016, 1.8772035 -0.0749283 -0.7874016, 1.8849874 -0.0835165 -0.7874016, 1.8935756 -0.0913004 -0.7874016, 1.9028854 -0.0982050 -0.7874016, 1.9128271 -0.1041639 -0.7874016, 1.9233051 -0.1091196 -0.7874016, 1.9342183 -0.1130244 -0.7874016, 1.9454617 -0.1158407 -0.7874016, 1.9569271 -0.1175415 -0.7874016, 1.9685039 -0.1181102 -0.7874016, 1.9800807 -0.1175415 -0.7874016, 1.9915461 -0.1158407 -0.7874016, 2.0027895 -0.1130244 -0.7874016, 2.0137027 -0.1091196 -0.7874016, 2.0241807 -0.1041639 -0.7874016, 2.0341224 -0.0982050 -0.7874016, 2.0434322 -0.0913004 -0.7874016, 2.0520204 -0.0835165 -0.7874016, 2.0598043 -0.0749283 -0.7874016, 2.0667089 -0.0656185 -0.7874016, 2.0726678 -0.0556768 -0.7874016, 2.0776235 -0.0451988 -0.7874016, 2.0815283 -0.0342856 -0.7874016, 2.0843446 -0.0230422 -0.7874016, 2.0860454 -0.0115768 -0.7874016, 2.0866141 0.0000000 0.0000000, 2.0860454 0.0115768 0.0000000, 2.0843446 0.0230422 0.0000000, 2.0815283 0.0342856 0.0000000, 2.0776235 0.0451988 0.0000000, 2.0726678 0.0556768 0.0000000, 2.0667089 0.0656185 0.0000000, 2.0598043 0.0749283 0.0000000, 2.0520204 0.0835165 0.0000000, 2.0434322 0.0913004 0.0000000, 2.0341224 0.0982050 0.0000000, 2.0241807 0.1041639 0.0000000, 2.0137027 0.1091196 0.0000000, 2.0027895 0.1130244 0.0000000, 1.9915461 0.1158407 0.0000000, 1.9800807 0.1175415 0.0000000, 1.9685039 0.1181102 0.0000000, 1.9569271 0.1175415 0.0000000, 1.9454617 0.1158407 0.0000000, 1.9342183 0.1130244 0.0000000, 1.9233051 0.1091196 0.0000000, 1.9128271 0.1041639 0.0000000, 1.9028854 0.0982050 0.0000000, 1.8935756 0.0913004 0.0000000, 1.8849874 0.0835165 0.0000000, 1.8772035 0.0749283 0.0000000, 1.8702989 0.0656185 0.0000000, 1.8643400 0.0556768 0.0000000, 1.8593843 0.0451988 0.0000000, 1.8554795 0.0342856 0.0000000, 1.8526632 0.0230422 0.0000000, 1.8509624 0.0115768 0.0000000, 1.8503937 0.0000000 0.0000000, 1.8509624 -0.0115768 0.0000000, 1.8526632 -0.0230422 0.0000000, 1.8554795 -0.0342856 0.0000000, 1.8593843 -0.0451988 0.0000000, 1.8643400 -0.0556768 0.0000000, 1.8702989 -0.0656185 0.0000000, 1.8772035 -0.0749283 0.0000000, 1.8849874 -0.0835165 0.0000000, 1.8935756 -0.0913004 0.0000000, 1.9028854 -0.0982050 0.0000000, 1.9128271 -0.1041639 0.0000000, 1.9233051 -0.1091196 0.0000000, 1.9342183 -0.1130244 0.0000000, 1.9454617 -0.1158407 0.0000000, 1.9569271 -0.1175415 0.0000000, 1.9685039 -0.1181102 0.0000000, 1.9800807 -0.1175415 0.0000000, 1.9915461 -0.1158407 0.0000000, 2.0027895 -0.1130244 0.0000000, 2.0137027 -0.1091196 0.0000000, 2.0241807 -0.1041639 0.0000000, 2.0341224 -0.0982050 0.0000000, 2.0434322 -0.0913004 0.0000000, 2.0520204 -0.0835165 0.0000000, 2.0598043 -0.0749283 0.0000000, 2.0667089 -0.0656185 0.0000000, 2.0726678 -0.0556768 0.0000000, 2.0776235 -0.0451988 0.0000000, 2.0815283 -0.0342856 0.0000000, 2.0843446 -0.0230422 0.0000000, 2.0860454 -0.0115768 0.0000000, 1.9685039 0.0000000 -0.7874016, 1.9685039 0.0000000 0.0000000 ] } coordIndex [ 0 1 65 64 -1, 128 1 0 -1, 129 64 65 -1, 1 2 66 65 -1, 128 2 1 -1, 129 65 66 -1, 2 3 67 66 -1, 128 3 2 -1, 129 66 67 -1, 3 4 68 67 -1, 128 4 3 -1, 129 67 68 -1, 4 5 69 68 -1, 128 5 4 -1, 129 68 69 -1, 5 6 70 69 -1, 128 6 5 -1, 129 69 70 -1, 6 7 71 70 -1, 128 7 6 -1, 129 70 71 -1, 7 8 72 71 -1, 128 8 7 -1, 129 71 72 -1, 8 9 73 72 -1, 128 9 8 -1, 129 72 73 -1, 9 10 74 73 -1, 128 10 9 -1, 129 73 74 -1, 10 11 75 74 -1, 128 11 10 -1, 129 74 75 -1, 11 12 76 75 -1, 128 12 11 -1, 129 75 76 -1, 12 13 77 76 -1, 128 13 12 -1, 129 76 77 -1, 13 14 78 77 -1, 128 14 13 -1, 129 77 78 -1, 14 15 79 78 -1, 128 15 14 -1, 129 78 79 -1, 15 16 80 79 -1, 128 16 15 -1, 129 79 80 -1, 16 17 81 80 -1, 128 17 16 -1, 129 80 81 -1, 17 18 82 81 -1, 128 18 17 -1, 129 81 82 -1, 18 19 83 82 -1, 128 19 18 -1, 129 82 83 -1, 19 20 84 83 -1, 128 20 19 -1, 129 83 84 -1, 20 21 85 84 -1, 128 21 20 -1, 129 84 85 -1, 21 22 86 85 -1, 128 22 21 -1, 129 85 86 -1, 22 23 87 86 -1, 128 23 22 -1, 129 86 87 -1, 23 24 88 87 -1, 128 24 23 -1, 129 87 88 -1, 24 25 89 88 -1, 128 25 24 -1, 129 88 89 -1, 25 26 90 89 -1, 128 26 25 -1, 129 89 90 -1, 26 27 91 90 -1, 128 27 26 -1, 129 90 91 -1, 27 28 92 91 -1, 128 28 27 -1, 129 91 92 -1, 28 29 93 92 -1, 128 29 28 -1, 129 92 93 -1, 29 30 94 93 -1, 128 30 29 -1, 129 93 94 -1, 30 31 95 94 -1, 128 31 30 -1, 129 94 95 -1, 31 32 96 95 -1, 128 32 31 -1, 129 95 96 -1, 32 33 97 96 -1, 128 33 32 -1, 129 96 97 -1, 33 34 98 97 -1, 128 34 33 -1, 129 97 98 -1, 34 35 99 98 -1, 128 35 34 -1, 129 98 99 -1, 35 36 100 99 -1, 128 36 35 -1, 129 99 100 -1, 36 37 101 100 -1, 128 37 36 -1, 129 100 101 -1, 37 38 102 101 -1, 128 38 37 -1, 129 101 102 -1, 38 39 103 102 -1, 128 39 38 -1, 129 102 103 -1, 39 40 104 103 -1, 128 40 39 -1, 129 103 104 -1, 40 41 105 104 -1, 128 41 40 -1, 129 104 105 -1, 41 42 106 105 -1, 128 42 41 -1, 129 105 106 -1, 42 43 107 106 -1, 128 43 42 -1, 129 106 107 -1, 43 44 108 107 -1, 128 44 43 -1, 129 107 108 -1, 44 45 109 108 -1, 128 45 44 -1, 129 108 109 -1, 45 46 110 109 -1, 128 46 45 -1, 129 109 110 -1, 46 47 111 110 -1, 128 47 46 -1, 129 110 111 -1, 47 48 112 111 -1, 128 48 47 -1, 129 111 112 -1, 48 49 113 112 -1, 128 49 48 -1, 129 112 113 -1, 49 50 114 113 -1, 128 50 49 -1, 129 113 114 -1, 50 51 115 114 -1, 128 51 50 -1, 129 114 115 -1, 51 52 116 115 -1, 128 52 51 -1, 129 115 116 -1, 52 53 117 116 -1, 128 53 52 -1, 129 116 117 -1, 53 54 118 117 -1, 128 54 53 -1, 129 117 118 -1, 54 55 119 118 -1, 128 55 54 -1, 129 118 119 -1, 55 56 120 119 -1, 128 56 55 -1, 129 119 120 -1, 56 57 121 120 -1, 128 57 56 -1, 129 120 121 -1, 57 58 122 121 -1, 128 58 57 -1, 129 121 122 -1, 58 59 123 122 -1, 128 59 58 -1, 129 122 123 -1, 59 60 124 123 -1, 128 60 59 -1, 129 123 124 -1, 60 61 125 124 -1, 128 61 60 -1, 129 124 125 -1, 61 62 126 125 -1, 128 62 61 -1, 129 125 126 -1, 62 63 127 126 -1, 128 63 62 -1, 129 126 127 -1, 63 0 64 127 -1, 128 0 63 -1, 129 127 64 -1 ] } }
Shape { appearance Appearance { material Material { diffuseColor 0.61 0.63 0.66 shininess 0.25 } } geometry IndexedFaceSet { solid FALSE creaseAngle 0.5 coord Coordinate { point [ 2.8149607 0.0000000 7.8543307, 2.8061453 0.1794408 7.8543307, 2.7797841 0.3571535 7.8543307, 2.7361310 0.5314267 7.8543307, 2.6756063 0.7005819 7.8543307, 2.5987929 0.8629901 7.8543307, 2.5064307 1.0170873 7.8543307, 2.3994090 1.1613893 7.8543307, 2.2787585 1.2945065 7.8543307, 2.1456413 1.4151570 7.8543307, 2.0013393 1.5221787 7.8543307, 1.8472421 1.6145409 7.8543307, 1.6848339 1.6913543 7.8543307, 1.5156787 1.7518790 7.8543307, 1.3414055 1.7955321 7.8543307, 1.1636928 1.8218933 7.8543307, 0.9842520 1.8307087 7.8543307, 0.8048112 1.8218933 7.8543307, 0.6270985 1.7955321 7.8543307, 0.4528253 1.7518790 7.8543307, 0.2836701 1.6913543 7.8543307, 0.1212619 1.6145409 7.8543307, -0.0328353 1.5221787 7.8543307, -0.1771373 1.4151570 7.8543307, -0.3102545 1.2945065 7.8543307, -0.4309050 1.1613893 7.8543307, -0.5379267 1.0170873 7.8543307, -0.6302889 0.8629901 7.8543307, -0.7071023 0.7005819 7.8543307, -0.7676270 0.5314267 7.8543307, -0.8112801 0.3571535 7.8543307, -0.8376413 0.1794408 7.8543307, -0.8464567 0.0000000 7.8543307, -0.8376413 -0.1794408 7.8543307, -0.8112801 -0.3571535 7.8543307, -0.7676270 -0.5314267 7.8543307, -0.7071023 -0.7005819 7.8543307, -0.6302889 -0.8629901 7.8543307, -0.5379267 -1.0170873 7.8543307, -0.4309050 -1.1613893 7.8543307, -0.3102545 -1.2945065 7.8543307, -0.1771373 -1.4151570 7.8543307, -0.0328353 -1.5221787 7.8543307, 0.1212619 -1.6145409 7.8543307, 0.2836701 -1.6913543 7.8543307, 0.4528253 -1.7518790 7.8543307, 0.6270985 -1.7955321 7.8543307, 0.8048112 -1.8218933 7.8543307, 0.9842520 -1.8307087 7.8543307, 1.1636928 -1.8218933 7.8543307, 1.3414055 -1.7955321 7.8543307, 1.5156787 -1.7518790 7.8543307, 1.6848339 -1.6913543 7.8543307, 1.8472421 -1.6145409 7.8543307, 2.0013393 -1.5221787 7.8543307, 2.1456413 -1.4151570 7.8543307, 2.2787585 -1.2945065 7.8543307, 2.3994090 -1.1613893 7.8543307, 2.5064307 -1.0170873 7.8543307, 2.5987929 -0.8629901 7.8543307, 2.6756063 -0.7005819 7.8543307, 2.7361310 -0.5314267 7.8543307, 2.7797841 -0.3571535 7.8543307, 2.8061453 -0.1794408 7.8543307, 2.8149607 0.0000000 7.8740157, 2.8061453 0.1794408 7.8740157, 2.7797841 0.3571535 7.8740157, 2.7361310 0.5314267 7.8740157, 2.6756063 0.7005819 7.8740157, 2.5987929 0.8629901 7.8740157, 2.5064307 1.0170873 7.8740157, 2.3994090 1.1613893 7.8740157, 2.2787585 1.2945065 7.8740157, 2.1456413 1.4151570 7.8740157, 2.0013393 1.5221787 7.8740157, 1.8472421 1.6145409 7.8740157, 1.6848339 1.6913543 7.8740157, 1.5156787 1.7518790 7.8740157, 1.3414055 1.7955321 7.8740157, 1.1636928 1.8218933 7.8740157, 0.9842520 1.8307087 7.8740157, 0.8048112 1.8218933 7.8740157, 0.6270985 1.7955321 7.8740157, 0.4528253 1.7518790 7.8740157, 0.2836701 1.6913543 7.8740157, 0.1212619 1.6145409 7.8740157, -0.0328353 1.5221787 7.8740157, -0.1771373 1.4151570 7.8740157, -0.3102545 1.2945065 7.8740157, -0.4309050 1.1613893 7.8740157, -0.5379267 1.0170873 7.8740157, -0.6302889 0.8629901 7.8740157, -0.7071023 0.7005819 7.8740157, -0.7676270 0.5314267 7.8740157, -0.8112801 0.3571535 7.8740157, -0.8376413 0.1794408 7.8740157, -0.8464567 0.0000000 7.8740157, -0.8376413 -0.1794408 7.8740157, -0.8112801 -0.3571535 7.8740157, -0.7676270 -0.5314267 7.8740157, -0.7071023 -0.7005819 7.8740157, -0.6302889 -0.8629901 7.8740157, -0.5379267 -1.0170873 7.8740157, -0.4309050 -1.1613893 7.8740157, -0.3102545 -1.2945065 7.8740157, -0.1771373 -1.4151570 7.8740157, -0.0328353 -1.5221787 7.8740157, 0.1212619 -1.6145409 7.8740157, 0.2836701 -1.6913543 7.8740157, 0.4528253 -1.7518790 7.8740157, 0.6270985 -1.7955321 7.8740157, 0.8048112 -1.8218933 7.8740157, 0.9842520 -1.8307087 7.8740157, 1.1636928 -1.8218933 7.8740157, 1.3414055 -1.7955321 7.8740157, 1.5156787 -1.7518790 7.8740157, 1.6848339 -1.6913543 7.8740157, 1.8472421 -1.6145409 7.8740157, 2.0013393 -1.5221787 7.8740157, 2.1456413 -1.4151570 7.8740157, 2.2787585 -1.2945065 7.8740157, 2.3994090 -1.1613893 7.8740157, 2.5064307 -1.0170873 7.8740157, 2.5987929 -0.8629901 7.8740157, 2.6756063 -0.7005819 7.8740157, 2.7361310 -0.5314267 7.8740157, 2.7797841 -0.3571535 7.8740157, 2.8061453 -0.1794408 7.8740157, 0.9842520 0.0000000 7.8543307, 0.9842520 0.0000000 7.8740157 ] } coordIndex [ 0 1 65 64 -1, 128 1 0 -1, 129 64 65 -1, 1 2 66 65 -1, 128 2 1 -1, 129 65 66 -1, 2 3 67 66 -1, 128 3 2 -1, 129 66 67 -1, 3 4 68 67 -1, 128 4 3 -1, 129 67 68 -1, 4 5 69 68 -1, 128 5 4 -1, 129 68 69 -1, 5 6 70 69 -1, 128 6 5 -1, 129 69 70 -1, 6 7 71 70 -1, 128 7 6 -1, 129 70 71 -1, 7 8 72 71 -1, 128 8 7 -1, 129 71 72 -1, 8 9 73 72 -1, 128 9 8 -1, 129 72 73 -1, 9 10 74 73 -1, 128 10 9 -1, 129 73 74 -1, 10 11 75 74 -1, 128 11 10 -1, 129 74 75 -1, 11 12 76 75 -1, 128 12 11 -1, 129 75 76 -1, 12 13 77 76 -1, 128 13 12 -1, 129 76 77 -1, 13 14 78 77 -1, 128 14 13 -1, 129 77 78 -1, 14 15 79 78 -1, 128 15 14 -1, 129 78 79 -1, 15 16 80 79 -1, 128 16 15 -1, 129 79 80 -1, 16 17 81 80 -1, 128 17 16 -1, 129 80 81 -1, 17 18 82 81 -1, 128 18 17 -1, 129 81 82 -1, 18 19 83 82 -1, 128 19 18 -1, 129 82 83 -1, 19 20 84 83 -1, 128 20 19 -1, 129 83 84 -1, 20 21 85 84 -1, 128 21 20 -1, 129 84 85 -1, 21 22 86 85 -1, 128 22 21 -1, 129 85 86 -1, 22 23 87 86 -1, 128 23 22 -1, 129 86 87 -1, 23 24 88 87 -1, 128 24 23 -1, 129 87 88 -1, 24 25 89 88 -1, 128 25 24 -1, 129 88 89 -1, 25 26 90 89 -1, 128 26 25 -1, 129 89 90 -1, 26 27 91 90 -1, 128 27 26 -1, 129 90 91 -1, 27 28 92 91 -1, 128 28 27 -1, 129 91 92 -1, 28 29 93 92 -1, 128 29 28 -1, 129 92 93 -1, 29 30 94 93 -1, 128 30 29 -1, 129 93 94 -1, 30 31 95 94 -1, 128 31 30 -1, 129 94 95 -1, 31 32 96 95 -1, 128 32 31 -1, 129 95 96 -1, 32 33 97 96 -1, 128 33 32 -1, 129 96 97 -1, 33 34 98 97 -1, 128 34 33 -1, 129 97 98 -1, 34 35 99 98 -1, 128 35 34 -1, 129 98 99 -1, 35 36 100 99 -1, 128 36 35 -1, 129 99 100 -1, 36 37 101 100 -1, 128 37 36 -1, 129 100 101 -1, 37 38 102 101 -1, 128 38 37 -1, 129 101 102 -1, 38 39 103 102 -1, 128 39 38 -1, 129 102 103 -1, 39 40 104 103 -1, 128 40 39 -1, 129 103 104 -1, 40 41 105 104 -1, 128 41 40 -1, 129 104 105 -1, 41 42 106 105 -1, 128 42 41 -1, 129 105 106 -1, 42 43 107 106 -1, 128 43 42 -1, 129 106 107 -1, 43 44 108 107 -1, 128 44 43 -1, 129 107 108 -1, 44 45 109 108 -1, 128 45 44 -1, 129 108 109 -1, 45 46 110 109 -1, 128 46 45 -1, 129 109 110 -1, 46 47 111 110 -1, 128 47 46 -1, 129 110 111 -1, 47 48 112 111 -1, 128 48 47 -1, 129 111 112 -1, 48 49 113 112 -1, 128 49 48 -1, 129 112 113 -1, 49 50 114 113 -1, 128 50 49 -1, 129 113 114 -1, 50 51 115 114 -1, 128 51 50 -1, 129 114 115 -1, 51 52 116 115 -1, 128 52 51 -1, 129 115 116 -1, 52 53 117 116 -1, 128 53 52 -1, 129 116 117 -1, 53 54 118 117 -1, 128 54 53 -1, 129 117 118 -1, 54 55 119 118 -1, 128 55 54 -1, 129 118 119 -1, 55 56 120 119 -1, 128 56 55 -1, 129 119 120 -1, 56 57 121 120 -1, 128 57 56 -1, 129 120 121 -1, 57 58 122 121 -1, 128 58 57 -1, 129 121 122 -1, 58 59 123 122 -1, 128 59 58 -1, 129 122 123 -1, 59 60 124 123 -1, 128 60 59 -1, 129 123 124 -1, 60 61 125 124 -1, 128 61 60 -1, 129 124 125 -1, 61 62 126 125 -1, 128 62 61 -1, 129 125 126 -1, 62 63 127 126 -1, 128 63 62 -1, 129 126 127 -1, 63 0 64 127 -1, 128 0 63 -1, 129 127 64 -1 ] } }
Transform { translation 0.9842520 0.0000000 7.8779528 children [ Shape { appearance Appearance { material Material { diffuseColor 0.15 0.17 0.20 } } geometry Box { size 2.5984252 0.0354331 0.0078740 } } ] }
Transform { translation 0.9842520 0.0000000 7.8779528 children [ Shape { appearance Appearance { material Material { diffuseColor 0.15 0.17 0.20 } } geometry Box { size 0.0354331 2.5984252 0.0078740 } } ] }
Shape { appearance Appearance { material Material { diffuseColor 0.65 0.67 0.70 } } geometry IndexedFaceSet { solid FALSE coord Coordinate { point [ 2.9000130 -0.4776529 0.3937008, 2.9255997 -0.3598075 0.3937008, 2.9439445 -0.2406200 0.3937008, 2.9549787 -0.1205348 0.3937008, 2.9586614 0.0000000 0.3937008, 2.9549787 0.1205348 0.3937008, 2.9439445 0.2406200 0.3937008, 2.9255997 0.3598075 0.3937008, 2.9000130 0.4776529 0.3937008, 2.9000130 -0.4776529 7.4015748, 2.9255997 -0.3598075 7.4015748, 2.9439445 -0.2406200 7.4015748, 2.9549787 -0.1205348 7.4015748, 2.9586614 0.0000000 7.4015748, 2.9549787 0.1205348 7.4015748, 2.9439445 0.2406200 7.4015748, 2.9255997 0.3598075 7.4015748, 2.9000130 0.4776529 7.4015748 ] } coordIndex [ 0 1 10 9 -1, 1 2 11 10 -1, 2 3 12 11 -1, 3 4 13 12 -1, 4 5 14 13 -1, 5 6 15 14 -1, 6 7 16 15 -1, 7 8 17 16 -1 ] } }
Transform { translation 2.9625984 0.0000000 1.1811024 children [ Shape { appearance Appearance { material Material { diffuseColor 0.08 0.10 0.14 } } geometry Box { size 0.0098425 0.3937008 0.0984252 } } ] }
Transform { translation 2.9625984 0.0000000 2.7559055 children [ Shape { appearance Appearance { material Material { diffuseColor 0.08 0.10 0.14 } } geometry Box { size 0.0098425 0.3937008 0.0984252 } } ] }
Transform { translation 2.9625984 0.0000000 4.3307087 children [ Shape { appearance Appearance { material Material { diffuseColor 0.08 0.10 0.14 } } geometry Box { size 0.0098425 0.3937008 0.0984252 } } ] }
Transform { translation 2.9625984 0.0000000 5.9055118 children [ Shape { appearance Appearance { material Material { diffuseColor 0.08 0.10 0.14 } } geometry Box { size 0.0098425 0.3937008 0.0984252 } } ] }
