#VRML V2.0 utf8
# Project nominal visualization: EEUFR1H102, D16 H25 P7.5 mm. No tolerance/standoff/fit approval.
# Positive pin1 at0; negative pin2 at +pitch. VRML units2.54mm.
Shape { appearance Appearance { material Material { diffuseColor 0.06 0.09 0.16 } } geometry IndexedFaceSet { solid FALSE coord Coordinate { point [ 4.6259843 0.0000000 0.0000000, 4.6108180 0.3087154 0.0000000, 4.5654655 0.6144577 0.0000000, 4.4903633 0.9142824 0.0000000, 4.3862347 1.2053021 0.0000000, 4.2540827 1.4847141 0.0000000, 4.0951799 1.7498275 0.0000000, 3.9110565 1.9980891 0.0000000, 3.7034859 2.2271080 0.0000000, 3.4744670 2.4346786 0.0000000, 3.2262055 2.6188019 0.0000000, 2.9610921 2.7777048 0.0000000, 2.6816801 2.9098568 0.0000000, 2.3906604 3.0139853 0.0000000, 2.0908357 3.0890875 0.0000000, 1.7850934 3.1344401 0.0000000, 1.4763780 3.1496063 0.0000000, 1.1676626 3.1344401 0.0000000, 0.8619202 3.0890875 0.0000000, 0.5620955 3.0139853 0.0000000, 0.2710758 2.9098568 0.0000000, -0.0083362 2.7777048 0.0000000, -0.2734496 2.6188019 0.0000000, -0.5217111 2.4346786 0.0000000, -0.7507300 2.2271080 0.0000000, -0.9583006 1.9980891 0.0000000, -1.1424240 1.7498275 0.0000000, -1.3013268 1.4847141 0.0000000, -1.4334788 1.2053021 0.0000000, -1.5376074 0.9142824 0.0000000, -1.6127095 0.6144577 0.0000000, -1.6580621 0.3087154 0.0000000, -1.6732283 0.0000000 0.0000000, -1.6580621 -0.3087154 0.0000000, -1.6127095 -0.6144577 0.0000000, -1.5376074 -0.9142824 0.0000000, -1.4334788 -1.2053021 0.0000000, -1.3013268 -1.4847141 0.0000000, -1.1424240 -1.7498275 0.0000000, -0.9583006 -1.9980891 0.0000000, -0.7507300 -2.2271080 0.0000000, -0.5217111 -2.4346786 0.0000000, -0.2734496 -2.6188019 0.0000000, -0.0083362 -2.7777048 0.0000000, 0.2710758 -2.9098568 0.0000000, 0.5620955 -3.0139853 0.0000000, 0.8619202 -3.0890875 0.0000000, 1.1676626 -3.1344401 0.0000000, 1.4763780 -3.1496063 0.0000000, 1.7850934 -3.1344401 0.0000000, 2.0908357 -3.0890875 0.0000000, 2.3906604 -3.0139853 0.0000000, 2.6816801 -2.9098568 0.0000000, 2.9610921 -2.7777048 0.0000000, 3.2262055 -2.6188019 0.0000000, 3.4744670 -2.4346786 0.0000000, 3.7034859 -2.2271080 0.0000000, 3.9110565 -1.9980891 0.0000000, 4.0951799 -1.7498275 0.0000000, 4.2540827 -1.4847141 0.0000000, 4.3862347 -1.2053021 0.0000000, 4.4903633 -0.9142824 0.0000000, 4.5654655 -0.6144577 0.0000000, 4.6108180 -0.3087154 0.0000000, 4.6259843 0.0000000 9.8110236, 4.6108180 0.3087154 9.8110236, 4.5654655 0.6144577 9.8110236, 4.4903633 0.9142824 9.8110236, 4.3862347 1.2053021 9.8110236, 4.2540827 1.4847141 9.8110236, 4.0951799 1.7498275 9.8110236, 3.9110565 1.9980891 9.8110236, 3.7034859 2.2271080 9.8110236, 3.4744670 2.4346786 9.8110236, 3.2262055 2.6188019 9.8110236, 2.9610921 2.7777048 9.8110236, 2.6816801 2.9098568 9.8110236, 2.3906604 3.0139853 9.8110236, 2.0908357 3.0890875 9.8110236, 1.7850934 3.1344401 9.8110236, 1.4763780 3.1496063 9.8110236, 1.1676626 3.1344401 9.8110236, 0.8619202 3.0890875 9.8110236, 0.5620955 3.0139853 9.8110236, 0.2710758 2.9098568 9.8110236, -0.0083362 2.7777048 9.8110236, -0.2734496 2.6188019 9.8110236, -0.5217111 2.4346786 9.8110236, -0.7507300 2.2271080 9.8110236, -0.9583006 1.9980891 9.8110236, -1.1424240 1.7498275 9.8110236, -1.3013268 1.4847141 9.8110236, -1.4334788 1.2053021 9.8110236, -1.5376074 0.9142824 9.8110236, -1.6127095 0.6144577 9.8110236, -1.6580621 0.3087154 9.8110236, -1.6732283 0.0000000 9.8110236, -1.6580621 -0.3087154 9.8110236, -1.6127095 -0.6144577 9.8110236, -1.5376074 -0.9142824 9.8110236, -1.4334788 -1.2053021 9.8110236, -1.3013268 -1.4847141 9.8110236, -1.1424240 -1.7498275 9.8110236, -0.9583006 -1.9980891 9.8110236, -0.7507300 -2.2271080 9.8110236, -0.5217111 -2.4346786 9.8110236, -0.2734496 -2.6188019 9.8110236, -0.0083362 -2.7777048 9.8110236, 0.2710758 -2.9098568 9.8110236, 0.5620955 -3.0139853 9.8110236, 0.8619202 -3.0890875 9.8110236, 1.1676626 -3.1344401 9.8110236, 1.4763780 -3.1496063 9.8110236, 1.7850934 -3.1344401 9.8110236, 2.0908357 -3.0890875 9.8110236, 2.3906604 -3.0139853 9.8110236, 2.6816801 -2.9098568 9.8110236, 2.9610921 -2.7777048 9.8110236, 3.2262055 -2.6188019 9.8110236, 3.4744670 -2.4346786 9.8110236, 3.7034859 -2.2271080 9.8110236, 3.9110565 -1.9980891 9.8110236, 4.0951799 -1.7498275 9.8110236, 4.2540827 -1.4847141 9.8110236, 4.3862347 -1.2053021 9.8110236, 4.4903633 -0.9142824 9.8110236, 4.5654655 -0.6144577 9.8110236, 4.6108180 -0.3087154 9.8110236 ] } coordIndex [ 0 1 65 64 -1, 1 2 66 65 -1, 2 3 67 66 -1, 3 4 68 67 -1, 4 5 69 68 -1, 5 6 70 69 -1, 6 7 71 70 -1, 7 8 72 71 -1, 8 9 73 72 -1, 9 10 74 73 -1, 10 11 75 74 -1, 11 12 76 75 -1, 12 13 77 76 -1, 13 14 78 77 -1, 14 15 79 78 -1, 15 16 80 79 -1, 16 17 81 80 -1, 17 18 82 81 -1, 18 19 83 82 -1, 19 20 84 83 -1, 20 21 85 84 -1, 21 22 86 85 -1, 22 23 87 86 -1, 23 24 88 87 -1, 24 25 89 88 -1, 25 26 90 89 -1, 26 27 91 90 -1, 27 28 92 91 -1, 28 29 93 92 -1, 29 30 94 93 -1, 30 31 95 94 -1, 31 32 96 95 -1, 32 33 97 96 -1, 33 34 98 97 -1, 34 35 99 98 -1, 35 36 100 99 -1, 36 37 101 100 -1, 37 38 102 101 -1, 38 39 103 102 -1, 39 40 104 103 -1, 40 41 105 104 -1, 41 42 106 105 -1, 42 43 107 106 -1, 43 44 108 107 -1, 44 45 109 108 -1, 45 46 110 109 -1, 46 47 111 110 -1, 47 48 112 111 -1, 48 49 113 112 -1, 49 50 114 113 -1, 50 51 115 114 -1, 51 52 116 115 -1, 52 53 117 116 -1, 53 54 118 117 -1, 54 55 119 118 -1, 55 56 120 119 -1, 56 57 121 120 -1, 57 58 122 121 -1, 58 59 123 122 -1, 59 60 124 123 -1, 60 61 125 124 -1, 61 62 126 125 -1, 62 63 127 126 -1, 63 0 64 127 -1, 63 62 61 60 59 58 57 56 55 54 53 52 51 50 49 48 47 46 45 44 43 42 41 40 39 38 37 36 35 34 33 32 31 30 29 28 27 26 25 24 23 22 21 20 19 18 17 16 15 14 13 12 11 10 9 8 7 6 5 4 3 2 1 0 -1, 64 65 66 67 68 69 70 71 72 73 74 75 76 77 78 79 80 81 82 83 84 85 86 87 88 89 90 91 92 93 94 95 96 97 98 99 100 101 102 103 104 105 106 107 108 109 110 111 112 113 114 115 116 117 118 119 120 121 122 123 124 125 126 127 -1 ] } }
Shape { appearance Appearance { material Material { diffuseColor 0.65 0.66 0.68 } } geometry IndexedFaceSet { solid FALSE coord Coordinate { point [ 4.5787402 0.0000000 9.8110236, 4.5638014 0.3040847 9.8110236, 4.5191291 0.6052408 9.8110236, 4.4451535 0.9005682 9.8110236, 4.3425869 1.1872226 9.8110236, 4.2124172 1.4624434 9.8110236, 4.0558979 1.7235801 9.8110236, 3.8745364 1.9681177 9.8110236, 3.6700793 2.1937014 9.8110236, 3.4444957 2.3981584 9.8110236, 3.1999580 2.5795199 9.8110236, 2.9388214 2.7360392 9.8110236, 2.6636006 2.8662089 9.8110236, 2.3769462 2.9687755 9.8110236, 2.0816188 3.0427512 9.8110236, 1.7804626 3.0874235 9.8110236, 1.4763780 3.1023622 9.8110236, 1.1722933 3.0874235 9.8110236, 0.8711371 3.0427512 9.8110236, 0.5758097 2.9687755 9.8110236, 0.2891553 2.8662089 9.8110236, 0.0139345 2.7360392 9.8110236, -0.2472021 2.5795199 9.8110236, -0.4917398 2.3981584 9.8110236, -0.7173234 2.1937014 9.8110236, -0.9217805 1.9681177 9.8110236, -1.1031419 1.7235801 9.8110236, -1.2596612 1.4624434 9.8110236, -1.3898310 1.1872226 9.8110236, -1.4923976 0.9005682 9.8110236, -1.5663732 0.6052408 9.8110236, -1.6110455 0.3040847 9.8110236, -1.6259843 0.0000000 9.8110236, -1.6110455 -0.3040847 9.8110236, -1.5663732 -0.6052408 9.8110236, -1.4923976 -0.9005682 9.8110236, -1.3898310 -1.1872226 9.8110236, -1.2596612 -1.4624434 9.8110236, -1.1031419 -1.7235801 9.8110236, -0.9217805 -1.9681177 9.8110236, -0.7173234 -2.1937014 9.8110236, -0.4917398 -2.3981584 9.8110236, -0.2472021 -2.5795199 9.8110236, 0.0139345 -2.7360392 9.8110236, 0.2891553 -2.8662089 9.8110236, 0.5758097 -2.9687755 9.8110236, 0.8711371 -3.0427512 9.8110236, 1.1722933 -3.0874235 9.8110236, 1.4763780 -3.1023622 9.8110236, 1.7804626 -3.0874235 9.8110236, 2.0816188 -3.0427512 9.8110236, 2.3769462 -2.9687755 9.8110236, 2.6636006 -2.8662089 9.8110236, 2.9388214 -2.7360392 9.8110236, 3.1999580 -2.5795199 9.8110236, 3.4444957 -2.3981584 9.8110236, 3.6700793 -2.1937014 9.8110236, 3.8745364 -1.9681177 9.8110236, 4.0558979 -1.7235801 9.8110236, 4.2124172 -1.4624434 9.8110236, 4.3425869 -1.1872226 9.8110236, 4.4451535 -0.9005682 9.8110236, 4.5191291 -0.6052408 9.8110236, 4.5638014 -0.3040847 9.8110236, 4.5787402 0.0000000 9.8425197, 4.5638014 0.3040847 9.8425197, 4.5191291 0.6052408 9.8425197, 4.4451535 0.9005682 9.8425197, 4.3425869 1.1872226 9.8425197, 4.2124172 1.4624434 9.8425197, 4.0558979 1.7235801 9.8425197, 3.8745364 1.9681177 9.8425197, 3.6700793 2.1937014 9.8425197, 3.4444957 2.3981584 9.8425197, 3.1999580 2.5795199 9.8425197, 2.9388214 2.7360392 9.8425197, 2.6636006 2.8662089 9.8425197, 2.3769462 2.9687755 9.8425197, 2.0816188 3.0427512 9.8425197, 1.7804626 3.0874235 9.8425197, 1.4763780 3.1023622 9.8425197, 1.1722933 3.0874235 9.8425197, 0.8711371 3.0427512 9.8425197, 0.5758097 2.9687755 9.8425197, 0.2891553 2.8662089 9.8425197, 0.0139345 2.7360392 9.8425197, -0.2472021 2.5795199 9.8425197, -0.4917398 2.3981584 9.8425197, -0.7173234 2.1937014 9.8425197, -0.9217805 1.9681177 9.8425197, -1.1031419 1.7235801 9.8425197, -1.2596612 1.4624434 9.8425197, -1.3898310 1.1872226 9.8425197, -1.4923976 0.9005682 9.8425197, -1.5663732 0.6052408 9.8425197, -1.6110455 0.3040847 9.8425197, -1.6259843 0.0000000 9.8425197, -1.6110455 -0.3040847 9.8425197, -1.5663732 -0.6052408 9.8425197, -1.4923976 -0.9005682 9.8425197, -1.3898310 -1.1872226 9.8425197, -1.2596612 -1.4624434 9.8425197, -1.1031419 -1.7235801 9.8425197, -0.9217805 -1.9681177 9.8425197, -0.7173234 -2.1937014 9.8425197, -0.4917398 -2.3981584 9.8425197, -0.2472021 -2.5795199 9.8425197, 0.0139345 -2.7360392 9.8425197, 0.2891553 -2.8662089 9.8425197, 0.5758097 -2.9687755 9.8425197, 0.8711371 -3.0427512 9.8425197, 1.1722933 -3.0874235 9.8425197, 1.4763780 -3.1023622 9.8425197, 1.7804626 -3.0874235 9.8425197, 2.0816188 -3.0427512 9.8425197, 2.3769462 -2.9687755 9.8425197, 2.6636006 -2.8662089 9.8425197, 2.9388214 -2.7360392 9.8425197, 3.1999580 -2.5795199 9.8425197, 3.4444957 -2.3981584 9.8425197, 3.6700793 -2.1937014 9.8425197, 3.8745364 -1.9681177 9.8425197, 4.0558979 -1.7235801 9.8425197, 4.2124172 -1.4624434 9.8425197, 4.3425869 -1.1872226 9.8425197, 4.4451535 -0.9005682 9.8425197, 4.5191291 -0.6052408 9.8425197, 4.5638014 -0.3040847 9.8425197 ] } coordIndex [ 0 1 65 64 -1, 1 2 66 65 -1, 2 3 67 66 -1, 3 4 68 67 -1, 4 5 69 68 -1, 5 6 70 69 -1, 6 7 71 70 -1, 7 8 72 71 -1, 8 9 73 72 -1, 9 10 74 73 -1, 10 11 75 74 -1, 11 12 76 75 -1, 12 13 77 76 -1, 13 14 78 77 -1, 14 15 79 78 -1, 15 16 80 79 -1, 16 17 81 80 -1, 17 18 82 81 -1, 18 19 83 82 -1, 19 20 84 83 -1, 20 21 85 84 -1, 21 22 86 85 -1, 22 23 87 86 -1, 23 24 88 87 -1, 24 25 89 88 -1, 25 26 90 89 -1, 26 27 91 90 -1, 27 28 92 91 -1, 28 29 93 92 -1, 29 30 94 93 -1, 30 31 95 94 -1, 31 32 96 95 -1, 32 33 97 96 -1, 33 34 98 97 -1, 34 35 99 98 -1, 35 36 100 99 -1, 36 37 101 100 -1, 37 38 102 101 -1, 38 39 103 102 -1, 39 40 104 103 -1, 40 41 105 104 -1, 41 42 106 105 -1, 42 43 107 106 -1, 43 44 108 107 -1, 44 45 109 108 -1, 45 46 110 109 -1, 46 47 111 110 -1, 47 48 112 111 -1, 48 49 113 112 -1, 49 50 114 113 -1, 50 51 115 114 -1, 51 52 116 115 -1, 52 53 117 116 -1, 53 54 118 117 -1, 54 55 119 118 -1, 55 56 120 119 -1, 56 57 121 120 -1, 57 58 122 121 -1, 58 59 123 122 -1, 59 60 124 123 -1, 60 61 125 124 -1, 61 62 126 125 -1, 62 63 127 126 -1, 63 0 64 127 -1, 63 62 61 60 59 58 57 56 55 54 53 52 51 50 49 48 47 46 45 44 43 42 41 40 39 38 37 36 35 34 33 32 31 30 29 28 27 26 25 24 23 22 21 20 19 18 17 16 15 14 13 12 11 10 9 8 7 6 5 4 3 2 1 0 -1, 64 65 66 67 68 69 70 71 72 73 74 75 76 77 78 79 80 81 82 83 84 85 86 87 88 89 90 91 92 93 94 95 96 97 98 99 100 101 102 103 104 105 106 107 108 109 110 111 112 113 114 115 116 117 118 119 120 121 122 123 124 125 126 127 -1 ] } }
Shape { appearance Appearance { material Material { diffuseColor 0.72 0.72 0.70 } } geometry IndexedFaceSet { solid FALSE coord Coordinate { point [ 0.1181102 0.0000000 -0.6299213, 0.1175415 0.0115768 -0.6299213, 0.1158408 0.0230422 -0.6299213, 0.1130244 0.0342856 -0.6299213, 0.1091196 0.0451988 -0.6299213, 0.1041639 0.0556768 -0.6299213, 0.0982051 0.0656185 -0.6299213, 0.0913004 0.0749283 -0.6299213, 0.0835165 0.0835165 -0.6299213, 0.0749283 0.0913004 -0.6299213, 0.0656185 0.0982051 -0.6299213, 0.0556768 0.1041639 -0.6299213, 0.0451988 0.1091196 -0.6299213, 0.0342856 0.1130244 -0.6299213, 0.0230422 0.1158408 -0.6299213, 0.0115768 0.1175415 -0.6299213, 0.0000000 0.1181102 -0.6299213, -0.0115768 0.1175415 -0.6299213, -0.0230422 0.1158408 -0.6299213, -0.0342856 0.1130244 -0.6299213, -0.0451988 0.1091196 -0.6299213, -0.0556768 0.1041639 -0.6299213, -0.0656185 0.0982051 -0.6299213, -0.0749283 0.0913004 -0.6299213, -0.0835165 0.0835165 -0.6299213, -0.0913004 0.0749283 -0.6299213, -0.0982051 0.0656185 -0.6299213, -0.1041639 0.0556768 -0.6299213, -0.1091196 0.0451988 -0.6299213, -0.1130244 0.0342856 -0.6299213, -0.1158408 0.0230422 -0.6299213, -0.1175415 0.0115768 -0.6299213, -0.1181102 0.0000000 -0.6299213, -0.1175415 -0.0115768 -0.6299213, -0.1158408 -0.0230422 -0.6299213, -0.1130244 -0.0342856 -0.6299213, -0.1091196 -0.0451988 -0.6299213, -0.1041639 -0.0556768 -0.6299213, -0.0982051 -0.0656185 -0.6299213, -0.0913004 -0.0749283 -0.6299213, -0.0835165 -0.0835165 -0.6299213, -0.0749283 -0.0913004 -0.6299213, -0.0656185 -0.0982051 -0.6299213, -0.0556768 -0.1041639 -0.6299213, -0.0451988 -0.1091196 -0.6299213, -0.0342856 -0.1130244 -0.6299213, -0.0230422 -0.1158408 -0.6299213, -0.0115768 -0.1175415 -0.6299213, -0.0000000 -0.1181102 -0.6299213, 0.0115768 -0.1175415 -0.6299213, 0.0230422 -0.1158408 -0.6299213, 0.0342856 -0.1130244 -0.6299213, 0.0451988 -0.1091196 -0.6299213, 0.0556768 -0.1041639 -0.6299213, 0.0656185 -0.0982051 -0.6299213, 0.0749283 -0.0913004 -0.6299213, 0.0835165 -0.0835165 -0.6299213, 0.0913004 -0.0749283 -0.6299213, 0.0982051 -0.0656185 -0.6299213, 0.1041639 -0.0556768 -0.6299213, 0.1091196 -0.0451988 -0.6299213, 0.1130244 -0.0342856 -0.6299213, 0.1158408 -0.0230422 -0.6299213, 0.1175415 -0.0115768 -0.6299213, 0.1181102 0.0000000 0.0000000, 0.1175415 0.0115768 0.0000000, 0.1158408 0.0230422 0.0000000, 0.1130244 0.0342856 0.0000000, 0.1091196 0.0451988 0.0000000, 0.1041639 0.0556768 0.0000000, 0.0982051 0.0656185 0.0000000, 0.0913004 0.0749283 0.0000000, 0.0835165 0.0835165 0.0000000, 0.0749283 0.0913004 0.0000000, 0.0656185 0.0982051 0.0000000, 0.0556768 0.1041639 0.0000000, 0.0451988 0.1091196 0.0000000, 0.0342856 0.1130244 0.0000000, 0.0230422 0.1158408 0.0000000, 0.0115768 0.1175415 0.0000000, 0.0000000 0.1181102 0.0000000, -0.0115768 0.1175415 0.0000000, -0.0230422 0.1158408 0.0000000, -0.0342856 0.1130244 0.0000000, -0.0451988 0.1091196 0.0000000, -0.0556768 0.1041639 0.0000000, -0.0656185 0.0982051 0.0000000, -0.0749283 0.0913004 0.0000000, -0.0835165 0.0835165 0.0000000, -0.0913004 0.0749283 0.0000000, -0.0982051 0.0656185 0.0000000, -0.1041639 0.0556768 0.0000000, -0.1091196 0.0451988 0.0000000, -0.1130244 0.0342856 0.0000000, -0.1158408 0.0230422 0.0000000, -0.1175415 0.0115768 0.0000000, -0.1181102 0.0000000 0.0000000, -0.1175415 -0.0115768 0.0000000, -0.1158408 -0.0230422 0.0000000, -0.1130244 -0.0342856 0.0000000, -0.1091196 -0.0451988 0.0000000, -0.1041639 -0.0556768 0.0000000, -0.0982051 -0.0656185 0.0000000, -0.0913004 -0.0749283 0.0000000, -0.0835165 -0.0835165 0.0000000, -0.0749283 -0.0913004 0.0000000, -0.0656185 -0.0982051 0.0000000, -0.0556768 -0.1041639 0.0000000, -0.0451988 -0.1091196 0.0000000, -0.0342856 -0.1130244 0.0000000, -0.0230422 -0.1158408 0.0000000, -0.0115768 -0.1175415 0.0000000, -0.0000000 -0.1181102 0.0000000, 0.0115768 -0.1175415 0.0000000, 0.0230422 -0.1158408 0.0000000, 0.0342856 -0.1130244 0.0000000, 0.0451988 -0.1091196 0.0000000, 0.0556768 -0.1041639 0.0000000, 0.0656185 -0.0982051 0.0000000, 0.0749283 -0.0913004 0.0000000, 0.0835165 -0.0835165 0.0000000, 0.0913004 -0.0749283 0.0000000, 0.0982051 -0.0656185 0.0000000, 0.1041639 -0.0556768 0.0000000, 0.1091196 -0.0451988 0.0000000, 0.1130244 -0.0342856 0.0000000, 0.1158408 -0.0230422 0.0000000, 0.1175415 -0.0115768 0.0000000 ] } coordIndex [ 0 1 65 64 -1, 1 2 66 65 -1, 2 3 67 66 -1, 3 4 68 67 -1, 4 5 69 68 -1, 5 6 70 69 -1, 6 7 71 70 -1, 7 8 72 71 -1, 8 9 73 72 -1, 9 10 74 73 -1, 10 11 75 74 -1, 11 12 76 75 -1, 12 13 77 76 -1, 13 14 78 77 -1, 14 15 79 78 -1, 15 16 80 79 -1, 16 17 81 80 -1, 17 18 82 81 -1, 18 19 83 82 -1, 19 20 84 83 -1, 20 21 85 84 -1, 21 22 86 85 -1, 22 23 87 86 -1, 23 24 88 87 -1, 24 25 89 88 -1, 25 26 90 89 -1, 26 27 91 90 -1, 27 28 92 91 -1, 28 29 93 92 -1, 29 30 94 93 -1, 30 31 95 94 -1, 31 32 96 95 -1, 32 33 97 96 -1, 33 34 98 97 -1, 34 35 99 98 -1, 35 36 100 99 -1, 36 37 101 100 -1, 37 38 102 101 -1, 38 39 103 102 -1, 39 40 104 103 -1, 40 41 105 104 -1, 41 42 106 105 -1, 42 43 107 106 -1, 43 44 108 107 -1, 44 45 109 108 -1, 45 46 110 109 -1, 46 47 111 110 -1, 47 48 112 111 -1, 48 49 113 112 -1, 49 50 114 113 -1, 50 51 115 114 -1, 51 52 116 115 -1, 52 53 117 116 -1, 53 54 118 117 -1, 54 55 119 118 -1, 55 56 120 119 -1, 56 57 121 120 -1, 57 58 122 121 -1, 58 59 123 122 -1, 59 60 124 123 -1, 60 61 125 124 -1, 61 62 126 125 -1, 62 63 127 126 -1, 63 0 64 127 -1, 63 62 61 60 59 58 57 56 55 54 53 52 51 50 49 48 47 46 45 44 43 42 41 40 39 38 37 36 35 34 33 32 31 30 29 28 27 26 25 24 23 22 21 20 19 18 17 16 15 14 13 12 11 10 9 8 7 6 5 4 3 2 1 0 -1, 64 65 66 67 68 69 70 71 72 73 74 75 76 77 78 79 80 81 82 83 84 85 86 87 88 89 90 91 92 93 94 95 96 97 98 99 100 101 102 103 104 105 106 107 108 109 110 111 112 113 114 115 116 117 118 119 120 121 122 123 124 125 126 127 -1 ] } }
Shape { appearance Appearance { material Material { diffuseColor 0.72 0.72 0.70 } } geometry IndexedFaceSet { solid FALSE coord Coordinate { point [ 3.0708661 0.0000000 -0.6299213, 3.0702974 0.0115768 -0.6299213, 3.0685967 0.0230422 -0.6299213, 3.0657804 0.0342856 -0.6299213, 3.0618755 0.0451988 -0.6299213, 3.0569198 0.0556768 -0.6299213, 3.0509610 0.0656185 -0.6299213, 3.0440564 0.0749283 -0.6299213, 3.0362725 0.0835165 -0.6299213, 3.0276842 0.0913004 -0.6299213, 3.0183744 0.0982051 -0.6299213, 3.0084327 0.1041639 -0.6299213, 2.9979547 0.1091196 -0.6299213, 2.9870415 0.1130244 -0.6299213, 2.9757981 0.1158408 -0.6299213, 2.9643327 0.1175415 -0.6299213, 2.9527559 0.1181102 -0.6299213, 2.9411791 0.1175415 -0.6299213, 2.9297137 0.1158408 -0.6299213, 2.9184703 0.1130244 -0.6299213, 2.9075571 0.1091196 -0.6299213, 2.8970791 0.1041639 -0.6299213, 2.8871374 0.0982051 -0.6299213, 2.8778276 0.0913004 -0.6299213, 2.8692394 0.0835165 -0.6299213, 2.8614555 0.0749283 -0.6299213, 2.8545508 0.0656185 -0.6299213, 2.8485920 0.0556768 -0.6299213, 2.8436363 0.0451988 -0.6299213, 2.8397315 0.0342856 -0.6299213, 2.8369151 0.0230422 -0.6299213, 2.8352144 0.0115768 -0.6299213, 2.8346457 0.0000000 -0.6299213, 2.8352144 -0.0115768 -0.6299213, 2.8369151 -0.0230422 -0.6299213, 2.8397315 -0.0342856 -0.6299213, 2.8436363 -0.0451988 -0.6299213, 2.8485920 -0.0556768 -0.6299213, 2.8545508 -0.0656185 -0.6299213, 2.8614555 -0.0749283 -0.6299213, 2.8692394 -0.0835165 -0.6299213, 2.8778276 -0.0913004 -0.6299213, 2.8871374 -0.0982051 -0.6299213, 2.8970791 -0.1041639 -0.6299213, 2.9075571 -0.1091196 -0.6299213, 2.9184703 -0.1130244 -0.6299213, 2.9297137 -0.1158408 -0.6299213, 2.9411791 -0.1175415 -0.6299213, 2.9527559 -0.1181102 -0.6299213, 2.9643327 -0.1175415 -0.6299213, 2.9757981 -0.1158408 -0.6299213, 2.9870415 -0.1130244 -0.6299213, 2.9979547 -0.1091196 -0.6299213, 3.0084327 -0.1041639 -0.6299213, 3.0183744 -0.0982051 -0.6299213, 3.0276842 -0.0913004 -0.6299213, 3.0362725 -0.0835165 -0.6299213, 3.0440564 -0.0749283 -0.6299213, 3.0509610 -0.0656185 -0.6299213, 3.0569198 -0.0556768 -0.6299213, 3.0618755 -0.0451988 -0.6299213, 3.0657804 -0.0342856 -0.6299213, 3.0685967 -0.0230422 -0.6299213, 3.0702974 -0.0115768 -0.6299213, 3.0708661 0.0000000 0.0000000, 3.0702974 0.0115768 0.0000000, 3.0685967 0.0230422 0.0000000, 3.0657804 0.0342856 0.0000000, 3.0618755 0.0451988 0.0000000, 3.0569198 0.0556768 0.0000000, 3.0509610 0.0656185 0.0000000, 3.0440564 0.0749283 0.0000000, 3.0362725 0.0835165 0.0000000, 3.0276842 0.0913004 0.0000000, 3.0183744 0.0982051 0.0000000, 3.0084327 0.1041639 0.0000000, 2.9979547 0.1091196 0.0000000, 2.9870415 0.1130244 0.0000000, 2.9757981 0.1158408 0.0000000, 2.9643327 0.1175415 0.0000000, 2.9527559 0.1181102 0.0000000, 2.9411791 0.1175415 0.0000000, 2.9297137 0.1158408 0.0000000, 2.9184703 0.1130244 0.0000000, 2.9075571 0.1091196 0.0000000, 2.8970791 0.1041639 0.0000000, 2.8871374 0.0982051 0.0000000, 2.8778276 0.0913004 0.0000000, 2.8692394 0.0835165 0.0000000, 2.8614555 0.0749283 0.0000000, 2.8545508 0.0656185 0.0000000, 2.8485920 0.0556768 0.0000000, 2.8436363 0.0451988 0.0000000, 2.8397315 0.0342856 0.0000000, 2.8369151 0.0230422 0.0000000, 2.8352144 0.0115768 0.0000000, 2.8346457 0.0000000 0.0000000, 2.8352144 -0.0115768 0.0000000, 2.8369151 -0.0230422 0.0000000, 2.8397315 -0.0342856 0.0000000, 2.8436363 -0.0451988 0.0000000, 2.8485920 -0.0556768 0.0000000, 2.8545508 -0.0656185 0.0000000, 2.8614555 -0.0749283 0.0000000, 2.8692394 -0.0835165 0.0000000, 2.8778276 -0.0913004 0.0000000, 2.8871374 -0.0982051 0.0000000, 2.8970791 -0.1041639 0.0000000, 2.9075571 -0.1091196 0.0000000, 2.9184703 -0.1130244 0.0000000, 2.9297137 -0.1158408 0.0000000, 2.9411791 -0.1175415 0.0000000, 2.9527559 -0.1181102 0.0000000, 2.9643327 -0.1175415 0.0000000, 2.9757981 -0.1158408 0.0000000, 2.9870415 -0.1130244 0.0000000, 2.9979547 -0.1091196 0.0000000, 3.0084327 -0.1041639 0.0000000, 3.0183744 -0.0982051 0.0000000, 3.0276842 -0.0913004 0.0000000, 3.0362725 -0.0835165 0.0000000, 3.0440564 -0.0749283 0.0000000, 3.0509610 -0.0656185 0.0000000, 3.0569198 -0.0556768 0.0000000, 3.0618755 -0.0451988 0.0000000, 3.0657804 -0.0342856 0.0000000, 3.0685967 -0.0230422 0.0000000, 3.0702974 -0.0115768 0.0000000 ] } coordIndex [ 0 1 65 64 -1, 1 2 66 65 -1, 2 3 67 66 -1, 3 4 68 67 -1, 4 5 69 68 -1, 5 6 70 69 -1, 6 7 71 70 -1, 7 8 72 71 -1, 8 9 73 72 -1, 9 10 74 73 -1, 10 11 75 74 -1, 11 12 76 75 -1, 12 13 77 76 -1, 13 14 78 77 -1, 14 15 79 78 -1, 15 16 80 79 -1, 16 17 81 80 -1, 17 18 82 81 -1, 18 19 83 82 -1, 19 20 84 83 -1, 20 21 85 84 -1, 21 22 86 85 -1, 22 23 87 86 -1, 23 24 88 87 -1, 24 25 89 88 -1, 25 26 90 89 -1, 26 27 91 90 -1, 27 28 92 91 -1, 28 29 93 92 -1, 29 30 94 93 -1, 30 31 95 94 -1, 31 32 96 95 -1, 32 33 97 96 -1, 33 34 98 97 -1, 34 35 99 98 -1, 35 36 100 99 -1, 36 37 101 100 -1, 37 38 102 101 -1, 38 39 103 102 -1, 39 40 104 103 -1, 40 41 105 104 -1, 41 42 106 105 -1, 42 43 107 106 -1, 43 44 108 107 -1, 44 45 109 108 -1, 45 46 110 109 -1, 46 47 111 110 -1, 47 48 112 111 -1, 48 49 113 112 -1, 49 50 114 113 -1, 50 51 115 114 -1, 51 52 116 115 -1, 52 53 117 116 -1, 53 54 118 117 -1, 54 55 119 118 -1, 55 56 120 119 -1, 56 57 121 120 -1, 57 58 122 121 -1, 58 59 123 122 -1, 59 60 124 123 -1, 60 61 125 124 -1, 61 62 126 125 -1, 62 63 127 126 -1, 63 0 64 127 -1, 63 62 61 60 59 58 57 56 55 54 53 52 51 50 49 48 47 46 45 44 43 42 41 40 39 38 37 36 35 34 33 32 31 30 29 28 27 26 25 24 23 22 21 20 19 18 17 16 15 14 13 12 11 10 9 8 7 6 5 4 3 2 1 0 -1, 64 65 66 67 68 69 70 71 72 73 74 75 76 77 78 79 80 81 82 83 84 85 86 87 88 89 90 91 92 93 94 95 96 97 98 99 100 101 102 103 104 105 106 107 108 109 110 111 112 113 114 115 116 117 118 119 120 121 122 123 124 125 126 127 -1 ] } }
Shape { appearance Appearance { material Material { diffuseColor 0.66 0.69 0.72 } } geometry IndexedFaceSet { solid FALSE coord Coordinate { point [ 4.5096506 -0.8697769 0.3149606, 4.5629343 -0.6560678 0.3149606, 4.6011805 -0.4391624 0.3149606, 4.6242031 -0.2201174 0.3149606, 4.6318898 0.0000000 0.3149606, 4.6242031 0.2201174 0.3149606, 4.6011805 0.4391624 0.3149606, 4.5629343 0.6560678 0.3149606, 4.5096506 0.8697769 0.3149606, 4.5096506 -0.8697769 9.5275591, 4.5629343 -0.6560678 9.5275591, 4.6011805 -0.4391624 9.5275591, 4.6242031 -0.2201174 9.5275591, 4.6318898 0.0000000 9.5275591, 4.6242031 0.2201174 9.5275591, 4.6011805 0.4391624 9.5275591, 4.5629343 0.6560678 9.5275591, 4.5096506 0.8697769 9.5275591 ] } coordIndex [ 0 1 10 9 -1, 1 2 11 10 -1, 2 3 12 11 -1, 3 4 13 12 -1, 4 5 14 13 -1, 5 6 15 14 -1, 6 7 16 15 -1, 7 8 17 16 -1 ] } }
