#VRML V2.0 utf8
# Project-authored nominal visualization, NOT a manufacturer CAD model.
# Based on C&K JS datasheet VL01/14/26 p4 body9mm, depth3.6mm, height3.5mm, travel2mm.
# Pins, bends, standoff and actuator details simplified; not a mechanical-fit or contact-state proof.
# Model Y is opposite KiCad PCB Y. One VRML unit = 2.54mm. Actuator shown at footprint Fab position.
Transform { translation 0.0000000 0.0000000 0.7283465 children [ Shape { appearance Appearance { material Material { diffuseColor 0.12 0.13 0.14 } } geometry Box { size 3.5433071 1.4173228 1.3779528 } } ] }
Transform { translation -0.4921260 -1.1023622 0.7283465 children [ Shape { appearance Appearance { material Material { diffuseColor 0.035 0.035 0.04 } } geometry Box { size 0.5905512 0.7874016 0.5905512 } } ] }
Transform { translation -0.9842520 1.0433071 0.0590551 children [ Shape { appearance Appearance { material Material { diffuseColor 0.72 0.74 0.77 } } geometry Box { size 0.2362205 0.9055118 0.1181102 } } ] }
Transform { translation -0.9842520 0.7480315 0.3149606 children [ Shape { appearance Appearance { material Material { diffuseColor 0.72 0.74 0.77 } } geometry Box { size 0.2362205 0.1181102 0.5118110 } } ] }
Transform { translation 0.0000000 1.0433071 0.0590551 children [ Shape { appearance Appearance { material Material { diffuseColor 0.72 0.74 0.77 } } geometry Box { size 0.2362205 0.9055118 0.1181102 } } ] }
Transform { translation 0.0000000 0.7480315 0.3149606 children [ Shape { appearance Appearance { material Material { diffuseColor 0.72 0.74 0.77 } } geometry Box { size 0.2362205 0.1181102 0.5118110 } } ] }
Transform { translation 0.9842520 1.0433071 0.0590551 children [ Shape { appearance Appearance { material Material { diffuseColor 0.72 0.74 0.77 } } geometry Box { size 0.2362205 0.9055118 0.1181102 } } ] }
Transform { translation 0.9842520 0.7480315 0.3149606 children [ Shape { appearance Appearance { material Material { diffuseColor 0.72 0.74 0.77 } } geometry Box { size 0.2362205 0.1181102 0.5118110 } } ] }
Transform { translation -1.3385827 0 -0.1181102 rotation 1 0 0 1.570796327 children [ Shape { appearance Appearance { material Material { diffuseColor 0.08 0.08 0.09 } } geometry Cylinder { radius 0.1574803 height 0.3149606 } } ] }
Transform { translation 1.3385827 0 -0.1181102 rotation 1 0 0 1.570796327 children [ Shape { appearance Appearance { material Material { diffuseColor 0.08 0.08 0.09 } } geometry Cylinder { radius 0.1574803 height 0.3149606 } } ] }
