#VRML V2.0 utf8
# Project-authored schematic-envelope visualization; not a manufacturer model.
# External KiCad VRML units are 2.54 mm; every coordinate below is mm / 2.54.
# Nominal planform 5.6 x 7.8 mm, nominal lead span 7.6 mm, 0.65 mm pitch.
# Conservative overall height 1.6 mm; leads have simplified polygon bends.
# Model Y is opposite PCB Y; pin 1 is (-X,+Y) in this model.
Transform { translation 0.0000000 0.0000000 0.3541339 children [ Shape { appearance Appearance { material Material { diffuseColor 0.12 0.13 0.15 } } geometry Box { size 2.2047244 3.0708661 0.5507874 } } ] }
# Pin 1
Shape { appearance Appearance { material Material { diffuseColor 0.68 0.70 0.73 shininess 0.35 } } geometry IndexedFaceSet { solid FALSE coord Coordinate { point [ -1.0826772 1.3641732 0.2755906, -1.1614173 1.3641732 0.2755906, -1.3188976 1.3641732 0.0590551, -1.4960630 1.3641732 0.0590551, -1.4960630 1.3641732 0.0000000, -1.2795276 1.3641732 0.0000000, -1.1220472 1.3641732 0.2165354, -1.0826772 1.3641732 0.2165354, -1.0826772 1.4507874 0.2755906, -1.1614173 1.4507874 0.2755906, -1.3188976 1.4507874 0.0590551, -1.4960630 1.4507874 0.0590551, -1.4960630 1.4507874 0.0000000, -1.2795276 1.4507874 0.0000000, -1.1220472 1.4507874 0.2165354, -1.0826772 1.4507874 0.2165354 ] } coordIndex [ 7 6 5 4 3 2 1 0 -1, 8 9 10 11 12 13 14 15 -1, 0 1 9 8 -1, 1 2 10 9 -1, 2 3 11 10 -1, 3 4 12 11 -1, 4 5 13 12 -1, 5 6 14 13 -1, 6 7 15 14 -1, 7 0 8 15 -1 ] } }
# Pin 2
Shape { appearance Appearance { material Material { diffuseColor 0.68 0.70 0.73 shininess 0.35 } } geometry IndexedFaceSet { solid FALSE coord Coordinate { point [ -1.0826772 1.1082677 0.2755906, -1.1614173 1.1082677 0.2755906, -1.3188976 1.1082677 0.0590551, -1.4960630 1.1082677 0.0590551, -1.4960630 1.1082677 0.0000000, -1.2795276 1.1082677 0.0000000, -1.1220472 1.1082677 0.2165354, -1.0826772 1.1082677 0.2165354, -1.0826772 1.1948819 0.2755906, -1.1614173 1.1948819 0.2755906, -1.3188976 1.1948819 0.0590551, -1.4960630 1.1948819 0.0590551, -1.4960630 1.1948819 0.0000000, -1.2795276 1.1948819 0.0000000, -1.1220472 1.1948819 0.2165354, -1.0826772 1.1948819 0.2165354 ] } coordIndex [ 7 6 5 4 3 2 1 0 -1, 8 9 10 11 12 13 14 15 -1, 0 1 9 8 -1, 1 2 10 9 -1, 2 3 11 10 -1, 3 4 12 11 -1, 4 5 13 12 -1, 5 6 14 13 -1, 6 7 15 14 -1, 7 0 8 15 -1 ] } }
# Pin 3
Shape { appearance Appearance { material Material { diffuseColor 0.68 0.70 0.73 shininess 0.35 } } geometry IndexedFaceSet { solid FALSE coord Coordinate { point [ -1.0826772 0.8523622 0.2755906, -1.1614173 0.8523622 0.2755906, -1.3188976 0.8523622 0.0590551, -1.4960630 0.8523622 0.0590551, -1.4960630 0.8523622 0.0000000, -1.2795276 0.8523622 0.0000000, -1.1220472 0.8523622 0.2165354, -1.0826772 0.8523622 0.2165354, -1.0826772 0.9389764 0.2755906, -1.1614173 0.9389764 0.2755906, -1.3188976 0.9389764 0.0590551, -1.4960630 0.9389764 0.0590551, -1.4960630 0.9389764 0.0000000, -1.2795276 0.9389764 0.0000000, -1.1220472 0.9389764 0.2165354, -1.0826772 0.9389764 0.2165354 ] } coordIndex [ 7 6 5 4 3 2 1 0 -1, 8 9 10 11 12 13 14 15 -1, 0 1 9 8 -1, 1 2 10 9 -1, 2 3 11 10 -1, 3 4 12 11 -1, 4 5 13 12 -1, 5 6 14 13 -1, 6 7 15 14 -1, 7 0 8 15 -1 ] } }
# Pin 4
Shape { appearance Appearance { material Material { diffuseColor 0.68 0.70 0.73 shininess 0.35 } } geometry IndexedFaceSet { solid FALSE coord Coordinate { point [ -1.0826772 0.5964567 0.2755906, -1.1614173 0.5964567 0.2755906, -1.3188976 0.5964567 0.0590551, -1.4960630 0.5964567 0.0590551, -1.4960630 0.5964567 0.0000000, -1.2795276 0.5964567 0.0000000, -1.1220472 0.5964567 0.2165354, -1.0826772 0.5964567 0.2165354, -1.0826772 0.6830709 0.2755906, -1.1614173 0.6830709 0.2755906, -1.3188976 0.6830709 0.0590551, -1.4960630 0.6830709 0.0590551, -1.4960630 0.6830709 0.0000000, -1.2795276 0.6830709 0.0000000, -1.1220472 0.6830709 0.2165354, -1.0826772 0.6830709 0.2165354 ] } coordIndex [ 7 6 5 4 3 2 1 0 -1, 8 9 10 11 12 13 14 15 -1, 0 1 9 8 -1, 1 2 10 9 -1, 2 3 11 10 -1, 3 4 12 11 -1, 4 5 13 12 -1, 5 6 14 13 -1, 6 7 15 14 -1, 7 0 8 15 -1 ] } }
# Pin 5
Shape { appearance Appearance { material Material { diffuseColor 0.68 0.70 0.73 shininess 0.35 } } geometry IndexedFaceSet { solid FALSE coord Coordinate { point [ -1.0826772 0.3405512 0.2755906, -1.1614173 0.3405512 0.2755906, -1.3188976 0.3405512 0.0590551, -1.4960630 0.3405512 0.0590551, -1.4960630 0.3405512 0.0000000, -1.2795276 0.3405512 0.0000000, -1.1220472 0.3405512 0.2165354, -1.0826772 0.3405512 0.2165354, -1.0826772 0.4271654 0.2755906, -1.1614173 0.4271654 0.2755906, -1.3188976 0.4271654 0.0590551, -1.4960630 0.4271654 0.0590551, -1.4960630 0.4271654 0.0000000, -1.2795276 0.4271654 0.0000000, -1.1220472 0.4271654 0.2165354, -1.0826772 0.4271654 0.2165354 ] } coordIndex [ 7 6 5 4 3 2 1 0 -1, 8 9 10 11 12 13 14 15 -1, 0 1 9 8 -1, 1 2 10 9 -1, 2 3 11 10 -1, 3 4 12 11 -1, 4 5 13 12 -1, 5 6 14 13 -1, 6 7 15 14 -1, 7 0 8 15 -1 ] } }
# Pin 6
Shape { appearance Appearance { material Material { diffuseColor 0.68 0.70 0.73 shininess 0.35 } } geometry IndexedFaceSet { solid FALSE coord Coordinate { point [ -1.0826772 0.0846457 0.2755906, -1.1614173 0.0846457 0.2755906, -1.3188976 0.0846457 0.0590551, -1.4960630 0.0846457 0.0590551, -1.4960630 0.0846457 0.0000000, -1.2795276 0.0846457 0.0000000, -1.1220472 0.0846457 0.2165354, -1.0826772 0.0846457 0.2165354, -1.0826772 0.1712598 0.2755906, -1.1614173 0.1712598 0.2755906, -1.3188976 0.1712598 0.0590551, -1.4960630 0.1712598 0.0590551, -1.4960630 0.1712598 0.0000000, -1.2795276 0.1712598 0.0000000, -1.1220472 0.1712598 0.2165354, -1.0826772 0.1712598 0.2165354 ] } coordIndex [ 7 6 5 4 3 2 1 0 -1, 8 9 10 11 12 13 14 15 -1, 0 1 9 8 -1, 1 2 10 9 -1, 2 3 11 10 -1, 3 4 12 11 -1, 4 5 13 12 -1, 5 6 14 13 -1, 6 7 15 14 -1, 7 0 8 15 -1 ] } }
# Pin 7
Shape { appearance Appearance { material Material { diffuseColor 0.68 0.70 0.73 shininess 0.35 } } geometry IndexedFaceSet { solid FALSE coord Coordinate { point [ -1.0826772 -0.1712598 0.2755906, -1.1614173 -0.1712598 0.2755906, -1.3188976 -0.1712598 0.0590551, -1.4960630 -0.1712598 0.0590551, -1.4960630 -0.1712598 0.0000000, -1.2795276 -0.1712598 0.0000000, -1.1220472 -0.1712598 0.2165354, -1.0826772 -0.1712598 0.2165354, -1.0826772 -0.0846457 0.2755906, -1.1614173 -0.0846457 0.2755906, -1.3188976 -0.0846457 0.0590551, -1.4960630 -0.0846457 0.0590551, -1.4960630 -0.0846457 0.0000000, -1.2795276 -0.0846457 0.0000000, -1.1220472 -0.0846457 0.2165354, -1.0826772 -0.0846457 0.2165354 ] } coordIndex [ 7 6 5 4 3 2 1 0 -1, 8 9 10 11 12 13 14 15 -1, 0 1 9 8 -1, 1 2 10 9 -1, 2 3 11 10 -1, 3 4 12 11 -1, 4 5 13 12 -1, 5 6 14 13 -1, 6 7 15 14 -1, 7 0 8 15 -1 ] } }
# Pin 8
Shape { appearance Appearance { material Material { diffuseColor 0.68 0.70 0.73 shininess 0.35 } } geometry IndexedFaceSet { solid FALSE coord Coordinate { point [ -1.0826772 -0.4271654 0.2755906, -1.1614173 -0.4271654 0.2755906, -1.3188976 -0.4271654 0.0590551, -1.4960630 -0.4271654 0.0590551, -1.4960630 -0.4271654 0.0000000, -1.2795276 -0.4271654 0.0000000, -1.1220472 -0.4271654 0.2165354, -1.0826772 -0.4271654 0.2165354, -1.0826772 -0.3405512 0.2755906, -1.1614173 -0.3405512 0.2755906, -1.3188976 -0.3405512 0.0590551, -1.4960630 -0.3405512 0.0590551, -1.4960630 -0.3405512 0.0000000, -1.2795276 -0.3405512 0.0000000, -1.1220472 -0.3405512 0.2165354, -1.0826772 -0.3405512 0.2165354 ] } coordIndex [ 7 6 5 4 3 2 1 0 -1, 8 9 10 11 12 13 14 15 -1, 0 1 9 8 -1, 1 2 10 9 -1, 2 3 11 10 -1, 3 4 12 11 -1, 4 5 13 12 -1, 5 6 14 13 -1, 6 7 15 14 -1, 7 0 8 15 -1 ] } }
# Pin 9
Shape { appearance Appearance { material Material { diffuseColor 0.68 0.70 0.73 shininess 0.35 } } geometry IndexedFaceSet { solid FALSE coord Coordinate { point [ -1.0826772 -0.6830709 0.2755906, -1.1614173 -0.6830709 0.2755906, -1.3188976 -0.6830709 0.0590551, -1.4960630 -0.6830709 0.0590551, -1.4960630 -0.6830709 0.0000000, -1.2795276 -0.6830709 0.0000000, -1.1220472 -0.6830709 0.2165354, -1.0826772 -0.6830709 0.2165354, -1.0826772 -0.5964567 0.2755906, -1.1614173 -0.5964567 0.2755906, -1.3188976 -0.5964567 0.0590551, -1.4960630 -0.5964567 0.0590551, -1.4960630 -0.5964567 0.0000000, -1.2795276 -0.5964567 0.0000000, -1.1220472 -0.5964567 0.2165354, -1.0826772 -0.5964567 0.2165354 ] } coordIndex [ 7 6 5 4 3 2 1 0 -1, 8 9 10 11 12 13 14 15 -1, 0 1 9 8 -1, 1 2 10 9 -1, 2 3 11 10 -1, 3 4 12 11 -1, 4 5 13 12 -1, 5 6 14 13 -1, 6 7 15 14 -1, 7 0 8 15 -1 ] } }
# Pin 10
Shape { appearance Appearance { material Material { diffuseColor 0.68 0.70 0.73 shininess 0.35 } } geometry IndexedFaceSet { solid FALSE coord Coordinate { point [ -1.0826772 -0.9389764 0.2755906, -1.1614173 -0.9389764 0.2755906, -1.3188976 -0.9389764 0.0590551, -1.4960630 -0.9389764 0.0590551, -1.4960630 -0.9389764 0.0000000, -1.2795276 -0.9389764 0.0000000, -1.1220472 -0.9389764 0.2165354, -1.0826772 -0.9389764 0.2165354, -1.0826772 -0.8523622 0.2755906, -1.1614173 -0.8523622 0.2755906, -1.3188976 -0.8523622 0.0590551, -1.4960630 -0.8523622 0.0590551, -1.4960630 -0.8523622 0.0000000, -1.2795276 -0.8523622 0.0000000, -1.1220472 -0.8523622 0.2165354, -1.0826772 -0.8523622 0.2165354 ] } coordIndex [ 7 6 5 4 3 2 1 0 -1, 8 9 10 11 12 13 14 15 -1, 0 1 9 8 -1, 1 2 10 9 -1, 2 3 11 10 -1, 3 4 12 11 -1, 4 5 13 12 -1, 5 6 14 13 -1, 6 7 15 14 -1, 7 0 8 15 -1 ] } }
# Pin 11
Shape { appearance Appearance { material Material { diffuseColor 0.68 0.70 0.73 shininess 0.35 } } geometry IndexedFaceSet { solid FALSE coord Coordinate { point [ -1.0826772 -1.1948819 0.2755906, -1.1614173 -1.1948819 0.2755906, -1.3188976 -1.1948819 0.0590551, -1.4960630 -1.1948819 0.0590551, -1.4960630 -1.1948819 0.0000000, -1.2795276 -1.1948819 0.0000000, -1.1220472 -1.1948819 0.2165354, -1.0826772 -1.1948819 0.2165354, -1.0826772 -1.1082677 0.2755906, -1.1614173 -1.1082677 0.2755906, -1.3188976 -1.1082677 0.0590551, -1.4960630 -1.1082677 0.0590551, -1.4960630 -1.1082677 0.0000000, -1.2795276 -1.1082677 0.0000000, -1.1220472 -1.1082677 0.2165354, -1.0826772 -1.1082677 0.2165354 ] } coordIndex [ 7 6 5 4 3 2 1 0 -1, 8 9 10 11 12 13 14 15 -1, 0 1 9 8 -1, 1 2 10 9 -1, 2 3 11 10 -1, 3 4 12 11 -1, 4 5 13 12 -1, 5 6 14 13 -1, 6 7 15 14 -1, 7 0 8 15 -1 ] } }
# Pin 12
Shape { appearance Appearance { material Material { diffuseColor 0.68 0.70 0.73 shininess 0.35 } } geometry IndexedFaceSet { solid FALSE coord Coordinate { point [ -1.0826772 -1.4507874 0.2755906, -1.1614173 -1.4507874 0.2755906, -1.3188976 -1.4507874 0.0590551, -1.4960630 -1.4507874 0.0590551, -1.4960630 -1.4507874 0.0000000, -1.2795276 -1.4507874 0.0000000, -1.1220472 -1.4507874 0.2165354, -1.0826772 -1.4507874 0.2165354, -1.0826772 -1.3641732 0.2755906, -1.1614173 -1.3641732 0.2755906, -1.3188976 -1.3641732 0.0590551, -1.4960630 -1.3641732 0.0590551, -1.4960630 -1.3641732 0.0000000, -1.2795276 -1.3641732 0.0000000, -1.1220472 -1.3641732 0.2165354, -1.0826772 -1.3641732 0.2165354 ] } coordIndex [ 7 6 5 4 3 2 1 0 -1, 8 9 10 11 12 13 14 15 -1, 0 1 9 8 -1, 1 2 10 9 -1, 2 3 11 10 -1, 3 4 12 11 -1, 4 5 13 12 -1, 5 6 14 13 -1, 6 7 15 14 -1, 7 0 8 15 -1 ] } }
# Pin 13
Shape { appearance Appearance { material Material { diffuseColor 0.68 0.70 0.73 shininess 0.35 } } geometry IndexedFaceSet { solid FALSE coord Coordinate { point [ 1.0826772 -1.4507874 0.2755906, 1.1614173 -1.4507874 0.2755906, 1.3188976 -1.4507874 0.0590551, 1.4960630 -1.4507874 0.0590551, 1.4960630 -1.4507874 0.0000000, 1.2795276 -1.4507874 0.0000000, 1.1220472 -1.4507874 0.2165354, 1.0826772 -1.4507874 0.2165354, 1.0826772 -1.3641732 0.2755906, 1.1614173 -1.3641732 0.2755906, 1.3188976 -1.3641732 0.0590551, 1.4960630 -1.3641732 0.0590551, 1.4960630 -1.3641732 0.0000000, 1.2795276 -1.3641732 0.0000000, 1.1220472 -1.3641732 0.2165354, 1.0826772 -1.3641732 0.2165354 ] } coordIndex [ 7 6 5 4 3 2 1 0 -1, 8 9 10 11 12 13 14 15 -1, 0 1 9 8 -1, 1 2 10 9 -1, 2 3 11 10 -1, 3 4 12 11 -1, 4 5 13 12 -1, 5 6 14 13 -1, 6 7 15 14 -1, 7 0 8 15 -1 ] } }
# Pin 14
Shape { appearance Appearance { material Material { diffuseColor 0.68 0.70 0.73 shininess 0.35 } } geometry IndexedFaceSet { solid FALSE coord Coordinate { point [ 1.0826772 -1.1948819 0.2755906, 1.1614173 -1.1948819 0.2755906, 1.3188976 -1.1948819 0.0590551, 1.4960630 -1.1948819 0.0590551, 1.4960630 -1.1948819 0.0000000, 1.2795276 -1.1948819 0.0000000, 1.1220472 -1.1948819 0.2165354, 1.0826772 -1.1948819 0.2165354, 1.0826772 -1.1082677 0.2755906, 1.1614173 -1.1082677 0.2755906, 1.3188976 -1.1082677 0.0590551, 1.4960630 -1.1082677 0.0590551, 1.4960630 -1.1082677 0.0000000, 1.2795276 -1.1082677 0.0000000, 1.1220472 -1.1082677 0.2165354, 1.0826772 -1.1082677 0.2165354 ] } coordIndex [ 7 6 5 4 3 2 1 0 -1, 8 9 10 11 12 13 14 15 -1, 0 1 9 8 -1, 1 2 10 9 -1, 2 3 11 10 -1, 3 4 12 11 -1, 4 5 13 12 -1, 5 6 14 13 -1, 6 7 15 14 -1, 7 0 8 15 -1 ] } }
# Pin 15
Shape { appearance Appearance { material Material { diffuseColor 0.68 0.70 0.73 shininess 0.35 } } geometry IndexedFaceSet { solid FALSE coord Coordinate { point [ 1.0826772 -0.9389764 0.2755906, 1.1614173 -0.9389764 0.2755906, 1.3188976 -0.9389764 0.0590551, 1.4960630 -0.9389764 0.0590551, 1.4960630 -0.9389764 0.0000000, 1.2795276 -0.9389764 0.0000000, 1.1220472 -0.9389764 0.2165354, 1.0826772 -0.9389764 0.2165354, 1.0826772 -0.8523622 0.2755906, 1.1614173 -0.8523622 0.2755906, 1.3188976 -0.8523622 0.0590551, 1.4960630 -0.8523622 0.0590551, 1.4960630 -0.8523622 0.0000000, 1.2795276 -0.8523622 0.0000000, 1.1220472 -0.8523622 0.2165354, 1.0826772 -0.8523622 0.2165354 ] } coordIndex [ 7 6 5 4 3 2 1 0 -1, 8 9 10 11 12 13 14 15 -1, 0 1 9 8 -1, 1 2 10 9 -1, 2 3 11 10 -1, 3 4 12 11 -1, 4 5 13 12 -1, 5 6 14 13 -1, 6 7 15 14 -1, 7 0 8 15 -1 ] } }
# Pin 16
Shape { appearance Appearance { material Material { diffuseColor 0.68 0.70 0.73 shininess 0.35 } } geometry IndexedFaceSet { solid FALSE coord Coordinate { point [ 1.0826772 -0.6830709 0.2755906, 1.1614173 -0.6830709 0.2755906, 1.3188976 -0.6830709 0.0590551, 1.4960630 -0.6830709 0.0590551, 1.4960630 -0.6830709 0.0000000, 1.2795276 -0.6830709 0.0000000, 1.1220472 -0.6830709 0.2165354, 1.0826772 -0.6830709 0.2165354, 1.0826772 -0.5964567 0.2755906, 1.1614173 -0.5964567 0.2755906, 1.3188976 -0.5964567 0.0590551, 1.4960630 -0.5964567 0.0590551, 1.4960630 -0.5964567 0.0000000, 1.2795276 -0.5964567 0.0000000, 1.1220472 -0.5964567 0.2165354, 1.0826772 -0.5964567 0.2165354 ] } coordIndex [ 7 6 5 4 3 2 1 0 -1, 8 9 10 11 12 13 14 15 -1, 0 1 9 8 -1, 1 2 10 9 -1, 2 3 11 10 -1, 3 4 12 11 -1, 4 5 13 12 -1, 5 6 14 13 -1, 6 7 15 14 -1, 7 0 8 15 -1 ] } }
# Pin 17
Shape { appearance Appearance { material Material { diffuseColor 0.68 0.70 0.73 shininess 0.35 } } geometry IndexedFaceSet { solid FALSE coord Coordinate { point [ 1.0826772 -0.4271654 0.2755906, 1.1614173 -0.4271654 0.2755906, 1.3188976 -0.4271654 0.0590551, 1.4960630 -0.4271654 0.0590551, 1.4960630 -0.4271654 0.0000000, 1.2795276 -0.4271654 0.0000000, 1.1220472 -0.4271654 0.2165354, 1.0826772 -0.4271654 0.2165354, 1.0826772 -0.3405512 0.2755906, 1.1614173 -0.3405512 0.2755906, 1.3188976 -0.3405512 0.0590551, 1.4960630 -0.3405512 0.0590551, 1.4960630 -0.3405512 0.0000000, 1.2795276 -0.3405512 0.0000000, 1.1220472 -0.3405512 0.2165354, 1.0826772 -0.3405512 0.2165354 ] } coordIndex [ 7 6 5 4 3 2 1 0 -1, 8 9 10 11 12 13 14 15 -1, 0 1 9 8 -1, 1 2 10 9 -1, 2 3 11 10 -1, 3 4 12 11 -1, 4 5 13 12 -1, 5 6 14 13 -1, 6 7 15 14 -1, 7 0 8 15 -1 ] } }
# Pin 18
Shape { appearance Appearance { material Material { diffuseColor 0.68 0.70 0.73 shininess 0.35 } } geometry IndexedFaceSet { solid FALSE coord Coordinate { point [ 1.0826772 -0.1712598 0.2755906, 1.1614173 -0.1712598 0.2755906, 1.3188976 -0.1712598 0.0590551, 1.4960630 -0.1712598 0.0590551, 1.4960630 -0.1712598 0.0000000, 1.2795276 -0.1712598 0.0000000, 1.1220472 -0.1712598 0.2165354, 1.0826772 -0.1712598 0.2165354, 1.0826772 -0.0846457 0.2755906, 1.1614173 -0.0846457 0.2755906, 1.3188976 -0.0846457 0.0590551, 1.4960630 -0.0846457 0.0590551, 1.4960630 -0.0846457 0.0000000, 1.2795276 -0.0846457 0.0000000, 1.1220472 -0.0846457 0.2165354, 1.0826772 -0.0846457 0.2165354 ] } coordIndex [ 7 6 5 4 3 2 1 0 -1, 8 9 10 11 12 13 14 15 -1, 0 1 9 8 -1, 1 2 10 9 -1, 2 3 11 10 -1, 3 4 12 11 -1, 4 5 13 12 -1, 5 6 14 13 -1, 6 7 15 14 -1, 7 0 8 15 -1 ] } }
# Pin 19
Shape { appearance Appearance { material Material { diffuseColor 0.68 0.70 0.73 shininess 0.35 } } geometry IndexedFaceSet { solid FALSE coord Coordinate { point [ 1.0826772 0.0846457 0.2755906, 1.1614173 0.0846457 0.2755906, 1.3188976 0.0846457 0.0590551, 1.4960630 0.0846457 0.0590551, 1.4960630 0.0846457 0.0000000, 1.2795276 0.0846457 0.0000000, 1.1220472 0.0846457 0.2165354, 1.0826772 0.0846457 0.2165354, 1.0826772 0.1712598 0.2755906, 1.1614173 0.1712598 0.2755906, 1.3188976 0.1712598 0.0590551, 1.4960630 0.1712598 0.0590551, 1.4960630 0.1712598 0.0000000, 1.2795276 0.1712598 0.0000000, 1.1220472 0.1712598 0.2165354, 1.0826772 0.1712598 0.2165354 ] } coordIndex [ 7 6 5 4 3 2 1 0 -1, 8 9 10 11 12 13 14 15 -1, 0 1 9 8 -1, 1 2 10 9 -1, 2 3 11 10 -1, 3 4 12 11 -1, 4 5 13 12 -1, 5 6 14 13 -1, 6 7 15 14 -1, 7 0 8 15 -1 ] } }
# Pin 20
Shape { appearance Appearance { material Material { diffuseColor 0.68 0.70 0.73 shininess 0.35 } } geometry IndexedFaceSet { solid FALSE coord Coordinate { point [ 1.0826772 0.3405512 0.2755906, 1.1614173 0.3405512 0.2755906, 1.3188976 0.3405512 0.0590551, 1.4960630 0.3405512 0.0590551, 1.4960630 0.3405512 0.0000000, 1.2795276 0.3405512 0.0000000, 1.1220472 0.3405512 0.2165354, 1.0826772 0.3405512 0.2165354, 1.0826772 0.4271654 0.2755906, 1.1614173 0.4271654 0.2755906, 1.3188976 0.4271654 0.0590551, 1.4960630 0.4271654 0.0590551, 1.4960630 0.4271654 0.0000000, 1.2795276 0.4271654 0.0000000, 1.1220472 0.4271654 0.2165354, 1.0826772 0.4271654 0.2165354 ] } coordIndex [ 7 6 5 4 3 2 1 0 -1, 8 9 10 11 12 13 14 15 -1, 0 1 9 8 -1, 1 2 10 9 -1, 2 3 11 10 -1, 3 4 12 11 -1, 4 5 13 12 -1, 5 6 14 13 -1, 6 7 15 14 -1, 7 0 8 15 -1 ] } }
# Pin 21
Shape { appearance Appearance { material Material { diffuseColor 0.68 0.70 0.73 shininess 0.35 } } geometry IndexedFaceSet { solid FALSE coord Coordinate { point [ 1.0826772 0.5964567 0.2755906, 1.1614173 0.5964567 0.2755906, 1.3188976 0.5964567 0.0590551, 1.4960630 0.5964567 0.0590551, 1.4960630 0.5964567 0.0000000, 1.2795276 0.5964567 0.0000000, 1.1220472 0.5964567 0.2165354, 1.0826772 0.5964567 0.2165354, 1.0826772 0.6830709 0.2755906, 1.1614173 0.6830709 0.2755906, 1.3188976 0.6830709 0.0590551, 1.4960630 0.6830709 0.0590551, 1.4960630 0.6830709 0.0000000, 1.2795276 0.6830709 0.0000000, 1.1220472 0.6830709 0.2165354, 1.0826772 0.6830709 0.2165354 ] } coordIndex [ 7 6 5 4 3 2 1 0 -1, 8 9 10 11 12 13 14 15 -1, 0 1 9 8 -1, 1 2 10 9 -1, 2 3 11 10 -1, 3 4 12 11 -1, 4 5 13 12 -1, 5 6 14 13 -1, 6 7 15 14 -1, 7 0 8 15 -1 ] } }
# Pin 22
Shape { appearance Appearance { material Material { diffuseColor 0.68 0.70 0.73 shininess 0.35 } } geometry IndexedFaceSet { solid FALSE coord Coordinate { point [ 1.0826772 0.8523622 0.2755906, 1.1614173 0.8523622 0.2755906, 1.3188976 0.8523622 0.0590551, 1.4960630 0.8523622 0.0590551, 1.4960630 0.8523622 0.0000000, 1.2795276 0.8523622 0.0000000, 1.1220472 0.8523622 0.2165354, 1.0826772 0.8523622 0.2165354, 1.0826772 0.9389764 0.2755906, 1.1614173 0.9389764 0.2755906, 1.3188976 0.9389764 0.0590551, 1.4960630 0.9389764 0.0590551, 1.4960630 0.9389764 0.0000000, 1.2795276 0.9389764 0.0000000, 1.1220472 0.9389764 0.2165354, 1.0826772 0.9389764 0.2165354 ] } coordIndex [ 7 6 5 4 3 2 1 0 -1, 8 9 10 11 12 13 14 15 -1, 0 1 9 8 -1, 1 2 10 9 -1, 2 3 11 10 -1, 3 4 12 11 -1, 4 5 13 12 -1, 5 6 14 13 -1, 6 7 15 14 -1, 7 0 8 15 -1 ] } }
# Pin 23
Shape { appearance Appearance { material Material { diffuseColor 0.68 0.70 0.73 shininess 0.35 } } geometry IndexedFaceSet { solid FALSE coord Coordinate { point [ 1.0826772 1.1082677 0.2755906, 1.1614173 1.1082677 0.2755906, 1.3188976 1.1082677 0.0590551, 1.4960630 1.1082677 0.0590551, 1.4960630 1.1082677 0.0000000, 1.2795276 1.1082677 0.0000000, 1.1220472 1.1082677 0.2165354, 1.0826772 1.1082677 0.2165354, 1.0826772 1.1948819 0.2755906, 1.1614173 1.1948819 0.2755906, 1.3188976 1.1948819 0.0590551, 1.4960630 1.1948819 0.0590551, 1.4960630 1.1948819 0.0000000, 1.2795276 1.1948819 0.0000000, 1.1220472 1.1948819 0.2165354, 1.0826772 1.1948819 0.2165354 ] } coordIndex [ 7 6 5 4 3 2 1 0 -1, 8 9 10 11 12 13 14 15 -1, 0 1 9 8 -1, 1 2 10 9 -1, 2 3 11 10 -1, 3 4 12 11 -1, 4 5 13 12 -1, 5 6 14 13 -1, 6 7 15 14 -1, 7 0 8 15 -1 ] } }
# Pin 24
Shape { appearance Appearance { material Material { diffuseColor 0.68 0.70 0.73 shininess 0.35 } } geometry IndexedFaceSet { solid FALSE coord Coordinate { point [ 1.0826772 1.3641732 0.2755906, 1.1614173 1.3641732 0.2755906, 1.3188976 1.3641732 0.0590551, 1.4960630 1.3641732 0.0590551, 1.4960630 1.3641732 0.0000000, 1.2795276 1.3641732 0.0000000, 1.1220472 1.3641732 0.2165354, 1.0826772 1.3641732 0.2165354, 1.0826772 1.4507874 0.2755906, 1.1614173 1.4507874 0.2755906, 1.3188976 1.4507874 0.0590551, 1.4960630 1.4507874 0.0590551, 1.4960630 1.4507874 0.0000000, 1.2795276 1.4507874 0.0000000, 1.1220472 1.4507874 0.2165354, 1.0826772 1.4507874 0.2165354 ] } coordIndex [ 7 6 5 4 3 2 1 0 -1, 8 9 10 11 12 13 14 15 -1, 0 1 9 8 -1, 1 2 10 9 -1, 2 3 11 10 -1, 3 4 12 11 -1, 4 5 13 12 -1, 5 6 14 13 -1, 6 7 15 14 -1, 7 0 8 15 -1 ] } }
Shape { appearance Appearance { material Material { diffuseColor 0.70 0.72 0.75 } } geometry IndexedFaceSet { solid FALSE coord Coordinate { point [ -0.7637795 1.2598425 0.6299213, -0.7700730 1.2914817 0.6299213, -0.7879951 1.3183041 0.6299213, -0.8148175 1.3362263 0.6299213, -0.8464567 1.3425197 0.6299213, -0.8780959 1.3362263 0.6299213, -0.9049183 1.3183041 0.6299213, -0.9228404 1.2914817 0.6299213, -0.9291339 1.2598425 0.6299213, -0.9228404 1.2282033 0.6299213, -0.9049183 1.2013809 0.6299213, -0.8780959 1.1834588 0.6299213, -0.8464567 1.1771654 0.6299213, -0.8148175 1.1834588 0.6299213, -0.7879951 1.2013809 0.6299213, -0.7700730 1.2282033 0.6299213 ] } coordIndex [ 0 1 2 3 4 5 6 7 8 9 10 11 12 13 14 15 -1 ] } }
