M48
; DRILL file KiCad 10.0.6 date 2026-09-28T01:15:12
; FORMAT={-:-/ absolute / metric / decimal}
; #@! TF.CreationDate,2026-09-28T01:15:12-04:00
; #@! TF.GenerationSoftware,Kicad,Pcbnew,10.0.6
; #@! TF.FileFunction,Plated,1,2,PTH
FMAT,2
METRIC
; #@! TA.AperFunction,Plated,PTH,ViaDrill
T1C0.300
; #@! TA.AperFunction,Plated,PTH,ComponentDrill
T2C0.800
; #@! TA.AperFunction,Plated,PTH,ComponentDrill
T3C1.000
; #@! TA.AperFunction,Plated,PTH,ComponentDrill
T4C1.100
; #@! TA.AperFunction,Plated,PTH,ComponentDrill
T5C1.200
; #@! TA.AperFunction,Plated,PTH,ComponentDrill
T6C1.400
%
G90
G05
T1
X11.274Y30.956
X13.651Y34.823
X14.41Y38.901
X14.441Y25.429
X15.193Y52.947
X16.589Y49.877
X17.191Y45.984
X17.243Y20.21
X18.182Y38.0
X20.297Y54.825
X20.297Y46.823
X20.897Y32.362
X21.192Y59.633
X21.931Y27.378
X22.595Y38.831
X22.595Y32.447
X23.096Y66.734
X23.607Y52.136
X25.486Y33.595
X25.801Y27.801
X26.478Y56.0
X26.485Y57.177
X27.401Y56.509
X27.983Y22.0
X28.673Y37.0
X29.512Y57.176
X30.317Y33.495
X30.367Y34.676
X32.422Y55.999
X32.614Y43.82
X32.643Y54.79
X32.836Y40.385
X33.739Y24.046
X33.811Y56.726
X34.401Y15.313
X34.855Y47.831
X35.165Y34.835
X35.703Y59.748
X35.825Y54.0
X35.825Y44.35
X35.917Y19.399
X36.447Y5.629
X37.112Y65.175
X37.316Y50.825
X38.179Y23.855
X40.628Y22.676
X40.934Y56.737
X41.107Y7.006
X41.708Y20.175
X42.742Y40.134
X42.742Y32.458
X43.975Y22.975
X45.0Y31.25
X45.02Y37.009
X45.522Y29.903
X45.612Y8.088
X47.922Y19.399
X48.041Y16.872
X48.296Y42.997
X48.675Y21.18
X48.782Y43.95
X48.983Y24.83
X51.234Y21.177
X51.266Y24.821
X51.64Y41.91
X51.835Y17.857
X54.233Y43.044
X56.432Y14.98
X56.89Y18.274
X57.221Y40.7
X59.325Y15.088
X60.351Y44.424
X60.399Y15.794
X60.67Y20.802
X60.946Y23.765
X63.0Y24.724
X63.379Y41.205
X63.379Y33.136
X64.317Y16.911
X64.317Y11.088
X64.645Y34.109
X67.405Y55.039
X67.544Y19.587
X67.663Y56.063
X68.937Y57.658
X69.678Y23.625
X69.905Y57.053
X70.435Y53.876
X70.435Y20.192
X71.095Y57.547
X71.928Y51.589
X71.928Y28.826
X72.922Y26.923
X73.902Y53.725
X73.902Y19.725
X73.903Y18.451
X73.921Y57.942
X74.44Y41.63
X74.632Y21.523
X75.677Y23.172
X80.346Y51.579
X80.931Y56.899
X81.007Y22.899
X81.204Y19.644
X81.204Y6.598
T2
X63.0Y62.0
X63.0Y52.0
X63.0Y29.0
X63.0Y21.0
X65.0Y62.0
X65.0Y52.0
X65.0Y29.0
X65.0Y21.0
T3
X53.0Y6.0
X58.0Y6.0
X66.0Y6.0
X71.0Y6.0
T4
X10.0Y65.0
X10.0Y62.46
X10.0Y59.92
X10.0Y57.38
X10.0Y54.84
X10.0Y52.3
X10.0Y49.76
X10.0Y47.22
X12.54Y65.0
X12.54Y62.46
X12.54Y59.92
X12.54Y57.38
X12.54Y54.84
X12.54Y52.3
X12.54Y49.76
X12.54Y47.22
T5
X46.0Y74.0
X61.24Y74.0
T6
X13.0Y13.0
X18.08Y13.0
X86.5Y66.58
X86.5Y61.5
X86.5Y51.08
X86.5Y46.0
X86.5Y36.08
X86.5Y31.0
X86.5Y20.58
X86.5Y15.5
M30
