M48
; DRILL file KiCad 10.0.6 date 2026-09-28T08:13:04
; FORMAT={-:-/ absolute / metric / decimal}
; #@! TF.CreationDate,2026-09-28T08:13:04-04:00
; #@! TF.GenerationSoftware,Kicad,Pcbnew,10.0.6
; #@! TF.FileFunction,Plated,1,2,PTH
FMAT,2
METRIC
; #@! TA.AperFunction,Plated,PTH,ViaDrill
T1C0.300
; #@! TA.AperFunction,Plated,PTH,ComponentDrill
T2C0.300
; #@! TA.AperFunction,Plated,PTH,ComponentDrill
T3C1.000
; #@! TA.AperFunction,Plated,PTH,ComponentDrill
T4C1.100
; #@! TA.AperFunction,Plated,PTH,ComponentDrill
T5C1.200
; #@! TA.AperFunction,Plated,PTH,ComponentDrill
T6C1.400
%
G90
G05
T1
X8.0Y93.584
X9.271Y87.0
X14.146Y62.645
X14.336Y78.161
X14.355Y82.18
X15.229Y27.945
X16.207Y56.0
X16.88Y25.404
X20.055Y77.172
X20.68Y61.153
X20.902Y69.449
X21.796Y83.65
X22.047Y67.062
X22.05Y28.95
X23.425Y26.413
X23.55Y34.35
X23.674Y65.233
X23.674Y58.106
X24.1Y28.15
X24.546Y83.379
X25.578Y74.125
X26.124Y83.087
X26.314Y84.28
X27.04Y69.771
X27.232Y80.829
X27.355Y64.262
X27.499Y83.57
X27.748Y85.571
X28.447Y65.55
X28.447Y61.815
X29.9Y39.0
X29.966Y86.633
X29.988Y59.884
X30.6Y35.75
X30.8Y34.55
X30.85Y33.0
X31.1Y22.5
X31.9Y32.55
X32.323Y81.023
X32.525Y26.719
X32.693Y65.175
X32.75Y32.167
X32.913Y42.303
X33.23Y81.533
X33.343Y90.501
X33.75Y31.747
X34.616Y90.566
X35.111Y79.22
X35.251Y55.144
X35.508Y37.871
X36.235Y32.458
X36.37Y30.153
X36.599Y87.106
X36.818Y84.116
X36.95Y33.45
X37.1Y30.75
X37.365Y61.813
X37.635Y85.927
X38.0Y69.622
X38.018Y55.17
X38.045Y34.714
X38.222Y42.708
X38.241Y87.832
X38.406Y57.626
X38.658Y78.0
X38.791Y79.95
X38.877Y82.538
X39.0Y36.4
X39.0Y35.6
X39.652Y84.611
X40.141Y89.918
X40.385Y53.939
X40.777Y43.662
X41.21Y58.132
X41.564Y50.856
X42.041Y55.193
X42.19Y82.321
X42.489Y86.599
X42.541Y84.092
X42.837Y83.09
X42.884Y76.331
X43.136Y49.0
X43.398Y74.175
X43.563Y80.897
X43.657Y22.931
X43.759Y65.25
X44.198Y85.324
X44.244Y55.549
X44.576Y80.395
X44.954Y84.664
X44.961Y71.284
X45.405Y48.072
X45.519Y86.835
X45.619Y20.969
X46.06Y87.753
X46.159Y68.334
X46.735Y59.811
X46.962Y72.187
X46.986Y24.558
X47.018Y81.815
X47.183Y48.828
X47.268Y21.18
X47.27Y56.182
X47.292Y79.679
X47.831Y20.312
X48.697Y31.031
X48.697Y25.39
X49.3Y16.455
X49.421Y59.423
X50.438Y56.575
X53.09Y71.811
X53.09Y54.974
X53.912Y74.665
X55.782Y77.192
X60.966Y50.301
X62.362Y49.05
X62.469Y64.646
X62.661Y50.783
X63.758Y64.358
X63.758Y52.385
X66.336Y65.386
X66.336Y62.131
X66.395Y24.096
X66.396Y27.301
X67.35Y87.3
X67.534Y26.821
X68.5Y49.551
X69.95Y87.465
X69.95Y68.525
X70.2Y82.975
X70.2Y63.975
X70.2Y44.975
X70.2Y25.975
X70.55Y60.0
X70.55Y22.0
X70.6Y81.5
X70.6Y43.5
X70.622Y78.05
X70.631Y40.05
X70.7Y65.4
X70.7Y46.4
X70.7Y27.4
X70.95Y62.57
X70.95Y24.57
X70.98Y82.25
X70.98Y44.25
X71.0Y86.35
X72.0Y84.5
X72.25Y47.05
X72.675Y74.665
X72.925Y59.889
X72.946Y40.879
X73.574Y78.87
X74.05Y56.25
X75.048Y57.833
X75.577Y21.256
X75.694Y86.612
X75.82Y19.334
X77.462Y21.662
X77.729Y76.921
X78.527Y57.713
X79.0Y45.0
X79.05Y82.95
X79.15Y62.65
X79.2Y61.8
X79.2Y84.275
X79.2Y65.275
X79.2Y46.275
X79.2Y27.275
X79.254Y24.652
X79.263Y64.162
X79.291Y26.127
X79.35Y81.55
X79.49Y23.603
X79.808Y39.413
X80.1Y43.95
X80.424Y42.241
X80.542Y50.817
X80.587Y69.862
X80.587Y31.839
X80.6Y81.7
X80.626Y45.06
X80.937Y39.491
X81.024Y61.226
X81.334Y17.09
X81.95Y20.258
X82.412Y80.215
X82.775Y34.834
X82.934Y23.225
X83.528Y79.258
X83.991Y18.495
T2
X33.3Y35.7
X33.3Y34.3
X34.7Y35.7
X34.7Y34.3
X74.3Y84.2
X74.3Y79.8
X74.3Y65.2
X74.3Y60.8
X74.3Y46.2
X74.3Y41.8
X74.3Y27.2
X74.3Y22.8
X75.7Y84.2
X75.7Y79.8
X75.7Y65.2
X75.7Y60.8
X75.7Y46.2
X75.7Y41.8
X75.7Y27.2
X75.7Y22.8
T3
X56.0Y82.0
X56.0Y63.0
X56.0Y44.0
X56.0Y25.0
X61.0Y82.0
X61.0Y63.0
X61.0Y44.0
X61.0Y25.0
T4
X8.0Y82.0
X8.0Y79.46
X8.0Y76.92
X8.0Y74.38
X8.0Y71.84
X8.0Y69.3
X8.0Y66.76
X8.0Y64.22
X10.54Y82.0
X10.54Y79.46
X10.54Y76.92
X10.54Y74.38
X10.54Y71.84
X10.54Y69.3
X10.54Y66.76
X10.54Y64.22
T5
X35.0Y95.0
X35.0Y11.0
X42.5Y11.0
X50.24Y95.0
X56.0Y11.0
X63.5Y11.0
T6
X13.0Y13.0
X18.08Y13.0
X86.5Y82.58
X86.5Y77.5
X86.5Y63.58
X86.5Y58.5
X86.5Y44.58
X86.5Y39.5
X86.5Y25.58
X86.5Y20.5
M30
